<?xml version="1.0" standalone="no"?>
 <!DOCTYPE svg PUBLIC "-//W3C//DTD SVG 1.1//EN" 
 "http://www.w3.org/Graphics/SVG/1.1/DTD/svg11.dtd"> 
<svg
  xmlns:svg="http://www.w3.org/2000/svg"
  xmlns="http://www.w3.org/2000/svg"
  xmlns:xlink="http://www.w3.org/1999/xlink"
  version="1.1"
  width="29.700220cm" height="21.000720cm" viewBox="0 0 297002200 210007200">
<title>SVG Picture created as cover-F_Mask.svg date 2022/05/05 18:20:02 </title>
  <desc>Picture generated by PCBNEW </desc>
<g style="fill:#000000; fill-opacity:1.000000;stroke:#000000; stroke-opacity:1.000000;
stroke-linecap:round; stroke-linejoin:round;"
 transform="translate(0 0) scale(1 1)">
</g>
<g style="fill:#000000; fill-opacity:0.0; 
stroke:#000000; stroke-width:0.000000; stroke-opacity:1; 
stroke-linecap:round; stroke-linejoin:round;">
</g>
<g style="fill:#000000; fill-opacity:0.0; 
stroke:#000000; stroke-width:26458.000000; stroke-opacity:1; 
stroke-linecap:round; stroke-linejoin:round;">
<path d="M142616851 126019871
L142543003 126021342
" />
<path d="M141788902 126611374
L141778505 126647075
" />
<path d="M141150203 126149625
L141210791 126038631
" />
<path d="M141750512 126903205
L141752911 126940018
" />
<path d="M142873041 127666644
L142908618 127653424
" />
<path d="M142543003 127711333
L142579890 127712871
" />
<path d="M142007811 126257656
L141980603 126285232
" />
<path d="M141829691 127225843
L141846487 127259652
" />
<path d="M141800899 127156611
L141814495 127191477
" />
<path d="M142007811 127475019
L142036028 127501130
" />
<path d="M143046169 128416354
L142922039 128447129
" />
<path d="M141752911 126940018
L141756910 126976719
" />
<path d="M141778505 126647075
L141769707 126683109
" />
<path d="M141098937 126263965
L141150203 126149625
" />
<path d="M142922039 128447129
L142797289 128467818
" />
<path d="M142397301 126043395
L142326326 126063844
" />
<path d="M142190329 127609419
L142223447 127626565
" />
<path d="M141954459 127418410
L141980603 127447443
" />
<path d="M142797289 125264856
L142859708 125273951
" />
<path d="M142486162 125256059
L142548039 125253004
" />
<path d="M142123634 125323165
L142182687 125306288
" />
<path d="M142943774 127638523
L142978455 127621932
" />
<path d="M141864882 127292849
L141884877 127325380
" />
<path d="M141906472 127357187
L141929666 127388215
" />
<path d="M142065200 126206907
L142036028 126231544
" />
<path d="M142223447 127626565
L142257189 127642188
" />
<path d="M142157890 126141917
L142126186 126162084
" />
<path d="M141056991 126381093
L141098937 126263965
" />
<path d="M142126186 126162084
L142095271 126183750
" />
<path d="M142908618 126079250
L142873041 126066030
" />
<path d="M142837099 126054483
L142800847 126044601
" />
<path d="M141840200 125440442
L141895090 125412677
" />
<path d="M142616851 127712803
L142653831 127711120
" />
<path d="M142873041 126066030
L142837099 126054483
" />
<path d="M141750512 126829469
L141749712 126866337
" />
<path d="M142242375 125291658
L142302632 125279297
" />
<path d="M141749712 126866337
L141750512 126903205
" />
<path d="M142548039 128479670
L142424591 128471200
" />
<path d="M140982422 126866337
L140987083 126743632
" />
<path d="M142326326 126063844
L142257189 126090486
" />
<path d="M141443696 125736547
L141488502 125692555
" />
<path d="M141631601 128160315
L141534798 128082163
" />
<path d="M141788902 127121300
L141800899 127156611
" />
<path d="M141024367 127232221
L141001064 127111189
" />
</g>
<g style="fill:#000000; fill-opacity:0.0; 
stroke:#000000; stroke-width:150000.000000; stroke-opacity:1; 
stroke-linecap:round; stroke-linejoin:round;">
<circle cx="150007149.000000" cy="79250002.000000" r="8000005.000000" /> 
</g>
<g style="fill:#000000; fill-opacity:0.0; 
stroke:#000000; stroke-width:26458.000000; stroke-opacity:1; 
stroke-linecap:round; stroke-linejoin:round;">
<path d="M141358821 125830285
L141400448 125782465
" />
<path d="M142506246 127708196
L142543003 127711333
" />
<path d="M142007697 125363566
L142065282 125342265
" />
</g>
<g style="fill:#000000; fill-opacity:1.0; 
stroke:#000000; stroke-width:1.000000; stroke-opacity:1; 
stroke-linecap:round; stroke-linejoin:round;">
<circle cx="150007149.000000" cy="79250002.000000" r="1557149.000000" /> 
</g>
<g style="fill:#000000; fill-opacity:1.0; 
stroke:#000000; stroke-width:26458.000000; stroke-opacity:1; 
stroke-linecap:round; stroke-linejoin:round;">
</g>
<g style="fill:#000000; fill-opacity:0.0; 
stroke:#000000; stroke-width:26458.000000; stroke-opacity:1; 
stroke-linecap:round; stroke-linejoin:round;">
<path d="M141756910 126976719
L141762509 127013254
" />
<path d="M142727630 126029798
L142690776 126024860
" />
<path d="M141954459 126314265
L141929665 126344459
" />
<path d="M143787003 126786962
L144422003 126151962
" />
<path d="M144422003 126151962
L143046169 126151962
" />
<path d="M143046169 126151962
L143046169 126786962
" />
<path d="M143046169 126786962
L143787003 126786962
" />
</g>
<g style="fill:#000000; fill-opacity:1.0; 
stroke:#000000; stroke-width:1.000000; stroke-opacity:1; 
stroke-linecap:round; stroke-linejoin:round;">
<circle cx="143787003.000000" cy="126786962.000000" r="13229.000000" /> 
</g>
<g style="fill:#000000; fill-opacity:1.0; 
stroke:#000000; stroke-width:26458.000000; stroke-opacity:1; 
stroke-linecap:round; stroke-linejoin:round;">
<path style="fill:#000000; fill-opacity:1.0; 
stroke:#000000; stroke-width:26458.000000; stroke-opacity:1; 
stroke-linecap:round; stroke-linejoin:round;fill-rule:evenodd;"
d="M 143787003.000000,126786962.000000
143046169.000000,126786962.000000
143046169.000000,126151962.000000
144422003.000000,126151962.000000
Z" /> 
</g>
<g style="fill:#000000; fill-opacity:0.0; 
stroke:#000000; stroke-width:26458.000000; stroke-opacity:1; 
stroke-linecap:round; stroke-linejoin:round;">
<path d="M141980603 127447443
L142007811 127475019
" />
<path d="M141950944 125387044
L142007697 125363566
" />
</g>
<g style="fill:#000000; fill-opacity:0.0; 
stroke:#000000; stroke-width:1.000000; stroke-opacity:1; 
stroke-linecap:round; stroke-linejoin:round;">
</g>
<g style="fill:#000000; fill-opacity:1.0; 
stroke:#000000; stroke-width:1.000000; stroke-opacity:1; 
stroke-linecap:round; stroke-linejoin:round;">
<path style="fill:#000000; fill-opacity:1.0; 
stroke:#000000; stroke-width:1.000000; stroke-opacity:1; 
stroke-linecap:round; stroke-linejoin:round;fill-rule:evenodd;"
d="M 142828498.000000,125269403.000000
143046170.000000,125316321.000000
143046169.000000,126149028.000000
142978455.000000,126110743.000000
142890829.000000,126072640.000000
142818973.000000,126049542.000000
142745984.000000,126033086.000000
142653813.000000,126022365.000000
142579927.000000,126020606.000000
142506338.000000,126025273.000000
142469674.000000,126029205.000000
142397301.000000,126043395.000000
142326326.000000,126063844.000000
142240318.000000,126098297.000000
142157890.000000,126141917.000000
142080235.000000,126195328.000000
142021919.000000,126244600.000000
141967531.000000,126299748.000000
141929665.000000,126344459.000000
141895674.000000,126391391.000000
141846487.000000,126473023.000000
141783703.000000,126629224.000000
141759709.000000,126737688.000000
141749712.000000,126866337.000000
141759709.000000,126994986.000000
141766108.000000,127031410.000000
141822093.000000,127208660.000000
141855684.000000,127276250.000000
141906472.000000,127357187.000000
141954459.000000,127418410.000000
142021919.000000,127488074.000000
142095271.000000,127548924.000000
142190329.000000,127609419.000000
142326327.000000,127668831.000000
142415320.000000,127693220.000000
142487960.000000,127705832.000000
142616851.000000,127712803.000000
142745984.000000,127699588.000000
142908618.000000,127653424.000000
143046169.000000,127583647.000000
143046169.000000,128416354.000000
142984104.000000,128431741.000000
142672447.000000,128478604.000000
142363611.000000,128462289.000000
142008112.000000,128368019.000000
141682589.000000,128195357.000000
141443696.000000,127996126.000000
141245744.000000,127747588.000000
141077963.000000,127410144.000000
140994073.000000,127050115.000000
140994073.000000,126682558.000000
141098937.000000,126263965.000000
141318883.000000,125879984.000000
141631601.000000,125572359.000000
142036489.000000,125352915.000000
142455377.000000,125258766.000000
Z" /> 
</g>
<g style="fill:#000000; fill-opacity:1.0; 
stroke:#000000; stroke-width:26458.000000; stroke-opacity:1; 
stroke-linecap:round; stroke-linejoin:round;">
</g>
<g style="fill:#000000; fill-opacity:0.0; 
stroke:#000000; stroke-width:26458.000000; stroke-opacity:1; 
stroke-linecap:round; stroke-linejoin:round;">
<path d="M141443696 127996126
L141358821 127902389
" />
<path d="M142036028 127501130
L142065200 127525768
" />
<path d="M142190329 126123255
L142157890 126141917
" />
</g>
<g style="fill:#000000; fill-opacity:1.0; 
stroke:#000000; stroke-width:1.000000; stroke-opacity:1; 
stroke-linecap:round; stroke-linejoin:round;">
<circle cx="141280700.000000" cy="125931540.000000" r="13229.000000" /> 
</g>
<g style="fill:#000000; fill-opacity:1.0; 
stroke:#000000; stroke-width:26458.000000; stroke-opacity:1; 
stroke-linecap:round; stroke-linejoin:round;">
</g>
<g style="fill:#000000; fill-opacity:0.0; 
stroke:#000000; stroke-width:26458.000000; stroke-opacity:1; 
stroke-linecap:round; stroke-linejoin:round;">
<path d="M141769707 127049566
L141778505 127085600
" />
<path d="M142922039 125285545
L142984214 125299661
" />
<path d="M141884877 126407295
L141864882 126439825
" />
<path d="M141864882 126439825
L141846487 126473023
" />
<path d="M141318883 125879984
L141358821 125830285
" />
<path d="M141733577 128230400
L141631601 128160315
" />
<path d="M141840200 128292232
L141733577 128230400
" />
<path d="M142653831 127711120
L142690776 127707814
" />
<path d="M141488502 125692555
L141534799 125650511
" />
<path d="M142800847 127688073
L142837099 127678191
" />
<path d="M142126186 127570590
L142157890 127590758
" />
<path d="M142065281 128390409
L141950944 128345630
" />
<path d="M141895090 125412677
L141950944 125387044
" />
<path d="M142690776 127707814
L142727630 127702877
" />
<path d="M141762509 127013254
L141769707 127049566
" />
<path d="M142672447 128478604
L142548039 128479670
" />
<path d="M143046170 125316321
L143046169 126149028
" />
<path d="M142065200 127525768
L142095271 127548924
" />
<path d="M141906471 126375488
L141884877 126407295
" />
</g>
<g style="fill:#000000; fill-opacity:1.0; 
stroke:#000000; stroke-width:1.000000; stroke-opacity:1; 
stroke-linecap:round; stroke-linejoin:round;">
<circle cx="141954459.000000" cy="127418410.000000" r="13229.000000" /> 
</g>
<g style="fill:#000000; fill-opacity:1.0; 
stroke:#000000; stroke-width:26458.000000; stroke-opacity:1; 
stroke-linecap:round; stroke-linejoin:round;">
</g>
<g style="fill:#000000; fill-opacity:0.0; 
stroke:#000000; stroke-width:26458.000000; stroke-opacity:1; 
stroke-linecap:round; stroke-linejoin:round;">
<path d="M142433340 127697161
L142469674 127703469
" />
<path d="M141534799 125650511
L141582520 125610438
" />
<path d="M141098936 127468709
L141056991 127351580
" />
<path d="M141752911 126792656
L141750512 126829469
" />
<path d="M142424592 125261474
L142486162 125256059
" />
<path d="M141800899 126576063
L141788902 126611374
" />
<path d="M142424591 128471200
L142302632 128453378
" />
<path d="M142157890 127590758
L142190329 127609419
" />
<path d="M142095271 127548924
L142126186 127570590
" />
<path d="M140987083 126743632
L141001064 126621484
" />
<path d="M141280700 125931540
L141318883 125879984
" />
<path d="M141280699 127801134
L141210790 127694043
" />
<path d="M142908618 127653424
L142943774 127638523
" />
<path d="M141814495 127191477
L141829691 127225843
" />
<path d="M142302632 128453378
L142182686 128426386
" />
</g>
<g style="fill:#000000; fill-opacity:1.0; 
stroke:#000000; stroke-width:1.000000; stroke-opacity:1; 
stroke-linecap:round; stroke-linejoin:round;">
<circle cx="141280699.000000" cy="127801134.000000" r="13229.000000" /> 
</g>
<g style="fill:#000000; fill-opacity:1.0; 
stroke:#000000; stroke-width:26458.000000; stroke-opacity:1; 
stroke-linecap:round; stroke-linejoin:round;">
</g>
<g style="fill:#000000; fill-opacity:0.0; 
stroke:#000000; stroke-width:26458.000000; stroke-opacity:1; 
stroke-linecap:round; stroke-linejoin:round;">
<path d="M141846487 127259652
L141864882 127292849
" />
<path d="M141762509 126719421
L141756910 126755955
" />
</g>
<g style="fill:#000000; fill-opacity:1.0; 
stroke:#000000; stroke-width:1.000000; stroke-opacity:1; 
stroke-linecap:round; stroke-linejoin:round;">
<circle cx="141954459.000000" cy="126314265.000000" r="13229.000000" /> 
</g>
<g style="fill:#000000; fill-opacity:1.0; 
stroke:#000000; stroke-width:26458.000000; stroke-opacity:1; 
stroke-linecap:round; stroke-linejoin:round;">
</g>
<g style="fill:#000000; fill-opacity:0.0; 
stroke:#000000; stroke-width:26458.000000; stroke-opacity:1; 
stroke-linecap:round; stroke-linejoin:round;">
<path d="M141582520 125610438
L141631601 125572359
" />
<path d="M142397301 127689280
L142433340 127697161
" />
</g>
<g style="fill:#000000; fill-opacity:1.0; 
stroke:#000000; stroke-width:1.000000; stroke-opacity:1; 
stroke-linecap:round; stroke-linejoin:round;">
<circle cx="143046170.000000" cy="125316321.000000" r="13229.000000" /> 
</g>
<g style="fill:#000000; fill-opacity:1.0; 
stroke:#000000; stroke-width:26458.000000; stroke-opacity:1; 
stroke-linecap:round; stroke-linejoin:round;">
</g>
<g style="fill:#000000; fill-opacity:0.0; 
stroke:#000000; stroke-width:26458.000000; stroke-opacity:1; 
stroke-linecap:round; stroke-linejoin:round;">
<path d="M141001064 127111189
L140987082 126989042
" />
<path d="M141056991 127351580
L141024367 127232221
" />
<path d="M142672447 125254071
L142734847 125258237
" />
<path d="M142978455 127621932
L143012605 127603642
" />
<path d="M141210791 126038631
L141280700 125931540
" />
<path d="M141024367 126500452
L141056991 126381093
" />
<path d="M142361612 127679833
L142397301 127689280
" />
<path d="M142302632 125279297
L142363393 125269228
" />
<path d="M142223447 126106109
L142190329 126123255
" />
<path d="M142469674 127703469
L142506246 127708196
" />
<path d="M141150203 127583049
L141098936 127468709
" />
<path d="M142837099 127678191
L142873041 127666644
" />
<path d="M141534798 128082163
L141443696 127996126
" />
<path d="M142800847 126044601
L142764339 126036375
" />
<path d="M141756910 126755955
L141752911 126792656
" />
<path d="M141814495 126541197
L141800899 126576063
" />
<path d="M143046169 127583647
L143046169 128416354
" />
<path d="M142363393 125269228
L142424592 125261474
" />
<path d="M142978455 126110743
L142943774 126094152
" />
<path d="M141980603 126285232
L141954459 126314265
" />
<path d="M142065282 125342265
L142123634 125323165
" />
<path d="M143787003 126945712
L144422003 127580712
" />
<path d="M144422003 127580712
L143046169 127580712
" />
<path d="M143046169 127580712
L143046169 126945712
" />
<path d="M143046169 126945712
L143787003 126945712
" />
</g>
<g style="fill:#000000; fill-opacity:1.0; 
stroke:#000000; stroke-width:1.000000; stroke-opacity:1; 
stroke-linecap:round; stroke-linejoin:round;">
<circle cx="143787003.000000" cy="126945712.000000" r="13229.000000" /> 
</g>
<g style="fill:#000000; fill-opacity:1.0; 
stroke:#000000; stroke-width:26458.000000; stroke-opacity:1; 
stroke-linecap:round; stroke-linejoin:round;">
<path style="fill:#000000; fill-opacity:1.0; 
stroke:#000000; stroke-width:26458.000000; stroke-opacity:1; 
stroke-linecap:round; stroke-linejoin:round;fill-rule:evenodd;"
d="M 144422003.000000,127580712.000000
143046169.000000,127580712.000000
143046169.000000,126945712.000000
143787003.000000,126945712.000000
Z" /> 
</g>
<g style="fill:#000000; fill-opacity:0.0; 
stroke:#000000; stroke-width:26458.000000; stroke-opacity:1; 
stroke-linecap:round; stroke-linejoin:round;">
<path d="M141358821 127902389
L141280699 127801134
" />
<path d="M142291501 127656279
L142326327 127668831
" />
<path d="M141846487 126473023
L141829691 126506832
" />
<path d="M142095271 126183750
L142065200 126206907
" />
<path d="M141929666 127388215
L141954459 127418410
" />
<path d="M141631601 125572359
L141681975 125536297
" />
<path d="M142943774 126094152
L142908618 126079250
" />
<path d="M142764339 127696299
L142800847 127688073
" />
<path d="M142859708 125273951
L142922039 125285545
" />
<path d="M142579890 127712871
L142616851 127712803
" />
<path d="M141884877 127325380
L141906472 127357187
" />
<path d="M142543003 126021342
L142469674 126029205
" />
<path d="M141786341 125470315
L141840200 125440442
" />
<path d="M142326327 127668831
L142361612 127679833
" />
</g>
<g style="fill:#000000; fill-opacity:0.0; 
stroke:#000000; stroke-width:200000.000000; stroke-opacity:1; 
stroke-linecap:round; stroke-linejoin:round;">
<path d="M147600000 76850000
L142450000 76850000
" />
<path d="M142450000 76850000
L142950000 75650000
" />
<path d="M142950000 75650000
L143750000 74400000
" />
<path d="M143750000 74400000
L144750000 73300000
" />
<path d="M144750000 73300000
L145900000 72450000
" />
<path d="M145900000 72450000
L146850000 71950000
" />
<path d="M146850000 71950000
L147600000 71700000
" />
<path d="M147600000 71700000
L147600000 76850000
" />
</g>
<g style="fill:#000000; fill-opacity:1.0; 
stroke:#000000; stroke-width:200000.000000; stroke-opacity:1; 
stroke-linecap:round; stroke-linejoin:round;">
<path style="fill:#000000; fill-opacity:1.0; 
stroke:#000000; stroke-width:200000.000000; stroke-opacity:1; 
stroke-linecap:round; stroke-linejoin:round;fill-rule:evenodd;"
d="M 147600000.000000,76850000.000000
142450000.000000,76850000.000000
142950000.000000,75650000.000000
143750000.000000,74400000.000000
144750000.000000,73300000.000000
145900000.000000,72450000.000000
146850000.000000,71950000.000000
147600000.000000,71700000.000000
Z" /> 
</g>
<g style="fill:#000000; fill-opacity:1.0; 
stroke:#000000; stroke-width:26458.000000; stroke-opacity:1; 
stroke-linecap:round; stroke-linejoin:round;">
</g>
<g style="fill:#000000; fill-opacity:0.0; 
stroke:#000000; stroke-width:26458.000000; stroke-opacity:1; 
stroke-linecap:round; stroke-linejoin:round;">
<path d="M142182686 128426386
L142065281 128390409
" />
<path d="M141733577 125502274
L141786341 125470315
" />
<path d="M142734847 125258237
L142797289 125264856
" />
</g>
<g style="fill:#000000; fill-opacity:1.0; 
stroke:#000000; stroke-width:1.000000; stroke-opacity:1; 
stroke-linecap:round; stroke-linejoin:round;">
<circle cx="143046169.000000" cy="126149028.000000" r="13229.000000" /> 
</g>
<g style="fill:#000000; fill-opacity:1.0; 
stroke:#000000; stroke-width:26458.000000; stroke-opacity:1; 
stroke-linecap:round; stroke-linejoin:round;">
</g>
<g style="fill:#000000; fill-opacity:0.0; 
stroke:#000000; stroke-width:26458.000000; stroke-opacity:1; 
stroke-linecap:round; stroke-linejoin:round;">
<path d="M142469674 126029205
L142397301 126043395
" />
<path d="M142764339 126036375
L142727630 126029798
" />
</g>
<g style="fill:#000000; fill-opacity:1.0; 
stroke:#000000; stroke-width:1.000000; stroke-opacity:1; 
stroke-linecap:round; stroke-linejoin:round;">
<circle cx="143046169.000000" cy="128416354.000000" r="13229.000000" /> 
</g>
<g style="fill:#000000; fill-opacity:1.0; 
stroke:#000000; stroke-width:26458.000000; stroke-opacity:1; 
stroke-linecap:round; stroke-linejoin:round;">
</g>
<g style="fill:#000000; fill-opacity:0.0; 
stroke:#000000; stroke-width:26458.000000; stroke-opacity:1; 
stroke-linecap:round; stroke-linejoin:round;">
<path d="M141001064 126621484
L141024367 126500452
" />
<path d="M143012605 126129032
L142978455 126110743
" />
<path d="M142257189 126090486
L142223447 126106109
" />
<path d="M142257189 127642188
L142291501 127656279
" />
<path d="M142984214 125299661
L143046170 125316321
" />
<path d="M141210790 127694043
L141150203 127583049
" />
<path d="M141929665 126344459
L141906471 126375488
" />
<path d="M141829691 126506832
L141814495 126541197
" />
<path d="M142036028 126231544
L142007811 126257656
" />
<path d="M143046169 126149028
L143012605 126129032
" />
<path d="M141769707 126683109
L141762509 126719421
" />
</g>
<g style="fill:#000000; fill-opacity:0.0; 
stroke:#000000; stroke-width:200000.000000; stroke-opacity:1; 
stroke-linecap:round; stroke-linejoin:round;">
<path d="M152450000 81586425
L157600000 81586425
" />
<path d="M157600000 81586425
L157100000 82786427
" />
<path d="M157100000 82786427
L156300001 84036426
" />
<path d="M156300001 84036426
L155300000 85136425
" />
<path d="M155300000 85136425
L154150000 85986426
" />
<path d="M154150000 85986426
L153200001 86486425
" />
<path d="M153200001 86486425
L152450000 86736425
" />
<path d="M152450000 86736425
L152450000 81586425
" />
</g>
<g style="fill:#000000; fill-opacity:1.0; 
stroke:#000000; stroke-width:200000.000000; stroke-opacity:1; 
stroke-linecap:round; stroke-linejoin:round;">
<path style="fill:#000000; fill-opacity:1.0; 
stroke:#000000; stroke-width:200000.000000; stroke-opacity:1; 
stroke-linecap:round; stroke-linejoin:round;fill-rule:evenodd;"
d="M 157100000.000000,82786427.000000
156300001.000000,84036426.000000
155300000.000000,85136425.000000
154150000.000000,85986426.000000
153200001.000000,86486425.000000
152450000.000000,86736425.000000
152450000.000000,81586425.000000
157600000.000000,81586425.000000
Z" /> 
</g>
<g style="fill:#000000; fill-opacity:1.0; 
stroke:#000000; stroke-width:26458.000000; stroke-opacity:1; 
stroke-linecap:round; stroke-linejoin:round;">
</g>
<g style="fill:#000000; fill-opacity:0.0; 
stroke:#000000; stroke-width:26458.000000; stroke-opacity:1; 
stroke-linecap:round; stroke-linejoin:round;">
<path d="M141950944 128345630
L141840200 128292232
" />
</g>
<g style="fill:#000000; fill-opacity:0.0; 
stroke:#000000; stroke-width:200000.000000; stroke-opacity:1; 
stroke-linecap:round; stroke-linejoin:round;">
<path d="M152389425 76812164
L152389425 71662164
" />
<path d="M152389425 71662164
L153589426 72162164
" />
<path d="M153589426 72162164
L154839426 72962164
" />
<path d="M154839426 72962164
L155939425 73962164
" />
<path d="M155939425 73962164
L156789425 75112164
" />
<path d="M156789425 75112164
L157289425 76062164
" />
<path d="M157289425 76062164
L157539425 76812164
" />
<path d="M157539425 76812164
L152389425 76812164
" />
</g>
<g style="fill:#000000; fill-opacity:1.0; 
stroke:#000000; stroke-width:200000.000000; stroke-opacity:1; 
stroke-linecap:round; stroke-linejoin:round;">
<path style="fill:#000000; fill-opacity:1.0; 
stroke:#000000; stroke-width:200000.000000; stroke-opacity:1; 
stroke-linecap:round; stroke-linejoin:round;fill-rule:evenodd;"
d="M 153589426.000000,72162164.000000
154839426.000000,72962164.000000
155939425.000000,73962164.000000
156789425.000000,75112164.000000
157289425.000000,76062164.000000
157539425.000000,76812164.000000
152389425.000000,76812164.000000
152389425.000000,71662164.000000
Z" /> 
</g>
<g style="fill:#000000; fill-opacity:1.0; 
stroke:#000000; stroke-width:26458.000000; stroke-opacity:1; 
stroke-linecap:round; stroke-linejoin:round;">
</g>
<g style="fill:#000000; fill-opacity:0.0; 
stroke:#000000; stroke-width:26458.000000; stroke-opacity:1; 
stroke-linecap:round; stroke-linejoin:round;">
<path d="M141681975 125536297
L141733577 125502274
" />
<path d="M142727630 127702877
L142764339 127696299
" />
</g>
<g style="fill:#000000; fill-opacity:0.0; 
stroke:#000000; stroke-width:200000.000000; stroke-opacity:1; 
stroke-linecap:round; stroke-linejoin:round;">
<path d="M147600000 81650000
L147600000 86800000
" />
<path d="M147600000 86800000
L146399998 86300000
" />
<path d="M146399998 86300000
L145149999 85500001
" />
<path d="M145149999 85500001
L144050000 84500000
" />
<path d="M144050000 84500000
L143199999 83350000
" />
<path d="M143199999 83350000
L142700000 82400001
" />
<path d="M142700000 82400001
L142450000 81650000
" />
<path d="M142450000 81650000
L147600000 81650000
" />
</g>
<g style="fill:#000000; fill-opacity:1.0; 
stroke:#000000; stroke-width:200000.000000; stroke-opacity:1; 
stroke-linecap:round; stroke-linejoin:round;">
<path style="fill:#000000; fill-opacity:1.0; 
stroke:#000000; stroke-width:200000.000000; stroke-opacity:1; 
stroke-linecap:round; stroke-linejoin:round;fill-rule:evenodd;"
d="M 147600000.000000,86800000.000000
146399998.000000,86300000.000000
145149999.000000,85500001.000000
144050000.000000,84500000.000000
143199999.000000,83350000.000000
142700000.000000,82400001.000000
142450000.000000,81650000.000000
147600000.000000,81650000.000000
Z" /> 
</g>
<g style="fill:#000000; fill-opacity:1.0; 
stroke:#000000; stroke-width:26458.000000; stroke-opacity:1; 
stroke-linecap:round; stroke-linejoin:round;">
</g>
<g style="fill:#000000; fill-opacity:0.0; 
stroke:#000000; stroke-width:26458.000000; stroke-opacity:1; 
stroke-linecap:round; stroke-linejoin:round;">
<path d="M142182687 125306288
L142242375 125291658
" />
<path d="M140987082 126989042
L140982422 126866337
" />
<path d="M142797289 128467818
L142672447 128478604
" />
<path d="M141778505 127085600
L141788902 127121300
" />
<path d="M143012605 127603642
L143046169 127583647
" />
<path d="M142548039 125253004
L142610156 125252334
" />
<path d="M142610156 125252334
L142672447 125254071
" />
<path d="M141400448 125782465
L141443696 125736547
" />
<path d="M142690776 126024860
L142616851 126019871
" />
</g>
<g style="fill:#000000; fill-opacity:0.0; 
stroke:#000000; stroke-width:300000.000000; stroke-opacity:1; 
stroke-linecap:round; stroke-linejoin:round;">
<text x="216000000.000000" y="120400000.000000"
textLength="3485238.000000" font-size="3333333.000000" lengthAdjust="spacingAndGlyphs"
text-anchor="middle" opacity="0">=</text>
<g class="stroked-text"><desc>=</desc>
<path d="M215047619 118971428
L216952380 118971428
" />
<path d="M216952380 119685714
L215047619 119685714
" />
</g><text x="204386782.000000" y="120150000.000000"
textLength="1580476.000000" font-size="3333333.000000" lengthAdjust="spacingAndGlyphs"
text-anchor="middle" opacity="0">:</text>
<g class="stroked-text"><desc>:</desc>
<path d="M204386782 119792857
L204505829 119911904
L204386782 120030952
L204267734 119911904
L204386782 119792857
L204386782 120030952
" />
<path d="M204386782 118483333
L204505829 118602380
L204386782 118721428
L204267734 118602380
L204386782 118483333
L204386782 118721428
" />
</g><text x="175856782.000000" y="120550000.000000"
textLength="2890000.000000" font-size="3333333.000000" lengthAdjust="spacingAndGlyphs"
text-anchor="middle" opacity="0">G</text>
<g class="stroked-text"><desc>G</desc>
<path d="M176511543 118050000
L176273448 117930952
L175916305 117930952
L175559162 118050000
L175321067 118288095
L175202020 118526190
L175082972 119002380
L175082972 119359523
L175202020 119835714
L175321067 120073809
L175559162 120311904
L175916305 120430952
L176154401 120430952
L176511543 120311904
L176630591 120192857
L176630591 119359523
L176154401 119359523
" />
</g><text x="190236782.000000" y="128300000.000000"
textLength="3247143.000000" font-size="3333333.000000" lengthAdjust="spacingAndGlyphs"
text-anchor="middle" opacity="0">M</text>
<g class="stroked-text"><desc>M</desc>
<path d="M189403448 128180952
L189403448 125680952
L190236782 127466666
L191070115 125680952
L191070115 128180952
" />
</g><text x="167206783.000000" y="128300000.000000"
textLength="2890000.000000" font-size="3333333.000000" lengthAdjust="spacingAndGlyphs"
text-anchor="middle" opacity="0">C</text>
<g class="stroked-text"><desc>C</desc>
<path d="M167980592 127942857
L167861544 128061904
L167504402 128180952
L167266306 128180952
L166909163 128061904
L166671068 127823809
L166552021 127585714
L166432973 127109523
L166432973 126752380
L166552021 126276190
L166671068 126038095
L166909163 125800000
L167266306 125680952
L167504402 125680952
L167861544 125800000
L167980592 125919047
" />
</g><text x="172986782.000000" y="128300000.000000"
textLength="2532857.000000" font-size="3333333.000000" lengthAdjust="spacingAndGlyphs"
text-anchor="middle" opacity="0">V</text>
<g class="stroked-text"><desc>V</desc>
<path d="M172153448 125680952
L172986782 128180952
L173820115 125680952
" />
</g><text x="201706783.000000" y="128150000.000000"
textLength="1580476.000000" font-size="3333333.000000" lengthAdjust="spacingAndGlyphs"
text-anchor="middle" opacity="0">.</text>
<g class="stroked-text"><desc>.</desc>
<path d="M201706783 127792857
L201825830 127911904
L201706783 128030952
L201587735 127911904
L201706783 127792857
L201706783 128030952
" />
</g><text x="227586782.000000" y="127700000.000000"
textLength="3485238.000000" font-size="3333333.000000" lengthAdjust="spacingAndGlyphs"
text-anchor="middle" opacity="0">←</text>
<g class="stroked-text"><desc>←</desc>
<path d="M228539162 126628571
L226634401 126628571
" />
<path d="M227110591 127104761
L226634401 126628571
L227110591 126152380
" />
</g><text x="142700000.000000" y="105100000.000000"
textLength="4104286.000000" font-size="4000000.000000" lengthAdjust="spacingAndGlyphs"
text-anchor="middle" opacity="0">←</text>
<g class="stroked-text"><desc>←</desc>
<path d="M143842857 103814285
L141557142 103814285
" />
<path d="M142128571 104385714
L141557142 103814285
L142128571 103242857
" />
</g><text x="168356781.000000" y="112800000.000000"
textLength="2890000.000000" font-size="3333333.000000" lengthAdjust="spacingAndGlyphs"
text-anchor="middle" opacity="0">R</text>
<g class="stroked-text"><desc>R</desc>
<path d="M169130590 112680952
L168297257 111490476
" />
<path d="M167702019 112680952
L167702019 110180952
L168654400 110180952
L168892495 110300000
L169011542 110419047
L169130590 110657142
L169130590 111014285
L169011542 111252380
L168892495 111371428
L168654400 111490476
L167702019 111490476
" />
</g><text x="144206782.000000" y="112550000.000000"
textLength="7532857.000000" font-size="2666666.000000" lengthAdjust="spacingAndGlyphs"
text-anchor="middle" opacity="0">CTRL</text>
<g class="stroked-text"><desc>CTRL</desc>
<path d="M142254401 112264285
L142159162 112359523
L141873448 112454761
L141682972 112454761
L141397258 112359523
L141206782 112169047
L141111543 111978571
L141016305 111597619
L141016305 111311904
L141111543 110930952
L141206782 110740476
L141397258 110550000
L141682972 110454761
L141873448 110454761
L142159162 110550000
L142254401 110645238
" />
<path d="M142825829 110454761
L143968686 110454761
" />
<path d="M143397258 112454761
L143397258 110454761
" />
<path d="M145778210 112454761
L145111543 111502380
" />
<path d="M144635353 112454761
L144635353 110454761
L145397258 110454761
L145587734 110550000
L145682972 110645238
L145778210 110835714
L145778210 111121428
L145682972 111311904
L145587734 111407142
L145397258 111502380
L144635353 111502380
" />
<path d="M147587734 112454761
L146635353 112454761
L146635353 110454761
" />
</g></g>
<g style="fill:#000000; fill-opacity:0.0; 
stroke:#000000; stroke-width:200000.000000; stroke-opacity:1; 
stroke-linecap:round; stroke-linejoin:round;">
<text x="223666782.000000" y="103449250.000000"
textLength="3620952.000000" font-size="1533333.000000" lengthAdjust="spacingAndGlyphs"
text-anchor="middle" opacity="0">CLR</text>
<g class="stroked-text"><desc>CLR</desc>
<path d="M222982258 103284964
L222927496 103339726
L222763210 103394488
L222653686 103394488
L222489401 103339726
L222379877 103230202
L222325115 103120678
L222270353 102901630
L222270353 102737345
L222325115 102518297
L222379877 102408773
L222489401 102299250
L222653686 102244488
L222763210 102244488
L222927496 102299250
L222982258 102354011
" />
<path d="M224022734 103394488
L223475115 103394488
L223475115 102244488
" />
<path d="M225063210 103394488
L224679877 102846869
" />
<path d="M224406067 103394488
L224406067 102244488
L224844162 102244488
L224953686 102299250
L225008448 102354011
L225063210 102463535
L225063210 102627821
L225008448 102737345
L224953686 102792107
L224844162 102846869
L224406067 102846869
" />
</g><text x="223666782.000000" y="105300750.000000"
textLength="5024286.000000" font-size="1533333.000000" lengthAdjust="spacingAndGlyphs"
text-anchor="middle" opacity="0">HOME</text>
<g class="stroked-text"><desc>HOME</desc>
<path d="M221558448 105245988
L221558448 104095988
" />
<path d="M221558448 104643607
L222215591 104643607
" />
<path d="M222215591 105245988
L222215591 104095988
" />
<path d="M222982258 104095988
L223201305 104095988
L223310829 104150750
L223420353 104260273
L223475115 104479321
L223475115 104862654
L223420353 105081702
L223310829 105191226
L223201305 105245988
L222982258 105245988
L222872734 105191226
L222763210 105081702
L222708448 104862654
L222708448 104479321
L222763210 104260273
L222872734 104150750
L222982258 104095988
" />
<path d="M223967972 105245988
L223967972 104095988
L224351305 104917416
L224734639 104095988
L224734639 105245988
" />
<path d="M225282258 104643607
L225665591 104643607
" />
<path d="M225829877 105245988
L225282258 105245988
L225282258 104095988
L225829877 104095988
" />
</g></g>
<g style="fill:#000000; fill-opacity:0.0; 
stroke:#000000; stroke-width:300000.000000; stroke-opacity:1; 
stroke-linecap:round; stroke-linejoin:round;">
<text x="162576782.000000" y="112800000.000000"
textLength="2521905.000000" font-size="3333333.000000" lengthAdjust="spacingAndGlyphs"
text-anchor="middle" opacity="0">E</text>
<g class="stroked-text"><desc>E</desc>
<path d="M162041067 111371428
L162874401 111371428
" />
<path d="M163231543 112680952
L162041067 112680952
L162041067 110180952
L163231543 110180952
" />
</g><text x="193046781.000000" y="120550000.000000"
textLength="2890000.000000" font-size="3333333.000000" lengthAdjust="spacingAndGlyphs"
text-anchor="middle" opacity="0">K</text>
<g class="stroked-text"><desc>K</desc>
<path d="M192392019 120430952
L192392019 117930952
" />
<path d="M193820590 120430952
L192749161 119002380
" />
<path d="M193820590 117930952
L192392019 119359523
" />
</g><text x="184456783.000000" y="128300000.000000"
textLength="3009048.000000" font-size="3333333.000000" lengthAdjust="spacingAndGlyphs"
text-anchor="middle" opacity="0">N</text>
<g class="stroked-text"><desc>N</desc>
<path d="M183742497 128180952
L183742497 125680952
L185171068 128180952
L185171068 125680952
" />
</g><text x="183186782.000000" y="105050000.000000"
textLength="2770952.000000" font-size="3333333.000000" lengthAdjust="spacingAndGlyphs"
text-anchor="middle" opacity="0">7</text>
<g class="stroked-text"><desc>7</desc>
<path d="M182353448 102430952
L184020115 102430952
L182948686 104930952
" />
</g><text x="171616782.000000" y="105050000.000000"
textLength="2770952.000000" font-size="3333333.000000" lengthAdjust="spacingAndGlyphs"
text-anchor="middle" opacity="0">5</text>
<g class="stroked-text"><desc>5</desc>
<path d="M172212020 102430952
L171021543 102430952
L170902496 103621428
L171021543 103502380
L171259639 103383333
L171854877 103383333
L172092972 103502380
L172212020 103621428
L172331067 103859523
L172331067 104454761
L172212020 104692857
L172092972 104811904
L171854877 104930952
L171259639 104930952
L171021543 104811904
L170902496 104692857
" />
</g><text x="200536782.000000" y="105050000.000000"
textLength="2770952.000000" font-size="3333333.000000" lengthAdjust="spacingAndGlyphs"
text-anchor="middle" opacity="0">0</text>
<g class="stroked-text"><desc>0</desc>
<path d="M200417734 102430952
L200655829 102430952
L200893924 102550000
L201012972 102669047
L201132020 102907142
L201251067 103383333
L201251067 103978571
L201132020 104454761
L201012972 104692857
L200893924 104811904
L200655829 104930952
L200417734 104930952
L200179639 104811904
L200060591 104692857
L199941543 104454761
L199822496 103978571
L199822496 103383333
L199941543 102907142
L200060591 102669047
L200179639 102550000
L200417734 102430952
" />
</g><text x="212100000.000000" y="104900000.000000"
textLength="3485238.000000" font-size="3333333.000000" lengthAdjust="spacingAndGlyphs"
text-anchor="middle" opacity="0">-</text>
<g class="stroked-text"><desc>-</desc>
<path d="M211147619 103828571
L213052380 103828571
" />
</g><text x="222210840.000000" y="128050000.000000"
textLength="3485238.000000" font-size="3333333.000000" lengthAdjust="spacingAndGlyphs"
text-anchor="middle" opacity="0">↓</text>
<g class="stroked-text"><desc>↓</desc>
<path d="M222210840 126026190
L222210840 127930952
" />
<path d="M222687030 127454761
L222210840 127930952
L221734649 127454761
" />
</g><text x="156786782.000000" y="112800000.000000"
textLength="3247143.000000" font-size="3333333.000000" lengthAdjust="spacingAndGlyphs"
text-anchor="middle" opacity="0">W</text>
<g class="stroked-text"><desc>W</desc>
<path d="M155715353 110180952
L156310591 112680952
L156786782 110895238
L157262972 112680952
L157858210 110180952
" />
</g><text x="206316782.000000" y="104900000.000000"
textLength="3485238.000000" font-size="3333333.000000" lengthAdjust="spacingAndGlyphs"
text-anchor="middle" opacity="0">+</text>
<g class="stroked-text"><desc>+</desc>
<path d="M205364401 103828571
L207269162 103828571
" />
<path d="M206316782 104780952
L206316782 102876190
" />
</g><text x="158676782.000000" y="120550000.000000"
textLength="2770952.000000" font-size="3333333.000000" lengthAdjust="spacingAndGlyphs"
text-anchor="middle" opacity="0">S</text>
<g class="stroked-text"><desc>S</desc>
<path d="M157962496 120311904
L158319639 120430952
L158914877 120430952
L159152972 120311904
L159272020 120192857
L159391067 119954761
L159391067 119716666
L159272020 119478571
L159152972 119359523
L158914877 119240476
L158438686 119121428
L158200591 119002380
L158081543 118883333
L157962496 118645238
L157962496 118407142
L158081543 118169047
L158200591 118050000
L158438686 117930952
L159033924 117930952
L159391067 118050000
" />
</g><text x="214836782.000000" y="113500000.000000"
textLength="2294762.000000" font-size="3333333.000000" lengthAdjust="spacingAndGlyphs"
text-anchor="middle" opacity="0">*</text>
<g class="stroked-text"><desc>*</desc>
<path d="M214836782 110880952
L214836782 111476190
" />
<path d="M214241543 111238095
L214836782 111476190
L215432020 111238095
" />
<path d="M214479639 111952380
L214836782 111476190
L215193924 111952380
" />
</g><text x="227586782.000000" y="128750000.000000"
textLength="3485238.000000" font-size="3333333.000000" lengthAdjust="spacingAndGlyphs"
text-anchor="middle" opacity="0">→</text>
<g class="stroked-text"><desc>→</desc>
<path d="M226634401 127678571
L228539162 127678571
" />
<path d="M228062972 128154761
L228539162 127678571
L228062972 127202380
" />
</g><text x="177406782.000000" y="105050000.000000"
textLength="2770952.000000" font-size="3333333.000000" lengthAdjust="spacingAndGlyphs"
text-anchor="middle" opacity="0">6</text>
<g class="stroked-text"><desc>6</desc>
<path d="M177882972 102430952
L177406782 102430952
L177168686 102550000
L177049639 102669047
L176811543 103026190
L176692496 103502380
L176692496 104454761
L176811543 104692857
L176930591 104811904
L177168686 104930952
L177644877 104930952
L177882972 104811904
L178002020 104692857
L178121067 104454761
L178121067 103859523
L178002020 103621428
L177882972 103502380
L177644877 103383333
L177168686 103383333
L176930591 103502380
L176811543 103621428
L176692496 103859523
" />
</g><text x="164456781.000000" y="120550000.000000"
textLength="2890000.000000" font-size="3333333.000000" lengthAdjust="spacingAndGlyphs"
text-anchor="middle" opacity="0">D</text>
<g class="stroked-text"><desc>D</desc>
<path d="M163802019 120430952
L163802019 117930952
L164397257 117930952
L164754400 118050000
L164992495 118288095
L165111542 118526190
L165230590 119002380
L165230590 119359523
L165111542 119835714
L164992495 120073809
L164754400 120311904
L164397257 120430952
L163802019 120430952
" />
</g><text x="210186782.000000" y="120100000.000000"
textLength="1580476.000000" font-size="3333333.000000" lengthAdjust="spacingAndGlyphs"
text-anchor="middle" opacity="0">;</text>
<g class="stroked-text"><desc>;</desc>
<path d="M210305829 119861904
L210305829 119980952
L210186782 120219047
L210067734 120338095
" />
<path d="M210186782 118433333
L210305829 118552380
L210186782 118671428
L210067734 118552380
L210186782 118433333
L210186782 118671428
" />
</g><text x="207486782.000000" y="128300000.000000"
textLength="3009048.000000" font-size="3333333.000000" lengthAdjust="spacingAndGlyphs"
text-anchor="middle" opacity="0">/</text>
<g class="stroked-text"><desc>/</desc>
<path d="M208558210 125561904
L206415353 128776190
" />
</g><text x="170076783.000000" y="120550000.000000"
textLength="2532857.000000" font-size="3333333.000000" lengthAdjust="spacingAndGlyphs"
text-anchor="middle" opacity="0">F</text>
<g class="stroked-text"><desc>F</desc>
<path d="M170433925 119121428
L169600592 119121428
" />
<path d="M169600592 120430952
L169600592 117930952
L170791068 117930952
" />
</g><text x="161426781.000000" y="128300000.000000"
textLength="2770952.000000" font-size="3333333.000000" lengthAdjust="spacingAndGlyphs"
text-anchor="middle" opacity="0">X</text>
<g class="stroked-text"><desc>X</desc>
<path d="M160593447 125680952
L162260114 128180952
" />
<path d="M162260114 125680952
L160593447 128180952
" />
</g><text x="154276782.000000" y="105050000.000000"
textLength="2770952.000000" font-size="3333333.000000" lengthAdjust="spacingAndGlyphs"
text-anchor="middle" opacity="0">2</text>
<g class="stroked-text"><desc>2</desc>
<path d="M153562496 102669047
L153681543 102550000
L153919639 102430952
L154514877 102430952
L154752972 102550000
L154872020 102669047
L154991067 102907142
L154991067 103145238
L154872020 103502380
L153443448 104930952
L154991067 104930952
" />
</g><text x="227956783.000000" y="112550000.000000"
textLength="7818571.000000" font-size="2666666.000000" lengthAdjust="spacingAndGlyphs"
text-anchor="middle" opacity="0">RSTR</text>
<g class="stroked-text"><desc>RSTR</desc>
<path d="M225861544 112454761
L225194878 111502380
" />
<path d="M224718687 112454761
L224718687 110454761
L225480592 110454761
L225671068 110550000
L225766306 110645238
L225861544 110835714
L225861544 111121428
L225766306 111311904
L225671068 111407142
L225480592 111502380
L224718687 111502380
" />
<path d="M226623449 112359523
L226909163 112454761
L227385354 112454761
L227575830 112359523
L227671068 112264285
L227766306 112073809
L227766306 111883333
L227671068 111692857
L227575830 111597619
L227385354 111502380
L227004402 111407142
L226813925 111311904
L226718687 111216666
L226623449 111026190
L226623449 110835714
L226718687 110645238
L226813925 110550000
L227004402 110454761
L227480592 110454761
L227766306 110550000
" />
<path d="M228337735 110454761
L229480592 110454761
" />
<path d="M228909163 112454761
L228909163 110454761
" />
<path d="M231290116 112454761
L230623449 111502380
" />
<path d="M230147259 112454761
L230147259 110454761
L230909163 110454761
L231099640 110550000
L231194878 110645238
L231290116 110835714
L231290116 111121428
L231194878 111311904
L231099640 111407142
L230909163 111502380
L230147259 111502380
" />
</g><text x="203236782.000000" y="112800000.000000"
textLength="2890000.000000" font-size="3333333.000000" lengthAdjust="spacingAndGlyphs"
text-anchor="middle" opacity="0">P</text>
<g class="stroked-text"><desc>P</desc>
<path d="M202582020 112680952
L202582020 110180952
L203534401 110180952
L203772496 110300000
L203891543 110419047
L204010591 110657142
L204010591 111014285
L203891543 111252380
L203772496 111371428
L203534401 111490476
L202582020 111490476
" />
</g></g>
<g style="fill:#000000; fill-opacity:0.0; 
stroke:#000000; stroke-width:200000.000000; stroke-opacity:1; 
stroke-linecap:round; stroke-linejoin:round;">
<text x="238706782.000000" y="111199250.000000"
textLength="2470952.000000" font-size="1533333.000000" lengthAdjust="spacingAndGlyphs"
text-anchor="middle" opacity="0">F3</text>
<g class="stroked-text"><desc>F3</desc>
<path d="M238323448 110542107
L237940115 110542107
" />
<path d="M237940115 111144488
L237940115 109994488
L238487734 109994488
" />
<path d="M238816305 109994488
L239528210 109994488
L239144877 110432583
L239309162 110432583
L239418686 110487345
L239473448 110542107
L239528210 110651630
L239528210 110925440
L239473448 111034964
L239418686 111089726
L239309162 111144488
L238980591 111144488
L238871067 111089726
L238816305 111034964
" />
</g><text x="238706782.000000" y="113050750.000000"
textLength="2340952.000000" font-size="1533333.000000" lengthAdjust="spacingAndGlyphs"
text-anchor="middle" opacity="0">F4</text>
<g class="stroked-text"><desc>F4</desc>
<path d="M238323448 112393607
L237940115 112393607
" />
<path d="M237940115 112995988
L237940115 111845988
L238487734 111845988
" />
<path d="M239418686 112229321
L239418686 112995988
" />
<path d="M239144877 111791226
L238871067 112612654
L239582972 112612654
" />
</g></g>
<g style="fill:#000000; fill-opacity:0.0; 
stroke:#000000; stroke-width:300000.000000; stroke-opacity:1; 
stroke-linecap:round; stroke-linejoin:round;">
<text x="197456782.000000" y="112800000.000000"
textLength="2879048.000000" font-size="3333333.000000" lengthAdjust="spacingAndGlyphs"
text-anchor="middle" opacity="0">O</text>
<g class="stroked-text"><desc>O</desc>
<path d="M197218686 110180952
L197694877 110180952
L197932972 110300000
L198171067 110538095
L198290115 111014285
L198290115 111847619
L198171067 112323809
L197932972 112561904
L197694877 112680952
L197218686 112680952
L196980591 112561904
L196742496 112323809
L196623448 111847619
L196623448 111014285
L196742496 110538095
L196980591 110300000
L197218686 110180952
" />
</g><text x="149206783.000000" y="128050000.000000"
textLength="7628095.000000" font-size="2666666.000000" lengthAdjust="spacingAndGlyphs"
text-anchor="middle" opacity="0">SHFT</text>
<g class="stroked-text"><desc>SHFT</desc>
<path d="M145968687 127859523
L146254402 127954761
L146730592 127954761
L146921068 127859523
L147016306 127764285
L147111544 127573809
L147111544 127383333
L147016306 127192857
L146921068 127097619
L146730592 127002380
L146349640 126907142
L146159163 126811904
L146063925 126716666
L145968687 126526190
L145968687 126335714
L146063925 126145238
L146159163 126050000
L146349640 125954761
L146825830 125954761
L147111544 126050000
" />
<path d="M147968687 127954761
L147968687 125954761
" />
<path d="M147968687 126907142
L149111544 126907142
" />
<path d="M149111544 127954761
L149111544 125954761
" />
<path d="M150730592 126907142
L150063925 126907142
" />
<path d="M150063925 127954761
L150063925 125954761
L151016306 125954761
" />
<path d="M151492497 125954761
L152635354 125954761
" />
<path d="M152063925 127954761
L152063925 125954761
" />
</g></g>
<g style="fill:#000000; fill-opacity:0.0; 
stroke:#000000; stroke-width:200000.000000; stroke-opacity:1; 
stroke-linecap:round; stroke-linejoin:round;">
<text x="238706782.000000" y="126699250.000000"
textLength="2470952.000000" font-size="1533333.000000" lengthAdjust="spacingAndGlyphs"
text-anchor="middle" opacity="0">F7</text>
<g class="stroked-text"><desc>F7</desc>
<path d="M238323448 126042107
L237940115 126042107
" />
<path d="M237940115 126644488
L237940115 125494488
L238487734 125494488
" />
<path d="M238816305 125494488
L239582972 125494488
L239090115 126644488
" />
</g><text x="238706782.000000" y="128550750.000000"
textLength="2340952.000000" font-size="1533333.000000" lengthAdjust="spacingAndGlyphs"
text-anchor="middle" opacity="0">F8</text>
<g class="stroked-text"><desc>F8</desc>
<path d="M238323448 127893607
L237940115 127893607
" />
<path d="M237940115 128495988
L237940115 127345988
L238487734 127345988
" />
<path d="M239090115 127838845
L238980591 127784083
L238925829 127729321
L238871067 127619797
L238871067 127565035
L238925829 127455511
L238980591 127400750
L239090115 127345988
L239309162 127345988
L239418686 127400750
L239473448 127455511
L239528210 127565035
L239528210 127619797
L239473448 127729321
L239418686 127784083
L239309162 127838845
L239090115 127838845
L238980591 127893607
L238925829 127948369
L238871067 128057892
L238871067 128276940
L238925829 128386464
L238980591 128441226
L239090115 128495988
L239309162 128495988
L239418686 128441226
L239473448 128386464
L239528210 128276940
L239528210 128057892
L239473448 127948369
L239418686 127893607
L239309162 127838845
" />
</g></g>
<g style="fill:#000000; fill-opacity:0.0; 
stroke:#000000; stroke-width:300000.000000; stroke-opacity:1; 
stroke-linecap:round; stroke-linejoin:round;">
<text x="185796782.000000" y="112800000.000000"
textLength="2879048.000000" font-size="3333333.000000" lengthAdjust="spacingAndGlyphs"
text-anchor="middle" opacity="0">U</text>
<g class="stroked-text"><desc>U</desc>
<path d="M185082496 110180952
L185082496 112204761
L185201543 112442857
L185320591 112561904
L185558686 112680952
L186034877 112680952
L186272972 112561904
L186392020 112442857
L186511067 112204761
L186511067 110180952
" />
</g><text x="217886782.000000" y="105050000.000000"
textLength="2651905.000000" font-size="3333333.000000" lengthAdjust="spacingAndGlyphs"
text-anchor="middle" opacity="0">£</text>
<g class="stroked-text"><desc>£</desc>
<path d="M217232020 103264285
L218184401 103264285
" />
<path d="M217232020 104930952
L218541543 104930952
" />
<path d="M217589162 104930952
L217589162 102788095
L217708210 102550000
L217946305 102430952
L218303448 102430952
L218541543 102550000
" />
</g><text x="188966782.000000" y="105050000.000000"
textLength="2770952.000000" font-size="3333333.000000" lengthAdjust="spacingAndGlyphs"
text-anchor="middle" opacity="0">8</text>
<g class="stroked-text"><desc>8</desc>
<path d="M188728686 103502380
L188490591 103383333
L188371543 103264285
L188252496 103026190
L188252496 102907142
L188371543 102669047
L188490591 102550000
L188728686 102430952
L189204877 102430952
L189442972 102550000
L189562020 102669047
L189681067 102907142
L189681067 103026190
L189562020 103264285
L189442972 103383333
L189204877 103502380
L188728686 103502380
L188490591 103621428
L188371543 103740476
L188252496 103978571
L188252496 104454761
L188371543 104692857
L188490591 104811904
L188728686 104930952
L189204877 104930952
L189442972 104811904
L189562020 104692857
L189681067 104454761
L189681067 103978571
L189562020 103740476
L189442972 103621428
L189204877 103502380
" />
</g><text x="224956782.000000" y="120300000.000000"
textLength="11913810.000000" font-size="2666666.000000" lengthAdjust="spacingAndGlyphs"
text-anchor="middle" opacity="0">RETURN</text>
<g class="stroked-text"><desc>RETURN</desc>
<path d="M220813924 120204761
L220147258 119252380
" />
<path d="M219671067 120204761
L219671067 118204761
L220432972 118204761
L220623448 118300000
L220718686 118395238
L220813924 118585714
L220813924 118871428
L220718686 119061904
L220623448 119157142
L220432972 119252380
L219671067 119252380
" />
<path d="M221671067 119157142
L222337734 119157142
" />
<path d="M222623448 120204761
L221671067 120204761
L221671067 118204761
L222623448 118204761
" />
<path d="M223194877 118204761
L224337734 118204761
" />
<path d="M223766305 120204761
L223766305 118204761
" />
<path d="M225004401 118204761
L225004401 119823809
L225099639 120014285
L225194877 120109523
L225385353 120204761
L225766305 120204761
L225956781 120109523
L226052020 120014285
L226147258 119823809
L226147258 118204761
" />
<path d="M228242496 120204761
L227575829 119252380
" />
<path d="M227099639 120204761
L227099639 118204761
L227861543 118204761
L228052020 118300000
L228147258 118395238
L228242496 118585714
L228242496 118871428
L228147258 119061904
L228052020 119157142
L227861543 119252380
L227099639 119252380
" />
<path d="M229099639 120204761
L229099639 118204761
L230242496 120204761
L230242496 118204761
" />
</g><text x="187266782.000000" y="120550000.000000"
textLength="2294762.000000" font-size="3333333.000000" lengthAdjust="spacingAndGlyphs"
text-anchor="middle" opacity="0">J</text>
<g class="stroked-text"><desc>J</desc>
<path d="M187623924 117930952
L187623924 119716666
L187504877 120073809
L187266782 120311904
L186909639 120430952
L186671543 120430952
" />
</g><text x="214736782.000000" y="128050000.000000"
textLength="7628095.000000" font-size="2666666.000000" lengthAdjust="spacingAndGlyphs"
text-anchor="middle" opacity="0">SHFT</text>
<g class="stroked-text"><desc>SHFT</desc>
<path d="M211498686 127859523
L211784401 127954761
L212260591 127954761
L212451067 127859523
L212546305 127764285
L212641543 127573809
L212641543 127383333
L212546305 127192857
L212451067 127097619
L212260591 127002380
L211879639 126907142
L211689162 126811904
L211593924 126716666
L211498686 126526190
L211498686 126335714
L211593924 126145238
L211689162 126050000
L211879639 125954761
L212355829 125954761
L212641543 126050000
" />
<path d="M213498686 127954761
L213498686 125954761
" />
<path d="M213498686 126907142
L214641543 126907142
" />
<path d="M214641543 127954761
L214641543 125954761
" />
<path d="M216260591 126907142
L215593924 126907142
" />
<path d="M215593924 127954761
L215593924 125954761
L216546305 125954761
" />
<path d="M217022496 125954761
L218165353 125954761
" />
<path d="M217593924 127954761
L217593924 125954761
" />
</g><text x="221200000.000000" y="128050000.000000"
textLength="3485238.000000" font-size="3333333.000000" lengthAdjust="spacingAndGlyphs"
text-anchor="middle" opacity="0">↑</text>
<g class="stroked-text"><desc>↑</desc>
<path d="M221200000 127930952
L221200000 126026190
" />
<path d="M220723809 126502380
L221200000 126026190
L221676190 126502380
" />
</g><text x="195926781.000000" y="128150000.000000"
textLength="1580476.000000" font-size="3333333.000000" lengthAdjust="spacingAndGlyphs"
text-anchor="middle" opacity="0">,</text>
<g class="stroked-text"><desc>,</desc>
<path d="M196045828 127911904
L196045828 128030952
L195926781 128269047
L195807733 128388095
" />
</g></g>
<g style="fill:#000000; fill-opacity:0.0; 
stroke:#000000; stroke-width:200000.000000; stroke-opacity:1; 
stroke-linecap:round; stroke-linejoin:round;">
<text x="142706782.000000" y="118949250.000000"
textLength="3949524.000000" font-size="1533333.000000" lengthAdjust="spacingAndGlyphs"
text-anchor="middle" opacity="0">RUN</text>
<g class="stroked-text"><desc>RUN</desc>
<path d="M141857972 118894488
L141474639 118346869
" />
<path d="M141200829 118894488
L141200829 117744488
L141638924 117744488
L141748448 117799250
L141803210 117854011
L141857972 117963535
L141857972 118127821
L141803210 118237345
L141748448 118292107
L141638924 118346869
L141200829 118346869
" />
<path d="M142350829 117744488
L142350829 118675440
L142405591 118784964
L142460353 118839726
L142569877 118894488
L142788924 118894488
L142898448 118839726
L142953210 118784964
L143007972 118675440
L143007972 117744488
" />
<path d="M143555591 118894488
L143555591 117744488
L144212734 118894488
L144212734 117744488
" />
</g><text x="142706782.000000" y="120800750.000000"
textLength="4586190.000000" font-size="1533333.000000" lengthAdjust="spacingAndGlyphs"
text-anchor="middle" opacity="0">STOP</text>
<g class="stroked-text"><desc>STOP</desc>
<path d="M140762734 120691226
L140927020 120745988
L141200829 120745988
L141310353 120691226
L141365115 120636464
L141419877 120526940
L141419877 120417416
L141365115 120307892
L141310353 120253130
L141200829 120198369
L140981782 120143607
L140872258 120088845
L140817496 120034083
L140762734 119924559
L140762734 119815035
L140817496 119705511
L140872258 119650750
L140981782 119595988
L141255591 119595988
L141419877 119650750
" />
<path d="M141748448 119595988
L142405591 119595988
" />
<path d="M142077020 120745988
L142077020 119595988
" />
<path d="M143007972 119595988
L143227020 119595988
L143336543 119650750
L143446067 119760273
L143500829 119979321
L143500829 120362654
L143446067 120581702
L143336543 120691226
L143227020 120745988
L143007972 120745988
L142898448 120691226
L142788924 120581702
L142734162 120362654
L142734162 119979321
L142788924 119760273
L142898448 119650750
L143007972 119595988
" />
<path d="M143993686 120745988
L143993686 119595988
L144431782 119595988
L144541305 119650750
L144596067 119705511
L144650829 119815035
L144650829 119979321
L144596067 120088845
L144541305 120143607
L144431782 120198369
L143993686 120198369
" />
</g></g>
<g style="fill:#000000; fill-opacity:0.0; 
stroke:#000000; stroke-width:300000.000000; stroke-opacity:1; 
stroke-linecap:round; stroke-linejoin:round;">
<text x="160056782.000000" y="105050000.000000"
textLength="2640952.000000" font-size="3333333.000000" lengthAdjust="spacingAndGlyphs"
text-anchor="middle" opacity="0">3</text>
<g class="stroked-text"><desc>3</desc>
<path d="M159223448 102430952
L160771067 102430952
L159937734 103383333
L160294877 103383333
L160532972 103502380
L160652020 103621428
L160771067 103859523
L160771067 104454761
L160652020 104692857
L160532972 104811904
L160294877 104930952
L159580591 104930952
L159342496 104811904
L159223448 104692857
" />
</g><text x="198826783.000000" y="120550000.000000"
textLength="2413810.000000" font-size="3333333.000000" lengthAdjust="spacingAndGlyphs"
text-anchor="middle" opacity="0">L</text>
<g class="stroked-text"><desc>L</desc>
<path d="M199600592 120430952
L198410116 120430952
L198410116 117930952
" />
</g><text x="178676781.000000" y="128300000.000000"
textLength="2890000.000000" font-size="3333333.000000" lengthAdjust="spacingAndGlyphs"
text-anchor="middle" opacity="0">B</text>
<g class="stroked-text"><desc>B</desc>
<path d="M178855352 126871428
L179212495 126990476
L179331542 127109523
L179450590 127347619
L179450590 127704761
L179331542 127942857
L179212495 128061904
L178974400 128180952
L178022019 128180952
L178022019 125680952
L178855352 125680952
L179093447 125800000
L179212495 125919047
L179331542 126157142
L179331542 126395238
L179212495 126633333
L179093447 126752380
L178855352 126871428
L178022019 126871428
" />
</g><text x="209086782.000000" y="112500000.000000"
textLength="3604286.000000" font-size="3333333.000000" lengthAdjust="spacingAndGlyphs"
text-anchor="middle" opacity="0">@</text>
<g class="stroked-text"><desc>@</desc>
<path d="M209622496 111190476
L209503448 111071428
L209265353 110952380
L209027258 110952380
L208789162 111071428
L208670115 111190476
L208551067 111428571
L208551067 111666666
L208670115 111904761
L208789162 112023809
L209027258 112142857
L209265353 112142857
L209503448 112023809
L209622496 111904761
" />
<path d="M209622496 110952380
L209622496 111904761
L209741543 112023809
L209860591 112023809
L210098686 111904761
L210217734 111666666
L210217734 111071428
L209979639 110714285
L209622496 110476190
L209146305 110357142
L208670115 110476190
L208312972 110714285
L208074877 111071428
L207955829 111547619
L208074877 112023809
L208312972 112380952
L208670115 112619047
L209146305 112738095
L209622496 112619047
L209979639 112380952
" />
</g><text x="152896782.000000" y="120550000.000000"
textLength="2532857.000000" font-size="3333333.000000" lengthAdjust="spacingAndGlyphs"
text-anchor="middle" opacity="0">A</text>
<g class="stroked-text"><desc>A</desc>
<path d="M152301543 119716666
L153492020 119716666
" />
<path d="M152063448 120430952
L152896782 117930952
L153730115 120430952
" />
</g><text x="194756782.000000" y="105050000.000000"
textLength="2770952.000000" font-size="3333333.000000" lengthAdjust="spacingAndGlyphs"
text-anchor="middle" opacity="0">9</text>
<g class="stroked-text"><desc>9</desc>
<path d="M194280591 104930952
L194756782 104930952
L194994877 104811904
L195113924 104692857
L195352020 104335714
L195471067 103859523
L195471067 102907142
L195352020 102669047
L195232972 102550000
L194994877 102430952
L194518686 102430952
L194280591 102550000
L194161543 102669047
L194042496 102907142
L194042496 103502380
L194161543 103740476
L194280591 103859523
L194518686 103978571
L194994877 103978571
L195232972 103859523
L195352020 103740476
L195471067 103502380
" />
</g><text x="220676782.000000" y="112850000.000000"
textLength="4104286.000000" font-size="4000000.000000" lengthAdjust="spacingAndGlyphs"
text-anchor="middle" opacity="0">↑</text>
<g class="stroked-text"><desc>↑</desc>
<path d="M220676782 112707142
L220676782 110421428
" />
<path d="M220105353 110992857
L220676782 110421428
L221248210 110992857
" />
</g><text x="165836782.000000" y="105050000.000000"
textLength="2770952.000000" font-size="3333333.000000" lengthAdjust="spacingAndGlyphs"
text-anchor="middle" opacity="0">4</text>
<g class="stroked-text"><desc>4</desc>
<path d="M166312972 103264285
L166312972 104930952
" />
<path d="M165717734 102311904
L165122496 104097619
L166670115 104097619
" />
</g><text x="176446276.000000" y="138850000.000000"
textLength="23128095.000000" font-size="3333333.000000" lengthAdjust="spacingAndGlyphs"
text-anchor="middle" opacity="0">SPACE  BAR</text>
<g class="stroked-text"><desc>SPACE  BAR</desc>
<path d="M165553418 138611904
L165910561 138730952
L166505799 138730952
L166743895 138611904
L166862942 138492857
L166981990 138254761
L166981990 138016666
L166862942 137778571
L166743895 137659523
L166505799 137540476
L166029609 137421428
L165791514 137302380
L165672466 137183333
L165553418 136945238
L165553418 136707142
L165672466 136469047
L165791514 136350000
L166029609 136230952
L166624847 136230952
L166981990 136350000
" />
<path d="M168053418 138730952
L168053418 136230952
L169005799 136230952
L169243895 136350000
L169362942 136469047
L169481990 136707142
L169481990 137064285
L169362942 137302380
L169243895 137421428
L169005799 137540476
L168053418 137540476
" />
<path d="M170434371 138016666
L171624847 138016666
" />
<path d="M170196276 138730952
L171029609 136230952
L171862942 138730952
" />
<path d="M174124847 138492857
L174005799 138611904
L173648656 138730952
L173410561 138730952
L173053418 138611904
L172815323 138373809
L172696276 138135714
L172577228 137659523
L172577228 137302380
L172696276 136826190
L172815323 136588095
L173053418 136350000
L173410561 136230952
L173648656 136230952
L174005799 136350000
L174124847 136469047
" />
<path d="M175196276 137421428
L176029609 137421428
" />
<path d="M176386752 138730952
L175196276 138730952
L175196276 136230952
L176386752 136230952
" />
<path d="M182101037 137421428
L182458180 137540476
L182577228 137659523
L182696276 137897619
L182696276 138254761
L182577228 138492857
L182458180 138611904
L182220085 138730952
L181267704 138730952
L181267704 136230952
L182101037 136230952
L182339133 136350000
L182458180 136469047
L182577228 136707142
L182577228 136945238
L182458180 137183333
L182339133 137302380
L182101037 137421428
L181267704 137421428
" />
<path d="M183648656 138016666
L184839133 138016666
" />
<path d="M183410561 138730952
L184243895 136230952
L185077228 138730952
" />
<path d="M187339133 138730952
L186505799 137540476
" />
<path d="M185910561 138730952
L185910561 136230952
L186862942 136230952
L187101037 136350000
L187220085 136469047
L187339133 136707142
L187339133 137064285
L187220085 137302380
L187101037 137421428
L186862942 137540476
L185910561 137540476
" />
</g><text x="174236782.000000" y="112800000.000000"
textLength="2294762.000000" font-size="3333333.000000" lengthAdjust="spacingAndGlyphs"
text-anchor="middle" opacity="0">T</text>
<g class="stroked-text"><desc>T</desc>
<path d="M173522496 110180952
L174951067 110180952
" />
<path d="M174236782 112680952
L174236782 110180952
" />
</g><text x="231050000.000000" y="78250000.000000"
textLength="13151905.000000" font-size="2666666.000000" lengthAdjust="spacingAndGlyphs"
text-anchor="middle" opacity="0">pew pew</text>
<g class="stroked-text"><desc>pew pew</desc>
<path d="M225145238 76821428
L225145238 78821428
" />
<path d="M225145238 76916666
L225335714 76821428
L225716666 76821428
L225907142 76916666
L226002380 77011904
L226097619 77202380
L226097619 77773809
L226002380 77964285
L225907142 78059523
L225716666 78154761
L225335714 78154761
L225145238 78059523
" />
<path d="M227716666 78059523
L227526190 78154761
L227145238 78154761
L226954761 78059523
L226859523 77869047
L226859523 77107142
L226954761 76916666
L227145238 76821428
L227526190 76821428
L227716666 76916666
L227811904 77107142
L227811904 77297619
L226859523 77488095
" />
<path d="M228478571 76821428
L228859523 78154761
L229240476 77202380
L229621428 78154761
L230002380 76821428
" />
<path d="M232288095 76821428
L232288095 78821428
" />
<path d="M232288095 76916666
L232478571 76821428
L232859523 76821428
L233050000 76916666
L233145238 77011904
L233240476 77202380
L233240476 77773809
L233145238 77964285
L233050000 78059523
L232859523 78154761
L232478571 78154761
L232288095 78059523
" />
<path d="M234859523 78059523
L234669047 78154761
L234288095 78154761
L234097619 78059523
L234002380 77869047
L234002380 77107142
L234097619 76916666
L234288095 76821428
L234669047 76821428
L234859523 76916666
L234954761 77107142
L234954761 77297619
L234002380 77488095
" />
<path d="M235621428 76821428
L236002380 78154761
L236383333 77202380
L236764285 78154761
L237145238 76821428
" />
</g></g>
<g style="fill:#000000; fill-opacity:0.0; 
stroke:#000000; stroke-width:200000.000000; stroke-opacity:1; 
stroke-linecap:round; stroke-linejoin:round;">
<text x="229456782.000000" y="103449250.000000"
textLength="4113810.000000" font-size="1533333.000000" lengthAdjust="spacingAndGlyphs"
text-anchor="middle" opacity="0">INST</text>
<g class="stroked-text"><desc>INST</desc>
<path d="M227868686 103394488
L227868686 102244488
" />
<path d="M228416305 103394488
L228416305 102244488
L229073448 103394488
L229073448 102244488
" />
<path d="M229566305 103339726
L229730591 103394488
L230004401 103394488
L230113924 103339726
L230168686 103284964
L230223448 103175440
L230223448 103065916
L230168686 102956392
L230113924 102901630
L230004401 102846869
L229785353 102792107
L229675829 102737345
L229621067 102682583
L229566305 102573059
L229566305 102463535
L229621067 102354011
L229675829 102299250
L229785353 102244488
L230059162 102244488
L230223448 102299250
" />
<path d="M230552020 102244488
L231209162 102244488
" />
<path d="M230880591 103394488
L230880591 102244488
" />
</g><text x="229456782.000000" y="105300750.000000"
textLength="3381429.000000" font-size="1533333.000000" lengthAdjust="spacingAndGlyphs"
text-anchor="middle" opacity="0">DEL</text>
<g class="stroked-text"><desc>DEL</desc>
<path d="M228169877 105245988
L228169877 104095988
L228443686 104095988
L228607972 104150750
L228717496 104260273
L228772258 104369797
L228827020 104588845
L228827020 104753130
L228772258 104972178
L228717496 105081702
L228607972 105191226
L228443686 105245988
L228169877 105245988
" />
<path d="M229319877 104643607
L229703210 104643607
" />
<path d="M229867496 105245988
L229319877 105245988
L229319877 104095988
L229867496 104095988
" />
<path d="M230907972 105245988
L230360353 105245988
L230360353 104095988
" />
</g><text x="238706782.000000" y="118949250.000000"
textLength="2340952.000000" font-size="1533333.000000" lengthAdjust="spacingAndGlyphs"
text-anchor="middle" opacity="0">F5</text>
<g class="stroked-text"><desc>F5</desc>
<path d="M238323448 118292107
L237940115 118292107
" />
<path d="M237940115 118894488
L237940115 117744488
L238487734 117744488
" />
<path d="M239473448 117744488
L238925829 117744488
L238871067 118292107
L238925829 118237345
L239035353 118182583
L239309162 118182583
L239418686 118237345
L239473448 118292107
L239528210 118401630
L239528210 118675440
L239473448 118784964
L239418686 118839726
L239309162 118894488
L239035353 118894488
L238925829 118839726
L238871067 118784964
" />
</g><text x="238706782.000000" y="120800750.000000"
textLength="2340952.000000" font-size="1533333.000000" lengthAdjust="spacingAndGlyphs"
text-anchor="middle" opacity="0">F6</text>
<g class="stroked-text"><desc>F6</desc>
<path d="M238323448 120143607
L237940115 120143607
" />
<path d="M237940115 120745988
L237940115 119595988
L238487734 119595988
" />
<path d="M239418686 119595988
L239199639 119595988
L239090115 119650750
L239035353 119705511
L238925829 119869797
L238871067 120088845
L238871067 120526940
L238925829 120636464
L238980591 120691226
L239090115 120745988
L239309162 120745988
L239418686 120691226
L239473448 120636464
L239528210 120526940
L239528210 120253130
L239473448 120143607
L239418686 120088845
L239309162 120034083
L239090115 120034083
L238980591 120088845
L238925829 120143607
L238871067 120253130
" />
</g></g>
<g style="fill:#000000; fill-opacity:0.0; 
stroke:#000000; stroke-width:300000.000000; stroke-opacity:1; 
stroke-linecap:round; stroke-linejoin:round;">
<text x="148486782.000000" y="105050000.000000"
textLength="2640952.000000" font-size="3333333.000000" lengthAdjust="spacingAndGlyphs"
text-anchor="middle" opacity="0">1</text>
<g class="stroked-text"><desc>1</desc>
<path d="M149201067 104930952
L147772496 104930952
" />
<path d="M148486782 104930952
L148486782 102430952
L148248686 102788095
L148010591 103026190
L147772496 103145238
" />
</g><text x="180016782.000000" y="112800000.000000"
textLength="2532857.000000" font-size="3333333.000000" lengthAdjust="spacingAndGlyphs"
text-anchor="middle" opacity="0">Y</text>
<g class="stroked-text"><desc>Y</desc>
<path d="M180016782 111490476
L180016782 112680952
" />
<path d="M179183448 110180952
L180016782 111490476
L180850115 110180952
" />
</g><text x="155706782.000000" y="128300000.000000"
textLength="2770952.000000" font-size="3333333.000000" lengthAdjust="spacingAndGlyphs"
text-anchor="middle" opacity="0">Z</text>
<g class="stroked-text"><desc>Z</desc>
<path d="M154873448 125680952
L156540115 125680952
L154873448 128180952
L156540115 128180952
" />
</g><text x="150956781.000000" y="112800000.000000"
textLength="3009048.000000" font-size="3333333.000000" lengthAdjust="spacingAndGlyphs"
text-anchor="middle" opacity="0">Q</text>
<g class="stroked-text"><desc>Q</desc>
<path d="M151909161 112919047
L151671066 112800000
L151432971 112561904
L151075828 112204761
L150837733 112085714
L150599638 112085714
" />
<path d="M150718685 112680952
L150480590 112561904
L150242495 112323809
L150123447 111847619
L150123447 111014285
L150242495 110538095
L150480590 110300000
L150718685 110180952
L151194876 110180952
L151432971 110300000
L151671066 110538095
L151790114 111014285
L151790114 111847619
L151671066 112323809
L151432971 112561904
L151194876 112680952
L150718685 112680952
" />
</g><text x="181636782.000000" y="120550000.000000"
textLength="3009048.000000" font-size="3333333.000000" lengthAdjust="spacingAndGlyphs"
text-anchor="middle" opacity="0">H</text>
<g class="stroked-text"><desc>H</desc>
<path d="M180922496 120430952
L180922496 117930952
" />
<path d="M180922496 119121428
L182351067 119121428
" />
<path d="M182351067 120430952
L182351067 117930952
" />
</g><text x="191676783.000000" y="112800000.000000"
textLength="1580476.000000" font-size="3333333.000000" lengthAdjust="spacingAndGlyphs"
text-anchor="middle" opacity="0">I</text>
<g class="stroked-text"><desc>I</desc>
<path d="M191676783 112680952
L191676783 110180952
" />
</g></g>
<g style="fill:#000000; fill-opacity:0.0; 
stroke:#000000; stroke-width:200000.000000; stroke-opacity:1; 
stroke-linecap:round; stroke-linejoin:round;">
<text x="238706782.000000" y="103449250.000000"
textLength="2470952.000000" font-size="1533333.000000" lengthAdjust="spacingAndGlyphs"
text-anchor="middle" opacity="0">F1</text>
<g class="stroked-text"><desc>F1</desc>
<path d="M238323448 102792107
L237940115 102792107
" />
<path d="M237940115 103394488
L237940115 102244488
L238487734 102244488
" />
<path d="M239528210 103394488
L238871067 103394488
" />
<path d="M239199639 103394488
L239199639 102244488
L239090115 102408773
L238980591 102518297
L238871067 102573059
" />
</g><text x="238706782.000000" y="105300750.000000"
textLength="2340952.000000" font-size="1533333.000000" lengthAdjust="spacingAndGlyphs"
text-anchor="middle" opacity="0">F2</text>
<g class="stroked-text"><desc>F2</desc>
<path d="M238323448 104643607
L237940115 104643607
" />
<path d="M237940115 105245988
L237940115 104095988
L238487734 104095988
" />
<path d="M238871067 104205511
L238925829 104150750
L239035353 104095988
L239309162 104095988
L239418686 104150750
L239473448 104205511
L239528210 104315035
L239528210 104424559
L239473448 104588845
L238816305 105245988
L239528210 105245988
" />
</g><g >
</g>
<g >
</g>
<g >
</g>
</g> 
</svg>
