<?xml version="1.0" standalone="no"?>
 <!DOCTYPE svg PUBLIC "-//W3C//DTD SVG 1.1//EN" 
 "http://www.w3.org/Graphics/SVG/1.1/DTD/svg11.dtd"> 
<svg
  xmlns:svg="http://www.w3.org/2000/svg"
  xmlns="http://www.w3.org/2000/svg"
  xmlns:xlink="http://www.w3.org/1999/xlink"
  version="1.1"
  width="29.700220cm" height="21.000720cm" viewBox="0 0 297002200 210007200">
<title>SVG Picture created as cover-F_Cu.svg date 2022/05/05 18:20:02 </title>
  <desc>Picture generated by PCBNEW </desc>
<g style="fill:#000000; fill-opacity:1.000000;stroke:#000000; stroke-opacity:1.000000;
stroke-linecap:round; stroke-linejoin:round;"
 transform="translate(0 0) scale(1 1)">
</g>
<g style="fill:#000000; fill-opacity:0.0; 
stroke:#000000; stroke-width:0.000000; stroke-opacity:1; 
stroke-linecap:round; stroke-linejoin:round;">
</g>
<g style="fill:#000000; fill-opacity:0.0; 
stroke:#000000; stroke-width:26458.000000; stroke-opacity:1; 
stroke-linecap:round; stroke-linejoin:round;">
<path d="M141631601 125572359
L141681975 125536297
" />
<path d="M141749712 126866337
L141750512 126903205
" />
<path d="M142672447 128478604
L142548039 128479670
" />
<path d="M142543003 126021342
L142469674 126029205
" />
<path d="M141210791 126038631
L141280700 125931540
" />
<path d="M142291501 127656279
L142326327 127668831
" />
<path d="M141631601 128160315
L141534798 128082163
" />
<path d="M142257189 126090486
L142223447 126106109
" />
<path d="M142653831 127711120
L142690776 127707814
" />
<path d="M141681975 125536297
L141733577 125502274
" />
<path d="M142610156 125252334
L142672447 125254071
" />
<path d="M142007811 127475019
L142036028 127501130
" />
<path d="M142797289 125264856
L142859708 125273951
" />
<path d="M142543003 127711333
L142579890 127712871
" />
<path d="M142837099 127678191
L142873041 127666644
" />
<path d="M141846487 126473023
L141829691 126506832
" />
<path d="M142302632 125279297
L142363393 125269228
" />
<path d="M142007697 125363566
L142065282 125342265
" />
<path d="M143787003 126945712
L144422003 127580712
" />
<path d="M144422003 127580712
L143046169 127580712
" />
<path d="M143046169 127580712
L143046169 126945712
" />
<path d="M143046169 126945712
L143787003 126945712
" />
</g>
<g style="fill:#000000; fill-opacity:1.0; 
stroke:#000000; stroke-width:1.000000; stroke-opacity:1; 
stroke-linecap:round; stroke-linejoin:round;">
<circle cx="143787003.000000" cy="126945712.000000" r="13229.000000" /> 
</g>
<g style="fill:#000000; fill-opacity:1.0; 
stroke:#000000; stroke-width:26458.000000; stroke-opacity:1; 
stroke-linecap:round; stroke-linejoin:round;">
<path style="fill:#000000; fill-opacity:1.0; 
stroke:#000000; stroke-width:26458.000000; stroke-opacity:1; 
stroke-linecap:round; stroke-linejoin:round;fill-rule:evenodd;"
d="M 144422003.000000,127580712.000000
143046169.000000,127580712.000000
143046169.000000,126945712.000000
143787003.000000,126945712.000000
Z" /> 
</g>
<g style="fill:#000000; fill-opacity:0.0; 
stroke:#000000; stroke-width:26458.000000; stroke-opacity:1; 
stroke-linecap:round; stroke-linejoin:round;">
<path d="M141024367 126500452
L141056991 126381093
" />
<path d="M142690776 127707814
L142727630 127702877
" />
<path d="M142095271 126183750
L142065200 126206907
" />
<path d="M141840200 128292232
L141733577 128230400
" />
<path d="M141884877 127325380
L141906472 127357187
" />
<path d="M142065200 126206907
L142036028 126231544
" />
<path d="M141318883 125879984
L141358821 125830285
" />
<path d="M142548039 128479670
L142424591 128471200
" />
<path d="M142943774 126094152
L142908618 126079250
" />
<path d="M141150203 127583049
L141098936 127468709
" />
<path d="M141786341 125470315
L141840200 125440442
" />
<path d="M141769707 127049566
L141778505 127085600
" />
<path d="M141814495 126541197
L141800899 126576063
" />
<path d="M142424592 125261474
L142486162 125256059
" />
<path d="M142764339 126036375
L142727630 126029798
" />
<path d="M141098937 126263965
L141150203 126149625
" />
</g>
<g style="fill:#000000; fill-opacity:1.0; 
stroke:#000000; stroke-width:1.000000; stroke-opacity:1; 
stroke-linecap:round; stroke-linejoin:round;">
<circle cx="141280699.000000" cy="127801134.000000" r="13229.000000" /> 
<circle cx="141954459.000000" cy="126314265.000000" r="13229.000000" /> 
</g>
<g style="fill:#000000; fill-opacity:1.0; 
stroke:#000000; stroke-width:26458.000000; stroke-opacity:1; 
stroke-linecap:round; stroke-linejoin:round;">
</g>
<g style="fill:#000000; fill-opacity:0.0; 
stroke:#000000; stroke-width:26458.000000; stroke-opacity:1; 
stroke-linecap:round; stroke-linejoin:round;">
<path d="M141950944 128345630
L141840200 128292232
" />
<path d="M141906471 126375488
L141884877 126407295
" />
<path d="M141906472 127357187
L141929666 127388215
" />
<path d="M141443696 125736547
L141488502 125692555
" />
<path d="M142579890 127712871
L142616851 127712803
" />
<path d="M142800847 127688073
L142837099 127678191
" />
</g>
<g style="fill:#000000; fill-opacity:1.0; 
stroke:#000000; stroke-width:1.000000; stroke-opacity:1; 
stroke-linecap:round; stroke-linejoin:round;">
<circle cx="143046170.000000" cy="125316321.000000" r="13229.000000" /> 
</g>
<g style="fill:#000000; fill-opacity:1.0; 
stroke:#000000; stroke-width:26458.000000; stroke-opacity:1; 
stroke-linecap:round; stroke-linejoin:round;">
</g>
<g style="fill:#000000; fill-opacity:0.0; 
stroke:#000000; stroke-width:26458.000000; stroke-opacity:1; 
stroke-linecap:round; stroke-linejoin:round;">
<path d="M142126186 126162084
L142095271 126183750
" />
<path d="M142007811 126257656
L141980603 126285232
" />
<path d="M141778505 126647075
L141769707 126683109
" />
<path d="M142095271 127548924
L142126186 127570590
" />
<path d="M141778505 127085600
L141788902 127121300
" />
<path d="M141001064 126621484
L141024367 126500452
" />
</g>
<g style="fill:#000000; fill-opacity:1.0; 
stroke:#000000; stroke-width:1.000000; stroke-opacity:1; 
stroke-linecap:round; stroke-linejoin:round;">
<circle cx="150007149.000000" cy="79250002.000000" r="1557149.000000" /> 
</g>
<g style="fill:#000000; fill-opacity:1.0; 
stroke:#000000; stroke-width:26458.000000; stroke-opacity:1; 
stroke-linecap:round; stroke-linejoin:round;">
</g>
<g style="fill:#000000; fill-opacity:0.0; 
stroke:#000000; stroke-width:26458.000000; stroke-opacity:1; 
stroke-linecap:round; stroke-linejoin:round;">
<path d="M141056991 127351580
L141024367 127232221
" />
</g>
<g style="fill:#000000; fill-opacity:0.0; 
stroke:#000000; stroke-width:200000.000000; stroke-opacity:1; 
stroke-linecap:round; stroke-linejoin:round;">
<path d="M152450000 81586425
L157600000 81586425
" />
<path d="M157600000 81586425
L157100000 82786427
" />
<path d="M157100000 82786427
L156300001 84036426
" />
<path d="M156300001 84036426
L155300000 85136425
" />
<path d="M155300000 85136425
L154150000 85986426
" />
<path d="M154150000 85986426
L153200001 86486425
" />
<path d="M153200001 86486425
L152450000 86736425
" />
<path d="M152450000 86736425
L152450000 81586425
" />
</g>
<g style="fill:#000000; fill-opacity:1.0; 
stroke:#000000; stroke-width:200000.000000; stroke-opacity:1; 
stroke-linecap:round; stroke-linejoin:round;">
<path style="fill:#000000; fill-opacity:1.0; 
stroke:#000000; stroke-width:200000.000000; stroke-opacity:1; 
stroke-linecap:round; stroke-linejoin:round;fill-rule:evenodd;"
d="M 157100000.000000,82786427.000000
156300001.000000,84036426.000000
155300000.000000,85136425.000000
154150000.000000,85986426.000000
153200001.000000,86486425.000000
152450000.000000,86736425.000000
152450000.000000,81586425.000000
157600000.000000,81586425.000000
Z" /> 
</g>
<g style="fill:#000000; fill-opacity:0.0; 
stroke:#000000; stroke-width:150000.000000; stroke-opacity:1; 
stroke-linecap:round; stroke-linejoin:round;">
<circle cx="150007149.000000" cy="79250002.000000" r="8000005.000000" /> 
</g>
<g style="fill:#000000; fill-opacity:0.0; 
stroke:#000000; stroke-width:26458.000000; stroke-opacity:1; 
stroke-linecap:round; stroke-linejoin:round;">
<path d="M142424591 128471200
L142302632 128453378
" />
<path d="M142873041 126066030
L142837099 126054483
" />
<path d="M142922039 125285545
L142984214 125299661
" />
</g>
<g style="fill:#000000; fill-opacity:1.0; 
stroke:#000000; stroke-width:1.000000; stroke-opacity:1; 
stroke-linecap:round; stroke-linejoin:round;">
<circle cx="141280700.000000" cy="125931540.000000" r="13229.000000" /> 
</g>
<g style="fill:#000000; fill-opacity:1.0; 
stroke:#000000; stroke-width:26458.000000; stroke-opacity:1; 
stroke-linecap:round; stroke-linejoin:round;">
</g>
<g style="fill:#000000; fill-opacity:0.0; 
stroke:#000000; stroke-width:26458.000000; stroke-opacity:1; 
stroke-linecap:round; stroke-linejoin:round;">
<path d="M141864882 126439825
L141846487 126473023
" />
<path d="M142727630 127702877
L142764339 127696299
" />
<path d="M141733577 128230400
L141631601 128160315
" />
<path d="M142065282 125342265
L142123634 125323165
" />
<path d="M142727630 126029798
L142690776 126024860
" />
<path d="M142361612 127679833
L142397301 127689280
" />
<path d="M141358821 125830285
L141400448 125782465
" />
<path d="M141756910 126755955
L141752911 126792656
" />
<path d="M142797289 128467818
L142672447 128478604
" />
<path d="M142302632 128453378
L142182686 128426386
" />
<path d="M142326327 127668831
L142361612 127679833
" />
<path d="M142065281 128390409
L141950944 128345630
" />
<path d="M141488502 125692555
L141534799 125650511
" />
<path d="M142486162 125256059
L142548039 125253004
" />
<path d="M142984214 125299661
L143046170 125316321
" />
<path d="M142764339 127696299
L142800847 127688073
" />
<path d="M141884877 126407295
L141864882 126439825
" />
<path d="M142859708 125273951
L142922039 125285545
" />
<path d="M141752911 126940018
L141756910 126976719
" />
<path d="M141840200 125440442
L141895090 125412677
" />
<path d="M142616851 127712803
L142653831 127711120
" />
<path d="M141280700 125931540
L141318883 125879984
" />
</g>
<g style="fill:#000000; fill-opacity:0.0; 
stroke:#000000; stroke-width:200000.000000; stroke-opacity:1; 
stroke-linecap:round; stroke-linejoin:round;">
<path d="M152389425 76812164
L152389425 71662164
" />
<path d="M152389425 71662164
L153589426 72162164
" />
<path d="M153589426 72162164
L154839426 72962164
" />
<path d="M154839426 72962164
L155939425 73962164
" />
<path d="M155939425 73962164
L156789425 75112164
" />
<path d="M156789425 75112164
L157289425 76062164
" />
<path d="M157289425 76062164
L157539425 76812164
" />
<path d="M157539425 76812164
L152389425 76812164
" />
</g>
<g style="fill:#000000; fill-opacity:1.0; 
stroke:#000000; stroke-width:200000.000000; stroke-opacity:1; 
stroke-linecap:round; stroke-linejoin:round;">
<path style="fill:#000000; fill-opacity:1.0; 
stroke:#000000; stroke-width:200000.000000; stroke-opacity:1; 
stroke-linecap:round; stroke-linejoin:round;fill-rule:evenodd;"
d="M 153589426.000000,72162164.000000
154839426.000000,72962164.000000
155939425.000000,73962164.000000
156789425.000000,75112164.000000
157289425.000000,76062164.000000
157539425.000000,76812164.000000
152389425.000000,76812164.000000
152389425.000000,71662164.000000
Z" /> 
</g>
<g style="fill:#000000; fill-opacity:1.0; 
stroke:#000000; stroke-width:26458.000000; stroke-opacity:1; 
stroke-linecap:round; stroke-linejoin:round;">
</g>
<g style="fill:#000000; fill-opacity:0.0; 
stroke:#000000; stroke-width:26458.000000; stroke-opacity:1; 
stroke-linecap:round; stroke-linejoin:round;">
<path d="M141929665 126344459
L141906471 126375488
" />
<path d="M142672447 125254071
L142734847 125258237
" />
<path d="M141762509 126719421
L141756910 126755955
" />
<path d="M142397301 126043395
L142326326 126063844
" />
<path d="M141534798 128082163
L141443696 127996126
" />
<path d="M142908618 126079250
L142873041 126066030
" />
</g>
<g style="fill:#000000; fill-opacity:1.0; 
stroke:#000000; stroke-width:1.000000; stroke-opacity:1; 
stroke-linecap:round; stroke-linejoin:round;">
<circle cx="141954459.000000" cy="127418410.000000" r="13229.000000" /> 
</g>
<g style="fill:#000000; fill-opacity:1.0; 
stroke:#000000; stroke-width:26458.000000; stroke-opacity:1; 
stroke-linecap:round; stroke-linejoin:round;">
</g>
<g style="fill:#000000; fill-opacity:0.0; 
stroke:#000000; stroke-width:26458.000000; stroke-opacity:1; 
stroke-linecap:round; stroke-linejoin:round;">
<path d="M142036028 126231544
L142007811 126257656
" />
<path d="M142978455 126110743
L142943774 126094152
" />
<path d="M141210790 127694043
L141150203 127583049
" />
<path d="M142922039 128447129
L142797289 128467818
" />
<path d="M142469674 126029205
L142397301 126043395
" />
<path d="M141752911 126792656
L141750512 126829469
" />
<path d="M142690776 126024860
L142616851 126019871
" />
<path d="M142065200 127525768
L142095271 127548924
" />
<path d="M142363393 125269228
L142424592 125261474
" />
<path d="M142734847 125258237
L142797289 125264856
" />
<path d="M141829691 127225843
L141846487 127259652
" />
<path d="M140982422 126866337
L140987083 126743632
" />
<path d="M143012605 126129032
L142978455 126110743
" />
<path d="M142242375 125291658
L142302632 125279297
" />
<path d="M141762509 127013254
L141769707 127049566
" />
<path d="M143787003 126786962
L144422003 126151962
" />
<path d="M144422003 126151962
L143046169 126151962
" />
<path d="M143046169 126151962
L143046169 126786962
" />
<path d="M143046169 126786962
L143787003 126786962
" />
</g>
<g style="fill:#000000; fill-opacity:1.0; 
stroke:#000000; stroke-width:1.000000; stroke-opacity:1; 
stroke-linecap:round; stroke-linejoin:round;">
<circle cx="143787003.000000" cy="126786962.000000" r="13229.000000" /> 
</g>
<g style="fill:#000000; fill-opacity:1.0; 
stroke:#000000; stroke-width:26458.000000; stroke-opacity:1; 
stroke-linecap:round; stroke-linejoin:round;">
<path style="fill:#000000; fill-opacity:1.0; 
stroke:#000000; stroke-width:26458.000000; stroke-opacity:1; 
stroke-linecap:round; stroke-linejoin:round;fill-rule:evenodd;"
d="M 143787003.000000,126786962.000000
143046169.000000,126786962.000000
143046169.000000,126151962.000000
144422003.000000,126151962.000000
Z" /> 
</g>
<g style="fill:#000000; fill-opacity:0.0; 
stroke:#000000; stroke-width:26458.000000; stroke-opacity:1; 
stroke-linecap:round; stroke-linejoin:round;">
<path d="M143046169 128416354
L142922039 128447129
" />
<path d="M141980603 127447443
L142007811 127475019
" />
<path d="M141788902 126611374
L141778505 126647075
" />
<path d="M142182686 128426386
L142065281 128390409
" />
<path d="M141534799 125650511
L141582520 125610438
" />
<path d="M142223447 126106109
L142190329 126123255
" />
<path d="M143046170 125316321
L143046169 126149028
" />
<path d="M141056991 126381093
L141098937 126263965
" />
<path d="M142837099 126054483
L142800847 126044601
" />
<path d="M142943774 127638523
L142978455 127621932
" />
<path d="M142126186 127570590
L142157890 127590758
" />
<path d="M142257189 127642188
L142291501 127656279
" />
<path d="M141443696 127996126
L141358821 127902389
" />
<path d="M142908618 127653424
L142943774 127638523
" />
<path d="M141800899 126576063
L141788902 126611374
" />
<path d="M141814495 127191477
L141829691 127225843
" />
<path d="M141954459 127418410
L141980603 127447443
" />
<path d="M142190329 127609419
L142223447 127626565
" />
<path d="M142182687 125306288
L142242375 125291658
" />
</g>
<g style="fill:#000000; fill-opacity:0.0; 
stroke:#000000; stroke-width:1.000000; stroke-opacity:1; 
stroke-linecap:round; stroke-linejoin:round;">
</g>
<g style="fill:#000000; fill-opacity:1.0; 
stroke:#000000; stroke-width:1.000000; stroke-opacity:1; 
stroke-linecap:round; stroke-linejoin:round;">
<path style="fill:#000000; fill-opacity:1.0; 
stroke:#000000; stroke-width:1.000000; stroke-opacity:1; 
stroke-linecap:round; stroke-linejoin:round;fill-rule:evenodd;"
d="M 142828498.000000,125269403.000000
143046170.000000,125316321.000000
143046169.000000,126149028.000000
142978455.000000,126110743.000000
142890829.000000,126072640.000000
142818973.000000,126049542.000000
142745984.000000,126033086.000000
142653813.000000,126022365.000000
142579927.000000,126020606.000000
142506338.000000,126025273.000000
142469674.000000,126029205.000000
142397301.000000,126043395.000000
142326326.000000,126063844.000000
142240318.000000,126098297.000000
142157890.000000,126141917.000000
142080235.000000,126195328.000000
142021919.000000,126244600.000000
141967531.000000,126299748.000000
141929665.000000,126344459.000000
141895674.000000,126391391.000000
141846487.000000,126473023.000000
141783703.000000,126629224.000000
141759709.000000,126737688.000000
141749712.000000,126866337.000000
141759709.000000,126994986.000000
141766108.000000,127031410.000000
141822093.000000,127208660.000000
141855684.000000,127276250.000000
141906472.000000,127357187.000000
141954459.000000,127418410.000000
142021919.000000,127488074.000000
142095271.000000,127548924.000000
142190329.000000,127609419.000000
142326327.000000,127668831.000000
142415320.000000,127693220.000000
142487960.000000,127705832.000000
142616851.000000,127712803.000000
142745984.000000,127699588.000000
142908618.000000,127653424.000000
143046169.000000,127583647.000000
143046169.000000,128416354.000000
142984104.000000,128431741.000000
142672447.000000,128478604.000000
142363611.000000,128462289.000000
142008112.000000,128368019.000000
141682589.000000,128195357.000000
141443696.000000,127996126.000000
141245744.000000,127747588.000000
141077963.000000,127410144.000000
140994073.000000,127050115.000000
140994073.000000,126682558.000000
141098937.000000,126263965.000000
141318883.000000,125879984.000000
141631601.000000,125572359.000000
142036489.000000,125352915.000000
142455377.000000,125258766.000000
Z" /> 
</g>
<g style="fill:#000000; fill-opacity:1.0; 
stroke:#000000; stroke-width:26458.000000; stroke-opacity:1; 
stroke-linecap:round; stroke-linejoin:round;">
</g>
<g style="fill:#000000; fill-opacity:0.0; 
stroke:#000000; stroke-width:26458.000000; stroke-opacity:1; 
stroke-linecap:round; stroke-linejoin:round;">
<path d="M141400448 125782465
L141443696 125736547
" />
<path d="M141750512 126829469
L141749712 126866337
" />
<path d="M143012605 127603642
L143046169 127583647
" />
<path d="M141756910 126976719
L141762509 127013254
" />
<path d="M142800847 126044601
L142764339 126036375
" />
<path d="M142123634 125323165
L142182687 125306288
" />
<path d="M142157890 127590758
L142190329 127609419
" />
<path d="M141769707 126683109
L141762509 126719421
" />
<path d="M141750512 126903205
L141752911 126940018
" />
<path d="M142469674 127703469
L142506246 127708196
" />
<path d="M141098936 127468709
L141056991 127351580
" />
<path d="M141800899 127156611
L141814495 127191477
" />
<path d="M141024367 127232221
L141001064 127111189
" />
<path d="M142506246 127708196
L142543003 127711333
" />
<path d="M142326326 126063844
L142257189 126090486
" />
<path d="M141929666 127388215
L141954459 127418410
" />
<path d="M142036028 127501130
L142065200 127525768
" />
<path d="M143046169 127583647
L143046169 128416354
" />
<path d="M141950944 125387044
L142007697 125363566
" />
<path d="M141788902 127121300
L141800899 127156611
" />
</g>
<g style="fill:#000000; fill-opacity:1.0; 
stroke:#000000; stroke-width:1.000000; stroke-opacity:1; 
stroke-linecap:round; stroke-linejoin:round;">
<circle cx="143046169.000000" cy="126149028.000000" r="13229.000000" /> 
</g>
<g style="fill:#000000; fill-opacity:1.0; 
stroke:#000000; stroke-width:26458.000000; stroke-opacity:1; 
stroke-linecap:round; stroke-linejoin:round;">
</g>
<g style="fill:#000000; fill-opacity:0.0; 
stroke:#000000; stroke-width:26458.000000; stroke-opacity:1; 
stroke-linecap:round; stroke-linejoin:round;">
<path d="M142873041 127666644
L142908618 127653424
" />
<path d="M141980603 126285232
L141954459 126314265
" />
<path d="M142157890 126141917
L142126186 126162084
" />
<path d="M141895090 125412677
L141950944 125387044
" />
<path d="M143046169 126149028
L143012605 126129032
" />
<path d="M142548039 125253004
L142610156 125252334
" />
<path d="M140987082 126989042
L140982422 126866337
" />
<path d="M142223447 127626565
L142257189 127642188
" />
<path d="M140987083 126743632
L141001064 126621484
" />
<path d="M141280699 127801134
L141210790 127694043
" />
<path d="M141358821 127902389
L141280699 127801134
" />
<path d="M142616851 126019871
L142543003 126021342
" />
<path d="M141733577 125502274
L141786341 125470315
" />
<path d="M142978455 127621932
L143012605 127603642
" />
<path d="M142190329 126123255
L142157890 126141917
" />
<path d="M141582520 125610438
L141631601 125572359
" />
<path d="M142433340 127697161
L142469674 127703469
" />
<path d="M141001064 127111189
L140987082 126989042
" />
<path d="M141846487 127259652
L141864882 127292849
" />
</g>
<g style="fill:#000000; fill-opacity:1.0; 
stroke:#000000; stroke-width:1.000000; stroke-opacity:1; 
stroke-linecap:round; stroke-linejoin:round;">
<circle cx="143046169.000000" cy="128416354.000000" r="13229.000000" /> 
</g>
<g style="fill:#000000; fill-opacity:1.0; 
stroke:#000000; stroke-width:200000.000000; stroke-opacity:1; 
stroke-linecap:round; stroke-linejoin:round;">
</g>
<g style="fill:#000000; fill-opacity:0.0; 
stroke:#000000; stroke-width:200000.000000; stroke-opacity:1; 
stroke-linecap:round; stroke-linejoin:round;">
<path d="M147600000 81650000
L147600000 86800000
" />
<path d="M147600000 86800000
L146399998 86300000
" />
<path d="M146399998 86300000
L145149999 85500001
" />
<path d="M145149999 85500001
L144050000 84500000
" />
<path d="M144050000 84500000
L143199999 83350000
" />
<path d="M143199999 83350000
L142700000 82400001
" />
<path d="M142700000 82400001
L142450000 81650000
" />
<path d="M142450000 81650000
L147600000 81650000
" />
</g>
<g style="fill:#000000; fill-opacity:1.0; 
stroke:#000000; stroke-width:200000.000000; stroke-opacity:1; 
stroke-linecap:round; stroke-linejoin:round;">
<path style="fill:#000000; fill-opacity:1.0; 
stroke:#000000; stroke-width:200000.000000; stroke-opacity:1; 
stroke-linecap:round; stroke-linejoin:round;fill-rule:evenodd;"
d="M 147600000.000000,86800000.000000
146399998.000000,86300000.000000
145149999.000000,85500001.000000
144050000.000000,84500000.000000
143199999.000000,83350000.000000
142700000.000000,82400001.000000
142450000.000000,81650000.000000
147600000.000000,81650000.000000
Z" /> 
</g>
<g style="fill:#000000; fill-opacity:1.0; 
stroke:#000000; stroke-width:26458.000000; stroke-opacity:1; 
stroke-linecap:round; stroke-linejoin:round;">
</g>
<g style="fill:#000000; fill-opacity:0.0; 
stroke:#000000; stroke-width:26458.000000; stroke-opacity:1; 
stroke-linecap:round; stroke-linejoin:round;">
<path d="M141864882 127292849
L141884877 127325380
" />
<path d="M141150203 126149625
L141210791 126038631
" />
<path d="M141954459 126314265
L141929665 126344459
" />
<path d="M142397301 127689280
L142433340 127697161
" />
<path d="M141829691 126506832
L141814495 126541197
" />
</g>
<g style="fill:#000000; fill-opacity:0.0; 
stroke:#000000; stroke-width:200000.000000; stroke-opacity:1; 
stroke-linecap:round; stroke-linejoin:round;">
<path d="M147600000 76850000
L142450000 76850000
" />
<path d="M142450000 76850000
L142950000 75650000
" />
<path d="M142950000 75650000
L143750000 74400000
" />
<path d="M143750000 74400000
L144750000 73300000
" />
<path d="M144750000 73300000
L145900000 72450000
" />
<path d="M145900000 72450000
L146850000 71950000
" />
<path d="M146850000 71950000
L147600000 71700000
" />
<path d="M147600000 71700000
L147600000 76850000
" />
</g>
<g style="fill:#000000; fill-opacity:1.0; 
stroke:#000000; stroke-width:200000.000000; stroke-opacity:1; 
stroke-linecap:round; stroke-linejoin:round;">
<path style="fill:#000000; fill-opacity:1.0; 
stroke:#000000; stroke-width:200000.000000; stroke-opacity:1; 
stroke-linecap:round; stroke-linejoin:round;fill-rule:evenodd;"
d="M 147600000.000000,76850000.000000
142450000.000000,76850000.000000
142950000.000000,75650000.000000
143750000.000000,74400000.000000
144750000.000000,73300000.000000
145900000.000000,72450000.000000
146850000.000000,71950000.000000
147600000.000000,71700000.000000
Z" /> 
</g>
<g style="fill:#000000; fill-opacity:1.0; 
stroke:#000000; stroke-width:300000.000000; stroke-opacity:1; 
stroke-linecap:round; stroke-linejoin:round;">
</g>
<g style="fill:#000000; fill-opacity:0.0; 
stroke:#000000; stroke-width:300000.000000; stroke-opacity:1; 
stroke-linecap:round; stroke-linejoin:round;">
<text x="216000000.000000" y="120400000.000000"
textLength="3095239.000000" font-size="3333333.000000" lengthAdjust="spacingAndGlyphs"
text-anchor="middle" opacity="0">=</text>
<g class="stroked-text"><desc>=</desc>
<path d="M215047619 118971428
L216952380 118971428
" />
<path d="M216952380 119685714
L215047619 119685714
" />
</g><text x="197452212.000000" y="112804899.000000"
textLength="3009048.000000" font-size="3333333.000000" lengthAdjust="spacingAndGlyphs"
text-anchor="middle" opacity="0">O</text>
<g class="stroked-text"><desc>O</desc>
<path d="M197214116 110185851
L197690307 110185851
L197928402 110304899
L198166497 110542994
L198285545 111019184
L198285545 111852518
L198166497 112328708
L197928402 112566803
L197690307 112685851
L197214116 112685851
L196976021 112566803
L196737926 112328708
L196618878 111852518
L196618878 111019184
L196737926 110542994
L196976021 110304899
L197214116 110185851
" />
</g><text x="206312212.000000" y="104900000.000000"
textLength="3485238.000000" font-size="3333333.000000" lengthAdjust="spacingAndGlyphs"
text-anchor="middle" opacity="0">+</text>
<g class="stroked-text"><desc>+</desc>
<path d="M205359831 103828571
L207264592 103828571
" />
<path d="M206312212 104780952
L206312212 102876190
" />
</g><text x="231050000.000000" y="78250000.000000"
textLength="13151905.000000" font-size="2666666.000000" lengthAdjust="spacingAndGlyphs"
text-anchor="middle" opacity="0">pew pew</text>
<g class="stroked-text"><desc>pew pew</desc>
<path d="M225145238 76821428
L225145238 78821428
" />
<path d="M225145238 76916666
L225335714 76821428
L225716666 76821428
L225907142 76916666
L226002380 77011904
L226097619 77202380
L226097619 77773809
L226002380 77964285
L225907142 78059523
L225716666 78154761
L225335714 78154761
L225145238 78059523
" />
<path d="M227716666 78059523
L227526190 78154761
L227145238 78154761
L226954761 78059523
L226859523 77869047
L226859523 77107142
L226954761 76916666
L227145238 76821428
L227526190 76821428
L227716666 76916666
L227811904 77107142
L227811904 77297619
L226859523 77488095
" />
<path d="M228478571 76821428
L228859523 78154761
L229240476 77202380
L229621428 78154761
L230002380 76821428
" />
<path d="M232288095 76821428
L232288095 78821428
" />
<path d="M232288095 76916666
L232478571 76821428
L232859523 76821428
L233050000 76916666
L233145238 77011904
L233240476 77202380
L233240476 77773809
L233145238 77964285
L233050000 78059523
L232859523 78154761
L232478571 78154761
L232288095 78059523
" />
<path d="M234859523 78059523
L234669047 78154761
L234288095 78154761
L234097619 78059523
L234002380 77869047
L234002380 77107142
L234097619 76916666
L234288095 76821428
L234669047 76821428
L234859523 76916666
L234954761 77107142
L234954761 77297619
L234002380 77488095
" />
<path d="M235621428 76821428
L236002380 78154761
L236383333 77202380
L236764285 78154761
L237145238 76821428
" />
</g></g>
<g style="fill:#000000; fill-opacity:0.0; 
stroke:#000000; stroke-width:200000.000000; stroke-opacity:1; 
stroke-linecap:round; stroke-linejoin:round;">
<text x="142702212.000000" y="118954149.000000"
textLength="3949524.000000" font-size="1533333.000000" lengthAdjust="spacingAndGlyphs"
text-anchor="middle" opacity="0">RUN</text>
<g class="stroked-text"><desc>RUN</desc>
<path d="M141853402 118899387
L141470069 118351768
" />
<path d="M141196259 118899387
L141196259 117749387
L141634354 117749387
L141743878 117804149
L141798640 117858910
L141853402 117968434
L141853402 118132720
L141798640 118242244
L141743878 118297006
L141634354 118351768
L141196259 118351768
" />
<path d="M142346259 117749387
L142346259 118680339
L142401021 118789863
L142455783 118844625
L142565307 118899387
L142784354 118899387
L142893878 118844625
L142948640 118789863
L143003402 118680339
L143003402 117749387
" />
<path d="M143551021 118899387
L143551021 117749387
L144208164 118899387
L144208164 117749387
" />
</g><text x="142702212.000000" y="120805649.000000"
textLength="4586190.000000" font-size="1533333.000000" lengthAdjust="spacingAndGlyphs"
text-anchor="middle" opacity="0">STOP</text>
<g class="stroked-text"><desc>STOP</desc>
<path d="M140758164 120696125
L140922450 120750887
L141196259 120750887
L141305783 120696125
L141360545 120641363
L141415307 120531839
L141415307 120422315
L141360545 120312791
L141305783 120258029
L141196259 120203268
L140977212 120148506
L140867688 120093744
L140812926 120038982
L140758164 119929458
L140758164 119819934
L140812926 119710410
L140867688 119655649
L140977212 119600887
L141251021 119600887
L141415307 119655649
" />
<path d="M141743878 119600887
L142401021 119600887
" />
<path d="M142072450 120750887
L142072450 119600887
" />
<path d="M143003402 119600887
L143222450 119600887
L143331973 119655649
L143441497 119765172
L143496259 119984220
L143496259 120367553
L143441497 120586601
L143331973 120696125
L143222450 120750887
L143003402 120750887
L142893878 120696125
L142784354 120586601
L142729592 120367553
L142729592 119984220
L142784354 119765172
L142893878 119655649
L143003402 119600887
" />
<path d="M143989116 120750887
L143989116 119600887
L144427212 119600887
L144536735 119655649
L144591497 119710410
L144646259 119819934
L144646259 119984220
L144591497 120093744
L144536735 120148506
L144427212 120203268
L143989116 120203268
" />
</g></g>
<g style="fill:#000000; fill-opacity:0.0; 
stroke:#000000; stroke-width:300000.000000; stroke-opacity:1; 
stroke-linecap:round; stroke-linejoin:round;">
<text x="200532212.000000" y="105054899.000000"
textLength="2640952.000000" font-size="3333333.000000" lengthAdjust="spacingAndGlyphs"
text-anchor="middle" opacity="0">0</text>
<g class="stroked-text"><desc>0</desc>
<path d="M200413164 102435851
L200651259 102435851
L200889354 102554899
L201008402 102673946
L201127450 102912041
L201246497 103388232
L201246497 103983470
L201127450 104459660
L201008402 104697756
L200889354 104816803
L200651259 104935851
L200413164 104935851
L200175069 104816803
L200056021 104697756
L199936973 104459660
L199817926 103983470
L199817926 103388232
L199936973 102912041
L200056021 102673946
L200175069 102554899
L200413164 102435851
" />
</g><text x="180012212.000000" y="112804899.000000"
textLength="2532857.000000" font-size="3333333.000000" lengthAdjust="spacingAndGlyphs"
text-anchor="middle" opacity="0">Y</text>
<g class="stroked-text"><desc>Y</desc>
<path d="M180012212 111495375
L180012212 112685851
" />
<path d="M179178878 110185851
L180012212 111495375
L180845545 110185851
" />
</g><text x="177402212.000000" y="105054899.000000"
textLength="2770952.000000" font-size="3333333.000000" lengthAdjust="spacingAndGlyphs"
text-anchor="middle" opacity="0">6</text>
<g class="stroked-text"><desc>6</desc>
<path d="M177878402 102435851
L177402212 102435851
L177164116 102554899
L177045069 102673946
L176806973 103031089
L176687926 103507279
L176687926 104459660
L176806973 104697756
L176926021 104816803
L177164116 104935851
L177640307 104935851
L177878402 104816803
L177997450 104697756
L178116497 104459660
L178116497 103864422
L177997450 103626327
L177878402 103507279
L177640307 103388232
L177164116 103388232
L176926021 103507279
L176806973 103626327
L176687926 103864422
" />
</g><text x="227952213.000000" y="112554899.000000"
textLength="7818571.000000" font-size="2666666.000000" lengthAdjust="spacingAndGlyphs"
text-anchor="middle" opacity="0">RSTR</text>
<g class="stroked-text"><desc>RSTR</desc>
<path d="M225856974 112459660
L225190308 111507279
" />
<path d="M224714117 112459660
L224714117 110459660
L225476022 110459660
L225666498 110554899
L225761736 110650137
L225856974 110840613
L225856974 111126327
L225761736 111316803
L225666498 111412041
L225476022 111507279
L224714117 111507279
" />
<path d="M226618879 112364422
L226904593 112459660
L227380784 112459660
L227571260 112364422
L227666498 112269184
L227761736 112078708
L227761736 111888232
L227666498 111697756
L227571260 111602518
L227380784 111507279
L226999832 111412041
L226809355 111316803
L226714117 111221565
L226618879 111031089
L226618879 110840613
L226714117 110650137
L226809355 110554899
L226999832 110459660
L227476022 110459660
L227761736 110554899
" />
<path d="M228333165 110459660
L229476022 110459660
" />
<path d="M228904593 112459660
L228904593 110459660
" />
<path d="M231285546 112459660
L230618879 111507279
" />
<path d="M230142689 112459660
L230142689 110459660
L230904593 110459660
L231095070 110554899
L231190308 110650137
L231285546 110840613
L231285546 111126327
L231190308 111316803
L231095070 111412041
L230904593 111507279
L230142689 111507279
" />
</g><text x="172982212.000000" y="128304899.000000"
textLength="2532857.000000" font-size="3333333.000000" lengthAdjust="spacingAndGlyphs"
text-anchor="middle" opacity="0">V</text>
<g class="stroked-text"><desc>V</desc>
<path d="M172148878 125685851
L172982212 128185851
L173815545 125685851
" />
</g><text x="204382212.000000" y="120154899.000000"
textLength="1580476.000000" font-size="3333333.000000" lengthAdjust="spacingAndGlyphs"
text-anchor="middle" opacity="0">:</text>
<g class="stroked-text"><desc>:</desc>
<path d="M204382212 119797756
L204501259 119916803
L204382212 120035851
L204263164 119916803
L204382212 119797756
L204382212 120035851
" />
<path d="M204382212 118488232
L204501259 118607279
L204382212 118726327
L204263164 118607279
L204382212 118488232
L204382212 118726327
" />
</g><text x="164452211.000000" y="120554899.000000"
textLength="2890000.000000" font-size="3333333.000000" lengthAdjust="spacingAndGlyphs"
text-anchor="middle" opacity="0">D</text>
<g class="stroked-text"><desc>D</desc>
<path d="M163797449 120435851
L163797449 117935851
L164392687 117935851
L164749830 118054899
L164987925 118292994
L165106972 118531089
L165226020 119007279
L165226020 119364422
L165106972 119840613
L164987925 120078708
L164749830 120316803
L164392687 120435851
L163797449 120435851
" />
</g><text x="174232212.000000" y="112804899.000000"
textLength="2294762.000000" font-size="3333333.000000" lengthAdjust="spacingAndGlyphs"
text-anchor="middle" opacity="0">T</text>
<g class="stroked-text"><desc>T</desc>
<path d="M173517926 110185851
L174946497 110185851
" />
<path d="M174232212 112685851
L174232212 110185851
" />
</g><text x="207482212.000000" y="128304899.000000"
textLength="3009048.000000" font-size="3333333.000000" lengthAdjust="spacingAndGlyphs"
text-anchor="middle" opacity="0">/</text>
<g class="stroked-text"><desc>/</desc>
<path d="M208553640 125566803
L206410783 128781089
" />
</g><text x="184452213.000000" y="128304899.000000"
textLength="3009048.000000" font-size="3333333.000000" lengthAdjust="spacingAndGlyphs"
text-anchor="middle" opacity="0">N</text>
<g class="stroked-text"><desc>N</desc>
<path d="M183737927 128185851
L183737927 125685851
L185166498 128185851
L185166498 125685851
" />
</g><text x="193042211.000000" y="120554899.000000"
textLength="2890000.000000" font-size="3333333.000000" lengthAdjust="spacingAndGlyphs"
text-anchor="middle" opacity="0">K</text>
<g class="stroked-text"><desc>K</desc>
<path d="M192387449 120435851
L192387449 117935851
" />
<path d="M193816020 120435851
L192744591 119007279
" />
<path d="M193816020 117935851
L192387449 119364422
" />
</g><text x="155702212.000000" y="128304899.000000"
textLength="2770952.000000" font-size="3333333.000000" lengthAdjust="spacingAndGlyphs"
text-anchor="middle" opacity="0">Z</text>
<g class="stroked-text"><desc>Z</desc>
<path d="M154868878 125685851
L156535545 125685851
L154868878 128185851
L156535545 128185851
" />
</g><text x="161422211.000000" y="128304899.000000"
textLength="2770952.000000" font-size="3333333.000000" lengthAdjust="spacingAndGlyphs"
text-anchor="middle" opacity="0">X</text>
<g class="stroked-text"><desc>X</desc>
<path d="M160588877 125685851
L162255544 128185851
" />
<path d="M162255544 125685851
L160588877 128185851
" />
</g><text x="220672212.000000" y="112850000.000000"
textLength="4104286.000000" font-size="4000000.000000" lengthAdjust="spacingAndGlyphs"
text-anchor="middle" opacity="0">↑</text>
<g class="stroked-text"><desc>↑</desc>
<path d="M220672212 112707142
L220672212 110421428
" />
<path d="M220100783 110992857
L220672212 110421428
L221243640 110992857
" />
</g><text x="190232212.000000" y="128304899.000000"
textLength="3247143.000000" font-size="3333333.000000" lengthAdjust="spacingAndGlyphs"
text-anchor="middle" opacity="0">M</text>
<g class="stroked-text"><desc>M</desc>
<path d="M189398878 128185851
L189398878 125685851
L190232212 127471565
L191065545 125685851
L191065545 128185851
" />
</g><text x="185792212.000000" y="112804899.000000"
textLength="3009048.000000" font-size="3333333.000000" lengthAdjust="spacingAndGlyphs"
text-anchor="middle" opacity="0">U</text>
<g class="stroked-text"><desc>U</desc>
<path d="M185077926 110185851
L185077926 112209660
L185196973 112447756
L185316021 112566803
L185554116 112685851
L186030307 112685851
L186268402 112566803
L186387450 112447756
L186506497 112209660
L186506497 110185851
" />
</g><text x="144202212.000000" y="112554899.000000"
textLength="7532857.000000" font-size="2666666.000000" lengthAdjust="spacingAndGlyphs"
text-anchor="middle" opacity="0">CTRL</text>
<g class="stroked-text"><desc>CTRL</desc>
<path d="M142249831 112269184
L142154592 112364422
L141868878 112459660
L141678402 112459660
L141392688 112364422
L141202212 112173946
L141106973 111983470
L141011735 111602518
L141011735 111316803
L141106973 110935851
L141202212 110745375
L141392688 110554899
L141678402 110459660
L141868878 110459660
L142154592 110554899
L142249831 110650137
" />
<path d="M142821259 110459660
L143964116 110459660
" />
<path d="M143392688 112459660
L143392688 110459660
" />
<path d="M145773640 112459660
L145106973 111507279
" />
<path d="M144630783 112459660
L144630783 110459660
L145392688 110459660
L145583164 110554899
L145678402 110650137
L145773640 110840613
L145773640 111126327
L145678402 111316803
L145583164 111412041
L145392688 111507279
L144630783 111507279
" />
<path d="M147583164 112459660
L146630783 112459660
L146630783 110459660
" />
</g><text x="160052212.000000" y="105054899.000000"
textLength="2770952.000000" font-size="3333333.000000" lengthAdjust="spacingAndGlyphs"
text-anchor="middle" opacity="0">3</text>
<g class="stroked-text"><desc>3</desc>
<path d="M159218878 102435851
L160766497 102435851
L159933164 103388232
L160290307 103388232
L160528402 103507279
L160647450 103626327
L160766497 103864422
L160766497 104459660
L160647450 104697756
L160528402 104816803
L160290307 104935851
L159576021 104935851
L159337926 104816803
L159218878 104697756
" />
</g></g>
<g style="fill:#000000; fill-opacity:0.0; 
stroke:#000000; stroke-width:200000.000000; stroke-opacity:1; 
stroke-linecap:round; stroke-linejoin:round;">
<text x="223662212.000000" y="103454149.000000"
textLength="3620952.000000" font-size="1533333.000000" lengthAdjust="spacingAndGlyphs"
text-anchor="middle" opacity="0">CLR</text>
<g class="stroked-text"><desc>CLR</desc>
<path d="M222977688 103289863
L222922926 103344625
L222758640 103399387
L222649116 103399387
L222484831 103344625
L222375307 103235101
L222320545 103125577
L222265783 102906529
L222265783 102742244
L222320545 102523196
L222375307 102413672
L222484831 102304149
L222649116 102249387
L222758640 102249387
L222922926 102304149
L222977688 102358910
" />
<path d="M224018164 103399387
L223470545 103399387
L223470545 102249387
" />
<path d="M225058640 103399387
L224675307 102851768
" />
<path d="M224401497 103399387
L224401497 102249387
L224839592 102249387
L224949116 102304149
L225003878 102358910
L225058640 102468434
L225058640 102632720
L225003878 102742244
L224949116 102797006
L224839592 102851768
L224401497 102851768
" />
</g><text x="223662212.000000" y="105305649.000000"
textLength="5024286.000000" font-size="1533333.000000" lengthAdjust="spacingAndGlyphs"
text-anchor="middle" opacity="0">HOME</text>
<g class="stroked-text"><desc>HOME</desc>
<path d="M221553878 105250887
L221553878 104100887
" />
<path d="M221553878 104648506
L222211021 104648506
" />
<path d="M222211021 105250887
L222211021 104100887
" />
<path d="M222977688 104100887
L223196735 104100887
L223306259 104155649
L223415783 104265172
L223470545 104484220
L223470545 104867553
L223415783 105086601
L223306259 105196125
L223196735 105250887
L222977688 105250887
L222868164 105196125
L222758640 105086601
L222703878 104867553
L222703878 104484220
L222758640 104265172
L222868164 104155649
L222977688 104100887
" />
<path d="M223963402 105250887
L223963402 104100887
L224346735 104922315
L224730069 104100887
L224730069 105250887
" />
<path d="M225277688 104648506
L225661021 104648506
" />
<path d="M225825307 105250887
L225277688 105250887
L225277688 104100887
L225825307 104100887
" />
</g></g>
<g style="fill:#000000; fill-opacity:0.0; 
stroke:#000000; stroke-width:300000.000000; stroke-opacity:1; 
stroke-linecap:round; stroke-linejoin:round;">
<text x="217882212.000000" y="105054899.000000"
textLength="2521905.000000" font-size="3333333.000000" lengthAdjust="spacingAndGlyphs"
text-anchor="middle" opacity="0">£</text>
<g class="stroked-text"><desc>£</desc>
<path d="M217227450 103269184
L218179831 103269184
" />
<path d="M217227450 104935851
L218536973 104935851
" />
<path d="M217584592 104935851
L217584592 102792994
L217703640 102554899
L217941735 102435851
L218298878 102435851
L218536973 102554899
" />
</g><text x="212100000.000000" y="104900000.000000"
textLength="3485238.000000" font-size="3333333.000000" lengthAdjust="spacingAndGlyphs"
text-anchor="middle" opacity="0">-</text>
<g class="stroked-text"><desc>-</desc>
<path d="M211147619 103828571
L213052380 103828571
" />
</g><text x="181632212.000000" y="120554899.000000"
textLength="3009048.000000" font-size="3333333.000000" lengthAdjust="spacingAndGlyphs"
text-anchor="middle" opacity="0">H</text>
<g class="stroked-text"><desc>H</desc>
<path d="M180917926 120435851
L180917926 117935851
" />
<path d="M180917926 119126327
L182346497 119126327
" />
<path d="M182346497 120435851
L182346497 117935851
" />
</g></g>
<g style="fill:#000000; fill-opacity:0.0; 
stroke:#000000; stroke-width:200000.000000; stroke-opacity:1; 
stroke-linecap:round; stroke-linejoin:round;">
<text x="238702212.000000" y="103454149.000000"
textLength="2470952.000000" font-size="1533333.000000" lengthAdjust="spacingAndGlyphs"
text-anchor="middle" opacity="0">F1</text>
<g class="stroked-text"><desc>F1</desc>
<path d="M238318878 102797006
L237935545 102797006
" />
<path d="M237935545 103399387
L237935545 102249387
L238483164 102249387
" />
<path d="M239523640 103399387
L238866497 103399387
" />
<path d="M239195069 103399387
L239195069 102249387
L239085545 102413672
L238976021 102523196
L238866497 102577958
" />
</g><text x="238702212.000000" y="105305649.000000"
textLength="2340952.000000" font-size="1533333.000000" lengthAdjust="spacingAndGlyphs"
text-anchor="middle" opacity="0">F2</text>
<g class="stroked-text"><desc>F2</desc>
<path d="M238318878 104648506
L237935545 104648506
" />
<path d="M237935545 105250887
L237935545 104100887
L238483164 104100887
" />
<path d="M238866497 104210410
L238921259 104155649
L239030783 104100887
L239304592 104100887
L239414116 104155649
L239468878 104210410
L239523640 104319934
L239523640 104429458
L239468878 104593744
L238811735 105250887
L239523640 105250887
" />
</g></g>
<g style="fill:#000000; fill-opacity:0.0; 
stroke:#000000; stroke-width:300000.000000; stroke-opacity:1; 
stroke-linecap:round; stroke-linejoin:round;">
<text x="150952211.000000" y="112804899.000000"
textLength="2879048.000000" font-size="3333333.000000" lengthAdjust="spacingAndGlyphs"
text-anchor="middle" opacity="0">Q</text>
<g class="stroked-text"><desc>Q</desc>
<path d="M151904591 112923946
L151666496 112804899
L151428401 112566803
L151071258 112209660
L150833163 112090613
L150595068 112090613
" />
<path d="M150714115 112685851
L150476020 112566803
L150237925 112328708
L150118877 111852518
L150118877 111019184
L150237925 110542994
L150476020 110304899
L150714115 110185851
L151190306 110185851
L151428401 110304899
L151666496 110542994
L151785544 111019184
L151785544 111852518
L151666496 112328708
L151428401 112566803
L151190306 112685851
L150714115 112685851
" />
</g><text x="162572212.000000" y="112804899.000000"
textLength="2651905.000000" font-size="3333333.000000" lengthAdjust="spacingAndGlyphs"
text-anchor="middle" opacity="0">E</text>
<g class="stroked-text"><desc>E</desc>
<path d="M162036497 111376327
L162869831 111376327
" />
<path d="M163226973 112685851
L162036497 112685851
L162036497 110185851
L163226973 110185851
" />
</g><text x="176450000.000000" y="138850000.000000"
textLength="23128095.000000" font-size="3333333.000000" lengthAdjust="spacingAndGlyphs"
text-anchor="middle" opacity="0">SPACE  BAR</text>
<g class="stroked-text"><desc>SPACE  BAR</desc>
<path d="M165557142 138611904
L165914285 138730952
L166509523 138730952
L166747619 138611904
L166866666 138492857
L166985714 138254761
L166985714 138016666
L166866666 137778571
L166747619 137659523
L166509523 137540476
L166033333 137421428
L165795238 137302380
L165676190 137183333
L165557142 136945238
L165557142 136707142
L165676190 136469047
L165795238 136350000
L166033333 136230952
L166628571 136230952
L166985714 136350000
" />
<path d="M168057142 138730952
L168057142 136230952
L169009523 136230952
L169247619 136350000
L169366666 136469047
L169485714 136707142
L169485714 137064285
L169366666 137302380
L169247619 137421428
L169009523 137540476
L168057142 137540476
" />
<path d="M170438095 138016666
L171628571 138016666
" />
<path d="M170200000 138730952
L171033333 136230952
L171866666 138730952
" />
<path d="M174128571 138492857
L174009523 138611904
L173652380 138730952
L173414285 138730952
L173057142 138611904
L172819047 138373809
L172700000 138135714
L172580952 137659523
L172580952 137302380
L172700000 136826190
L172819047 136588095
L173057142 136350000
L173414285 136230952
L173652380 136230952
L174009523 136350000
L174128571 136469047
" />
<path d="M175200000 137421428
L176033333 137421428
" />
<path d="M176390476 138730952
L175200000 138730952
L175200000 136230952
L176390476 136230952
" />
<path d="M182104761 137421428
L182461904 137540476
L182580952 137659523
L182700000 137897619
L182700000 138254761
L182580952 138492857
L182461904 138611904
L182223809 138730952
L181271428 138730952
L181271428 136230952
L182104761 136230952
L182342857 136350000
L182461904 136469047
L182580952 136707142
L182580952 136945238
L182461904 137183333
L182342857 137302380
L182104761 137421428
L181271428 137421428
" />
<path d="M183652380 138016666
L184842857 138016666
" />
<path d="M183414285 138730952
L184247619 136230952
L185080952 138730952
" />
<path d="M187342857 138730952
L186509523 137540476
" />
<path d="M185914285 138730952
L185914285 136230952
L186866666 136230952
L187104761 136350000
L187223809 136469047
L187342857 136707142
L187342857 137064285
L187223809 137302380
L187104761 137421428
L186866666 137540476
L185914285 137540476
" />
</g><text x="195922211.000000" y="128150000.000000"
textLength="1580476.000000" font-size="3333333.000000" lengthAdjust="spacingAndGlyphs"
text-anchor="middle" opacity="0">,</text>
<g class="stroked-text"><desc>,</desc>
<path d="M196041258 127911904
L196041258 128030952
L195922211 128269047
L195803163 128388095
" />
</g><text x="154272212.000000" y="105054899.000000"
textLength="2770952.000000" font-size="3333333.000000" lengthAdjust="spacingAndGlyphs"
text-anchor="middle" opacity="0">2</text>
<g class="stroked-text"><desc>2</desc>
<path d="M153557926 102673946
L153676973 102554899
L153915069 102435851
L154510307 102435851
L154748402 102554899
L154867450 102673946
L154986497 102912041
L154986497 103150137
L154867450 103507279
L153438878 104935851
L154986497 104935851
" />
</g><text x="214832212.000000" y="113504899.000000"
textLength="2294762.000000" font-size="3333333.000000" lengthAdjust="spacingAndGlyphs"
text-anchor="middle" opacity="0">*</text>
<g class="stroked-text"><desc>*</desc>
<path d="M214832212 110885851
L214832212 111481089
" />
<path d="M214236973 111242994
L214832212 111481089
L215427450 111242994
" />
<path d="M214475069 111957279
L214832212 111481089
L215189354 111957279
" />
</g><text x="210182212.000000" y="120104899.000000"
textLength="1580476.000000" font-size="3333333.000000" lengthAdjust="spacingAndGlyphs"
text-anchor="middle" opacity="0">;</text>
<g class="stroked-text"><desc>;</desc>
<path d="M210301259 119866803
L210301259 119985851
L210182212 120223946
L210063164 120342994
" />
<path d="M210182212 118438232
L210301259 118557279
L210182212 118676327
L210063164 118557279
L210182212 118438232
L210182212 118676327
" />
</g><text x="183182212.000000" y="105054899.000000"
textLength="2770952.000000" font-size="3333333.000000" lengthAdjust="spacingAndGlyphs"
text-anchor="middle" opacity="0">7</text>
<g class="stroked-text"><desc>7</desc>
<path d="M182348878 102435851
L184015545 102435851
L182944116 104935851
" />
</g><text x="178672211.000000" y="128304899.000000"
textLength="2890000.000000" font-size="3333333.000000" lengthAdjust="spacingAndGlyphs"
text-anchor="middle" opacity="0">B</text>
<g class="stroked-text"><desc>B</desc>
<path d="M178850782 126876327
L179207925 126995375
L179326972 127114422
L179446020 127352518
L179446020 127709660
L179326972 127947756
L179207925 128066803
L178969830 128185851
L178017449 128185851
L178017449 125685851
L178850782 125685851
L179088877 125804899
L179207925 125923946
L179326972 126162041
L179326972 126400137
L179207925 126638232
L179088877 126757279
L178850782 126876327
L178017449 126876327
" />
</g></g>
<g style="fill:#000000; fill-opacity:0.0; 
stroke:#000000; stroke-width:200000.000000; stroke-opacity:1; 
stroke-linecap:round; stroke-linejoin:round;">
<text x="238702212.000000" y="111204149.000000"
textLength="2470952.000000" font-size="1533333.000000" lengthAdjust="spacingAndGlyphs"
text-anchor="middle" opacity="0">F3</text>
<g class="stroked-text"><desc>F3</desc>
<path d="M238318878 110547006
L237935545 110547006
" />
<path d="M237935545 111149387
L237935545 109999387
L238483164 109999387
" />
<path d="M238811735 109999387
L239523640 109999387
L239140307 110437482
L239304592 110437482
L239414116 110492244
L239468878 110547006
L239523640 110656529
L239523640 110930339
L239468878 111039863
L239414116 111094625
L239304592 111149387
L238976021 111149387
L238866497 111094625
L238811735 111039863
" />
</g><text x="238702212.000000" y="113055649.000000"
textLength="2340952.000000" font-size="1533333.000000" lengthAdjust="spacingAndGlyphs"
text-anchor="middle" opacity="0">F4</text>
<g class="stroked-text"><desc>F4</desc>
<path d="M238318878 112398506
L237935545 112398506
" />
<path d="M237935545 113000887
L237935545 111850887
L238483164 111850887
" />
<path d="M239414116 112234220
L239414116 113000887
" />
<path d="M239140307 111796125
L238866497 112617553
L239578402 112617553
" />
</g></g>
<g style="fill:#000000; fill-opacity:0.0; 
stroke:#000000; stroke-width:300000.000000; stroke-opacity:1; 
stroke-linecap:round; stroke-linejoin:round;">
<text x="156782212.000000" y="112804899.000000"
textLength="3117143.000000" font-size="3333333.000000" lengthAdjust="spacingAndGlyphs"
text-anchor="middle" opacity="0">W</text>
<g class="stroked-text"><desc>W</desc>
<path d="M155710783 110185851
L156306021 112685851
L156782212 110900137
L157258402 112685851
L157853640 110185851
" />
</g><text x="175852212.000000" y="120554899.000000"
textLength="2890000.000000" font-size="3333333.000000" lengthAdjust="spacingAndGlyphs"
text-anchor="middle" opacity="0">G</text>
<g class="stroked-text"><desc>G</desc>
<path d="M176506973 118054899
L176268878 117935851
L175911735 117935851
L175554592 118054899
L175316497 118292994
L175197450 118531089
L175078402 119007279
L175078402 119364422
L175197450 119840613
L175316497 120078708
L175554592 120316803
L175911735 120435851
L176149831 120435851
L176506973 120316803
L176626021 120197756
L176626021 119364422
L176149831 119364422
" />
</g><text x="194752212.000000" y="105054899.000000"
textLength="2770952.000000" font-size="3333333.000000" lengthAdjust="spacingAndGlyphs"
text-anchor="middle" opacity="0">9</text>
<g class="stroked-text"><desc>9</desc>
<path d="M194276021 104935851
L194752212 104935851
L194990307 104816803
L195109354 104697756
L195347450 104340613
L195466497 103864422
L195466497 102912041
L195347450 102673946
L195228402 102554899
L194990307 102435851
L194514116 102435851
L194276021 102554899
L194156973 102673946
L194037926 102912041
L194037926 103507279
L194156973 103745375
L194276021 103864422
L194514116 103983470
L194990307 103983470
L195228402 103864422
L195347450 103745375
L195466497 103507279
" />
</g><text x="224952212.000000" y="120304899.000000"
textLength="11913810.000000" font-size="2666666.000000" lengthAdjust="spacingAndGlyphs"
text-anchor="middle" opacity="0">RETURN</text>
<g class="stroked-text"><desc>RETURN</desc>
<path d="M220809354 120209660
L220142688 119257279
" />
<path d="M219666497 120209660
L219666497 118209660
L220428402 118209660
L220618878 118304899
L220714116 118400137
L220809354 118590613
L220809354 118876327
L220714116 119066803
L220618878 119162041
L220428402 119257279
L219666497 119257279
" />
<path d="M221666497 119162041
L222333164 119162041
" />
<path d="M222618878 120209660
L221666497 120209660
L221666497 118209660
L222618878 118209660
" />
<path d="M223190307 118209660
L224333164 118209660
" />
<path d="M223761735 120209660
L223761735 118209660
" />
<path d="M224999831 118209660
L224999831 119828708
L225095069 120019184
L225190307 120114422
L225380783 120209660
L225761735 120209660
L225952211 120114422
L226047450 120019184
L226142688 119828708
L226142688 118209660
" />
<path d="M228237926 120209660
L227571259 119257279
" />
<path d="M227095069 120209660
L227095069 118209660
L227856973 118209660
L228047450 118304899
L228142688 118400137
L228237926 118590613
L228237926 118876327
L228142688 119066803
L228047450 119162041
L227856973 119257279
L227095069 119257279
" />
<path d="M229095069 120209660
L229095069 118209660
L230237926 120209660
L230237926 118209660
" />
</g><text x="209082212.000000" y="112504899.000000"
textLength="3604286.000000" font-size="3333333.000000" lengthAdjust="spacingAndGlyphs"
text-anchor="middle" opacity="0">@</text>
<g class="stroked-text"><desc>@</desc>
<path d="M209617926 111195375
L209498878 111076327
L209260783 110957279
L209022688 110957279
L208784592 111076327
L208665545 111195375
L208546497 111433470
L208546497 111671565
L208665545 111909660
L208784592 112028708
L209022688 112147756
L209260783 112147756
L209498878 112028708
L209617926 111909660
" />
<path d="M209617926 110957279
L209617926 111909660
L209736973 112028708
L209856021 112028708
L210094116 111909660
L210213164 111671565
L210213164 111076327
L209975069 110719184
L209617926 110481089
L209141735 110362041
L208665545 110481089
L208308402 110719184
L208070307 111076327
L207951259 111552518
L208070307 112028708
L208308402 112385851
L208665545 112623946
L209141735 112742994
L209617926 112623946
L209975069 112385851
" />
</g></g>
<g style="fill:#000000; fill-opacity:0.0; 
stroke:#000000; stroke-width:200000.000000; stroke-opacity:1; 
stroke-linecap:round; stroke-linejoin:round;">
<text x="238702212.000000" y="126704149.000000"
textLength="2470952.000000" font-size="1533333.000000" lengthAdjust="spacingAndGlyphs"
text-anchor="middle" opacity="0">F7</text>
<g class="stroked-text"><desc>F7</desc>
<path d="M238318878 126047006
L237935545 126047006
" />
<path d="M237935545 126649387
L237935545 125499387
L238483164 125499387
" />
<path d="M238811735 125499387
L239578402 125499387
L239085545 126649387
" />
</g><text x="238702212.000000" y="128555649.000000"
textLength="2340952.000000" font-size="1533333.000000" lengthAdjust="spacingAndGlyphs"
text-anchor="middle" opacity="0">F8</text>
<g class="stroked-text"><desc>F8</desc>
<path d="M238318878 127898506
L237935545 127898506
" />
<path d="M237935545 128500887
L237935545 127350887
L238483164 127350887
" />
<path d="M239085545 127843744
L238976021 127788982
L238921259 127734220
L238866497 127624696
L238866497 127569934
L238921259 127460410
L238976021 127405649
L239085545 127350887
L239304592 127350887
L239414116 127405649
L239468878 127460410
L239523640 127569934
L239523640 127624696
L239468878 127734220
L239414116 127788982
L239304592 127843744
L239085545 127843744
L238976021 127898506
L238921259 127953268
L238866497 128062791
L238866497 128281839
L238921259 128391363
L238976021 128446125
L239085545 128500887
L239304592 128500887
L239414116 128446125
L239468878 128391363
L239523640 128281839
L239523640 128062791
L239468878 127953268
L239414116 127898506
L239304592 127843744
" />
</g></g>
<g style="fill:#000000; fill-opacity:0.0; 
stroke:#000000; stroke-width:300000.000000; stroke-opacity:1; 
stroke-linecap:round; stroke-linejoin:round;">
<text x="170072213.000000" y="120554899.000000"
textLength="2402857.000000" font-size="3333333.000000" lengthAdjust="spacingAndGlyphs"
text-anchor="middle" opacity="0">F</text>
<g class="stroked-text"><desc>F</desc>
<path d="M170429355 119126327
L169596022 119126327
" />
<path d="M169596022 120435851
L169596022 117935851
L170786498 117935851
" />
</g><text x="168352211.000000" y="112804899.000000"
textLength="2890000.000000" font-size="3333333.000000" lengthAdjust="spacingAndGlyphs"
text-anchor="middle" opacity="0">R</text>
<g class="stroked-text"><desc>R</desc>
<path d="M169126020 112685851
L168292687 111495375
" />
<path d="M167697449 112685851
L167697449 110185851
L168649830 110185851
L168887925 110304899
L169006972 110423946
L169126020 110662041
L169126020 111019184
L169006972 111257279
L168887925 111376327
L168649830 111495375
L167697449 111495375
" />
</g><text x="201700000.000000" y="128150000.000000"
textLength="1580476.000000" font-size="3333333.000000" lengthAdjust="spacingAndGlyphs"
text-anchor="middle" opacity="0">.</text>
<g class="stroked-text"><desc>.</desc>
<path d="M201700000 127792857
L201819047 127911904
L201700000 128030952
L201580952 127911904
L201700000 127792857
L201700000 128030952
" />
</g></g>
<g style="fill:#000000; fill-opacity:0.0; 
stroke:#000000; stroke-width:200000.000000; stroke-opacity:1; 
stroke-linecap:round; stroke-linejoin:round;">
<text x="229452212.000000" y="103454149.000000"
textLength="4113810.000000" font-size="1533333.000000" lengthAdjust="spacingAndGlyphs"
text-anchor="middle" opacity="0">INST</text>
<g class="stroked-text"><desc>INST</desc>
<path d="M227864116 103399387
L227864116 102249387
" />
<path d="M228411735 103399387
L228411735 102249387
L229068878 103399387
L229068878 102249387
" />
<path d="M229561735 103344625
L229726021 103399387
L229999831 103399387
L230109354 103344625
L230164116 103289863
L230218878 103180339
L230218878 103070815
L230164116 102961291
L230109354 102906529
L229999831 102851768
L229780783 102797006
L229671259 102742244
L229616497 102687482
L229561735 102577958
L229561735 102468434
L229616497 102358910
L229671259 102304149
L229780783 102249387
L230054592 102249387
L230218878 102304149
" />
<path d="M230547450 102249387
L231204592 102249387
" />
<path d="M230876021 103399387
L230876021 102249387
" />
</g><text x="229452212.000000" y="105305649.000000"
textLength="3381429.000000" font-size="1533333.000000" lengthAdjust="spacingAndGlyphs"
text-anchor="middle" opacity="0">DEL</text>
<g class="stroked-text"><desc>DEL</desc>
<path d="M228165307 105250887
L228165307 104100887
L228439116 104100887
L228603402 104155649
L228712926 104265172
L228767688 104374696
L228822450 104593744
L228822450 104758029
L228767688 104977077
L228712926 105086601
L228603402 105196125
L228439116 105250887
L228165307 105250887
" />
<path d="M229315307 104648506
L229698640 104648506
" />
<path d="M229862926 105250887
L229315307 105250887
L229315307 104100887
L229862926 104100887
" />
<path d="M230903402 105250887
L230355783 105250887
L230355783 104100887
" />
</g></g>
<g style="fill:#000000; fill-opacity:0.0; 
stroke:#000000; stroke-width:300000.000000; stroke-opacity:1; 
stroke-linecap:round; stroke-linejoin:round;">
<text x="222206270.000000" y="128054899.000000"
textLength="3355238.000000" font-size="3333333.000000" lengthAdjust="spacingAndGlyphs"
text-anchor="middle" opacity="0">↓</text>
<g class="stroked-text"><desc>↓</desc>
<path d="M222206270 126031089
L222206270 127935851
" />
<path d="M222682460 127459660
L222206270 127935851
L221730079 127459660
" />
</g><text x="191672213.000000" y="112804899.000000"
textLength="1580476.000000" font-size="3333333.000000" lengthAdjust="spacingAndGlyphs"
text-anchor="middle" opacity="0">I</text>
<g class="stroked-text"><desc>I</desc>
<path d="M191672213 112685851
L191672213 110185851
" />
</g><text x="152892212.000000" y="120554899.000000"
textLength="2532857.000000" font-size="3333333.000000" lengthAdjust="spacingAndGlyphs"
text-anchor="middle" opacity="0">A</text>
<g class="stroked-text"><desc>A</desc>
<path d="M152296973 119721565
L153487450 119721565
" />
<path d="M152058878 120435851
L152892212 117935851
L153725545 120435851
" />
</g><text x="149202213.000000" y="128054899.000000"
textLength="7628095.000000" font-size="2666666.000000" lengthAdjust="spacingAndGlyphs"
text-anchor="middle" opacity="0">SHFT</text>
<g class="stroked-text"><desc>SHFT</desc>
<path d="M145964117 127864422
L146249832 127959660
L146726022 127959660
L146916498 127864422
L147011736 127769184
L147106974 127578708
L147106974 127388232
L147011736 127197756
L146916498 127102518
L146726022 127007279
L146345070 126912041
L146154593 126816803
L146059355 126721565
L145964117 126531089
L145964117 126340613
L146059355 126150137
L146154593 126054899
L146345070 125959660
L146821260 125959660
L147106974 126054899
" />
<path d="M147964117 127959660
L147964117 125959660
" />
<path d="M147964117 126912041
L149106974 126912041
" />
<path d="M149106974 127959660
L149106974 125959660
" />
<path d="M150726022 126912041
L150059355 126912041
" />
<path d="M150059355 127959660
L150059355 125959660
L151011736 125959660
" />
<path d="M151487927 125959660
L152630784 125959660
" />
<path d="M152059355 127959660
L152059355 125959660
" />
</g><text x="158672212.000000" y="120554899.000000"
textLength="2770952.000000" font-size="3333333.000000" lengthAdjust="spacingAndGlyphs"
text-anchor="middle" opacity="0">S</text>
<g class="stroked-text"><desc>S</desc>
<path d="M157957926 120316803
L158315069 120435851
L158910307 120435851
L159148402 120316803
L159267450 120197756
L159386497 119959660
L159386497 119721565
L159267450 119483470
L159148402 119364422
L158910307 119245375
L158434116 119126327
L158196021 119007279
L158076973 118888232
L157957926 118650137
L157957926 118412041
L158076973 118173946
L158196021 118054899
L158434116 117935851
L159029354 117935851
L159386497 118054899
" />
</g><text x="227582212.000000" y="127704899.000000"
textLength="3485238.000000" font-size="3333333.000000" lengthAdjust="spacingAndGlyphs"
text-anchor="middle" opacity="0">←</text>
<g class="stroked-text"><desc>←</desc>
<path d="M228534592 126633470
L226629831 126633470
" />
<path d="M227106021 127109660
L226629831 126633470
L227106021 126157279
" />
</g><text x="227582212.000000" y="128754899.000000"
textLength="3485238.000000" font-size="3333333.000000" lengthAdjust="spacingAndGlyphs"
text-anchor="middle" opacity="0">→</text>
<g class="stroked-text"><desc>→</desc>
<path d="M226629831 127683470
L228534592 127683470
" />
<path d="M228058402 128159660
L228534592 127683470
L228058402 127207279
" />
</g><text x="188962212.000000" y="105054899.000000"
textLength="2770952.000000" font-size="3333333.000000" lengthAdjust="spacingAndGlyphs"
text-anchor="middle" opacity="0">8</text>
<g class="stroked-text"><desc>8</desc>
<path d="M188724116 103507279
L188486021 103388232
L188366973 103269184
L188247926 103031089
L188247926 102912041
L188366973 102673946
L188486021 102554899
L188724116 102435851
L189200307 102435851
L189438402 102554899
L189557450 102673946
L189676497 102912041
L189676497 103031089
L189557450 103269184
L189438402 103388232
L189200307 103507279
L188724116 103507279
L188486021 103626327
L188366973 103745375
L188247926 103983470
L188247926 104459660
L188366973 104697756
L188486021 104816803
L188724116 104935851
L189200307 104935851
L189438402 104816803
L189557450 104697756
L189676497 104459660
L189676497 103983470
L189557450 103745375
L189438402 103626327
L189200307 103507279
" />
</g><text x="203232212.000000" y="112804899.000000"
textLength="2890000.000000" font-size="3333333.000000" lengthAdjust="spacingAndGlyphs"
text-anchor="middle" opacity="0">P</text>
<g class="stroked-text"><desc>P</desc>
<path d="M202577450 112685851
L202577450 110185851
L203529831 110185851
L203767926 110304899
L203886973 110423946
L204006021 110662041
L204006021 111019184
L203886973 111257279
L203767926 111376327
L203529831 111495375
L202577450 111495375
" />
</g><text x="198822213.000000" y="120554899.000000"
textLength="2413810.000000" font-size="3333333.000000" lengthAdjust="spacingAndGlyphs"
text-anchor="middle" opacity="0">L</text>
<g class="stroked-text"><desc>L</desc>
<path d="M199596022 120435851
L198405546 120435851
L198405546 117935851
" />
</g><text x="187262212.000000" y="120554899.000000"
textLength="2294762.000000" font-size="3333333.000000" lengthAdjust="spacingAndGlyphs"
text-anchor="middle" opacity="0">J</text>
<g class="stroked-text"><desc>J</desc>
<path d="M187619354 117935851
L187619354 119721565
L187500307 120078708
L187262212 120316803
L186905069 120435851
L186666973 120435851
" />
</g><text x="221195430.000000" y="128054899.000000"
textLength="3485238.000000" font-size="3333333.000000" lengthAdjust="spacingAndGlyphs"
text-anchor="middle" opacity="0">↑</text>
<g class="stroked-text"><desc>↑</desc>
<path d="M221195430 127935851
L221195430 126031089
" />
<path d="M220719239 126507279
L221195430 126031089
L221671620 126507279
" />
</g><text x="171612212.000000" y="105054899.000000"
textLength="2770952.000000" font-size="3333333.000000" lengthAdjust="spacingAndGlyphs"
text-anchor="middle" opacity="0">5</text>
<g class="stroked-text"><desc>5</desc>
<path d="M172207450 102435851
L171016973 102435851
L170897926 103626327
L171016973 103507279
L171255069 103388232
L171850307 103388232
L172088402 103507279
L172207450 103626327
L172326497 103864422
L172326497 104459660
L172207450 104697756
L172088402 104816803
L171850307 104935851
L171255069 104935851
L171016973 104816803
L170897926 104697756
" />
</g><text x="142702212.000000" y="105100000.000000"
textLength="4104286.000000" font-size="4000000.000000" lengthAdjust="spacingAndGlyphs"
text-anchor="middle" opacity="0">←</text>
<g class="stroked-text"><desc>←</desc>
<path d="M143845069 103814285
L141559354 103814285
" />
<path d="M142130783 104385714
L141559354 103814285
L142130783 103242857
" />
</g><text x="148482212.000000" y="105054899.000000"
textLength="2770952.000000" font-size="3333333.000000" lengthAdjust="spacingAndGlyphs"
text-anchor="middle" opacity="0">1</text>
<g class="stroked-text"><desc>1</desc>
<path d="M149196497 104935851
L147767926 104935851
" />
<path d="M148482212 104935851
L148482212 102435851
L148244116 102792994
L148006021 103031089
L147767926 103150137
" />
</g></g>
<g style="fill:#000000; fill-opacity:0.0; 
stroke:#000000; stroke-width:200000.000000; stroke-opacity:1; 
stroke-linecap:round; stroke-linejoin:round;">
<text x="238702212.000000" y="118954149.000000"
textLength="2470952.000000" font-size="1533333.000000" lengthAdjust="spacingAndGlyphs"
text-anchor="middle" opacity="0">F5</text>
<g class="stroked-text"><desc>F5</desc>
<path d="M238318878 118297006
L237935545 118297006
" />
<path d="M237935545 118899387
L237935545 117749387
L238483164 117749387
" />
<path d="M239468878 117749387
L238921259 117749387
L238866497 118297006
L238921259 118242244
L239030783 118187482
L239304592 118187482
L239414116 118242244
L239468878 118297006
L239523640 118406529
L239523640 118680339
L239468878 118789863
L239414116 118844625
L239304592 118899387
L239030783 118899387
L238921259 118844625
L238866497 118789863
" />
</g><text x="238702212.000000" y="120805649.000000"
textLength="2340952.000000" font-size="1533333.000000" lengthAdjust="spacingAndGlyphs"
text-anchor="middle" opacity="0">F6</text>
<g class="stroked-text"><desc>F6</desc>
<path d="M238318878 120148506
L237935545 120148506
" />
<path d="M237935545 120750887
L237935545 119600887
L238483164 119600887
" />
<path d="M239414116 119600887
L239195069 119600887
L239085545 119655649
L239030783 119710410
L238921259 119874696
L238866497 120093744
L238866497 120531839
L238921259 120641363
L238976021 120696125
L239085545 120750887
L239304592 120750887
L239414116 120696125
L239468878 120641363
L239523640 120531839
L239523640 120258029
L239468878 120148506
L239414116 120093744
L239304592 120038982
L239085545 120038982
L238976021 120093744
L238921259 120148506
L238866497 120258029
" />
</g></g>
<g style="fill:#000000; fill-opacity:0.0; 
stroke:#000000; stroke-width:300000.000000; stroke-opacity:1; 
stroke-linecap:round; stroke-linejoin:round;">
<text x="214732212.000000" y="128054899.000000"
textLength="7498095.000000" font-size="2666666.000000" lengthAdjust="spacingAndGlyphs"
text-anchor="middle" opacity="0">SHFT</text>
<g class="stroked-text"><desc>SHFT</desc>
<path d="M211494116 127864422
L211779831 127959660
L212256021 127959660
L212446497 127864422
L212541735 127769184
L212636973 127578708
L212636973 127388232
L212541735 127197756
L212446497 127102518
L212256021 127007279
L211875069 126912041
L211684592 126816803
L211589354 126721565
L211494116 126531089
L211494116 126340613
L211589354 126150137
L211684592 126054899
L211875069 125959660
L212351259 125959660
L212636973 126054899
" />
<path d="M213494116 127959660
L213494116 125959660
" />
<path d="M213494116 126912041
L214636973 126912041
" />
<path d="M214636973 127959660
L214636973 125959660
" />
<path d="M216256021 126912041
L215589354 126912041
" />
<path d="M215589354 127959660
L215589354 125959660
L216541735 125959660
" />
<path d="M217017926 125959660
L218160783 125959660
" />
<path d="M217589354 127959660
L217589354 125959660
" />
</g><text x="167202213.000000" y="128304899.000000"
textLength="2890000.000000" font-size="3333333.000000" lengthAdjust="spacingAndGlyphs"
text-anchor="middle" opacity="0">C</text>
<g class="stroked-text"><desc>C</desc>
<path d="M167976022 127947756
L167856974 128066803
L167499832 128185851
L167261736 128185851
L166904593 128066803
L166666498 127828708
L166547451 127590613
L166428403 127114422
L166428403 126757279
L166547451 126281089
L166666498 126042994
L166904593 125804899
L167261736 125685851
L167499832 125685851
L167856974 125804899
L167976022 125923946
" />
</g><text x="165832212.000000" y="105054899.000000"
textLength="2770952.000000" font-size="3333333.000000" lengthAdjust="spacingAndGlyphs"
text-anchor="middle" opacity="0">4</text>
<g class="stroked-text"><desc>4</desc>
<path d="M166308402 103269184
L166308402 104935851
" />
<path d="M165713164 102316803
L165117926 104102518
L166665545 104102518
" />
</g><g >
</g>
<g >
</g>
<g >
</g>
</g> 
</svg>
