<?xml version="1.0" standalone="no"?>
 <!DOCTYPE svg PUBLIC "-//W3C//DTD SVG 1.1//EN" 
 "http://www.w3.org/Graphics/SVG/1.1/DTD/svg11.dtd"> 
<svg
  xmlns:svg="http://www.w3.org/2000/svg"
  xmlns="http://www.w3.org/2000/svg"
  xmlns:xlink="http://www.w3.org/1999/xlink"
  version="1.1"
  width="29.700220cm" height="21.000720cm" viewBox="0 0 297002200 210007200">
<title>SVG Picture created as cover-Edge_Cuts.svg date 2022/05/05 18:20:02 </title>
  <desc>Picture generated by PCBNEW </desc>
<g style="fill:#000000; fill-opacity:1.000000;stroke:#000000; stroke-opacity:1.000000;
stroke-linecap:round; stroke-linejoin:round;"
 transform="translate(0 0) scale(1 1)">
</g>
<g style="fill:#000000; fill-opacity:0.0; 
stroke:#000000; stroke-width:0.000000; stroke-opacity:1; 
stroke-linecap:round; stroke-linejoin:round;">
</g>
<g style="fill:#000000; fill-opacity:0.0; 
stroke:#000000; stroke-width:150000.000000; stroke-opacity:1; 
stroke-linecap:round; stroke-linejoin:round;">
<circle cx="187262212.000000" cy="122704899.000000" r="1500000.000000" /> 
<circle cx="203232212.000000" cy="114954899.000000" r="1500000.000000" /> 
<circle cx="148482212.000000" cy="107204899.000000" r="1500000.000000" /> 
<circle cx="210222212.000000" cy="122704899.000000" r="1500000.000000" /> 
</g>
<g style="fill:#000000; fill-opacity:0.0; 
stroke:#000000; stroke-width:100000.000000; stroke-opacity:1; 
stroke-linecap:round; stroke-linejoin:round;">
<path d="M223268907 68425003
L233293905 68424863
" />
<path d="M144268872 140950001
L237268872 140950002
" />
</g>
<g style="fill:#000000; fill-opacity:0.0; 
stroke:#000000; stroke-width:150000.000000; stroke-opacity:1; 
stroke-linecap:round; stroke-linejoin:round;">
<circle cx="181632212.000000" cy="122704899.000000" r="1500000.000000" /> 
<circle cx="220672212.000000" cy="114954899.000000" r="1500000.000000" /> 
</g>
<g style="fill:#000000; fill-opacity:0.0; 
stroke:#000000; stroke-width:100000.000000; stroke-opacity:1; 
stroke-linecap:round; stroke-linejoin:round;">
<path d="M241768872.999997 63931977.000000 A4499998.000000 4499998.000000 0.0 0 0 237268872.000000 59431974.000001" />
</g>
<g style="fill:#000000; fill-opacity:0.0; 
stroke:#000000; stroke-width:150000.000000; stroke-opacity:1; 
stroke-linecap:round; stroke-linejoin:round;">
<circle cx="175852212.000000" cy="122704899.000000" r="1499999.000000" /> 
<circle cx="154272212.000000" cy="107204898.000000" r="1500000.000000" /> 
<circle cx="206312212.000000" cy="107204899.000000" r="1500000.000000" /> 
<circle cx="229452212.000000" cy="107204899.000000" r="1500000.000000" /> 
<circle cx="158672212.000000" cy="122704899.000000" r="1500000.000000" /> 
</g>
<g style="fill:#000000; fill-opacity:0.0; 
stroke:#000000; stroke-width:100000.000000; stroke-opacity:1; 
stroke-linecap:round; stroke-linejoin:round;">
<path d="M139768872.000000 136450000.000000 A4500000.000000 4500000.000000 0.0 0 0 144268872.000000 140950001.000000" />
</g>
<g style="fill:#000000; fill-opacity:0.0; 
stroke:#000000; stroke-width:150000.000000; stroke-opacity:1; 
stroke-linecap:round; stroke-linejoin:round;">
<circle cx="171612212.000000" cy="107204899.000000" r="1500000.000000" /> 
<circle cx="177402212.000000" cy="107204899.000000" r="1500000.000000" /> 
</g>
<g style="fill:#000000; fill-opacity:0.0; 
stroke:#000000; stroke-width:100000.000000; stroke-opacity:1; 
stroke-linecap:round; stroke-linejoin:round;">
<circle cx="143800000.000000" cy="63450000.000000" r="1150000.000000" /> 
<path d="M148268840 68424869
L158293838 68424729
" />
</g>
<g style="fill:#000000; fill-opacity:0.0; 
stroke:#000000; stroke-width:150000.000000; stroke-opacity:1; 
stroke-linecap:round; stroke-linejoin:round;">
<circle cx="214452212.000000" cy="130454899.000000" r="1500000.000000" /> 
<circle cx="238702212.000000" cy="114954898.000000" r="1500000.000000" /> 
<circle cx="156792212.000000" cy="114954899.000000" r="1500000.000000" /> 
<circle cx="227952213.000000" cy="114954899.000000" r="1500002.000000" /> 
<circle cx="142702212.000000" cy="107204899.000000" r="1500000.000000" /> 
</g>
<g style="fill:#000000; fill-opacity:0.0; 
stroke:#000000; stroke-width:100000.000000; stroke-opacity:1; 
stroke-linecap:round; stroke-linejoin:round;">
<circle cx="155006084.000000" cy="79250002.000000" r="1500000.000000" /> 
</g>
<g style="fill:#000000; fill-opacity:0.0; 
stroke:#000000; stroke-width:150000.000000; stroke-opacity:1; 
stroke-linecap:round; stroke-linejoin:round;">
<circle cx="194752212.000000" cy="107204899.000000" r="1500000.000000" /> 
<circle cx="221702212.000000" cy="130454899.000000" r="1500000.000000" /> 
<circle cx="201702213.000000" cy="130454899.000000" r="1500002.000000" /> 
<circle cx="238702212.000000" cy="107204899.000000" r="1500000.000000" /> 
<circle cx="191672213.000000" cy="114954899.000000" r="1500002.000000" /> 
<circle cx="231052720.000000" cy="80450000.000000" r="1500000.000000" /> 
<circle cx="212102213.000000" cy="107204899.000000" r="1500001.000000" /> 
<circle cx="238702212.000000" cy="122704899.000000" r="1500000.000000" /> 
<circle cx="150952211.000000" cy="114954899.000000" r="1499999.000000" /> 
<circle cx="155702212.000000" cy="130454899.000000" r="1500000.000000" /> 
<circle cx="162572212.000000" cy="114954899.000000" r="1500000.000000" /> 
<circle cx="167202213.000000" cy="130454899.000000" r="1500001.000000" /> 
<circle cx="190232212.000000" cy="130454899.000000" r="1499999.000000" /> 
<circle cx="214892212.000000" cy="114954899.000000" r="1500000.000000" /> 
<circle cx="160052212.000000" cy="107204899.000000" r="1500000.000000" /> 
</g>
<g style="fill:#000000; fill-opacity:0.0; 
stroke:#000000; stroke-width:100000.000000; stroke-opacity:1; 
stroke-linecap:round; stroke-linejoin:round;">
<path d="M158268840 63924868
L148293295 63925002
" />
</g>
<g style="fill:#000000; fill-opacity:0.0; 
stroke:#000000; stroke-width:150000.000000; stroke-opacity:1; 
stroke-linecap:round; stroke-linejoin:round;">
<circle cx="180012212.000000" cy="114954898.000000" r="1500000.000000" /> 
<circle cx="142702212.000000" cy="122704899.000000" r="1500000.000000" /> 
<circle cx="152892212.000000" cy="122704899.000000" r="1500000.000000" /> 
</g>
<g style="fill:#000000; fill-opacity:0.0; 
stroke:#000000; stroke-width:100000.000000; stroke-opacity:1; 
stroke-linecap:round; stroke-linejoin:round;">
<circle cx="237750000.000000" cy="63450000.000000" r="1150000.000000" /> 
</g>
<g style="fill:#000000; fill-opacity:0.0; 
stroke:#000000; stroke-width:150000.000000; stroke-opacity:1; 
stroke-linecap:round; stroke-linejoin:round;">
<circle cx="204442212.000000" cy="122704899.000000" r="1500001.000000" /> 
</g>
<g style="fill:#000000; fill-opacity:0.0; 
stroke:#000000; stroke-width:100000.000000; stroke-opacity:1; 
stroke-linecap:round; stroke-linejoin:round;">
<circle cx="149996152.000000" cy="74241067.000000" r="1500000.000000" /> 
</g>
<g style="fill:#000000; fill-opacity:0.0; 
stroke:#000000; stroke-width:150000.000000; stroke-opacity:1; 
stroke-linecap:round; stroke-linejoin:round;">
<circle cx="164452211.000000" cy="122704899.000000" r="1499999.000000" /> 
<circle cx="195922211.000000" cy="130454899.000000" r="1499999.000000" /> 
<circle cx="170072213.000000" cy="122704899.000000" r="1500002.000000" /> 
<circle cx="174232212.000000" cy="114954899.000000" r="1500000.000000" /> 
<circle cx="144202212.000000" cy="114954899.000000" r="1500000.000000" /> 
<circle cx="207482212.000000" cy="130454899.000000" r="1499999.000000" /> 
<circle cx="223662212.000000" cy="107204899.000000" r="1500000.000000" /> 
</g>
<g style="fill:#000000; fill-opacity:0.0; 
stroke:#000000; stroke-width:100000.000000; stroke-opacity:1; 
stroke-linecap:round; stroke-linejoin:round;">
<circle cx="145008214.000000" cy="79250002.000000" r="1500000.000000" /> 
</g>
<g style="fill:#000000; fill-opacity:0.0; 
stroke:#000000; stroke-width:150000.000000; stroke-opacity:1; 
stroke-linecap:round; stroke-linejoin:round;">
<circle cx="168352211.000000" cy="114954899.000000" r="1499999.000000" /> 
<circle cx="172982212.000000" cy="130454899.000000" r="1500000.000000" /> 
<circle cx="216002212.000000" cy="122704899.000000" r="1500000.000000" /> 
<circle cx="142702212.000000" cy="130454900.000000" r="1500000.000000" /> 
<circle cx="161422211.000000" cy="130454899.000000" r="1499999.000000" /> 
</g>
<g style="fill:#000000; fill-opacity:0.0; 
stroke:#000000; stroke-width:100000.000000; stroke-opacity:1; 
stroke-linecap:round; stroke-linejoin:round;">
<path d="M148293295.000933 63925001.914144 A2250000.000000 2250000.000000 0.0 1 0 148268840.000000 68424869.000000" />
<path d="M139768872 63931978
L139768872 136450000
" />
</g>
<g style="fill:#000000; fill-opacity:0.0; 
stroke:#000000; stroke-width:150000.000000; stroke-opacity:1; 
stroke-linecap:round; stroke-linejoin:round;">
<circle cx="193042211.000000" cy="122704899.000000" r="1499999.000000" /> 
<circle cx="209112212.000000" cy="114954899.000000" r="1500000.000000" /> 
<circle cx="183182212.000000" cy="107204898.000000" r="1500000.000000" /> 
<circle cx="185792212.000000" cy="114954899.000000" r="1500000.000000" /> 
<circle cx="197452212.000000" cy="114954899.000000" r="1499999.000000" /> 
</g>
<g style="fill:#000000; fill-opacity:0.0; 
stroke:#000000; stroke-width:100000.000000; stroke-opacity:1; 
stroke-linecap:round; stroke-linejoin:round;">
<circle cx="143750000.000000" cy="136950000.000000" r="1150000.000000" /> 
<path d="M237268872.000000 140950002.000000 A4500002.000000 4500002.000000 0.0 0 0 241768872.000000 136450002.000000" />
</g>
<g style="fill:#000000; fill-opacity:0.0; 
stroke:#000000; stroke-width:150000.000000; stroke-opacity:1; 
stroke-linecap:round; stroke-linejoin:round;">
<circle cx="178672211.000000" cy="130454899.000000" r="1499999.000000" /> 
<circle cx="227702212.000000" cy="130454899.000000" r="1500000.000000" /> 
<circle cx="165832212.000000" cy="107204899.000000" r="1500000.000000" /> 
<circle cx="198822213.000000" cy="122704899.000000" r="1500002.000000" /> 
</g>
<g style="fill:#000000; fill-opacity:0.0; 
stroke:#000000; stroke-width:100000.000000; stroke-opacity:1; 
stroke-linecap:round; stroke-linejoin:round;">
<path d="M233268907 63925002
L223293362 63925136
" />
<path d="M212918872 100950002
L163018872 100950002
" />
<path d="M163018872 100950002
L163018872 63250002
" />
<path d="M163018872 63250002
L212918872 63250002
" />
<path d="M212918872 63250002
L212918872 100950002
" />
<path d="M237268872 59431974
L144268872 59431977
" />
</g>
<g style="fill:#000000; fill-opacity:0.0; 
stroke:#000000; stroke-width:150000.000000; stroke-opacity:1; 
stroke-linecap:round; stroke-linejoin:round;">
<circle cx="178782212.000000" cy="137454899.000000" r="1500000.000000" /> 
</g>
<g style="fill:#000000; fill-opacity:0.0; 
stroke:#000000; stroke-width:100000.000000; stroke-opacity:1; 
stroke-linecap:round; stroke-linejoin:round;">
<path d="M158293838.001434 68424729.129031 A2250000.000000 2250000.000000 0.0 0 0 158268840.000000 63924868.000000" />
</g>
<g style="fill:#000000; fill-opacity:0.0; 
stroke:#000000; stroke-width:150000.000000; stroke-opacity:1; 
stroke-linecap:round; stroke-linejoin:round;">
<circle cx="238702212.000000" cy="130454900.000000" r="1500000.000000" /> 
<circle cx="184452213.000000" cy="130454899.000000" r="1500002.000000" /> 
</g>
<g style="fill:#000000; fill-opacity:0.0; 
stroke:#000000; stroke-width:100000.000000; stroke-opacity:1; 
stroke-linecap:round; stroke-linejoin:round;">
<path d="M144268872.000000 59431977.000000 A4500000.000000 4500000.000000 0.0 0 0 139768872.000000 63931978.000000" />
<path d="M241768872 136450000
L241768873 63931977
" />
</g>
<g style="fill:#000000; fill-opacity:0.0; 
stroke:#000000; stroke-width:150000.000000; stroke-opacity:1; 
stroke-linecap:round; stroke-linejoin:round;">
<circle cx="200532212.000000" cy="107204899.000000" r="1500000.000000" /> 
<circle cx="149202213.000000" cy="130454899.000000" r="1500002.000000" /> 
</g>
<g style="fill:#000000; fill-opacity:0.0; 
stroke:#000000; stroke-width:100000.000000; stroke-opacity:1; 
stroke-linecap:round; stroke-linejoin:round;">
<circle cx="237750000.000000" cy="136950000.000000" r="1150000.000000" /> 
</g>
<g style="fill:#000000; fill-opacity:0.0; 
stroke:#000000; stroke-width:150000.000000; stroke-opacity:1; 
stroke-linecap:round; stroke-linejoin:round;">
<circle cx="217882212.000000" cy="107204899.000000" r="1499999.000000" /> 
</g>
<g style="fill:#000000; fill-opacity:0.0; 
stroke:#000000; stroke-width:100000.000000; stroke-opacity:1; 
stroke-linecap:round; stroke-linejoin:round;">
<path d="M233293905.001434 68424863.129031 A2250000.000000 2250000.000000 0.0 0 0 233268907.000000 63925002.000000" />
<path d="M223293362.000933 63925135.914144 A2250000.000000 2250000.000000 0.0 1 0 223268907.000000 68425003.000000" />
</g>
<g style="fill:#000000; fill-opacity:0.0; 
stroke:#000000; stroke-width:150000.000000; stroke-opacity:1; 
stroke-linecap:round; stroke-linejoin:round;">
<circle cx="224952212.000000" cy="122704899.000000" r="1499999.000000" /> 
</g>
<g style="fill:#000000; fill-opacity:0.0; 
stroke:#000000; stroke-width:100000.000000; stroke-opacity:1; 
stroke-linecap:round; stroke-linejoin:round;">
<circle cx="149996152.000000" cy="84217118.000000" r="1500000.000000" /> 
</g>
<g style="fill:#000000; fill-opacity:0.0; 
stroke:#000000; stroke-width:150000.000000; stroke-opacity:1; 
stroke-linecap:round; stroke-linejoin:round;">
<circle cx="188962212.000000" cy="107204899.000000" r="1500000.000000" /> 
<g >
</g>
<g >
</g>
<g >
</g>
</g> 
</svg>
