  0
SECTION
  2
HEADER
  9
$ANGBASE
  50
0.0
  9
$ANGDIR
  70
1
  9
$MEASUREMENT
  70
0
  0
ENDSEC
  0
SECTION
  2
TABLES
  0
TABLE
  2
LTYPE
  70
4
  0
LTYPE
  5
40F
  2
CONTINUOUS
  70
0
  3
Solid line
  72
65
  73
0
  40
0.0
  0
LTYPE
  5
410
  2
DASHDOT
 70
0
  3
Dash Dot ____ _ ____ _
 72
65
 73
4
 40
2.0
 49
1.25
 49
-0.25
 49
0.25
 49
-0.25
  0
LTYPE
  5
411
  2
DASHED
 70
0
  3
Dashed __ __ __ __ __
 72
65
 73
2
 40
0.75
 49
0.5
 49
-0.25
  0
LTYPE
  5
43B
  2
DOTTED
 70
0
  3
Dotted .  .  .  .
 72
65
 73
2
 40
0.2
 49
0.0
 49
-0.2
  0
ENDTAB
  0
TABLE
  2
STYLE
  70
4
  0
STYLE
  2
KICAD
  70
0
  40
0
  41
1
  42
1
  50
0
  71
0
  3
isocp.shx
  0
STYLE
  2
KICADB
  70
0
  40
0
  41
1
  42
1
  50
0
  71
0
  3
isocp.shx
  0
STYLE
  2
KICADI
  70
0
  40
0
  41
1
  42
1
  50
15
  71
0
  3
isocp.shx
  0
STYLE
  2
KICADBI
  70
0
  40
0
  41
1
  42
1
  50
15
  71
0
  3
isocp.shx
  0
ENDTAB
  0
TABLE
  2
LAYER
  70
1
  0
LAYER
  2
BLACK
  70
0
  62
7
  6
CONTINUOUS
  0
ENDTAB
  0
ENDSEC
  0
SECTION
  2
ENTITIES
0
LINE
8
BLACK
6
CONTINUOUS
10
1.55329
20
-5.5505
11
1.53779
21
-5.54846
0
LINE
8
BLACK
6
CONTINUOUS
10
1.53779
20
-5.54846
11
1.52253
21
-5.54508
0
LINE
8
BLACK
6
CONTINUOUS
10
1.52253
20
-5.54508
11
1.50763
21
-5.54038
0
LINE
8
BLACK
6
CONTINUOUS
10
1.50763
20
-5.54038
11
1.49319
21
-5.5344
0
LINE
8
BLACK
6
CONTINUOUS
10
1.49319
20
-5.5344
11
1.47933
21
-5.52718
0
LINE
8
BLACK
6
CONTINUOUS
10
1.47933
20
-5.52718
11
1.46615
21
-5.51879
0
LINE
8
BLACK
6
CONTINUOUS
10
1.46615
20
-5.51879
11
1.45375
21
-5.50927
0
LINE
8
BLACK
6
CONTINUOUS
10
1.45375
20
-5.50927
11
1.44223
21
-5.49871
0
LINE
8
BLACK
6
CONTINUOUS
10
1.44223
20
-5.49871
11
1.43167
21
-5.48719
0
LINE
8
BLACK
6
CONTINUOUS
10
1.43167
20
-5.48719
11
1.42216
21
-5.47479
0
LINE
8
BLACK
6
CONTINUOUS
10
1.42216
20
-5.47479
11
1.41376
21
-5.46161
0
LINE
8
BLACK
6
CONTINUOUS
10
1.41376
20
-5.46161
11
1.40655
21
-5.44775
0
LINE
8
BLACK
6
CONTINUOUS
10
1.40655
20
-5.44775
11
1.40057
21
-5.43331
0
LINE
8
BLACK
6
CONTINUOUS
10
1.40057
20
-5.43331
11
1.39587
21
-5.41841
0
LINE
8
BLACK
6
CONTINUOUS
10
1.39587
20
-5.41841
11
1.39249
21
-5.40315
0
LINE
8
BLACK
6
CONTINUOUS
10
1.39249
20
-5.40315
11
1.39045
21
-5.38766
0
LINE
8
BLACK
6
CONTINUOUS
10
1.39045
20
-5.38766
11
1.38976
21
-5.37205
0
LINE
8
BLACK
6
CONTINUOUS
10
1.38976
20
-5.37205
11
1.38976
21
-2.51701
0
LINE
8
BLACK
6
CONTINUOUS
10
1.38976
20
-2.51701
11
1.39045
21
-2.50139
0
LINE
8
BLACK
6
CONTINUOUS
10
1.39045
20
-2.50139
11
1.39249
21
-2.4859
0
LINE
8
BLACK
6
CONTINUOUS
10
1.39249
20
-2.4859
11
1.39587
21
-2.47064
0
LINE
8
BLACK
6
CONTINUOUS
10
1.39587
20
-2.47064
11
1.40057
21
-2.45574
0
LINE
8
BLACK
6
CONTINUOUS
10
1.40057
20
-2.45574
11
1.40655
21
-2.4413
0
LINE
8
BLACK
6
CONTINUOUS
10
1.40655
20
-2.4413
11
1.41376
21
-2.42744
0
LINE
8
BLACK
6
CONTINUOUS
10
1.41376
20
-2.42744
11
1.42216
21
-2.41426
0
LINE
8
BLACK
6
CONTINUOUS
10
1.42216
20
-2.41426
11
1.43167
21
-2.40186
0
LINE
8
BLACK
6
CONTINUOUS
10
1.43167
20
-2.40186
11
1.44223
21
-2.39034
0
LINE
8
BLACK
6
CONTINUOUS
10
1.44223
20
-2.39034
11
1.45375
21
-2.37978
0
LINE
8
BLACK
6
CONTINUOUS
10
1.45375
20
-2.37978
11
1.46615
21
-2.37027
0
LINE
8
BLACK
6
CONTINUOUS
10
1.46615
20
-2.37027
11
1.47933
21
-2.36187
0
LINE
8
BLACK
6
CONTINUOUS
10
1.47933
20
-2.36187
11
1.49319
21
-2.35466
0
LINE
8
BLACK
6
CONTINUOUS
10
1.49319
20
-2.35466
11
1.50763
21
-2.34868
0
LINE
8
BLACK
6
CONTINUOUS
10
1.50763
20
-2.34868
11
1.52253
21
-2.34398
0
LINE
8
BLACK
6
CONTINUOUS
10
1.52253
20
-2.34398
11
1.53779
21
-2.34059
0
LINE
8
BLACK
6
CONTINUOUS
10
1.53779
20
-2.34059
11
1.55329
21
-2.33855
0
LINE
8
BLACK
6
CONTINUOUS
10
1.55329
20
-2.33855
11
1.5689
21
-2.33787
0
LINE
8
BLACK
6
CONTINUOUS
10
1.5689
20
-2.33787
11
5.23031
21
-2.33787
0
LINE
8
BLACK
6
CONTINUOUS
10
5.23031
20
-2.33787
11
5.24593
21
-2.33855
0
LINE
8
BLACK
6
CONTINUOUS
10
5.24593
20
-2.33855
11
5.26142
21
-2.34059
0
LINE
8
BLACK
6
CONTINUOUS
10
5.26142
20
-2.34059
11
5.27668
21
-2.34398
0
LINE
8
BLACK
6
CONTINUOUS
10
5.27668
20
-2.34398
11
5.29158
21
-2.34868
0
LINE
8
BLACK
6
CONTINUOUS
10
5.29158
20
-2.34868
11
5.30602
21
-2.35466
0
LINE
8
BLACK
6
CONTINUOUS
10
5.30602
20
-2.35466
11
5.31988
21
-2.36187
0
LINE
8
BLACK
6
CONTINUOUS
10
5.31988
20
-2.36187
11
5.33306
21
-2.37027
0
LINE
8
BLACK
6
CONTINUOUS
10
5.33306
20
-2.37027
11
5.34546
21
-2.37978
0
LINE
8
BLACK
6
CONTINUOUS
10
5.34546
20
-2.37978
11
5.35698
21
-2.39034
0
LINE
8
BLACK
6
CONTINUOUS
10
5.35698
20
-2.39034
11
5.36754
21
-2.40186
0
LINE
8
BLACK
6
CONTINUOUS
10
5.36754
20
-2.40186
11
5.37705
21
-2.41426
0
LINE
8
BLACK
6
CONTINUOUS
10
5.37705
20
-2.41426
11
5.38545
21
-2.42744
0
LINE
8
BLACK
6
CONTINUOUS
10
5.38545
20
-2.42744
11
5.39267
21
-2.4413
0
LINE
8
BLACK
6
CONTINUOUS
10
5.39267
20
-2.4413
11
5.39865
21
-2.45574
0
LINE
8
BLACK
6
CONTINUOUS
10
5.39865
20
-2.45574
11
5.40335
21
-2.47064
0
LINE
8
BLACK
6
CONTINUOUS
10
5.40335
20
-2.47064
11
5.40673
21
-2.4859
0
LINE
8
BLACK
6
CONTINUOUS
10
5.40673
20
-2.4859
11
5.40877
21
-2.50139
0
LINE
8
BLACK
6
CONTINUOUS
10
5.40877
20
-2.50139
11
5.40945
21
-2.51701
0
LINE
8
BLACK
6
CONTINUOUS
10
5.40945
20
-2.51701
11
5.40945
21
-5.37205
0
LINE
8
BLACK
6
CONTINUOUS
10
5.40945
20
-5.37205
11
5.40877
21
-5.38766
0
LINE
8
BLACK
6
CONTINUOUS
10
5.40877
20
-5.38766
11
5.40673
21
-5.40315
0
LINE
8
BLACK
6
CONTINUOUS
10
5.40673
20
-5.40315
11
5.40334
21
-5.41841
0
LINE
8
BLACK
6
CONTINUOUS
10
5.40334
20
-5.41841
11
5.39865
21
-5.43331
0
LINE
8
BLACK
6
CONTINUOUS
10
5.39865
20
-5.43331
11
5.39267
21
-5.44775
0
LINE
8
BLACK
6
CONTINUOUS
10
5.39267
20
-5.44775
11
5.38545
21
-5.46161
0
LINE
8
BLACK
6
CONTINUOUS
10
5.38545
20
-5.46161
11
5.37705
21
-5.47479
0
LINE
8
BLACK
6
CONTINUOUS
10
5.37705
20
-5.47479
11
5.36754
21
-5.48719
0
LINE
8
BLACK
6
CONTINUOUS
10
5.36754
20
-5.48719
11
5.35698
21
-5.49871
0
LINE
8
BLACK
6
CONTINUOUS
10
5.35698
20
-5.49871
11
5.34546
21
-5.50927
0
LINE
8
BLACK
6
CONTINUOUS
10
5.34546
20
-5.50927
11
5.33306
21
-5.51879
0
LINE
8
BLACK
6
CONTINUOUS
10
5.33306
20
-5.51879
11
5.31988
21
-5.52718
0
LINE
8
BLACK
6
CONTINUOUS
10
5.31988
20
-5.52718
11
5.30602
21
-5.5344
0
LINE
8
BLACK
6
CONTINUOUS
10
5.30602
20
-5.5344
11
5.29158
21
-5.54038
0
LINE
8
BLACK
6
CONTINUOUS
10
5.29158
20
-5.54038
11
5.27668
21
-5.54508
0
LINE
8
BLACK
6
CONTINUOUS
10
5.27668
20
-5.54508
11
5.26142
21
-5.54846
0
LINE
8
BLACK
6
CONTINUOUS
10
5.26142
20
-5.54846
11
5.24593
21
-5.5505
0
LINE
8
BLACK
6
CONTINUOUS
10
5.24593
20
-5.5505
11
5.23031
21
-5.55118
0
LINE
8
BLACK
6
CONTINUOUS
10
5.23031
20
-5.55118
11
1.5689
21
-5.55118
0
LINE
8
BLACK
6
CONTINUOUS
10
1.5689
20
-5.55118
11
1.55329
21
-5.5505
0
LINE
8
BLACK
6
CONTINUOUS
10
5.23068
20
-5.5474
11
5.2456
21
-5.54674
0
LINE
8
BLACK
6
CONTINUOUS
10
5.2456
20
-5.54674
11
5.26077
21
-5.54475
0
LINE
8
BLACK
6
CONTINUOUS
10
5.26077
20
-5.54475
11
5.2757
21
-5.54144
0
LINE
8
BLACK
6
CONTINUOUS
10
5.2757
20
-5.54144
11
5.29029
21
-5.53684
0
LINE
8
BLACK
6
CONTINUOUS
10
5.29029
20
-5.53684
11
5.30443
21
-5.53098
0
LINE
8
BLACK
6
CONTINUOUS
10
5.30443
20
-5.53098
11
5.318
21
-5.52392
0
LINE
8
BLACK
6
CONTINUOUS
10
5.318
20
-5.52392
11
5.3309
21
-5.5157
0
LINE
8
BLACK
6
CONTINUOUS
10
5.3309
20
-5.5157
11
5.34304
21
-5.50638
0
LINE
8
BLACK
6
CONTINUOUS
10
5.34304
20
-5.50638
11
5.35432
21
-5.49605
0
LINE
8
BLACK
6
CONTINUOUS
10
5.35432
20
-5.49605
11
5.36465
21
-5.48477
0
LINE
8
BLACK
6
CONTINUOUS
10
5.36465
20
-5.48477
11
5.37396
21
-5.47263
0
LINE
8
BLACK
6
CONTINUOUS
10
5.37396
20
-5.47263
11
5.38218
21
-5.45973
0
LINE
8
BLACK
6
CONTINUOUS
10
5.38218
20
-5.45973
11
5.38925
21
-5.44616
0
LINE
8
BLACK
6
CONTINUOUS
10
5.38925
20
-5.44616
11
5.3951
21
-5.43203
0
LINE
8
BLACK
6
CONTINUOUS
10
5.3951
20
-5.43203
11
5.3997
21
-5.41743
0
LINE
8
BLACK
6
CONTINUOUS
10
5.3997
20
-5.41743
11
5.40301
21
-5.4025
0
LINE
8
BLACK
6
CONTINUOUS
10
5.40301
20
-5.4025
11
5.40501
21
-5.38733
0
LINE
8
BLACK
6
CONTINUOUS
10
5.40501
20
-5.38733
11
5.40566
21
-5.37241
0
LINE
8
BLACK
6
CONTINUOUS
10
5.40566
20
-5.37241
11
5.40551
21
-5.37205
0
LINE
8
BLACK
6
CONTINUOUS
10
5.40551
20
-5.37205
11
5.40551
21
-2.51701
0
LINE
8
BLACK
6
CONTINUOUS
10
5.40551
20
-2.51701
11
5.40566
21
-2.51664
0
LINE
8
BLACK
6
CONTINUOUS
10
5.40566
20
-2.51664
11
5.40501
21
-2.50172
0
LINE
8
BLACK
6
CONTINUOUS
10
5.40501
20
-2.50172
11
5.40301
21
-2.48656
0
LINE
8
BLACK
6
CONTINUOUS
10
5.40301
20
-2.48656
11
5.3997
21
-2.47162
0
LINE
8
BLACK
6
CONTINUOUS
10
5.3997
20
-2.47162
11
5.3951
21
-2.45703
0
LINE
8
BLACK
6
CONTINUOUS
10
5.3951
20
-2.45703
11
5.38925
21
-2.44289
0
LINE
8
BLACK
6
CONTINUOUS
10
5.38925
20
-2.44289
11
5.38218
21
-2.42932
0
LINE
8
BLACK
6
CONTINUOUS
10
5.38218
20
-2.42932
11
5.37396
21
-2.41642
0
LINE
8
BLACK
6
CONTINUOUS
10
5.37396
20
-2.41642
11
5.36465
21
-2.40429
0
LINE
8
BLACK
6
CONTINUOUS
10
5.36465
20
-2.40429
11
5.35432
21
-2.39301
0
LINE
8
BLACK
6
CONTINUOUS
10
5.35432
20
-2.39301
11
5.34304
21
-2.38267
0
LINE
8
BLACK
6
CONTINUOUS
10
5.34304
20
-2.38267
11
5.3309
21
-2.37336
0
LINE
8
BLACK
6
CONTINUOUS
10
5.3309
20
-2.37336
11
5.318
21
-2.36514
0
LINE
8
BLACK
6
CONTINUOUS
10
5.318
20
-2.36514
11
5.30443
21
-2.35807
0
LINE
8
BLACK
6
CONTINUOUS
10
5.30443
20
-2.35807
11
5.29029
21
-2.35222
0
LINE
8
BLACK
6
CONTINUOUS
10
5.29029
20
-2.35222
11
5.2757
21
-2.34762
0
LINE
8
BLACK
6
CONTINUOUS
10
5.2757
20
-2.34762
11
5.26077
21
-2.34431
0
LINE
8
BLACK
6
CONTINUOUS
10
5.26077
20
-2.34431
11
5.2456
21
-2.34231
0
LINE
8
BLACK
6
CONTINUOUS
10
5.2456
20
-2.34231
11
5.23068
21
-2.34166
0
LINE
8
BLACK
6
CONTINUOUS
10
5.23068
20
-2.34166
11
5.23031
21
-2.34181
0
LINE
8
BLACK
6
CONTINUOUS
10
5.23031
20
-2.34181
11
1.5689
21
-2.34181
0
LINE
8
BLACK
6
CONTINUOUS
10
1.5689
20
-2.34181
11
1.56853
21
-2.34166
0
LINE
8
BLACK
6
CONTINUOUS
10
1.56853
20
-2.34166
11
1.55361
21
-2.34231
0
LINE
8
BLACK
6
CONTINUOUS
10
1.55361
20
-2.34231
11
1.53845
21
-2.34431
0
LINE
8
BLACK
6
CONTINUOUS
10
1.53845
20
-2.34431
11
1.52351
21
-2.34762
0
LINE
8
BLACK
6
CONTINUOUS
10
1.52351
20
-2.34762
11
1.50892
21
-2.35222
0
LINE
8
BLACK
6
CONTINUOUS
10
1.50892
20
-2.35222
11
1.49479
21
-2.35807
0
LINE
8
BLACK
6
CONTINUOUS
10
1.49479
20
-2.35807
11
1.48122
21
-2.36514
0
LINE
8
BLACK
6
CONTINUOUS
10
1.48122
20
-2.36514
11
1.46831
21
-2.37336
0
LINE
8
BLACK
6
CONTINUOUS
10
1.46831
20
-2.37336
11
1.45618
21
-2.38267
0
LINE
8
BLACK
6
CONTINUOUS
10
1.45618
20
-2.38267
11
1.4449
21
-2.39301
0
LINE
8
BLACK
6
CONTINUOUS
10
1.4449
20
-2.39301
11
1.43456
21
-2.40429
0
LINE
8
BLACK
6
CONTINUOUS
10
1.43456
20
-2.40429
11
1.42525
21
-2.41642
0
LINE
8
BLACK
6
CONTINUOUS
10
1.42525
20
-2.41642
11
1.41703
21
-2.42933
0
LINE
8
BLACK
6
CONTINUOUS
10
1.41703
20
-2.42933
11
1.40996
21
-2.4429
0
LINE
8
BLACK
6
CONTINUOUS
10
1.40996
20
-2.4429
11
1.40411
21
-2.45703
0
LINE
8
BLACK
6
CONTINUOUS
10
1.40411
20
-2.45703
11
1.39951
21
-2.47162
0
LINE
8
BLACK
6
CONTINUOUS
10
1.39951
20
-2.47162
11
1.3962
21
-2.48656
0
LINE
8
BLACK
6
CONTINUOUS
10
1.3962
20
-2.48656
11
1.3942
21
-2.50172
0
LINE
8
BLACK
6
CONTINUOUS
10
1.3942
20
-2.50172
11
1.39355
21
-2.51664
0
LINE
8
BLACK
6
CONTINUOUS
10
1.39355
20
-2.51664
11
1.3937
21
-2.51701
0
LINE
8
BLACK
6
CONTINUOUS
10
1.3937
20
-2.51701
11
1.3937
21
-5.37205
0
LINE
8
BLACK
6
CONTINUOUS
10
1.3937
20
-5.37205
11
1.39355
21
-5.37241
0
LINE
8
BLACK
6
CONTINUOUS
10
1.39355
20
-5.37241
11
1.3942
21
-5.38733
0
LINE
8
BLACK
6
CONTINUOUS
10
1.3942
20
-5.38733
11
1.3962
21
-5.4025
0
LINE
8
BLACK
6
CONTINUOUS
10
1.3962
20
-5.4025
11
1.39951
21
-5.41743
0
LINE
8
BLACK
6
CONTINUOUS
10
1.39951
20
-5.41743
11
1.40411
21
-5.43203
0
LINE
8
BLACK
6
CONTINUOUS
10
1.40411
20
-5.43203
11
1.40996
21
-5.44616
0
LINE
8
BLACK
6
CONTINUOUS
10
1.40996
20
-5.44616
11
1.41703
21
-5.45973
0
LINE
8
BLACK
6
CONTINUOUS
10
1.41703
20
-5.45973
11
1.42525
21
-5.47263
0
LINE
8
BLACK
6
CONTINUOUS
10
1.42525
20
-5.47263
11
1.43456
21
-5.48477
0
LINE
8
BLACK
6
CONTINUOUS
10
1.43456
20
-5.48477
11
1.4449
21
-5.49605
0
LINE
8
BLACK
6
CONTINUOUS
10
1.4449
20
-5.49605
11
1.45618
21
-5.50638
0
LINE
8
BLACK
6
CONTINUOUS
10
1.45618
20
-5.50638
11
1.46831
21
-5.5157
0
LINE
8
BLACK
6
CONTINUOUS
10
1.46831
20
-5.5157
11
1.48122
21
-5.52392
0
LINE
8
BLACK
6
CONTINUOUS
10
1.48122
20
-5.52392
11
1.49479
21
-5.53098
0
LINE
8
BLACK
6
CONTINUOUS
10
1.49479
20
-5.53098
11
1.50892
21
-5.53684
0
LINE
8
BLACK
6
CONTINUOUS
10
1.50892
20
-5.53684
11
1.52351
21
-5.54144
0
LINE
8
BLACK
6
CONTINUOUS
10
1.52351
20
-5.54144
11
1.53845
21
-5.54475
0
LINE
8
BLACK
6
CONTINUOUS
10
1.53845
20
-5.54475
11
1.55361
21
-5.54674
0
LINE
8
BLACK
6
CONTINUOUS
10
1.55361
20
-5.54674
11
1.56853
21
-5.5474
0
LINE
8
BLACK
6
CONTINUOUS
10
1.56853
20
-5.5474
11
1.5689
21
-5.54724
0
LINE
8
BLACK
6
CONTINUOUS
10
1.5689
20
-5.54724
11
5.23031
21
-5.54724
0
LINE
8
BLACK
6
CONTINUOUS
10
5.23031
20
-5.54724
11
5.23068
21
-5.5474
0
LINE
8
BLACK
6
CONTINUOUS
10
3.33594
20
-2.72021
11
3.34582
21
-2.72236
0
LINE
8
BLACK
6
CONTINUOUS
10
3.34582
20
-2.72236
11
3.3553
21
-2.72589
0
LINE
8
BLACK
6
CONTINUOUS
10
3.3553
20
-2.72589
11
3.36417
21
-2.73074
0
LINE
8
BLACK
6
CONTINUOUS
10
3.36417
20
-2.73074
11
3.37227
21
-2.7368
0
LINE
8
BLACK
6
CONTINUOUS
10
3.37227
20
-2.7368
11
3.37942
21
-2.74395
0
LINE
8
BLACK
6
CONTINUOUS
10
3.37942
20
-2.74395
11
3.38547
21
-2.75204
0
LINE
8
BLACK
6
CONTINUOUS
10
3.38547
20
-2.75204
11
3.39032
21
-2.76092
0
LINE
8
BLACK
6
CONTINUOUS
10
3.39032
20
-2.76092
11
3.39385
21
-2.77039
0
LINE
8
BLACK
6
CONTINUOUS
10
3.39385
20
-2.77039
11
3.396
21
-2.78027
0
LINE
8
BLACK
6
CONTINUOUS
10
3.396
20
-2.78027
11
3.39672
21
-2.79035
0
LINE
8
BLACK
6
CONTINUOUS
10
3.39672
20
-2.79035
11
3.39672
21
-3.67618
0
LINE
8
BLACK
6
CONTINUOUS
10
3.39672
20
-3.67618
11
3.396
21
-3.68627
0
LINE
8
BLACK
6
CONTINUOUS
10
3.396
20
-3.68627
11
3.39385
21
-3.69615
0
LINE
8
BLACK
6
CONTINUOUS
10
3.39385
20
-3.69615
11
3.39032
21
-3.70562
0
LINE
8
BLACK
6
CONTINUOUS
10
3.39032
20
-3.70562
11
3.38547
21
-3.71449
0
LINE
8
BLACK
6
CONTINUOUS
10
3.38547
20
-3.71449
11
3.37942
21
-3.72259
0
LINE
8
BLACK
6
CONTINUOUS
10
3.37942
20
-3.72259
11
3.37227
21
-3.72974
0
LINE
8
BLACK
6
CONTINUOUS
10
3.37227
20
-3.72974
11
3.36417
21
-3.7358
0
LINE
8
BLACK
6
CONTINUOUS
10
3.36417
20
-3.7358
11
3.3553
21
-3.74064
0
LINE
8
BLACK
6
CONTINUOUS
10
3.3553
20
-3.74064
11
3.34582
21
-3.74418
0
LINE
8
BLACK
6
CONTINUOUS
10
3.34582
20
-3.74418
11
3.33594
21
-3.74633
0
LINE
8
BLACK
6
CONTINUOUS
10
3.33594
20
-3.74633
11
3.32586
21
-3.74705
0
LINE
8
BLACK
6
CONTINUOUS
10
3.32586
20
-3.74705
11
3.31577
21
-3.74633
0
LINE
8
BLACK
6
CONTINUOUS
10
3.31577
20
-3.74633
11
3.30589
21
-3.74418
0
LINE
8
BLACK
6
CONTINUOUS
10
3.30589
20
-3.74418
11
3.29642
21
-3.74064
0
LINE
8
BLACK
6
CONTINUOUS
10
3.29642
20
-3.74064
11
3.28755
21
-3.7358
0
LINE
8
BLACK
6
CONTINUOUS
10
3.28755
20
-3.7358
11
3.27945
21
-3.72974
0
LINE
8
BLACK
6
CONTINUOUS
10
3.27945
20
-3.72974
11
3.2723
21
-3.72259
0
LINE
8
BLACK
6
CONTINUOUS
10
3.2723
20
-3.72259
11
3.26624
21
-3.71449
0
LINE
8
BLACK
6
CONTINUOUS
10
3.26624
20
-3.71449
11
3.2614
21
-3.70562
0
LINE
8
BLACK
6
CONTINUOUS
10
3.2614
20
-3.70562
11
3.25786
21
-3.69615
0
LINE
8
BLACK
6
CONTINUOUS
10
3.25786
20
-3.69615
11
3.25571
21
-3.68627
0
LINE
8
BLACK
6
CONTINUOUS
10
3.25571
20
-3.68627
11
3.25499
21
-3.67618
0
LINE
8
BLACK
6
CONTINUOUS
10
3.25499
20
-3.67618
11
3.25499
21
-2.79035
0
LINE
8
BLACK
6
CONTINUOUS
10
3.25499
20
-2.79035
11
3.25571
21
-2.78027
0
LINE
8
BLACK
6
CONTINUOUS
10
3.25571
20
-2.78027
11
3.25786
21
-2.77039
0
LINE
8
BLACK
6
CONTINUOUS
10
3.25786
20
-2.77039
11
3.2614
21
-2.76092
0
LINE
8
BLACK
6
CONTINUOUS
10
3.2614
20
-2.76092
11
3.26624
21
-2.75204
0
LINE
8
BLACK
6
CONTINUOUS
10
3.26624
20
-2.75204
11
3.2723
21
-2.74395
0
LINE
8
BLACK
6
CONTINUOUS
10
3.2723
20
-2.74395
11
3.27945
21
-2.7368
0
LINE
8
BLACK
6
CONTINUOUS
10
3.27945
20
-2.7368
11
3.28755
21
-2.73074
0
LINE
8
BLACK
6
CONTINUOUS
10
3.28755
20
-2.73074
11
3.29642
21
-2.72589
0
LINE
8
BLACK
6
CONTINUOUS
10
3.29642
20
-2.72589
11
3.30589
21
-2.72236
0
LINE
8
BLACK
6
CONTINUOUS
10
3.30589
20
-2.72236
11
3.31577
21
-2.72021
0
LINE
8
BLACK
6
CONTINUOUS
10
3.31577
20
-2.72021
11
3.32586
21
-2.71949
0
LINE
8
BLACK
6
CONTINUOUS
10
3.32586
20
-2.71949
11
3.33594
21
-2.72021
0
LINE
8
BLACK
6
CONTINUOUS
10
3.32084
20
-2.72343
11
3.31092
21
-2.72492
0
LINE
8
BLACK
6
CONTINUOUS
10
3.31092
20
-2.72492
11
3.30134
21
-2.72788
0
LINE
8
BLACK
6
CONTINUOUS
10
3.30134
20
-2.72788
11
3.2923
21
-2.73223
0
LINE
8
BLACK
6
CONTINUOUS
10
3.2923
20
-2.73223
11
3.28401
21
-2.73788
0
LINE
8
BLACK
6
CONTINUOUS
10
3.28401
20
-2.73788
11
3.27666
21
-2.7447
0
LINE
8
BLACK
6
CONTINUOUS
10
3.27666
20
-2.7447
11
3.2704
21
-2.75255
0
LINE
8
BLACK
6
CONTINUOUS
10
3.2704
20
-2.75255
11
3.26539
21
-2.76123
0
LINE
8
BLACK
6
CONTINUOUS
10
3.26539
20
-2.76123
11
3.26172
21
-2.77057
0
LINE
8
BLACK
6
CONTINUOUS
10
3.26172
20
-2.77057
11
3.25949
21
-2.78035
0
LINE
8
BLACK
6
CONTINUOUS
10
3.25949
20
-2.78035
11
3.25877
21
-2.78997
0
LINE
8
BLACK
6
CONTINUOUS
10
3.25877
20
-2.78997
11
3.25893
21
-2.79035
0
LINE
8
BLACK
6
CONTINUOUS
10
3.25893
20
-2.79035
11
3.25893
21
-3.67618
0
LINE
8
BLACK
6
CONTINUOUS
10
3.25893
20
-3.67618
11
3.25877
21
-3.67657
0
LINE
8
BLACK
6
CONTINUOUS
10
3.25877
20
-3.67657
11
3.25949
21
-3.68618
0
LINE
8
BLACK
6
CONTINUOUS
10
3.25949
20
-3.68618
11
3.26172
21
-3.69596
0
LINE
8
BLACK
6
CONTINUOUS
10
3.26172
20
-3.69596
11
3.26539
21
-3.7053
0
LINE
8
BLACK
6
CONTINUOUS
10
3.26539
20
-3.7053
11
3.2704
21
-3.71399
0
LINE
8
BLACK
6
CONTINUOUS
10
3.2704
20
-3.71399
11
3.27666
21
-3.72183
0
LINE
8
BLACK
6
CONTINUOUS
10
3.27666
20
-3.72183
11
3.28401
21
-3.72866
0
LINE
8
BLACK
6
CONTINUOUS
10
3.28401
20
-3.72866
11
3.2923
21
-3.73431
0
LINE
8
BLACK
6
CONTINUOUS
10
3.2923
20
-3.73431
11
3.30134
21
-3.73866
0
LINE
8
BLACK
6
CONTINUOUS
10
3.30134
20
-3.73866
11
3.31092
21
-3.74162
0
LINE
8
BLACK
6
CONTINUOUS
10
3.31092
20
-3.74162
11
3.32084
21
-3.74311
0
LINE
8
BLACK
6
CONTINUOUS
10
3.32084
20
-3.74311
11
3.33087
21
-3.74311
0
LINE
8
BLACK
6
CONTINUOUS
10
3.33087
20
-3.74311
11
3.34079
21
-3.74162
0
LINE
8
BLACK
6
CONTINUOUS
10
3.34079
20
-3.74162
11
3.35038
21
-3.73866
0
LINE
8
BLACK
6
CONTINUOUS
10
3.35038
20
-3.73866
11
3.35942
21
-3.73431
0
LINE
8
BLACK
6
CONTINUOUS
10
3.35942
20
-3.73431
11
3.3677
21
-3.72866
0
LINE
8
BLACK
6
CONTINUOUS
10
3.3677
20
-3.72866
11
3.37506
21
-3.72183
0
LINE
8
BLACK
6
CONTINUOUS
10
3.37506
20
-3.72183
11
3.38131
21
-3.71399
0
LINE
8
BLACK
6
CONTINUOUS
10
3.38131
20
-3.71399
11
3.38633
21
-3.7053
0
LINE
8
BLACK
6
CONTINUOUS
10
3.38633
20
-3.7053
11
3.38999
21
-3.69596
0
LINE
8
BLACK
6
CONTINUOUS
10
3.38999
20
-3.69596
11
3.39223
21
-3.68618
0
LINE
8
BLACK
6
CONTINUOUS
10
3.39223
20
-3.68618
11
3.39295
21
-3.67657
0
LINE
8
BLACK
6
CONTINUOUS
10
3.39295
20
-3.67657
11
3.39279
21
-3.67618
0
LINE
8
BLACK
6
CONTINUOUS
10
3.39279
20
-3.67618
11
3.39279
21
-2.79035
0
LINE
8
BLACK
6
CONTINUOUS
10
3.39279
20
-2.79035
11
3.39295
21
-2.78997
0
LINE
8
BLACK
6
CONTINUOUS
10
3.39295
20
-2.78997
11
3.39223
21
-2.78035
0
LINE
8
BLACK
6
CONTINUOUS
10
3.39223
20
-2.78035
11
3.38999
21
-2.77057
0
LINE
8
BLACK
6
CONTINUOUS
10
3.38999
20
-2.77057
11
3.38633
21
-2.76123
0
LINE
8
BLACK
6
CONTINUOUS
10
3.38633
20
-2.76123
11
3.38131
21
-2.75255
0
LINE
8
BLACK
6
CONTINUOUS
10
3.38131
20
-2.75255
11
3.37506
21
-2.7447
0
LINE
8
BLACK
6
CONTINUOUS
10
3.37506
20
-2.7447
11
3.3677
21
-2.73788
0
LINE
8
BLACK
6
CONTINUOUS
10
3.3677
20
-2.73788
11
3.35942
21
-2.73223
0
LINE
8
BLACK
6
CONTINUOUS
10
3.35942
20
-2.73223
11
3.35038
21
-2.72788
0
LINE
8
BLACK
6
CONTINUOUS
10
3.35038
20
-2.72788
11
3.34079
21
-2.72492
0
LINE
8
BLACK
6
CONTINUOUS
10
3.34079
20
-2.72492
11
3.33087
21
-2.72343
0
LINE
8
BLACK
6
CONTINUOUS
10
3.33087
20
-2.72343
11
3.32084
21
-2.72343
  0
ENDSEC
  0
EOF
