  0
SECTION
  2
HEADER
  9
$ANGBASE
  50
0.0
  9
$ANGDIR
  70
1
  9
$MEASUREMENT
  70
0
  0
ENDSEC
  0
SECTION
  2
TABLES
  0
TABLE
  2
LTYPE
  70
4
  0
LTYPE
  5
40F
  2
CONTINUOUS
  70
0
  3
Solid line
  72
65
  73
0
  40
0.0
  0
LTYPE
  5
410
  2
DASHDOT
 70
0
  3
Dash Dot ____ _ ____ _
 72
65
 73
4
 40
2.0
 49
1.25
 49
-0.25
 49
0.25
 49
-0.25
  0
LTYPE
  5
411
  2
DASHED
 70
0
  3
Dashed __ __ __ __ __
 72
65
 73
2
 40
0.75
 49
0.5
 49
-0.25
  0
LTYPE
  5
43B
  2
DOTTED
 70
0
  3
Dotted .  .  .  .
 72
65
 73
2
 40
0.2
 49
0.0
 49
-0.2
  0
ENDTAB
  0
TABLE
  2
STYLE
  70
4
  0
STYLE
  2
KICAD
  70
0
  40
0
  41
1
  42
1
  50
0
  71
0
  3
isocp.shx
  0
STYLE
  2
KICADB
  70
0
  40
0
  41
1
  42
1
  50
0
  71
0
  3
isocp.shx
  0
STYLE
  2
KICADI
  70
0
  40
0
  41
1
  42
1
  50
15
  71
0
  3
isocp.shx
  0
STYLE
  2
KICADBI
  70
0
  40
0
  41
1
  42
1
  50
15
  71
0
  3
isocp.shx
  0
ENDTAB
  0
TABLE
  2
LAYER
  70
1
  0
LAYER
  2
BLACK
  70
0
  62
7
  6
CONTINUOUS
  0
ENDTAB
  0
ENDSEC
  0
SECTION
  2
ENTITIES
0
LINE
8
BLACK
6
CONTINUOUS
10
2.85354
20
-5.49213
11
2.79252
21
-5.49213
0
LINE
8
BLACK
6
CONTINUOUS
10
2.79252
20
-5.49213
11
2.79252
21
-5.45276
0
LINE
8
BLACK
6
CONTINUOUS
10
2.79252
20
-5.45276
11
2.85354
21
-5.45276
0
LINE
8
BLACK
6
CONTINUOUS
10
2.85354
20
-5.45276
11
2.85354
21
-5.49213
0
LINE
8
BLACK
6
CONTINUOUS
10
3.06024
20
-5.49213
11
2.99921
21
-5.49213
0
LINE
8
BLACK
6
CONTINUOUS
10
2.99921
20
-5.49213
11
2.99921
21
-5.45276
0
LINE
8
BLACK
6
CONTINUOUS
10
2.99921
20
-5.45276
11
3.06024
21
-5.45276
0
LINE
8
BLACK
6
CONTINUOUS
10
3.06024
20
-5.45276
11
3.06024
21
-5.49213
0
LINE
8
BLACK
6
CONTINUOUS
10
3.06024
20
-5.36614
11
2.99921
21
-5.36614
0
LINE
8
BLACK
6
CONTINUOUS
10
2.99921
20
-5.36614
11
2.99921
21
-5.32677
0
LINE
8
BLACK
6
CONTINUOUS
10
2.99921
20
-5.32677
11
3.06024
21
-5.32677
0
LINE
8
BLACK
6
CONTINUOUS
10
3.06024
20
-5.32677
11
3.06024
21
-5.36614
0
LINE
8
BLACK
6
CONTINUOUS
10
2.85354
20
-5.36614
11
2.79252
21
-5.36614
0
LINE
8
BLACK
6
CONTINUOUS
10
2.79252
20
-5.36614
11
2.79252
21
-5.32677
0
LINE
8
BLACK
6
CONTINUOUS
10
2.79252
20
-5.32677
11
2.85354
21
-5.32677
0
LINE
8
BLACK
6
CONTINUOUS
10
2.85354
20
-5.32677
11
2.85354
21
-5.36614
0
LINE
8
BLACK
6
CONTINUOUS
10
1.4626
20
-5.26772
11
1.42323
21
-5.26772
0
LINE
8
BLACK
6
CONTINUOUS
10
1.42323
20
-5.26772
11
1.42323
21
-5.20669
0
LINE
8
BLACK
6
CONTINUOUS
10
1.42323
20
-5.20669
11
1.4626
21
-5.20669
0
LINE
8
BLACK
6
CONTINUOUS
10
1.4626
20
-5.20669
11
1.4626
21
-5.26772
0
LINE
8
BLACK
6
CONTINUOUS
10
1.58858
20
-5.26772
11
1.54921
21
-5.26772
0
LINE
8
BLACK
6
CONTINUOUS
10
1.54921
20
-5.26772
11
1.54921
21
-5.20669
0
LINE
8
BLACK
6
CONTINUOUS
10
1.54921
20
-5.20669
11
1.58858
21
-5.20669
0
LINE
8
BLACK
6
CONTINUOUS
10
1.58858
20
-5.20669
11
1.58858
21
-5.26772
0
LINE
8
BLACK
6
CONTINUOUS
10
5.24213
20
-5.26772
11
5.20276
21
-5.26772
0
LINE
8
BLACK
6
CONTINUOUS
10
5.20276
20
-5.26772
11
5.20276
21
-5.20669
0
LINE
8
BLACK
6
CONTINUOUS
10
5.20276
20
-5.20669
11
5.24213
21
-5.20669
0
LINE
8
BLACK
6
CONTINUOUS
10
5.24213
20
-5.20669
11
5.24213
21
-5.26772
0
LINE
8
BLACK
6
CONTINUOUS
10
5.36811
20
-5.26772
11
5.32874
21
-5.26772
0
LINE
8
BLACK
6
CONTINUOUS
10
5.32874
20
-5.26772
11
5.32874
21
-5.20669
0
LINE
8
BLACK
6
CONTINUOUS
10
5.32874
20
-5.20669
11
5.36811
21
-5.20669
0
LINE
8
BLACK
6
CONTINUOUS
10
5.36811
20
-5.20669
11
5.36811
21
-5.26772
0
LINE
8
BLACK
6
CONTINUOUS
10
4.93504
20
-5.26772
11
4.89567
21
-5.26772
0
LINE
8
BLACK
6
CONTINUOUS
10
4.89567
20
-5.26772
11
4.89567
21
-5.20669
0
LINE
8
BLACK
6
CONTINUOUS
10
4.89567
20
-5.20669
11
4.93504
21
-5.20669
0
LINE
8
BLACK
6
CONTINUOUS
10
4.93504
20
-5.20669
11
4.93504
21
-5.26772
0
LINE
8
BLACK
6
CONTINUOUS
10
1.7185
20
-5.26772
11
1.67913
21
-5.26772
0
LINE
8
BLACK
6
CONTINUOUS
10
1.67913
20
-5.26772
11
1.67913
21
-5.20669
0
LINE
8
BLACK
6
CONTINUOUS
10
1.67913
20
-5.20669
11
1.7185
21
-5.20669
0
LINE
8
BLACK
6
CONTINUOUS
10
1.7185
20
-5.20669
11
1.7185
21
-5.26772
0
LINE
8
BLACK
6
CONTINUOUS
10
3.23228
20
-5.26772
11
3.19291
21
-5.26772
0
LINE
8
BLACK
6
CONTINUOUS
10
3.19291
20
-5.26772
11
3.19291
21
-5.20669
0
LINE
8
BLACK
6
CONTINUOUS
10
3.19291
20
-5.20669
11
3.23228
21
-5.20669
0
LINE
8
BLACK
6
CONTINUOUS
10
3.23228
20
-5.20669
11
3.23228
21
-5.26772
0
LINE
8
BLACK
6
CONTINUOUS
10
1.84449
20
-5.26772
11
1.80512
21
-5.26772
0
LINE
8
BLACK
6
CONTINUOUS
10
1.80512
20
-5.26772
11
1.80512
21
-5.20669
0
LINE
8
BLACK
6
CONTINUOUS
10
1.80512
20
-5.20669
11
1.84449
21
-5.20669
0
LINE
8
BLACK
6
CONTINUOUS
10
1.84449
20
-5.20669
11
1.84449
21
-5.26772
0
LINE
8
BLACK
6
CONTINUOUS
10
3.68386
20
-5.26772
11
3.64449
21
-5.26772
0
LINE
8
BLACK
6
CONTINUOUS
10
3.64449
20
-5.26772
11
3.64449
21
-5.20669
0
LINE
8
BLACK
6
CONTINUOUS
10
3.64449
20
-5.20669
11
3.68386
21
-5.20669
0
LINE
8
BLACK
6
CONTINUOUS
10
3.68386
20
-5.20669
11
3.68386
21
-5.26772
0
LINE
8
BLACK
6
CONTINUOUS
10
4.80906
20
-5.26772
11
4.76969
21
-5.26772
0
LINE
8
BLACK
6
CONTINUOUS
10
4.76969
20
-5.26772
11
4.76969
21
-5.20669
0
LINE
8
BLACK
6
CONTINUOUS
10
4.76969
20
-5.20669
11
4.80906
21
-5.20669
0
LINE
8
BLACK
6
CONTINUOUS
10
4.80906
20
-5.20669
11
4.80906
21
-5.26772
0
LINE
8
BLACK
6
CONTINUOUS
10
3.1063
20
-5.26772
11
3.06693
21
-5.26772
0
LINE
8
BLACK
6
CONTINUOUS
10
3.06693
20
-5.26772
11
3.06693
21
-5.20669
0
LINE
8
BLACK
6
CONTINUOUS
10
3.06693
20
-5.20669
11
3.1063
21
-5.20669
0
LINE
8
BLACK
6
CONTINUOUS
10
3.1063
20
-5.20669
11
3.1063
21
-5.26772
0
LINE
8
BLACK
6
CONTINUOUS
10
2.19961
20
-5.26772
11
2.16024
21
-5.26772
0
LINE
8
BLACK
6
CONTINUOUS
10
2.16024
20
-5.26772
11
2.16024
21
-5.20669
0
LINE
8
BLACK
6
CONTINUOUS
10
2.16024
20
-5.20669
11
2.19961
21
-5.20669
0
LINE
8
BLACK
6
CONTINUOUS
10
2.19961
20
-5.20669
11
2.19961
21
-5.26772
0
LINE
8
BLACK
6
CONTINUOUS
10
3.00472
20
-5.26772
11
2.96535
21
-5.26772
0
LINE
8
BLACK
6
CONTINUOUS
10
2.96535
20
-5.26772
11
2.96535
21
-5.20669
0
LINE
8
BLACK
6
CONTINUOUS
10
2.96535
20
-5.20669
11
3.00472
21
-5.20669
0
LINE
8
BLACK
6
CONTINUOUS
10
3.00472
20
-5.20669
11
3.00472
21
-5.26772
0
LINE
8
BLACK
6
CONTINUOUS
10
2.87874
20
-5.26772
11
2.83937
21
-5.26772
0
LINE
8
BLACK
6
CONTINUOUS
10
2.83937
20
-5.26772
11
2.83937
21
-5.20669
0
LINE
8
BLACK
6
CONTINUOUS
10
2.83937
20
-5.20669
11
2.87874
21
-5.20669
0
LINE
8
BLACK
6
CONTINUOUS
10
2.87874
20
-5.20669
11
2.87874
21
-5.26772
0
LINE
8
BLACK
6
CONTINUOUS
10
2.32559
20
-5.26772
11
2.28622
21
-5.26772
0
LINE
8
BLACK
6
CONTINUOUS
10
2.28622
20
-5.26772
11
2.28622
21
-5.20669
0
LINE
8
BLACK
6
CONTINUOUS
10
2.28622
20
-5.20669
11
2.32559
21
-5.20669
0
LINE
8
BLACK
6
CONTINUOUS
10
2.32559
20
-5.20669
11
2.32559
21
-5.26772
0
LINE
8
BLACK
6
CONTINUOUS
10
4.01299
20
-5.26772
11
3.97362
21
-5.26772
0
LINE
8
BLACK
6
CONTINUOUS
10
3.97362
20
-5.26772
11
3.97362
21
-5.20669
0
LINE
8
BLACK
6
CONTINUOUS
10
3.97362
20
-5.20669
11
4.01299
21
-5.20669
0
LINE
8
BLACK
6
CONTINUOUS
10
4.01299
20
-5.20669
11
4.01299
21
-5.26772
0
LINE
8
BLACK
6
CONTINUOUS
10
3.78543
20
-5.26772
11
3.74606
21
-5.26772
0
LINE
8
BLACK
6
CONTINUOUS
10
3.74606
20
-5.26772
11
3.74606
21
-5.20669
0
LINE
8
BLACK
6
CONTINUOUS
10
3.74606
20
-5.20669
11
3.78543
21
-5.20669
0
LINE
8
BLACK
6
CONTINUOUS
10
3.78543
20
-5.20669
11
3.78543
21
-5.26772
0
LINE
8
BLACK
6
CONTINUOUS
10
4.41339
20
-5.26772
11
4.37402
21
-5.26772
0
LINE
8
BLACK
6
CONTINUOUS
10
4.37402
20
-5.26772
11
4.37402
21
-5.20669
0
LINE
8
BLACK
6
CONTINUOUS
10
4.37402
20
-5.20669
11
4.41339
21
-5.20669
0
LINE
8
BLACK
6
CONTINUOUS
10
4.41339
20
-5.20669
11
4.41339
21
-5.26772
0
LINE
8
BLACK
6
CONTINUOUS
10
1.97441
20
-5.26772
11
1.93504
21
-5.26772
0
LINE
8
BLACK
6
CONTINUOUS
10
1.93504
20
-5.26772
11
1.93504
21
-5.20669
0
LINE
8
BLACK
6
CONTINUOUS
10
1.93504
20
-5.20669
11
1.97441
21
-5.20669
0
LINE
8
BLACK
6
CONTINUOUS
10
1.97441
20
-5.20669
11
1.97441
21
-5.26772
0
LINE
8
BLACK
6
CONTINUOUS
10
4.13898
20
-5.26772
11
4.09961
21
-5.26772
0
LINE
8
BLACK
6
CONTINUOUS
10
4.09961
20
-5.26772
11
4.09961
21
-5.20669
0
LINE
8
BLACK
6
CONTINUOUS
10
4.09961
20
-5.20669
11
4.13898
21
-5.20669
0
LINE
8
BLACK
6
CONTINUOUS
10
4.13898
20
-5.20669
11
4.13898
21
-5.26772
0
LINE
8
BLACK
6
CONTINUOUS
10
3.91142
20
-5.26772
11
3.87205
21
-5.26772
0
LINE
8
BLACK
6
CONTINUOUS
10
3.87205
20
-5.26772
11
3.87205
21
-5.20669
0
LINE
8
BLACK
6
CONTINUOUS
10
3.87205
20
-5.20669
11
3.91142
21
-5.20669
0
LINE
8
BLACK
6
CONTINUOUS
10
3.91142
20
-5.20669
11
3.91142
21
-5.26772
0
LINE
8
BLACK
6
CONTINUOUS
10
4.2874
20
-5.26772
11
4.24803
21
-5.26772
0
LINE
8
BLACK
6
CONTINUOUS
10
4.24803
20
-5.26772
11
4.24803
21
-5.20669
0
LINE
8
BLACK
6
CONTINUOUS
10
4.24803
20
-5.20669
11
4.2874
21
-5.20669
0
LINE
8
BLACK
6
CONTINUOUS
10
4.2874
20
-5.20669
11
4.2874
21
-5.26772
0
LINE
8
BLACK
6
CONTINUOUS
10
2.55315
20
-5.26772
11
2.51378
21
-5.26772
0
LINE
8
BLACK
6
CONTINUOUS
10
2.51378
20
-5.26772
11
2.51378
21
-5.20669
0
LINE
8
BLACK
6
CONTINUOUS
10
2.51378
20
-5.20669
11
2.55315
21
-5.20669
0
LINE
8
BLACK
6
CONTINUOUS
10
2.55315
20
-5.20669
11
2.55315
21
-5.26772
0
LINE
8
BLACK
6
CONTINUOUS
10
3.33386
20
-5.26772
11
3.29449
21
-5.26772
0
LINE
8
BLACK
6
CONTINUOUS
10
3.29449
20
-5.26772
11
3.29449
21
-5.20669
0
LINE
8
BLACK
6
CONTINUOUS
10
3.29449
20
-5.20669
11
3.33386
21
-5.20669
0
LINE
8
BLACK
6
CONTINUOUS
10
3.33386
20
-5.20669
11
3.33386
21
-5.26772
0
LINE
8
BLACK
6
CONTINUOUS
10
2.65472
20
-5.26772
11
2.61535
21
-5.26772
0
LINE
8
BLACK
6
CONTINUOUS
10
2.61535
20
-5.26772
11
2.61535
21
-5.20669
0
LINE
8
BLACK
6
CONTINUOUS
10
2.61535
20
-5.20669
11
2.65472
21
-5.20669
0
LINE
8
BLACK
6
CONTINUOUS
10
2.65472
20
-5.20669
11
2.65472
21
-5.26772
0
LINE
8
BLACK
6
CONTINUOUS
10
3.45984
20
-5.26772
11
3.42047
21
-5.26772
0
LINE
8
BLACK
6
CONTINUOUS
10
3.42047
20
-5.26772
11
3.42047
21
-5.20669
0
LINE
8
BLACK
6
CONTINUOUS
10
3.42047
20
-5.20669
11
3.45984
21
-5.20669
0
LINE
8
BLACK
6
CONTINUOUS
10
3.45984
20
-5.20669
11
3.45984
21
-5.26772
0
LINE
8
BLACK
6
CONTINUOUS
10
4.69882
20
-5.26772
11
4.65945
21
-5.26772
0
LINE
8
BLACK
6
CONTINUOUS
10
4.65945
20
-5.26772
11
4.65945
21
-5.20669
0
LINE
8
BLACK
6
CONTINUOUS
10
4.65945
20
-5.20669
11
4.69882
21
-5.20669
0
LINE
8
BLACK
6
CONTINUOUS
10
4.69882
20
-5.20669
11
4.69882
21
-5.26772
0
LINE
8
BLACK
6
CONTINUOUS
10
3.55787
20
-5.26772
11
3.5185
21
-5.26772
0
LINE
8
BLACK
6
CONTINUOUS
10
3.5185
20
-5.26772
11
3.5185
21
-5.20669
0
LINE
8
BLACK
6
CONTINUOUS
10
3.5185
20
-5.20669
11
3.55787
21
-5.20669
0
LINE
8
BLACK
6
CONTINUOUS
10
3.55787
20
-5.20669
11
3.55787
21
-5.26772
0
LINE
8
BLACK
6
CONTINUOUS
10
4.57283
20
-5.26772
11
4.53346
21
-5.26772
0
LINE
8
BLACK
6
CONTINUOUS
10
4.53346
20
-5.26772
11
4.53346
21
-5.20669
0
LINE
8
BLACK
6
CONTINUOUS
10
4.53346
20
-5.20669
11
4.57283
21
-5.20669
0
LINE
8
BLACK
6
CONTINUOUS
10
4.57283
20
-5.20669
11
4.57283
21
-5.26772
0
LINE
8
BLACK
6
CONTINUOUS
10
2.42717
20
-5.26772
11
2.3878
21
-5.26772
0
LINE
8
BLACK
6
CONTINUOUS
10
2.3878
20
-5.26772
11
2.3878
21
-5.20669
0
LINE
8
BLACK
6
CONTINUOUS
10
2.3878
20
-5.20669
11
2.42717
21
-5.20669
0
LINE
8
BLACK
6
CONTINUOUS
10
2.42717
20
-5.20669
11
2.42717
21
-5.26772
0
LINE
8
BLACK
6
CONTINUOUS
10
2.78071
20
-5.26772
11
2.74134
21
-5.26772
0
LINE
8
BLACK
6
CONTINUOUS
10
2.74134
20
-5.26772
11
2.74134
21
-5.20669
0
LINE
8
BLACK
6
CONTINUOUS
10
2.74134
20
-5.20669
11
2.78071
21
-5.20669
0
LINE
8
BLACK
6
CONTINUOUS
10
2.78071
20
-5.20669
11
2.78071
21
-5.26772
0
LINE
8
BLACK
6
CONTINUOUS
10
2.10039
20
-5.26772
11
2.06102
21
-5.26772
0
LINE
8
BLACK
6
CONTINUOUS
10
2.06102
20
-5.26772
11
2.06102
21
-5.20669
0
LINE
8
BLACK
6
CONTINUOUS
10
2.06102
20
-5.20669
11
2.10039
21
-5.20669
0
LINE
8
BLACK
6
CONTINUOUS
10
2.10039
20
-5.20669
11
2.10039
21
-5.26772
0
LINE
8
BLACK
6
CONTINUOUS
10
1.58858
20
-5.06102
11
1.54921
21
-5.06102
0
LINE
8
BLACK
6
CONTINUOUS
10
1.54921
20
-5.06102
11
1.54921
21
-5
0
LINE
8
BLACK
6
CONTINUOUS
10
1.54921
20
-5
11
1.58858
21
-5
0
LINE
8
BLACK
6
CONTINUOUS
10
1.58858
20
-5
11
1.58858
21
-5.06102
0
LINE
8
BLACK
6
CONTINUOUS
10
1.4626
20
-5.06102
11
1.42323
21
-5.06102
0
LINE
8
BLACK
6
CONTINUOUS
10
1.42323
20
-5.06102
11
1.42323
21
-5
0
LINE
8
BLACK
6
CONTINUOUS
10
1.42323
20
-5
11
1.4626
21
-5
0
LINE
8
BLACK
6
CONTINUOUS
10
1.4626
20
-5
11
1.4626
21
-5.06102
0
LINE
8
BLACK
6
CONTINUOUS
10
5.36811
20
-5.06102
11
5.32874
21
-5.06102
0
LINE
8
BLACK
6
CONTINUOUS
10
5.32874
20
-5.06102
11
5.32874
21
-5
0
LINE
8
BLACK
6
CONTINUOUS
10
5.32874
20
-5
11
5.36811
21
-5
0
LINE
8
BLACK
6
CONTINUOUS
10
5.36811
20
-5
11
5.36811
21
-5.06102
0
LINE
8
BLACK
6
CONTINUOUS
10
5.24213
20
-5.06102
11
5.20276
21
-5.06102
0
LINE
8
BLACK
6
CONTINUOUS
10
5.20276
20
-5.06102
11
5.20276
21
-5
0
LINE
8
BLACK
6
CONTINUOUS
10
5.20276
20
-5
11
5.24213
21
-5
0
LINE
8
BLACK
6
CONTINUOUS
10
5.24213
20
-5
11
5.24213
21
-5.06102
0
LINE
8
BLACK
6
CONTINUOUS
10
4.80906
20
-5.06102
11
4.76969
21
-5.06102
0
LINE
8
BLACK
6
CONTINUOUS
10
4.76969
20
-5.06102
11
4.76969
21
-5
0
LINE
8
BLACK
6
CONTINUOUS
10
4.76969
20
-5
11
4.80906
21
-5
0
LINE
8
BLACK
6
CONTINUOUS
10
4.80906
20
-5
11
4.80906
21
-5.06102
0
LINE
8
BLACK
6
CONTINUOUS
10
3.23228
20
-5.06102
11
3.19291
21
-5.06102
0
LINE
8
BLACK
6
CONTINUOUS
10
3.19291
20
-5.06102
11
3.19291
21
-5
0
LINE
8
BLACK
6
CONTINUOUS
10
3.19291
20
-5
11
3.23228
21
-5
0
LINE
8
BLACK
6
CONTINUOUS
10
3.23228
20
-5
11
3.23228
21
-5.06102
0
LINE
8
BLACK
6
CONTINUOUS
10
3.00472
20
-5.06102
11
2.96535
21
-5.06102
0
LINE
8
BLACK
6
CONTINUOUS
10
2.96535
20
-5.06102
11
2.96535
21
-5
0
LINE
8
BLACK
6
CONTINUOUS
10
2.96535
20
-5
11
3.00472
21
-5
0
LINE
8
BLACK
6
CONTINUOUS
10
3.00472
20
-5
11
3.00472
21
-5.06102
0
LINE
8
BLACK
6
CONTINUOUS
10
2.87874
20
-5.06102
11
2.83937
21
-5.06102
0
LINE
8
BLACK
6
CONTINUOUS
10
2.83937
20
-5.06102
11
2.83937
21
-5
0
LINE
8
BLACK
6
CONTINUOUS
10
2.83937
20
-5
11
2.87874
21
-5
0
LINE
8
BLACK
6
CONTINUOUS
10
2.87874
20
-5
11
2.87874
21
-5.06102
0
LINE
8
BLACK
6
CONTINUOUS
10
3.1063
20
-5.06102
11
3.06693
21
-5.06102
0
LINE
8
BLACK
6
CONTINUOUS
10
3.06693
20
-5.06102
11
3.06693
21
-5
0
LINE
8
BLACK
6
CONTINUOUS
10
3.06693
20
-5
11
3.1063
21
-5
0
LINE
8
BLACK
6
CONTINUOUS
10
3.1063
20
-5
11
3.1063
21
-5.06102
0
LINE
8
BLACK
6
CONTINUOUS
10
4.01299
20
-5.06102
11
3.97362
21
-5.06102
0
LINE
8
BLACK
6
CONTINUOUS
10
3.97362
20
-5.06102
11
3.97362
21
-5
0
LINE
8
BLACK
6
CONTINUOUS
10
3.97362
20
-5
11
4.01299
21
-5
0
LINE
8
BLACK
6
CONTINUOUS
10
4.01299
20
-5
11
4.01299
21
-5.06102
0
LINE
8
BLACK
6
CONTINUOUS
10
1.7185
20
-5.06102
11
1.67913
21
-5.06102
0
LINE
8
BLACK
6
CONTINUOUS
10
1.67913
20
-5.06102
11
1.67913
21
-5
0
LINE
8
BLACK
6
CONTINUOUS
10
1.67913
20
-5
11
1.7185
21
-5
0
LINE
8
BLACK
6
CONTINUOUS
10
1.7185
20
-5
11
1.7185
21
-5.06102
0
LINE
8
BLACK
6
CONTINUOUS
10
4.13898
20
-5.06102
11
4.09961
21
-5.06102
0
LINE
8
BLACK
6
CONTINUOUS
10
4.09961
20
-5.06102
11
4.09961
21
-5
0
LINE
8
BLACK
6
CONTINUOUS
10
4.09961
20
-5
11
4.13898
21
-5
0
LINE
8
BLACK
6
CONTINUOUS
10
4.13898
20
-5
11
4.13898
21
-5.06102
0
LINE
8
BLACK
6
CONTINUOUS
10
3.33386
20
-5.06102
11
3.29449
21
-5.06102
0
LINE
8
BLACK
6
CONTINUOUS
10
3.29449
20
-5.06102
11
3.29449
21
-5
0
LINE
8
BLACK
6
CONTINUOUS
10
3.29449
20
-5
11
3.33386
21
-5
0
LINE
8
BLACK
6
CONTINUOUS
10
3.33386
20
-5
11
3.33386
21
-5.06102
0
LINE
8
BLACK
6
CONTINUOUS
10
3.45984
20
-5.06102
11
3.42047
21
-5.06102
0
LINE
8
BLACK
6
CONTINUOUS
10
3.42047
20
-5.06102
11
3.42047
21
-5
0
LINE
8
BLACK
6
CONTINUOUS
10
3.42047
20
-5
11
3.45984
21
-5
0
LINE
8
BLACK
6
CONTINUOUS
10
3.45984
20
-5
11
3.45984
21
-5.06102
0
LINE
8
BLACK
6
CONTINUOUS
10
3.55787
20
-5.06102
11
3.5185
21
-5.06102
0
LINE
8
BLACK
6
CONTINUOUS
10
3.5185
20
-5.06102
11
3.5185
21
-5
0
LINE
8
BLACK
6
CONTINUOUS
10
3.5185
20
-5
11
3.55787
21
-5
0
LINE
8
BLACK
6
CONTINUOUS
10
3.55787
20
-5
11
3.55787
21
-5.06102
0
LINE
8
BLACK
6
CONTINUOUS
10
4.57283
20
-5.06102
11
4.53346
21
-5.06102
0
LINE
8
BLACK
6
CONTINUOUS
10
4.53346
20
-5.06102
11
4.53346
21
-5
0
LINE
8
BLACK
6
CONTINUOUS
10
4.53346
20
-5
11
4.57283
21
-5
0
LINE
8
BLACK
6
CONTINUOUS
10
4.57283
20
-5
11
4.57283
21
-5.06102
0
LINE
8
BLACK
6
CONTINUOUS
10
1.84449
20
-5.06102
11
1.80512
21
-5.06102
0
LINE
8
BLACK
6
CONTINUOUS
10
1.80512
20
-5.06102
11
1.80512
21
-5
0
LINE
8
BLACK
6
CONTINUOUS
10
1.80512
20
-5
11
1.84449
21
-5
0
LINE
8
BLACK
6
CONTINUOUS
10
1.84449
20
-5
11
1.84449
21
-5.06102
0
LINE
8
BLACK
6
CONTINUOUS
10
1.97441
20
-5.06102
11
1.93504
21
-5.06102
0
LINE
8
BLACK
6
CONTINUOUS
10
1.93504
20
-5.06102
11
1.93504
21
-5
0
LINE
8
BLACK
6
CONTINUOUS
10
1.93504
20
-5
11
1.97441
21
-5
0
LINE
8
BLACK
6
CONTINUOUS
10
1.97441
20
-5
11
1.97441
21
-5.06102
0
LINE
8
BLACK
6
CONTINUOUS
10
4.2874
20
-5.06102
11
4.24803
21
-5.06102
0
LINE
8
BLACK
6
CONTINUOUS
10
4.24803
20
-5.06102
11
4.24803
21
-5
0
LINE
8
BLACK
6
CONTINUOUS
10
4.24803
20
-5
11
4.2874
21
-5
0
LINE
8
BLACK
6
CONTINUOUS
10
4.2874
20
-5
11
4.2874
21
-5.06102
0
LINE
8
BLACK
6
CONTINUOUS
10
2.10039
20
-5.06102
11
2.06102
21
-5.06102
0
LINE
8
BLACK
6
CONTINUOUS
10
2.06102
20
-5.06102
11
2.06102
21
-5
0
LINE
8
BLACK
6
CONTINUOUS
10
2.06102
20
-5
11
2.10039
21
-5
0
LINE
8
BLACK
6
CONTINUOUS
10
2.10039
20
-5
11
2.10039
21
-5.06102
0
LINE
8
BLACK
6
CONTINUOUS
10
3.78543
20
-5.06102
11
3.74606
21
-5.06102
0
LINE
8
BLACK
6
CONTINUOUS
10
3.74606
20
-5.06102
11
3.74606
21
-5
0
LINE
8
BLACK
6
CONTINUOUS
10
3.74606
20
-5
11
3.78543
21
-5
0
LINE
8
BLACK
6
CONTINUOUS
10
3.78543
20
-5
11
3.78543
21
-5.06102
0
LINE
8
BLACK
6
CONTINUOUS
10
4.41339
20
-5.06102
11
4.37402
21
-5.06102
0
LINE
8
BLACK
6
CONTINUOUS
10
4.37402
20
-5.06102
11
4.37402
21
-5
0
LINE
8
BLACK
6
CONTINUOUS
10
4.37402
20
-5
11
4.41339
21
-5
0
LINE
8
BLACK
6
CONTINUOUS
10
4.41339
20
-5
11
4.41339
21
-5.06102
0
LINE
8
BLACK
6
CONTINUOUS
10
2.42717
20
-5.06102
11
2.3878
21
-5.06102
0
LINE
8
BLACK
6
CONTINUOUS
10
2.3878
20
-5.06102
11
2.3878
21
-5
0
LINE
8
BLACK
6
CONTINUOUS
10
2.3878
20
-5
11
2.42717
21
-5
0
LINE
8
BLACK
6
CONTINUOUS
10
2.42717
20
-5
11
2.42717
21
-5.06102
0
LINE
8
BLACK
6
CONTINUOUS
10
2.32559
20
-5.06102
11
2.28622
21
-5.06102
0
LINE
8
BLACK
6
CONTINUOUS
10
2.28622
20
-5.06102
11
2.28622
21
-5
0
LINE
8
BLACK
6
CONTINUOUS
10
2.28622
20
-5
11
2.32559
21
-5
0
LINE
8
BLACK
6
CONTINUOUS
10
2.32559
20
-5
11
2.32559
21
-5.06102
0
LINE
8
BLACK
6
CONTINUOUS
10
2.55315
20
-5.06102
11
2.51378
21
-5.06102
0
LINE
8
BLACK
6
CONTINUOUS
10
2.51378
20
-5.06102
11
2.51378
21
-5
0
LINE
8
BLACK
6
CONTINUOUS
10
2.51378
20
-5
11
2.55315
21
-5
0
LINE
8
BLACK
6
CONTINUOUS
10
2.55315
20
-5
11
2.55315
21
-5.06102
0
LINE
8
BLACK
6
CONTINUOUS
10
3.91142
20
-5.06102
11
3.87205
21
-5.06102
0
LINE
8
BLACK
6
CONTINUOUS
10
3.87205
20
-5.06102
11
3.87205
21
-5
0
LINE
8
BLACK
6
CONTINUOUS
10
3.87205
20
-5
11
3.91142
21
-5
0
LINE
8
BLACK
6
CONTINUOUS
10
3.91142
20
-5
11
3.91142
21
-5.06102
0
LINE
8
BLACK
6
CONTINUOUS
10
3.68386
20
-5.06102
11
3.64449
21
-5.06102
0
LINE
8
BLACK
6
CONTINUOUS
10
3.64449
20
-5.06102
11
3.64449
21
-5
0
LINE
8
BLACK
6
CONTINUOUS
10
3.64449
20
-5
11
3.68386
21
-5
0
LINE
8
BLACK
6
CONTINUOUS
10
3.68386
20
-5
11
3.68386
21
-5.06102
0
LINE
8
BLACK
6
CONTINUOUS
10
2.19961
20
-5.06102
11
2.16024
21
-5.06102
0
LINE
8
BLACK
6
CONTINUOUS
10
2.16024
20
-5.06102
11
2.16024
21
-5
0
LINE
8
BLACK
6
CONTINUOUS
10
2.16024
20
-5
11
2.19961
21
-5
0
LINE
8
BLACK
6
CONTINUOUS
10
2.19961
20
-5
11
2.19961
21
-5.06102
0
LINE
8
BLACK
6
CONTINUOUS
10
4.69882
20
-5.06102
11
4.65945
21
-5.06102
0
LINE
8
BLACK
6
CONTINUOUS
10
4.65945
20
-5.06102
11
4.65945
21
-5
0
LINE
8
BLACK
6
CONTINUOUS
10
4.65945
20
-5
11
4.69882
21
-5
0
LINE
8
BLACK
6
CONTINUOUS
10
4.69882
20
-5
11
4.69882
21
-5.06102
0
LINE
8
BLACK
6
CONTINUOUS
10
2.65472
20
-5.06102
11
2.61535
21
-5.06102
0
LINE
8
BLACK
6
CONTINUOUS
10
2.61535
20
-5.06102
11
2.61535
21
-5
0
LINE
8
BLACK
6
CONTINUOUS
10
2.61535
20
-5
11
2.65472
21
-5
0
LINE
8
BLACK
6
CONTINUOUS
10
2.65472
20
-5
11
2.65472
21
-5.06102
0
LINE
8
BLACK
6
CONTINUOUS
10
2.78071
20
-5.06102
11
2.74134
21
-5.06102
0
LINE
8
BLACK
6
CONTINUOUS
10
2.74134
20
-5.06102
11
2.74134
21
-5
0
LINE
8
BLACK
6
CONTINUOUS
10
2.74134
20
-5
11
2.78071
21
-5
0
LINE
8
BLACK
6
CONTINUOUS
10
2.78071
20
-5
11
2.78071
21
-5.06102
0
LINE
8
BLACK
6
CONTINUOUS
10
4.93504
20
-5.06102
11
4.89567
21
-5.06102
0
LINE
8
BLACK
6
CONTINUOUS
10
4.89567
20
-5.06102
11
4.89567
21
-5
0
LINE
8
BLACK
6
CONTINUOUS
10
4.89567
20
-5
11
4.93504
21
-5
0
LINE
8
BLACK
6
CONTINUOUS
10
4.93504
20
-5
11
4.93504
21
-5.06102
0
LINE
8
BLACK
6
CONTINUOUS
10
4.24685
20
-4.9626
11
4.20748
21
-4.9626
0
LINE
8
BLACK
6
CONTINUOUS
10
4.20748
20
-4.9626
11
4.20748
21
-4.90157
0
LINE
8
BLACK
6
CONTINUOUS
10
4.20748
20
-4.90157
11
4.24685
21
-4.90157
0
LINE
8
BLACK
6
CONTINUOUS
10
4.24685
20
-4.90157
11
4.24685
21
-4.9626
0
LINE
8
BLACK
6
CONTINUOUS
10
2.8937
20
-4.9626
11
2.85433
21
-4.9626
0
LINE
8
BLACK
6
CONTINUOUS
10
2.85433
20
-4.9626
11
2.85433
21
-4.90157
0
LINE
8
BLACK
6
CONTINUOUS
10
2.85433
20
-4.90157
11
2.8937
21
-4.90157
0
LINE
8
BLACK
6
CONTINUOUS
10
2.8937
20
-4.90157
11
2.8937
21
-4.9626
0
LINE
8
BLACK
6
CONTINUOUS
10
2.76772
20
-4.9626
11
2.72835
21
-4.9626
0
LINE
8
BLACK
6
CONTINUOUS
10
2.72835
20
-4.9626
11
2.72835
21
-4.90157
0
LINE
8
BLACK
6
CONTINUOUS
10
2.72835
20
-4.90157
11
2.76772
21
-4.90157
0
LINE
8
BLACK
6
CONTINUOUS
10
2.76772
20
-4.90157
11
2.76772
21
-4.9626
0
LINE
8
BLACK
6
CONTINUOUS
10
2.99528
20
-4.9626
11
2.95591
21
-4.9626
0
LINE
8
BLACK
6
CONTINUOUS
10
2.95591
20
-4.9626
11
2.95591
21
-4.90157
0
LINE
8
BLACK
6
CONTINUOUS
10
2.95591
20
-4.90157
11
2.99528
21
-4.90157
0
LINE
8
BLACK
6
CONTINUOUS
10
2.99528
20
-4.90157
11
2.99528
21
-4.9626
0
LINE
8
BLACK
6
CONTINUOUS
10
3.12126
20
-4.9626
11
3.08189
21
-4.9626
0
LINE
8
BLACK
6
CONTINUOUS
10
3.08189
20
-4.9626
11
3.08189
21
-4.90157
0
LINE
8
BLACK
6
CONTINUOUS
10
3.08189
20
-4.90157
11
3.12126
21
-4.90157
0
LINE
8
BLACK
6
CONTINUOUS
10
3.12126
20
-4.90157
11
3.12126
21
-4.9626
0
LINE
8
BLACK
6
CONTINUOUS
10
1.86378
20
-4.9626
11
1.82441
21
-4.9626
0
LINE
8
BLACK
6
CONTINUOUS
10
1.82441
20
-4.9626
11
1.82441
21
-4.90157
0
LINE
8
BLACK
6
CONTINUOUS
10
1.82441
20
-4.90157
11
1.86378
21
-4.90157
0
LINE
8
BLACK
6
CONTINUOUS
10
1.86378
20
-4.90157
11
1.86378
21
-4.9626
0
LINE
8
BLACK
6
CONTINUOUS
10
3.79803
20
-4.9626
11
3.75866
21
-4.9626
0
LINE
8
BLACK
6
CONTINUOUS
10
3.75866
20
-4.9626
11
3.75866
21
-4.90157
0
LINE
8
BLACK
6
CONTINUOUS
10
3.75866
20
-4.90157
11
3.79803
21
-4.90157
0
LINE
8
BLACK
6
CONTINUOUS
10
3.79803
20
-4.90157
11
3.79803
21
-4.9626
0
LINE
8
BLACK
6
CONTINUOUS
10
3.67205
20
-4.9626
11
3.63268
21
-4.9626
0
LINE
8
BLACK
6
CONTINUOUS
10
3.63268
20
-4.9626
11
3.63268
21
-4.90157
0
LINE
8
BLACK
6
CONTINUOUS
10
3.63268
20
-4.90157
11
3.67205
21
-4.90157
0
LINE
8
BLACK
6
CONTINUOUS
10
3.67205
20
-4.90157
11
3.67205
21
-4.9626
0
LINE
8
BLACK
6
CONTINUOUS
10
3.57047
20
-4.9626
11
3.5311
21
-4.9626
0
LINE
8
BLACK
6
CONTINUOUS
10
3.5311
20
-4.9626
11
3.5311
21
-4.90157
0
LINE
8
BLACK
6
CONTINUOUS
10
3.5311
20
-4.90157
11
3.57047
21
-4.90157
0
LINE
8
BLACK
6
CONTINUOUS
10
3.57047
20
-4.90157
11
3.57047
21
-4.9626
0
LINE
8
BLACK
6
CONTINUOUS
10
3.44449
20
-4.9626
11
3.40512
21
-4.9626
0
LINE
8
BLACK
6
CONTINUOUS
10
3.40512
20
-4.9626
11
3.40512
21
-4.90157
0
LINE
8
BLACK
6
CONTINUOUS
10
3.40512
20
-4.90157
11
3.44449
21
-4.90157
0
LINE
8
BLACK
6
CONTINUOUS
10
3.44449
20
-4.90157
11
3.44449
21
-4.9626
0
LINE
8
BLACK
6
CONTINUOUS
10
4.70079
20
-4.9626
11
4.66142
21
-4.9626
0
LINE
8
BLACK
6
CONTINUOUS
10
4.66142
20
-4.9626
11
4.66142
21
-4.90157
0
LINE
8
BLACK
6
CONTINUOUS
10
4.66142
20
-4.90157
11
4.70079
21
-4.90157
0
LINE
8
BLACK
6
CONTINUOUS
10
4.70079
20
-4.90157
11
4.70079
21
-4.9626
0
LINE
8
BLACK
6
CONTINUOUS
10
4.82677
20
-4.9626
11
4.7874
21
-4.9626
0
LINE
8
BLACK
6
CONTINUOUS
10
4.7874
20
-4.9626
11
4.7874
21
-4.90157
0
LINE
8
BLACK
6
CONTINUOUS
10
4.7874
20
-4.90157
11
4.82677
21
-4.90157
0
LINE
8
BLACK
6
CONTINUOUS
10
4.82677
20
-4.90157
11
4.82677
21
-4.9626
0
LINE
8
BLACK
6
CONTINUOUS
10
1.98976
20
-4.9626
11
1.95039
21
-4.9626
0
LINE
8
BLACK
6
CONTINUOUS
10
1.95039
20
-4.9626
11
1.95039
21
-4.90157
0
LINE
8
BLACK
6
CONTINUOUS
10
1.95039
20
-4.90157
11
1.98976
21
-4.90157
0
LINE
8
BLACK
6
CONTINUOUS
10
1.98976
20
-4.90157
11
1.98976
21
-4.9626
0
LINE
8
BLACK
6
CONTINUOUS
10
5.24213
20
-4.9626
11
5.20276
21
-4.9626
0
LINE
8
BLACK
6
CONTINUOUS
10
5.20276
20
-4.9626
11
5.20276
21
-4.90157
0
LINE
8
BLACK
6
CONTINUOUS
10
5.20276
20
-4.90157
11
5.24213
21
-4.90157
0
LINE
8
BLACK
6
CONTINUOUS
10
5.24213
20
-4.90157
11
5.24213
21
-4.9626
0
LINE
8
BLACK
6
CONTINUOUS
10
1.4626
20
-4.9626
11
1.42323
21
-4.9626
0
LINE
8
BLACK
6
CONTINUOUS
10
1.42323
20
-4.9626
11
1.42323
21
-4.90157
0
LINE
8
BLACK
6
CONTINUOUS
10
1.42323
20
-4.90157
11
1.4626
21
-4.90157
0
LINE
8
BLACK
6
CONTINUOUS
10
1.4626
20
-4.90157
11
1.4626
21
-4.9626
0
LINE
8
BLACK
6
CONTINUOUS
10
1.58858
20
-4.9626
11
1.54921
21
-4.9626
0
LINE
8
BLACK
6
CONTINUOUS
10
1.54921
20
-4.9626
11
1.54921
21
-4.90157
0
LINE
8
BLACK
6
CONTINUOUS
10
1.54921
20
-4.90157
11
1.58858
21
-4.90157
0
LINE
8
BLACK
6
CONTINUOUS
10
1.58858
20
-4.90157
11
1.58858
21
-4.9626
0
LINE
8
BLACK
6
CONTINUOUS
10
4.34843
20
-4.9626
11
4.30906
21
-4.9626
0
LINE
8
BLACK
6
CONTINUOUS
10
4.30906
20
-4.9626
11
4.30906
21
-4.90157
0
LINE
8
BLACK
6
CONTINUOUS
10
4.30906
20
-4.90157
11
4.34843
21
-4.90157
0
LINE
8
BLACK
6
CONTINUOUS
10
4.34843
20
-4.90157
11
4.34843
21
-4.9626
0
LINE
8
BLACK
6
CONTINUOUS
10
4.47441
20
-4.9626
11
4.43504
21
-4.9626
0
LINE
8
BLACK
6
CONTINUOUS
10
4.43504
20
-4.9626
11
4.43504
21
-4.90157
0
LINE
8
BLACK
6
CONTINUOUS
10
4.43504
20
-4.90157
11
4.47441
21
-4.90157
0
LINE
8
BLACK
6
CONTINUOUS
10
4.47441
20
-4.90157
11
4.47441
21
-4.9626
0
LINE
8
BLACK
6
CONTINUOUS
10
3.89331
20
-4.9626
11
3.85394
21
-4.9626
0
LINE
8
BLACK
6
CONTINUOUS
10
3.85394
20
-4.9626
11
3.85394
21
-4.90157
0
LINE
8
BLACK
6
CONTINUOUS
10
3.85394
20
-4.90157
11
3.89331
21
-4.90157
0
LINE
8
BLACK
6
CONTINUOUS
10
3.89331
20
-4.90157
11
3.89331
21
-4.9626
0
LINE
8
BLACK
6
CONTINUOUS
10
4.01929
20
-4.9626
11
3.97992
21
-4.9626
0
LINE
8
BLACK
6
CONTINUOUS
10
3.97992
20
-4.9626
11
3.97992
21
-4.90157
0
LINE
8
BLACK
6
CONTINUOUS
10
3.97992
20
-4.90157
11
4.01929
21
-4.90157
0
LINE
8
BLACK
6
CONTINUOUS
10
4.01929
20
-4.90157
11
4.01929
21
-4.9626
0
LINE
8
BLACK
6
CONTINUOUS
10
2.09134
20
-4.9626
11
2.05197
21
-4.9626
0
LINE
8
BLACK
6
CONTINUOUS
10
2.05197
20
-4.9626
11
2.05197
21
-4.90157
0
LINE
8
BLACK
6
CONTINUOUS
10
2.05197
20
-4.90157
11
2.09134
21
-4.90157
0
LINE
8
BLACK
6
CONTINUOUS
10
2.09134
20
-4.90157
11
2.09134
21
-4.9626
0
LINE
8
BLACK
6
CONTINUOUS
10
5.36811
20
-4.9626
11
5.32874
21
-4.9626
0
LINE
8
BLACK
6
CONTINUOUS
10
5.32874
20
-4.9626
11
5.32874
21
-4.90157
0
LINE
8
BLACK
6
CONTINUOUS
10
5.32874
20
-4.90157
11
5.36811
21
-4.90157
0
LINE
8
BLACK
6
CONTINUOUS
10
5.36811
20
-4.90157
11
5.36811
21
-4.9626
0
LINE
8
BLACK
6
CONTINUOUS
10
2.21732
20
-4.9626
11
2.17795
21
-4.9626
0
LINE
8
BLACK
6
CONTINUOUS
10
2.17795
20
-4.9626
11
2.17795
21
-4.90157
0
LINE
8
BLACK
6
CONTINUOUS
10
2.17795
20
-4.90157
11
2.21732
21
-4.90157
0
LINE
8
BLACK
6
CONTINUOUS
10
2.21732
20
-4.90157
11
2.21732
21
-4.9626
0
LINE
8
BLACK
6
CONTINUOUS
10
2.3189
20
-4.9626
11
2.27953
21
-4.9626
0
LINE
8
BLACK
6
CONTINUOUS
10
2.27953
20
-4.9626
11
2.27953
21
-4.90157
0
LINE
8
BLACK
6
CONTINUOUS
10
2.27953
20
-4.90157
11
2.3189
21
-4.90157
0
LINE
8
BLACK
6
CONTINUOUS
10
2.3189
20
-4.90157
11
2.3189
21
-4.9626
0
LINE
8
BLACK
6
CONTINUOUS
10
2.44488
20
-4.9626
11
2.40551
21
-4.9626
0
LINE
8
BLACK
6
CONTINUOUS
10
2.40551
20
-4.9626
11
2.40551
21
-4.90157
0
LINE
8
BLACK
6
CONTINUOUS
10
2.40551
20
-4.90157
11
2.44488
21
-4.90157
0
LINE
8
BLACK
6
CONTINUOUS
10
2.44488
20
-4.90157
11
2.44488
21
-4.9626
0
LINE
8
BLACK
6
CONTINUOUS
10
2.54016
20
-4.9626
11
2.50079
21
-4.9626
0
LINE
8
BLACK
6
CONTINUOUS
10
2.50079
20
-4.9626
11
2.50079
21
-4.90157
0
LINE
8
BLACK
6
CONTINUOUS
10
2.50079
20
-4.90157
11
2.54016
21
-4.90157
0
LINE
8
BLACK
6
CONTINUOUS
10
2.54016
20
-4.90157
11
2.54016
21
-4.9626
0
LINE
8
BLACK
6
CONTINUOUS
10
2.66614
20
-4.9626
11
2.62677
21
-4.9626
0
LINE
8
BLACK
6
CONTINUOUS
10
2.62677
20
-4.9626
11
2.62677
21
-4.90157
0
LINE
8
BLACK
6
CONTINUOUS
10
2.62677
20
-4.90157
11
2.66614
21
-4.90157
0
LINE
8
BLACK
6
CONTINUOUS
10
2.66614
20
-4.90157
11
2.66614
21
-4.9626
0
LINE
8
BLACK
6
CONTINUOUS
10
3.21693
20
-4.9626
11
3.17756
21
-4.9626
0
LINE
8
BLACK
6
CONTINUOUS
10
3.17756
20
-4.9626
11
3.17756
21
-4.90157
0
LINE
8
BLACK
6
CONTINUOUS
10
3.17756
20
-4.90157
11
3.21693
21
-4.90157
0
LINE
8
BLACK
6
CONTINUOUS
10
3.21693
20
-4.90157
11
3.21693
21
-4.9626
0
LINE
8
BLACK
6
CONTINUOUS
10
3.34291
20
-4.9626
11
3.30354
21
-4.9626
0
LINE
8
BLACK
6
CONTINUOUS
10
3.30354
20
-4.9626
11
3.30354
21
-4.90157
0
LINE
8
BLACK
6
CONTINUOUS
10
3.30354
20
-4.90157
11
3.34291
21
-4.90157
0
LINE
8
BLACK
6
CONTINUOUS
10
3.34291
20
-4.90157
11
3.34291
21
-4.9626
0
LINE
8
BLACK
6
CONTINUOUS
10
4.12087
20
-4.9626
11
4.0815
21
-4.9626
0
LINE
8
BLACK
6
CONTINUOUS
10
4.0815
20
-4.9626
11
4.0815
21
-4.90157
0
LINE
8
BLACK
6
CONTINUOUS
10
4.0815
20
-4.90157
11
4.12087
21
-4.90157
0
LINE
8
BLACK
6
CONTINUOUS
10
4.12087
20
-4.90157
11
4.12087
21
-4.9626
0
LINE
8
BLACK
6
CONTINUOUS
10
3.79803
20
-4.75591
11
3.75866
21
-4.75591
0
LINE
8
BLACK
6
CONTINUOUS
10
3.75866
20
-4.75591
11
3.75866
21
-4.69488
0
LINE
8
BLACK
6
CONTINUOUS
10
3.75866
20
-4.69488
11
3.79803
21
-4.69488
0
LINE
8
BLACK
6
CONTINUOUS
10
3.79803
20
-4.69488
11
3.79803
21
-4.75591
0
LINE
8
BLACK
6
CONTINUOUS
10
4.47441
20
-4.75591
11
4.43504
21
-4.75591
0
LINE
8
BLACK
6
CONTINUOUS
10
4.43504
20
-4.75591
11
4.43504
21
-4.69488
0
LINE
8
BLACK
6
CONTINUOUS
10
4.43504
20
-4.69488
11
4.47441
21
-4.69488
0
LINE
8
BLACK
6
CONTINUOUS
10
4.47441
20
-4.69488
11
4.47441
21
-4.75591
0
LINE
8
BLACK
6
CONTINUOUS
10
4.12087
20
-4.75591
11
4.0815
21
-4.75591
0
LINE
8
BLACK
6
CONTINUOUS
10
4.0815
20
-4.75591
11
4.0815
21
-4.69488
0
LINE
8
BLACK
6
CONTINUOUS
10
4.0815
20
-4.69488
11
4.12087
21
-4.69488
0
LINE
8
BLACK
6
CONTINUOUS
10
4.12087
20
-4.69488
11
4.12087
21
-4.75591
0
LINE
8
BLACK
6
CONTINUOUS
10
3.57047
20
-4.75591
11
3.5311
21
-4.75591
0
LINE
8
BLACK
6
CONTINUOUS
10
3.5311
20
-4.75591
11
3.5311
21
-4.69488
0
LINE
8
BLACK
6
CONTINUOUS
10
3.5311
20
-4.69488
11
3.57047
21
-4.69488
0
LINE
8
BLACK
6
CONTINUOUS
10
3.57047
20
-4.69488
11
3.57047
21
-4.75591
0
LINE
8
BLACK
6
CONTINUOUS
10
4.24685
20
-4.75591
11
4.20748
21
-4.75591
0
LINE
8
BLACK
6
CONTINUOUS
10
4.20748
20
-4.75591
11
4.20748
21
-4.69488
0
LINE
8
BLACK
6
CONTINUOUS
10
4.20748
20
-4.69488
11
4.24685
21
-4.69488
0
LINE
8
BLACK
6
CONTINUOUS
10
4.24685
20
-4.69488
11
4.24685
21
-4.75591
0
LINE
8
BLACK
6
CONTINUOUS
10
3.67205
20
-4.75591
11
3.63268
21
-4.75591
0
LINE
8
BLACK
6
CONTINUOUS
10
3.63268
20
-4.75591
11
3.63268
21
-4.69488
0
LINE
8
BLACK
6
CONTINUOUS
10
3.63268
20
-4.69488
11
3.67205
21
-4.69488
0
LINE
8
BLACK
6
CONTINUOUS
10
3.67205
20
-4.69488
11
3.67205
21
-4.75591
0
LINE
8
BLACK
6
CONTINUOUS
10
5.24213
20
-4.75591
11
5.20276
21
-4.75591
0
LINE
8
BLACK
6
CONTINUOUS
10
5.20276
20
-4.75591
11
5.20276
21
-4.69488
0
LINE
8
BLACK
6
CONTINUOUS
10
5.20276
20
-4.69488
11
5.24213
21
-4.69488
0
LINE
8
BLACK
6
CONTINUOUS
10
5.24213
20
-4.69488
11
5.24213
21
-4.75591
0
LINE
8
BLACK
6
CONTINUOUS
10
1.58858
20
-4.75591
11
1.54921
21
-4.75591
0
LINE
8
BLACK
6
CONTINUOUS
10
1.54921
20
-4.75591
11
1.54921
21
-4.69488
0
LINE
8
BLACK
6
CONTINUOUS
10
1.54921
20
-4.69488
11
1.58858
21
-4.69488
0
LINE
8
BLACK
6
CONTINUOUS
10
1.58858
20
-4.69488
11
1.58858
21
-4.75591
0
LINE
8
BLACK
6
CONTINUOUS
10
1.86378
20
-4.75591
11
1.82441
21
-4.75591
0
LINE
8
BLACK
6
CONTINUOUS
10
1.82441
20
-4.75591
11
1.82441
21
-4.69488
0
LINE
8
BLACK
6
CONTINUOUS
10
1.82441
20
-4.69488
11
1.86378
21
-4.69488
0
LINE
8
BLACK
6
CONTINUOUS
10
1.86378
20
-4.69488
11
1.86378
21
-4.75591
0
LINE
8
BLACK
6
CONTINUOUS
10
5.36811
20
-4.75591
11
5.32874
21
-4.75591
0
LINE
8
BLACK
6
CONTINUOUS
10
5.32874
20
-4.75591
11
5.32874
21
-4.69488
0
LINE
8
BLACK
6
CONTINUOUS
10
5.32874
20
-4.69488
11
5.36811
21
-4.69488
0
LINE
8
BLACK
6
CONTINUOUS
10
5.36811
20
-4.69488
11
5.36811
21
-4.75591
0
LINE
8
BLACK
6
CONTINUOUS
10
4.82677
20
-4.75591
11
4.7874
21
-4.75591
0
LINE
8
BLACK
6
CONTINUOUS
10
4.7874
20
-4.75591
11
4.7874
21
-4.69488
0
LINE
8
BLACK
6
CONTINUOUS
10
4.7874
20
-4.69488
11
4.82677
21
-4.69488
0
LINE
8
BLACK
6
CONTINUOUS
10
4.82677
20
-4.69488
11
4.82677
21
-4.75591
0
LINE
8
BLACK
6
CONTINUOUS
10
1.98976
20
-4.75591
11
1.95039
21
-4.75591
0
LINE
8
BLACK
6
CONTINUOUS
10
1.95039
20
-4.75591
11
1.95039
21
-4.69488
0
LINE
8
BLACK
6
CONTINUOUS
10
1.95039
20
-4.69488
11
1.98976
21
-4.69488
0
LINE
8
BLACK
6
CONTINUOUS
10
1.98976
20
-4.69488
11
1.98976
21
-4.75591
0
LINE
8
BLACK
6
CONTINUOUS
10
2.21732
20
-4.75591
11
2.17795
21
-4.75591
0
LINE
8
BLACK
6
CONTINUOUS
10
2.17795
20
-4.75591
11
2.17795
21
-4.69488
0
LINE
8
BLACK
6
CONTINUOUS
10
2.17795
20
-4.69488
11
2.21732
21
-4.69488
0
LINE
8
BLACK
6
CONTINUOUS
10
2.21732
20
-4.69488
11
2.21732
21
-4.75591
0
LINE
8
BLACK
6
CONTINUOUS
10
3.12126
20
-4.75591
11
3.08189
21
-4.75591
0
LINE
8
BLACK
6
CONTINUOUS
10
3.08189
20
-4.75591
11
3.08189
21
-4.69488
0
LINE
8
BLACK
6
CONTINUOUS
10
3.08189
20
-4.69488
11
3.12126
21
-4.69488
0
LINE
8
BLACK
6
CONTINUOUS
10
3.12126
20
-4.69488
11
3.12126
21
-4.75591
0
LINE
8
BLACK
6
CONTINUOUS
10
2.76772
20
-4.75591
11
2.72835
21
-4.75591
0
LINE
8
BLACK
6
CONTINUOUS
10
2.72835
20
-4.75591
11
2.72835
21
-4.69488
0
LINE
8
BLACK
6
CONTINUOUS
10
2.72835
20
-4.69488
11
2.76772
21
-4.69488
0
LINE
8
BLACK
6
CONTINUOUS
10
2.76772
20
-4.69488
11
2.76772
21
-4.75591
0
LINE
8
BLACK
6
CONTINUOUS
10
3.89331
20
-4.75591
11
3.85394
21
-4.75591
0
LINE
8
BLACK
6
CONTINUOUS
10
3.85394
20
-4.75591
11
3.85394
21
-4.69488
0
LINE
8
BLACK
6
CONTINUOUS
10
3.85394
20
-4.69488
11
3.89331
21
-4.69488
0
LINE
8
BLACK
6
CONTINUOUS
10
3.89331
20
-4.69488
11
3.89331
21
-4.75591
0
LINE
8
BLACK
6
CONTINUOUS
10
2.8937
20
-4.75591
11
2.85433
21
-4.75591
0
LINE
8
BLACK
6
CONTINUOUS
10
2.85433
20
-4.75591
11
2.85433
21
-4.69488
0
LINE
8
BLACK
6
CONTINUOUS
10
2.85433
20
-4.69488
11
2.8937
21
-4.69488
0
LINE
8
BLACK
6
CONTINUOUS
10
2.8937
20
-4.69488
11
2.8937
21
-4.75591
0
LINE
8
BLACK
6
CONTINUOUS
10
4.01929
20
-4.75591
11
3.97992
21
-4.75591
0
LINE
8
BLACK
6
CONTINUOUS
10
3.97992
20
-4.75591
11
3.97992
21
-4.69488
0
LINE
8
BLACK
6
CONTINUOUS
10
3.97992
20
-4.69488
11
4.01929
21
-4.69488
0
LINE
8
BLACK
6
CONTINUOUS
10
4.01929
20
-4.69488
11
4.01929
21
-4.75591
0
LINE
8
BLACK
6
CONTINUOUS
10
2.99528
20
-4.75591
11
2.95591
21
-4.75591
0
LINE
8
BLACK
6
CONTINUOUS
10
2.95591
20
-4.75591
11
2.95591
21
-4.69488
0
LINE
8
BLACK
6
CONTINUOUS
10
2.95591
20
-4.69488
11
2.99528
21
-4.69488
0
LINE
8
BLACK
6
CONTINUOUS
10
2.99528
20
-4.69488
11
2.99528
21
-4.75591
0
LINE
8
BLACK
6
CONTINUOUS
10
3.44449
20
-4.75591
11
3.40512
21
-4.75591
0
LINE
8
BLACK
6
CONTINUOUS
10
3.40512
20
-4.75591
11
3.40512
21
-4.69488
0
LINE
8
BLACK
6
CONTINUOUS
10
3.40512
20
-4.69488
11
3.44449
21
-4.69488
0
LINE
8
BLACK
6
CONTINUOUS
10
3.44449
20
-4.69488
11
3.44449
21
-4.75591
0
LINE
8
BLACK
6
CONTINUOUS
10
2.3189
20
-4.75591
11
2.27953
21
-4.75591
0
LINE
8
BLACK
6
CONTINUOUS
10
2.27953
20
-4.75591
11
2.27953
21
-4.69488
0
LINE
8
BLACK
6
CONTINUOUS
10
2.27953
20
-4.69488
11
2.3189
21
-4.69488
0
LINE
8
BLACK
6
CONTINUOUS
10
2.3189
20
-4.69488
11
2.3189
21
-4.75591
0
LINE
8
BLACK
6
CONTINUOUS
10
2.44488
20
-4.75591
11
2.40551
21
-4.75591
0
LINE
8
BLACK
6
CONTINUOUS
10
2.40551
20
-4.75591
11
2.40551
21
-4.69488
0
LINE
8
BLACK
6
CONTINUOUS
10
2.40551
20
-4.69488
11
2.44488
21
-4.69488
0
LINE
8
BLACK
6
CONTINUOUS
10
2.44488
20
-4.69488
11
2.44488
21
-4.75591
0
LINE
8
BLACK
6
CONTINUOUS
10
1.4626
20
-4.75591
11
1.42323
21
-4.75591
0
LINE
8
BLACK
6
CONTINUOUS
10
1.42323
20
-4.75591
11
1.42323
21
-4.69488
0
LINE
8
BLACK
6
CONTINUOUS
10
1.42323
20
-4.69488
11
1.4626
21
-4.69488
0
LINE
8
BLACK
6
CONTINUOUS
10
1.4626
20
-4.69488
11
1.4626
21
-4.75591
0
LINE
8
BLACK
6
CONTINUOUS
10
2.54016
20
-4.75591
11
2.50079
21
-4.75591
0
LINE
8
BLACK
6
CONTINUOUS
10
2.50079
20
-4.75591
11
2.50079
21
-4.69488
0
LINE
8
BLACK
6
CONTINUOUS
10
2.50079
20
-4.69488
11
2.54016
21
-4.69488
0
LINE
8
BLACK
6
CONTINUOUS
10
2.54016
20
-4.69488
11
2.54016
21
-4.75591
0
LINE
8
BLACK
6
CONTINUOUS
10
2.66614
20
-4.75591
11
2.62677
21
-4.75591
0
LINE
8
BLACK
6
CONTINUOUS
10
2.62677
20
-4.75591
11
2.62677
21
-4.69488
0
LINE
8
BLACK
6
CONTINUOUS
10
2.62677
20
-4.69488
11
2.66614
21
-4.69488
0
LINE
8
BLACK
6
CONTINUOUS
10
2.66614
20
-4.69488
11
2.66614
21
-4.75591
0
LINE
8
BLACK
6
CONTINUOUS
10
4.70079
20
-4.75591
11
4.66142
21
-4.75591
0
LINE
8
BLACK
6
CONTINUOUS
10
4.66142
20
-4.75591
11
4.66142
21
-4.69488
0
LINE
8
BLACK
6
CONTINUOUS
10
4.66142
20
-4.69488
11
4.70079
21
-4.69488
0
LINE
8
BLACK
6
CONTINUOUS
10
4.70079
20
-4.69488
11
4.70079
21
-4.75591
0
LINE
8
BLACK
6
CONTINUOUS
10
3.21693
20
-4.75591
11
3.17756
21
-4.75591
0
LINE
8
BLACK
6
CONTINUOUS
10
3.17756
20
-4.75591
11
3.17756
21
-4.69488
0
LINE
8
BLACK
6
CONTINUOUS
10
3.17756
20
-4.69488
11
3.21693
21
-4.69488
0
LINE
8
BLACK
6
CONTINUOUS
10
3.21693
20
-4.69488
11
3.21693
21
-4.75591
0
LINE
8
BLACK
6
CONTINUOUS
10
3.34291
20
-4.75591
11
3.30354
21
-4.75591
0
LINE
8
BLACK
6
CONTINUOUS
10
3.30354
20
-4.75591
11
3.30354
21
-4.69488
0
LINE
8
BLACK
6
CONTINUOUS
10
3.30354
20
-4.69488
11
3.34291
21
-4.69488
0
LINE
8
BLACK
6
CONTINUOUS
10
3.34291
20
-4.69488
11
3.34291
21
-4.75591
0
LINE
8
BLACK
6
CONTINUOUS
10
4.34843
20
-4.75591
11
4.30906
21
-4.75591
0
LINE
8
BLACK
6
CONTINUOUS
10
4.30906
20
-4.75591
11
4.30906
21
-4.69488
0
LINE
8
BLACK
6
CONTINUOUS
10
4.30906
20
-4.69488
11
4.34843
21
-4.69488
0
LINE
8
BLACK
6
CONTINUOUS
10
4.34843
20
-4.69488
11
4.34843
21
-4.75591
0
LINE
8
BLACK
6
CONTINUOUS
10
2.09134
20
-4.75591
11
2.05197
21
-4.75591
0
LINE
8
BLACK
6
CONTINUOUS
10
2.05197
20
-4.75591
11
2.05197
21
-4.69488
0
LINE
8
BLACK
6
CONTINUOUS
10
2.05197
20
-4.69488
11
2.09134
21
-4.69488
0
LINE
8
BLACK
6
CONTINUOUS
10
2.09134
20
-4.69488
11
2.09134
21
-4.75591
0
LINE
8
BLACK
6
CONTINUOUS
10
3.51358
20
-4.65748
11
3.47421
21
-4.65748
0
LINE
8
BLACK
6
CONTINUOUS
10
3.47421
20
-4.65748
11
3.47421
21
-4.59646
0
LINE
8
BLACK
6
CONTINUOUS
10
3.47421
20
-4.59646
11
3.51358
21
-4.59646
0
LINE
8
BLACK
6
CONTINUOUS
10
3.51358
20
-4.59646
11
3.51358
21
-4.65748
0
LINE
8
BLACK
6
CONTINUOUS
10
3.28504
20
-4.65748
11
3.24567
21
-4.65748
0
LINE
8
BLACK
6
CONTINUOUS
10
3.24567
20
-4.65748
11
3.24567
21
-4.59646
0
LINE
8
BLACK
6
CONTINUOUS
10
3.24567
20
-4.59646
11
3.28504
21
-4.59646
0
LINE
8
BLACK
6
CONTINUOUS
10
3.28504
20
-4.59646
11
3.28504
21
-4.65748
0
LINE
8
BLACK
6
CONTINUOUS
10
2.14331
20
-4.65748
11
2.10394
21
-4.65748
0
LINE
8
BLACK
6
CONTINUOUS
10
2.10394
20
-4.65748
11
2.10394
21
-4.59646
0
LINE
8
BLACK
6
CONTINUOUS
10
2.10394
20
-4.59646
11
2.14331
21
-4.59646
0
LINE
8
BLACK
6
CONTINUOUS
10
2.14331
20
-4.59646
11
2.14331
21
-4.65748
0
LINE
8
BLACK
6
CONTINUOUS
10
2.01732
20
-4.65748
11
1.97795
21
-4.65748
0
LINE
8
BLACK
6
CONTINUOUS
10
1.97795
20
-4.65748
11
1.97795
21
-4.59646
0
LINE
8
BLACK
6
CONTINUOUS
10
1.97795
20
-4.59646
11
2.01732
21
-4.59646
0
LINE
8
BLACK
6
CONTINUOUS
10
2.01732
20
-4.59646
11
2.01732
21
-4.65748
0
LINE
8
BLACK
6
CONTINUOUS
10
3.84567
20
-4.65748
11
3.8063
21
-4.65748
0
LINE
8
BLACK
6
CONTINUOUS
10
3.8063
20
-4.65748
11
3.8063
21
-4.59646
0
LINE
8
BLACK
6
CONTINUOUS
10
3.8063
20
-4.59646
11
3.84567
21
-4.59646
0
LINE
8
BLACK
6
CONTINUOUS
10
3.84567
20
-4.59646
11
3.84567
21
-4.65748
0
LINE
8
BLACK
6
CONTINUOUS
10
2.37087
20
-4.65748
11
2.3315
21
-4.65748
0
LINE
8
BLACK
6
CONTINUOUS
10
2.3315
20
-4.65748
11
2.3315
21
-4.59646
0
LINE
8
BLACK
6
CONTINUOUS
10
2.3315
20
-4.59646
11
2.37087
21
-4.59646
0
LINE
8
BLACK
6
CONTINUOUS
10
2.37087
20
-4.59646
11
2.37087
21
-4.65748
0
LINE
8
BLACK
6
CONTINUOUS
10
2.24488
20
-4.65748
11
2.20551
21
-4.65748
0
LINE
8
BLACK
6
CONTINUOUS
10
2.20551
20
-4.65748
11
2.20551
21
-4.59646
0
LINE
8
BLACK
6
CONTINUOUS
10
2.20551
20
-4.59646
11
2.24488
21
-4.59646
0
LINE
8
BLACK
6
CONTINUOUS
10
2.24488
20
-4.59646
11
2.24488
21
-4.65748
0
LINE
8
BLACK
6
CONTINUOUS
10
2.59843
20
-4.65748
11
2.55906
21
-4.65748
0
LINE
8
BLACK
6
CONTINUOUS
10
2.55906
20
-4.65748
11
2.55906
21
-4.59646
0
LINE
8
BLACK
6
CONTINUOUS
10
2.55906
20
-4.59646
11
2.59843
21
-4.59646
0
LINE
8
BLACK
6
CONTINUOUS
10
2.59843
20
-4.59646
11
2.59843
21
-4.65748
0
LINE
8
BLACK
6
CONTINUOUS
10
2.47244
20
-4.65748
11
2.43307
21
-4.65748
0
LINE
8
BLACK
6
CONTINUOUS
10
2.43307
20
-4.65748
11
2.43307
21
-4.59646
0
LINE
8
BLACK
6
CONTINUOUS
10
2.43307
20
-4.59646
11
2.47244
21
-4.59646
0
LINE
8
BLACK
6
CONTINUOUS
10
2.47244
20
-4.59646
11
2.47244
21
-4.65748
0
LINE
8
BLACK
6
CONTINUOUS
10
3.97165
20
-4.65748
11
3.93228
21
-4.65748
0
LINE
8
BLACK
6
CONTINUOUS
10
3.93228
20
-4.65748
11
3.93228
21
-4.59646
0
LINE
8
BLACK
6
CONTINUOUS
10
3.93228
20
-4.59646
11
3.97165
21
-4.59646
0
LINE
8
BLACK
6
CONTINUOUS
10
3.97165
20
-4.59646
11
3.97165
21
-4.65748
0
LINE
8
BLACK
6
CONTINUOUS
10
1.7874
20
-4.65748
11
1.74803
21
-4.65748
0
LINE
8
BLACK
6
CONTINUOUS
10
1.74803
20
-4.65748
11
1.74803
21
-4.59646
0
LINE
8
BLACK
6
CONTINUOUS
10
1.74803
20
-4.59646
11
1.7874
21
-4.59646
0
LINE
8
BLACK
6
CONTINUOUS
10
1.7874
20
-4.59646
11
1.7874
21
-4.65748
0
LINE
8
BLACK
6
CONTINUOUS
10
1.91339
20
-4.65748
11
1.87402
21
-4.65748
0
LINE
8
BLACK
6
CONTINUOUS
10
1.87402
20
-4.65748
11
1.87402
21
-4.59646
0
LINE
8
BLACK
6
CONTINUOUS
10
1.87402
20
-4.59646
11
1.91339
21
-4.59646
0
LINE
8
BLACK
6
CONTINUOUS
10
1.91339
20
-4.59646
11
1.91339
21
-4.65748
0
LINE
8
BLACK
6
CONTINUOUS
10
4.53228
20
-4.65748
11
4.49291
21
-4.65748
0
LINE
8
BLACK
6
CONTINUOUS
10
4.49291
20
-4.65748
11
4.49291
21
-4.59646
0
LINE
8
BLACK
6
CONTINUOUS
10
4.49291
20
-4.59646
11
4.53228
21
-4.59646
0
LINE
8
BLACK
6
CONTINUOUS
10
4.53228
20
-4.59646
11
4.53228
21
-4.65748
0
LINE
8
BLACK
6
CONTINUOUS
10
4.65827
20
-4.65748
11
4.6189
21
-4.65748
0
LINE
8
BLACK
6
CONTINUOUS
10
4.6189
20
-4.65748
11
4.6189
21
-4.59646
0
LINE
8
BLACK
6
CONTINUOUS
10
4.6189
20
-4.59646
11
4.65827
21
-4.59646
0
LINE
8
BLACK
6
CONTINUOUS
10
4.65827
20
-4.59646
11
4.65827
21
-4.65748
0
LINE
8
BLACK
6
CONTINUOUS
10
1.52165
20
-4.65748
11
1.48228
21
-4.65748
0
LINE
8
BLACK
6
CONTINUOUS
10
1.48228
20
-4.65748
11
1.48228
21
-4.59646
0
LINE
8
BLACK
6
CONTINUOUS
10
1.48228
20
-4.59646
11
1.52165
21
-4.59646
0
LINE
8
BLACK
6
CONTINUOUS
10
1.52165
20
-4.59646
11
1.52165
21
-4.65748
0
LINE
8
BLACK
6
CONTINUOUS
10
1.64764
20
-4.65748
11
1.60827
21
-4.65748
0
LINE
8
BLACK
6
CONTINUOUS
10
1.60827
20
-4.65748
11
1.60827
21
-4.59646
0
LINE
8
BLACK
6
CONTINUOUS
10
1.60827
20
-4.59646
11
1.64764
21
-4.59646
0
LINE
8
BLACK
6
CONTINUOUS
10
1.64764
20
-4.59646
11
1.64764
21
-4.65748
0
LINE
8
BLACK
6
CONTINUOUS
10
3.61811
20
-4.65748
11
3.57874
21
-4.65748
0
LINE
8
BLACK
6
CONTINUOUS
10
3.57874
20
-4.65748
11
3.57874
21
-4.59646
0
LINE
8
BLACK
6
CONTINUOUS
10
3.57874
20
-4.59646
11
3.61811
21
-4.59646
0
LINE
8
BLACK
6
CONTINUOUS
10
3.61811
20
-4.59646
11
3.61811
21
-4.65748
0
LINE
8
BLACK
6
CONTINUOUS
10
3.15906
20
-4.65748
11
3.11969
21
-4.65748
0
LINE
8
BLACK
6
CONTINUOUS
10
3.11969
20
-4.65748
11
3.11969
21
-4.59646
0
LINE
8
BLACK
6
CONTINUOUS
10
3.11969
20
-4.59646
11
3.15906
21
-4.59646
0
LINE
8
BLACK
6
CONTINUOUS
10
3.15906
20
-4.59646
11
3.15906
21
-4.65748
0
LINE
8
BLACK
6
CONTINUOUS
10
2.82992
20
-4.65748
11
2.79055
21
-4.65748
0
LINE
8
BLACK
6
CONTINUOUS
10
2.79055
20
-4.65748
11
2.79055
21
-4.59646
0
LINE
8
BLACK
6
CONTINUOUS
10
2.79055
20
-4.59646
11
2.82992
21
-4.59646
0
LINE
8
BLACK
6
CONTINUOUS
10
2.82992
20
-4.59646
11
2.82992
21
-4.65748
0
LINE
8
BLACK
6
CONTINUOUS
10
4.94685
20
-4.65748
11
4.90748
21
-4.65748
0
LINE
8
BLACK
6
CONTINUOUS
10
4.90748
20
-4.65748
11
4.90748
21
-4.59646
0
LINE
8
BLACK
6
CONTINUOUS
10
4.90748
20
-4.59646
11
4.94685
21
-4.59646
0
LINE
8
BLACK
6
CONTINUOUS
10
4.94685
20
-4.59646
11
4.94685
21
-4.65748
0
LINE
8
BLACK
6
CONTINUOUS
10
3.74409
20
-4.65748
11
3.70472
21
-4.65748
0
LINE
8
BLACK
6
CONTINUOUS
10
3.70472
20
-4.65748
11
3.70472
21
-4.59646
0
LINE
8
BLACK
6
CONTINUOUS
10
3.70472
20
-4.59646
11
3.74409
21
-4.59646
0
LINE
8
BLACK
6
CONTINUOUS
10
3.74409
20
-4.59646
11
3.74409
21
-4.65748
0
LINE
8
BLACK
6
CONTINUOUS
10
4.82087
20
-4.65748
11
4.7815
21
-4.65748
0
LINE
8
BLACK
6
CONTINUOUS
10
4.7815
20
-4.65748
11
4.7815
21
-4.59646
0
LINE
8
BLACK
6
CONTINUOUS
10
4.7815
20
-4.59646
11
4.82087
21
-4.59646
0
LINE
8
BLACK
6
CONTINUOUS
10
4.82087
20
-4.59646
11
4.82087
21
-4.65748
0
LINE
8
BLACK
6
CONTINUOUS
10
2.70394
20
-4.65748
11
2.66457
21
-4.65748
0
LINE
8
BLACK
6
CONTINUOUS
10
2.66457
20
-4.65748
11
2.66457
21
-4.59646
0
LINE
8
BLACK
6
CONTINUOUS
10
2.66457
20
-4.59646
11
2.70394
21
-4.59646
0
LINE
8
BLACK
6
CONTINUOUS
10
2.70394
20
-4.59646
11
2.70394
21
-4.65748
0
LINE
8
BLACK
6
CONTINUOUS
10
4.20315
20
-4.65748
11
4.16378
21
-4.65748
0
LINE
8
BLACK
6
CONTINUOUS
10
4.16378
20
-4.65748
11
4.16378
21
-4.59646
0
LINE
8
BLACK
6
CONTINUOUS
10
4.16378
20
-4.59646
11
4.20315
21
-4.59646
0
LINE
8
BLACK
6
CONTINUOUS
10
4.20315
20
-4.59646
11
4.20315
21
-4.65748
0
LINE
8
BLACK
6
CONTINUOUS
10
4.43071
20
-4.65748
11
4.39134
21
-4.65748
0
LINE
8
BLACK
6
CONTINUOUS
10
4.39134
20
-4.65748
11
4.39134
21
-4.59646
0
LINE
8
BLACK
6
CONTINUOUS
10
4.39134
20
-4.59646
11
4.43071
21
-4.59646
0
LINE
8
BLACK
6
CONTINUOUS
10
4.43071
20
-4.59646
11
4.43071
21
-4.65748
0
LINE
8
BLACK
6
CONTINUOUS
10
4.30472
20
-4.65748
11
4.26535
21
-4.65748
0
LINE
8
BLACK
6
CONTINUOUS
10
4.26535
20
-4.65748
11
4.26535
21
-4.59646
0
LINE
8
BLACK
6
CONTINUOUS
10
4.26535
20
-4.59646
11
4.30472
21
-4.59646
0
LINE
8
BLACK
6
CONTINUOUS
10
4.30472
20
-4.59646
11
4.30472
21
-4.65748
0
LINE
8
BLACK
6
CONTINUOUS
10
4.07717
20
-4.65748
11
4.0378
21
-4.65748
0
LINE
8
BLACK
6
CONTINUOUS
10
4.0378
20
-4.65748
11
4.0378
21
-4.59646
0
LINE
8
BLACK
6
CONTINUOUS
10
4.0378
20
-4.59646
11
4.07717
21
-4.59646
0
LINE
8
BLACK
6
CONTINUOUS
10
4.07717
20
-4.59646
11
4.07717
21
-4.65748
0
LINE
8
BLACK
6
CONTINUOUS
10
3.3876
20
-4.65748
11
3.34823
21
-4.65748
0
LINE
8
BLACK
6
CONTINUOUS
10
3.34823
20
-4.65748
11
3.34823
21
-4.59646
0
LINE
8
BLACK
6
CONTINUOUS
10
3.34823
20
-4.59646
11
3.3876
21
-4.59646
0
LINE
8
BLACK
6
CONTINUOUS
10
3.3876
20
-4.59646
11
3.3876
21
-4.65748
0
LINE
8
BLACK
6
CONTINUOUS
10
3.05748
20
-4.65748
11
3.01811
21
-4.65748
0
LINE
8
BLACK
6
CONTINUOUS
10
3.01811
20
-4.65748
11
3.01811
21
-4.59646
0
LINE
8
BLACK
6
CONTINUOUS
10
3.01811
20
-4.59646
11
3.05748
21
-4.59646
0
LINE
8
BLACK
6
CONTINUOUS
10
3.05748
20
-4.59646
11
3.05748
21
-4.65748
0
LINE
8
BLACK
6
CONTINUOUS
10
2.9315
20
-4.65748
11
2.89213
21
-4.65748
0
LINE
8
BLACK
6
CONTINUOUS
10
2.89213
20
-4.65748
11
2.89213
21
-4.59646
0
LINE
8
BLACK
6
CONTINUOUS
10
2.89213
20
-4.59646
11
2.9315
21
-4.59646
0
LINE
8
BLACK
6
CONTINUOUS
10
2.9315
20
-4.59646
11
2.9315
21
-4.65748
0
LINE
8
BLACK
6
CONTINUOUS
10
5.24213
20
-4.65748
11
5.20276
21
-4.65748
0
LINE
8
BLACK
6
CONTINUOUS
10
5.20276
20
-4.65748
11
5.20276
21
-4.59646
0
LINE
8
BLACK
6
CONTINUOUS
10
5.20276
20
-4.59646
11
5.24213
21
-4.59646
0
LINE
8
BLACK
6
CONTINUOUS
10
5.24213
20
-4.59646
11
5.24213
21
-4.65748
0
LINE
8
BLACK
6
CONTINUOUS
10
5.36811
20
-4.65748
11
5.32874
21
-4.65748
0
LINE
8
BLACK
6
CONTINUOUS
10
5.32874
20
-4.65748
11
5.32874
21
-4.59646
0
LINE
8
BLACK
6
CONTINUOUS
10
5.32874
20
-4.59646
11
5.36811
21
-4.59646
0
LINE
8
BLACK
6
CONTINUOUS
10
5.36811
20
-4.59646
11
5.36811
21
-4.65748
0
LINE
8
BLACK
6
CONTINUOUS
10
2.37087
20
-4.45079
11
2.3315
21
-4.45079
0
LINE
8
BLACK
6
CONTINUOUS
10
2.3315
20
-4.45079
11
2.3315
21
-4.38976
0
LINE
8
BLACK
6
CONTINUOUS
10
2.3315
20
-4.38976
11
2.37087
21
-4.38976
0
LINE
8
BLACK
6
CONTINUOUS
10
2.37087
20
-4.38976
11
2.37087
21
-4.45079
0
LINE
8
BLACK
6
CONTINUOUS
10
3.84567
20
-4.45079
11
3.8063
21
-4.45079
0
LINE
8
BLACK
6
CONTINUOUS
10
3.8063
20
-4.45079
11
3.8063
21
-4.38976
0
LINE
8
BLACK
6
CONTINUOUS
10
3.8063
20
-4.38976
11
3.84567
21
-4.38976
0
LINE
8
BLACK
6
CONTINUOUS
10
3.84567
20
-4.38976
11
3.84567
21
-4.45079
0
LINE
8
BLACK
6
CONTINUOUS
10
3.97165
20
-4.45079
11
3.93228
21
-4.45079
0
LINE
8
BLACK
6
CONTINUOUS
10
3.93228
20
-4.45079
11
3.93228
21
-4.38976
0
LINE
8
BLACK
6
CONTINUOUS
10
3.93228
20
-4.38976
11
3.97165
21
-4.38976
0
LINE
8
BLACK
6
CONTINUOUS
10
3.97165
20
-4.38976
11
3.97165
21
-4.45079
0
LINE
8
BLACK
6
CONTINUOUS
10
4.30472
20
-4.45079
11
4.26535
21
-4.45079
0
LINE
8
BLACK
6
CONTINUOUS
10
4.26535
20
-4.45079
11
4.26535
21
-4.38976
0
LINE
8
BLACK
6
CONTINUOUS
10
4.26535
20
-4.38976
11
4.30472
21
-4.38976
0
LINE
8
BLACK
6
CONTINUOUS
10
4.30472
20
-4.38976
11
4.30472
21
-4.45079
0
LINE
8
BLACK
6
CONTINUOUS
10
4.43071
20
-4.45079
11
4.39134
21
-4.45079
0
LINE
8
BLACK
6
CONTINUOUS
10
4.39134
20
-4.45079
11
4.39134
21
-4.38976
0
LINE
8
BLACK
6
CONTINUOUS
10
4.39134
20
-4.38976
11
4.43071
21
-4.38976
0
LINE
8
BLACK
6
CONTINUOUS
10
4.43071
20
-4.38976
11
4.43071
21
-4.45079
0
LINE
8
BLACK
6
CONTINUOUS
10
2.01732
20
-4.45079
11
1.97795
21
-4.45079
0
LINE
8
BLACK
6
CONTINUOUS
10
1.97795
20
-4.45079
11
1.97795
21
-4.38976
0
LINE
8
BLACK
6
CONTINUOUS
10
1.97795
20
-4.38976
11
2.01732
21
-4.38976
0
LINE
8
BLACK
6
CONTINUOUS
10
2.01732
20
-4.38976
11
2.01732
21
-4.45079
0
LINE
8
BLACK
6
CONTINUOUS
10
2.14331
20
-4.45079
11
2.10394
21
-4.45079
0
LINE
8
BLACK
6
CONTINUOUS
10
2.10394
20
-4.45079
11
2.10394
21
-4.38976
0
LINE
8
BLACK
6
CONTINUOUS
10
2.10394
20
-4.38976
11
2.14331
21
-4.38976
0
LINE
8
BLACK
6
CONTINUOUS
10
2.14331
20
-4.38976
11
2.14331
21
-4.45079
0
LINE
8
BLACK
6
CONTINUOUS
10
4.07717
20
-4.45079
11
4.0378
21
-4.45079
0
LINE
8
BLACK
6
CONTINUOUS
10
4.0378
20
-4.45079
11
4.0378
21
-4.38976
0
LINE
8
BLACK
6
CONTINUOUS
10
4.0378
20
-4.38976
11
4.07717
21
-4.38976
0
LINE
8
BLACK
6
CONTINUOUS
10
4.07717
20
-4.38976
11
4.07717
21
-4.45079
0
LINE
8
BLACK
6
CONTINUOUS
10
4.20315
20
-4.45079
11
4.16378
21
-4.45079
0
LINE
8
BLACK
6
CONTINUOUS
10
4.16378
20
-4.45079
11
4.16378
21
-4.38976
0
LINE
8
BLACK
6
CONTINUOUS
10
4.16378
20
-4.38976
11
4.20315
21
-4.38976
0
LINE
8
BLACK
6
CONTINUOUS
10
4.20315
20
-4.38976
11
4.20315
21
-4.45079
0
LINE
8
BLACK
6
CONTINUOUS
10
4.82087
20
-4.45079
11
4.7815
21
-4.45079
0
LINE
8
BLACK
6
CONTINUOUS
10
4.7815
20
-4.45079
11
4.7815
21
-4.38976
0
LINE
8
BLACK
6
CONTINUOUS
10
4.7815
20
-4.38976
11
4.82087
21
-4.38976
0
LINE
8
BLACK
6
CONTINUOUS
10
4.82087
20
-4.38976
11
4.82087
21
-4.45079
0
LINE
8
BLACK
6
CONTINUOUS
10
4.94685
20
-4.45079
11
4.90748
21
-4.45079
0
LINE
8
BLACK
6
CONTINUOUS
10
4.90748
20
-4.45079
11
4.90748
21
-4.38976
0
LINE
8
BLACK
6
CONTINUOUS
10
4.90748
20
-4.38976
11
4.94685
21
-4.38976
0
LINE
8
BLACK
6
CONTINUOUS
10
4.94685
20
-4.38976
11
4.94685
21
-4.45079
0
LINE
8
BLACK
6
CONTINUOUS
10
3.15906
20
-4.45079
11
3.11969
21
-4.45079
0
LINE
8
BLACK
6
CONTINUOUS
10
3.11969
20
-4.45079
11
3.11969
21
-4.38976
0
LINE
8
BLACK
6
CONTINUOUS
10
3.11969
20
-4.38976
11
3.15906
21
-4.38976
0
LINE
8
BLACK
6
CONTINUOUS
10
3.15906
20
-4.38976
11
3.15906
21
-4.45079
0
LINE
8
BLACK
6
CONTINUOUS
10
1.52165
20
-4.45079
11
1.48228
21
-4.45079
0
LINE
8
BLACK
6
CONTINUOUS
10
1.48228
20
-4.45079
11
1.48228
21
-4.38976
0
LINE
8
BLACK
6
CONTINUOUS
10
1.48228
20
-4.38976
11
1.52165
21
-4.38976
0
LINE
8
BLACK
6
CONTINUOUS
10
1.52165
20
-4.38976
11
1.52165
21
-4.45079
0
LINE
8
BLACK
6
CONTINUOUS
10
3.28504
20
-4.45079
11
3.24567
21
-4.45079
0
LINE
8
BLACK
6
CONTINUOUS
10
3.24567
20
-4.45079
11
3.24567
21
-4.38976
0
LINE
8
BLACK
6
CONTINUOUS
10
3.24567
20
-4.38976
11
3.28504
21
-4.38976
0
LINE
8
BLACK
6
CONTINUOUS
10
3.28504
20
-4.38976
11
3.28504
21
-4.45079
0
LINE
8
BLACK
6
CONTINUOUS
10
3.61811
20
-4.45079
11
3.57874
21
-4.45079
0
LINE
8
BLACK
6
CONTINUOUS
10
3.57874
20
-4.45079
11
3.57874
21
-4.38976
0
LINE
8
BLACK
6
CONTINUOUS
10
3.57874
20
-4.38976
11
3.61811
21
-4.38976
0
LINE
8
BLACK
6
CONTINUOUS
10
3.61811
20
-4.38976
11
3.61811
21
-4.45079
0
LINE
8
BLACK
6
CONTINUOUS
10
1.64764
20
-4.45079
11
1.60827
21
-4.45079
0
LINE
8
BLACK
6
CONTINUOUS
10
1.60827
20
-4.45079
11
1.60827
21
-4.38976
0
LINE
8
BLACK
6
CONTINUOUS
10
1.60827
20
-4.38976
11
1.64764
21
-4.38976
0
LINE
8
BLACK
6
CONTINUOUS
10
1.64764
20
-4.38976
11
1.64764
21
-4.45079
0
LINE
8
BLACK
6
CONTINUOUS
10
3.74409
20
-4.45079
11
3.70472
21
-4.45079
0
LINE
8
BLACK
6
CONTINUOUS
10
3.70472
20
-4.45079
11
3.70472
21
-4.38976
0
LINE
8
BLACK
6
CONTINUOUS
10
3.70472
20
-4.38976
11
3.74409
21
-4.38976
0
LINE
8
BLACK
6
CONTINUOUS
10
3.74409
20
-4.38976
11
3.74409
21
-4.45079
0
LINE
8
BLACK
6
CONTINUOUS
10
2.70394
20
-4.45079
11
2.66457
21
-4.45079
0
LINE
8
BLACK
6
CONTINUOUS
10
2.66457
20
-4.45079
11
2.66457
21
-4.38976
0
LINE
8
BLACK
6
CONTINUOUS
10
2.66457
20
-4.38976
11
2.70394
21
-4.38976
0
LINE
8
BLACK
6
CONTINUOUS
10
2.70394
20
-4.38976
11
2.70394
21
-4.45079
0
LINE
8
BLACK
6
CONTINUOUS
10
2.82992
20
-4.45079
11
2.79055
21
-4.45079
0
LINE
8
BLACK
6
CONTINUOUS
10
2.79055
20
-4.45079
11
2.79055
21
-4.38976
0
LINE
8
BLACK
6
CONTINUOUS
10
2.79055
20
-4.38976
11
2.82992
21
-4.38976
0
LINE
8
BLACK
6
CONTINUOUS
10
2.82992
20
-4.38976
11
2.82992
21
-4.45079
0
LINE
8
BLACK
6
CONTINUOUS
10
1.7874
20
-4.45079
11
1.74803
21
-4.45079
0
LINE
8
BLACK
6
CONTINUOUS
10
1.74803
20
-4.45079
11
1.74803
21
-4.38976
0
LINE
8
BLACK
6
CONTINUOUS
10
1.74803
20
-4.38976
11
1.7874
21
-4.38976
0
LINE
8
BLACK
6
CONTINUOUS
10
1.7874
20
-4.38976
11
1.7874
21
-4.45079
0
LINE
8
BLACK
6
CONTINUOUS
10
1.91339
20
-4.45079
11
1.87402
21
-4.45079
0
LINE
8
BLACK
6
CONTINUOUS
10
1.87402
20
-4.45079
11
1.87402
21
-4.38976
0
LINE
8
BLACK
6
CONTINUOUS
10
1.87402
20
-4.38976
11
1.91339
21
-4.38976
0
LINE
8
BLACK
6
CONTINUOUS
10
1.91339
20
-4.38976
11
1.91339
21
-4.45079
0
LINE
8
BLACK
6
CONTINUOUS
10
4.53228
20
-4.45079
11
4.49291
21
-4.45079
0
LINE
8
BLACK
6
CONTINUOUS
10
4.49291
20
-4.45079
11
4.49291
21
-4.38976
0
LINE
8
BLACK
6
CONTINUOUS
10
4.49291
20
-4.38976
11
4.53228
21
-4.38976
0
LINE
8
BLACK
6
CONTINUOUS
10
4.53228
20
-4.38976
11
4.53228
21
-4.45079
0
LINE
8
BLACK
6
CONTINUOUS
10
4.65827
20
-4.45079
11
4.6189
21
-4.45079
0
LINE
8
BLACK
6
CONTINUOUS
10
4.6189
20
-4.45079
11
4.6189
21
-4.38976
0
LINE
8
BLACK
6
CONTINUOUS
10
4.6189
20
-4.38976
11
4.65827
21
-4.38976
0
LINE
8
BLACK
6
CONTINUOUS
10
4.65827
20
-4.38976
11
4.65827
21
-4.45079
0
LINE
8
BLACK
6
CONTINUOUS
10
3.3876
20
-4.45079
11
3.34823
21
-4.45079
0
LINE
8
BLACK
6
CONTINUOUS
10
3.34823
20
-4.45079
11
3.34823
21
-4.38976
0
LINE
8
BLACK
6
CONTINUOUS
10
3.34823
20
-4.38976
11
3.3876
21
-4.38976
0
LINE
8
BLACK
6
CONTINUOUS
10
3.3876
20
-4.38976
11
3.3876
21
-4.45079
0
LINE
8
BLACK
6
CONTINUOUS
10
3.51358
20
-4.45079
11
3.47421
21
-4.45079
0
LINE
8
BLACK
6
CONTINUOUS
10
3.47421
20
-4.45079
11
3.47421
21
-4.38976
0
LINE
8
BLACK
6
CONTINUOUS
10
3.47421
20
-4.38976
11
3.51358
21
-4.38976
0
LINE
8
BLACK
6
CONTINUOUS
10
3.51358
20
-4.38976
11
3.51358
21
-4.45079
0
LINE
8
BLACK
6
CONTINUOUS
10
2.59843
20
-4.45079
11
2.55906
21
-4.45079
0
LINE
8
BLACK
6
CONTINUOUS
10
2.55906
20
-4.45079
11
2.55906
21
-4.38976
0
LINE
8
BLACK
6
CONTINUOUS
10
2.55906
20
-4.38976
11
2.59843
21
-4.38976
0
LINE
8
BLACK
6
CONTINUOUS
10
2.59843
20
-4.38976
11
2.59843
21
-4.45079
0
LINE
8
BLACK
6
CONTINUOUS
10
2.47244
20
-4.45079
11
2.43307
21
-4.45079
0
LINE
8
BLACK
6
CONTINUOUS
10
2.43307
20
-4.45079
11
2.43307
21
-4.38976
0
LINE
8
BLACK
6
CONTINUOUS
10
2.43307
20
-4.38976
11
2.47244
21
-4.38976
0
LINE
8
BLACK
6
CONTINUOUS
10
2.47244
20
-4.38976
11
2.47244
21
-4.45079
0
LINE
8
BLACK
6
CONTINUOUS
10
2.24488
20
-4.45079
11
2.20551
21
-4.45079
0
LINE
8
BLACK
6
CONTINUOUS
10
2.20551
20
-4.45079
11
2.20551
21
-4.38976
0
LINE
8
BLACK
6
CONTINUOUS
10
2.20551
20
-4.38976
11
2.24488
21
-4.38976
0
LINE
8
BLACK
6
CONTINUOUS
10
2.24488
20
-4.38976
11
2.24488
21
-4.45079
0
LINE
8
BLACK
6
CONTINUOUS
10
3.05748
20
-4.45079
11
3.01811
21
-4.45079
0
LINE
8
BLACK
6
CONTINUOUS
10
3.01811
20
-4.45079
11
3.01811
21
-4.38976
0
LINE
8
BLACK
6
CONTINUOUS
10
3.01811
20
-4.38976
11
3.05748
21
-4.38976
0
LINE
8
BLACK
6
CONTINUOUS
10
3.05748
20
-4.38976
11
3.05748
21
-4.45079
0
LINE
8
BLACK
6
CONTINUOUS
10
5.24213
20
-4.45079
11
5.20276
21
-4.45079
0
LINE
8
BLACK
6
CONTINUOUS
10
5.20276
20
-4.45079
11
5.20276
21
-4.38976
0
LINE
8
BLACK
6
CONTINUOUS
10
5.20276
20
-4.38976
11
5.24213
21
-4.38976
0
LINE
8
BLACK
6
CONTINUOUS
10
5.24213
20
-4.38976
11
5.24213
21
-4.45079
0
LINE
8
BLACK
6
CONTINUOUS
10
2.9315
20
-4.45079
11
2.89213
21
-4.45079
0
LINE
8
BLACK
6
CONTINUOUS
10
2.89213
20
-4.45079
11
2.89213
21
-4.38976
0
LINE
8
BLACK
6
CONTINUOUS
10
2.89213
20
-4.38976
11
2.9315
21
-4.38976
0
LINE
8
BLACK
6
CONTINUOUS
10
2.9315
20
-4.38976
11
2.9315
21
-4.45079
0
LINE
8
BLACK
6
CONTINUOUS
10
5.36811
20
-4.45079
11
5.32874
21
-4.45079
0
LINE
8
BLACK
6
CONTINUOUS
10
5.32874
20
-4.45079
11
5.32874
21
-4.38976
0
LINE
8
BLACK
6
CONTINUOUS
10
5.32874
20
-4.38976
11
5.36811
21
-4.38976
0
LINE
8
BLACK
6
CONTINUOUS
10
5.36811
20
-4.38976
11
5.36811
21
-4.45079
0
LINE
8
BLACK
6
CONTINUOUS
10
5.24213
20
-4.35236
11
5.20276
21
-4.35236
0
LINE
8
BLACK
6
CONTINUOUS
10
5.20276
20
-4.35236
11
5.20276
21
-4.29134
0
LINE
8
BLACK
6
CONTINUOUS
10
5.20276
20
-4.29134
11
5.24213
21
-4.29134
0
LINE
8
BLACK
6
CONTINUOUS
10
5.24213
20
-4.29134
11
5.24213
21
-4.35236
0
LINE
8
BLACK
6
CONTINUOUS
10
3.96693
20
-4.35236
11
3.92756
21
-4.35236
0
LINE
8
BLACK
6
CONTINUOUS
10
3.92756
20
-4.35236
11
3.92756
21
-4.29134
0
LINE
8
BLACK
6
CONTINUOUS
10
3.92756
20
-4.29134
11
3.96693
21
-4.29134
0
LINE
8
BLACK
6
CONTINUOUS
10
3.96693
20
-4.29134
11
3.96693
21
-4.35236
0
LINE
8
BLACK
6
CONTINUOUS
10
3.51181
20
-4.35236
11
3.47244
21
-4.35236
0
LINE
8
BLACK
6
CONTINUOUS
10
3.47244
20
-4.35236
11
3.47244
21
-4.29134
0
LINE
8
BLACK
6
CONTINUOUS
10
3.47244
20
-4.29134
11
3.51181
21
-4.29134
0
LINE
8
BLACK
6
CONTINUOUS
10
3.51181
20
-4.29134
11
3.51181
21
-4.35236
0
LINE
8
BLACK
6
CONTINUOUS
10
4.09291
20
-4.35236
11
4.05354
21
-4.35236
0
LINE
8
BLACK
6
CONTINUOUS
10
4.05354
20
-4.35236
11
4.05354
21
-4.29134
0
LINE
8
BLACK
6
CONTINUOUS
10
4.05354
20
-4.29134
11
4.09291
21
-4.29134
0
LINE
8
BLACK
6
CONTINUOUS
10
4.09291
20
-4.29134
11
4.09291
21
-4.35236
0
LINE
8
BLACK
6
CONTINUOUS
10
3.40984
20
-4.35236
11
3.37047
21
-4.35236
0
LINE
8
BLACK
6
CONTINUOUS
10
3.37047
20
-4.35236
11
3.37047
21
-4.29134
0
LINE
8
BLACK
6
CONTINUOUS
10
3.37047
20
-4.29134
11
3.40984
21
-4.29134
0
LINE
8
BLACK
6
CONTINUOUS
10
3.40984
20
-4.29134
11
3.40984
21
-4.35236
0
LINE
8
BLACK
6
CONTINUOUS
10
2.14567
20
-4.35236
11
2.1063
21
-4.35236
0
LINE
8
BLACK
6
CONTINUOUS
10
2.1063
20
-4.35236
11
2.1063
21
-4.29134
0
LINE
8
BLACK
6
CONTINUOUS
10
2.1063
20
-4.29134
11
2.14567
21
-4.29134
0
LINE
8
BLACK
6
CONTINUOUS
10
2.14567
20
-4.29134
11
2.14567
21
-4.35236
0
LINE
8
BLACK
6
CONTINUOUS
10
5.00394
20
-4.35236
11
4.96457
21
-4.35236
0
LINE
8
BLACK
6
CONTINUOUS
10
4.96457
20
-4.35236
11
4.96457
21
-4.29134
0
LINE
8
BLACK
6
CONTINUOUS
10
4.96457
20
-4.29134
11
5.00394
21
-4.29134
0
LINE
8
BLACK
6
CONTINUOUS
10
5.00394
20
-4.29134
11
5.00394
21
-4.35236
0
LINE
8
BLACK
6
CONTINUOUS
10
2.82874
20
-4.35236
11
2.78937
21
-4.35236
0
LINE
8
BLACK
6
CONTINUOUS
10
2.78937
20
-4.35236
11
2.78937
21
-4.29134
0
LINE
8
BLACK
6
CONTINUOUS
10
2.78937
20
-4.29134
11
2.82874
21
-4.29134
0
LINE
8
BLACK
6
CONTINUOUS
10
2.82874
20
-4.29134
11
2.82874
21
-4.35236
0
LINE
8
BLACK
6
CONTINUOUS
10
4.87795
20
-4.35236
11
4.83858
21
-4.35236
0
LINE
8
BLACK
6
CONTINUOUS
10
4.83858
20
-4.35236
11
4.83858
21
-4.29134
0
LINE
8
BLACK
6
CONTINUOUS
10
4.83858
20
-4.29134
11
4.87795
21
-4.29134
0
LINE
8
BLACK
6
CONTINUOUS
10
4.87795
20
-4.29134
11
4.87795
21
-4.35236
0
LINE
8
BLACK
6
CONTINUOUS
10
2.49921
20
-4.35236
11
2.45984
21
-4.35236
0
LINE
8
BLACK
6
CONTINUOUS
10
2.45984
20
-4.35236
11
2.45984
21
-4.29134
0
LINE
8
BLACK
6
CONTINUOUS
10
2.45984
20
-4.29134
11
2.49921
21
-4.29134
0
LINE
8
BLACK
6
CONTINUOUS
10
2.49921
20
-4.29134
11
2.49921
21
-4.35236
0
LINE
8
BLACK
6
CONTINUOUS
10
4.42244
20
-4.35236
11
4.38307
21
-4.35236
0
LINE
8
BLACK
6
CONTINUOUS
10
4.38307
20
-4.35236
11
4.38307
21
-4.29134
0
LINE
8
BLACK
6
CONTINUOUS
10
4.38307
20
-4.29134
11
4.42244
21
-4.29134
0
LINE
8
BLACK
6
CONTINUOUS
10
4.42244
20
-4.29134
11
4.42244
21
-4.35236
0
LINE
8
BLACK
6
CONTINUOUS
10
2.37323
20
-4.35236
11
2.33386
21
-4.35236
0
LINE
8
BLACK
6
CONTINUOUS
10
2.33386
20
-4.35236
11
2.33386
21
-4.29134
0
LINE
8
BLACK
6
CONTINUOUS
10
2.33386
20
-4.29134
11
2.37323
21
-4.29134
0
LINE
8
BLACK
6
CONTINUOUS
10
2.37323
20
-4.29134
11
2.37323
21
-4.35236
0
LINE
8
BLACK
6
CONTINUOUS
10
3.6378
20
-4.35236
11
3.59843
21
-4.35236
0
LINE
8
BLACK
6
CONTINUOUS
10
3.59843
20
-4.35236
11
3.59843
21
-4.29134
0
LINE
8
BLACK
6
CONTINUOUS
10
3.59843
20
-4.29134
11
3.6378
21
-4.29134
0
LINE
8
BLACK
6
CONTINUOUS
10
3.6378
20
-4.29134
11
3.6378
21
-4.35236
0
LINE
8
BLACK
6
CONTINUOUS
10
4.54843
20
-4.35236
11
4.50906
21
-4.35236
0
LINE
8
BLACK
6
CONTINUOUS
10
4.50906
20
-4.35236
11
4.50906
21
-4.29134
0
LINE
8
BLACK
6
CONTINUOUS
10
4.50906
20
-4.29134
11
4.54843
21
-4.29134
0
LINE
8
BLACK
6
CONTINUOUS
10
4.54843
20
-4.29134
11
4.54843
21
-4.35236
0
LINE
8
BLACK
6
CONTINUOUS
10
5.36811
20
-4.35236
11
5.32874
21
-4.35236
0
LINE
8
BLACK
6
CONTINUOUS
10
5.32874
20
-4.35236
11
5.32874
21
-4.29134
0
LINE
8
BLACK
6
CONTINUOUS
10
5.32874
20
-4.29134
11
5.36811
21
-4.29134
0
LINE
8
BLACK
6
CONTINUOUS
10
5.36811
20
-4.29134
11
5.36811
21
-4.35236
0
LINE
8
BLACK
6
CONTINUOUS
10
2.27165
20
-4.35236
11
2.23228
21
-4.35236
0
LINE
8
BLACK
6
CONTINUOUS
10
2.23228
20
-4.35236
11
2.23228
21
-4.29134
0
LINE
8
BLACK
6
CONTINUOUS
10
2.23228
20
-4.29134
11
2.27165
21
-4.29134
0
LINE
8
BLACK
6
CONTINUOUS
10
2.27165
20
-4.29134
11
2.27165
21
-4.35236
0
LINE
8
BLACK
6
CONTINUOUS
10
2.72677
20
-4.35236
11
2.6874
21
-4.35236
0
LINE
8
BLACK
6
CONTINUOUS
10
2.6874
20
-4.35236
11
2.6874
21
-4.29134
0
LINE
8
BLACK
6
CONTINUOUS
10
2.6874
20
-4.29134
11
2.72677
21
-4.29134
0
LINE
8
BLACK
6
CONTINUOUS
10
2.72677
20
-4.29134
11
2.72677
21
-4.35236
0
LINE
8
BLACK
6
CONTINUOUS
10
2.60079
20
-4.35236
11
2.56142
21
-4.35236
0
LINE
8
BLACK
6
CONTINUOUS
10
2.56142
20
-4.35236
11
2.56142
21
-4.29134
0
LINE
8
BLACK
6
CONTINUOUS
10
2.56142
20
-4.29134
11
2.60079
21
-4.29134
0
LINE
8
BLACK
6
CONTINUOUS
10
2.60079
20
-4.29134
11
2.60079
21
-4.35236
0
LINE
8
BLACK
6
CONTINUOUS
10
1.4626
20
-4.35236
11
1.42323
21
-4.35236
0
LINE
8
BLACK
6
CONTINUOUS
10
1.42323
20
-4.35236
11
1.42323
21
-4.29134
0
LINE
8
BLACK
6
CONTINUOUS
10
1.42323
20
-4.29134
11
1.4626
21
-4.29134
0
LINE
8
BLACK
6
CONTINUOUS
10
1.4626
20
-4.29134
11
1.4626
21
-4.35236
0
LINE
8
BLACK
6
CONTINUOUS
10
4.65
20
-4.35236
11
4.61063
21
-4.35236
0
LINE
8
BLACK
6
CONTINUOUS
10
4.61063
20
-4.35236
11
4.61063
21
-4.29134
0
LINE
8
BLACK
6
CONTINUOUS
10
4.61063
20
-4.29134
11
4.65
21
-4.29134
0
LINE
8
BLACK
6
CONTINUOUS
10
4.65
20
-4.29134
11
4.65
21
-4.35236
0
LINE
8
BLACK
6
CONTINUOUS
10
4.77598
20
-4.35236
11
4.73661
21
-4.35236
0
LINE
8
BLACK
6
CONTINUOUS
10
4.73661
20
-4.35236
11
4.73661
21
-4.29134
0
LINE
8
BLACK
6
CONTINUOUS
10
4.73661
20
-4.29134
11
4.77598
21
-4.29134
0
LINE
8
BLACK
6
CONTINUOUS
10
4.77598
20
-4.29134
11
4.77598
21
-4.35236
0
LINE
8
BLACK
6
CONTINUOUS
10
1.58858
20
-4.35236
11
1.54921
21
-4.35236
0
LINE
8
BLACK
6
CONTINUOUS
10
1.54921
20
-4.35236
11
1.54921
21
-4.29134
0
LINE
8
BLACK
6
CONTINUOUS
10
1.54921
20
-4.29134
11
1.58858
21
-4.29134
0
LINE
8
BLACK
6
CONTINUOUS
10
1.58858
20
-4.29134
11
1.58858
21
-4.35236
0
LINE
8
BLACK
6
CONTINUOUS
10
3.28386
20
-4.35236
11
3.24449
21
-4.35236
0
LINE
8
BLACK
6
CONTINUOUS
10
3.24449
20
-4.35236
11
3.24449
21
-4.29134
0
LINE
8
BLACK
6
CONTINUOUS
10
3.24449
20
-4.29134
11
3.28386
21
-4.29134
0
LINE
8
BLACK
6
CONTINUOUS
10
3.28386
20
-4.29134
11
3.28386
21
-4.35236
0
LINE
8
BLACK
6
CONTINUOUS
10
2.95472
20
-4.35236
11
2.91535
21
-4.35236
0
LINE
8
BLACK
6
CONTINUOUS
10
2.91535
20
-4.35236
11
2.91535
21
-4.29134
0
LINE
8
BLACK
6
CONTINUOUS
10
2.91535
20
-4.29134
11
2.95472
21
-4.29134
0
LINE
8
BLACK
6
CONTINUOUS
10
2.95472
20
-4.29134
11
2.95472
21
-4.35236
0
LINE
8
BLACK
6
CONTINUOUS
10
3.86535
20
-4.35236
11
3.82598
21
-4.35236
0
LINE
8
BLACK
6
CONTINUOUS
10
3.82598
20
-4.35236
11
3.82598
21
-4.29134
0
LINE
8
BLACK
6
CONTINUOUS
10
3.82598
20
-4.29134
11
3.86535
21
-4.29134
0
LINE
8
BLACK
6
CONTINUOUS
10
3.86535
20
-4.29134
11
3.86535
21
-4.35236
0
LINE
8
BLACK
6
CONTINUOUS
10
3.73937
20
-4.35236
11
3.7
21
-4.35236
0
LINE
8
BLACK
6
CONTINUOUS
10
3.7
20
-4.35236
11
3.7
21
-4.29134
0
LINE
8
BLACK
6
CONTINUOUS
10
3.7
20
-4.29134
11
3.73937
21
-4.29134
0
LINE
8
BLACK
6
CONTINUOUS
10
3.73937
20
-4.29134
11
3.73937
21
-4.35236
0
LINE
8
BLACK
6
CONTINUOUS
10
4.19488
20
-4.35236
11
4.15551
21
-4.35236
0
LINE
8
BLACK
6
CONTINUOUS
10
4.15551
20
-4.35236
11
4.15551
21
-4.29134
0
LINE
8
BLACK
6
CONTINUOUS
10
4.15551
20
-4.29134
11
4.19488
21
-4.29134
0
LINE
8
BLACK
6
CONTINUOUS
10
4.19488
20
-4.29134
11
4.19488
21
-4.35236
0
LINE
8
BLACK
6
CONTINUOUS
10
4.32087
20
-4.35236
11
4.2815
21
-4.35236
0
LINE
8
BLACK
6
CONTINUOUS
10
4.2815
20
-4.35236
11
4.2815
21
-4.29134
0
LINE
8
BLACK
6
CONTINUOUS
10
4.2815
20
-4.29134
11
4.32087
21
-4.29134
0
LINE
8
BLACK
6
CONTINUOUS
10
4.32087
20
-4.29134
11
4.32087
21
-4.35236
0
LINE
8
BLACK
6
CONTINUOUS
10
1.69016
20
-4.35236
11
1.65079
21
-4.35236
0
LINE
8
BLACK
6
CONTINUOUS
10
1.65079
20
-4.35236
11
1.65079
21
-4.29134
0
LINE
8
BLACK
6
CONTINUOUS
10
1.65079
20
-4.29134
11
1.69016
21
-4.29134
0
LINE
8
BLACK
6
CONTINUOUS
10
1.69016
20
-4.29134
11
1.69016
21
-4.35236
0
LINE
8
BLACK
6
CONTINUOUS
10
1.81614
20
-4.35236
11
1.77677
21
-4.35236
0
LINE
8
BLACK
6
CONTINUOUS
10
1.77677
20
-4.35236
11
1.77677
21
-4.29134
0
LINE
8
BLACK
6
CONTINUOUS
10
1.77677
20
-4.29134
11
1.81614
21
-4.29134
0
LINE
8
BLACK
6
CONTINUOUS
10
1.81614
20
-4.29134
11
1.81614
21
-4.35236
0
LINE
8
BLACK
6
CONTINUOUS
10
2.04409
20
-4.35236
11
2.00472
21
-4.35236
0
LINE
8
BLACK
6
CONTINUOUS
10
2.00472
20
-4.35236
11
2.00472
21
-4.29134
0
LINE
8
BLACK
6
CONTINUOUS
10
2.00472
20
-4.29134
11
2.04409
21
-4.29134
0
LINE
8
BLACK
6
CONTINUOUS
10
2.04409
20
-4.29134
11
2.04409
21
-4.35236
0
LINE
8
BLACK
6
CONTINUOUS
10
3.18228
20
-4.35236
11
3.14291
21
-4.35236
0
LINE
8
BLACK
6
CONTINUOUS
10
3.14291
20
-4.35236
11
3.14291
21
-4.29134
0
LINE
8
BLACK
6
CONTINUOUS
10
3.14291
20
-4.29134
11
3.18228
21
-4.29134
0
LINE
8
BLACK
6
CONTINUOUS
10
3.18228
20
-4.29134
11
3.18228
21
-4.35236
0
LINE
8
BLACK
6
CONTINUOUS
10
3.0563
20
-4.35236
11
3.01693
21
-4.35236
0
LINE
8
BLACK
6
CONTINUOUS
10
3.01693
20
-4.35236
11
3.01693
21
-4.29134
0
LINE
8
BLACK
6
CONTINUOUS
10
3.01693
20
-4.29134
11
3.0563
21
-4.29134
0
LINE
8
BLACK
6
CONTINUOUS
10
3.0563
20
-4.29134
11
3.0563
21
-4.35236
0
LINE
8
BLACK
6
CONTINUOUS
10
1.91811
20
-4.35236
11
1.87874
21
-4.35236
0
LINE
8
BLACK
6
CONTINUOUS
10
1.87874
20
-4.35236
11
1.87874
21
-4.29134
0
LINE
8
BLACK
6
CONTINUOUS
10
1.87874
20
-4.29134
11
1.91811
21
-4.29134
0
LINE
8
BLACK
6
CONTINUOUS
10
1.91811
20
-4.29134
11
1.91811
21
-4.35236
0
LINE
8
BLACK
6
CONTINUOUS
10
5.24213
20
-4.14567
11
5.20276
21
-4.14567
0
LINE
8
BLACK
6
CONTINUOUS
10
5.20276
20
-4.14567
11
5.20276
21
-4.08465
0
LINE
8
BLACK
6
CONTINUOUS
10
5.20276
20
-4.08465
11
5.24213
21
-4.08465
0
LINE
8
BLACK
6
CONTINUOUS
10
5.24213
20
-4.08465
11
5.24213
21
-4.14567
0
LINE
8
BLACK
6
CONTINUOUS
10
4.42244
20
-4.14567
11
4.38307
21
-4.14567
0
LINE
8
BLACK
6
CONTINUOUS
10
4.38307
20
-4.14567
11
4.38307
21
-4.08465
0
LINE
8
BLACK
6
CONTINUOUS
10
4.38307
20
-4.08465
11
4.42244
21
-4.08465
0
LINE
8
BLACK
6
CONTINUOUS
10
4.42244
20
-4.08465
11
4.42244
21
-4.14567
0
LINE
8
BLACK
6
CONTINUOUS
10
4.54843
20
-4.14567
11
4.50906
21
-4.14567
0
LINE
8
BLACK
6
CONTINUOUS
10
4.50906
20
-4.14567
11
4.50906
21
-4.08465
0
LINE
8
BLACK
6
CONTINUOUS
10
4.50906
20
-4.08465
11
4.54843
21
-4.08465
0
LINE
8
BLACK
6
CONTINUOUS
10
4.54843
20
-4.08465
11
4.54843
21
-4.14567
0
LINE
8
BLACK
6
CONTINUOUS
10
4.65
20
-4.14567
11
4.61063
21
-4.14567
0
LINE
8
BLACK
6
CONTINUOUS
10
4.61063
20
-4.14567
11
4.61063
21
-4.08465
0
LINE
8
BLACK
6
CONTINUOUS
10
4.61063
20
-4.08465
11
4.65
21
-4.08465
0
LINE
8
BLACK
6
CONTINUOUS
10
4.65
20
-4.08465
11
4.65
21
-4.14567
0
LINE
8
BLACK
6
CONTINUOUS
10
1.69016
20
-4.14567
11
1.65079
21
-4.14567
0
LINE
8
BLACK
6
CONTINUOUS
10
1.65079
20
-4.14567
11
1.65079
21
-4.08465
0
LINE
8
BLACK
6
CONTINUOUS
10
1.65079
20
-4.08465
11
1.69016
21
-4.08465
0
LINE
8
BLACK
6
CONTINUOUS
10
1.69016
20
-4.08465
11
1.69016
21
-4.14567
0
LINE
8
BLACK
6
CONTINUOUS
10
5.36811
20
-4.14567
11
5.32874
21
-4.14567
0
LINE
8
BLACK
6
CONTINUOUS
10
5.32874
20
-4.14567
11
5.32874
21
-4.08465
0
LINE
8
BLACK
6
CONTINUOUS
10
5.32874
20
-4.08465
11
5.36811
21
-4.08465
0
LINE
8
BLACK
6
CONTINUOUS
10
5.36811
20
-4.08465
11
5.36811
21
-4.14567
0
LINE
8
BLACK
6
CONTINUOUS
10
1.4626
20
-4.14567
11
1.42323
21
-4.14567
0
LINE
8
BLACK
6
CONTINUOUS
10
1.42323
20
-4.14567
11
1.42323
21
-4.08465
0
LINE
8
BLACK
6
CONTINUOUS
10
1.42323
20
-4.08465
11
1.4626
21
-4.08465
0
LINE
8
BLACK
6
CONTINUOUS
10
1.4626
20
-4.08465
11
1.4626
21
-4.14567
0
LINE
8
BLACK
6
CONTINUOUS
10
1.58858
20
-4.14567
11
1.54921
21
-4.14567
0
LINE
8
BLACK
6
CONTINUOUS
10
1.54921
20
-4.14567
11
1.54921
21
-4.08465
0
LINE
8
BLACK
6
CONTINUOUS
10
1.54921
20
-4.08465
11
1.58858
21
-4.08465
0
LINE
8
BLACK
6
CONTINUOUS
10
1.58858
20
-4.08465
11
1.58858
21
-4.14567
0
LINE
8
BLACK
6
CONTINUOUS
10
3.73937
20
-4.14567
11
3.7
21
-4.14567
0
LINE
8
BLACK
6
CONTINUOUS
10
3.7
20
-4.14567
11
3.7
21
-4.08465
0
LINE
8
BLACK
6
CONTINUOUS
10
3.7
20
-4.08465
11
3.73937
21
-4.08465
0
LINE
8
BLACK
6
CONTINUOUS
10
3.73937
20
-4.08465
11
3.73937
21
-4.14567
0
LINE
8
BLACK
6
CONTINUOUS
10
2.37323
20
-4.14567
11
2.33386
21
-4.14567
0
LINE
8
BLACK
6
CONTINUOUS
10
2.33386
20
-4.14567
11
2.33386
21
-4.08465
0
LINE
8
BLACK
6
CONTINUOUS
10
2.33386
20
-4.08465
11
2.37323
21
-4.08465
0
LINE
8
BLACK
6
CONTINUOUS
10
2.37323
20
-4.08465
11
2.37323
21
-4.14567
0
LINE
8
BLACK
6
CONTINUOUS
10
3.6378
20
-4.14567
11
3.59843
21
-4.14567
0
LINE
8
BLACK
6
CONTINUOUS
10
3.59843
20
-4.14567
11
3.59843
21
-4.08465
0
LINE
8
BLACK
6
CONTINUOUS
10
3.59843
20
-4.08465
11
3.6378
21
-4.08465
0
LINE
8
BLACK
6
CONTINUOUS
10
3.6378
20
-4.08465
11
3.6378
21
-4.14567
0
LINE
8
BLACK
6
CONTINUOUS
10
2.49921
20
-4.14567
11
2.45984
21
-4.14567
0
LINE
8
BLACK
6
CONTINUOUS
10
2.45984
20
-4.14567
11
2.45984
21
-4.08465
0
LINE
8
BLACK
6
CONTINUOUS
10
2.45984
20
-4.08465
11
2.49921
21
-4.08465
0
LINE
8
BLACK
6
CONTINUOUS
10
2.49921
20
-4.08465
11
2.49921
21
-4.14567
0
LINE
8
BLACK
6
CONTINUOUS
10
3.51181
20
-4.14567
11
3.47244
21
-4.14567
0
LINE
8
BLACK
6
CONTINUOUS
10
3.47244
20
-4.14567
11
3.47244
21
-4.08465
0
LINE
8
BLACK
6
CONTINUOUS
10
3.47244
20
-4.08465
11
3.51181
21
-4.08465
0
LINE
8
BLACK
6
CONTINUOUS
10
3.51181
20
-4.08465
11
3.51181
21
-4.14567
0
LINE
8
BLACK
6
CONTINUOUS
10
3.96693
20
-4.14567
11
3.92756
21
-4.14567
0
LINE
8
BLACK
6
CONTINUOUS
10
3.92756
20
-4.14567
11
3.92756
21
-4.08465
0
LINE
8
BLACK
6
CONTINUOUS
10
3.92756
20
-4.08465
11
3.96693
21
-4.08465
0
LINE
8
BLACK
6
CONTINUOUS
10
3.96693
20
-4.08465
11
3.96693
21
-4.14567
0
LINE
8
BLACK
6
CONTINUOUS
10
4.87795
20
-4.14567
11
4.83858
21
-4.14567
0
LINE
8
BLACK
6
CONTINUOUS
10
4.83858
20
-4.14567
11
4.83858
21
-4.08465
0
LINE
8
BLACK
6
CONTINUOUS
10
4.83858
20
-4.08465
11
4.87795
21
-4.08465
0
LINE
8
BLACK
6
CONTINUOUS
10
4.87795
20
-4.08465
11
4.87795
21
-4.14567
0
LINE
8
BLACK
6
CONTINUOUS
10
3.40984
20
-4.14567
11
3.37047
21
-4.14567
0
LINE
8
BLACK
6
CONTINUOUS
10
3.37047
20
-4.14567
11
3.37047
21
-4.08465
0
LINE
8
BLACK
6
CONTINUOUS
10
3.37047
20
-4.08465
11
3.40984
21
-4.08465
0
LINE
8
BLACK
6
CONTINUOUS
10
3.40984
20
-4.08465
11
3.40984
21
-4.14567
0
LINE
8
BLACK
6
CONTINUOUS
10
2.72677
20
-4.14567
11
2.6874
21
-4.14567
0
LINE
8
BLACK
6
CONTINUOUS
10
2.6874
20
-4.14567
11
2.6874
21
-4.08465
0
LINE
8
BLACK
6
CONTINUOUS
10
2.6874
20
-4.08465
11
2.72677
21
-4.08465
0
LINE
8
BLACK
6
CONTINUOUS
10
2.72677
20
-4.08465
11
2.72677
21
-4.14567
0
LINE
8
BLACK
6
CONTINUOUS
10
5.00394
20
-4.14567
11
4.96457
21
-4.14567
0
LINE
8
BLACK
6
CONTINUOUS
10
4.96457
20
-4.14567
11
4.96457
21
-4.08465
0
LINE
8
BLACK
6
CONTINUOUS
10
4.96457
20
-4.08465
11
5.00394
21
-4.08465
0
LINE
8
BLACK
6
CONTINUOUS
10
5.00394
20
-4.08465
11
5.00394
21
-4.14567
0
LINE
8
BLACK
6
CONTINUOUS
10
2.60079
20
-4.14567
11
2.56142
21
-4.14567
0
LINE
8
BLACK
6
CONTINUOUS
10
2.56142
20
-4.14567
11
2.56142
21
-4.08465
0
LINE
8
BLACK
6
CONTINUOUS
10
2.56142
20
-4.08465
11
2.60079
21
-4.08465
0
LINE
8
BLACK
6
CONTINUOUS
10
2.60079
20
-4.08465
11
2.60079
21
-4.14567
0
LINE
8
BLACK
6
CONTINUOUS
10
2.27165
20
-4.14567
11
2.23228
21
-4.14567
0
LINE
8
BLACK
6
CONTINUOUS
10
2.23228
20
-4.14567
11
2.23228
21
-4.08465
0
LINE
8
BLACK
6
CONTINUOUS
10
2.23228
20
-4.08465
11
2.27165
21
-4.08465
0
LINE
8
BLACK
6
CONTINUOUS
10
2.27165
20
-4.08465
11
2.27165
21
-4.14567
0
LINE
8
BLACK
6
CONTINUOUS
10
3.86535
20
-4.14567
11
3.82598
21
-4.14567
0
LINE
8
BLACK
6
CONTINUOUS
10
3.82598
20
-4.14567
11
3.82598
21
-4.08465
0
LINE
8
BLACK
6
CONTINUOUS
10
3.82598
20
-4.08465
11
3.86535
21
-4.08465
0
LINE
8
BLACK
6
CONTINUOUS
10
3.86535
20
-4.08465
11
3.86535
21
-4.14567
0
LINE
8
BLACK
6
CONTINUOUS
10
4.09291
20
-4.14567
11
4.05354
21
-4.14567
0
LINE
8
BLACK
6
CONTINUOUS
10
4.05354
20
-4.14567
11
4.05354
21
-4.08465
0
LINE
8
BLACK
6
CONTINUOUS
10
4.05354
20
-4.08465
11
4.09291
21
-4.08465
0
LINE
8
BLACK
6
CONTINUOUS
10
4.09291
20
-4.08465
11
4.09291
21
-4.14567
0
LINE
8
BLACK
6
CONTINUOUS
10
2.14567
20
-4.14567
11
2.1063
21
-4.14567
0
LINE
8
BLACK
6
CONTINUOUS
10
2.1063
20
-4.14567
11
2.1063
21
-4.08465
0
LINE
8
BLACK
6
CONTINUOUS
10
2.1063
20
-4.08465
11
2.14567
21
-4.08465
0
LINE
8
BLACK
6
CONTINUOUS
10
2.14567
20
-4.08465
11
2.14567
21
-4.14567
0
LINE
8
BLACK
6
CONTINUOUS
10
4.77598
20
-4.14567
11
4.73661
21
-4.14567
0
LINE
8
BLACK
6
CONTINUOUS
10
4.73661
20
-4.14567
11
4.73661
21
-4.08465
0
LINE
8
BLACK
6
CONTINUOUS
10
4.73661
20
-4.08465
11
4.77598
21
-4.08465
0
LINE
8
BLACK
6
CONTINUOUS
10
4.77598
20
-4.08465
11
4.77598
21
-4.14567
0
LINE
8
BLACK
6
CONTINUOUS
10
1.81614
20
-4.14567
11
1.77677
21
-4.14567
0
LINE
8
BLACK
6
CONTINUOUS
10
1.77677
20
-4.14567
11
1.77677
21
-4.08465
0
LINE
8
BLACK
6
CONTINUOUS
10
1.77677
20
-4.08465
11
1.81614
21
-4.08465
0
LINE
8
BLACK
6
CONTINUOUS
10
1.81614
20
-4.08465
11
1.81614
21
-4.14567
0
LINE
8
BLACK
6
CONTINUOUS
10
2.82874
20
-4.14567
11
2.78937
21
-4.14567
0
LINE
8
BLACK
6
CONTINUOUS
10
2.78937
20
-4.14567
11
2.78937
21
-4.08465
0
LINE
8
BLACK
6
CONTINUOUS
10
2.78937
20
-4.08465
11
2.82874
21
-4.08465
0
LINE
8
BLACK
6
CONTINUOUS
10
2.82874
20
-4.08465
11
2.82874
21
-4.14567
0
LINE
8
BLACK
6
CONTINUOUS
10
2.95472
20
-4.14567
11
2.91535
21
-4.14567
0
LINE
8
BLACK
6
CONTINUOUS
10
2.91535
20
-4.14567
11
2.91535
21
-4.08465
0
LINE
8
BLACK
6
CONTINUOUS
10
2.91535
20
-4.08465
11
2.95472
21
-4.08465
0
LINE
8
BLACK
6
CONTINUOUS
10
2.95472
20
-4.08465
11
2.95472
21
-4.14567
0
LINE
8
BLACK
6
CONTINUOUS
10
4.32087
20
-4.14567
11
4.2815
21
-4.14567
0
LINE
8
BLACK
6
CONTINUOUS
10
4.2815
20
-4.14567
11
4.2815
21
-4.08465
0
LINE
8
BLACK
6
CONTINUOUS
10
4.2815
20
-4.08465
11
4.32087
21
-4.08465
0
LINE
8
BLACK
6
CONTINUOUS
10
4.32087
20
-4.08465
11
4.32087
21
-4.14567
0
LINE
8
BLACK
6
CONTINUOUS
10
3.28386
20
-4.14567
11
3.24449
21
-4.14567
0
LINE
8
BLACK
6
CONTINUOUS
10
3.24449
20
-4.14567
11
3.24449
21
-4.08465
0
LINE
8
BLACK
6
CONTINUOUS
10
3.24449
20
-4.08465
11
3.28386
21
-4.08465
0
LINE
8
BLACK
6
CONTINUOUS
10
3.28386
20
-4.08465
11
3.28386
21
-4.14567
0
LINE
8
BLACK
6
CONTINUOUS
10
4.19488
20
-4.14567
11
4.15551
21
-4.14567
0
LINE
8
BLACK
6
CONTINUOUS
10
4.15551
20
-4.14567
11
4.15551
21
-4.08465
0
LINE
8
BLACK
6
CONTINUOUS
10
4.15551
20
-4.08465
11
4.19488
21
-4.08465
0
LINE
8
BLACK
6
CONTINUOUS
10
4.19488
20
-4.08465
11
4.19488
21
-4.14567
0
LINE
8
BLACK
6
CONTINUOUS
10
3.0563
20
-4.14567
11
3.01693
21
-4.14567
0
LINE
8
BLACK
6
CONTINUOUS
10
3.01693
20
-4.14567
11
3.01693
21
-4.08465
0
LINE
8
BLACK
6
CONTINUOUS
10
3.01693
20
-4.08465
11
3.0563
21
-4.08465
0
LINE
8
BLACK
6
CONTINUOUS
10
3.0563
20
-4.08465
11
3.0563
21
-4.14567
0
LINE
8
BLACK
6
CONTINUOUS
10
1.91811
20
-4.14567
11
1.87874
21
-4.14567
0
LINE
8
BLACK
6
CONTINUOUS
10
1.87874
20
-4.14567
11
1.87874
21
-4.08465
0
LINE
8
BLACK
6
CONTINUOUS
10
1.87874
20
-4.08465
11
1.91811
21
-4.08465
0
LINE
8
BLACK
6
CONTINUOUS
10
1.91811
20
-4.08465
11
1.91811
21
-4.14567
0
LINE
8
BLACK
6
CONTINUOUS
10
3.18228
20
-4.14567
11
3.14291
21
-4.14567
0
LINE
8
BLACK
6
CONTINUOUS
10
3.14291
20
-4.14567
11
3.14291
21
-4.08465
0
LINE
8
BLACK
6
CONTINUOUS
10
3.14291
20
-4.08465
11
3.18228
21
-4.08465
0
LINE
8
BLACK
6
CONTINUOUS
10
3.18228
20
-4.08465
11
3.18228
21
-4.14567
0
LINE
8
BLACK
6
CONTINUOUS
10
2.04409
20
-4.14567
11
2.00472
21
-4.14567
0
LINE
8
BLACK
6
CONTINUOUS
10
2.00472
20
-4.14567
11
2.00472
21
-4.08465
0
LINE
8
BLACK
6
CONTINUOUS
10
2.00472
20
-4.08465
11
2.04409
21
-4.08465
0
LINE
8
BLACK
6
CONTINUOUS
10
2.04409
20
-4.08465
11
2.04409
21
-4.14567
0
LINE
8
BLACK
6
CONTINUOUS
10
4.79134
20
-4.03543
11
4.73622
21
-4.03543
0
LINE
8
BLACK
6
CONTINUOUS
10
4.73622
20
-4.03543
11
4.73622
21
-3.98819
0
LINE
8
BLACK
6
CONTINUOUS
10
4.73622
20
-3.98819
11
4.79134
21
-3.98819
0
LINE
8
BLACK
6
CONTINUOUS
10
4.79134
20
-3.98819
11
4.79134
21
-4.03543
0
LINE
8
BLACK
6
CONTINUOUS
10
5.18504
20
-4.03543
11
5.09843
21
-4.03543
0
LINE
8
BLACK
6
CONTINUOUS
10
5.09843
20
-4.03543
11
5.09843
21
-3.98819
0
LINE
8
BLACK
6
CONTINUOUS
10
5.09843
20
-3.98819
11
5.18504
21
-3.98819
0
LINE
8
BLACK
6
CONTINUOUS
10
5.18504
20
-3.98819
11
5.18504
21
-4.03543
0
LINE
8
BLACK
6
CONTINUOUS
10
4.77559
20
-3.98031
11
4.7126
21
-3.98031
0
LINE
8
BLACK
6
CONTINUOUS
10
4.7126
20
-3.98031
11
4.7126
21
-3.95276
0
LINE
8
BLACK
6
CONTINUOUS
10
4.7126
20
-3.95276
11
4.77559
21
-3.95276
0
LINE
8
BLACK
6
CONTINUOUS
10
4.77559
20
-3.95276
11
4.77559
21
-3.98031
0
LINE
8
BLACK
6
CONTINUOUS
10
4.77559
20
-3.93701
11
4.7126
21
-3.93701
0
LINE
8
BLACK
6
CONTINUOUS
10
4.7126
20
-3.93701
11
4.7126
21
-3.90945
0
LINE
8
BLACK
6
CONTINUOUS
10
4.7126
20
-3.90945
11
4.77559
21
-3.90945
0
LINE
8
BLACK
6
CONTINUOUS
10
4.77559
20
-3.90945
11
4.77559
21
-3.93701
0
LINE
8
BLACK
6
CONTINUOUS
10
4.77559
20
-3.8937
11
4.7126
21
-3.8937
0
LINE
8
BLACK
6
CONTINUOUS
10
4.7126
20
-3.8937
11
4.7126
21
-3.86614
0
LINE
8
BLACK
6
CONTINUOUS
10
4.7126
20
-3.86614
11
4.77559
21
-3.86614
0
LINE
8
BLACK
6
CONTINUOUS
10
4.77559
20
-3.86614
11
4.77559
21
-3.8937
0
LINE
8
BLACK
6
CONTINUOUS
10
4.77559
20
-3.85039
11
4.7126
21
-3.85039
0
LINE
8
BLACK
6
CONTINUOUS
10
4.7126
20
-3.85039
11
4.7126
21
-3.82283
0
LINE
8
BLACK
6
CONTINUOUS
10
4.7126
20
-3.82283
11
4.77559
21
-3.82283
0
LINE
8
BLACK
6
CONTINUOUS
10
4.77559
20
-3.82283
11
4.77559
21
-3.85039
0
LINE
8
BLACK
6
CONTINUOUS
10
4.77559
20
-3.80709
11
4.7126
21
-3.80709
0
LINE
8
BLACK
6
CONTINUOUS
10
4.7126
20
-3.80709
11
4.7126
21
-3.77953
0
LINE
8
BLACK
6
CONTINUOUS
10
4.7126
20
-3.77953
11
4.77559
21
-3.77953
0
LINE
8
BLACK
6
CONTINUOUS
10
4.77559
20
-3.77953
11
4.77559
21
-3.80709
0
LINE
8
BLACK
6
CONTINUOUS
10
4.77559
20
-3.76378
11
4.7126
21
-3.76378
0
LINE
8
BLACK
6
CONTINUOUS
10
4.7126
20
-3.76378
11
4.7126
21
-3.73622
0
LINE
8
BLACK
6
CONTINUOUS
10
4.7126
20
-3.73622
11
4.77559
21
-3.73622
0
LINE
8
BLACK
6
CONTINUOUS
10
4.77559
20
-3.73622
11
4.77559
21
-3.76378
0
LINE
8
BLACK
6
CONTINUOUS
10
4.77559
20
-3.72047
11
4.7126
21
-3.72047
0
LINE
8
BLACK
6
CONTINUOUS
10
4.7126
20
-3.72047
11
4.7126
21
-3.69291
0
LINE
8
BLACK
6
CONTINUOUS
10
4.7126
20
-3.69291
11
4.77559
21
-3.69291
0
LINE
8
BLACK
6
CONTINUOUS
10
4.77559
20
-3.69291
11
4.77559
21
-3.72047
0
LINE
8
BLACK
6
CONTINUOUS
10
4.77559
20
-3.67717
11
4.7126
21
-3.67717
0
LINE
8
BLACK
6
CONTINUOUS
10
4.7126
20
-3.67717
11
4.7126
21
-3.64961
0
LINE
8
BLACK
6
CONTINUOUS
10
4.7126
20
-3.64961
11
4.77559
21
-3.64961
0
LINE
8
BLACK
6
CONTINUOUS
10
4.77559
20
-3.64961
11
4.77559
21
-3.67717
0
LINE
8
BLACK
6
CONTINUOUS
10
4.77559
20
-3.63386
11
4.7126
21
-3.63386
0
LINE
8
BLACK
6
CONTINUOUS
10
4.7126
20
-3.63386
11
4.7126
21
-3.6063
0
LINE
8
BLACK
6
CONTINUOUS
10
4.7126
20
-3.6063
11
4.77559
21
-3.6063
0
LINE
8
BLACK
6
CONTINUOUS
10
4.77559
20
-3.6063
11
4.77559
21
-3.63386
0
LINE
8
BLACK
6
CONTINUOUS
10
1.85841
20
-3.44091
11
1.83057
21
-3.46875
0
LINE
8
BLACK
6
CONTINUOUS
10
1.83057
20
-3.46875
11
1.78742
21
-3.4256
0
LINE
8
BLACK
6
CONTINUOUS
10
1.78742
20
-3.4256
11
1.81526
21
-3.39776
0
LINE
8
BLACK
6
CONTINUOUS
10
1.81526
20
-3.39776
11
1.85841
21
-3.44091
0
LINE
8
BLACK
6
CONTINUOUS
10
4.79134
20
-3.4685
11
4.73622
21
-3.4685
0
LINE
8
BLACK
6
CONTINUOUS
10
4.73622
20
-3.4685
11
4.73622
21
-3.40551
0
LINE
8
BLACK
6
CONTINUOUS
10
4.73622
20
-3.40551
11
4.79134
21
-3.40551
0
LINE
8
BLACK
6
CONTINUOUS
10
4.79134
20
-3.40551
11
4.79134
21
-3.4685
0
LINE
8
BLACK
6
CONTINUOUS
10
5.18504
20
-3.4252
11
5.09843
21
-3.4252
0
LINE
8
BLACK
6
CONTINUOUS
10
5.09843
20
-3.4252
11
5.09843
21
-3.37795
0
LINE
8
BLACK
6
CONTINUOUS
10
5.09843
20
-3.37795
11
5.18504
21
-3.37795
0
LINE
8
BLACK
6
CONTINUOUS
10
5.18504
20
-3.37795
11
5.18504
21
-3.4252
0
LINE
8
BLACK
6
CONTINUOUS
10
1.94749
20
-3.35182
11
1.91966
21
-3.37966
0
LINE
8
BLACK
6
CONTINUOUS
10
1.91966
20
-3.37966
11
1.87651
21
-3.33651
0
LINE
8
BLACK
6
CONTINUOUS
10
1.87651
20
-3.33651
11
1.90434
21
-3.30867
0
LINE
8
BLACK
6
CONTINUOUS
10
1.90434
20
-3.30867
11
1.94749
21
-3.35182
0
LINE
8
BLACK
6
CONTINUOUS
10
5.38001
20
-3.35039
11
5.37986
21
-3.35039
0
LINE
8
BLACK
6
CONTINUOUS
10
5.37986
20
-3.35039
11
5.37996
21
-3.35177
0
LINE
8
BLACK
6
CONTINUOUS
10
5.37996
20
-3.35177
11
5.37878
21
-3.35684
0
LINE
8
BLACK
6
CONTINUOUS
10
5.37878
20
-3.35684
11
5.37616
21
-3.36135
0
LINE
8
BLACK
6
CONTINUOUS
10
5.37616
20
-3.36135
11
5.37234
21
-3.36488
0
LINE
8
BLACK
6
CONTINUOUS
10
5.37234
20
-3.36488
11
5.36764
21
-3.36714
0
LINE
8
BLACK
6
CONTINUOUS
10
5.36764
20
-3.36714
11
5.36249
21
-3.36791
0
LINE
8
BLACK
6
CONTINUOUS
10
5.36249
20
-3.36791
11
5.33651
21
-3.36791
0
LINE
8
BLACK
6
CONTINUOUS
10
5.33651
20
-3.36791
11
5.33377
21
-3.3677
0
LINE
8
BLACK
6
CONTINUOUS
10
5.33377
20
-3.3677
11
5.3288
21
-3.36613
0
LINE
8
BLACK
6
CONTINUOUS
10
5.3288
20
-3.36613
11
5.32451
21
-3.36316
0
LINE
8
BLACK
6
CONTINUOUS
10
5.32451
20
-3.36316
11
5.32129
21
-3.35907
0
LINE
8
BLACK
6
CONTINUOUS
10
5.32129
20
-3.35907
11
5.31941
21
-3.35422
0
LINE
8
BLACK
6
CONTINUOUS
10
5.31941
20
-3.35422
11
5.31914
21
-3.35039
0
LINE
8
BLACK
6
CONTINUOUS
10
5.31914
20
-3.35039
11
5.31899
21
-3.35039
0
LINE
8
BLACK
6
CONTINUOUS
10
5.31899
20
-3.35039
11
5.31899
21
-3.30315
0
LINE
8
BLACK
6
CONTINUOUS
10
5.31899
20
-3.30315
11
5.38001
21
-3.30315
0
LINE
8
BLACK
6
CONTINUOUS
10
5.38001
20
-3.30315
11
5.38001
21
-3.35039
0
LINE
8
BLACK
6
CONTINUOUS
10
5.24596
20
-3.28662
11
5.25104
21
-3.28814
0
LINE
8
BLACK
6
CONTINUOUS
10
5.25104
20
-3.28814
11
5.25549
21
-3.29103
0
LINE
8
BLACK
6
CONTINUOUS
10
5.25549
20
-3.29103
11
5.25895
21
-3.29504
0
LINE
8
BLACK
6
CONTINUOUS
10
5.25895
20
-3.29504
11
5.26115
21
-3.29987
0
LINE
8
BLACK
6
CONTINUOUS
10
5.26115
20
-3.29987
11
5.2619
21
-3.30512
0
LINE
8
BLACK
6
CONTINUOUS
10
5.2619
20
-3.30512
11
5.2619
21
-3.31693
0
LINE
8
BLACK
6
CONTINUOUS
10
5.2619
20
-3.31693
11
5.2619
21
-3.31716
0
LINE
8
BLACK
6
CONTINUOUS
10
5.2619
20
-3.31716
11
5.26108
21
-3.3224
0
LINE
8
BLACK
6
CONTINUOUS
10
5.26108
20
-3.3224
11
5.25883
21
-3.3272
0
LINE
8
BLACK
6
CONTINUOUS
10
5.25883
20
-3.3272
11
5.25532
21
-3.33117
0
LINE
8
BLACK
6
CONTINUOUS
10
5.25532
20
-3.33117
11
5.25084
21
-3.334
0
LINE
8
BLACK
6
CONTINUOUS
10
5.25084
20
-3.334
11
5.24574
21
-3.33546
0
LINE
8
BLACK
6
CONTINUOUS
10
5.24574
20
-3.33546
11
5.24044
21
-3.33542
0
LINE
8
BLACK
6
CONTINUOUS
10
5.24044
20
-3.33542
11
5.23536
21
-3.33391
0
LINE
8
BLACK
6
CONTINUOUS
10
5.23536
20
-3.33391
11
5.23091
21
-3.33102
0
LINE
8
BLACK
6
CONTINUOUS
10
5.23091
20
-3.33102
11
5.22745
21
-3.327
0
LINE
8
BLACK
6
CONTINUOUS
10
5.22745
20
-3.327
11
5.22525
21
-3.32218
0
LINE
8
BLACK
6
CONTINUOUS
10
5.22525
20
-3.32218
11
5.2245
21
-3.31693
0
LINE
8
BLACK
6
CONTINUOUS
10
5.2245
20
-3.31693
11
5.2245
21
-3.30512
0
LINE
8
BLACK
6
CONTINUOUS
10
5.2245
20
-3.30512
11
5.2245
21
-3.30489
0
LINE
8
BLACK
6
CONTINUOUS
10
5.2245
20
-3.30489
11
5.22532
21
-3.29965
0
LINE
8
BLACK
6
CONTINUOUS
10
5.22532
20
-3.29965
11
5.22757
21
-3.29485
0
LINE
8
BLACK
6
CONTINUOUS
10
5.22757
20
-3.29485
11
5.23108
21
-3.29088
0
LINE
8
BLACK
6
CONTINUOUS
10
5.23108
20
-3.29088
11
5.23556
21
-3.28805
0
LINE
8
BLACK
6
CONTINUOUS
10
5.23556
20
-3.28805
11
5.24066
21
-3.28659
0
LINE
8
BLACK
6
CONTINUOUS
10
5.24066
20
-3.28659
11
5.24596
21
-3.28662
0
LINE
8
BLACK
6
CONTINUOUS
10
1.71226
20
-3.29476
11
1.68442
21
-3.32259
0
LINE
8
BLACK
6
CONTINUOUS
10
1.68442
20
-3.32259
11
1.64127
21
-3.27944
0
LINE
8
BLACK
6
CONTINUOUS
10
1.64127
20
-3.27944
11
1.66911
21
-3.25161
0
LINE
8
BLACK
6
CONTINUOUS
10
1.66911
20
-3.25161
11
1.71226
21
-3.29476
0
LINE
8
BLACK
6
CONTINUOUS
10
5.06603
20
-3.29921
11
5.02666
21
-3.29921
0
LINE
8
BLACK
6
CONTINUOUS
10
5.02666
20
-3.29921
11
5.02666
21
-3.23819
0
LINE
8
BLACK
6
CONTINUOUS
10
5.02666
20
-3.23819
11
5.06603
21
-3.23819
0
LINE
8
BLACK
6
CONTINUOUS
10
5.06603
20
-3.23819
11
5.06603
21
-3.29921
0
LINE
8
BLACK
6
CONTINUOUS
10
4.94005
20
-3.29921
11
4.90068
21
-3.29921
0
LINE
8
BLACK
6
CONTINUOUS
10
4.90068
20
-3.29921
11
4.90068
21
-3.23819
0
LINE
8
BLACK
6
CONTINUOUS
10
4.90068
20
-3.23819
11
4.94005
21
-3.23819
0
LINE
8
BLACK
6
CONTINUOUS
10
4.94005
20
-3.23819
11
4.94005
21
-3.29921
0
LINE
8
BLACK
6
CONTINUOUS
10
5.38001
20
-3.2815
11
5.31899
21
-3.2815
0
LINE
8
BLACK
6
CONTINUOUS
10
5.31899
20
-3.2815
11
5.31899
21
-3.22244
0
LINE
8
BLACK
6
CONTINUOUS
10
5.31899
20
-3.22244
11
5.38001
21
-3.22244
0
LINE
8
BLACK
6
CONTINUOUS
10
5.38001
20
-3.22244
11
5.38001
21
-3.2815
0
LINE
8
BLACK
6
CONTINUOUS
10
1.99858
20
-3.23004
11
1.95543
21
-3.27319
0
LINE
8
BLACK
6
CONTINUOUS
10
1.95543
20
-3.27319
11
1.92759
21
-3.24535
0
LINE
8
BLACK
6
CONTINUOUS
10
1.92759
20
-3.24535
11
1.97074
21
-3.2022
0
LINE
8
BLACK
6
CONTINUOUS
10
1.97074
20
-3.2022
11
1.99858
21
-3.23004
0
LINE
8
BLACK
6
CONTINUOUS
10
1.60497
20
-3.23004
11
1.56182
21
-3.27319
0
LINE
8
BLACK
6
CONTINUOUS
10
1.56182
20
-3.27319
11
1.53398
21
-3.24535
0
LINE
8
BLACK
6
CONTINUOUS
10
1.53398
20
-3.24535
11
1.57713
21
-3.2022
0
LINE
8
BLACK
6
CONTINUOUS
10
1.57713
20
-3.2022
11
1.60497
21
-3.23004
0
LINE
8
BLACK
6
CONTINUOUS
10
5.26977
20
-3.27165
11
5.21663
21
-3.27165
0
LINE
8
BLACK
6
CONTINUOUS
10
5.21663
20
-3.27165
11
5.21663
21
-3.25591
0
LINE
8
BLACK
6
CONTINUOUS
10
5.21663
20
-3.25591
11
5.26977
21
-3.25591
0
LINE
8
BLACK
6
CONTINUOUS
10
5.26977
20
-3.25591
11
5.26977
21
-3.27165
0
LINE
8
BLACK
6
CONTINUOUS
10
5.26977
20
-3.24606
11
5.21663
21
-3.24606
0
LINE
8
BLACK
6
CONTINUOUS
10
5.21663
20
-3.24606
11
5.21663
21
-3.23031
0
LINE
8
BLACK
6
CONTINUOUS
10
5.21663
20
-3.23031
11
5.26977
21
-3.23031
0
LINE
8
BLACK
6
CONTINUOUS
10
5.26977
20
-3.23031
11
5.26977
21
-3.24606
0
LINE
8
BLACK
6
CONTINUOUS
10
1.80134
20
-3.20567
11
1.7735
21
-3.23351
0
LINE
8
BLACK
6
CONTINUOUS
10
1.7735
20
-3.23351
11
1.73035
21
-3.19036
0
LINE
8
BLACK
6
CONTINUOUS
10
1.73035
20
-3.19036
11
1.75819
21
-3.16252
0
LINE
8
BLACK
6
CONTINUOUS
10
1.75819
20
-3.16252
11
1.80134
21
-3.20567
0
LINE
8
BLACK
6
CONTINUOUS
10
5.26977
20
-3.22047
11
5.21663
21
-3.22047
0
LINE
8
BLACK
6
CONTINUOUS
10
5.21663
20
-3.22047
11
5.21663
21
-3.20472
0
LINE
8
BLACK
6
CONTINUOUS
10
5.21663
20
-3.20472
11
5.26977
21
-3.20472
0
LINE
8
BLACK
6
CONTINUOUS
10
5.26977
20
-3.20472
11
5.26977
21
-3.22047
0
LINE
8
BLACK
6
CONTINUOUS
10
5.38001
20
-3.20276
11
5.31899
21
-3.20276
0
LINE
8
BLACK
6
CONTINUOUS
10
5.31899
20
-3.20276
11
5.31899
21
-3.1437
0
LINE
8
BLACK
6
CONTINUOUS
10
5.31899
20
-3.1437
11
5.38001
21
-3.1437
0
LINE
8
BLACK
6
CONTINUOUS
10
5.38001
20
-3.1437
11
5.38001
21
-3.20276
0
LINE
8
BLACK
6
CONTINUOUS
10
5.26977
20
-3.19488
11
5.21663
21
-3.19488
0
LINE
8
BLACK
6
CONTINUOUS
10
5.21663
20
-3.19488
11
5.21663
21
-3.17913
0
LINE
8
BLACK
6
CONTINUOUS
10
5.21663
20
-3.17913
11
5.26977
21
-3.17913
0
LINE
8
BLACK
6
CONTINUOUS
10
5.26977
20
-3.17913
11
5.26977
21
-3.19488
0
LINE
8
BLACK
6
CONTINUOUS
10
1.51588
20
-3.14096
11
1.47273
21
-3.18411
0
LINE
8
BLACK
6
CONTINUOUS
10
1.47273
20
-3.18411
11
1.44489
21
-3.15627
0
LINE
8
BLACK
6
CONTINUOUS
10
1.44489
20
-3.15627
11
1.48804
21
-3.11312
0
LINE
8
BLACK
6
CONTINUOUS
10
1.48804
20
-3.11312
11
1.51588
21
-3.14096
0
LINE
8
BLACK
6
CONTINUOUS
10
1.9095
20
-3.14096
11
1.86635
21
-3.18411
0
LINE
8
BLACK
6
CONTINUOUS
10
1.86635
20
-3.18411
11
1.83851
21
-3.15627
0
LINE
8
BLACK
6
CONTINUOUS
10
1.83851
20
-3.15627
11
1.88166
21
-3.11312
0
LINE
8
BLACK
6
CONTINUOUS
10
1.88166
20
-3.11312
11
1.9095
21
-3.14096
0
LINE
8
BLACK
6
CONTINUOUS
10
5.26977
20
-3.16929
11
5.21663
21
-3.16929
0
LINE
8
BLACK
6
CONTINUOUS
10
5.21663
20
-3.16929
11
5.21663
21
-3.15354
0
LINE
8
BLACK
6
CONTINUOUS
10
5.21663
20
-3.15354
11
5.26977
21
-3.15354
0
LINE
8
BLACK
6
CONTINUOUS
10
5.26977
20
-3.15354
11
5.26977
21
-3.16929
0
LINE
8
BLACK
6
CONTINUOUS
10
5.24596
20
-3.08977
11
5.25104
21
-3.09129
0
LINE
8
BLACK
6
CONTINUOUS
10
5.25104
20
-3.09129
11
5.25549
21
-3.09418
0
LINE
8
BLACK
6
CONTINUOUS
10
5.25549
20
-3.09418
11
5.25895
21
-3.09819
0
LINE
8
BLACK
6
CONTINUOUS
10
5.25895
20
-3.09819
11
5.26115
21
-3.10302
0
LINE
8
BLACK
6
CONTINUOUS
10
5.26115
20
-3.10302
11
5.2619
21
-3.10827
0
LINE
8
BLACK
6
CONTINUOUS
10
5.2619
20
-3.10827
11
5.2619
21
-3.12008
0
LINE
8
BLACK
6
CONTINUOUS
10
5.2619
20
-3.12008
11
5.2619
21
-3.12031
0
LINE
8
BLACK
6
CONTINUOUS
10
5.2619
20
-3.12031
11
5.26108
21
-3.12555
0
LINE
8
BLACK
6
CONTINUOUS
10
5.26108
20
-3.12555
11
5.25883
21
-3.13035
0
LINE
8
BLACK
6
CONTINUOUS
10
5.25883
20
-3.13035
11
5.25532
21
-3.13432
0
LINE
8
BLACK
6
CONTINUOUS
10
5.25532
20
-3.13432
11
5.25084
21
-3.13715
0
LINE
8
BLACK
6
CONTINUOUS
10
5.25084
20
-3.13715
11
5.24574
21
-3.13861
0
LINE
8
BLACK
6
CONTINUOUS
10
5.24574
20
-3.13861
11
5.24044
21
-3.13857
0
LINE
8
BLACK
6
CONTINUOUS
10
5.24044
20
-3.13857
11
5.23536
21
-3.13705
0
LINE
8
BLACK
6
CONTINUOUS
10
5.23536
20
-3.13705
11
5.23091
21
-3.13417
0
LINE
8
BLACK
6
CONTINUOUS
10
5.23091
20
-3.13417
11
5.22745
21
-3.13015
0
LINE
8
BLACK
6
CONTINUOUS
10
5.22745
20
-3.13015
11
5.22525
21
-3.12533
0
LINE
8
BLACK
6
CONTINUOUS
10
5.22525
20
-3.12533
11
5.2245
21
-3.12008
0
LINE
8
BLACK
6
CONTINUOUS
10
5.2245
20
-3.12008
11
5.2245
21
-3.10827
0
LINE
8
BLACK
6
CONTINUOUS
10
5.2245
20
-3.10827
11
5.2245
21
-3.10804
0
LINE
8
BLACK
6
CONTINUOUS
10
5.2245
20
-3.10804
11
5.22532
21
-3.1028
0
LINE
8
BLACK
6
CONTINUOUS
10
5.22532
20
-3.1028
11
5.22757
21
-3.098
0
LINE
8
BLACK
6
CONTINUOUS
10
5.22757
20
-3.098
11
5.23108
21
-3.09403
0
LINE
8
BLACK
6
CONTINUOUS
10
5.23108
20
-3.09403
11
5.23556
21
-3.0912
0
LINE
8
BLACK
6
CONTINUOUS
10
5.23556
20
-3.0912
11
5.24066
21
-3.08974
0
LINE
8
BLACK
6
CONTINUOUS
10
5.24066
20
-3.08974
11
5.24596
21
-3.08977
0
LINE
8
BLACK
6
CONTINUOUS
10
1.75112
20
-3.08389
11
1.70797
21
-3.12704
0
LINE
8
BLACK
6
CONTINUOUS
10
1.70797
20
-3.12704
11
1.68013
21
-3.0992
0
LINE
8
BLACK
6
CONTINUOUS
10
1.68013
20
-3.0992
11
1.72328
21
-3.05605
0
LINE
8
BLACK
6
CONTINUOUS
10
1.72328
20
-3.05605
11
1.75112
21
-3.08389
0
LINE
8
BLACK
6
CONTINUOUS
10
2.14474
20
-3.08389
11
2.10159
21
-3.12704
0
LINE
8
BLACK
6
CONTINUOUS
10
2.10159
20
-3.12704
11
2.07375
21
-3.0992
0
LINE
8
BLACK
6
CONTINUOUS
10
2.07375
20
-3.0992
11
2.1169
21
-3.05605
0
LINE
8
BLACK
6
CONTINUOUS
10
2.1169
20
-3.05605
11
2.14474
21
-3.08389
0
LINE
8
BLACK
6
CONTINUOUS
10
5.36523
20
-3.0575
11
5.3702
21
-3.05907
0
LINE
8
BLACK
6
CONTINUOUS
10
5.3702
20
-3.05907
11
5.37448
21
-3.06203
0
LINE
8
BLACK
6
CONTINUOUS
10
5.37448
20
-3.06203
11
5.37771
21
-3.06612
0
LINE
8
BLACK
6
CONTINUOUS
10
5.37771
20
-3.06612
11
5.37959
21
-3.07098
0
LINE
8
BLACK
6
CONTINUOUS
10
5.37959
20
-3.07098
11
5.37986
21
-3.0748
0
LINE
8
BLACK
6
CONTINUOUS
10
5.37986
20
-3.0748
11
5.38001
21
-3.0748
0
LINE
8
BLACK
6
CONTINUOUS
10
5.38001
20
-3.0748
11
5.38001
21
-3.12205
0
LINE
8
BLACK
6
CONTINUOUS
10
5.38001
20
-3.12205
11
5.31899
21
-3.12205
0
LINE
8
BLACK
6
CONTINUOUS
10
5.31899
20
-3.12205
11
5.31899
21
-3.0748
0
LINE
8
BLACK
6
CONTINUOUS
10
5.31899
20
-3.0748
11
5.31914
21
-3.0748
0
LINE
8
BLACK
6
CONTINUOUS
10
5.31914
20
-3.0748
11
5.31904
21
-3.07343
0
LINE
8
BLACK
6
CONTINUOUS
10
5.31904
20
-3.07343
11
5.32022
21
-3.06835
0
LINE
8
BLACK
6
CONTINUOUS
10
5.32022
20
-3.06835
11
5.32283
21
-3.06385
0
LINE
8
BLACK
6
CONTINUOUS
10
5.32283
20
-3.06385
11
5.32666
21
-3.06031
0
LINE
8
BLACK
6
CONTINUOUS
10
5.32666
20
-3.06031
11
5.33136
21
-3.05806
0
LINE
8
BLACK
6
CONTINUOUS
10
5.33136
20
-3.05806
11
5.33651
21
-3.05728
0
LINE
8
BLACK
6
CONTINUOUS
10
5.33651
20
-3.05728
11
5.36249
21
-3.05728
0
LINE
8
BLACK
6
CONTINUOUS
10
5.36249
20
-3.05728
11
5.36523
21
-3.0575
0
LINE
8
BLACK
6
CONTINUOUS
10
5.06603
20
-3.09252
11
5.02666
21
-3.09252
0
LINE
8
BLACK
6
CONTINUOUS
10
5.02666
20
-3.09252
11
5.02666
21
-3.0315
0
LINE
8
BLACK
6
CONTINUOUS
10
5.02666
20
-3.0315
11
5.06603
21
-3.0315
0
LINE
8
BLACK
6
CONTINUOUS
10
5.06603
20
-3.0315
11
5.06603
21
-3.09252
0
LINE
8
BLACK
6
CONTINUOUS
10
4.94005
20
-3.09252
11
4.90068
21
-3.09252
0
LINE
8
BLACK
6
CONTINUOUS
10
4.90068
20
-3.09252
11
4.90068
21
-3.0315
0
LINE
8
BLACK
6
CONTINUOUS
10
4.90068
20
-3.0315
11
4.94005
21
-3.0315
0
LINE
8
BLACK
6
CONTINUOUS
10
4.94005
20
-3.0315
11
4.94005
21
-3.09252
0
LINE
8
BLACK
6
CONTINUOUS
10
1.85841
20
-3.04815
11
1.83057
21
-3.07599
0
LINE
8
BLACK
6
CONTINUOUS
10
1.83057
20
-3.07599
11
1.78742
21
-3.03284
0
LINE
8
BLACK
6
CONTINUOUS
10
1.78742
20
-3.03284
11
1.81526
21
-3.005
0
LINE
8
BLACK
6
CONTINUOUS
10
1.81526
20
-3.005
11
1.85841
21
-3.04815
0
LINE
8
BLACK
6
CONTINUOUS
10
2.05565
20
-2.9948
11
2.0125
21
-3.03795
0
LINE
8
BLACK
6
CONTINUOUS
10
2.0125
20
-3.03795
11
1.98466
21
-3.01012
0
LINE
8
BLACK
6
CONTINUOUS
10
1.98466
20
-3.01012
11
2.02781
21
-2.96697
0
LINE
8
BLACK
6
CONTINUOUS
10
2.02781
20
-2.96697
11
2.05565
21
-2.9948
0
LINE
8
BLACK
6
CONTINUOUS
10
1.66203
20
-2.9948
11
1.61888
21
-3.03795
0
LINE
8
BLACK
6
CONTINUOUS
10
1.61888
20
-3.03795
11
1.59105
21
-3.01012
0
LINE
8
BLACK
6
CONTINUOUS
10
1.59105
20
-3.01012
11
1.6342
21
-2.96697
0
LINE
8
BLACK
6
CONTINUOUS
10
1.6342
20
-2.96697
11
1.66203
21
-2.9948
0
LINE
8
BLACK
6
CONTINUOUS
10
5.26916
20
-3.00592
11
5.27088
21
-3.00707
0
LINE
8
BLACK
6
CONTINUOUS
10
5.27088
20
-3.00707
11
5.27204
21
-3.00879
0
LINE
8
BLACK
6
CONTINUOUS
10
5.27204
20
-3.00879
11
5.27244
21
-3.01083
0
LINE
8
BLACK
6
CONTINUOUS
10
5.27244
20
-3.01083
11
5.27244
21
-3.02146
0
LINE
8
BLACK
6
CONTINUOUS
10
5.27244
20
-3.02146
11
5.27204
21
-3.02349
0
LINE
8
BLACK
6
CONTINUOUS
10
5.27204
20
-3.02349
11
5.27088
21
-3.02521
0
LINE
8
BLACK
6
CONTINUOUS
10
5.27088
20
-3.02521
11
5.26916
21
-3.02637
0
LINE
8
BLACK
6
CONTINUOUS
10
5.26916
20
-3.02637
11
5.26713
21
-3.02677
0
LINE
8
BLACK
6
CONTINUOUS
10
5.26713
20
-3.02677
11
5.25256
21
-3.02677
0
LINE
8
BLACK
6
CONTINUOUS
10
5.25256
20
-3.02677
11
5.25053
21
-3.02637
0
LINE
8
BLACK
6
CONTINUOUS
10
5.25053
20
-3.02637
11
5.2488
21
-3.02521
0
LINE
8
BLACK
6
CONTINUOUS
10
5.2488
20
-3.02521
11
5.24765
21
-3.02349
0
LINE
8
BLACK
6
CONTINUOUS
10
5.24765
20
-3.02349
11
5.24724
21
-3.02146
0
LINE
8
BLACK
6
CONTINUOUS
10
5.24724
20
-3.02146
11
5.24724
21
-3.01083
0
LINE
8
BLACK
6
CONTINUOUS
10
5.24724
20
-3.01083
11
5.24765
21
-3.00879
0
LINE
8
BLACK
6
CONTINUOUS
10
5.24765
20
-3.00879
11
5.2488
21
-3.00707
0
LINE
8
BLACK
6
CONTINUOUS
10
5.2488
20
-3.00707
11
5.25053
21
-3.00592
0
LINE
8
BLACK
6
CONTINUOUS
10
5.25053
20
-3.00592
11
5.25256
21
-3.00551
0
LINE
8
BLACK
6
CONTINUOUS
10
5.25256
20
-3.00551
11
5.26713
21
-3.00551
0
LINE
8
BLACK
6
CONTINUOUS
10
5.26713
20
-3.00551
11
5.26916
21
-3.00592
0
LINE
8
BLACK
6
CONTINUOUS
10
5.38543
20
-2.97802
11
5.38823
21
-2.97988
0
LINE
8
BLACK
6
CONTINUOUS
10
5.38823
20
-2.97988
11
5.39009
21
-2.98268
0
LINE
8
BLACK
6
CONTINUOUS
10
5.39009
20
-2.98268
11
5.39075
21
-2.98597
0
LINE
8
BLACK
6
CONTINUOUS
10
5.39075
20
-2.98597
11
5.39075
21
-3.00615
0
LINE
8
BLACK
6
CONTINUOUS
10
5.39075
20
-3.00615
11
5.39009
21
-3.00945
0
LINE
8
BLACK
6
CONTINUOUS
10
5.39009
20
-3.00945
11
5.38823
21
-3.01224
0
LINE
8
BLACK
6
CONTINUOUS
10
5.38823
20
-3.01224
11
5.38543
21
-3.01411
0
LINE
8
BLACK
6
CONTINUOUS
10
5.38543
20
-3.01411
11
5.38214
21
-3.01476
0
LINE
8
BLACK
6
CONTINUOUS
10
5.38214
20
-3.01476
11
5.36491
21
-3.01476
0
LINE
8
BLACK
6
CONTINUOUS
10
5.36491
20
-3.01476
11
5.36162
21
-3.01411
0
LINE
8
BLACK
6
CONTINUOUS
10
5.36162
20
-3.01411
11
5.35882
21
-3.01224
0
LINE
8
BLACK
6
CONTINUOUS
10
5.35882
20
-3.01224
11
5.35695
21
-3.00945
0
LINE
8
BLACK
6
CONTINUOUS
10
5.35695
20
-3.00945
11
5.3563
21
-3.00615
0
LINE
8
BLACK
6
CONTINUOUS
10
5.3563
20
-3.00615
11
5.3563
21
-2.98597
0
LINE
8
BLACK
6
CONTINUOUS
10
5.3563
20
-2.98597
11
5.35695
21
-2.98268
0
LINE
8
BLACK
6
CONTINUOUS
10
5.35695
20
-2.98268
11
5.35882
21
-2.97988
0
LINE
8
BLACK
6
CONTINUOUS
10
5.35882
20
-2.97988
11
5.36162
21
-2.97802
0
LINE
8
BLACK
6
CONTINUOUS
10
5.36162
20
-2.97802
11
5.36491
21
-2.97736
0
LINE
8
BLACK
6
CONTINUOUS
10
5.36491
20
-2.97736
11
5.38214
21
-2.97736
0
LINE
8
BLACK
6
CONTINUOUS
10
5.38214
20
-2.97736
11
5.38543
21
-2.97802
0
LINE
8
BLACK
6
CONTINUOUS
10
5.32342
20
-2.97802
11
5.32622
21
-2.97988
0
LINE
8
BLACK
6
CONTINUOUS
10
5.32622
20
-2.97988
11
5.32808
21
-2.98268
0
LINE
8
BLACK
6
CONTINUOUS
10
5.32808
20
-2.98268
11
5.32874
21
-2.98597
0
LINE
8
BLACK
6
CONTINUOUS
10
5.32874
20
-2.98597
11
5.32874
21
-3.00615
0
LINE
8
BLACK
6
CONTINUOUS
10
5.32874
20
-3.00615
11
5.32808
21
-3.00945
0
LINE
8
BLACK
6
CONTINUOUS
10
5.32808
20
-3.00945
11
5.32622
21
-3.01224
0
LINE
8
BLACK
6
CONTINUOUS
10
5.32622
20
-3.01224
11
5.32342
21
-3.01411
0
LINE
8
BLACK
6
CONTINUOUS
10
5.32342
20
-3.01411
11
5.32013
21
-3.01476
0
LINE
8
BLACK
6
CONTINUOUS
10
5.32013
20
-3.01476
11
5.3029
21
-3.01476
0
LINE
8
BLACK
6
CONTINUOUS
10
5.3029
20
-3.01476
11
5.29961
21
-3.01411
0
LINE
8
BLACK
6
CONTINUOUS
10
5.29961
20
-3.01411
11
5.29681
21
-3.01224
0
LINE
8
BLACK
6
CONTINUOUS
10
5.29681
20
-3.01224
11
5.29495
21
-3.00945
0
LINE
8
BLACK
6
CONTINUOUS
10
5.29495
20
-3.00945
11
5.29429
21
-3.00615
0
LINE
8
BLACK
6
CONTINUOUS
10
5.29429
20
-3.00615
11
5.29429
21
-2.98597
0
LINE
8
BLACK
6
CONTINUOUS
10
5.29429
20
-2.98597
11
5.29495
21
-2.98268
0
LINE
8
BLACK
6
CONTINUOUS
10
5.29495
20
-2.98268
11
5.29681
21
-2.97988
0
LINE
8
BLACK
6
CONTINUOUS
10
5.29681
20
-2.97988
11
5.29961
21
-2.97802
0
LINE
8
BLACK
6
CONTINUOUS
10
5.29961
20
-2.97802
11
5.3029
21
-2.97736
0
LINE
8
BLACK
6
CONTINUOUS
10
5.3029
20
-2.97736
11
5.32013
21
-2.97736
0
LINE
8
BLACK
6
CONTINUOUS
10
5.32013
20
-2.97736
11
5.32342
21
-2.97802
0
LINE
8
BLACK
6
CONTINUOUS
10
1.94749
20
-2.95907
11
1.91966
21
-2.98691
0
LINE
8
BLACK
6
CONTINUOUS
10
1.91966
20
-2.98691
11
1.87651
21
-2.94376
0
LINE
8
BLACK
6
CONTINUOUS
10
1.87651
20
-2.94376
11
1.90434
21
-2.91592
0
LINE
8
BLACK
6
CONTINUOUS
10
1.90434
20
-2.91592
11
1.94749
21
-2.95907
0
LINE
8
BLACK
6
CONTINUOUS
10
5.26916
20
-2.96576
11
5.27088
21
-2.96691
0
LINE
8
BLACK
6
CONTINUOUS
10
5.27088
20
-2.96691
11
5.27204
21
-2.96864
0
LINE
8
BLACK
6
CONTINUOUS
10
5.27204
20
-2.96864
11
5.27244
21
-2.97067
0
LINE
8
BLACK
6
CONTINUOUS
10
5.27244
20
-2.97067
11
5.27244
21
-2.9813
0
LINE
8
BLACK
6
CONTINUOUS
10
5.27244
20
-2.9813
11
5.27204
21
-2.98333
0
LINE
8
BLACK
6
CONTINUOUS
10
5.27204
20
-2.98333
11
5.27088
21
-2.98506
0
LINE
8
BLACK
6
CONTINUOUS
10
5.27088
20
-2.98506
11
5.26916
21
-2.98621
0
LINE
8
BLACK
6
CONTINUOUS
10
5.26916
20
-2.98621
11
5.26713
21
-2.98661
0
LINE
8
BLACK
6
CONTINUOUS
10
5.26713
20
-2.98661
11
5.25256
21
-2.98661
0
LINE
8
BLACK
6
CONTINUOUS
10
5.25256
20
-2.98661
11
5.25053
21
-2.98621
0
LINE
8
BLACK
6
CONTINUOUS
10
5.25053
20
-2.98621
11
5.2488
21
-2.98506
0
LINE
8
BLACK
6
CONTINUOUS
10
5.2488
20
-2.98506
11
5.24765
21
-2.98333
0
LINE
8
BLACK
6
CONTINUOUS
10
5.24765
20
-2.98333
11
5.24724
21
-2.9813
0
LINE
8
BLACK
6
CONTINUOUS
10
5.24724
20
-2.9813
11
5.24724
21
-2.97067
0
LINE
8
BLACK
6
CONTINUOUS
10
5.24724
20
-2.97067
11
5.24765
21
-2.96864
0
LINE
8
BLACK
6
CONTINUOUS
10
5.24765
20
-2.96864
11
5.2488
21
-2.96691
0
LINE
8
BLACK
6
CONTINUOUS
10
5.2488
20
-2.96691
11
5.25053
21
-2.96576
0
LINE
8
BLACK
6
CONTINUOUS
10
5.25053
20
-2.96576
11
5.25256
21
-2.96535
0
LINE
8
BLACK
6
CONTINUOUS
10
5.25256
20
-2.96535
11
5.26713
21
-2.96535
0
LINE
8
BLACK
6
CONTINUOUS
10
5.26713
20
-2.96535
11
5.26916
21
-2.96576
0
LINE
8
BLACK
6
CONTINUOUS
10
1.71226
20
-2.902
11
1.68442
21
-2.92984
0
LINE
8
BLACK
6
CONTINUOUS
10
1.68442
20
-2.92984
11
1.64127
21
-2.88669
0
LINE
8
BLACK
6
CONTINUOUS
10
1.64127
20
-2.88669
11
1.66911
21
-2.85885
0
LINE
8
BLACK
6
CONTINUOUS
10
1.66911
20
-2.85885
11
1.71226
21
-2.902
0
LINE
8
BLACK
6
CONTINUOUS
10
1.80134
20
-2.81291
11
1.7735
21
-2.84075
0
LINE
8
BLACK
6
CONTINUOUS
10
1.7735
20
-2.84075
11
1.73035
21
-2.7976
0
LINE
8
BLACK
6
CONTINUOUS
10
1.73035
20
-2.7976
11
1.75819
21
-2.76976
0
LINE
8
BLACK
6
CONTINUOUS
10
1.75819
20
-2.76976
11
1.80134
21
-2.81291
0
LINE
8
BLACK
6
CONTINUOUS
10
2.09136
20
-2.68506
11
1.97443
21
-2.80199
0
LINE
8
BLACK
6
CONTINUOUS
10
1.97443
20
-2.80199
11
1.91876
21
-2.74631
0
LINE
8
BLACK
6
CONTINUOUS
10
1.91876
20
-2.74631
11
2.03568
21
-2.62939
0
LINE
8
BLACK
6
CONTINUOUS
10
2.03568
20
-2.62939
11
2.09136
21
-2.68506
0
LINE
8
BLACK
6
CONTINUOUS
10
5.00492
20
-2.58661
11
4.95571
21
-2.58661
0
LINE
8
BLACK
6
CONTINUOUS
10
4.95571
20
-2.58661
11
4.95571
21
-2.48819
0
LINE
8
BLACK
6
CONTINUOUS
10
4.95571
20
-2.48819
11
5.00492
21
-2.48819
0
LINE
8
BLACK
6
CONTINUOUS
10
5.00492
20
-2.48819
11
5.00492
21
-2.58661
0
LINE
8
BLACK
6
CONTINUOUS
10
4.9065
20
-2.58661
11
4.85728
21
-2.58661
0
LINE
8
BLACK
6
CONTINUOUS
10
4.85728
20
-2.58661
11
4.85728
21
-2.48819
0
LINE
8
BLACK
6
CONTINUOUS
10
4.85728
20
-2.48819
11
4.9065
21
-2.48819
0
LINE
8
BLACK
6
CONTINUOUS
10
4.9065
20
-2.48819
11
4.9065
21
-2.58661
0
LINE
8
BLACK
6
CONTINUOUS
10
4.80807
20
-2.58661
11
4.75886
21
-2.58661
0
LINE
8
BLACK
6
CONTINUOUS
10
4.75886
20
-2.58661
11
4.75886
21
-2.48819
0
LINE
8
BLACK
6
CONTINUOUS
10
4.75886
20
-2.48819
11
4.80807
21
-2.48819
0
LINE
8
BLACK
6
CONTINUOUS
10
4.80807
20
-2.48819
11
4.80807
21
-2.58661
0
LINE
8
BLACK
6
CONTINUOUS
10
1.86865
20
-2.46235
11
1.75172
21
-2.57928
0
LINE
8
BLACK
6
CONTINUOUS
10
1.75172
20
-2.57928
11
1.69604
21
-2.5236
0
LINE
8
BLACK
6
CONTINUOUS
10
1.69604
20
-2.5236
11
1.81297
21
-2.40667
0
LINE
8
BLACK
6
CONTINUOUS
10
1.81297
20
-2.40667
11
1.86865
21
-2.46235
  0
ENDSEC
  0
EOF
