  0
SECTION
  2
HEADER
  9
$ANGBASE
  50
0.0
  9
$ANGDIR
  70
1
  9
$MEASUREMENT
  70
1
  0
ENDSEC
  0
SECTION
  2
TABLES
  0
TABLE
  2
LTYPE
  70
4
  0
LTYPE
  5
40F
  2
CONTINUOUS
  70
0
  3
Solid line
  72
65
  73
0
  40
0.0
  0
LTYPE
  5
410
  2
DASHDOT
 70
0
  3
Dash Dot ____ _ ____ _
 72
65
 73
4
 40
2.0
 49
1.25
 49
-0.25
 49
0.25
 49
-0.25
  0
LTYPE
  5
411
  2
DASHED
 70
0
  3
Dashed __ __ __ __ __
 72
65
 73
2
 40
0.75
 49
0.5
 49
-0.25
  0
LTYPE
  5
43B
  2
DOTTED
 70
0
  3
Dotted .  .  .  .
 72
65
 73
2
 40
0.2
 49
0.0
 49
-0.2
  0
ENDTAB
  0
TABLE
  2
STYLE
  70
4
  0
STYLE
  2
KICAD
  70
0
  40
0
  41
1
  42
1
  50
0
  71
0
  3
isocp.shx
  0
STYLE
  2
KICADB
  70
0
  40
0
  41
1
  42
1
  50
0
  71
0
  3
isocp.shx
  0
STYLE
  2
KICADI
  70
0
  40
0
  41
1
  42
1
  50
15
  71
0
  3
isocp.shx
  0
STYLE
  2
KICADBI
  70
0
  40
0
  41
1
  42
1
  50
15
  71
0
  3
isocp.shx
  0
ENDTAB
  0
TABLE
  2
LAYER
  70
1
  0
LAYER
  2
BLACK
  70
0
  62
7
  6
CONTINUOUS
  0
ENDTAB
  0
ENDSEC
  0
SECTION
  2
ENTITIES
0
CIRCLE
8
BLACK
10
185.232
20
-68.45
40
1.15
0
LINE
8
BLACK
6
CONTINUOUS
10
154.893
20
-92.7303
11
160.798
21
-86.8259
0
LINE
8
BLACK
6
CONTINUOUS
10
146.09
20
-91.3514
11
145.383
21
-90.7857
0
LINE
8
BLACK
6
CONTINUOUS
10
157.474
20
-76.1486
11
158.181
21
-76.7143
0
LINE
8
BLACK
6
CONTINUOUS
10
143.226
20
-87.8512
11
155.883
21
-75.194
0
LINE
8
BLACK
6
CONTINUOUS
10
151.711
20
-74.2748
11
152.949
21
-74.3101
0
LINE
8
BLACK
6
CONTINUOUS
10
160.727
20
-80.5327
11
161.01
21
-81.5226
0
ARC
8
BLACK
10
184.732
20
-68.932
40
4.5
50
-6.3662e-05
51
90
0
CIRCLE
8
BLACK
10
91.232
20
-68.45
40
1.15
0
LINE
8
BLACK
6
CONTINUOUS
10
154.893
20
-92.7303
11
153.196
21
-93.1545
0
LINE
8
BLACK
6
CONTINUOUS
10
152.949
20
-74.3101
11
142.342
21
-84.9167
0
LINE
8
BLACK
6
CONTINUOUS
10
147.681
20
-92.306
11
146.832
21
-91.8817
0
LINE
8
BLACK
6
CONTINUOUS
10
151.817
20
-93.2606
11
150.615
21
-93.1899
0
LINE
8
BLACK
6
CONTINUOUS
10
87.232
20
-68.932
11
87.232
21
-141.45
0
LINE
8
BLACK
6
CONTINUOUS
10
142.802
20
-80.6387
11
148.635
21
-74.8051
0
LINE
8
BLACK
6
CONTINUOUS
10
154.999
20
-74.8051
11
142.837
21
-86.9673
0
LINE
8
BLACK
6
CONTINUOUS
10
144.181
20
-89.4422
11
157.474
21
-76.1486
0
LINE
8
BLACK
6
CONTINUOUS
10
161.187
20
-85.1642
11
160.798
21
-86.8259
0
CIRCLE
8
BLACK
10
91.232
20
-141.95
40
1.15
0
LINE
8
BLACK
6
CONTINUOUS
10
161.222
20
-82.5833
11
150.615
21
-93.1899
0
LINE
8
BLACK
6
CONTINUOUS
10
143.65
20
-88.6998
11
143.226
21
-87.8512
0
LINE
8
BLACK
6
CONTINUOUS
10
158.818
20
-77.3507
11
145.383
21
-90.7857
0
LINE
8
BLACK
6
CONTINUOUS
10
146.09
20
-91.3514
11
159.383
21
-78.0578
0
LINE
8
BLACK
6
CONTINUOUS
10
149.555
20
-92.9777
11
161.01
21
-81.5226
0
LINE
8
BLACK
6
CONTINUOUS
10
161.187
20
-85.1642
11
153.196
21
-93.1545
0
LINE
8
BLACK
6
CONTINUOUS
10
149.555
20
-92.9777
11
148.565
21
-92.6949
0
ARC
8
BLACK
10
184.732
20
-141.45
40
4.5
50
-90
51
-2.54648e-05
0
LINE
8
BLACK
6
CONTINUOUS
10
142.802
20
-80.6387
11
142.377
21
-82.3358
0
LINE
8
BLACK
6
CONTINUOUS
10
91.732
20
-145.95
11
184.732
21
-145.95
0
LINE
8
BLACK
6
CONTINUOUS
10
156.732
20
-75.6183
11
143.65
21
-88.6998
0
LINE
8
BLACK
6
CONTINUOUS
10
161.222
20
-82.5833
11
161.293
21
-83.7854
0
LINE
8
BLACK
6
CONTINUOUS
10
148.635
20
-74.8051
11
150.332
21
-74.3808
0
LINE
8
BLACK
6
CONTINUOUS
10
159.914
20
-78.8003
11
146.832
21
-91.8817
0
LINE
8
BLACK
6
CONTINUOUS
10
154.009
20
-74.5223
11
154.999
21
-74.8051
0
LINE
8
BLACK
6
CONTINUOUS
10
142.342
20
-84.9167
11
142.271
21
-83.7146
0
LINE
8
BLACK
6
CONTINUOUS
10
158.818
20
-77.3507
11
159.383
21
-78.0578
0
LINE
8
BLACK
6
CONTINUOUS
10
142.837
20
-86.9673
11
142.554
21
-85.9774
0
LINE
8
BLACK
6
CONTINUOUS
10
144.746
20
-90.1493
11
144.181
21
-89.4422
0
LINE
8
BLACK
6
CONTINUOUS
10
147.681
20
-92.306
11
160.338
21
-79.6488
0
ARC
8
BLACK
10
91.732
20
-141.45
40
4.5
50
-180
51
-90
0
LINE
8
BLACK
6
CONTINUOUS
10
144.746
20
-90.1493
11
158.181
21
-76.7143
0
LINE
8
BLACK
6
CONTINUOUS
10
150.332
20
-74.3808
11
142.377
21
-82.3358
0
LINE
8
BLACK
6
CONTINUOUS
10
184.732
20
-64.432
11
91.732
21
-64.432
0
LINE
8
BLACK
6
CONTINUOUS
10
189.232
20
-141.45
11
189.232
21
-68.932
0
ARC
8
BLACK
10
91.732
20
-68.932
40
4.5
50
-270
51
-180
0
CIRCLE
8
BLACK
10
185.232
20
-141.95
40
1.15
0
LINE
8
BLACK
6
CONTINUOUS
10
155.883
20
-75.194
11
156.732
21
-75.6183
0
LINE
8
BLACK
6
CONTINUOUS
10
159.914
20
-78.8003
11
160.338
21
-79.6488
0
LINE
8
BLACK
6
CONTINUOUS
10
160.727
20
-80.5327
11
148.565
21
-92.6949
0
LINE
8
BLACK
6
CONTINUOUS
10
142.554
20
-85.9774
11
154.009
21
-74.5223
0
LINE
8
BLACK
6
CONTINUOUS
10
151.817
20
-93.2606
11
161.293
21
-83.7854
0
LINE
8
BLACK
6
CONTINUOUS
10
142.271
20
-83.7146
11
151.711
21
-74.2748
  0
ENDSEC
  0
EOF
