%TF.GenerationSoftware,KiCad,Pcbnew,(6.0.0)*%
%TF.CreationDate,2022-10-15T12:08:06+11:00*%
%TF.ProjectId,c64pico,63363470-6963-46f2-9e6b-696361645f70,rev?*%
%TF.SameCoordinates,Original*%
%TF.FileFunction,Paste,Top*%
%TF.FilePolarity,Positive*%
%FSLAX46Y46*%
G04 Gerber Fmt 4.6, Leading zero omitted, Abs format (unit mm)*
G04 Created by KiCad (PCBNEW (6.0.0)) date 2022-10-15 12:08:06*
%MOMM*%
%LPD*%
G01*
G04 APERTURE LIST*
G04 Aperture macros list*
%AMRotRect*
0 Rectangle, with rotation*
0 The origin of the aperture is its center*
0 $1 length*
0 $2 width*
0 $3 Rotation angle, in degrees counterclockwise*
0 Add horizontal line*
21,1,$1,$2,0,0,$3*%
G04 Aperture macros list end*
%ADD10R,1.000000X1.550000*%
%ADD11RotRect,1.550000X1.000000X135.000000*%
%ADD12RotRect,1.550000X1.000000X45.000000*%
%ADD13R,1.100000X0.300000*%
%ADD14R,3.100000X2.300000*%
%ADD15R,1.600000X0.700000*%
%ADD16R,2.200000X1.200000*%
%ADD17R,1.400000X1.200000*%
%ADD18R,1.400000X1.600000*%
%ADD19R,2.500000X1.250000*%
%ADD20RotRect,1.550000X1.000000X225.000000*%
%ADD21R,1.550000X1.000000*%
G04 APERTURE END LIST*
D10*
%TO.C,SW61*%
X94480000Y-109775000D03*
X94480000Y-104525000D03*
X97680000Y-109775000D03*
X97680000Y-104525000D03*
%TD*%
%TO.C,SW15*%
X108840000Y-112275000D03*
X108840000Y-117525000D03*
X112040000Y-112275000D03*
X112040000Y-117525000D03*
%TD*%
%TO.C,SW62*%
X106050001Y-104525000D03*
X106050001Y-109775000D03*
X109250001Y-104525000D03*
X109250001Y-109775000D03*
%TD*%
D11*
%TO.C,SW67*%
X42589754Y-83492332D03*
X46302064Y-87204642D03*
X44852496Y-81229590D03*
X48564806Y-84941900D03*
%TD*%
D10*
%TO.C,SW10*%
X50740000Y-112275000D03*
X50740000Y-117525000D03*
X53940000Y-112275000D03*
X53940000Y-117525000D03*
%TD*%
%TO.C,SW2*%
X54000000Y-109775000D03*
X54000000Y-104525000D03*
X57200000Y-109775000D03*
X57200000Y-104525000D03*
%TD*%
%TO.C,SW37*%
X84180000Y-133025000D03*
X84180000Y-127775000D03*
X87380000Y-133025000D03*
X87380000Y-127775000D03*
%TD*%
%TO.C,SW23*%
X104170000Y-120025000D03*
X104170000Y-125275000D03*
X107370000Y-120025000D03*
X107370000Y-125275000D03*
%TD*%
%TO.C,SW54*%
X103060000Y-117525000D03*
X103060000Y-112275000D03*
X106260000Y-112275000D03*
X106260000Y-117525000D03*
%TD*%
%TO.C,SW26*%
X43150001Y-127775000D03*
X43150001Y-133025000D03*
X46350001Y-133025000D03*
X46350001Y-127775000D03*
%TD*%
%TO.C,SW48*%
X132650000Y-112274999D03*
X132650000Y-117524999D03*
X135850000Y-117524999D03*
X135850000Y-112274999D03*
%TD*%
%TO.C,SW27*%
X55369999Y-133025000D03*
X55369999Y-127775000D03*
X58569999Y-133025000D03*
X58569999Y-127775000D03*
%TD*%
%TO.C,SW65*%
X121950001Y-117525000D03*
X121950001Y-112275000D03*
X125150001Y-117525000D03*
X125150001Y-112275000D03*
%TD*%
%TO.C,SW44*%
X75580000Y-125275000D03*
X75580000Y-120025000D03*
X78780000Y-125275000D03*
X78780000Y-120025000D03*
%TD*%
%TO.C,SW63*%
X117610000Y-109775000D03*
X117610000Y-104525000D03*
X120810000Y-109775000D03*
X120810000Y-104525000D03*
%TD*%
D12*
%TO.C,SW69*%
X51311996Y-76262474D03*
X47599686Y-79974784D03*
X49862428Y-82237526D03*
X53574738Y-78525216D03*
%TD*%
D10*
%TO.C,SW3*%
X65560000Y-104525000D03*
X65560000Y-109775000D03*
X68760000Y-104525000D03*
X68760000Y-109775000D03*
%TD*%
%TO.C,SW52*%
X79740000Y-112275000D03*
X79740000Y-117525000D03*
X82940000Y-117525000D03*
X82940000Y-112275000D03*
%TD*%
%TO.C,SW53*%
X91400000Y-117525000D03*
X91400000Y-112275000D03*
X94600000Y-117525000D03*
X94600000Y-112275000D03*
%TD*%
%TO.C,SW5*%
X88700000Y-109775000D03*
X88700000Y-104525000D03*
X91900000Y-109775000D03*
X91900000Y-104525000D03*
%TD*%
%TO.C,SW51*%
X68180000Y-117525000D03*
X68180000Y-112275000D03*
X71380000Y-112275000D03*
X71380000Y-117525000D03*
%TD*%
%TO.C,SW58*%
X59780000Y-104525000D03*
X59780000Y-109775000D03*
X62980000Y-109775000D03*
X62980000Y-104525000D03*
%TD*%
%TO.C,SW25*%
X36650000Y-120025000D03*
X36650000Y-125275000D03*
X39850000Y-125275000D03*
X39850000Y-120025000D03*
%TD*%
%TO.C,SW47*%
X109950000Y-125275000D03*
X109950000Y-120025000D03*
X113150000Y-125275000D03*
X113150000Y-120025000D03*
%TD*%
%TO.C,SW49*%
X44899999Y-117525000D03*
X44899999Y-112275000D03*
X48099999Y-117525000D03*
X48099999Y-112275000D03*
%TD*%
%TO.C,SW55*%
X114620000Y-117525000D03*
X114620000Y-112275000D03*
X117820000Y-112275000D03*
X117820000Y-117525000D03*
%TD*%
%TO.C,SW12*%
X73960000Y-117524999D03*
X73960000Y-112274999D03*
X77160000Y-117524999D03*
X77160000Y-112274999D03*
%TD*%
%TO.C,SW46*%
X98390000Y-125275000D03*
X98390000Y-120025000D03*
X101590000Y-125275000D03*
X101590000Y-120025000D03*
%TD*%
D13*
%TO.C,J5*%
X76976800Y-91875009D03*
X76976800Y-91375009D03*
X76976800Y-90875009D03*
X76976800Y-90375009D03*
X76976800Y-89875009D03*
X76976800Y-89375009D03*
X76976800Y-88875009D03*
X76976800Y-88375009D03*
X76976800Y-87875009D03*
X76976800Y-87375009D03*
X76976800Y-86875009D03*
X76976800Y-86375009D03*
X76976800Y-85875009D03*
X76976800Y-85375009D03*
X76976800Y-84875009D03*
X76976800Y-84375009D03*
X76976800Y-83875009D03*
X76976800Y-83375009D03*
X76976800Y-82875009D03*
X76976800Y-82375009D03*
X76976800Y-81875009D03*
X76976800Y-81375009D03*
X76976800Y-80875009D03*
X76976800Y-80375009D03*
X76976800Y-79875009D03*
X76976800Y-79375009D03*
X76976800Y-78875009D03*
X76976800Y-78375009D03*
X76976800Y-77875009D03*
X76976800Y-77375009D03*
X76976800Y-76875009D03*
X76976800Y-76375009D03*
X76976800Y-75875009D03*
X76976800Y-75375009D03*
X76976800Y-74875009D03*
X76976800Y-74375009D03*
X76976800Y-73875009D03*
X76976800Y-73375009D03*
X76976800Y-72875009D03*
X76976800Y-72375009D03*
D14*
X78676800Y-70705009D03*
X78676800Y-93545009D03*
%TD*%
D10*
%TO.C,SW39*%
X108400000Y-133025000D03*
X108400000Y-127775000D03*
X111600000Y-133025000D03*
X111600000Y-127775000D03*
%TD*%
%TO.C,SW70*%
X124000000Y-81925000D03*
X124000000Y-76675000D03*
X127200000Y-81925000D03*
X127200000Y-76675000D03*
%TD*%
%TO.C,SW13*%
X85545001Y-112275000D03*
X85545001Y-117525000D03*
X88745001Y-112275000D03*
X88745001Y-117525000D03*
%TD*%
D15*
%TO.C,J6*%
X120499998Y-91950000D03*
X120499998Y-93050000D03*
X120499998Y-94150000D03*
X120499998Y-95250000D03*
X120499998Y-96350000D03*
D16*
X130599998Y-86400000D03*
D17*
X120999998Y-101900000D03*
D18*
X120999998Y-87300000D03*
D16*
X130599998Y-101900000D03*
D15*
X120499998Y-97450000D03*
X120499998Y-98550000D03*
X120499998Y-99650000D03*
X120499998Y-100750000D03*
%TD*%
D10*
%TO.C,SW6*%
X100260000Y-109775000D03*
X100260000Y-104525000D03*
X103460000Y-109775000D03*
X103460000Y-104525000D03*
%TD*%
%TO.C,SW16*%
X118900000Y-125275000D03*
X118900000Y-120025000D03*
X122100000Y-120025000D03*
X122100000Y-125275000D03*
%TD*%
%TO.C,SW60*%
X82910000Y-104525000D03*
X82910000Y-109775000D03*
X86110000Y-104525000D03*
X86110000Y-109775000D03*
%TD*%
%TO.C,SW28*%
X66930000Y-127775000D03*
X66930000Y-133025000D03*
X70130000Y-133025000D03*
X70130000Y-127775000D03*
%TD*%
%TO.C,SW40*%
X132650000Y-109775000D03*
X132650000Y-104525000D03*
X135850000Y-109775000D03*
X135850000Y-104525000D03*
%TD*%
%TO.C,SW32*%
X115650000Y-133025000D03*
X115650000Y-127775000D03*
X118850000Y-133025000D03*
X118850000Y-127775000D03*
%TD*%
%TO.C,SW34*%
X49650000Y-133025000D03*
X49650000Y-127775000D03*
X52850000Y-127775000D03*
X52850000Y-133025000D03*
%TD*%
%TO.C,SW29*%
X78400001Y-133025000D03*
X78400001Y-127775000D03*
X81600001Y-127775000D03*
X81600001Y-133025000D03*
%TD*%
D11*
%TO.C,SW66*%
X42589754Y-73516281D03*
X46302064Y-77228591D03*
X48564806Y-74965849D03*
X44852496Y-71253539D03*
%TD*%
D19*
%TO.C,SW71*%
X40350000Y-89650000D03*
X40350000Y-92150000D03*
X40350000Y-94650000D03*
%TD*%
D10*
%TO.C,SW59*%
X71350000Y-104525000D03*
X71350000Y-109775000D03*
X74550000Y-104525000D03*
X74550000Y-109775000D03*
%TD*%
%TO.C,SW11*%
X62299999Y-112275000D03*
X62299999Y-117525000D03*
X65499999Y-112275000D03*
X65499999Y-117525000D03*
%TD*%
%TO.C,SW7*%
X111830000Y-109775000D03*
X111830000Y-104525000D03*
X115030000Y-104525000D03*
X115030000Y-109775000D03*
%TD*%
%TO.C,SW50*%
X56520000Y-112275000D03*
X56520000Y-117525000D03*
X59720000Y-117525000D03*
X59720000Y-112275000D03*
%TD*%
%TO.C,SW9*%
X36650000Y-109775000D03*
X36650000Y-104525000D03*
X39850000Y-104525000D03*
X39850000Y-109775000D03*
%TD*%
%TO.C,SW31*%
X101430000Y-133025000D03*
X101430000Y-127775000D03*
X104630000Y-133025000D03*
X104630000Y-127775000D03*
%TD*%
%TO.C,SW30*%
X89869999Y-133025000D03*
X89869999Y-127775000D03*
X93069999Y-127775000D03*
X93069999Y-133025000D03*
%TD*%
%TO.C,SW1*%
X42430000Y-104525000D03*
X42430000Y-109775000D03*
X45630000Y-109775000D03*
X45630000Y-104525000D03*
%TD*%
%TO.C,SW38*%
X95650001Y-127775000D03*
X95650001Y-133025000D03*
X98850001Y-127775000D03*
X98850001Y-133025000D03*
%TD*%
%TO.C,SW8*%
X123400000Y-104525000D03*
X123400000Y-109775000D03*
X126600000Y-104525000D03*
X126600000Y-109775000D03*
%TD*%
%TO.C,SW56*%
X132650000Y-125275000D03*
X132650000Y-120025000D03*
X135850000Y-120025000D03*
X135850000Y-125275000D03*
%TD*%
%TO.C,SW35*%
X61150001Y-133025000D03*
X61150001Y-127775000D03*
X64350001Y-127775000D03*
X64350001Y-133025000D03*
%TD*%
%TO.C,SW45*%
X86989999Y-120025000D03*
X86989999Y-125275000D03*
X90189999Y-120025000D03*
X90189999Y-125275000D03*
%TD*%
%TO.C,SW22*%
X92770001Y-120025000D03*
X92770001Y-125275000D03*
X95970001Y-120025000D03*
X95970001Y-125275000D03*
%TD*%
%TO.C,SW18*%
X46840000Y-125275000D03*
X46840000Y-120025000D03*
X50040000Y-120025000D03*
X50040000Y-125275000D03*
%TD*%
D20*
%TO.C,SW68*%
X43576868Y-78525216D03*
X39864558Y-82237526D03*
X37601816Y-79974784D03*
X41314126Y-76262474D03*
%TD*%
D10*
%TO.C,SW20*%
X69800000Y-125275000D03*
X69800000Y-120025000D03*
X73000000Y-125275000D03*
X73000000Y-120025000D03*
%TD*%
%TO.C,SW64*%
X132650000Y-127775001D03*
X132650000Y-133025001D03*
X135850000Y-127775001D03*
X135850000Y-133025001D03*
%TD*%
%TO.C,SW14*%
X97180000Y-112275000D03*
X97180000Y-117525000D03*
X100380000Y-117525000D03*
X100380000Y-112275000D03*
%TD*%
%TO.C,SW36*%
X72619999Y-127775000D03*
X72619999Y-133025000D03*
X75819999Y-133025000D03*
X75819999Y-127775000D03*
%TD*%
D21*
%TO.C,SW33*%
X76955000Y-139000000D03*
X71705000Y-139000000D03*
X71705000Y-135800000D03*
X76955000Y-135800000D03*
%TD*%
D10*
%TO.C,SW41*%
X36650000Y-127775001D03*
X36650000Y-133025001D03*
X39850000Y-127775001D03*
X39850000Y-133025001D03*
%TD*%
%TO.C,SW4*%
X77130000Y-109774999D03*
X77130000Y-104524999D03*
X80330000Y-109774999D03*
X80330000Y-104524999D03*
%TD*%
%TO.C,SW42*%
X52620000Y-125275000D03*
X52620000Y-120025000D03*
X55820000Y-120025000D03*
X55820000Y-125275000D03*
%TD*%
%TO.C,SW19*%
X58399999Y-125275000D03*
X58399999Y-120025000D03*
X61599999Y-120025000D03*
X61599999Y-125275000D03*
%TD*%
%TO.C,SW17*%
X38150000Y-112275000D03*
X38150000Y-117525000D03*
X41350000Y-117525000D03*
X41350000Y-112275000D03*
%TD*%
%TO.C,SW43*%
X64020001Y-125275000D03*
X64020001Y-120025000D03*
X67220001Y-120025000D03*
X67220001Y-125275000D03*
%TD*%
%TO.C,SW21*%
X81210000Y-125275000D03*
X81210000Y-120025000D03*
X84410000Y-125275000D03*
X84410000Y-120025000D03*
%TD*%
%TO.C,SW57*%
X48220000Y-109774999D03*
X48220000Y-104524999D03*
X51420000Y-109774999D03*
X51420000Y-104524999D03*
%TD*%
%TO.C,SW24*%
X121650000Y-133025000D03*
X121650000Y-127775000D03*
X124850000Y-127775000D03*
X124850000Y-133025000D03*
%TD*%
M02*
