M48
; DRILL file {KiCad (6.0.0)} date Sat Oct 15 12:08:09 2022
; FORMAT={-:-/ absolute / inch / decimal}
; #@! TF.CreationDate,2022-10-15T12:08:09+11:00
; #@! TF.GenerationSoftware,Kicad,Pcbnew,(6.0.0)
; #@! TF.FileFunction,Plated,1,2,PTH
FMAT,2
INCH
; #@! TA.AperFunction,Plated,PTH,ComponentDrill
T1C0.0079
; #@! TA.AperFunction,Plated,PTH,ViaDrill
T2C0.0157
; #@! TA.AperFunction,Plated,PTH,ComponentDrill
T3C0.0295
; #@! TA.AperFunction,Plated,PTH,ComponentDrill
T4C0.0394
; #@! TA.AperFunction,Plated,PTH,ComponentDrill
T5C0.0866
%
G90
G05
T1
X1.6756Y-3.9138
X1.6756Y-3.9602
X1.722Y-3.9138
X1.722Y-3.9602
T2
X1.4429Y-4.7254
X1.4429Y-4.9321
X1.4429Y-5.0305
X1.502Y-4.627
X1.5459Y-2.9295
X1.5459Y-3.6295
X1.5723Y-3.9911
X1.5732Y-3.9203
X1.6988Y-5.0305
X1.8441Y-4.9321
X1.8681Y-3.8268
X1.8984Y-4.1152
X1.9547Y-5.0305
X1.9976Y-4.4203
X1.9976Y-4.627
X2.0459Y-3.6295
X2.0717Y-4.7254
X2.0717Y-4.9321
X2.126Y-4.1152
X2.126Y-4.3219
X2.1799Y-5.0305
X2.2252Y-4.4203
X2.2459Y-3.6295
X2.2992Y-4.9321
X2.3459Y-3.6295
X2.3535Y-4.1152
X2.4075Y-5.0305
X2.4459Y-2.9295
X2.4528Y-4.4203
X2.4528Y-4.627
X2.5205Y-4.7254
X2.5205Y-4.9303
X2.5459Y-2.9295
X2.5459Y-3.6295
X2.5807Y-4.1142
X2.5811Y-4.3219
X2.635Y-5.0305
X2.6843Y-4.4203
X2.748Y-4.9321
X2.8091Y-4.3219
X2.8591Y-5.0305
X2.8602Y-3.5354
X2.9118Y-4.4203
X2.9118Y-4.627
X2.9311Y-3.7677
X2.948Y-3.4397
X2.9528Y-2.7835
X2.9744Y-3.5433
X2.9755Y-3.4679
X2.9756Y-4.7254
X2.9756Y-4.9321
X2.9764Y-3.4124
X2.9764Y-3.3337
X2.9764Y-3.3731
X2.984Y-2.9861
X3.0366Y-4.3219
X3.0374Y-4.1142
X3.0866Y-5.0305
X3.1358Y-3.5433
X3.1394Y-4.4203
X3.1673Y-3.4469
X3.1972Y-4.9321
X3.2008Y-3.0649
X3.2165Y-3.0098
X3.2264Y-3.0948
X3.257Y-3.07
X3.2638Y-4.1142
X3.3142Y-5.0305
X3.3679Y-4.4203
X3.3679Y-4.627
X3.4248Y-4.7254
X3.4248Y-4.9321
X3.4921Y-4.1142
X3.4921Y-4.3219
X3.5382Y-5.0305
X3.5984Y-4.4203
X3.6437Y-2.8681
X3.6524Y-4.9321
X3.7205Y-4.1142
X3.7657Y-5.0305
X3.826Y-4.4203
X3.826Y-4.627
X3.8736Y-4.7254
X3.8736Y-4.9321
X3.874Y-3.374
X3.9469Y-4.1142
X3.9472Y-4.3219
X3.9933Y-5.0305
X4.0575Y-4.4203
X4.1012Y-4.9321
X4.1752Y-4.1142
X4.2677Y-5.0305
X4.285Y-4.4203
X4.285Y-4.627
X4.3287Y-4.7254
X4.3287Y-4.9321
X4.3826Y-3.0794
X4.4028Y-4.3219
X4.4035Y-4.1142
X4.4107Y-3.0512
X4.5126Y-4.4203
X4.5531Y-5.0305
X4.626Y-2.7559
X4.6319Y-4.1142
X4.6369Y-3.0818
X4.6476Y-3.8898
X4.6496Y-3.2913
X4.6647Y-3.054
X4.6654Y-3.7972
X4.6811Y-4.7254
X4.6811Y-4.9321
X4.7657Y-2.7717
X4.7657Y-2.8268
X4.7894Y-5.0305
X4.7948Y-2.7993
X4.7953Y-2.6909
X4.8012Y-4.627
X4.8066Y-3.0133
X4.8352Y-3.0672
X4.8583Y-4.1142
X4.8583Y-4.3219
X4.863Y-3.095
X4.9843Y-4.1152
X5.002Y-4.6217
X5.0079Y-3.0157
X5.0109Y-4.7111
X5.0177Y-4.6584
X5.045Y-5.018
X5.0453Y-4.6919
X5.0728Y-4.9902
X5.0768Y-5.1476
X5.0885Y-4.2953
X5.1043Y-4.6495
X5.1164Y-4.9559
X5.12Y-4.3425
X5.1318Y-4.6949
X5.1357Y-4.0906
X5.1417Y-3.4016
X5.1514Y-4.5966
X5.1535Y-4.9688
X5.1614Y-2.8976
X5.1614Y-4.813
X5.2224Y-4.3219
X5.2224Y-4.4203
X5.2224Y-4.627
X5.2224Y-4.7254
X5.2224Y-4.9311
X5.2224Y-5.0305
T3
X1.998Y-3.8602
X1.998Y-3.939
T4
X4.4089Y-2.623
X4.4089Y-2.723
X4.4089Y-2.823
X4.5089Y-2.623
X4.5089Y-2.723
X4.5089Y-2.823
T5
X1.5492Y-2.498
X1.5492Y-5.3917
X5.25Y-2.498
X5.25Y-5.3917
T0
M30
