%TF.GenerationSoftware,KiCad,Pcbnew,(6.0.0)*%
%TF.CreationDate,2022-10-15T12:08:06+11:00*%
%TF.ProjectId,c64pico,63363470-6963-46f2-9e6b-696361645f70,rev?*%
%TF.SameCoordinates,Original*%
%TF.FileFunction,Paste,Bot*%
%TF.FilePolarity,Positive*%
%FSLAX46Y46*%
G04 Gerber Fmt 4.6, Leading zero omitted, Abs format (unit mm)*
G04 Created by KiCad (PCBNEW (6.0.0)) date 2022-10-15 12:08:06*
%MOMM*%
%LPD*%
G01*
G04 APERTURE LIST*
G04 Aperture macros list*
%AMRoundRect*
0 Rectangle with rounded corners*
0 $1 Rounding radius*
0 $2 $3 $4 $5 $6 $7 $8 $9 X,Y pos of 4 corners*
0 Add a 4 corners polygon primitive as box body*
4,1,4,$2,$3,$4,$5,$6,$7,$8,$9,$2,$3,0*
0 Add four circle primitives for the rounded corners*
1,1,$1+$1,$2,$3*
1,1,$1+$1,$4,$5*
1,1,$1+$1,$6,$7*
1,1,$1+$1,$8,$9*
0 Add four rect primitives between the rounded corners*
20,1,$1+$1,$2,$3,$4,$5,0*
20,1,$1+$1,$4,$5,$6,$7,0*
20,1,$1+$1,$6,$7,$8,$9,0*
20,1,$1+$1,$8,$9,$2,$3,0*%
%AMRotRect*
0 Rectangle, with rotation*
0 The origin of the aperture is its center*
0 $1 length*
0 $2 width*
0 $3 Rotation angle, in degrees counterclockwise*
0 Add horizontal line*
21,1,$1,$2,0,0,$3*%
G04 Aperture macros list end*
%ADD10RoundRect,0.135000X-0.135000X-0.185000X0.135000X-0.185000X0.135000X0.185000X-0.135000X0.185000X0*%
%ADD11R,2.000000X4.200000*%
%ADD12RoundRect,0.218750X-0.218750X-0.256250X0.218750X-0.256250X0.218750X0.256250X-0.218750X0.256250X0*%
%ADD13RoundRect,0.182500X0.182500X0.182500X-0.182500X0.182500X-0.182500X-0.182500X0.182500X-0.182500X0*%
%ADD14RoundRect,0.062500X0.350000X0.062500X-0.350000X0.062500X-0.350000X-0.062500X0.350000X-0.062500X0*%
%ADD15RoundRect,0.062500X0.062500X0.350000X-0.062500X0.350000X-0.062500X-0.350000X0.062500X-0.350000X0*%
%ADD16R,0.600000X0.450000*%
%ADD17RoundRect,0.140000X0.170000X-0.140000X0.170000X0.140000X-0.170000X0.140000X-0.170000X-0.140000X0*%
%ADD18RoundRect,0.140000X-0.170000X0.140000X-0.170000X-0.140000X0.170000X-0.140000X0.170000X0.140000X0*%
%ADD19RoundRect,0.135000X0.135000X0.185000X-0.135000X0.185000X-0.135000X-0.185000X0.135000X-0.185000X0*%
%ADD20RoundRect,0.200000X-0.200000X-0.275000X0.200000X-0.275000X0.200000X0.275000X-0.200000X0.275000X0*%
%ADD21RoundRect,0.135000X-0.185000X0.135000X-0.185000X-0.135000X0.185000X-0.135000X0.185000X0.135000X0*%
%ADD22RoundRect,0.135000X0.185000X-0.135000X0.185000X0.135000X-0.185000X0.135000X-0.185000X-0.135000X0*%
%ADD23RotRect,1.600000X0.550000X45.000000*%
%ADD24RotRect,1.600000X0.550000X315.000000*%
%ADD25RoundRect,0.140000X0.219203X0.021213X0.021213X0.219203X-0.219203X-0.021213X-0.021213X-0.219203X0*%
G04 APERTURE END LIST*
D10*
%TO.C,R3*%
X38940000Y-99650000D03*
X39960000Y-99650000D03*
%TD*%
D11*
%TO.C,LS1*%
X44300000Y-66050000D03*
X52300000Y-66050000D03*
%TD*%
D12*
%TO.C,D1*%
X36174999Y-99500000D03*
X37749999Y-99500000D03*
%TD*%
D13*
%TO.C,U2*%
X42730000Y-100420000D03*
X42730000Y-99580000D03*
X43570000Y-100420000D03*
X43570000Y-99580000D03*
D14*
X44612500Y-99250000D03*
X44612500Y-99750000D03*
X44612500Y-100250000D03*
X44612500Y-100750000D03*
D15*
X43900000Y-101462500D03*
X43400000Y-101462500D03*
X42900000Y-101462500D03*
X42400000Y-101462500D03*
D14*
X41687500Y-100750000D03*
X41687500Y-100250000D03*
X41687500Y-99750000D03*
X41687500Y-99250000D03*
D15*
X42400000Y-98537500D03*
X42900000Y-98537500D03*
X43400000Y-98537500D03*
X43900000Y-98537500D03*
%TD*%
D16*
%TO.C,D3*%
X123900000Y-68350000D03*
X121800000Y-68350000D03*
%TD*%
D12*
%TO.C,D2*%
X36156786Y-101450000D03*
X37731786Y-101450000D03*
%TD*%
D17*
%TO.C,C1*%
X39600000Y-98580000D03*
X39600000Y-97620000D03*
%TD*%
D18*
%TO.C,C2*%
X75000000Y-69740000D03*
X75000000Y-70700000D03*
%TD*%
D19*
%TO.C,R2*%
X45610000Y-97350000D03*
X44590000Y-97350000D03*
%TD*%
D20*
%TO.C,R1*%
X40825000Y-97050000D03*
X42475000Y-97050000D03*
%TD*%
D21*
%TO.C,R5*%
X120650000Y-67840000D03*
X120650000Y-68860000D03*
%TD*%
D22*
%TO.C,R10*%
X76000000Y-70760000D03*
X76000000Y-69740000D03*
%TD*%
D19*
%TO.C,R12*%
X70760000Y-95600000D03*
X69740000Y-95600000D03*
%TD*%
D10*
%TO.C,R11*%
X81440000Y-96100000D03*
X82460000Y-96100000D03*
%TD*%
%TO.C,R4*%
X38940000Y-101300000D03*
X39960000Y-101300000D03*
%TD*%
D23*
%TO.C,U1*%
X123925116Y-82126966D03*
X123359431Y-81561280D03*
X122793745Y-80995595D03*
X122228060Y-80429910D03*
X121662374Y-79864224D03*
X121096689Y-79298539D03*
X120531004Y-78732853D03*
X119965318Y-78167168D03*
D24*
X119965318Y-76116558D03*
X120531004Y-75550873D03*
X121096689Y-74985187D03*
X121662374Y-74419502D03*
X122228060Y-73853816D03*
X122793745Y-73288131D03*
X123359431Y-72722446D03*
X123925116Y-72156760D03*
D23*
X125975726Y-72156760D03*
X126541411Y-72722446D03*
X127107097Y-73288131D03*
X127672782Y-73853816D03*
X128238468Y-74419502D03*
X128804153Y-74985187D03*
X129369838Y-75550873D03*
X129935524Y-76116558D03*
D24*
X129935524Y-78167168D03*
X129369838Y-78732853D03*
X128804153Y-79298539D03*
X128238468Y-79864224D03*
X127672782Y-80429910D03*
X127107097Y-80995595D03*
X126541411Y-81561280D03*
X125975726Y-82126966D03*
%TD*%
D25*
%TO.C,C3*%
X120989411Y-81739411D03*
X120310589Y-81060589D03*
%TD*%
M02*
