%TF.GenerationSoftware,KiCad,Pcbnew,(6.0.0)*%
%TF.CreationDate,2022-10-15T12:08:06+11:00*%
%TF.ProjectId,c64pico,63363470-6963-46f2-9e6b-696361645f70,rev?*%
%TF.SameCoordinates,Original*%
%TF.FileFunction,Soldermask,Bot*%
%TF.FilePolarity,Negative*%
%FSLAX46Y46*%
G04 Gerber Fmt 4.6, Leading zero omitted, Abs format (unit mm)*
G04 Created by KiCad (PCBNEW (6.0.0)) date 2022-10-15 12:08:06*
%MOMM*%
%LPD*%
G01*
G04 APERTURE LIST*
G04 Aperture macros list*
%AMRoundRect*
0 Rectangle with rounded corners*
0 $1 Rounding radius*
0 $2 $3 $4 $5 $6 $7 $8 $9 X,Y pos of 4 corners*
0 Add a 4 corners polygon primitive as box body*
4,1,4,$2,$3,$4,$5,$6,$7,$8,$9,$2,$3,0*
0 Add four circle primitives for the rounded corners*
1,1,$1+$1,$2,$3*
1,1,$1+$1,$4,$5*
1,1,$1+$1,$6,$7*
1,1,$1+$1,$8,$9*
0 Add four rect primitives between the rounded corners*
20,1,$1+$1,$2,$3,$4,$5,0*
20,1,$1+$1,$4,$5,$6,$7,0*
20,1,$1+$1,$6,$7,$8,$9,0*
20,1,$1+$1,$8,$9,$2,$3,0*%
%AMRotRect*
0 Rectangle, with rotation*
0 The origin of the aperture is its center*
0 $1 length*
0 $2 width*
0 $3 Rotation angle, in degrees counterclockwise*
0 Add horizontal line*
21,1,$1,$2,0,0,$3*%
G04 Aperture macros list end*
%ADD10C,4.400000*%
%ADD11C,0.900000*%
%ADD12RoundRect,0.135000X-0.135000X-0.185000X0.135000X-0.185000X0.135000X0.185000X-0.135000X0.185000X0*%
%ADD13R,2.000000X4.200000*%
%ADD14RoundRect,0.250000X-0.625000X0.350000X-0.625000X-0.350000X0.625000X-0.350000X0.625000X0.350000X0*%
%ADD15O,1.750000X1.200000*%
%ADD16R,1.700000X1.700000*%
%ADD17O,1.700000X1.700000*%
%ADD18RoundRect,0.218750X-0.218750X-0.256250X0.218750X-0.256250X0.218750X0.256250X-0.218750X0.256250X0*%
%ADD19R,1.700000X3.500000*%
%ADD20R,3.500000X1.700000*%
%ADD21RoundRect,0.062500X0.350000X0.062500X-0.350000X0.062500X-0.350000X-0.062500X0.350000X-0.062500X0*%
%ADD22RoundRect,0.062500X0.062500X0.350000X-0.062500X0.350000X-0.062500X-0.350000X0.062500X-0.350000X0*%
%ADD23R,1.680000X1.680000*%
%ADD24R,0.600000X0.450000*%
%ADD25RoundRect,0.140000X0.170000X-0.140000X0.170000X0.140000X-0.170000X0.140000X-0.170000X-0.140000X0*%
%ADD26RoundRect,0.140000X-0.170000X0.140000X-0.170000X-0.140000X0.170000X-0.140000X0.170000X0.140000X0*%
%ADD27RoundRect,0.135000X0.135000X0.185000X-0.135000X0.185000X-0.135000X-0.185000X0.135000X-0.185000X0*%
%ADD28RoundRect,0.200000X-0.200000X-0.275000X0.200000X-0.275000X0.200000X0.275000X-0.200000X0.275000X0*%
%ADD29RoundRect,0.135000X-0.185000X0.135000X-0.185000X-0.135000X0.185000X-0.135000X0.185000X0.135000X0*%
%ADD30RoundRect,0.135000X0.185000X-0.135000X0.185000X0.135000X-0.185000X0.135000X-0.185000X-0.135000X0*%
%ADD31RotRect,1.600000X0.550000X45.000000*%
%ADD32RotRect,1.600000X0.550000X315.000000*%
%ADD33RoundRect,0.140000X0.219203X0.021213X0.021213X0.219203X-0.219203X-0.021213X-0.021213X-0.219203X0*%
G04 APERTURE END LIST*
D10*
%TO.C,H1*%
X39350000Y-63450000D03*
%TD*%
%TO.C,H3*%
X39350000Y-136950000D03*
%TD*%
%TO.C,H4*%
X133350000Y-136950000D03*
%TD*%
D11*
%TO.C,SW71*%
X37600000Y-95550000D03*
X37600000Y-88750000D03*
%TD*%
D10*
%TO.C,H2*%
X133350000Y-63450000D03*
%TD*%
D12*
%TO.C,R3*%
X38940000Y-99650000D03*
X39960000Y-99650000D03*
%TD*%
D13*
%TO.C,LS1*%
X44300000Y-66050000D03*
X52300000Y-66050000D03*
%TD*%
D14*
%TO.C,BT1*%
X50750000Y-98050000D03*
D15*
X50750000Y-100050000D03*
%TD*%
D16*
%TO.C,J3*%
X114525001Y-66625000D03*
D17*
X111985001Y-66625000D03*
X114525001Y-69165000D03*
X111985001Y-69165000D03*
X114525001Y-71705000D03*
X111985001Y-71705000D03*
%TD*%
D18*
%TO.C,D1*%
X36174999Y-99500000D03*
X37749999Y-99500000D03*
%TD*%
D19*
%TO.C,U3*%
X36725000Y-73510000D03*
X39265000Y-73510000D03*
X41805000Y-73510000D03*
X44345000Y-73510000D03*
X46885000Y-73510000D03*
X49425000Y-73510000D03*
X51965000Y-73510000D03*
X54505000Y-73510000D03*
X57045000Y-73510000D03*
X59585000Y-73510000D03*
X62125000Y-73510000D03*
X64665000Y-73510000D03*
X67205000Y-73510000D03*
X69745000Y-73510000D03*
X72285000Y-73510000D03*
X74825000Y-73510000D03*
X77365000Y-73510000D03*
X79905000Y-73510000D03*
X82445000Y-73510000D03*
X84985000Y-73510000D03*
X84985000Y-93090000D03*
X82445000Y-93090000D03*
X79905000Y-93090000D03*
X77365000Y-93090000D03*
X74825000Y-93090000D03*
X72285000Y-93090000D03*
X69745000Y-93090000D03*
X67205000Y-93090000D03*
X64665000Y-93090000D03*
X62125000Y-93090000D03*
X59585000Y-93090000D03*
X57045000Y-93090000D03*
X54505000Y-93090000D03*
X51965000Y-93090000D03*
X49425000Y-93090000D03*
X46885000Y-93090000D03*
X44345000Y-93090000D03*
X41805000Y-93090000D03*
X39265000Y-93090000D03*
X36725000Y-93090000D03*
D20*
X85655000Y-80760000D03*
X85655000Y-83300000D03*
X85655000Y-85840000D03*
%TD*%
D21*
%TO.C,U2*%
X44612500Y-99250000D03*
X44612500Y-99750000D03*
X44612500Y-100250000D03*
X44612500Y-100750000D03*
D22*
X43900000Y-101462500D03*
X43400000Y-101462500D03*
X42900000Y-101462500D03*
X42400000Y-101462500D03*
D21*
X41687500Y-100750000D03*
X41687500Y-100250000D03*
X41687500Y-99750000D03*
X41687500Y-99250000D03*
D22*
X42400000Y-98537500D03*
X42900000Y-98537500D03*
X43400000Y-98537500D03*
X43900000Y-98537500D03*
D23*
X43150000Y-100000000D03*
%TD*%
D24*
%TO.C,D3*%
X123900000Y-68350000D03*
X121800000Y-68350000D03*
%TD*%
D18*
%TO.C,D2*%
X36156786Y-101450000D03*
X37731786Y-101450000D03*
%TD*%
D25*
%TO.C,C1*%
X39600000Y-98580000D03*
X39600000Y-97620000D03*
%TD*%
D26*
%TO.C,C2*%
X75000000Y-69740000D03*
X75000000Y-70700000D03*
%TD*%
D27*
%TO.C,R2*%
X45610000Y-97350000D03*
X44590000Y-97350000D03*
%TD*%
D28*
%TO.C,R1*%
X40825000Y-97050000D03*
X42475000Y-97050000D03*
%TD*%
D29*
%TO.C,R5*%
X120650000Y-67840000D03*
X120650000Y-68860000D03*
%TD*%
D30*
%TO.C,R10*%
X76000000Y-70760000D03*
X76000000Y-69740000D03*
%TD*%
D27*
%TO.C,R12*%
X70760000Y-95600000D03*
X69740000Y-95600000D03*
%TD*%
D12*
%TO.C,R11*%
X81440000Y-96100000D03*
X82460000Y-96100000D03*
%TD*%
%TO.C,R4*%
X38940000Y-101300000D03*
X39960000Y-101300000D03*
%TD*%
D31*
%TO.C,U1*%
X123925116Y-82126966D03*
X123359431Y-81561280D03*
X122793745Y-80995595D03*
X122228060Y-80429910D03*
X121662374Y-79864224D03*
X121096689Y-79298539D03*
X120531004Y-78732853D03*
X119965318Y-78167168D03*
D32*
X119965318Y-76116558D03*
X120531004Y-75550873D03*
X121096689Y-74985187D03*
X121662374Y-74419502D03*
X122228060Y-73853816D03*
X122793745Y-73288131D03*
X123359431Y-72722446D03*
X123925116Y-72156760D03*
D31*
X125975726Y-72156760D03*
X126541411Y-72722446D03*
X127107097Y-73288131D03*
X127672782Y-73853816D03*
X128238468Y-74419502D03*
X128804153Y-74985187D03*
X129369838Y-75550873D03*
X129935524Y-76116558D03*
D32*
X129935524Y-78167168D03*
X129369838Y-78732853D03*
X128804153Y-79298539D03*
X128238468Y-79864224D03*
X127672782Y-80429910D03*
X127107097Y-80995595D03*
X126541411Y-81561280D03*
X125975726Y-82126966D03*
%TD*%
D33*
%TO.C,C3*%
X120989411Y-81739411D03*
X120310589Y-81060589D03*
%TD*%
M02*
