%TF.GenerationSoftware,KiCad,Pcbnew,(6.0.0)*%
%TF.CreationDate,2022-05-08T19:44:55+10:00*%
%TF.ProjectId,paxbadge2022,70617862-6164-4676-9532-3032322e6b69,rev?*%
%TF.SameCoordinates,Original*%
%TF.FileFunction,Legend,Bot*%
%TF.FilePolarity,Positive*%
%FSLAX46Y46*%
G04 Gerber Fmt 4.6, Leading zero omitted, Abs format (unit mm)*
G04 Created by KiCad (PCBNEW (6.0.0)) date 2022-05-08 19:44:55*
%MOMM*%
%LPD*%
G01*
G04 APERTURE LIST*
%ADD10C,0.150000*%
%ADD11C,0.120000*%
%ADD12C,0.100000*%
G04 APERTURE END LIST*
D10*
X41028571Y-68909523D02*
X41076190Y-69052380D01*
X41123809Y-69100000D01*
X41219047Y-69147619D01*
X41361904Y-69147619D01*
X41457142Y-69100000D01*
X41504761Y-69052380D01*
X41552380Y-68957142D01*
X41552380Y-68576190D01*
X40552380Y-68576190D01*
X40552380Y-68909523D01*
X40600000Y-69004761D01*
X40647619Y-69052380D01*
X40742857Y-69100000D01*
X40838095Y-69100000D01*
X40933333Y-69052380D01*
X40980952Y-69004761D01*
X41028571Y-68909523D01*
X41028571Y-68576190D01*
X40552380Y-69766666D02*
X40552380Y-69957142D01*
X40600000Y-70052380D01*
X40695238Y-70147619D01*
X40885714Y-70195238D01*
X41219047Y-70195238D01*
X41409523Y-70147619D01*
X41504761Y-70052380D01*
X41552380Y-69957142D01*
X41552380Y-69766666D01*
X41504761Y-69671428D01*
X41409523Y-69576190D01*
X41219047Y-69528571D01*
X40885714Y-69528571D01*
X40695238Y-69576190D01*
X40600000Y-69671428D01*
X40552380Y-69766666D01*
X40552380Y-70814285D02*
X40552380Y-71004761D01*
X40600000Y-71100000D01*
X40695238Y-71195238D01*
X40885714Y-71242857D01*
X41219047Y-71242857D01*
X41409523Y-71195238D01*
X41504761Y-71100000D01*
X41552380Y-71004761D01*
X41552380Y-70814285D01*
X41504761Y-70719047D01*
X41409523Y-70623809D01*
X41219047Y-70576190D01*
X40885714Y-70576190D01*
X40695238Y-70623809D01*
X40600000Y-70719047D01*
X40552380Y-70814285D01*
X40552380Y-71528571D02*
X40552380Y-72100000D01*
X41552380Y-71814285D02*
X40552380Y-71814285D01*
X41504761Y-72385714D02*
X41552380Y-72528571D01*
X41552380Y-72766666D01*
X41504761Y-72861904D01*
X41457142Y-72909523D01*
X41361904Y-72957142D01*
X41266666Y-72957142D01*
X41171428Y-72909523D01*
X41123809Y-72861904D01*
X41076190Y-72766666D01*
X41028571Y-72576190D01*
X40980952Y-72480952D01*
X40933333Y-72433333D01*
X40838095Y-72385714D01*
X40742857Y-72385714D01*
X40647619Y-72433333D01*
X40600000Y-72480952D01*
X40552380Y-72576190D01*
X40552380Y-72814285D01*
X40600000Y-72957142D01*
X41028571Y-73385714D02*
X41028571Y-73719047D01*
X41552380Y-73861904D02*
X41552380Y-73385714D01*
X40552380Y-73385714D01*
X40552380Y-73861904D01*
X41552380Y-74766666D02*
X41552380Y-74290476D01*
X40552380Y-74290476D01*
X131442857Y-102447380D02*
X131442857Y-101447380D01*
X131061904Y-101447380D01*
X130966666Y-101495000D01*
X130919047Y-101542619D01*
X130871428Y-101637857D01*
X130871428Y-101780714D01*
X130919047Y-101875952D01*
X130966666Y-101923571D01*
X131061904Y-101971190D01*
X131442857Y-101971190D01*
X130300000Y-102447380D02*
X130395238Y-102399761D01*
X130442857Y-102352142D01*
X130490476Y-102256904D01*
X130490476Y-101971190D01*
X130442857Y-101875952D01*
X130395238Y-101828333D01*
X130300000Y-101780714D01*
X130157142Y-101780714D01*
X130061904Y-101828333D01*
X130014285Y-101875952D01*
X129966666Y-101971190D01*
X129966666Y-102256904D01*
X130014285Y-102352142D01*
X130061904Y-102399761D01*
X130157142Y-102447380D01*
X130300000Y-102447380D01*
X129633333Y-101780714D02*
X129442857Y-102447380D01*
X129252380Y-101971190D01*
X129061904Y-102447380D01*
X128871428Y-101780714D01*
X128109523Y-102399761D02*
X128204761Y-102447380D01*
X128395238Y-102447380D01*
X128490476Y-102399761D01*
X128538095Y-102304523D01*
X128538095Y-101923571D01*
X128490476Y-101828333D01*
X128395238Y-101780714D01*
X128204761Y-101780714D01*
X128109523Y-101828333D01*
X128061904Y-101923571D01*
X128061904Y-102018809D01*
X128538095Y-102114047D01*
X127633333Y-102447380D02*
X127633333Y-101780714D01*
X127633333Y-101971190D02*
X127585714Y-101875952D01*
X127538095Y-101828333D01*
X127442857Y-101780714D01*
X127347619Y-101780714D01*
X126252380Y-102447380D02*
X126252380Y-101780714D01*
X126252380Y-101971190D02*
X126204761Y-101875952D01*
X126157142Y-101828333D01*
X126061904Y-101780714D01*
X125966666Y-101780714D01*
X125252380Y-102399761D02*
X125347619Y-102447380D01*
X125538095Y-102447380D01*
X125633333Y-102399761D01*
X125680952Y-102304523D01*
X125680952Y-101923571D01*
X125633333Y-101828333D01*
X125538095Y-101780714D01*
X125347619Y-101780714D01*
X125252380Y-101828333D01*
X125204761Y-101923571D01*
X125204761Y-102018809D01*
X125680952Y-102114047D01*
X124347619Y-101780714D02*
X124347619Y-102590238D01*
X124395238Y-102685476D01*
X124442857Y-102733095D01*
X124538095Y-102780714D01*
X124680952Y-102780714D01*
X124776190Y-102733095D01*
X124347619Y-102399761D02*
X124442857Y-102447380D01*
X124633333Y-102447380D01*
X124728571Y-102399761D01*
X124776190Y-102352142D01*
X124823809Y-102256904D01*
X124823809Y-101971190D01*
X124776190Y-101875952D01*
X124728571Y-101828333D01*
X124633333Y-101780714D01*
X124442857Y-101780714D01*
X124347619Y-101828333D01*
X123442857Y-101780714D02*
X123442857Y-102447380D01*
X123871428Y-101780714D02*
X123871428Y-102304523D01*
X123823809Y-102399761D01*
X123728571Y-102447380D01*
X123585714Y-102447380D01*
X123490476Y-102399761D01*
X123442857Y-102352142D01*
X122823809Y-102447380D02*
X122919047Y-102399761D01*
X122966666Y-102304523D01*
X122966666Y-101447380D01*
X122014285Y-102447380D02*
X122014285Y-101923571D01*
X122061904Y-101828333D01*
X122157142Y-101780714D01*
X122347619Y-101780714D01*
X122442857Y-101828333D01*
X122014285Y-102399761D02*
X122109523Y-102447380D01*
X122347619Y-102447380D01*
X122442857Y-102399761D01*
X122490476Y-102304523D01*
X122490476Y-102209285D01*
X122442857Y-102114047D01*
X122347619Y-102066428D01*
X122109523Y-102066428D01*
X122014285Y-102018809D01*
X121680952Y-101780714D02*
X121300000Y-101780714D01*
X121538095Y-101447380D02*
X121538095Y-102304523D01*
X121490476Y-102399761D01*
X121395238Y-102447380D01*
X121300000Y-102447380D01*
X120966666Y-102447380D02*
X120966666Y-101780714D01*
X120966666Y-101447380D02*
X121014285Y-101495000D01*
X120966666Y-101542619D01*
X120919047Y-101495000D01*
X120966666Y-101447380D01*
X120966666Y-101542619D01*
X120347619Y-102447380D02*
X120442857Y-102399761D01*
X120490476Y-102352142D01*
X120538095Y-102256904D01*
X120538095Y-101971190D01*
X120490476Y-101875952D01*
X120442857Y-101828333D01*
X120347619Y-101780714D01*
X120204761Y-101780714D01*
X120109523Y-101828333D01*
X120061904Y-101875952D01*
X120014285Y-101971190D01*
X120014285Y-102256904D01*
X120061904Y-102352142D01*
X120109523Y-102399761D01*
X120204761Y-102447380D01*
X120347619Y-102447380D01*
X119585714Y-101780714D02*
X119585714Y-102447380D01*
X119585714Y-101875952D02*
X119538095Y-101828333D01*
X119442857Y-101780714D01*
X119300000Y-101780714D01*
X119204761Y-101828333D01*
X119157142Y-101923571D01*
X119157142Y-102447380D01*
X132585714Y-104057380D02*
X132585714Y-103533571D01*
X132633333Y-103438333D01*
X132728571Y-103390714D01*
X132919047Y-103390714D01*
X133014285Y-103438333D01*
X132585714Y-104009761D02*
X132680952Y-104057380D01*
X132919047Y-104057380D01*
X133014285Y-104009761D01*
X133061904Y-103914523D01*
X133061904Y-103819285D01*
X133014285Y-103724047D01*
X132919047Y-103676428D01*
X132680952Y-103676428D01*
X132585714Y-103628809D01*
X132109523Y-103390714D02*
X132109523Y-104057380D01*
X132109523Y-103485952D02*
X132061904Y-103438333D01*
X131966666Y-103390714D01*
X131823809Y-103390714D01*
X131728571Y-103438333D01*
X131680952Y-103533571D01*
X131680952Y-104057380D01*
X130776190Y-104057380D02*
X130776190Y-103057380D01*
X130776190Y-104009761D02*
X130871428Y-104057380D01*
X131061904Y-104057380D01*
X131157142Y-104009761D01*
X131204761Y-103962142D01*
X131252380Y-103866904D01*
X131252380Y-103581190D01*
X131204761Y-103485952D01*
X131157142Y-103438333D01*
X131061904Y-103390714D01*
X130871428Y-103390714D01*
X130776190Y-103438333D01*
X129538095Y-104057380D02*
X129538095Y-103057380D01*
X129538095Y-103438333D02*
X129442857Y-103390714D01*
X129252380Y-103390714D01*
X129157142Y-103438333D01*
X129109523Y-103485952D01*
X129061904Y-103581190D01*
X129061904Y-103866904D01*
X129109523Y-103962142D01*
X129157142Y-104009761D01*
X129252380Y-104057380D01*
X129442857Y-104057380D01*
X129538095Y-104009761D01*
X128204761Y-104057380D02*
X128204761Y-103533571D01*
X128252380Y-103438333D01*
X128347619Y-103390714D01*
X128538095Y-103390714D01*
X128633333Y-103438333D01*
X128204761Y-104009761D02*
X128300000Y-104057380D01*
X128538095Y-104057380D01*
X128633333Y-104009761D01*
X128680952Y-103914523D01*
X128680952Y-103819285D01*
X128633333Y-103724047D01*
X128538095Y-103676428D01*
X128300000Y-103676428D01*
X128204761Y-103628809D01*
X127871428Y-103390714D02*
X127490476Y-103390714D01*
X127728571Y-103057380D02*
X127728571Y-103914523D01*
X127680952Y-104009761D01*
X127585714Y-104057380D01*
X127490476Y-104057380D01*
X127300000Y-103390714D02*
X126919047Y-103390714D01*
X127157142Y-103057380D02*
X127157142Y-103914523D01*
X127109523Y-104009761D01*
X127014285Y-104057380D01*
X126919047Y-104057380D01*
X126204761Y-104009761D02*
X126300000Y-104057380D01*
X126490476Y-104057380D01*
X126585714Y-104009761D01*
X126633333Y-103914523D01*
X126633333Y-103533571D01*
X126585714Y-103438333D01*
X126490476Y-103390714D01*
X126300000Y-103390714D01*
X126204761Y-103438333D01*
X126157142Y-103533571D01*
X126157142Y-103628809D01*
X126633333Y-103724047D01*
X125728571Y-104057380D02*
X125728571Y-103390714D01*
X125728571Y-103581190D02*
X125680952Y-103485952D01*
X125633333Y-103438333D01*
X125538095Y-103390714D01*
X125442857Y-103390714D01*
X125204761Y-103390714D02*
X124966666Y-104057380D01*
X124728571Y-103390714D02*
X124966666Y-104057380D01*
X125061904Y-104295476D01*
X125109523Y-104343095D01*
X125204761Y-104390714D01*
X123157142Y-104009761D02*
X123252380Y-104057380D01*
X123442857Y-104057380D01*
X123538095Y-104009761D01*
X123585714Y-103962142D01*
X123633333Y-103866904D01*
X123633333Y-103581190D01*
X123585714Y-103485952D01*
X123538095Y-103438333D01*
X123442857Y-103390714D01*
X123252380Y-103390714D01*
X123157142Y-103438333D01*
X122728571Y-104057380D02*
X122728571Y-103057380D01*
X122300000Y-104057380D02*
X122300000Y-103533571D01*
X122347619Y-103438333D01*
X122442857Y-103390714D01*
X122585714Y-103390714D01*
X122680952Y-103438333D01*
X122728571Y-103485952D01*
X121395238Y-104057380D02*
X121395238Y-103533571D01*
X121442857Y-103438333D01*
X121538095Y-103390714D01*
X121728571Y-103390714D01*
X121823809Y-103438333D01*
X121395238Y-104009761D02*
X121490476Y-104057380D01*
X121728571Y-104057380D01*
X121823809Y-104009761D01*
X121871428Y-103914523D01*
X121871428Y-103819285D01*
X121823809Y-103724047D01*
X121728571Y-103676428D01*
X121490476Y-103676428D01*
X121395238Y-103628809D01*
X120919047Y-104057380D02*
X120919047Y-103390714D01*
X120919047Y-103581190D02*
X120871428Y-103485952D01*
X120823809Y-103438333D01*
X120728571Y-103390714D01*
X120633333Y-103390714D01*
X119871428Y-103390714D02*
X119871428Y-104200238D01*
X119919047Y-104295476D01*
X119966666Y-104343095D01*
X120061904Y-104390714D01*
X120204761Y-104390714D01*
X120300000Y-104343095D01*
X119871428Y-104009761D02*
X119966666Y-104057380D01*
X120157142Y-104057380D01*
X120252380Y-104009761D01*
X120300000Y-103962142D01*
X120347619Y-103866904D01*
X120347619Y-103581190D01*
X120300000Y-103485952D01*
X120252380Y-103438333D01*
X120157142Y-103390714D01*
X119966666Y-103390714D01*
X119871428Y-103438333D01*
X119395238Y-104057380D02*
X119395238Y-103390714D01*
X119395238Y-103057380D02*
X119442857Y-103105000D01*
X119395238Y-103152619D01*
X119347619Y-103105000D01*
X119395238Y-103057380D01*
X119395238Y-103152619D01*
X118919047Y-103390714D02*
X118919047Y-104057380D01*
X118919047Y-103485952D02*
X118871428Y-103438333D01*
X118776190Y-103390714D01*
X118633333Y-103390714D01*
X118538095Y-103438333D01*
X118490476Y-103533571D01*
X118490476Y-104057380D01*
X117585714Y-103390714D02*
X117585714Y-104200238D01*
X117633333Y-104295476D01*
X117680952Y-104343095D01*
X117776190Y-104390714D01*
X117919047Y-104390714D01*
X118014285Y-104343095D01*
X117585714Y-104009761D02*
X117680952Y-104057380D01*
X117871428Y-104057380D01*
X117966666Y-104009761D01*
X118014285Y-103962142D01*
X118061904Y-103866904D01*
X118061904Y-103581190D01*
X118014285Y-103485952D01*
X117966666Y-103438333D01*
X117871428Y-103390714D01*
X117680952Y-103390714D01*
X117585714Y-103438333D01*
X45800000Y-79347380D02*
X46133333Y-78871190D01*
X46371428Y-79347380D02*
X46371428Y-78347380D01*
X45990476Y-78347380D01*
X45895238Y-78395000D01*
X45847619Y-78442619D01*
X45800000Y-78537857D01*
X45800000Y-78680714D01*
X45847619Y-78775952D01*
X45895238Y-78823571D01*
X45990476Y-78871190D01*
X46371428Y-78871190D01*
X44942857Y-79347380D02*
X44942857Y-78823571D01*
X44990476Y-78728333D01*
X45085714Y-78680714D01*
X45276190Y-78680714D01*
X45371428Y-78728333D01*
X44942857Y-79299761D02*
X45038095Y-79347380D01*
X45276190Y-79347380D01*
X45371428Y-79299761D01*
X45419047Y-79204523D01*
X45419047Y-79109285D01*
X45371428Y-79014047D01*
X45276190Y-78966428D01*
X45038095Y-78966428D01*
X44942857Y-78918809D01*
X44514285Y-79299761D02*
X44419047Y-79347380D01*
X44228571Y-79347380D01*
X44133333Y-79299761D01*
X44085714Y-79204523D01*
X44085714Y-79156904D01*
X44133333Y-79061666D01*
X44228571Y-79014047D01*
X44371428Y-79014047D01*
X44466666Y-78966428D01*
X44514285Y-78871190D01*
X44514285Y-78823571D01*
X44466666Y-78728333D01*
X44371428Y-78680714D01*
X44228571Y-78680714D01*
X44133333Y-78728333D01*
X43657142Y-78680714D02*
X43657142Y-79680714D01*
X43657142Y-78728333D02*
X43561904Y-78680714D01*
X43371428Y-78680714D01*
X43276190Y-78728333D01*
X43228571Y-78775952D01*
X43180952Y-78871190D01*
X43180952Y-79156904D01*
X43228571Y-79252142D01*
X43276190Y-79299761D01*
X43371428Y-79347380D01*
X43561904Y-79347380D01*
X43657142Y-79299761D01*
X42752380Y-79347380D02*
X42752380Y-78347380D01*
X42752380Y-78728333D02*
X42657142Y-78680714D01*
X42466666Y-78680714D01*
X42371428Y-78728333D01*
X42323809Y-78775952D01*
X42276190Y-78871190D01*
X42276190Y-79156904D01*
X42323809Y-79252142D01*
X42371428Y-79299761D01*
X42466666Y-79347380D01*
X42657142Y-79347380D01*
X42752380Y-79299761D01*
X41466666Y-79299761D02*
X41561904Y-79347380D01*
X41752380Y-79347380D01*
X41847619Y-79299761D01*
X41895238Y-79204523D01*
X41895238Y-78823571D01*
X41847619Y-78728333D01*
X41752380Y-78680714D01*
X41561904Y-78680714D01*
X41466666Y-78728333D01*
X41419047Y-78823571D01*
X41419047Y-78918809D01*
X41895238Y-79014047D01*
X40990476Y-79347380D02*
X40990476Y-78680714D01*
X40990476Y-78871190D02*
X40942857Y-78775952D01*
X40895238Y-78728333D01*
X40800000Y-78680714D01*
X40704761Y-78680714D01*
X40371428Y-79347380D02*
X40371428Y-78680714D01*
X40371428Y-78871190D02*
X40323809Y-78775952D01*
X40276190Y-78728333D01*
X40180952Y-78680714D01*
X40085714Y-78680714D01*
X39847619Y-78680714D02*
X39609523Y-79347380D01*
X39371428Y-78680714D02*
X39609523Y-79347380D01*
X39704761Y-79585476D01*
X39752380Y-79633095D01*
X39847619Y-79680714D01*
X38228571Y-79347380D02*
X38228571Y-78347380D01*
X37847619Y-78347380D01*
X37752380Y-78395000D01*
X37704761Y-78442619D01*
X37657142Y-78537857D01*
X37657142Y-78680714D01*
X37704761Y-78775952D01*
X37752380Y-78823571D01*
X37847619Y-78871190D01*
X38228571Y-78871190D01*
X37228571Y-79347380D02*
X37228571Y-78680714D01*
X37228571Y-78347380D02*
X37276190Y-78395000D01*
X37228571Y-78442619D01*
X37180952Y-78395000D01*
X37228571Y-78347380D01*
X37228571Y-78442619D01*
X43895238Y-80957380D02*
X44228571Y-80481190D01*
X44466666Y-80957380D02*
X44466666Y-79957380D01*
X44085714Y-79957380D01*
X43990476Y-80005000D01*
X43942857Y-80052619D01*
X43895238Y-80147857D01*
X43895238Y-80290714D01*
X43942857Y-80385952D01*
X43990476Y-80433571D01*
X44085714Y-80481190D01*
X44466666Y-80481190D01*
X43466666Y-80957380D02*
X43466666Y-79957380D01*
X43085714Y-79957380D01*
X42990476Y-80005000D01*
X42942857Y-80052619D01*
X42895238Y-80147857D01*
X42895238Y-80290714D01*
X42942857Y-80385952D01*
X42990476Y-80433571D01*
X43085714Y-80481190D01*
X43466666Y-80481190D01*
X42514285Y-80052619D02*
X42466666Y-80005000D01*
X42371428Y-79957380D01*
X42133333Y-79957380D01*
X42038095Y-80005000D01*
X41990476Y-80052619D01*
X41942857Y-80147857D01*
X41942857Y-80243095D01*
X41990476Y-80385952D01*
X42561904Y-80957380D01*
X41942857Y-80957380D01*
X41323809Y-79957380D02*
X41228571Y-79957380D01*
X41133333Y-80005000D01*
X41085714Y-80052619D01*
X41038095Y-80147857D01*
X40990476Y-80338333D01*
X40990476Y-80576428D01*
X41038095Y-80766904D01*
X41085714Y-80862142D01*
X41133333Y-80909761D01*
X41228571Y-80957380D01*
X41323809Y-80957380D01*
X41419047Y-80909761D01*
X41466666Y-80862142D01*
X41514285Y-80766904D01*
X41561904Y-80576428D01*
X41561904Y-80338333D01*
X41514285Y-80147857D01*
X41466666Y-80052619D01*
X41419047Y-80005000D01*
X41323809Y-79957380D01*
X40133333Y-80290714D02*
X40133333Y-80957380D01*
X40371428Y-79909761D02*
X40609523Y-80624047D01*
X39990476Y-80624047D01*
X39419047Y-79957380D02*
X39323809Y-79957380D01*
X39228571Y-80005000D01*
X39180952Y-80052619D01*
X39133333Y-80147857D01*
X39085714Y-80338333D01*
X39085714Y-80576428D01*
X39133333Y-80766904D01*
X39180952Y-80862142D01*
X39228571Y-80909761D01*
X39323809Y-80957380D01*
X39419047Y-80957380D01*
X39514285Y-80909761D01*
X39561904Y-80862142D01*
X39609523Y-80766904D01*
X39657142Y-80576428D01*
X39657142Y-80338333D01*
X39609523Y-80147857D01*
X39561904Y-80052619D01*
X39514285Y-80005000D01*
X39419047Y-79957380D01*
X57333333Y-79547380D02*
X57904761Y-79547380D01*
X57619047Y-79547380D02*
X57619047Y-78547380D01*
X57714285Y-78690238D01*
X57809523Y-78785476D01*
X57904761Y-78833095D01*
X56476190Y-78547380D02*
X56666666Y-78547380D01*
X56761904Y-78595000D01*
X56809523Y-78642619D01*
X56904761Y-78785476D01*
X56952380Y-78975952D01*
X56952380Y-79356904D01*
X56904761Y-79452142D01*
X56857142Y-79499761D01*
X56761904Y-79547380D01*
X56571428Y-79547380D01*
X56476190Y-79499761D01*
X56428571Y-79452142D01*
X56380952Y-79356904D01*
X56380952Y-79118809D01*
X56428571Y-79023571D01*
X56476190Y-78975952D01*
X56571428Y-78928333D01*
X56761904Y-78928333D01*
X56857142Y-78975952D01*
X56904761Y-79023571D01*
X56952380Y-79118809D01*
X55952380Y-79547380D02*
X55952380Y-78547380D01*
X55619047Y-79261666D01*
X55285714Y-78547380D01*
X55285714Y-79547380D01*
X54809523Y-79547380D02*
X54809523Y-78547380D01*
X54809523Y-78928333D02*
X54714285Y-78880714D01*
X54523809Y-78880714D01*
X54428571Y-78928333D01*
X54380952Y-78975952D01*
X54333333Y-79071190D01*
X54333333Y-79356904D01*
X54380952Y-79452142D01*
X54428571Y-79499761D01*
X54523809Y-79547380D01*
X54714285Y-79547380D01*
X54809523Y-79499761D01*
X52476190Y-79642619D02*
X52571428Y-79595000D01*
X52666666Y-79499761D01*
X52809523Y-79356904D01*
X52904761Y-79309285D01*
X53000000Y-79309285D01*
X52952380Y-79547380D02*
X53047619Y-79499761D01*
X53142857Y-79404523D01*
X53190476Y-79214047D01*
X53190476Y-78880714D01*
X53142857Y-78690238D01*
X53047619Y-78595000D01*
X52952380Y-78547380D01*
X52761904Y-78547380D01*
X52666666Y-78595000D01*
X52571428Y-78690238D01*
X52523809Y-78880714D01*
X52523809Y-79214047D01*
X52571428Y-79404523D01*
X52666666Y-79499761D01*
X52761904Y-79547380D01*
X52952380Y-79547380D01*
X52142857Y-79499761D02*
X52000000Y-79547380D01*
X51761904Y-79547380D01*
X51666666Y-79499761D01*
X51619047Y-79452142D01*
X51571428Y-79356904D01*
X51571428Y-79261666D01*
X51619047Y-79166428D01*
X51666666Y-79118809D01*
X51761904Y-79071190D01*
X51952380Y-79023571D01*
X52047619Y-78975952D01*
X52095238Y-78928333D01*
X52142857Y-78833095D01*
X52142857Y-78737857D01*
X52095238Y-78642619D01*
X52047619Y-78595000D01*
X51952380Y-78547380D01*
X51714285Y-78547380D01*
X51571428Y-78595000D01*
X51142857Y-79547380D02*
X51142857Y-78547380D01*
X50761904Y-78547380D01*
X50666666Y-78595000D01*
X50619047Y-78642619D01*
X50571428Y-78737857D01*
X50571428Y-78880714D01*
X50619047Y-78975952D01*
X50666666Y-79023571D01*
X50761904Y-79071190D01*
X51142857Y-79071190D01*
X50142857Y-79547380D02*
X50142857Y-78547380D01*
X57690476Y-81157380D02*
X57690476Y-80157380D01*
X57119047Y-81157380D01*
X57119047Y-80157380D01*
X56452380Y-80157380D02*
X56261904Y-80157380D01*
X56166666Y-80205000D01*
X56071428Y-80300238D01*
X56023809Y-80490714D01*
X56023809Y-80824047D01*
X56071428Y-81014523D01*
X56166666Y-81109761D01*
X56261904Y-81157380D01*
X56452380Y-81157380D01*
X56547619Y-81109761D01*
X56642857Y-81014523D01*
X56690476Y-80824047D01*
X56690476Y-80490714D01*
X56642857Y-80300238D01*
X56547619Y-80205000D01*
X56452380Y-80157380D01*
X55023809Y-81157380D02*
X55357142Y-80681190D01*
X55595238Y-81157380D02*
X55595238Y-80157380D01*
X55214285Y-80157380D01*
X55119047Y-80205000D01*
X55071428Y-80252619D01*
X55023809Y-80347857D01*
X55023809Y-80490714D01*
X55071428Y-80585952D01*
X55119047Y-80633571D01*
X55214285Y-80681190D01*
X55595238Y-80681190D01*
X53500000Y-80633571D02*
X53833333Y-80633571D01*
X53833333Y-81157380D02*
X53833333Y-80157380D01*
X53357142Y-80157380D01*
X52833333Y-81157380D02*
X52928571Y-81109761D01*
X52976190Y-81014523D01*
X52976190Y-80157380D01*
X52023809Y-81157380D02*
X52023809Y-80633571D01*
X52071428Y-80538333D01*
X52166666Y-80490714D01*
X52357142Y-80490714D01*
X52452380Y-80538333D01*
X52023809Y-81109761D02*
X52119047Y-81157380D01*
X52357142Y-81157380D01*
X52452380Y-81109761D01*
X52500000Y-81014523D01*
X52500000Y-80919285D01*
X52452380Y-80824047D01*
X52357142Y-80776428D01*
X52119047Y-80776428D01*
X52023809Y-80728809D01*
X51595238Y-81109761D02*
X51500000Y-81157380D01*
X51309523Y-81157380D01*
X51214285Y-81109761D01*
X51166666Y-81014523D01*
X51166666Y-80966904D01*
X51214285Y-80871666D01*
X51309523Y-80824047D01*
X51452380Y-80824047D01*
X51547619Y-80776428D01*
X51595238Y-80681190D01*
X51595238Y-80633571D01*
X51547619Y-80538333D01*
X51452380Y-80490714D01*
X51309523Y-80490714D01*
X51214285Y-80538333D01*
X50738095Y-81157380D02*
X50738095Y-80157380D01*
X50309523Y-81157380D02*
X50309523Y-80633571D01*
X50357142Y-80538333D01*
X50452380Y-80490714D01*
X50595238Y-80490714D01*
X50690476Y-80538333D01*
X50738095Y-80585952D01*
X53904761Y-62447380D02*
X53285714Y-62447380D01*
X53619047Y-62828333D01*
X53476190Y-62828333D01*
X53380952Y-62875952D01*
X53333333Y-62923571D01*
X53285714Y-63018809D01*
X53285714Y-63256904D01*
X53333333Y-63352142D01*
X53380952Y-63399761D01*
X53476190Y-63447380D01*
X53761904Y-63447380D01*
X53857142Y-63399761D01*
X53904761Y-63352142D01*
X52857142Y-63352142D02*
X52809523Y-63399761D01*
X52857142Y-63447380D01*
X52904761Y-63399761D01*
X52857142Y-63352142D01*
X52857142Y-63447380D01*
X52476190Y-62447380D02*
X51809523Y-62447380D01*
X52238095Y-63447380D01*
X51523809Y-62780714D02*
X51285714Y-63447380D01*
X51047619Y-62780714D01*
X49428571Y-63447380D02*
X49904761Y-63447380D01*
X49904761Y-62447380D01*
X49095238Y-63447380D02*
X49095238Y-62780714D01*
X49095238Y-62447380D02*
X49142857Y-62495000D01*
X49095238Y-62542619D01*
X49047619Y-62495000D01*
X49095238Y-62447380D01*
X49095238Y-62542619D01*
X48619047Y-63447380D02*
X48619047Y-62447380D01*
X48238095Y-62447380D01*
X48142857Y-62495000D01*
X48095238Y-62542619D01*
X48047619Y-62637857D01*
X48047619Y-62780714D01*
X48095238Y-62875952D01*
X48142857Y-62923571D01*
X48238095Y-62971190D01*
X48619047Y-62971190D01*
X47476190Y-63447380D02*
X47571428Y-63399761D01*
X47619047Y-63352142D01*
X47666666Y-63256904D01*
X47666666Y-62971190D01*
X47619047Y-62875952D01*
X47571428Y-62828333D01*
X47476190Y-62780714D01*
X47333333Y-62780714D01*
X47238095Y-62828333D01*
X47190476Y-62875952D01*
X47142857Y-62971190D01*
X47142857Y-63256904D01*
X47190476Y-63352142D01*
X47238095Y-63399761D01*
X47333333Y-63447380D01*
X47476190Y-63447380D01*
X53761904Y-64152619D02*
X53714285Y-64105000D01*
X53619047Y-64057380D01*
X53380952Y-64057380D01*
X53285714Y-64105000D01*
X53238095Y-64152619D01*
X53190476Y-64247857D01*
X53190476Y-64343095D01*
X53238095Y-64485952D01*
X53809523Y-65057380D01*
X53190476Y-65057380D01*
X52809523Y-64152619D02*
X52761904Y-64105000D01*
X52666666Y-64057380D01*
X52428571Y-64057380D01*
X52333333Y-64105000D01*
X52285714Y-64152619D01*
X52238095Y-64247857D01*
X52238095Y-64343095D01*
X52285714Y-64485952D01*
X52857142Y-65057380D01*
X52238095Y-65057380D01*
X51619047Y-64057380D02*
X51523809Y-64057380D01*
X51428571Y-64105000D01*
X51380952Y-64152619D01*
X51333333Y-64247857D01*
X51285714Y-64438333D01*
X51285714Y-64676428D01*
X51333333Y-64866904D01*
X51380952Y-64962142D01*
X51428571Y-65009761D01*
X51523809Y-65057380D01*
X51619047Y-65057380D01*
X51714285Y-65009761D01*
X51761904Y-64962142D01*
X51809523Y-64866904D01*
X51857142Y-64676428D01*
X51857142Y-64438333D01*
X51809523Y-64247857D01*
X51761904Y-64152619D01*
X51714285Y-64105000D01*
X51619047Y-64057380D01*
X50666666Y-64057380D02*
X50571428Y-64057380D01*
X50476190Y-64105000D01*
X50428571Y-64152619D01*
X50380952Y-64247857D01*
X50333333Y-64438333D01*
X50333333Y-64676428D01*
X50380952Y-64866904D01*
X50428571Y-64962142D01*
X50476190Y-65009761D01*
X50571428Y-65057380D01*
X50666666Y-65057380D01*
X50761904Y-65009761D01*
X50809523Y-64962142D01*
X50857142Y-64866904D01*
X50904761Y-64676428D01*
X50904761Y-64438333D01*
X50857142Y-64247857D01*
X50809523Y-64152619D01*
X50761904Y-64105000D01*
X50666666Y-64057380D01*
X49904761Y-65057380D02*
X49904761Y-64390714D01*
X49904761Y-64485952D02*
X49857142Y-64438333D01*
X49761904Y-64390714D01*
X49619047Y-64390714D01*
X49523809Y-64438333D01*
X49476190Y-64533571D01*
X49476190Y-65057380D01*
X49476190Y-64533571D02*
X49428571Y-64438333D01*
X49333333Y-64390714D01*
X49190476Y-64390714D01*
X49095238Y-64438333D01*
X49047619Y-64533571D01*
X49047619Y-65057380D01*
X48619047Y-64771666D02*
X48142857Y-64771666D01*
X48714285Y-65057380D02*
X48380952Y-64057380D01*
X48047619Y-65057380D01*
X47714285Y-65057380D02*
X47714285Y-64057380D01*
X47285714Y-65057380D02*
X47285714Y-64533571D01*
X47333333Y-64438333D01*
X47428571Y-64390714D01*
X47571428Y-64390714D01*
X47666666Y-64438333D01*
X47714285Y-64485952D01*
X133823809Y-70761666D02*
X133347619Y-70761666D01*
X133919047Y-71047380D02*
X133585714Y-70047380D01*
X133252380Y-71047380D01*
X133061904Y-70380714D02*
X132680952Y-70380714D01*
X132919047Y-70047380D02*
X132919047Y-70904523D01*
X132871428Y-70999761D01*
X132776190Y-71047380D01*
X132680952Y-71047380D01*
X132347619Y-71047380D02*
X132347619Y-70380714D01*
X132347619Y-70475952D02*
X132300000Y-70428333D01*
X132204761Y-70380714D01*
X132061904Y-70380714D01*
X131966666Y-70428333D01*
X131919047Y-70523571D01*
X131919047Y-71047380D01*
X131919047Y-70523571D02*
X131871428Y-70428333D01*
X131776190Y-70380714D01*
X131633333Y-70380714D01*
X131538095Y-70428333D01*
X131490476Y-70523571D01*
X131490476Y-71047380D01*
X130633333Y-70999761D02*
X130728571Y-71047380D01*
X130919047Y-71047380D01*
X131014285Y-70999761D01*
X131061904Y-70904523D01*
X131061904Y-70523571D01*
X131014285Y-70428333D01*
X130919047Y-70380714D01*
X130728571Y-70380714D01*
X130633333Y-70428333D01*
X130585714Y-70523571D01*
X130585714Y-70618809D01*
X131061904Y-70714047D01*
X129728571Y-70380714D02*
X129728571Y-71190238D01*
X129776190Y-71285476D01*
X129823809Y-71333095D01*
X129919047Y-71380714D01*
X130061904Y-71380714D01*
X130157142Y-71333095D01*
X129728571Y-70999761D02*
X129823809Y-71047380D01*
X130014285Y-71047380D01*
X130109523Y-70999761D01*
X130157142Y-70952142D01*
X130204761Y-70856904D01*
X130204761Y-70571190D01*
X130157142Y-70475952D01*
X130109523Y-70428333D01*
X130014285Y-70380714D01*
X129823809Y-70380714D01*
X129728571Y-70428333D01*
X128823809Y-71047380D02*
X128823809Y-70523571D01*
X128871428Y-70428333D01*
X128966666Y-70380714D01*
X129157142Y-70380714D01*
X129252380Y-70428333D01*
X128823809Y-70999761D02*
X128919047Y-71047380D01*
X129157142Y-71047380D01*
X129252380Y-70999761D01*
X129300000Y-70904523D01*
X129300000Y-70809285D01*
X129252380Y-70714047D01*
X129157142Y-70666428D01*
X128919047Y-70666428D01*
X128823809Y-70618809D01*
X133490476Y-71657380D02*
X132871428Y-71657380D01*
X133204761Y-72038333D01*
X133061904Y-72038333D01*
X132966666Y-72085952D01*
X132919047Y-72133571D01*
X132871428Y-72228809D01*
X132871428Y-72466904D01*
X132919047Y-72562142D01*
X132966666Y-72609761D01*
X133061904Y-72657380D01*
X133347619Y-72657380D01*
X133442857Y-72609761D01*
X133490476Y-72562142D01*
X132490476Y-71752619D02*
X132442857Y-71705000D01*
X132347619Y-71657380D01*
X132109523Y-71657380D01*
X132014285Y-71705000D01*
X131966666Y-71752619D01*
X131919047Y-71847857D01*
X131919047Y-71943095D01*
X131966666Y-72085952D01*
X132538095Y-72657380D01*
X131919047Y-72657380D01*
X131347619Y-72085952D02*
X131442857Y-72038333D01*
X131490476Y-71990714D01*
X131538095Y-71895476D01*
X131538095Y-71847857D01*
X131490476Y-71752619D01*
X131442857Y-71705000D01*
X131347619Y-71657380D01*
X131157142Y-71657380D01*
X131061904Y-71705000D01*
X131014285Y-71752619D01*
X130966666Y-71847857D01*
X130966666Y-71895476D01*
X131014285Y-71990714D01*
X131061904Y-72038333D01*
X131157142Y-72085952D01*
X131347619Y-72085952D01*
X131442857Y-72133571D01*
X131490476Y-72181190D01*
X131538095Y-72276428D01*
X131538095Y-72466904D01*
X131490476Y-72562142D01*
X131442857Y-72609761D01*
X131347619Y-72657380D01*
X131157142Y-72657380D01*
X131061904Y-72609761D01*
X131014285Y-72562142D01*
X130966666Y-72466904D01*
X130966666Y-72276428D01*
X131014285Y-72181190D01*
X131061904Y-72133571D01*
X131157142Y-72085952D01*
X130538095Y-71990714D02*
X130538095Y-72990714D01*
X130538095Y-72038333D02*
X130442857Y-71990714D01*
X130252380Y-71990714D01*
X130157142Y-72038333D01*
X130109523Y-72085952D01*
X130061904Y-72181190D01*
X130061904Y-72466904D01*
X130109523Y-72562142D01*
X130157142Y-72609761D01*
X130252380Y-72657380D01*
X130442857Y-72657380D01*
X130538095Y-72609761D01*
X129633333Y-72657380D02*
X129633333Y-71657380D01*
X129633333Y-72038333D02*
X129538095Y-71990714D01*
X129347619Y-71990714D01*
X129252380Y-72038333D01*
X129204761Y-72085952D01*
X129157142Y-72181190D01*
X129157142Y-72466904D01*
X129204761Y-72562142D01*
X129252380Y-72609761D01*
X129347619Y-72657380D01*
X129538095Y-72657380D01*
X129633333Y-72609761D01*
%TO.C,U5*%
X43361904Y-92352380D02*
X43361904Y-93161904D01*
X43314285Y-93257142D01*
X43266666Y-93304761D01*
X43171428Y-93352380D01*
X42980952Y-93352380D01*
X42885714Y-93304761D01*
X42838095Y-93257142D01*
X42790476Y-93161904D01*
X42790476Y-92352380D01*
X41838095Y-92352380D02*
X42314285Y-92352380D01*
X42361904Y-92828571D01*
X42314285Y-92780952D01*
X42219047Y-92733333D01*
X41980952Y-92733333D01*
X41885714Y-92780952D01*
X41838095Y-92828571D01*
X41790476Y-92923809D01*
X41790476Y-93161904D01*
X41838095Y-93257142D01*
X41885714Y-93304761D01*
X41980952Y-93352380D01*
X42219047Y-93352380D01*
X42314285Y-93304761D01*
X42361904Y-93257142D01*
%TO.C,D4*%
X46332380Y-106411904D02*
X45332380Y-106411904D01*
X45332380Y-106650000D01*
X45380000Y-106792857D01*
X45475238Y-106888095D01*
X45570476Y-106935714D01*
X45760952Y-106983333D01*
X45903809Y-106983333D01*
X46094285Y-106935714D01*
X46189523Y-106888095D01*
X46284761Y-106792857D01*
X46332380Y-106650000D01*
X46332380Y-106411904D01*
X45665714Y-107840476D02*
X46332380Y-107840476D01*
X45284761Y-107602380D02*
X45999047Y-107364285D01*
X45999047Y-107983333D01*
%TO.C,D33*%
X93772379Y-129185714D02*
X92772379Y-129185714D01*
X92772379Y-129423809D01*
X92819999Y-129566666D01*
X92915237Y-129661904D01*
X93010475Y-129709523D01*
X93200951Y-129757142D01*
X93343808Y-129757142D01*
X93534284Y-129709523D01*
X93629522Y-129661904D01*
X93724760Y-129566666D01*
X93772379Y-129423809D01*
X93772379Y-129185714D01*
X92772379Y-130090476D02*
X92772379Y-130709523D01*
X93153332Y-130376190D01*
X93153332Y-130519047D01*
X93200951Y-130614285D01*
X93248570Y-130661904D01*
X93343808Y-130709523D01*
X93581903Y-130709523D01*
X93677141Y-130661904D01*
X93724760Y-130614285D01*
X93772379Y-130519047D01*
X93772379Y-130233333D01*
X93724760Y-130138095D01*
X93677141Y-130090476D01*
X92772379Y-131042857D02*
X92772379Y-131661904D01*
X93153332Y-131328571D01*
X93153332Y-131471428D01*
X93200951Y-131566666D01*
X93248570Y-131614285D01*
X93343808Y-131661904D01*
X93581903Y-131661904D01*
X93677141Y-131614285D01*
X93724760Y-131566666D01*
X93772379Y-131471428D01*
X93772379Y-131185714D01*
X93724760Y-131090476D01*
X93677141Y-131042857D01*
%TO.C,D49*%
X102292380Y-121435714D02*
X101292380Y-121435714D01*
X101292380Y-121673809D01*
X101340000Y-121816666D01*
X101435238Y-121911904D01*
X101530476Y-121959523D01*
X101720952Y-122007142D01*
X101863809Y-122007142D01*
X102054285Y-121959523D01*
X102149523Y-121911904D01*
X102244761Y-121816666D01*
X102292380Y-121673809D01*
X102292380Y-121435714D01*
X101625714Y-122864285D02*
X102292380Y-122864285D01*
X101244761Y-122626190D02*
X101959047Y-122388095D01*
X101959047Y-123007142D01*
X102292380Y-123435714D02*
X102292380Y-123626190D01*
X102244761Y-123721428D01*
X102197142Y-123769047D01*
X102054285Y-123864285D01*
X101863809Y-123911904D01*
X101482857Y-123911904D01*
X101387619Y-123864285D01*
X101340000Y-123816666D01*
X101292380Y-123721428D01*
X101292380Y-123530952D01*
X101340000Y-123435714D01*
X101387619Y-123388095D01*
X101482857Y-123340476D01*
X101720952Y-123340476D01*
X101816190Y-123388095D01*
X101863809Y-123435714D01*
X101911428Y-123530952D01*
X101911428Y-123721428D01*
X101863809Y-123816666D01*
X101816190Y-123864285D01*
X101720952Y-123911904D01*
%TO.C,D12*%
X40552380Y-105935714D02*
X39552380Y-105935714D01*
X39552380Y-106173809D01*
X39600000Y-106316666D01*
X39695238Y-106411904D01*
X39790476Y-106459523D01*
X39980952Y-106507142D01*
X40123809Y-106507142D01*
X40314285Y-106459523D01*
X40409523Y-106411904D01*
X40504761Y-106316666D01*
X40552380Y-106173809D01*
X40552380Y-105935714D01*
X40552380Y-107459523D02*
X40552380Y-106888095D01*
X40552380Y-107173809D02*
X39552380Y-107173809D01*
X39695238Y-107078571D01*
X39790476Y-106983333D01*
X39838095Y-106888095D01*
X39647619Y-107840476D02*
X39600000Y-107888095D01*
X39552380Y-107983333D01*
X39552380Y-108221428D01*
X39600000Y-108316666D01*
X39647619Y-108364285D01*
X39742857Y-108411904D01*
X39838095Y-108411904D01*
X39980952Y-108364285D01*
X40552380Y-107792857D01*
X40552380Y-108411904D01*
%TO.C,R8*%
X130465956Y-84072380D02*
X130799290Y-83596190D01*
X131037385Y-84072380D02*
X131037385Y-83072380D01*
X130656432Y-83072380D01*
X130561194Y-83120000D01*
X130513575Y-83167619D01*
X130465956Y-83262857D01*
X130465956Y-83405714D01*
X130513575Y-83500952D01*
X130561194Y-83548571D01*
X130656432Y-83596190D01*
X131037385Y-83596190D01*
X129894528Y-83500952D02*
X129989766Y-83453333D01*
X130037385Y-83405714D01*
X130085004Y-83310476D01*
X130085004Y-83262857D01*
X130037385Y-83167619D01*
X129989766Y-83120000D01*
X129894528Y-83072380D01*
X129704051Y-83072380D01*
X129608813Y-83120000D01*
X129561194Y-83167619D01*
X129513575Y-83262857D01*
X129513575Y-83310476D01*
X129561194Y-83405714D01*
X129608813Y-83453333D01*
X129704051Y-83500952D01*
X129894528Y-83500952D01*
X129989766Y-83548571D01*
X130037385Y-83596190D01*
X130085004Y-83691428D01*
X130085004Y-83881904D01*
X130037385Y-83977142D01*
X129989766Y-84024761D01*
X129894528Y-84072380D01*
X129704051Y-84072380D01*
X129608813Y-84024761D01*
X129561194Y-83977142D01*
X129513575Y-83881904D01*
X129513575Y-83691428D01*
X129561194Y-83596190D01*
X129608813Y-83548571D01*
X129704051Y-83500952D01*
%TO.C,D59*%
X136552380Y-121435714D02*
X135552380Y-121435714D01*
X135552380Y-121673809D01*
X135600000Y-121816666D01*
X135695238Y-121911904D01*
X135790476Y-121959523D01*
X135980952Y-122007142D01*
X136123809Y-122007142D01*
X136314285Y-121959523D01*
X136409523Y-121911904D01*
X136504761Y-121816666D01*
X136552380Y-121673809D01*
X136552380Y-121435714D01*
X135552380Y-122911904D02*
X135552380Y-122435714D01*
X136028571Y-122388095D01*
X135980952Y-122435714D01*
X135933333Y-122530952D01*
X135933333Y-122769047D01*
X135980952Y-122864285D01*
X136028571Y-122911904D01*
X136123809Y-122959523D01*
X136361904Y-122959523D01*
X136457142Y-122911904D01*
X136504761Y-122864285D01*
X136552380Y-122769047D01*
X136552380Y-122530952D01*
X136504761Y-122435714D01*
X136457142Y-122388095D01*
X136552380Y-123435714D02*
X136552380Y-123626190D01*
X136504761Y-123721428D01*
X136457142Y-123769047D01*
X136314285Y-123864285D01*
X136123809Y-123911904D01*
X135742857Y-123911904D01*
X135647619Y-123864285D01*
X135600000Y-123816666D01*
X135552380Y-123721428D01*
X135552380Y-123530952D01*
X135600000Y-123435714D01*
X135647619Y-123388095D01*
X135742857Y-123340476D01*
X135980952Y-123340476D01*
X136076190Y-123388095D01*
X136123809Y-123435714D01*
X136171428Y-123530952D01*
X136171428Y-123721428D01*
X136123809Y-123816666D01*
X136076190Y-123864285D01*
X135980952Y-123911904D01*
%TO.C,D58*%
X118522380Y-113685714D02*
X117522380Y-113685714D01*
X117522380Y-113923809D01*
X117570000Y-114066666D01*
X117665238Y-114161904D01*
X117760476Y-114209523D01*
X117950952Y-114257142D01*
X118093809Y-114257142D01*
X118284285Y-114209523D01*
X118379523Y-114161904D01*
X118474761Y-114066666D01*
X118522380Y-113923809D01*
X118522380Y-113685714D01*
X117522380Y-115161904D02*
X117522380Y-114685714D01*
X117998571Y-114638095D01*
X117950952Y-114685714D01*
X117903333Y-114780952D01*
X117903333Y-115019047D01*
X117950952Y-115114285D01*
X117998571Y-115161904D01*
X118093809Y-115209523D01*
X118331904Y-115209523D01*
X118427142Y-115161904D01*
X118474761Y-115114285D01*
X118522380Y-115019047D01*
X118522380Y-114780952D01*
X118474761Y-114685714D01*
X118427142Y-114638095D01*
X117950952Y-115780952D02*
X117903333Y-115685714D01*
X117855714Y-115638095D01*
X117760476Y-115590476D01*
X117712857Y-115590476D01*
X117617619Y-115638095D01*
X117570000Y-115685714D01*
X117522380Y-115780952D01*
X117522380Y-115971428D01*
X117570000Y-116066666D01*
X117617619Y-116114285D01*
X117712857Y-116161904D01*
X117760476Y-116161904D01*
X117855714Y-116114285D01*
X117903333Y-116066666D01*
X117950952Y-115971428D01*
X117950952Y-115780952D01*
X117998571Y-115685714D01*
X118046190Y-115638095D01*
X118141428Y-115590476D01*
X118331904Y-115590476D01*
X118427142Y-115638095D01*
X118474761Y-115685714D01*
X118522380Y-115780952D01*
X118522380Y-115971428D01*
X118474761Y-116066666D01*
X118427142Y-116114285D01*
X118331904Y-116161904D01*
X118141428Y-116161904D01*
X118046190Y-116114285D01*
X117998571Y-116066666D01*
X117950952Y-115971428D01*
%TO.C,R2*%
X46760385Y-87482380D02*
X47093719Y-87006190D01*
X47331814Y-87482380D02*
X47331814Y-86482380D01*
X46950861Y-86482380D01*
X46855623Y-86530000D01*
X46808004Y-86577619D01*
X46760385Y-86672857D01*
X46760385Y-86815714D01*
X46808004Y-86910952D01*
X46855623Y-86958571D01*
X46950861Y-87006190D01*
X47331814Y-87006190D01*
X46379433Y-86577619D02*
X46331814Y-86530000D01*
X46236576Y-86482380D01*
X45998480Y-86482380D01*
X45903242Y-86530000D01*
X45855623Y-86577619D01*
X45808004Y-86672857D01*
X45808004Y-86768095D01*
X45855623Y-86910952D01*
X46427052Y-87482380D01*
X45808004Y-87482380D01*
%TO.C,U2*%
X131824404Y-91902380D02*
X131824404Y-92711904D01*
X131776785Y-92807142D01*
X131729166Y-92854761D01*
X131633928Y-92902380D01*
X131443452Y-92902380D01*
X131348214Y-92854761D01*
X131300595Y-92807142D01*
X131252976Y-92711904D01*
X131252976Y-91902380D01*
X130824404Y-91997619D02*
X130776785Y-91950000D01*
X130681547Y-91902380D01*
X130443452Y-91902380D01*
X130348214Y-91950000D01*
X130300595Y-91997619D01*
X130252976Y-92092857D01*
X130252976Y-92188095D01*
X130300595Y-92330952D01*
X130872023Y-92902380D01*
X130252976Y-92902380D01*
%TO.C,D65*%
X109952381Y-105935714D02*
X108952381Y-105935714D01*
X108952381Y-106173809D01*
X109000001Y-106316666D01*
X109095239Y-106411904D01*
X109190477Y-106459523D01*
X109380953Y-106507142D01*
X109523810Y-106507142D01*
X109714286Y-106459523D01*
X109809524Y-106411904D01*
X109904762Y-106316666D01*
X109952381Y-106173809D01*
X109952381Y-105935714D01*
X108952381Y-107364285D02*
X108952381Y-107173809D01*
X109000001Y-107078571D01*
X109047620Y-107030952D01*
X109190477Y-106935714D01*
X109380953Y-106888095D01*
X109761905Y-106888095D01*
X109857143Y-106935714D01*
X109904762Y-106983333D01*
X109952381Y-107078571D01*
X109952381Y-107269047D01*
X109904762Y-107364285D01*
X109857143Y-107411904D01*
X109761905Y-107459523D01*
X109523810Y-107459523D01*
X109428572Y-107411904D01*
X109380953Y-107364285D01*
X109333334Y-107269047D01*
X109333334Y-107078571D01*
X109380953Y-106983333D01*
X109428572Y-106935714D01*
X109523810Y-106888095D01*
X108952381Y-108364285D02*
X108952381Y-107888095D01*
X109428572Y-107840476D01*
X109380953Y-107888095D01*
X109333334Y-107983333D01*
X109333334Y-108221428D01*
X109380953Y-108316666D01*
X109428572Y-108364285D01*
X109523810Y-108411904D01*
X109761905Y-108411904D01*
X109857143Y-108364285D01*
X109904762Y-108316666D01*
X109952381Y-108221428D01*
X109952381Y-107983333D01*
X109904762Y-107888095D01*
X109857143Y-107840476D01*
%TO.C,D44*%
X40552380Y-129185715D02*
X39552380Y-129185715D01*
X39552380Y-129423810D01*
X39600000Y-129566667D01*
X39695238Y-129661905D01*
X39790476Y-129709524D01*
X39980952Y-129757143D01*
X40123809Y-129757143D01*
X40314285Y-129709524D01*
X40409523Y-129661905D01*
X40504761Y-129566667D01*
X40552380Y-129423810D01*
X40552380Y-129185715D01*
X39885714Y-130614286D02*
X40552380Y-130614286D01*
X39504761Y-130376191D02*
X40219047Y-130138096D01*
X40219047Y-130757143D01*
X39885714Y-131566667D02*
X40552380Y-131566667D01*
X39504761Y-131328572D02*
X40219047Y-131090477D01*
X40219047Y-131709524D01*
%TO.C,D62*%
X75252380Y-105935714D02*
X74252380Y-105935714D01*
X74252380Y-106173809D01*
X74300000Y-106316666D01*
X74395238Y-106411904D01*
X74490476Y-106459523D01*
X74680952Y-106507142D01*
X74823809Y-106507142D01*
X75014285Y-106459523D01*
X75109523Y-106411904D01*
X75204761Y-106316666D01*
X75252380Y-106173809D01*
X75252380Y-105935714D01*
X74252380Y-107364285D02*
X74252380Y-107173809D01*
X74300000Y-107078571D01*
X74347619Y-107030952D01*
X74490476Y-106935714D01*
X74680952Y-106888095D01*
X75061904Y-106888095D01*
X75157142Y-106935714D01*
X75204761Y-106983333D01*
X75252380Y-107078571D01*
X75252380Y-107269047D01*
X75204761Y-107364285D01*
X75157142Y-107411904D01*
X75061904Y-107459523D01*
X74823809Y-107459523D01*
X74728571Y-107411904D01*
X74680952Y-107364285D01*
X74633333Y-107269047D01*
X74633333Y-107078571D01*
X74680952Y-106983333D01*
X74728571Y-106935714D01*
X74823809Y-106888095D01*
X74347619Y-107840476D02*
X74300000Y-107888095D01*
X74252380Y-107983333D01*
X74252380Y-108221428D01*
X74300000Y-108316666D01*
X74347619Y-108364285D01*
X74442857Y-108411904D01*
X74538095Y-108411904D01*
X74680952Y-108364285D01*
X75252380Y-107792857D01*
X75252380Y-108411904D01*
%TO.C,D46*%
X67922381Y-121435714D02*
X66922381Y-121435714D01*
X66922381Y-121673809D01*
X66970001Y-121816666D01*
X67065239Y-121911904D01*
X67160477Y-121959523D01*
X67350953Y-122007142D01*
X67493810Y-122007142D01*
X67684286Y-121959523D01*
X67779524Y-121911904D01*
X67874762Y-121816666D01*
X67922381Y-121673809D01*
X67922381Y-121435714D01*
X67255715Y-122864285D02*
X67922381Y-122864285D01*
X66874762Y-122626190D02*
X67589048Y-122388095D01*
X67589048Y-123007142D01*
X66922381Y-123816666D02*
X66922381Y-123626190D01*
X66970001Y-123530952D01*
X67017620Y-123483333D01*
X67160477Y-123388095D01*
X67350953Y-123340476D01*
X67731905Y-123340476D01*
X67827143Y-123388095D01*
X67874762Y-123435714D01*
X67922381Y-123530952D01*
X67922381Y-123721428D01*
X67874762Y-123816666D01*
X67827143Y-123864285D01*
X67731905Y-123911904D01*
X67493810Y-123911904D01*
X67398572Y-123864285D01*
X67350953Y-123816666D01*
X67303334Y-123721428D01*
X67303334Y-123530952D01*
X67350953Y-123435714D01*
X67398572Y-123388095D01*
X67493810Y-123340476D01*
%TO.C,Y1*%
X45326190Y-101826190D02*
X45326190Y-102302380D01*
X45659523Y-101302380D02*
X45326190Y-101826190D01*
X44992857Y-101302380D01*
X44135714Y-102302380D02*
X44707142Y-102302380D01*
X44421428Y-102302380D02*
X44421428Y-101302380D01*
X44516666Y-101445238D01*
X44611904Y-101540476D01*
X44707142Y-101588095D01*
%TO.C,BT1*%
X127185714Y-86528571D02*
X127042857Y-86576190D01*
X126995238Y-86623809D01*
X126947619Y-86719047D01*
X126947619Y-86861904D01*
X126995238Y-86957142D01*
X127042857Y-87004761D01*
X127138095Y-87052380D01*
X127519047Y-87052380D01*
X127519047Y-86052380D01*
X127185714Y-86052380D01*
X127090476Y-86100000D01*
X127042857Y-86147619D01*
X126995238Y-86242857D01*
X126995238Y-86338095D01*
X127042857Y-86433333D01*
X127090476Y-86480952D01*
X127185714Y-86528571D01*
X127519047Y-86528571D01*
X126661904Y-86052380D02*
X126090476Y-86052380D01*
X126376190Y-87052380D02*
X126376190Y-86052380D01*
X125233333Y-87052380D02*
X125804761Y-87052380D01*
X125519047Y-87052380D02*
X125519047Y-86052380D01*
X125614285Y-86195238D01*
X125709523Y-86290476D01*
X125804761Y-86338095D01*
%TO.C,C18*%
X48792857Y-90957142D02*
X48840476Y-91004761D01*
X48983333Y-91052380D01*
X49078571Y-91052380D01*
X49221428Y-91004761D01*
X49316666Y-90909523D01*
X49364285Y-90814285D01*
X49411904Y-90623809D01*
X49411904Y-90480952D01*
X49364285Y-90290476D01*
X49316666Y-90195238D01*
X49221428Y-90100000D01*
X49078571Y-90052380D01*
X48983333Y-90052380D01*
X48840476Y-90100000D01*
X48792857Y-90147619D01*
X47840476Y-91052380D02*
X48411904Y-91052380D01*
X48126190Y-91052380D02*
X48126190Y-90052380D01*
X48221428Y-90195238D01*
X48316666Y-90290476D01*
X48411904Y-90338095D01*
X47269047Y-90480952D02*
X47364285Y-90433333D01*
X47411904Y-90385714D01*
X47459523Y-90290476D01*
X47459523Y-90242857D01*
X47411904Y-90147619D01*
X47364285Y-90100000D01*
X47269047Y-90052380D01*
X47078571Y-90052380D01*
X46983333Y-90100000D01*
X46935714Y-90147619D01*
X46888095Y-90242857D01*
X46888095Y-90290476D01*
X46935714Y-90385714D01*
X46983333Y-90433333D01*
X47078571Y-90480952D01*
X47269047Y-90480952D01*
X47364285Y-90528571D01*
X47411904Y-90576190D01*
X47459523Y-90671428D01*
X47459523Y-90861904D01*
X47411904Y-90957142D01*
X47364285Y-91004761D01*
X47269047Y-91052380D01*
X47078571Y-91052380D01*
X46983333Y-91004761D01*
X46935714Y-90957142D01*
X46888095Y-90861904D01*
X46888095Y-90671428D01*
X46935714Y-90576190D01*
X46983333Y-90528571D01*
X47078571Y-90480952D01*
%TO.C,J3*%
X113578333Y-73457380D02*
X113578333Y-74171666D01*
X113625952Y-74314523D01*
X113721190Y-74409761D01*
X113864047Y-74457380D01*
X113959285Y-74457380D01*
X113197380Y-73457380D02*
X112578333Y-73457380D01*
X112911666Y-73838333D01*
X112768809Y-73838333D01*
X112673571Y-73885952D01*
X112625952Y-73933571D01*
X112578333Y-74028809D01*
X112578333Y-74266904D01*
X112625952Y-74362142D01*
X112673571Y-74409761D01*
X112768809Y-74457380D01*
X113054523Y-74457380D01*
X113149761Y-74409761D01*
X113197380Y-74362142D01*
%TO.C,C10*%
X43842857Y-88557142D02*
X43890476Y-88604761D01*
X44033333Y-88652380D01*
X44128571Y-88652380D01*
X44271428Y-88604761D01*
X44366666Y-88509523D01*
X44414285Y-88414285D01*
X44461904Y-88223809D01*
X44461904Y-88080952D01*
X44414285Y-87890476D01*
X44366666Y-87795238D01*
X44271428Y-87700000D01*
X44128571Y-87652380D01*
X44033333Y-87652380D01*
X43890476Y-87700000D01*
X43842857Y-87747619D01*
X42890476Y-88652380D02*
X43461904Y-88652380D01*
X43176190Y-88652380D02*
X43176190Y-87652380D01*
X43271428Y-87795238D01*
X43366666Y-87890476D01*
X43461904Y-87938095D01*
X42271428Y-87652380D02*
X42176190Y-87652380D01*
X42080952Y-87700000D01*
X42033333Y-87747619D01*
X41985714Y-87842857D01*
X41938095Y-88033333D01*
X41938095Y-88271428D01*
X41985714Y-88461904D01*
X42033333Y-88557142D01*
X42080952Y-88604761D01*
X42176190Y-88652380D01*
X42271428Y-88652380D01*
X42366666Y-88604761D01*
X42414285Y-88557142D01*
X42461904Y-88461904D01*
X42509523Y-88271428D01*
X42509523Y-88033333D01*
X42461904Y-87842857D01*
X42414285Y-87747619D01*
X42366666Y-87700000D01*
X42271428Y-87652380D01*
%TO.C,C7*%
X41766666Y-102157142D02*
X41814285Y-102204761D01*
X41957142Y-102252380D01*
X42052380Y-102252380D01*
X42195238Y-102204761D01*
X42290476Y-102109523D01*
X42338095Y-102014285D01*
X42385714Y-101823809D01*
X42385714Y-101680952D01*
X42338095Y-101490476D01*
X42290476Y-101395238D01*
X42195238Y-101300000D01*
X42052380Y-101252380D01*
X41957142Y-101252380D01*
X41814285Y-101300000D01*
X41766666Y-101347619D01*
X41433333Y-101252380D02*
X40766666Y-101252380D01*
X41195238Y-102252380D01*
%TO.C,C17*%
X48757142Y-92057142D02*
X48804761Y-92009523D01*
X48852380Y-91866666D01*
X48852380Y-91771428D01*
X48804761Y-91628571D01*
X48709523Y-91533333D01*
X48614285Y-91485714D01*
X48423809Y-91438095D01*
X48280952Y-91438095D01*
X48090476Y-91485714D01*
X47995238Y-91533333D01*
X47900000Y-91628571D01*
X47852380Y-91771428D01*
X47852380Y-91866666D01*
X47900000Y-92009523D01*
X47947619Y-92057142D01*
X48852380Y-93009523D02*
X48852380Y-92438095D01*
X48852380Y-92723809D02*
X47852380Y-92723809D01*
X47995238Y-92628571D01*
X48090476Y-92533333D01*
X48138095Y-92438095D01*
X47852380Y-93342857D02*
X47852380Y-94009523D01*
X48852380Y-93580952D01*
%TO.C,D56*%
X95302380Y-113685714D02*
X94302380Y-113685714D01*
X94302380Y-113923809D01*
X94350000Y-114066666D01*
X94445238Y-114161904D01*
X94540476Y-114209523D01*
X94730952Y-114257142D01*
X94873809Y-114257142D01*
X95064285Y-114209523D01*
X95159523Y-114161904D01*
X95254761Y-114066666D01*
X95302380Y-113923809D01*
X95302380Y-113685714D01*
X94302380Y-115161904D02*
X94302380Y-114685714D01*
X94778571Y-114638095D01*
X94730952Y-114685714D01*
X94683333Y-114780952D01*
X94683333Y-115019047D01*
X94730952Y-115114285D01*
X94778571Y-115161904D01*
X94873809Y-115209523D01*
X95111904Y-115209523D01*
X95207142Y-115161904D01*
X95254761Y-115114285D01*
X95302380Y-115019047D01*
X95302380Y-114780952D01*
X95254761Y-114685714D01*
X95207142Y-114638095D01*
X94302380Y-116066666D02*
X94302380Y-115876190D01*
X94350000Y-115780952D01*
X94397619Y-115733333D01*
X94540476Y-115638095D01*
X94730952Y-115590476D01*
X95111904Y-115590476D01*
X95207142Y-115638095D01*
X95254761Y-115685714D01*
X95302380Y-115780952D01*
X95302380Y-115971428D01*
X95254761Y-116066666D01*
X95207142Y-116114285D01*
X95111904Y-116161904D01*
X94873809Y-116161904D01*
X94778571Y-116114285D01*
X94730952Y-116066666D01*
X94683333Y-115971428D01*
X94683333Y-115780952D01*
X94730952Y-115685714D01*
X94778571Y-115638095D01*
X94873809Y-115590476D01*
%TO.C,D19*%
X122802380Y-121435714D02*
X121802380Y-121435714D01*
X121802380Y-121673809D01*
X121850000Y-121816666D01*
X121945238Y-121911904D01*
X122040476Y-121959523D01*
X122230952Y-122007142D01*
X122373809Y-122007142D01*
X122564285Y-121959523D01*
X122659523Y-121911904D01*
X122754761Y-121816666D01*
X122802380Y-121673809D01*
X122802380Y-121435714D01*
X122802380Y-122959523D02*
X122802380Y-122388095D01*
X122802380Y-122673809D02*
X121802380Y-122673809D01*
X121945238Y-122578571D01*
X122040476Y-122483333D01*
X122088095Y-122388095D01*
X122802380Y-123435714D02*
X122802380Y-123626190D01*
X122754761Y-123721428D01*
X122707142Y-123769047D01*
X122564285Y-123864285D01*
X122373809Y-123911904D01*
X121992857Y-123911904D01*
X121897619Y-123864285D01*
X121850000Y-123816666D01*
X121802380Y-123721428D01*
X121802380Y-123530952D01*
X121850000Y-123435714D01*
X121897619Y-123388095D01*
X121992857Y-123340476D01*
X122230952Y-123340476D01*
X122326190Y-123388095D01*
X122373809Y-123435714D01*
X122421428Y-123530952D01*
X122421428Y-123721428D01*
X122373809Y-123816666D01*
X122326190Y-123864285D01*
X122230952Y-123911904D01*
%TO.C,D9*%
X104162380Y-106411904D02*
X103162380Y-106411904D01*
X103162380Y-106650000D01*
X103210000Y-106792857D01*
X103305238Y-106888095D01*
X103400476Y-106935714D01*
X103590952Y-106983333D01*
X103733809Y-106983333D01*
X103924285Y-106935714D01*
X104019523Y-106888095D01*
X104114761Y-106792857D01*
X104162380Y-106650000D01*
X104162380Y-106411904D01*
X104162380Y-107459523D02*
X104162380Y-107650000D01*
X104114761Y-107745238D01*
X104067142Y-107792857D01*
X103924285Y-107888095D01*
X103733809Y-107935714D01*
X103352857Y-107935714D01*
X103257619Y-107888095D01*
X103210000Y-107840476D01*
X103162380Y-107745238D01*
X103162380Y-107554761D01*
X103210000Y-107459523D01*
X103257619Y-107411904D01*
X103352857Y-107364285D01*
X103590952Y-107364285D01*
X103686190Y-107411904D01*
X103733809Y-107459523D01*
X103781428Y-107554761D01*
X103781428Y-107745238D01*
X103733809Y-107840476D01*
X103686190Y-107888095D01*
X103590952Y-107935714D01*
%TO.C,C9*%
X43866666Y-84957142D02*
X43914285Y-85004761D01*
X44057142Y-85052380D01*
X44152380Y-85052380D01*
X44295238Y-85004761D01*
X44390476Y-84909523D01*
X44438095Y-84814285D01*
X44485714Y-84623809D01*
X44485714Y-84480952D01*
X44438095Y-84290476D01*
X44390476Y-84195238D01*
X44295238Y-84100000D01*
X44152380Y-84052380D01*
X44057142Y-84052380D01*
X43914285Y-84100000D01*
X43866666Y-84147619D01*
X43390476Y-85052380D02*
X43200000Y-85052380D01*
X43104761Y-85004761D01*
X43057142Y-84957142D01*
X42961904Y-84814285D01*
X42914285Y-84623809D01*
X42914285Y-84242857D01*
X42961904Y-84147619D01*
X43009523Y-84100000D01*
X43104761Y-84052380D01*
X43295238Y-84052380D01*
X43390476Y-84100000D01*
X43438095Y-84147619D01*
X43485714Y-84242857D01*
X43485714Y-84480952D01*
X43438095Y-84576190D01*
X43390476Y-84623809D01*
X43295238Y-84671428D01*
X43104761Y-84671428D01*
X43009523Y-84623809D01*
X42961904Y-84576190D01*
X42914285Y-84480952D01*
%TO.C,D36*%
X75544285Y-136002380D02*
X75544285Y-135002380D01*
X75306190Y-135002380D01*
X75163333Y-135050000D01*
X75068095Y-135145238D01*
X75020476Y-135240476D01*
X74972857Y-135430952D01*
X74972857Y-135573809D01*
X75020476Y-135764285D01*
X75068095Y-135859523D01*
X75163333Y-135954761D01*
X75306190Y-136002380D01*
X75544285Y-136002380D01*
X74639523Y-135002380D02*
X74020476Y-135002380D01*
X74353809Y-135383333D01*
X74210952Y-135383333D01*
X74115714Y-135430952D01*
X74068095Y-135478571D01*
X74020476Y-135573809D01*
X74020476Y-135811904D01*
X74068095Y-135907142D01*
X74115714Y-135954761D01*
X74210952Y-136002380D01*
X74496666Y-136002380D01*
X74591904Y-135954761D01*
X74639523Y-135907142D01*
X73163333Y-135002380D02*
X73353809Y-135002380D01*
X73449047Y-135050000D01*
X73496666Y-135097619D01*
X73591904Y-135240476D01*
X73639523Y-135430952D01*
X73639523Y-135811904D01*
X73591904Y-135907142D01*
X73544285Y-135954761D01*
X73449047Y-136002380D01*
X73258571Y-136002380D01*
X73163333Y-135954761D01*
X73115714Y-135907142D01*
X73068095Y-135811904D01*
X73068095Y-135573809D01*
X73115714Y-135478571D01*
X73163333Y-135430952D01*
X73258571Y-135383333D01*
X73449047Y-135383333D01*
X73544285Y-135430952D01*
X73591904Y-135478571D01*
X73639523Y-135573809D01*
%TO.C,D25*%
X96672381Y-121435714D02*
X95672381Y-121435714D01*
X95672381Y-121673809D01*
X95720001Y-121816666D01*
X95815239Y-121911904D01*
X95910477Y-121959523D01*
X96100953Y-122007142D01*
X96243810Y-122007142D01*
X96434286Y-121959523D01*
X96529524Y-121911904D01*
X96624762Y-121816666D01*
X96672381Y-121673809D01*
X96672381Y-121435714D01*
X95767620Y-122388095D02*
X95720001Y-122435714D01*
X95672381Y-122530952D01*
X95672381Y-122769047D01*
X95720001Y-122864285D01*
X95767620Y-122911904D01*
X95862858Y-122959523D01*
X95958096Y-122959523D01*
X96100953Y-122911904D01*
X96672381Y-122340476D01*
X96672381Y-122959523D01*
X95672381Y-123864285D02*
X95672381Y-123388095D01*
X96148572Y-123340476D01*
X96100953Y-123388095D01*
X96053334Y-123483333D01*
X96053334Y-123721428D01*
X96100953Y-123816666D01*
X96148572Y-123864285D01*
X96243810Y-123911904D01*
X96481905Y-123911904D01*
X96577143Y-123864285D01*
X96624762Y-123816666D01*
X96672381Y-123721428D01*
X96672381Y-123483333D01*
X96624762Y-123388095D01*
X96577143Y-123340476D01*
%TO.C,Q1*%
X124395238Y-93497619D02*
X124490476Y-93450000D01*
X124585714Y-93354761D01*
X124728571Y-93211904D01*
X124823809Y-93164285D01*
X124919047Y-93164285D01*
X124871428Y-93402380D02*
X124966666Y-93354761D01*
X125061904Y-93259523D01*
X125109523Y-93069047D01*
X125109523Y-92735714D01*
X125061904Y-92545238D01*
X124966666Y-92450000D01*
X124871428Y-92402380D01*
X124680952Y-92402380D01*
X124585714Y-92450000D01*
X124490476Y-92545238D01*
X124442857Y-92735714D01*
X124442857Y-93069047D01*
X124490476Y-93259523D01*
X124585714Y-93354761D01*
X124680952Y-93402380D01*
X124871428Y-93402380D01*
X123490476Y-93402380D02*
X124061904Y-93402380D01*
X123776190Y-93402380D02*
X123776190Y-92402380D01*
X123871428Y-92545238D01*
X123966666Y-92640476D01*
X124061904Y-92688095D01*
%TO.C,D10*%
X115732380Y-105935714D02*
X114732380Y-105935714D01*
X114732380Y-106173809D01*
X114780000Y-106316666D01*
X114875238Y-106411904D01*
X114970476Y-106459523D01*
X115160952Y-106507142D01*
X115303809Y-106507142D01*
X115494285Y-106459523D01*
X115589523Y-106411904D01*
X115684761Y-106316666D01*
X115732380Y-106173809D01*
X115732380Y-105935714D01*
X115732380Y-107459523D02*
X115732380Y-106888095D01*
X115732380Y-107173809D02*
X114732380Y-107173809D01*
X114875238Y-107078571D01*
X114970476Y-106983333D01*
X115018095Y-106888095D01*
X114732380Y-108078571D02*
X114732380Y-108173809D01*
X114780000Y-108269047D01*
X114827619Y-108316666D01*
X114922857Y-108364285D01*
X115113333Y-108411904D01*
X115351428Y-108411904D01*
X115541904Y-108364285D01*
X115637142Y-108316666D01*
X115684761Y-108269047D01*
X115732380Y-108173809D01*
X115732380Y-108078571D01*
X115684761Y-107983333D01*
X115637142Y-107935714D01*
X115541904Y-107888095D01*
X115351428Y-107840476D01*
X115113333Y-107840476D01*
X114922857Y-107888095D01*
X114827619Y-107935714D01*
X114780000Y-107983333D01*
X114732380Y-108078571D01*
%TO.C,R1*%
X127202380Y-95033333D02*
X126726190Y-94700000D01*
X127202380Y-94461904D02*
X126202380Y-94461904D01*
X126202380Y-94842857D01*
X126250000Y-94938095D01*
X126297619Y-94985714D01*
X126392857Y-95033333D01*
X126535714Y-95033333D01*
X126630952Y-94985714D01*
X126678571Y-94938095D01*
X126726190Y-94842857D01*
X126726190Y-94461904D01*
X127202380Y-95985714D02*
X127202380Y-95414285D01*
X127202380Y-95700000D02*
X126202380Y-95700000D01*
X126345238Y-95604761D01*
X126440476Y-95509523D01*
X126488095Y-95414285D01*
%TO.C,C11*%
X38942857Y-87457142D02*
X38990476Y-87504761D01*
X39133333Y-87552380D01*
X39228571Y-87552380D01*
X39371428Y-87504761D01*
X39466666Y-87409523D01*
X39514285Y-87314285D01*
X39561904Y-87123809D01*
X39561904Y-86980952D01*
X39514285Y-86790476D01*
X39466666Y-86695238D01*
X39371428Y-86600000D01*
X39228571Y-86552380D01*
X39133333Y-86552380D01*
X38990476Y-86600000D01*
X38942857Y-86647619D01*
X37990476Y-87552380D02*
X38561904Y-87552380D01*
X38276190Y-87552380D02*
X38276190Y-86552380D01*
X38371428Y-86695238D01*
X38466666Y-86790476D01*
X38561904Y-86838095D01*
X37038095Y-87552380D02*
X37609523Y-87552380D01*
X37323809Y-87552380D02*
X37323809Y-86552380D01*
X37419047Y-86695238D01*
X37514285Y-86790476D01*
X37609523Y-86838095D01*
%TO.C,C15*%
X37257142Y-89057142D02*
X37304761Y-89009523D01*
X37352380Y-88866666D01*
X37352380Y-88771428D01*
X37304761Y-88628571D01*
X37209523Y-88533333D01*
X37114285Y-88485714D01*
X36923809Y-88438095D01*
X36780952Y-88438095D01*
X36590476Y-88485714D01*
X36495238Y-88533333D01*
X36400000Y-88628571D01*
X36352380Y-88771428D01*
X36352380Y-88866666D01*
X36400000Y-89009523D01*
X36447619Y-89057142D01*
X37352380Y-90009523D02*
X37352380Y-89438095D01*
X37352380Y-89723809D02*
X36352380Y-89723809D01*
X36495238Y-89628571D01*
X36590476Y-89533333D01*
X36638095Y-89438095D01*
X36352380Y-90914285D02*
X36352380Y-90438095D01*
X36828571Y-90390476D01*
X36780952Y-90438095D01*
X36733333Y-90533333D01*
X36733333Y-90771428D01*
X36780952Y-90866666D01*
X36828571Y-90914285D01*
X36923809Y-90961904D01*
X37161904Y-90961904D01*
X37257142Y-90914285D01*
X37304761Y-90866666D01*
X37352380Y-90771428D01*
X37352380Y-90533333D01*
X37304761Y-90438095D01*
X37257142Y-90390476D01*
%TO.C,D63*%
X86812380Y-105935714D02*
X85812380Y-105935714D01*
X85812380Y-106173809D01*
X85860000Y-106316666D01*
X85955238Y-106411904D01*
X86050476Y-106459523D01*
X86240952Y-106507142D01*
X86383809Y-106507142D01*
X86574285Y-106459523D01*
X86669523Y-106411904D01*
X86764761Y-106316666D01*
X86812380Y-106173809D01*
X86812380Y-105935714D01*
X85812380Y-107364285D02*
X85812380Y-107173809D01*
X85860000Y-107078571D01*
X85907619Y-107030952D01*
X86050476Y-106935714D01*
X86240952Y-106888095D01*
X86621904Y-106888095D01*
X86717142Y-106935714D01*
X86764761Y-106983333D01*
X86812380Y-107078571D01*
X86812380Y-107269047D01*
X86764761Y-107364285D01*
X86717142Y-107411904D01*
X86621904Y-107459523D01*
X86383809Y-107459523D01*
X86288571Y-107411904D01*
X86240952Y-107364285D01*
X86193333Y-107269047D01*
X86193333Y-107078571D01*
X86240952Y-106983333D01*
X86288571Y-106935714D01*
X86383809Y-106888095D01*
X85812380Y-107792857D02*
X85812380Y-108411904D01*
X86193333Y-108078571D01*
X86193333Y-108221428D01*
X86240952Y-108316666D01*
X86288571Y-108364285D01*
X86383809Y-108411904D01*
X86621904Y-108411904D01*
X86717142Y-108364285D01*
X86764761Y-108316666D01*
X86812380Y-108221428D01*
X86812380Y-107935714D01*
X86764761Y-107840476D01*
X86717142Y-107792857D01*
%TO.C,D14*%
X66202379Y-113685714D02*
X65202379Y-113685714D01*
X65202379Y-113923809D01*
X65249999Y-114066666D01*
X65345237Y-114161904D01*
X65440475Y-114209523D01*
X65630951Y-114257142D01*
X65773808Y-114257142D01*
X65964284Y-114209523D01*
X66059522Y-114161904D01*
X66154760Y-114066666D01*
X66202379Y-113923809D01*
X66202379Y-113685714D01*
X66202379Y-115209523D02*
X66202379Y-114638095D01*
X66202379Y-114923809D02*
X65202379Y-114923809D01*
X65345237Y-114828571D01*
X65440475Y-114733333D01*
X65488094Y-114638095D01*
X65535713Y-116066666D02*
X66202379Y-116066666D01*
X65154760Y-115828571D02*
X65869046Y-115590476D01*
X65869046Y-116209523D01*
%TO.C,D67*%
X136552380Y-129185715D02*
X135552380Y-129185715D01*
X135552380Y-129423810D01*
X135600000Y-129566667D01*
X135695238Y-129661905D01*
X135790476Y-129709524D01*
X135980952Y-129757143D01*
X136123809Y-129757143D01*
X136314285Y-129709524D01*
X136409523Y-129661905D01*
X136504761Y-129566667D01*
X136552380Y-129423810D01*
X136552380Y-129185715D01*
X135552380Y-130614286D02*
X135552380Y-130423810D01*
X135600000Y-130328572D01*
X135647619Y-130280953D01*
X135790476Y-130185715D01*
X135980952Y-130138096D01*
X136361904Y-130138096D01*
X136457142Y-130185715D01*
X136504761Y-130233334D01*
X136552380Y-130328572D01*
X136552380Y-130519048D01*
X136504761Y-130614286D01*
X136457142Y-130661905D01*
X136361904Y-130709524D01*
X136123809Y-130709524D01*
X136028571Y-130661905D01*
X135980952Y-130614286D01*
X135933333Y-130519048D01*
X135933333Y-130328572D01*
X135980952Y-130233334D01*
X136028571Y-130185715D01*
X136123809Y-130138096D01*
X135552380Y-131042858D02*
X135552380Y-131709524D01*
X136552380Y-131280953D01*
%TO.C,C14*%
X37542857Y-92357142D02*
X37590476Y-92404761D01*
X37733333Y-92452380D01*
X37828571Y-92452380D01*
X37971428Y-92404761D01*
X38066666Y-92309523D01*
X38114285Y-92214285D01*
X38161904Y-92023809D01*
X38161904Y-91880952D01*
X38114285Y-91690476D01*
X38066666Y-91595238D01*
X37971428Y-91500000D01*
X37828571Y-91452380D01*
X37733333Y-91452380D01*
X37590476Y-91500000D01*
X37542857Y-91547619D01*
X36590476Y-92452380D02*
X37161904Y-92452380D01*
X36876190Y-92452380D02*
X36876190Y-91452380D01*
X36971428Y-91595238D01*
X37066666Y-91690476D01*
X37161904Y-91738095D01*
X35733333Y-91785714D02*
X35733333Y-92452380D01*
X35971428Y-91404761D02*
X36209523Y-92119047D01*
X35590476Y-92119047D01*
%TO.C,R6*%
X41743946Y-99052380D02*
X42077280Y-98576190D01*
X42315375Y-99052380D02*
X42315375Y-98052380D01*
X41934422Y-98052380D01*
X41839184Y-98100000D01*
X41791565Y-98147619D01*
X41743946Y-98242857D01*
X41743946Y-98385714D01*
X41791565Y-98480952D01*
X41839184Y-98528571D01*
X41934422Y-98576190D01*
X42315375Y-98576190D01*
X40886803Y-98052380D02*
X41077280Y-98052380D01*
X41172518Y-98100000D01*
X41220137Y-98147619D01*
X41315375Y-98290476D01*
X41362994Y-98480952D01*
X41362994Y-98861904D01*
X41315375Y-98957142D01*
X41267756Y-99004761D01*
X41172518Y-99052380D01*
X40982041Y-99052380D01*
X40886803Y-99004761D01*
X40839184Y-98957142D01*
X40791565Y-98861904D01*
X40791565Y-98623809D01*
X40839184Y-98528571D01*
X40886803Y-98480952D01*
X40982041Y-98433333D01*
X41172518Y-98433333D01*
X41267756Y-98480952D01*
X41315375Y-98528571D01*
X41362994Y-98623809D01*
%TO.C,D50*%
X113852380Y-121435714D02*
X112852380Y-121435714D01*
X112852380Y-121673809D01*
X112900000Y-121816666D01*
X112995238Y-121911904D01*
X113090476Y-121959523D01*
X113280952Y-122007142D01*
X113423809Y-122007142D01*
X113614285Y-121959523D01*
X113709523Y-121911904D01*
X113804761Y-121816666D01*
X113852380Y-121673809D01*
X113852380Y-121435714D01*
X112852380Y-122911904D02*
X112852380Y-122435714D01*
X113328571Y-122388095D01*
X113280952Y-122435714D01*
X113233333Y-122530952D01*
X113233333Y-122769047D01*
X113280952Y-122864285D01*
X113328571Y-122911904D01*
X113423809Y-122959523D01*
X113661904Y-122959523D01*
X113757142Y-122911904D01*
X113804761Y-122864285D01*
X113852380Y-122769047D01*
X113852380Y-122530952D01*
X113804761Y-122435714D01*
X113757142Y-122388095D01*
X112852380Y-123578571D02*
X112852380Y-123673809D01*
X112900000Y-123769047D01*
X112947619Y-123816666D01*
X113042857Y-123864285D01*
X113233333Y-123911904D01*
X113471428Y-123911904D01*
X113661904Y-123864285D01*
X113757142Y-123816666D01*
X113804761Y-123769047D01*
X113852380Y-123673809D01*
X113852380Y-123578571D01*
X113804761Y-123483333D01*
X113757142Y-123435714D01*
X113661904Y-123388095D01*
X113471428Y-123340476D01*
X113233333Y-123340476D01*
X113042857Y-123388095D01*
X112947619Y-123435714D01*
X112900000Y-123483333D01*
X112852380Y-123578571D01*
%TO.C,D38*%
X65052381Y-129185714D02*
X64052381Y-129185714D01*
X64052381Y-129423809D01*
X64100001Y-129566666D01*
X64195239Y-129661904D01*
X64290477Y-129709523D01*
X64480953Y-129757142D01*
X64623810Y-129757142D01*
X64814286Y-129709523D01*
X64909524Y-129661904D01*
X65004762Y-129566666D01*
X65052381Y-129423809D01*
X65052381Y-129185714D01*
X64052381Y-130090476D02*
X64052381Y-130709523D01*
X64433334Y-130376190D01*
X64433334Y-130519047D01*
X64480953Y-130614285D01*
X64528572Y-130661904D01*
X64623810Y-130709523D01*
X64861905Y-130709523D01*
X64957143Y-130661904D01*
X65004762Y-130614285D01*
X65052381Y-130519047D01*
X65052381Y-130233333D01*
X65004762Y-130138095D01*
X64957143Y-130090476D01*
X64480953Y-131280952D02*
X64433334Y-131185714D01*
X64385715Y-131138095D01*
X64290477Y-131090476D01*
X64242858Y-131090476D01*
X64147620Y-131138095D01*
X64100001Y-131185714D01*
X64052381Y-131280952D01*
X64052381Y-131471428D01*
X64100001Y-131566666D01*
X64147620Y-131614285D01*
X64242858Y-131661904D01*
X64290477Y-131661904D01*
X64385715Y-131614285D01*
X64433334Y-131566666D01*
X64480953Y-131471428D01*
X64480953Y-131280952D01*
X64528572Y-131185714D01*
X64576191Y-131138095D01*
X64671429Y-131090476D01*
X64861905Y-131090476D01*
X64957143Y-131138095D01*
X65004762Y-131185714D01*
X65052381Y-131280952D01*
X65052381Y-131471428D01*
X65004762Y-131566666D01*
X64957143Y-131614285D01*
X64861905Y-131661904D01*
X64671429Y-131661904D01*
X64576191Y-131614285D01*
X64528572Y-131566666D01*
X64480953Y-131471428D01*
%TO.C,D60*%
X52122380Y-105935713D02*
X51122380Y-105935713D01*
X51122380Y-106173808D01*
X51170000Y-106316665D01*
X51265238Y-106411903D01*
X51360476Y-106459522D01*
X51550952Y-106507141D01*
X51693809Y-106507141D01*
X51884285Y-106459522D01*
X51979523Y-106411903D01*
X52074761Y-106316665D01*
X52122380Y-106173808D01*
X52122380Y-105935713D01*
X51122380Y-107364284D02*
X51122380Y-107173808D01*
X51170000Y-107078570D01*
X51217619Y-107030951D01*
X51360476Y-106935713D01*
X51550952Y-106888094D01*
X51931904Y-106888094D01*
X52027142Y-106935713D01*
X52074761Y-106983332D01*
X52122380Y-107078570D01*
X52122380Y-107269046D01*
X52074761Y-107364284D01*
X52027142Y-107411903D01*
X51931904Y-107459522D01*
X51693809Y-107459522D01*
X51598571Y-107411903D01*
X51550952Y-107364284D01*
X51503333Y-107269046D01*
X51503333Y-107078570D01*
X51550952Y-106983332D01*
X51598571Y-106935713D01*
X51693809Y-106888094D01*
X51122380Y-108078570D02*
X51122380Y-108173808D01*
X51170000Y-108269046D01*
X51217619Y-108316665D01*
X51312857Y-108364284D01*
X51503333Y-108411903D01*
X51741428Y-108411903D01*
X51931904Y-108364284D01*
X52027142Y-108316665D01*
X52074761Y-108269046D01*
X52122380Y-108173808D01*
X52122380Y-108078570D01*
X52074761Y-107983332D01*
X52027142Y-107935713D01*
X51931904Y-107888094D01*
X51741428Y-107840475D01*
X51503333Y-107840475D01*
X51312857Y-107888094D01*
X51217619Y-107935713D01*
X51170000Y-107983332D01*
X51122380Y-108078570D01*
%TO.C,D26*%
X108072380Y-121435714D02*
X107072380Y-121435714D01*
X107072380Y-121673809D01*
X107120000Y-121816666D01*
X107215238Y-121911904D01*
X107310476Y-121959523D01*
X107500952Y-122007142D01*
X107643809Y-122007142D01*
X107834285Y-121959523D01*
X107929523Y-121911904D01*
X108024761Y-121816666D01*
X108072380Y-121673809D01*
X108072380Y-121435714D01*
X107167619Y-122388095D02*
X107120000Y-122435714D01*
X107072380Y-122530952D01*
X107072380Y-122769047D01*
X107120000Y-122864285D01*
X107167619Y-122911904D01*
X107262857Y-122959523D01*
X107358095Y-122959523D01*
X107500952Y-122911904D01*
X108072380Y-122340476D01*
X108072380Y-122959523D01*
X107072380Y-123816666D02*
X107072380Y-123626190D01*
X107120000Y-123530952D01*
X107167619Y-123483333D01*
X107310476Y-123388095D01*
X107500952Y-123340476D01*
X107881904Y-123340476D01*
X107977142Y-123388095D01*
X108024761Y-123435714D01*
X108072380Y-123530952D01*
X108072380Y-123721428D01*
X108024761Y-123816666D01*
X107977142Y-123864285D01*
X107881904Y-123911904D01*
X107643809Y-123911904D01*
X107548571Y-123864285D01*
X107500952Y-123816666D01*
X107453333Y-123721428D01*
X107453333Y-123530952D01*
X107500952Y-123435714D01*
X107548571Y-123388095D01*
X107643809Y-123340476D01*
%TO.C,D3*%
X123588095Y-67227380D02*
X123588095Y-66227380D01*
X123350000Y-66227380D01*
X123207142Y-66275000D01*
X123111904Y-66370238D01*
X123064285Y-66465476D01*
X123016666Y-66655952D01*
X123016666Y-66798809D01*
X123064285Y-66989285D01*
X123111904Y-67084523D01*
X123207142Y-67179761D01*
X123350000Y-67227380D01*
X123588095Y-67227380D01*
X122683333Y-66227380D02*
X122064285Y-66227380D01*
X122397619Y-66608333D01*
X122254761Y-66608333D01*
X122159523Y-66655952D01*
X122111904Y-66703571D01*
X122064285Y-66798809D01*
X122064285Y-67036904D01*
X122111904Y-67132142D01*
X122159523Y-67179761D01*
X122254761Y-67227380D01*
X122540476Y-67227380D01*
X122635714Y-67179761D01*
X122683333Y-67132142D01*
%TO.C,D51*%
X136552380Y-113685713D02*
X135552380Y-113685713D01*
X135552380Y-113923808D01*
X135600000Y-114066665D01*
X135695238Y-114161903D01*
X135790476Y-114209522D01*
X135980952Y-114257141D01*
X136123809Y-114257141D01*
X136314285Y-114209522D01*
X136409523Y-114161903D01*
X136504761Y-114066665D01*
X136552380Y-113923808D01*
X136552380Y-113685713D01*
X135552380Y-115161903D02*
X135552380Y-114685713D01*
X136028571Y-114638094D01*
X135980952Y-114685713D01*
X135933333Y-114780951D01*
X135933333Y-115019046D01*
X135980952Y-115114284D01*
X136028571Y-115161903D01*
X136123809Y-115209522D01*
X136361904Y-115209522D01*
X136457142Y-115161903D01*
X136504761Y-115114284D01*
X136552380Y-115019046D01*
X136552380Y-114780951D01*
X136504761Y-114685713D01*
X136457142Y-114638094D01*
X136552380Y-116161903D02*
X136552380Y-115590475D01*
X136552380Y-115876189D02*
X135552380Y-115876189D01*
X135695238Y-115780951D01*
X135790476Y-115685713D01*
X135838095Y-115590475D01*
%TO.C,D45*%
X56522380Y-121435714D02*
X55522380Y-121435714D01*
X55522380Y-121673809D01*
X55570000Y-121816666D01*
X55665238Y-121911904D01*
X55760476Y-121959523D01*
X55950952Y-122007142D01*
X56093809Y-122007142D01*
X56284285Y-121959523D01*
X56379523Y-121911904D01*
X56474761Y-121816666D01*
X56522380Y-121673809D01*
X56522380Y-121435714D01*
X55855714Y-122864285D02*
X56522380Y-122864285D01*
X55474761Y-122626190D02*
X56189047Y-122388095D01*
X56189047Y-123007142D01*
X55522380Y-123864285D02*
X55522380Y-123388095D01*
X55998571Y-123340476D01*
X55950952Y-123388095D01*
X55903333Y-123483333D01*
X55903333Y-123721428D01*
X55950952Y-123816666D01*
X55998571Y-123864285D01*
X56093809Y-123911904D01*
X56331904Y-123911904D01*
X56427142Y-123864285D01*
X56474761Y-123816666D01*
X56522380Y-123721428D01*
X56522380Y-123483333D01*
X56474761Y-123388095D01*
X56427142Y-123340476D01*
%TO.C,D40*%
X88082380Y-129185714D02*
X87082380Y-129185714D01*
X87082380Y-129423809D01*
X87130000Y-129566666D01*
X87225238Y-129661904D01*
X87320476Y-129709523D01*
X87510952Y-129757142D01*
X87653809Y-129757142D01*
X87844285Y-129709523D01*
X87939523Y-129661904D01*
X88034761Y-129566666D01*
X88082380Y-129423809D01*
X88082380Y-129185714D01*
X87415714Y-130614285D02*
X88082380Y-130614285D01*
X87034761Y-130376190D02*
X87749047Y-130138095D01*
X87749047Y-130757142D01*
X87082380Y-131328571D02*
X87082380Y-131423809D01*
X87130000Y-131519047D01*
X87177619Y-131566666D01*
X87272857Y-131614285D01*
X87463333Y-131661904D01*
X87701428Y-131661904D01*
X87891904Y-131614285D01*
X87987142Y-131566666D01*
X88034761Y-131519047D01*
X88082380Y-131423809D01*
X88082380Y-131328571D01*
X88034761Y-131233333D01*
X87987142Y-131185714D01*
X87891904Y-131138095D01*
X87701428Y-131090476D01*
X87463333Y-131090476D01*
X87272857Y-131138095D01*
X87177619Y-131185714D01*
X87130000Y-131233333D01*
X87082380Y-131328571D01*
%TO.C,D61*%
X63682380Y-105935714D02*
X62682380Y-105935714D01*
X62682380Y-106173809D01*
X62730000Y-106316666D01*
X62825238Y-106411904D01*
X62920476Y-106459523D01*
X63110952Y-106507142D01*
X63253809Y-106507142D01*
X63444285Y-106459523D01*
X63539523Y-106411904D01*
X63634761Y-106316666D01*
X63682380Y-106173809D01*
X63682380Y-105935714D01*
X62682380Y-107364285D02*
X62682380Y-107173809D01*
X62730000Y-107078571D01*
X62777619Y-107030952D01*
X62920476Y-106935714D01*
X63110952Y-106888095D01*
X63491904Y-106888095D01*
X63587142Y-106935714D01*
X63634761Y-106983333D01*
X63682380Y-107078571D01*
X63682380Y-107269047D01*
X63634761Y-107364285D01*
X63587142Y-107411904D01*
X63491904Y-107459523D01*
X63253809Y-107459523D01*
X63158571Y-107411904D01*
X63110952Y-107364285D01*
X63063333Y-107269047D01*
X63063333Y-107078571D01*
X63110952Y-106983333D01*
X63158571Y-106935714D01*
X63253809Y-106888095D01*
X63682380Y-108411904D02*
X63682380Y-107840476D01*
X63682380Y-108126190D02*
X62682380Y-108126190D01*
X62825238Y-108030952D01*
X62920476Y-107935714D01*
X62968095Y-107840476D01*
%TO.C,D43*%
X136552380Y-105935714D02*
X135552380Y-105935714D01*
X135552380Y-106173809D01*
X135600000Y-106316666D01*
X135695238Y-106411904D01*
X135790476Y-106459523D01*
X135980952Y-106507142D01*
X136123809Y-106507142D01*
X136314285Y-106459523D01*
X136409523Y-106411904D01*
X136504761Y-106316666D01*
X136552380Y-106173809D01*
X136552380Y-105935714D01*
X135885714Y-107364285D02*
X136552380Y-107364285D01*
X135504761Y-107126190D02*
X136219047Y-106888095D01*
X136219047Y-107507142D01*
X135552380Y-107792857D02*
X135552380Y-108411904D01*
X135933333Y-108078571D01*
X135933333Y-108221428D01*
X135980952Y-108316666D01*
X136028571Y-108364285D01*
X136123809Y-108411904D01*
X136361904Y-108411904D01*
X136457142Y-108364285D01*
X136504761Y-108316666D01*
X136552380Y-108221428D01*
X136552380Y-107935714D01*
X136504761Y-107840476D01*
X136457142Y-107792857D01*
%TO.C,D22*%
X62302379Y-121435714D02*
X61302379Y-121435714D01*
X61302379Y-121673809D01*
X61349999Y-121816666D01*
X61445237Y-121911904D01*
X61540475Y-121959523D01*
X61730951Y-122007142D01*
X61873808Y-122007142D01*
X62064284Y-121959523D01*
X62159522Y-121911904D01*
X62254760Y-121816666D01*
X62302379Y-121673809D01*
X62302379Y-121435714D01*
X61397618Y-122388095D02*
X61349999Y-122435714D01*
X61302379Y-122530952D01*
X61302379Y-122769047D01*
X61349999Y-122864285D01*
X61397618Y-122911904D01*
X61492856Y-122959523D01*
X61588094Y-122959523D01*
X61730951Y-122911904D01*
X62302379Y-122340476D01*
X62302379Y-122959523D01*
X61397618Y-123340476D02*
X61349999Y-123388095D01*
X61302379Y-123483333D01*
X61302379Y-123721428D01*
X61349999Y-123816666D01*
X61397618Y-123864285D01*
X61492856Y-123911904D01*
X61588094Y-123911904D01*
X61730951Y-123864285D01*
X62302379Y-123292857D01*
X62302379Y-123911904D01*
%TO.C,D34*%
X105332380Y-129185714D02*
X104332380Y-129185714D01*
X104332380Y-129423809D01*
X104380000Y-129566666D01*
X104475238Y-129661904D01*
X104570476Y-129709523D01*
X104760952Y-129757142D01*
X104903809Y-129757142D01*
X105094285Y-129709523D01*
X105189523Y-129661904D01*
X105284761Y-129566666D01*
X105332380Y-129423809D01*
X105332380Y-129185714D01*
X104332380Y-130090476D02*
X104332380Y-130709523D01*
X104713333Y-130376190D01*
X104713333Y-130519047D01*
X104760952Y-130614285D01*
X104808571Y-130661904D01*
X104903809Y-130709523D01*
X105141904Y-130709523D01*
X105237142Y-130661904D01*
X105284761Y-130614285D01*
X105332380Y-130519047D01*
X105332380Y-130233333D01*
X105284761Y-130138095D01*
X105237142Y-130090476D01*
X104665714Y-131566666D02*
X105332380Y-131566666D01*
X104284761Y-131328571D02*
X104999047Y-131090476D01*
X104999047Y-131709523D01*
%TO.C,D41*%
X99552381Y-129185714D02*
X98552381Y-129185714D01*
X98552381Y-129423809D01*
X98600001Y-129566666D01*
X98695239Y-129661904D01*
X98790477Y-129709523D01*
X98980953Y-129757142D01*
X99123810Y-129757142D01*
X99314286Y-129709523D01*
X99409524Y-129661904D01*
X99504762Y-129566666D01*
X99552381Y-129423809D01*
X99552381Y-129185714D01*
X98885715Y-130614285D02*
X99552381Y-130614285D01*
X98504762Y-130376190D02*
X99219048Y-130138095D01*
X99219048Y-130757142D01*
X99552381Y-131661904D02*
X99552381Y-131090476D01*
X99552381Y-131376190D02*
X98552381Y-131376190D01*
X98695239Y-131280952D01*
X98790477Y-131185714D01*
X98838096Y-131090476D01*
%TO.C,D53*%
X60422380Y-113685714D02*
X59422380Y-113685714D01*
X59422380Y-113923809D01*
X59470000Y-114066666D01*
X59565238Y-114161904D01*
X59660476Y-114209523D01*
X59850952Y-114257142D01*
X59993809Y-114257142D01*
X60184285Y-114209523D01*
X60279523Y-114161904D01*
X60374761Y-114066666D01*
X60422380Y-113923809D01*
X60422380Y-113685714D01*
X59422380Y-115161904D02*
X59422380Y-114685714D01*
X59898571Y-114638095D01*
X59850952Y-114685714D01*
X59803333Y-114780952D01*
X59803333Y-115019047D01*
X59850952Y-115114285D01*
X59898571Y-115161904D01*
X59993809Y-115209523D01*
X60231904Y-115209523D01*
X60327142Y-115161904D01*
X60374761Y-115114285D01*
X60422380Y-115019047D01*
X60422380Y-114780952D01*
X60374761Y-114685714D01*
X60327142Y-114638095D01*
X59422380Y-115542857D02*
X59422380Y-116161904D01*
X59803333Y-115828571D01*
X59803333Y-115971428D01*
X59850952Y-116066666D01*
X59898571Y-116114285D01*
X59993809Y-116161904D01*
X60231904Y-116161904D01*
X60327142Y-116114285D01*
X60374761Y-116066666D01*
X60422380Y-115971428D01*
X60422380Y-115685714D01*
X60374761Y-115590476D01*
X60327142Y-115542857D01*
%TO.C,U4*%
X52961904Y-87202380D02*
X52961904Y-88011904D01*
X52914285Y-88107142D01*
X52866666Y-88154761D01*
X52771428Y-88202380D01*
X52580952Y-88202380D01*
X52485714Y-88154761D01*
X52438095Y-88107142D01*
X52390476Y-88011904D01*
X52390476Y-87202380D01*
X51485714Y-87535714D02*
X51485714Y-88202380D01*
X51723809Y-87154761D02*
X51961904Y-87869047D01*
X51342857Y-87869047D01*
%TO.C,D52*%
X48802379Y-113685714D02*
X47802379Y-113685714D01*
X47802379Y-113923809D01*
X47849999Y-114066666D01*
X47945237Y-114161904D01*
X48040475Y-114209523D01*
X48230951Y-114257142D01*
X48373808Y-114257142D01*
X48564284Y-114209523D01*
X48659522Y-114161904D01*
X48754760Y-114066666D01*
X48802379Y-113923809D01*
X48802379Y-113685714D01*
X47802379Y-115161904D02*
X47802379Y-114685714D01*
X48278570Y-114638095D01*
X48230951Y-114685714D01*
X48183332Y-114780952D01*
X48183332Y-115019047D01*
X48230951Y-115114285D01*
X48278570Y-115161904D01*
X48373808Y-115209523D01*
X48611903Y-115209523D01*
X48707141Y-115161904D01*
X48754760Y-115114285D01*
X48802379Y-115019047D01*
X48802379Y-114780952D01*
X48754760Y-114685714D01*
X48707141Y-114638095D01*
X47897618Y-115590476D02*
X47849999Y-115638095D01*
X47802379Y-115733333D01*
X47802379Y-115971428D01*
X47849999Y-116066666D01*
X47897618Y-116114285D01*
X47992856Y-116161904D01*
X48088094Y-116161904D01*
X48230951Y-116114285D01*
X48802379Y-115542857D01*
X48802379Y-116161904D01*
%TO.C,D15*%
X77862380Y-113685713D02*
X76862380Y-113685713D01*
X76862380Y-113923808D01*
X76910000Y-114066665D01*
X77005238Y-114161903D01*
X77100476Y-114209522D01*
X77290952Y-114257141D01*
X77433809Y-114257141D01*
X77624285Y-114209522D01*
X77719523Y-114161903D01*
X77814761Y-114066665D01*
X77862380Y-113923808D01*
X77862380Y-113685713D01*
X77862380Y-115209522D02*
X77862380Y-114638094D01*
X77862380Y-114923808D02*
X76862380Y-114923808D01*
X77005238Y-114828570D01*
X77100476Y-114733332D01*
X77148095Y-114638094D01*
X76862380Y-116114284D02*
X76862380Y-115638094D01*
X77338571Y-115590475D01*
X77290952Y-115638094D01*
X77243333Y-115733332D01*
X77243333Y-115971427D01*
X77290952Y-116066665D01*
X77338571Y-116114284D01*
X77433809Y-116161903D01*
X77671904Y-116161903D01*
X77767142Y-116114284D01*
X77814761Y-116066665D01*
X77862380Y-115971427D01*
X77862380Y-115733332D01*
X77814761Y-115638094D01*
X77767142Y-115590475D01*
%TO.C,D23*%
X73702380Y-121435714D02*
X72702380Y-121435714D01*
X72702380Y-121673809D01*
X72750000Y-121816666D01*
X72845238Y-121911904D01*
X72940476Y-121959523D01*
X73130952Y-122007142D01*
X73273809Y-122007142D01*
X73464285Y-121959523D01*
X73559523Y-121911904D01*
X73654761Y-121816666D01*
X73702380Y-121673809D01*
X73702380Y-121435714D01*
X72797619Y-122388095D02*
X72750000Y-122435714D01*
X72702380Y-122530952D01*
X72702380Y-122769047D01*
X72750000Y-122864285D01*
X72797619Y-122911904D01*
X72892857Y-122959523D01*
X72988095Y-122959523D01*
X73130952Y-122911904D01*
X73702380Y-122340476D01*
X73702380Y-122959523D01*
X72702380Y-123292857D02*
X72702380Y-123911904D01*
X73083333Y-123578571D01*
X73083333Y-123721428D01*
X73130952Y-123816666D01*
X73178571Y-123864285D01*
X73273809Y-123911904D01*
X73511904Y-123911904D01*
X73607142Y-123864285D01*
X73654761Y-123816666D01*
X73702380Y-123721428D01*
X73702380Y-123435714D01*
X73654761Y-123340476D01*
X73607142Y-123292857D01*
%TO.C,D7*%
X81032380Y-106411903D02*
X80032380Y-106411903D01*
X80032380Y-106649999D01*
X80080000Y-106792856D01*
X80175238Y-106888094D01*
X80270476Y-106935713D01*
X80460952Y-106983332D01*
X80603809Y-106983332D01*
X80794285Y-106935713D01*
X80889523Y-106888094D01*
X80984761Y-106792856D01*
X81032380Y-106649999D01*
X81032380Y-106411903D01*
X80032380Y-107316665D02*
X80032380Y-107983332D01*
X81032380Y-107554760D01*
%TO.C,C12*%
X43842857Y-86157142D02*
X43890476Y-86204761D01*
X44033333Y-86252380D01*
X44128571Y-86252380D01*
X44271428Y-86204761D01*
X44366666Y-86109523D01*
X44414285Y-86014285D01*
X44461904Y-85823809D01*
X44461904Y-85680952D01*
X44414285Y-85490476D01*
X44366666Y-85395238D01*
X44271428Y-85300000D01*
X44128571Y-85252380D01*
X44033333Y-85252380D01*
X43890476Y-85300000D01*
X43842857Y-85347619D01*
X42890476Y-86252380D02*
X43461904Y-86252380D01*
X43176190Y-86252380D02*
X43176190Y-85252380D01*
X43271428Y-85395238D01*
X43366666Y-85490476D01*
X43461904Y-85538095D01*
X42509523Y-85347619D02*
X42461904Y-85300000D01*
X42366666Y-85252380D01*
X42128571Y-85252380D01*
X42033333Y-85300000D01*
X41985714Y-85347619D01*
X41938095Y-85442857D01*
X41938095Y-85538095D01*
X41985714Y-85680952D01*
X42557142Y-86252380D01*
X41938095Y-86252380D01*
%TO.C,D16*%
X89447381Y-113685714D02*
X88447381Y-113685714D01*
X88447381Y-113923809D01*
X88495001Y-114066666D01*
X88590239Y-114161904D01*
X88685477Y-114209523D01*
X88875953Y-114257142D01*
X89018810Y-114257142D01*
X89209286Y-114209523D01*
X89304524Y-114161904D01*
X89399762Y-114066666D01*
X89447381Y-113923809D01*
X89447381Y-113685714D01*
X89447381Y-115209523D02*
X89447381Y-114638095D01*
X89447381Y-114923809D02*
X88447381Y-114923809D01*
X88590239Y-114828571D01*
X88685477Y-114733333D01*
X88733096Y-114638095D01*
X88447381Y-116066666D02*
X88447381Y-115876190D01*
X88495001Y-115780952D01*
X88542620Y-115733333D01*
X88685477Y-115638095D01*
X88875953Y-115590476D01*
X89256905Y-115590476D01*
X89352143Y-115638095D01*
X89399762Y-115685714D01*
X89447381Y-115780952D01*
X89447381Y-115971428D01*
X89399762Y-116066666D01*
X89352143Y-116114285D01*
X89256905Y-116161904D01*
X89018810Y-116161904D01*
X88923572Y-116114285D01*
X88875953Y-116066666D01*
X88828334Y-115971428D01*
X88828334Y-115780952D01*
X88875953Y-115685714D01*
X88923572Y-115638095D01*
X89018810Y-115590476D01*
%TO.C,U3*%
X121611904Y-99652380D02*
X121611904Y-100461904D01*
X121564285Y-100557142D01*
X121516666Y-100604761D01*
X121421428Y-100652380D01*
X121230952Y-100652380D01*
X121135714Y-100604761D01*
X121088095Y-100557142D01*
X121040476Y-100461904D01*
X121040476Y-99652380D01*
X120659523Y-99652380D02*
X120040476Y-99652380D01*
X120373809Y-100033333D01*
X120230952Y-100033333D01*
X120135714Y-100080952D01*
X120088095Y-100128571D01*
X120040476Y-100223809D01*
X120040476Y-100461904D01*
X120088095Y-100557142D01*
X120135714Y-100604761D01*
X120230952Y-100652380D01*
X120516666Y-100652380D01*
X120611904Y-100604761D01*
X120659523Y-100557142D01*
%TO.C,D32*%
X82302381Y-129185714D02*
X81302381Y-129185714D01*
X81302381Y-129423809D01*
X81350001Y-129566666D01*
X81445239Y-129661904D01*
X81540477Y-129709523D01*
X81730953Y-129757142D01*
X81873810Y-129757142D01*
X82064286Y-129709523D01*
X82159524Y-129661904D01*
X82254762Y-129566666D01*
X82302381Y-129423809D01*
X82302381Y-129185714D01*
X81302381Y-130090476D02*
X81302381Y-130709523D01*
X81683334Y-130376190D01*
X81683334Y-130519047D01*
X81730953Y-130614285D01*
X81778572Y-130661904D01*
X81873810Y-130709523D01*
X82111905Y-130709523D01*
X82207143Y-130661904D01*
X82254762Y-130614285D01*
X82302381Y-130519047D01*
X82302381Y-130233333D01*
X82254762Y-130138095D01*
X82207143Y-130090476D01*
X81397620Y-131090476D02*
X81350001Y-131138095D01*
X81302381Y-131233333D01*
X81302381Y-131471428D01*
X81350001Y-131566666D01*
X81397620Y-131614285D01*
X81492858Y-131661904D01*
X81588096Y-131661904D01*
X81730953Y-131614285D01*
X82302381Y-131042857D01*
X82302381Y-131661904D01*
%TO.C,D13*%
X54642380Y-113685714D02*
X53642380Y-113685714D01*
X53642380Y-113923809D01*
X53690000Y-114066666D01*
X53785238Y-114161904D01*
X53880476Y-114209523D01*
X54070952Y-114257142D01*
X54213809Y-114257142D01*
X54404285Y-114209523D01*
X54499523Y-114161904D01*
X54594761Y-114066666D01*
X54642380Y-113923809D01*
X54642380Y-113685714D01*
X54642380Y-115209523D02*
X54642380Y-114638095D01*
X54642380Y-114923809D02*
X53642380Y-114923809D01*
X53785238Y-114828571D01*
X53880476Y-114733333D01*
X53928095Y-114638095D01*
X53642380Y-115542857D02*
X53642380Y-116161904D01*
X54023333Y-115828571D01*
X54023333Y-115971428D01*
X54070952Y-116066666D01*
X54118571Y-116114285D01*
X54213809Y-116161904D01*
X54451904Y-116161904D01*
X54547142Y-116114285D01*
X54594761Y-116066666D01*
X54642380Y-115971428D01*
X54642380Y-115685714D01*
X54594761Y-115590476D01*
X54547142Y-115542857D01*
%TO.C,D11*%
X127302380Y-105935714D02*
X126302380Y-105935714D01*
X126302380Y-106173809D01*
X126350000Y-106316666D01*
X126445238Y-106411904D01*
X126540476Y-106459523D01*
X126730952Y-106507142D01*
X126873809Y-106507142D01*
X127064285Y-106459523D01*
X127159523Y-106411904D01*
X127254761Y-106316666D01*
X127302380Y-106173809D01*
X127302380Y-105935714D01*
X127302380Y-107459523D02*
X127302380Y-106888095D01*
X127302380Y-107173809D02*
X126302380Y-107173809D01*
X126445238Y-107078571D01*
X126540476Y-106983333D01*
X126588095Y-106888095D01*
X127302380Y-108411904D02*
X127302380Y-107840476D01*
X127302380Y-108126190D02*
X126302380Y-108126190D01*
X126445238Y-108030952D01*
X126540476Y-107935714D01*
X126588095Y-107840476D01*
%TO.C,D8*%
X92602380Y-106411904D02*
X91602380Y-106411904D01*
X91602380Y-106650000D01*
X91650000Y-106792857D01*
X91745238Y-106888095D01*
X91840476Y-106935714D01*
X92030952Y-106983333D01*
X92173809Y-106983333D01*
X92364285Y-106935714D01*
X92459523Y-106888095D01*
X92554761Y-106792857D01*
X92602380Y-106650000D01*
X92602380Y-106411904D01*
X92030952Y-107554761D02*
X91983333Y-107459523D01*
X91935714Y-107411904D01*
X91840476Y-107364285D01*
X91792857Y-107364285D01*
X91697619Y-107411904D01*
X91650000Y-107459523D01*
X91602380Y-107554761D01*
X91602380Y-107745238D01*
X91650000Y-107840476D01*
X91697619Y-107888095D01*
X91792857Y-107935714D01*
X91840476Y-107935714D01*
X91935714Y-107888095D01*
X91983333Y-107840476D01*
X92030952Y-107745238D01*
X92030952Y-107554761D01*
X92078571Y-107459523D01*
X92126190Y-107411904D01*
X92221428Y-107364285D01*
X92411904Y-107364285D01*
X92507142Y-107411904D01*
X92554761Y-107459523D01*
X92602380Y-107554761D01*
X92602380Y-107745238D01*
X92554761Y-107840476D01*
X92507142Y-107888095D01*
X92411904Y-107935714D01*
X92221428Y-107935714D01*
X92126190Y-107888095D01*
X92078571Y-107840476D01*
X92030952Y-107745238D01*
%TO.C,D17*%
X101082380Y-113685714D02*
X100082380Y-113685714D01*
X100082380Y-113923809D01*
X100130000Y-114066666D01*
X100225238Y-114161904D01*
X100320476Y-114209523D01*
X100510952Y-114257142D01*
X100653809Y-114257142D01*
X100844285Y-114209523D01*
X100939523Y-114161904D01*
X101034761Y-114066666D01*
X101082380Y-113923809D01*
X101082380Y-113685714D01*
X101082380Y-115209523D02*
X101082380Y-114638095D01*
X101082380Y-114923809D02*
X100082380Y-114923809D01*
X100225238Y-114828571D01*
X100320476Y-114733333D01*
X100368095Y-114638095D01*
X100082380Y-115542857D02*
X100082380Y-116209523D01*
X101082380Y-115780952D01*
%TO.C,D5*%
X57902380Y-106411904D02*
X56902380Y-106411904D01*
X56902380Y-106650000D01*
X56950000Y-106792857D01*
X57045238Y-106888095D01*
X57140476Y-106935714D01*
X57330952Y-106983333D01*
X57473809Y-106983333D01*
X57664285Y-106935714D01*
X57759523Y-106888095D01*
X57854761Y-106792857D01*
X57902380Y-106650000D01*
X57902380Y-106411904D01*
X56902380Y-107888095D02*
X56902380Y-107411904D01*
X57378571Y-107364285D01*
X57330952Y-107411904D01*
X57283333Y-107507142D01*
X57283333Y-107745238D01*
X57330952Y-107840476D01*
X57378571Y-107888095D01*
X57473809Y-107935714D01*
X57711904Y-107935714D01*
X57807142Y-107888095D01*
X57854761Y-107840476D01*
X57902380Y-107745238D01*
X57902380Y-107507142D01*
X57854761Y-107411904D01*
X57807142Y-107364285D01*
%TO.C,R7*%
X130465956Y-80802380D02*
X130799290Y-80326190D01*
X131037385Y-80802380D02*
X131037385Y-79802380D01*
X130656432Y-79802380D01*
X130561194Y-79850000D01*
X130513575Y-79897619D01*
X130465956Y-79992857D01*
X130465956Y-80135714D01*
X130513575Y-80230952D01*
X130561194Y-80278571D01*
X130656432Y-80326190D01*
X131037385Y-80326190D01*
X130132623Y-79802380D02*
X129465956Y-79802380D01*
X129894528Y-80802380D01*
%TO.C,D20*%
X42052380Y-113685714D02*
X41052380Y-113685714D01*
X41052380Y-113923809D01*
X41100000Y-114066666D01*
X41195238Y-114161904D01*
X41290476Y-114209523D01*
X41480952Y-114257142D01*
X41623809Y-114257142D01*
X41814285Y-114209523D01*
X41909523Y-114161904D01*
X42004761Y-114066666D01*
X42052380Y-113923809D01*
X42052380Y-113685714D01*
X41147619Y-114638095D02*
X41100000Y-114685714D01*
X41052380Y-114780952D01*
X41052380Y-115019047D01*
X41100000Y-115114285D01*
X41147619Y-115161904D01*
X41242857Y-115209523D01*
X41338095Y-115209523D01*
X41480952Y-115161904D01*
X42052380Y-114590476D01*
X42052380Y-115209523D01*
X41052380Y-115828571D02*
X41052380Y-115923809D01*
X41100000Y-116019047D01*
X41147619Y-116066666D01*
X41242857Y-116114285D01*
X41433333Y-116161904D01*
X41671428Y-116161904D01*
X41861904Y-116114285D01*
X41957142Y-116066666D01*
X42004761Y-116019047D01*
X42052380Y-115923809D01*
X42052380Y-115828571D01*
X42004761Y-115733333D01*
X41957142Y-115685714D01*
X41861904Y-115638095D01*
X41671428Y-115590476D01*
X41433333Y-115590476D01*
X41242857Y-115638095D01*
X41147619Y-115685714D01*
X41100000Y-115733333D01*
X41052380Y-115828571D01*
%TO.C,D27*%
X125552380Y-129185714D02*
X124552380Y-129185714D01*
X124552380Y-129423809D01*
X124600000Y-129566666D01*
X124695238Y-129661904D01*
X124790476Y-129709523D01*
X124980952Y-129757142D01*
X125123809Y-129757142D01*
X125314285Y-129709523D01*
X125409523Y-129661904D01*
X125504761Y-129566666D01*
X125552380Y-129423809D01*
X125552380Y-129185714D01*
X124647619Y-130138095D02*
X124600000Y-130185714D01*
X124552380Y-130280952D01*
X124552380Y-130519047D01*
X124600000Y-130614285D01*
X124647619Y-130661904D01*
X124742857Y-130709523D01*
X124838095Y-130709523D01*
X124980952Y-130661904D01*
X125552380Y-130090476D01*
X125552380Y-130709523D01*
X124552380Y-131042857D02*
X124552380Y-131709523D01*
X125552380Y-131280952D01*
%TO.C,R11*%
X38042857Y-100652380D02*
X38376190Y-100176190D01*
X38614285Y-100652380D02*
X38614285Y-99652380D01*
X38233333Y-99652380D01*
X38138095Y-99700000D01*
X38090476Y-99747619D01*
X38042857Y-99842857D01*
X38042857Y-99985714D01*
X38090476Y-100080952D01*
X38138095Y-100128571D01*
X38233333Y-100176190D01*
X38614285Y-100176190D01*
X37090476Y-100652380D02*
X37661904Y-100652380D01*
X37376190Y-100652380D02*
X37376190Y-99652380D01*
X37471428Y-99795238D01*
X37566666Y-99890476D01*
X37661904Y-99938095D01*
X36138095Y-100652380D02*
X36709523Y-100652380D01*
X36423809Y-100652380D02*
X36423809Y-99652380D01*
X36519047Y-99795238D01*
X36614285Y-99890476D01*
X36709523Y-99938095D01*
%TO.C,D42*%
X112302380Y-129185714D02*
X111302380Y-129185714D01*
X111302380Y-129423809D01*
X111350000Y-129566666D01*
X111445238Y-129661904D01*
X111540476Y-129709523D01*
X111730952Y-129757142D01*
X111873809Y-129757142D01*
X112064285Y-129709523D01*
X112159523Y-129661904D01*
X112254761Y-129566666D01*
X112302380Y-129423809D01*
X112302380Y-129185714D01*
X111635714Y-130614285D02*
X112302380Y-130614285D01*
X111254761Y-130376190D02*
X111969047Y-130138095D01*
X111969047Y-130757142D01*
X111397619Y-131090476D02*
X111350000Y-131138095D01*
X111302380Y-131233333D01*
X111302380Y-131471428D01*
X111350000Y-131566666D01*
X111397619Y-131614285D01*
X111492857Y-131661904D01*
X111588095Y-131661904D01*
X111730952Y-131614285D01*
X112302380Y-131042857D01*
X112302380Y-131661904D01*
%TO.C,R5*%
X120466668Y-67227380D02*
X120800002Y-66751190D01*
X121038097Y-67227380D02*
X121038097Y-66227380D01*
X120657144Y-66227380D01*
X120561906Y-66275000D01*
X120514287Y-66322619D01*
X120466668Y-66417857D01*
X120466668Y-66560714D01*
X120514287Y-66655952D01*
X120561906Y-66703571D01*
X120657144Y-66751190D01*
X121038097Y-66751190D01*
X119561906Y-66227380D02*
X120038097Y-66227380D01*
X120085716Y-66703571D01*
X120038097Y-66655952D01*
X119942859Y-66608333D01*
X119704763Y-66608333D01*
X119609525Y-66655952D01*
X119561906Y-66703571D01*
X119514287Y-66798809D01*
X119514287Y-67036904D01*
X119561906Y-67132142D01*
X119609525Y-67179761D01*
X119704763Y-67227380D01*
X119942859Y-67227380D01*
X120038097Y-67179761D01*
X120085716Y-67132142D01*
%TO.C,C13*%
X43842857Y-87357142D02*
X43890476Y-87404761D01*
X44033333Y-87452380D01*
X44128571Y-87452380D01*
X44271428Y-87404761D01*
X44366666Y-87309523D01*
X44414285Y-87214285D01*
X44461904Y-87023809D01*
X44461904Y-86880952D01*
X44414285Y-86690476D01*
X44366666Y-86595238D01*
X44271428Y-86500000D01*
X44128571Y-86452380D01*
X44033333Y-86452380D01*
X43890476Y-86500000D01*
X43842857Y-86547619D01*
X42890476Y-87452380D02*
X43461904Y-87452380D01*
X43176190Y-87452380D02*
X43176190Y-86452380D01*
X43271428Y-86595238D01*
X43366666Y-86690476D01*
X43461904Y-86738095D01*
X42557142Y-86452380D02*
X41938095Y-86452380D01*
X42271428Y-86833333D01*
X42128571Y-86833333D01*
X42033333Y-86880952D01*
X41985714Y-86928571D01*
X41938095Y-87023809D01*
X41938095Y-87261904D01*
X41985714Y-87357142D01*
X42033333Y-87404761D01*
X42128571Y-87452380D01*
X42414285Y-87452380D01*
X42509523Y-87404761D01*
X42557142Y-87357142D01*
%TO.C,D64*%
X98382380Y-105935714D02*
X97382380Y-105935714D01*
X97382380Y-106173809D01*
X97430000Y-106316666D01*
X97525238Y-106411904D01*
X97620476Y-106459523D01*
X97810952Y-106507142D01*
X97953809Y-106507142D01*
X98144285Y-106459523D01*
X98239523Y-106411904D01*
X98334761Y-106316666D01*
X98382380Y-106173809D01*
X98382380Y-105935714D01*
X97382380Y-107364285D02*
X97382380Y-107173809D01*
X97430000Y-107078571D01*
X97477619Y-107030952D01*
X97620476Y-106935714D01*
X97810952Y-106888095D01*
X98191904Y-106888095D01*
X98287142Y-106935714D01*
X98334761Y-106983333D01*
X98382380Y-107078571D01*
X98382380Y-107269047D01*
X98334761Y-107364285D01*
X98287142Y-107411904D01*
X98191904Y-107459523D01*
X97953809Y-107459523D01*
X97858571Y-107411904D01*
X97810952Y-107364285D01*
X97763333Y-107269047D01*
X97763333Y-107078571D01*
X97810952Y-106983333D01*
X97858571Y-106935714D01*
X97953809Y-106888095D01*
X97715714Y-108316666D02*
X98382380Y-108316666D01*
X97334761Y-108078571D02*
X98049047Y-107840476D01*
X98049047Y-108459523D01*
%TO.C,D28*%
X40552380Y-121435714D02*
X39552380Y-121435714D01*
X39552380Y-121673809D01*
X39600000Y-121816666D01*
X39695238Y-121911904D01*
X39790476Y-121959523D01*
X39980952Y-122007142D01*
X40123809Y-122007142D01*
X40314285Y-121959523D01*
X40409523Y-121911904D01*
X40504761Y-121816666D01*
X40552380Y-121673809D01*
X40552380Y-121435714D01*
X39647619Y-122388095D02*
X39600000Y-122435714D01*
X39552380Y-122530952D01*
X39552380Y-122769047D01*
X39600000Y-122864285D01*
X39647619Y-122911904D01*
X39742857Y-122959523D01*
X39838095Y-122959523D01*
X39980952Y-122911904D01*
X40552380Y-122340476D01*
X40552380Y-122959523D01*
X39980952Y-123530952D02*
X39933333Y-123435714D01*
X39885714Y-123388095D01*
X39790476Y-123340476D01*
X39742857Y-123340476D01*
X39647619Y-123388095D01*
X39600000Y-123435714D01*
X39552380Y-123530952D01*
X39552380Y-123721428D01*
X39600000Y-123816666D01*
X39647619Y-123864285D01*
X39742857Y-123911904D01*
X39790476Y-123911904D01*
X39885714Y-123864285D01*
X39933333Y-123816666D01*
X39980952Y-123721428D01*
X39980952Y-123530952D01*
X40028571Y-123435714D01*
X40076190Y-123388095D01*
X40171428Y-123340476D01*
X40361904Y-123340476D01*
X40457142Y-123388095D01*
X40504761Y-123435714D01*
X40552380Y-123530952D01*
X40552380Y-123721428D01*
X40504761Y-123816666D01*
X40457142Y-123864285D01*
X40361904Y-123911904D01*
X40171428Y-123911904D01*
X40076190Y-123864285D01*
X40028571Y-123816666D01*
X39980952Y-123721428D01*
%TO.C,D39*%
X76522379Y-129185714D02*
X75522379Y-129185714D01*
X75522379Y-129423809D01*
X75569999Y-129566666D01*
X75665237Y-129661904D01*
X75760475Y-129709523D01*
X75950951Y-129757142D01*
X76093808Y-129757142D01*
X76284284Y-129709523D01*
X76379522Y-129661904D01*
X76474760Y-129566666D01*
X76522379Y-129423809D01*
X76522379Y-129185714D01*
X75522379Y-130090476D02*
X75522379Y-130709523D01*
X75903332Y-130376190D01*
X75903332Y-130519047D01*
X75950951Y-130614285D01*
X75998570Y-130661904D01*
X76093808Y-130709523D01*
X76331903Y-130709523D01*
X76427141Y-130661904D01*
X76474760Y-130614285D01*
X76522379Y-130519047D01*
X76522379Y-130233333D01*
X76474760Y-130138095D01*
X76427141Y-130090476D01*
X76522379Y-131185714D02*
X76522379Y-131376190D01*
X76474760Y-131471428D01*
X76427141Y-131519047D01*
X76284284Y-131614285D01*
X76093808Y-131661904D01*
X75712856Y-131661904D01*
X75617618Y-131614285D01*
X75569999Y-131566666D01*
X75522379Y-131471428D01*
X75522379Y-131280952D01*
X75569999Y-131185714D01*
X75617618Y-131138095D01*
X75712856Y-131090476D01*
X75950951Y-131090476D01*
X76046189Y-131138095D01*
X76093808Y-131185714D01*
X76141427Y-131280952D01*
X76141427Y-131471428D01*
X76093808Y-131566666D01*
X76046189Y-131614285D01*
X75950951Y-131661904D01*
%TO.C,R10*%
X51242857Y-99952380D02*
X51576190Y-99476190D01*
X51814285Y-99952380D02*
X51814285Y-98952380D01*
X51433333Y-98952380D01*
X51338095Y-99000000D01*
X51290476Y-99047619D01*
X51242857Y-99142857D01*
X51242857Y-99285714D01*
X51290476Y-99380952D01*
X51338095Y-99428571D01*
X51433333Y-99476190D01*
X51814285Y-99476190D01*
X50290476Y-99952380D02*
X50861904Y-99952380D01*
X50576190Y-99952380D02*
X50576190Y-98952380D01*
X50671428Y-99095238D01*
X50766666Y-99190476D01*
X50861904Y-99238095D01*
X49671428Y-98952380D02*
X49576190Y-98952380D01*
X49480952Y-99000000D01*
X49433333Y-99047619D01*
X49385714Y-99142857D01*
X49338095Y-99333333D01*
X49338095Y-99571428D01*
X49385714Y-99761904D01*
X49433333Y-99857142D01*
X49480952Y-99904761D01*
X49576190Y-99952380D01*
X49671428Y-99952380D01*
X49766666Y-99904761D01*
X49814285Y-99857142D01*
X49861904Y-99761904D01*
X49909523Y-99571428D01*
X49909523Y-99333333D01*
X49861904Y-99142857D01*
X49814285Y-99047619D01*
X49766666Y-99000000D01*
X49671428Y-98952380D01*
%TO.C,Q2*%
X54462628Y-101767961D02*
X54415009Y-101672723D01*
X54319770Y-101577485D01*
X54176913Y-101434628D01*
X54129294Y-101339390D01*
X54129294Y-101244152D01*
X54367389Y-101291771D02*
X54319770Y-101196533D01*
X54224532Y-101101295D01*
X54034056Y-101053676D01*
X53700723Y-101053676D01*
X53510247Y-101101295D01*
X53415009Y-101196533D01*
X53367389Y-101291771D01*
X53367389Y-101482247D01*
X53415009Y-101577485D01*
X53510247Y-101672723D01*
X53700723Y-101720342D01*
X54034056Y-101720342D01*
X54224532Y-101672723D01*
X54319770Y-101577485D01*
X54367389Y-101482247D01*
X54367389Y-101291771D01*
X53462628Y-102101295D02*
X53415009Y-102148914D01*
X53367389Y-102244152D01*
X53367389Y-102482247D01*
X53415009Y-102577485D01*
X53462628Y-102625104D01*
X53557866Y-102672723D01*
X53653104Y-102672723D01*
X53795961Y-102625104D01*
X54367389Y-102053676D01*
X54367389Y-102672723D01*
%TO.C,D24*%
X85112380Y-121435714D02*
X84112380Y-121435714D01*
X84112380Y-121673809D01*
X84160000Y-121816666D01*
X84255238Y-121911904D01*
X84350476Y-121959523D01*
X84540952Y-122007142D01*
X84683809Y-122007142D01*
X84874285Y-121959523D01*
X84969523Y-121911904D01*
X85064761Y-121816666D01*
X85112380Y-121673809D01*
X85112380Y-121435714D01*
X84207619Y-122388095D02*
X84160000Y-122435714D01*
X84112380Y-122530952D01*
X84112380Y-122769047D01*
X84160000Y-122864285D01*
X84207619Y-122911904D01*
X84302857Y-122959523D01*
X84398095Y-122959523D01*
X84540952Y-122911904D01*
X85112380Y-122340476D01*
X85112380Y-122959523D01*
X84445714Y-123816666D02*
X85112380Y-123816666D01*
X84064761Y-123578571D02*
X84779047Y-123340476D01*
X84779047Y-123959523D01*
%TO.C,D54*%
X72082380Y-113685714D02*
X71082380Y-113685714D01*
X71082380Y-113923809D01*
X71130000Y-114066666D01*
X71225238Y-114161904D01*
X71320476Y-114209523D01*
X71510952Y-114257142D01*
X71653809Y-114257142D01*
X71844285Y-114209523D01*
X71939523Y-114161904D01*
X72034761Y-114066666D01*
X72082380Y-113923809D01*
X72082380Y-113685714D01*
X71082380Y-115161904D02*
X71082380Y-114685714D01*
X71558571Y-114638095D01*
X71510952Y-114685714D01*
X71463333Y-114780952D01*
X71463333Y-115019047D01*
X71510952Y-115114285D01*
X71558571Y-115161904D01*
X71653809Y-115209523D01*
X71891904Y-115209523D01*
X71987142Y-115161904D01*
X72034761Y-115114285D01*
X72082380Y-115019047D01*
X72082380Y-114780952D01*
X72034761Y-114685714D01*
X71987142Y-114638095D01*
X71415714Y-116066666D02*
X72082380Y-116066666D01*
X71034761Y-115828571D02*
X71749047Y-115590476D01*
X71749047Y-116209523D01*
%TO.C,D1*%
X124988095Y-100652380D02*
X124988095Y-99652380D01*
X124750000Y-99652380D01*
X124607142Y-99700000D01*
X124511904Y-99795238D01*
X124464285Y-99890476D01*
X124416666Y-100080952D01*
X124416666Y-100223809D01*
X124464285Y-100414285D01*
X124511904Y-100509523D01*
X124607142Y-100604761D01*
X124750000Y-100652380D01*
X124988095Y-100652380D01*
X123464285Y-100652380D02*
X124035714Y-100652380D01*
X123750000Y-100652380D02*
X123750000Y-99652380D01*
X123845238Y-99795238D01*
X123940476Y-99890476D01*
X124035714Y-99938095D01*
%TO.C,C1*%
X130016666Y-97707142D02*
X130064285Y-97754761D01*
X130207142Y-97802380D01*
X130302380Y-97802380D01*
X130445238Y-97754761D01*
X130540476Y-97659523D01*
X130588095Y-97564285D01*
X130635714Y-97373809D01*
X130635714Y-97230952D01*
X130588095Y-97040476D01*
X130540476Y-96945238D01*
X130445238Y-96850000D01*
X130302380Y-96802380D01*
X130207142Y-96802380D01*
X130064285Y-96850000D01*
X130016666Y-96897619D01*
X129064285Y-97802380D02*
X129635714Y-97802380D01*
X129350000Y-97802380D02*
X129350000Y-96802380D01*
X129445238Y-96945238D01*
X129540476Y-97040476D01*
X129635714Y-97088095D01*
%TO.C,D29*%
X47052381Y-129185714D02*
X46052381Y-129185714D01*
X46052381Y-129423809D01*
X46100001Y-129566666D01*
X46195239Y-129661904D01*
X46290477Y-129709523D01*
X46480953Y-129757142D01*
X46623810Y-129757142D01*
X46814286Y-129709523D01*
X46909524Y-129661904D01*
X47004762Y-129566666D01*
X47052381Y-129423809D01*
X47052381Y-129185714D01*
X46147620Y-130138095D02*
X46100001Y-130185714D01*
X46052381Y-130280952D01*
X46052381Y-130519047D01*
X46100001Y-130614285D01*
X46147620Y-130661904D01*
X46242858Y-130709523D01*
X46338096Y-130709523D01*
X46480953Y-130661904D01*
X47052381Y-130090476D01*
X47052381Y-130709523D01*
X47052381Y-131185714D02*
X47052381Y-131376190D01*
X47004762Y-131471428D01*
X46957143Y-131519047D01*
X46814286Y-131614285D01*
X46623810Y-131661904D01*
X46242858Y-131661904D01*
X46147620Y-131614285D01*
X46100001Y-131566666D01*
X46052381Y-131471428D01*
X46052381Y-131280952D01*
X46100001Y-131185714D01*
X46147620Y-131138095D01*
X46242858Y-131090476D01*
X46480953Y-131090476D01*
X46576191Y-131138095D01*
X46623810Y-131185714D01*
X46671429Y-131280952D01*
X46671429Y-131471428D01*
X46623810Y-131566666D01*
X46576191Y-131614285D01*
X46480953Y-131661904D01*
%TO.C,R3*%
X128366666Y-92452380D02*
X128700000Y-91976190D01*
X128938095Y-92452380D02*
X128938095Y-91452380D01*
X128557142Y-91452380D01*
X128461904Y-91500000D01*
X128414285Y-91547619D01*
X128366666Y-91642857D01*
X128366666Y-91785714D01*
X128414285Y-91880952D01*
X128461904Y-91928571D01*
X128557142Y-91976190D01*
X128938095Y-91976190D01*
X128033333Y-91452380D02*
X127414285Y-91452380D01*
X127747619Y-91833333D01*
X127604761Y-91833333D01*
X127509523Y-91880952D01*
X127461904Y-91928571D01*
X127414285Y-92023809D01*
X127414285Y-92261904D01*
X127461904Y-92357142D01*
X127509523Y-92404761D01*
X127604761Y-92452380D01*
X127890476Y-92452380D01*
X127985714Y-92404761D01*
X128033333Y-92357142D01*
%TO.C,D30*%
X59272379Y-129185714D02*
X58272379Y-129185714D01*
X58272379Y-129423809D01*
X58319999Y-129566666D01*
X58415237Y-129661904D01*
X58510475Y-129709523D01*
X58700951Y-129757142D01*
X58843808Y-129757142D01*
X59034284Y-129709523D01*
X59129522Y-129661904D01*
X59224760Y-129566666D01*
X59272379Y-129423809D01*
X59272379Y-129185714D01*
X58272379Y-130090476D02*
X58272379Y-130709523D01*
X58653332Y-130376190D01*
X58653332Y-130519047D01*
X58700951Y-130614285D01*
X58748570Y-130661904D01*
X58843808Y-130709523D01*
X59081903Y-130709523D01*
X59177141Y-130661904D01*
X59224760Y-130614285D01*
X59272379Y-130519047D01*
X59272379Y-130233333D01*
X59224760Y-130138095D01*
X59177141Y-130090476D01*
X58272379Y-131328571D02*
X58272379Y-131423809D01*
X58319999Y-131519047D01*
X58367618Y-131566666D01*
X58462856Y-131614285D01*
X58653332Y-131661904D01*
X58891427Y-131661904D01*
X59081903Y-131614285D01*
X59177141Y-131566666D01*
X59224760Y-131519047D01*
X59272379Y-131423809D01*
X59272379Y-131328571D01*
X59224760Y-131233333D01*
X59177141Y-131185714D01*
X59081903Y-131138095D01*
X58891427Y-131090476D01*
X58653332Y-131090476D01*
X58462856Y-131138095D01*
X58367618Y-131185714D01*
X58319999Y-131233333D01*
X58272379Y-131328571D01*
%TO.C,D55*%
X83642380Y-113685714D02*
X82642380Y-113685714D01*
X82642380Y-113923809D01*
X82690000Y-114066666D01*
X82785238Y-114161904D01*
X82880476Y-114209523D01*
X83070952Y-114257142D01*
X83213809Y-114257142D01*
X83404285Y-114209523D01*
X83499523Y-114161904D01*
X83594761Y-114066666D01*
X83642380Y-113923809D01*
X83642380Y-113685714D01*
X82642380Y-115161904D02*
X82642380Y-114685714D01*
X83118571Y-114638095D01*
X83070952Y-114685714D01*
X83023333Y-114780952D01*
X83023333Y-115019047D01*
X83070952Y-115114285D01*
X83118571Y-115161904D01*
X83213809Y-115209523D01*
X83451904Y-115209523D01*
X83547142Y-115161904D01*
X83594761Y-115114285D01*
X83642380Y-115019047D01*
X83642380Y-114780952D01*
X83594761Y-114685714D01*
X83547142Y-114638095D01*
X82642380Y-116114285D02*
X82642380Y-115638095D01*
X83118571Y-115590476D01*
X83070952Y-115638095D01*
X83023333Y-115733333D01*
X83023333Y-115971428D01*
X83070952Y-116066666D01*
X83118571Y-116114285D01*
X83213809Y-116161904D01*
X83451904Y-116161904D01*
X83547142Y-116114285D01*
X83594761Y-116066666D01*
X83642380Y-115971428D01*
X83642380Y-115733333D01*
X83594761Y-115638095D01*
X83547142Y-115590476D01*
%TO.C,D37*%
X53552380Y-129185714D02*
X52552380Y-129185714D01*
X52552380Y-129423809D01*
X52600000Y-129566666D01*
X52695238Y-129661904D01*
X52790476Y-129709523D01*
X52980952Y-129757142D01*
X53123809Y-129757142D01*
X53314285Y-129709523D01*
X53409523Y-129661904D01*
X53504761Y-129566666D01*
X53552380Y-129423809D01*
X53552380Y-129185714D01*
X52552380Y-130090476D02*
X52552380Y-130709523D01*
X52933333Y-130376190D01*
X52933333Y-130519047D01*
X52980952Y-130614285D01*
X53028571Y-130661904D01*
X53123809Y-130709523D01*
X53361904Y-130709523D01*
X53457142Y-130661904D01*
X53504761Y-130614285D01*
X53552380Y-130519047D01*
X53552380Y-130233333D01*
X53504761Y-130138095D01*
X53457142Y-130090476D01*
X52552380Y-131042857D02*
X52552380Y-131709523D01*
X53552380Y-131280952D01*
%TO.C,D18*%
X112742380Y-113685714D02*
X111742380Y-113685714D01*
X111742380Y-113923809D01*
X111790000Y-114066666D01*
X111885238Y-114161904D01*
X111980476Y-114209523D01*
X112170952Y-114257142D01*
X112313809Y-114257142D01*
X112504285Y-114209523D01*
X112599523Y-114161904D01*
X112694761Y-114066666D01*
X112742380Y-113923809D01*
X112742380Y-113685714D01*
X112742380Y-115209523D02*
X112742380Y-114638095D01*
X112742380Y-114923809D02*
X111742380Y-114923809D01*
X111885238Y-114828571D01*
X111980476Y-114733333D01*
X112028095Y-114638095D01*
X112170952Y-115780952D02*
X112123333Y-115685714D01*
X112075714Y-115638095D01*
X111980476Y-115590476D01*
X111932857Y-115590476D01*
X111837619Y-115638095D01*
X111790000Y-115685714D01*
X111742380Y-115780952D01*
X111742380Y-115971428D01*
X111790000Y-116066666D01*
X111837619Y-116114285D01*
X111932857Y-116161904D01*
X111980476Y-116161904D01*
X112075714Y-116114285D01*
X112123333Y-116066666D01*
X112170952Y-115971428D01*
X112170952Y-115780952D01*
X112218571Y-115685714D01*
X112266190Y-115638095D01*
X112361428Y-115590476D01*
X112551904Y-115590476D01*
X112647142Y-115638095D01*
X112694761Y-115685714D01*
X112742380Y-115780952D01*
X112742380Y-115971428D01*
X112694761Y-116066666D01*
X112647142Y-116114285D01*
X112551904Y-116161904D01*
X112361428Y-116161904D01*
X112266190Y-116114285D01*
X112218571Y-116066666D01*
X112170952Y-115971428D01*
%TO.C,R9*%
X47917389Y-102223333D02*
X47441199Y-101890000D01*
X47917389Y-101651904D02*
X46917389Y-101651904D01*
X46917389Y-102032857D01*
X46965009Y-102128095D01*
X47012628Y-102175714D01*
X47107866Y-102223333D01*
X47250723Y-102223333D01*
X47345961Y-102175714D01*
X47393580Y-102128095D01*
X47441199Y-102032857D01*
X47441199Y-101651904D01*
X47917389Y-102699523D02*
X47917389Y-102890000D01*
X47869770Y-102985238D01*
X47822151Y-103032857D01*
X47679294Y-103128095D01*
X47488818Y-103175714D01*
X47107866Y-103175714D01*
X47012628Y-103128095D01*
X46965009Y-103080476D01*
X46917389Y-102985238D01*
X46917389Y-102794761D01*
X46965009Y-102699523D01*
X47012628Y-102651904D01*
X47107866Y-102604285D01*
X47345961Y-102604285D01*
X47441199Y-102651904D01*
X47488818Y-102699523D01*
X47536437Y-102794761D01*
X47536437Y-102985238D01*
X47488818Y-103080476D01*
X47441199Y-103128095D01*
X47345961Y-103175714D01*
%TO.C,U1*%
X125961904Y-76752380D02*
X125961904Y-77561904D01*
X125914285Y-77657142D01*
X125866666Y-77704761D01*
X125771428Y-77752380D01*
X125580952Y-77752380D01*
X125485714Y-77704761D01*
X125438095Y-77657142D01*
X125390476Y-77561904D01*
X125390476Y-76752380D01*
X124390476Y-77752380D02*
X124961904Y-77752380D01*
X124676190Y-77752380D02*
X124676190Y-76752380D01*
X124771428Y-76895238D01*
X124866666Y-76990476D01*
X124961904Y-77038095D01*
%TO.C,C3*%
X119334687Y-79529610D02*
X119334687Y-79462267D01*
X119267343Y-79327580D01*
X119200000Y-79260236D01*
X119065312Y-79192893D01*
X118930625Y-79192893D01*
X118829610Y-79226564D01*
X118661251Y-79327580D01*
X118560236Y-79428595D01*
X118459221Y-79596954D01*
X118425549Y-79697969D01*
X118425549Y-79832656D01*
X118492893Y-79967343D01*
X118560236Y-80034687D01*
X118694923Y-80102030D01*
X118762267Y-80102030D01*
X118930625Y-80405076D02*
X119368358Y-80842809D01*
X119402030Y-80337732D01*
X119503045Y-80438748D01*
X119604061Y-80472419D01*
X119671404Y-80472419D01*
X119772419Y-80438748D01*
X119940778Y-80270389D01*
X119974450Y-80169374D01*
X119974450Y-80102030D01*
X119940778Y-80001015D01*
X119738748Y-79798984D01*
X119637732Y-79765312D01*
X119570389Y-79765312D01*
%TO.C,C2*%
X127666668Y-100612142D02*
X127714287Y-100659761D01*
X127857144Y-100707380D01*
X127952382Y-100707380D01*
X128095240Y-100659761D01*
X128190478Y-100564523D01*
X128238097Y-100469285D01*
X128285716Y-100278809D01*
X128285716Y-100135952D01*
X128238097Y-99945476D01*
X128190478Y-99850238D01*
X128095240Y-99755000D01*
X127952382Y-99707380D01*
X127857144Y-99707380D01*
X127714287Y-99755000D01*
X127666668Y-99802619D01*
X127285716Y-99802619D02*
X127238097Y-99755000D01*
X127142859Y-99707380D01*
X126904763Y-99707380D01*
X126809525Y-99755000D01*
X126761906Y-99802619D01*
X126714287Y-99897857D01*
X126714287Y-99993095D01*
X126761906Y-100135952D01*
X127333335Y-100707380D01*
X126714287Y-100707380D01*
%TO.C,D21*%
X50742380Y-121435714D02*
X49742380Y-121435714D01*
X49742380Y-121673809D01*
X49790000Y-121816666D01*
X49885238Y-121911904D01*
X49980476Y-121959523D01*
X50170952Y-122007142D01*
X50313809Y-122007142D01*
X50504285Y-121959523D01*
X50599523Y-121911904D01*
X50694761Y-121816666D01*
X50742380Y-121673809D01*
X50742380Y-121435714D01*
X49837619Y-122388095D02*
X49790000Y-122435714D01*
X49742380Y-122530952D01*
X49742380Y-122769047D01*
X49790000Y-122864285D01*
X49837619Y-122911904D01*
X49932857Y-122959523D01*
X50028095Y-122959523D01*
X50170952Y-122911904D01*
X50742380Y-122340476D01*
X50742380Y-122959523D01*
X50742380Y-123911904D02*
X50742380Y-123340476D01*
X50742380Y-123626190D02*
X49742380Y-123626190D01*
X49885238Y-123530952D01*
X49980476Y-123435714D01*
X50028095Y-123340476D01*
%TO.C,D35*%
X119552380Y-129185714D02*
X118552380Y-129185714D01*
X118552380Y-129423809D01*
X118600000Y-129566666D01*
X118695238Y-129661904D01*
X118790476Y-129709523D01*
X118980952Y-129757142D01*
X119123809Y-129757142D01*
X119314285Y-129709523D01*
X119409523Y-129661904D01*
X119504761Y-129566666D01*
X119552380Y-129423809D01*
X119552380Y-129185714D01*
X118552380Y-130090476D02*
X118552380Y-130709523D01*
X118933333Y-130376190D01*
X118933333Y-130519047D01*
X118980952Y-130614285D01*
X119028571Y-130661904D01*
X119123809Y-130709523D01*
X119361904Y-130709523D01*
X119457142Y-130661904D01*
X119504761Y-130614285D01*
X119552380Y-130519047D01*
X119552380Y-130233333D01*
X119504761Y-130138095D01*
X119457142Y-130090476D01*
X118552380Y-131614285D02*
X118552380Y-131138095D01*
X119028571Y-131090476D01*
X118980952Y-131138095D01*
X118933333Y-131233333D01*
X118933333Y-131471428D01*
X118980952Y-131566666D01*
X119028571Y-131614285D01*
X119123809Y-131661904D01*
X119361904Y-131661904D01*
X119457142Y-131614285D01*
X119504761Y-131566666D01*
X119552380Y-131471428D01*
X119552380Y-131233333D01*
X119504761Y-131138095D01*
X119457142Y-131090476D01*
%TO.C,D66*%
X121512380Y-105935714D02*
X120512380Y-105935714D01*
X120512380Y-106173809D01*
X120560000Y-106316666D01*
X120655238Y-106411904D01*
X120750476Y-106459523D01*
X120940952Y-106507142D01*
X121083809Y-106507142D01*
X121274285Y-106459523D01*
X121369523Y-106411904D01*
X121464761Y-106316666D01*
X121512380Y-106173809D01*
X121512380Y-105935714D01*
X120512380Y-107364285D02*
X120512380Y-107173809D01*
X120560000Y-107078571D01*
X120607619Y-107030952D01*
X120750476Y-106935714D01*
X120940952Y-106888095D01*
X121321904Y-106888095D01*
X121417142Y-106935714D01*
X121464761Y-106983333D01*
X121512380Y-107078571D01*
X121512380Y-107269047D01*
X121464761Y-107364285D01*
X121417142Y-107411904D01*
X121321904Y-107459523D01*
X121083809Y-107459523D01*
X120988571Y-107411904D01*
X120940952Y-107364285D01*
X120893333Y-107269047D01*
X120893333Y-107078571D01*
X120940952Y-106983333D01*
X120988571Y-106935714D01*
X121083809Y-106888095D01*
X120512380Y-108316666D02*
X120512380Y-108126190D01*
X120560000Y-108030952D01*
X120607619Y-107983333D01*
X120750476Y-107888095D01*
X120940952Y-107840476D01*
X121321904Y-107840476D01*
X121417142Y-107888095D01*
X121464761Y-107935714D01*
X121512380Y-108030952D01*
X121512380Y-108221428D01*
X121464761Y-108316666D01*
X121417142Y-108364285D01*
X121321904Y-108411904D01*
X121083809Y-108411904D01*
X120988571Y-108364285D01*
X120940952Y-108316666D01*
X120893333Y-108221428D01*
X120893333Y-108030952D01*
X120940952Y-107935714D01*
X120988571Y-107888095D01*
X121083809Y-107840476D01*
%TO.C,C16*%
X40742857Y-103657142D02*
X40790476Y-103704761D01*
X40933333Y-103752380D01*
X41028571Y-103752380D01*
X41171428Y-103704761D01*
X41266666Y-103609523D01*
X41314285Y-103514285D01*
X41361904Y-103323809D01*
X41361904Y-103180952D01*
X41314285Y-102990476D01*
X41266666Y-102895238D01*
X41171428Y-102800000D01*
X41028571Y-102752380D01*
X40933333Y-102752380D01*
X40790476Y-102800000D01*
X40742857Y-102847619D01*
X39790476Y-103752380D02*
X40361904Y-103752380D01*
X40076190Y-103752380D02*
X40076190Y-102752380D01*
X40171428Y-102895238D01*
X40266666Y-102990476D01*
X40361904Y-103038095D01*
X38933333Y-102752380D02*
X39123809Y-102752380D01*
X39219047Y-102800000D01*
X39266666Y-102847619D01*
X39361904Y-102990476D01*
X39409523Y-103180952D01*
X39409523Y-103561904D01*
X39361904Y-103657142D01*
X39314285Y-103704761D01*
X39219047Y-103752380D01*
X39028571Y-103752380D01*
X38933333Y-103704761D01*
X38885714Y-103657142D01*
X38838095Y-103561904D01*
X38838095Y-103323809D01*
X38885714Y-103228571D01*
X38933333Y-103180952D01*
X39028571Y-103133333D01*
X39219047Y-103133333D01*
X39314285Y-103180952D01*
X39361904Y-103228571D01*
X39409523Y-103323809D01*
%TO.C,D57*%
X106962380Y-113685714D02*
X105962380Y-113685714D01*
X105962380Y-113923809D01*
X106010000Y-114066666D01*
X106105238Y-114161904D01*
X106200476Y-114209523D01*
X106390952Y-114257142D01*
X106533809Y-114257142D01*
X106724285Y-114209523D01*
X106819523Y-114161904D01*
X106914761Y-114066666D01*
X106962380Y-113923809D01*
X106962380Y-113685714D01*
X105962380Y-115161904D02*
X105962380Y-114685714D01*
X106438571Y-114638095D01*
X106390952Y-114685714D01*
X106343333Y-114780952D01*
X106343333Y-115019047D01*
X106390952Y-115114285D01*
X106438571Y-115161904D01*
X106533809Y-115209523D01*
X106771904Y-115209523D01*
X106867142Y-115161904D01*
X106914761Y-115114285D01*
X106962380Y-115019047D01*
X106962380Y-114780952D01*
X106914761Y-114685714D01*
X106867142Y-114638095D01*
X105962380Y-115542857D02*
X105962380Y-116209523D01*
X106962380Y-115780952D01*
%TO.C,C6*%
X48066666Y-98547142D02*
X48114285Y-98594761D01*
X48257142Y-98642380D01*
X48352380Y-98642380D01*
X48495238Y-98594761D01*
X48590476Y-98499523D01*
X48638095Y-98404285D01*
X48685714Y-98213809D01*
X48685714Y-98070952D01*
X48638095Y-97880476D01*
X48590476Y-97785238D01*
X48495238Y-97690000D01*
X48352380Y-97642380D01*
X48257142Y-97642380D01*
X48114285Y-97690000D01*
X48066666Y-97737619D01*
X47209523Y-97642380D02*
X47400000Y-97642380D01*
X47495238Y-97690000D01*
X47542857Y-97737619D01*
X47638095Y-97880476D01*
X47685714Y-98070952D01*
X47685714Y-98451904D01*
X47638095Y-98547142D01*
X47590476Y-98594761D01*
X47495238Y-98642380D01*
X47304761Y-98642380D01*
X47209523Y-98594761D01*
X47161904Y-98547142D01*
X47114285Y-98451904D01*
X47114285Y-98213809D01*
X47161904Y-98118571D01*
X47209523Y-98070952D01*
X47304761Y-98023333D01*
X47495238Y-98023333D01*
X47590476Y-98070952D01*
X47638095Y-98118571D01*
X47685714Y-98213809D01*
%TO.C,C8*%
X39866666Y-99457142D02*
X39914285Y-99504761D01*
X40057142Y-99552380D01*
X40152380Y-99552380D01*
X40295238Y-99504761D01*
X40390476Y-99409523D01*
X40438095Y-99314285D01*
X40485714Y-99123809D01*
X40485714Y-98980952D01*
X40438095Y-98790476D01*
X40390476Y-98695238D01*
X40295238Y-98600000D01*
X40152380Y-98552380D01*
X40057142Y-98552380D01*
X39914285Y-98600000D01*
X39866666Y-98647619D01*
X39295238Y-98980952D02*
X39390476Y-98933333D01*
X39438095Y-98885714D01*
X39485714Y-98790476D01*
X39485714Y-98742857D01*
X39438095Y-98647619D01*
X39390476Y-98600000D01*
X39295238Y-98552380D01*
X39104761Y-98552380D01*
X39009523Y-98600000D01*
X38961904Y-98647619D01*
X38914285Y-98742857D01*
X38914285Y-98790476D01*
X38961904Y-98885714D01*
X39009523Y-98933333D01*
X39104761Y-98980952D01*
X39295238Y-98980952D01*
X39390476Y-99028571D01*
X39438095Y-99076190D01*
X39485714Y-99171428D01*
X39485714Y-99361904D01*
X39438095Y-99457142D01*
X39390476Y-99504761D01*
X39295238Y-99552380D01*
X39104761Y-99552380D01*
X39009523Y-99504761D01*
X38961904Y-99457142D01*
X38914285Y-99361904D01*
X38914285Y-99171428D01*
X38961904Y-99076190D01*
X39009523Y-99028571D01*
X39104761Y-98980952D01*
%TO.C,R4*%
X133266666Y-76952380D02*
X133600000Y-76476190D01*
X133838095Y-76952380D02*
X133838095Y-75952380D01*
X133457142Y-75952380D01*
X133361904Y-76000000D01*
X133314285Y-76047619D01*
X133266666Y-76142857D01*
X133266666Y-76285714D01*
X133314285Y-76380952D01*
X133361904Y-76428571D01*
X133457142Y-76476190D01*
X133838095Y-76476190D01*
X132409523Y-76285714D02*
X132409523Y-76952380D01*
X132647619Y-75904761D02*
X132885714Y-76619047D01*
X132266666Y-76619047D01*
%TO.C,D31*%
X70832380Y-129185714D02*
X69832380Y-129185714D01*
X69832380Y-129423809D01*
X69880000Y-129566666D01*
X69975238Y-129661904D01*
X70070476Y-129709523D01*
X70260952Y-129757142D01*
X70403809Y-129757142D01*
X70594285Y-129709523D01*
X70689523Y-129661904D01*
X70784761Y-129566666D01*
X70832380Y-129423809D01*
X70832380Y-129185714D01*
X69832380Y-130090476D02*
X69832380Y-130709523D01*
X70213333Y-130376190D01*
X70213333Y-130519047D01*
X70260952Y-130614285D01*
X70308571Y-130661904D01*
X70403809Y-130709523D01*
X70641904Y-130709523D01*
X70737142Y-130661904D01*
X70784761Y-130614285D01*
X70832380Y-130519047D01*
X70832380Y-130233333D01*
X70784761Y-130138095D01*
X70737142Y-130090476D01*
X70832380Y-131661904D02*
X70832380Y-131090476D01*
X70832380Y-131376190D02*
X69832380Y-131376190D01*
X69975238Y-131280952D01*
X70070476Y-131185714D01*
X70118095Y-131090476D01*
%TO.C,C4*%
X54466666Y-87057142D02*
X54514285Y-87104761D01*
X54657142Y-87152380D01*
X54752380Y-87152380D01*
X54895238Y-87104761D01*
X54990476Y-87009523D01*
X55038095Y-86914285D01*
X55085714Y-86723809D01*
X55085714Y-86580952D01*
X55038095Y-86390476D01*
X54990476Y-86295238D01*
X54895238Y-86200000D01*
X54752380Y-86152380D01*
X54657142Y-86152380D01*
X54514285Y-86200000D01*
X54466666Y-86247619D01*
X53609523Y-86485714D02*
X53609523Y-87152380D01*
X53847619Y-86104761D02*
X54085714Y-86819047D01*
X53466666Y-86819047D01*
%TO.C,C5*%
X121066668Y-93557142D02*
X121114287Y-93604761D01*
X121257144Y-93652380D01*
X121352382Y-93652380D01*
X121495240Y-93604761D01*
X121590478Y-93509523D01*
X121638097Y-93414285D01*
X121685716Y-93223809D01*
X121685716Y-93080952D01*
X121638097Y-92890476D01*
X121590478Y-92795238D01*
X121495240Y-92700000D01*
X121352382Y-92652380D01*
X121257144Y-92652380D01*
X121114287Y-92700000D01*
X121066668Y-92747619D01*
X120161906Y-92652380D02*
X120638097Y-92652380D01*
X120685716Y-93128571D01*
X120638097Y-93080952D01*
X120542859Y-93033333D01*
X120304763Y-93033333D01*
X120209525Y-93080952D01*
X120161906Y-93128571D01*
X120114287Y-93223809D01*
X120114287Y-93461904D01*
X120161906Y-93557142D01*
X120209525Y-93604761D01*
X120304763Y-93652380D01*
X120542859Y-93652380D01*
X120638097Y-93604761D01*
X120685716Y-93557142D01*
%TO.C,D6*%
X69462380Y-106411904D02*
X68462380Y-106411904D01*
X68462380Y-106650000D01*
X68510000Y-106792857D01*
X68605238Y-106888095D01*
X68700476Y-106935714D01*
X68890952Y-106983333D01*
X69033809Y-106983333D01*
X69224285Y-106935714D01*
X69319523Y-106888095D01*
X69414761Y-106792857D01*
X69462380Y-106650000D01*
X69462380Y-106411904D01*
X68462380Y-107840476D02*
X68462380Y-107650000D01*
X68510000Y-107554761D01*
X68557619Y-107507142D01*
X68700476Y-107411904D01*
X68890952Y-107364285D01*
X69271904Y-107364285D01*
X69367142Y-107411904D01*
X69414761Y-107459523D01*
X69462380Y-107554761D01*
X69462380Y-107745238D01*
X69414761Y-107840476D01*
X69367142Y-107888095D01*
X69271904Y-107935714D01*
X69033809Y-107935714D01*
X68938571Y-107888095D01*
X68890952Y-107840476D01*
X68843333Y-107745238D01*
X68843333Y-107554761D01*
X68890952Y-107459523D01*
X68938571Y-107411904D01*
X69033809Y-107364285D01*
%TO.C,D47*%
X79482380Y-121435714D02*
X78482380Y-121435714D01*
X78482380Y-121673809D01*
X78530000Y-121816666D01*
X78625238Y-121911904D01*
X78720476Y-121959523D01*
X78910952Y-122007142D01*
X79053809Y-122007142D01*
X79244285Y-121959523D01*
X79339523Y-121911904D01*
X79434761Y-121816666D01*
X79482380Y-121673809D01*
X79482380Y-121435714D01*
X78815714Y-122864285D02*
X79482380Y-122864285D01*
X78434761Y-122626190D02*
X79149047Y-122388095D01*
X79149047Y-123007142D01*
X78482380Y-123292857D02*
X78482380Y-123959523D01*
X79482380Y-123530952D01*
%TO.C,R12*%
X37542857Y-96752380D02*
X37876190Y-96276190D01*
X38114285Y-96752380D02*
X38114285Y-95752380D01*
X37733333Y-95752380D01*
X37638095Y-95800000D01*
X37590476Y-95847619D01*
X37542857Y-95942857D01*
X37542857Y-96085714D01*
X37590476Y-96180952D01*
X37638095Y-96228571D01*
X37733333Y-96276190D01*
X38114285Y-96276190D01*
X36590476Y-96752380D02*
X37161904Y-96752380D01*
X36876190Y-96752380D02*
X36876190Y-95752380D01*
X36971428Y-95895238D01*
X37066666Y-95990476D01*
X37161904Y-96038095D01*
X36209523Y-95847619D02*
X36161904Y-95800000D01*
X36066666Y-95752380D01*
X35828571Y-95752380D01*
X35733333Y-95800000D01*
X35685714Y-95847619D01*
X35638095Y-95942857D01*
X35638095Y-96038095D01*
X35685714Y-96180952D01*
X36257142Y-96752380D01*
X35638095Y-96752380D01*
%TO.C,D48*%
X90892379Y-121435714D02*
X89892379Y-121435714D01*
X89892379Y-121673809D01*
X89939999Y-121816666D01*
X90035237Y-121911904D01*
X90130475Y-121959523D01*
X90320951Y-122007142D01*
X90463808Y-122007142D01*
X90654284Y-121959523D01*
X90749522Y-121911904D01*
X90844760Y-121816666D01*
X90892379Y-121673809D01*
X90892379Y-121435714D01*
X90225713Y-122864285D02*
X90892379Y-122864285D01*
X89844760Y-122626190D02*
X90559046Y-122388095D01*
X90559046Y-123007142D01*
X90320951Y-123530952D02*
X90273332Y-123435714D01*
X90225713Y-123388095D01*
X90130475Y-123340476D01*
X90082856Y-123340476D01*
X89987618Y-123388095D01*
X89939999Y-123435714D01*
X89892379Y-123530952D01*
X89892379Y-123721428D01*
X89939999Y-123816666D01*
X89987618Y-123864285D01*
X90082856Y-123911904D01*
X90130475Y-123911904D01*
X90225713Y-123864285D01*
X90273332Y-123816666D01*
X90320951Y-123721428D01*
X90320951Y-123530952D01*
X90368570Y-123435714D01*
X90416189Y-123388095D01*
X90511427Y-123340476D01*
X90701903Y-123340476D01*
X90797141Y-123388095D01*
X90844760Y-123435714D01*
X90892379Y-123530952D01*
X90892379Y-123721428D01*
X90844760Y-123816666D01*
X90797141Y-123864285D01*
X90701903Y-123911904D01*
X90511427Y-123911904D01*
X90416189Y-123864285D01*
X90368570Y-123816666D01*
X90320951Y-123721428D01*
%TO.C,C19*%
X76817142Y-73957142D02*
X76864761Y-73909523D01*
X76912380Y-73766666D01*
X76912380Y-73671428D01*
X76864761Y-73528571D01*
X76769523Y-73433333D01*
X76674285Y-73385714D01*
X76483809Y-73338095D01*
X76340952Y-73338095D01*
X76150476Y-73385714D01*
X76055238Y-73433333D01*
X75960000Y-73528571D01*
X75912380Y-73671428D01*
X75912380Y-73766666D01*
X75960000Y-73909523D01*
X76007619Y-73957142D01*
X76912380Y-74909523D02*
X76912380Y-74338095D01*
X76912380Y-74623809D02*
X75912380Y-74623809D01*
X76055238Y-74528571D01*
X76150476Y-74433333D01*
X76198095Y-74338095D01*
X76912380Y-75385714D02*
X76912380Y-75576190D01*
X76864761Y-75671428D01*
X76817142Y-75719047D01*
X76674285Y-75814285D01*
X76483809Y-75861904D01*
X76102857Y-75861904D01*
X76007619Y-75814285D01*
X75960000Y-75766666D01*
X75912380Y-75671428D01*
X75912380Y-75480952D01*
X75960000Y-75385714D01*
X76007619Y-75338095D01*
X76102857Y-75290476D01*
X76340952Y-75290476D01*
X76436190Y-75338095D01*
X76483809Y-75385714D01*
X76531428Y-75480952D01*
X76531428Y-75671428D01*
X76483809Y-75766666D01*
X76436190Y-75814285D01*
X76340952Y-75861904D01*
D11*
%TO.C,U5*%
X39001519Y-96382200D02*
X39001519Y-95771640D01*
X45655359Y-89117800D02*
X46265919Y-89117800D01*
X39612079Y-96382200D02*
X39001519Y-96382200D01*
X46265919Y-95771640D02*
X46265919Y-96382200D01*
X39001519Y-89117800D02*
X39612079Y-89117800D01*
X39001519Y-89728360D02*
X39001519Y-89117800D01*
X46265919Y-89117800D02*
X46265919Y-89728360D01*
X46265919Y-96382200D02*
X45655359Y-96382200D01*
D12*
X43424218Y-96814000D02*
X43424218Y-97068000D01*
X43424218Y-97068000D02*
X43043218Y-97068000D01*
X43043218Y-97068000D02*
X43043218Y-96814000D01*
X43043218Y-96814000D02*
X43424218Y-96814000D01*
G36*
X43424218Y-97068000D02*
G01*
X43043218Y-97068000D01*
X43043218Y-96814000D01*
X43424218Y-96814000D01*
X43424218Y-97068000D01*
G37*
X43424218Y-97068000D02*
X43043218Y-97068000D01*
X43043218Y-96814000D01*
X43424218Y-96814000D01*
X43424218Y-97068000D01*
X38315719Y-94759501D02*
X38315719Y-95140501D01*
X38315719Y-95140501D02*
X38569719Y-95140501D01*
X38569719Y-95140501D02*
X38569719Y-94759501D01*
X38569719Y-94759501D02*
X38315719Y-94759501D01*
G36*
X38569719Y-95140501D02*
G01*
X38315719Y-95140501D01*
X38315719Y-94759501D01*
X38569719Y-94759501D01*
X38569719Y-95140501D01*
G37*
X38569719Y-95140501D02*
X38315719Y-95140501D01*
X38315719Y-94759501D01*
X38569719Y-94759501D01*
X38569719Y-95140501D01*
X43024219Y-88686000D02*
X43024219Y-88432000D01*
X43024219Y-88432000D02*
X42643219Y-88432000D01*
X42643219Y-88432000D02*
X42643219Y-88686000D01*
X42643219Y-88686000D02*
X43024219Y-88686000D01*
G36*
X43024219Y-88686000D02*
G01*
X42643219Y-88686000D01*
X42643219Y-88432000D01*
X43024219Y-88432000D01*
X43024219Y-88686000D01*
G37*
X43024219Y-88686000D02*
X42643219Y-88686000D01*
X42643219Y-88432000D01*
X43024219Y-88432000D01*
X43024219Y-88686000D01*
X46951719Y-93559501D02*
X46951719Y-93940501D01*
X46951719Y-93940501D02*
X46697719Y-93940501D01*
X46697719Y-93940501D02*
X46697719Y-93559501D01*
X46697719Y-93559501D02*
X46951719Y-93559501D01*
G36*
X46951719Y-93940501D02*
G01*
X46697719Y-93940501D01*
X46697719Y-93559501D01*
X46951719Y-93559501D01*
X46951719Y-93940501D01*
G37*
X46951719Y-93940501D02*
X46697719Y-93940501D01*
X46697719Y-93559501D01*
X46951719Y-93559501D01*
X46951719Y-93940501D01*
X38315719Y-90759501D02*
X38315719Y-91140501D01*
X38315719Y-91140501D02*
X38569719Y-91140501D01*
X38569719Y-91140501D02*
X38569719Y-90759501D01*
X38569719Y-90759501D02*
X38315719Y-90759501D01*
G36*
X38569719Y-91140501D02*
G01*
X38315719Y-91140501D01*
X38315719Y-90759501D01*
X38569719Y-90759501D01*
X38569719Y-91140501D01*
G37*
X38569719Y-91140501D02*
X38315719Y-91140501D01*
X38315719Y-90759501D01*
X38569719Y-90759501D01*
X38569719Y-91140501D01*
D11*
%TO.C,D4*%
X44880000Y-108650000D02*
X43180000Y-108650000D01*
X44880000Y-108650000D02*
X44880000Y-106100000D01*
X43180000Y-108650000D02*
X43180000Y-106100000D01*
%TO.C,D33*%
X92319999Y-131900000D02*
X90619999Y-131900000D01*
X92319999Y-131900000D02*
X92319999Y-129350000D01*
X90619999Y-131900000D02*
X90619999Y-129350000D01*
%TO.C,D49*%
X100840000Y-124150000D02*
X99140000Y-124150000D01*
X99140000Y-124150000D02*
X99140000Y-121600000D01*
X100840000Y-124150000D02*
X100840000Y-121600000D01*
%TO.C,D12*%
X39100000Y-108650000D02*
X39100000Y-106100000D01*
X39100000Y-108650000D02*
X37400000Y-108650000D01*
X37400000Y-108650000D02*
X37400000Y-106100000D01*
%TO.C,R8*%
X130145649Y-82070000D02*
X130452931Y-82070000D01*
X130145649Y-82830000D02*
X130452931Y-82830000D01*
%TO.C,D59*%
X135100000Y-124150000D02*
X133400000Y-124150000D01*
X135100000Y-124150000D02*
X135100000Y-121600000D01*
X133400000Y-124150000D02*
X133400000Y-121600000D01*
%TO.C,D58*%
X117070000Y-116400000D02*
X115370000Y-116400000D01*
X115370000Y-116400000D02*
X115370000Y-113850000D01*
X117070000Y-116400000D02*
X117070000Y-113850000D01*
%TO.C,R2*%
X46747360Y-88580000D02*
X46440078Y-88580000D01*
X46747360Y-87820000D02*
X46440078Y-87820000D01*
%TO.C,U2*%
X131062500Y-96310000D02*
X130262500Y-96310000D01*
X131062500Y-93190000D02*
X130262500Y-93190000D01*
X131062500Y-96310000D02*
X131862500Y-96310000D01*
X131062500Y-93190000D02*
X132862500Y-93190000D01*
%TO.C,D65*%
X108500001Y-108650000D02*
X106800001Y-108650000D01*
X108500001Y-108650000D02*
X108500001Y-106100000D01*
X106800001Y-108650000D02*
X106800001Y-106100000D01*
%TO.C,D44*%
X37400000Y-131900001D02*
X37400000Y-129350001D01*
X39100000Y-131900001D02*
X39100000Y-129350001D01*
X39100000Y-131900001D02*
X37400000Y-131900001D01*
%TO.C,D62*%
X73800000Y-108650000D02*
X73800000Y-106100000D01*
X72100000Y-108650000D02*
X72100000Y-106100000D01*
X73800000Y-108650000D02*
X72100000Y-108650000D01*
%TO.C,D46*%
X66470001Y-124150000D02*
X64770001Y-124150000D01*
X64770001Y-124150000D02*
X64770001Y-121600000D01*
X66470001Y-124150000D02*
X66470001Y-121600000D01*
%TO.C,Y1*%
X46877280Y-97780000D02*
X46877280Y-101080000D01*
X46877280Y-101080000D02*
X42877280Y-101080000D01*
%TO.C,BT1*%
X120400000Y-87650000D02*
X119400000Y-87650000D01*
X119400000Y-87650000D02*
X119400000Y-89250000D01*
X123000000Y-89250000D02*
X123000000Y-91510000D01*
X124000000Y-89250000D02*
X123000000Y-89250000D01*
X123000000Y-87650000D02*
X124000000Y-87650000D01*
X123500000Y-89250000D02*
X123500000Y-91510000D01*
X121200000Y-87150000D02*
X121200000Y-91510000D01*
X124760000Y-85290000D02*
X123840000Y-85290000D01*
X119560000Y-85290000D02*
X119840000Y-85290000D01*
X119560000Y-83690000D02*
X119560000Y-85290000D01*
X120400000Y-89250000D02*
X120400000Y-87650000D01*
X119400000Y-89250000D02*
X120400000Y-89250000D01*
X123560000Y-85290000D02*
X123840000Y-85290000D01*
X122200000Y-87150000D02*
X121200000Y-87150000D01*
X124760000Y-91510000D02*
X118640000Y-91510000D01*
X118640000Y-85290000D02*
X119560000Y-85290000D01*
X118640000Y-91510000D02*
X118640000Y-83690000D01*
X123840000Y-83690000D02*
X124760000Y-83690000D01*
X123000000Y-89250000D02*
X123000000Y-87650000D01*
X124000000Y-87650000D02*
X124000000Y-89250000D01*
X124760000Y-83690000D02*
X124760000Y-91510000D01*
X122200000Y-91510000D02*
X122200000Y-87150000D01*
X123560000Y-85290000D02*
X123560000Y-84075000D01*
X123840000Y-85290000D02*
X123840000Y-83690000D01*
X118640000Y-83690000D02*
X119560000Y-83690000D01*
%TO.C,C18*%
X47345883Y-89610000D02*
X47561555Y-89610000D01*
X47345883Y-88890000D02*
X47561555Y-88890000D01*
%TO.C,J3*%
X115845000Y-73005000D02*
X115845000Y-65265000D01*
X110645000Y-71675000D02*
X110645000Y-73005000D01*
X110645000Y-70405000D02*
X110645000Y-65265000D01*
X110645000Y-65265000D02*
X115845000Y-65265000D01*
X110645000Y-70405000D02*
X113245000Y-70405000D01*
X110645000Y-73005000D02*
X111975000Y-73005000D01*
X113245000Y-70405000D02*
X113245000Y-73005000D01*
X113245000Y-73005000D02*
X115845000Y-73005000D01*
%TO.C,C10*%
X40907836Y-87740000D02*
X40692164Y-87740000D01*
X40907836Y-88460000D02*
X40692164Y-88460000D01*
%TO.C,C7*%
X41469444Y-100290000D02*
X41685116Y-100290000D01*
X41469444Y-101010000D02*
X41685116Y-101010000D01*
%TO.C,C17*%
X46873719Y-92757836D02*
X46873719Y-92542164D01*
X47593719Y-92757836D02*
X47593719Y-92542164D01*
%TO.C,D56*%
X93850000Y-116400000D02*
X93850000Y-113850000D01*
X93850000Y-116400000D02*
X92150000Y-116400000D01*
X92150000Y-116400000D02*
X92150000Y-113850000D01*
%TO.C,D19*%
X121350000Y-124150000D02*
X119650000Y-124150000D01*
X119650000Y-124150000D02*
X119650000Y-121600000D01*
X121350000Y-124150000D02*
X121350000Y-121600000D01*
%TO.C,D9*%
X102710000Y-108650000D02*
X101010000Y-108650000D01*
X101010000Y-108650000D02*
X101010000Y-106100000D01*
X102710000Y-108650000D02*
X102710000Y-106100000D01*
%TO.C,C9*%
X40907836Y-85160000D02*
X40692164Y-85160000D01*
X40907836Y-84440000D02*
X40692164Y-84440000D01*
%TO.C,D36*%
X75830000Y-136550000D02*
X75830000Y-138250000D01*
X75830000Y-138250000D02*
X73280000Y-138250000D01*
X75830000Y-136550000D02*
X73280000Y-136550000D01*
%TO.C,D25*%
X93520001Y-124150000D02*
X93520001Y-121600000D01*
X95220001Y-124150000D02*
X93520001Y-124150000D01*
X95220001Y-124150000D02*
X95220001Y-121600000D01*
%TO.C,Q1*%
X125860002Y-95525000D02*
X125860002Y-94875000D01*
X122740002Y-95525000D02*
X122740002Y-94875000D01*
X122740002Y-95525000D02*
X122740002Y-96175000D01*
X125860002Y-95525000D02*
X125860002Y-97200000D01*
%TO.C,D10*%
X114280000Y-108650000D02*
X114280000Y-106100000D01*
X112580000Y-108650000D02*
X112580000Y-106100000D01*
X114280000Y-108650000D02*
X112580000Y-108650000D01*
%TO.C,R1*%
X126930002Y-96871359D02*
X126930002Y-97178641D01*
X126170002Y-96871359D02*
X126170002Y-97178641D01*
%TO.C,C11*%
X38627836Y-87840000D02*
X38412164Y-87840000D01*
X38627836Y-88560000D02*
X38412164Y-88560000D01*
%TO.C,C15*%
X38360000Y-89807836D02*
X38360000Y-89592164D01*
X37640000Y-89807836D02*
X37640000Y-89592164D01*
%TO.C,D63*%
X85360000Y-108650000D02*
X85360000Y-106100000D01*
X83660000Y-108650000D02*
X83660000Y-106100000D01*
X85360000Y-108650000D02*
X83660000Y-108650000D01*
%TO.C,D14*%
X63049999Y-116400000D02*
X63049999Y-113850000D01*
X64749999Y-116400000D02*
X63049999Y-116400000D01*
X64749999Y-116400000D02*
X64749999Y-113850000D01*
%TO.C,D67*%
X133400000Y-131900001D02*
X133400000Y-129350001D01*
X135100000Y-131900001D02*
X133400000Y-131900001D01*
X135100000Y-131900001D02*
X135100000Y-129350001D01*
%TO.C,C14*%
X36607836Y-92740000D02*
X36392164Y-92740000D01*
X36607836Y-93460000D02*
X36392164Y-93460000D01*
%TO.C,R6*%
X41423639Y-99270000D02*
X41730921Y-99270000D01*
X41423639Y-100030000D02*
X41730921Y-100030000D01*
%TO.C,D50*%
X110700000Y-124150000D02*
X110700000Y-121600000D01*
X112400000Y-124150000D02*
X112400000Y-121600000D01*
X112400000Y-124150000D02*
X110700000Y-124150000D01*
%TO.C,D38*%
X63600001Y-131900000D02*
X61900001Y-131900000D01*
X61900001Y-131900000D02*
X61900001Y-129350000D01*
X63600001Y-131900000D02*
X63600001Y-129350000D01*
%TO.C,D60*%
X48970000Y-108649999D02*
X48970000Y-106099999D01*
X50670000Y-108649999D02*
X50670000Y-106099999D01*
X50670000Y-108649999D02*
X48970000Y-108649999D01*
%TO.C,D26*%
X106620000Y-124150000D02*
X104920000Y-124150000D01*
X104920000Y-124150000D02*
X104920000Y-121600000D01*
X106620000Y-124150000D02*
X106620000Y-121600000D01*
%TO.C,D3*%
X124350000Y-69200000D02*
X121800000Y-69200000D01*
X124350000Y-67500000D02*
X124350000Y-69200000D01*
X124350000Y-67500000D02*
X121800000Y-67500000D01*
%TO.C,D51*%
X135100000Y-116399999D02*
X133400000Y-116399999D01*
X135100000Y-116399999D02*
X135100000Y-113849999D01*
X133400000Y-116399999D02*
X133400000Y-113849999D01*
%TO.C,D45*%
X55070000Y-124150000D02*
X53370000Y-124150000D01*
X53370000Y-124150000D02*
X53370000Y-121600000D01*
X55070000Y-124150000D02*
X55070000Y-121600000D01*
%TO.C,D40*%
X86630000Y-131900000D02*
X86630000Y-129350000D01*
X86630000Y-131900000D02*
X84930000Y-131900000D01*
X84930000Y-131900000D02*
X84930000Y-129350000D01*
%TO.C,D61*%
X62230000Y-108650000D02*
X60530000Y-108650000D01*
X62230000Y-108650000D02*
X62230000Y-106100000D01*
X60530000Y-108650000D02*
X60530000Y-106100000D01*
%TO.C,D43*%
X135100000Y-108650000D02*
X135100000Y-106100000D01*
X133400000Y-108650000D02*
X133400000Y-106100000D01*
X135100000Y-108650000D02*
X133400000Y-108650000D01*
%TO.C,D22*%
X60849999Y-124150000D02*
X60849999Y-121600000D01*
X60849999Y-124150000D02*
X59149999Y-124150000D01*
X59149999Y-124150000D02*
X59149999Y-121600000D01*
%TO.C,D34*%
X103880000Y-131900000D02*
X102180000Y-131900000D01*
X103880000Y-131900000D02*
X103880000Y-129350000D01*
X102180000Y-131900000D02*
X102180000Y-129350000D01*
%TO.C,D41*%
X98100001Y-131900000D02*
X96400001Y-131900000D01*
X96400001Y-131900000D02*
X96400001Y-129350000D01*
X98100001Y-131900000D02*
X98100001Y-129350000D01*
%TO.C,D53*%
X57270000Y-116400000D02*
X57270000Y-113850000D01*
X58970000Y-116400000D02*
X57270000Y-116400000D01*
X58970000Y-116400000D02*
X58970000Y-113850000D01*
%TO.C,U4*%
X49858719Y-93025000D02*
X49858719Y-95750000D01*
X55308719Y-93025000D02*
X55308719Y-90300000D01*
X49858719Y-90300000D02*
X50118719Y-90300000D01*
X49858719Y-95750000D02*
X50118719Y-95750000D01*
X55308719Y-90300000D02*
X55048719Y-90300000D01*
X55308719Y-95750000D02*
X55048719Y-95750000D01*
X49858719Y-93025000D02*
X49858719Y-90300000D01*
X55048719Y-95750000D02*
X55048719Y-97425000D01*
X55308719Y-93025000D02*
X55308719Y-95750000D01*
%TO.C,D52*%
X45649999Y-116400000D02*
X45649999Y-113850000D01*
X47349999Y-116400000D02*
X45649999Y-116400000D01*
X47349999Y-116400000D02*
X47349999Y-113850000D01*
%TO.C,D15*%
X76410000Y-116399999D02*
X74710000Y-116399999D01*
X74710000Y-116399999D02*
X74710000Y-113849999D01*
X76410000Y-116399999D02*
X76410000Y-113849999D01*
%TO.C,D23*%
X72250000Y-124150000D02*
X72250000Y-121600000D01*
X72250000Y-124150000D02*
X70550000Y-124150000D01*
X70550000Y-124150000D02*
X70550000Y-121600000D01*
%TO.C,D7*%
X79580000Y-108649999D02*
X79580000Y-106099999D01*
X79580000Y-108649999D02*
X77880000Y-108649999D01*
X77880000Y-108649999D02*
X77880000Y-106099999D01*
%TO.C,C12*%
X40907836Y-85740000D02*
X40692164Y-85740000D01*
X40907836Y-86460000D02*
X40692164Y-86460000D01*
%TO.C,D16*%
X87995001Y-116400000D02*
X86295001Y-116400000D01*
X87995001Y-116400000D02*
X87995001Y-113850000D01*
X86295001Y-116400000D02*
X86295001Y-113850000D01*
%TO.C,U3*%
X122410002Y-97425000D02*
X122410002Y-96625000D01*
X119290002Y-97425000D02*
X119290002Y-96625000D01*
X122410002Y-97425000D02*
X122410002Y-99225000D01*
X119290002Y-97425000D02*
X119290002Y-98225000D01*
%TO.C,D32*%
X80850001Y-131900000D02*
X80850001Y-129350000D01*
X79150001Y-131900000D02*
X79150001Y-129350000D01*
X80850001Y-131900000D02*
X79150001Y-131900000D01*
%TO.C,D13*%
X53190000Y-116400000D02*
X51490000Y-116400000D01*
X53190000Y-116400000D02*
X53190000Y-113850000D01*
X51490000Y-116400000D02*
X51490000Y-113850000D01*
%TO.C,D11*%
X124150000Y-108650000D02*
X124150000Y-106100000D01*
X125850000Y-108650000D02*
X124150000Y-108650000D01*
X125850000Y-108650000D02*
X125850000Y-106100000D01*
%TO.C,D8*%
X91150000Y-108650000D02*
X89450000Y-108650000D01*
X89450000Y-108650000D02*
X89450000Y-106100000D01*
X91150000Y-108650000D02*
X91150000Y-106100000D01*
%TO.C,D17*%
X99630000Y-116400000D02*
X97930000Y-116400000D01*
X99630000Y-116400000D02*
X99630000Y-113850000D01*
X97930000Y-116400000D02*
X97930000Y-113850000D01*
%TO.C,D5*%
X56450000Y-108650000D02*
X54750000Y-108650000D01*
X54750000Y-108650000D02*
X54750000Y-106100000D01*
X56450000Y-108650000D02*
X56450000Y-106100000D01*
%TO.C,R7*%
X130146359Y-81020000D02*
X130453641Y-81020000D01*
X130146359Y-81780000D02*
X130453641Y-81780000D01*
%TO.C,D20*%
X40600000Y-116400000D02*
X40600000Y-113850000D01*
X40600000Y-116400000D02*
X38900000Y-116400000D01*
X38900000Y-116400000D02*
X38900000Y-113850000D01*
%TO.C,D27*%
X124100000Y-131900000D02*
X122400000Y-131900000D01*
X122400000Y-131900000D02*
X122400000Y-129350000D01*
X124100000Y-131900000D02*
X124100000Y-129350000D01*
%TO.C,R11*%
X37920000Y-101853641D02*
X37920000Y-101546359D01*
X38680000Y-101853641D02*
X38680000Y-101546359D01*
%TO.C,D42*%
X110850000Y-131900000D02*
X109150000Y-131900000D01*
X110850000Y-131900000D02*
X110850000Y-129350000D01*
X109150000Y-131900000D02*
X109150000Y-129350000D01*
%TO.C,R5*%
X120270000Y-68196359D02*
X120270000Y-68503641D01*
X121030000Y-68196359D02*
X121030000Y-68503641D01*
%TO.C,C13*%
X40907836Y-86740000D02*
X40692164Y-86740000D01*
X40907836Y-87460000D02*
X40692164Y-87460000D01*
%TO.C,D64*%
X96930000Y-108650000D02*
X95230000Y-108650000D01*
X96930000Y-108650000D02*
X96930000Y-106100000D01*
X95230000Y-108650000D02*
X95230000Y-106100000D01*
%TO.C,D28*%
X39100000Y-124150000D02*
X37400000Y-124150000D01*
X39100000Y-124150000D02*
X39100000Y-121600000D01*
X37400000Y-124150000D02*
X37400000Y-121600000D01*
%TO.C,D39*%
X73369999Y-131900000D02*
X73369999Y-129350000D01*
X75069999Y-131900000D02*
X75069999Y-129350000D01*
X75069999Y-131900000D02*
X73369999Y-131900000D01*
%TO.C,R10*%
X48285009Y-100259560D02*
X48285009Y-100566842D01*
X49045009Y-100259560D02*
X49045009Y-100566842D01*
%TO.C,Q2*%
X51337500Y-103400000D02*
X51987500Y-103400000D01*
X51337500Y-100280000D02*
X51987500Y-100280000D01*
X51337500Y-100280000D02*
X50687500Y-100280000D01*
X51337500Y-103400000D02*
X49662500Y-103400000D01*
%TO.C,D24*%
X83660000Y-124150000D02*
X83660000Y-121600000D01*
X83660000Y-124150000D02*
X81960000Y-124150000D01*
X81960000Y-124150000D02*
X81960000Y-121600000D01*
%TO.C,D54*%
X68930000Y-116400000D02*
X68930000Y-113850000D01*
X70630000Y-116400000D02*
X70630000Y-113850000D01*
X70630000Y-116400000D02*
X68930000Y-116400000D01*
%TO.C,D1*%
X122750000Y-99375000D02*
X125300000Y-99375000D01*
X122750000Y-97675000D02*
X125300000Y-97675000D01*
X122750000Y-99375000D02*
X122750000Y-97675000D01*
%TO.C,C1*%
X127677500Y-96382139D02*
X127677500Y-96663299D01*
X128697500Y-96382139D02*
X128697500Y-96663299D01*
%TO.C,D29*%
X45600001Y-131900000D02*
X45600001Y-129350000D01*
X45600001Y-131900000D02*
X43900001Y-131900000D01*
X43900001Y-131900000D02*
X43900001Y-129350000D01*
%TO.C,R3*%
X128567500Y-93676360D02*
X128567500Y-93369078D01*
X127807500Y-93676360D02*
X127807500Y-93369078D01*
%TO.C,D30*%
X57819999Y-131900000D02*
X56119999Y-131900000D01*
X56119999Y-131900000D02*
X56119999Y-129350000D01*
X57819999Y-131900000D02*
X57819999Y-129350000D01*
%TO.C,D55*%
X82190000Y-116400000D02*
X80490000Y-116400000D01*
X80490000Y-116400000D02*
X80490000Y-113850000D01*
X82190000Y-116400000D02*
X82190000Y-113850000D01*
%TO.C,D37*%
X52100000Y-131900000D02*
X52100000Y-129350000D01*
X52100000Y-131900000D02*
X50400000Y-131900000D01*
X50400000Y-131900000D02*
X50400000Y-129350000D01*
%TO.C,D18*%
X111290000Y-116400000D02*
X111290000Y-113850000D01*
X109590000Y-116400000D02*
X109590000Y-113850000D01*
X111290000Y-116400000D02*
X109590000Y-116400000D01*
%TO.C,R9*%
X49030000Y-102543641D02*
X49030000Y-102236359D01*
X48270000Y-102543641D02*
X48270000Y-102236359D01*
D10*
%TO.C,U1*%
X124950421Y-82268387D02*
X124791322Y-82109288D01*
X130076945Y-77141863D02*
X129847135Y-77371673D01*
X124950421Y-72015339D02*
X125180231Y-72245149D01*
X124791322Y-82109288D02*
X123783695Y-83116915D01*
X119823897Y-77141863D02*
X120053707Y-76912053D01*
X130076945Y-77141863D02*
X129847135Y-76912053D01*
X124950421Y-82268387D02*
X125180231Y-82038577D01*
X124950421Y-72015339D02*
X124720611Y-72245149D01*
X119823897Y-77141863D02*
X120053707Y-77371673D01*
D11*
%TO.C,C3*%
X120980810Y-81221693D02*
X120828307Y-81069190D01*
X120471693Y-81730810D02*
X120319190Y-81578307D01*
%TO.C,C2*%
X127359422Y-99335000D02*
X127640582Y-99335000D01*
X127359422Y-98315000D02*
X127640582Y-98315000D01*
%TO.C,D21*%
X47590000Y-124150000D02*
X47590000Y-121600000D01*
X49290000Y-124150000D02*
X47590000Y-124150000D01*
X49290000Y-124150000D02*
X49290000Y-121600000D01*
%TO.C,D35*%
X116400000Y-131900000D02*
X116400000Y-129350000D01*
X118100000Y-131900000D02*
X118100000Y-129350000D01*
X118100000Y-131900000D02*
X116400000Y-131900000D01*
%TO.C,D66*%
X120060000Y-108650000D02*
X118360000Y-108650000D01*
X118360000Y-108650000D02*
X118360000Y-106100000D01*
X120060000Y-108650000D02*
X120060000Y-106100000D01*
%TO.C,C16*%
X39935116Y-101790000D02*
X39719444Y-101790000D01*
X39935116Y-102510000D02*
X39719444Y-102510000D01*
%TO.C,D57*%
X105510000Y-116400000D02*
X103810000Y-116400000D01*
X103810000Y-116400000D02*
X103810000Y-113850000D01*
X105510000Y-116400000D02*
X105510000Y-113850000D01*
%TO.C,C6*%
X47217280Y-99592164D02*
X47217280Y-99807836D01*
X47937280Y-99592164D02*
X47937280Y-99807836D01*
%TO.C,C8*%
X39693719Y-100552164D02*
X39693719Y-100767836D01*
X38973719Y-100552164D02*
X38973719Y-100767836D01*
%TO.C,R4*%
X135153641Y-76120000D02*
X134846359Y-76120000D01*
X135153641Y-76880000D02*
X134846359Y-76880000D01*
%TO.C,D31*%
X69380000Y-131900000D02*
X67680000Y-131900000D01*
X69380000Y-131900000D02*
X69380000Y-129350000D01*
X67680000Y-131900000D02*
X67680000Y-129350000D01*
%TO.C,C4*%
X54407836Y-87440000D02*
X54192164Y-87440000D01*
X54407836Y-88160000D02*
X54192164Y-88160000D01*
%TO.C,C5*%
X121040582Y-95035000D02*
X120759422Y-95035000D01*
X121040582Y-94015000D02*
X120759422Y-94015000D01*
%TO.C,D6*%
X68010000Y-108650000D02*
X68010000Y-106100000D01*
X68010000Y-108650000D02*
X66310000Y-108650000D01*
X66310000Y-108650000D02*
X66310000Y-106100000D01*
%TO.C,D47*%
X78030000Y-124150000D02*
X76330000Y-124150000D01*
X78030000Y-124150000D02*
X78030000Y-121600000D01*
X76330000Y-124150000D02*
X76330000Y-121600000D01*
%TO.C,R12*%
X36720000Y-94446359D02*
X36720000Y-94753641D01*
X37480000Y-94446359D02*
X37480000Y-94753641D01*
%TO.C,D48*%
X89439999Y-124150000D02*
X87739999Y-124150000D01*
X89439999Y-124150000D02*
X89439999Y-121600000D01*
X87739999Y-124150000D02*
X87739999Y-121600000D01*
%TO.C,C19*%
X75660000Y-74707836D02*
X75660000Y-74492164D01*
X74940000Y-74707836D02*
X74940000Y-74492164D01*
%TD*%
M02*
