%TF.GenerationSoftware,KiCad,Pcbnew,(6.0.0)*%
%TF.CreationDate,2022-05-08T19:44:55+10:00*%
%TF.ProjectId,paxbadge2022,70617862-6164-4676-9532-3032322e6b69,rev?*%
%TF.SameCoordinates,Original*%
%TF.FileFunction,Legend,Top*%
%TF.FilePolarity,Positive*%
%FSLAX46Y46*%
G04 Gerber Fmt 4.6, Leading zero omitted, Abs format (unit mm)*
G04 Created by KiCad (PCBNEW (6.0.0)) date 2022-05-08 19:44:55*
%MOMM*%
%LPD*%
G01*
G04 APERTURE LIST*
%ADD10C,0.150000*%
%ADD11C,0.120000*%
%ADD12C,0.127000*%
G04 APERTURE END LIST*
D10*
X127952380Y-97038095D02*
X126952380Y-97038095D01*
X127666666Y-96704761D01*
X126952380Y-96371428D01*
X127952380Y-96371428D01*
X127952380Y-95895238D02*
X127285714Y-95895238D01*
X126952380Y-95895238D02*
X127000000Y-95942857D01*
X127047619Y-95895238D01*
X127000000Y-95847619D01*
X126952380Y-95895238D01*
X127047619Y-95895238D01*
X127904761Y-94990476D02*
X127952380Y-95085714D01*
X127952380Y-95276190D01*
X127904761Y-95371428D01*
X127857142Y-95419047D01*
X127761904Y-95466666D01*
X127476190Y-95466666D01*
X127380952Y-95419047D01*
X127333333Y-95371428D01*
X127285714Y-95276190D01*
X127285714Y-95085714D01*
X127333333Y-94990476D01*
X127952380Y-94561904D02*
X127285714Y-94561904D01*
X127476190Y-94561904D02*
X127380952Y-94514285D01*
X127333333Y-94466666D01*
X127285714Y-94371428D01*
X127285714Y-94276190D01*
X127952380Y-93800000D02*
X127904761Y-93895238D01*
X127857142Y-93942857D01*
X127761904Y-93990476D01*
X127476190Y-93990476D01*
X127380952Y-93942857D01*
X127333333Y-93895238D01*
X127285714Y-93800000D01*
X127285714Y-93657142D01*
X127333333Y-93561904D01*
X127380952Y-93514285D01*
X127476190Y-93466666D01*
X127761904Y-93466666D01*
X127857142Y-93514285D01*
X127904761Y-93561904D01*
X127952380Y-93657142D01*
X127952380Y-93800000D01*
X127904761Y-93085714D02*
X127952380Y-92942857D01*
X127952380Y-92704761D01*
X127904761Y-92609523D01*
X127857142Y-92561904D01*
X127761904Y-92514285D01*
X127666666Y-92514285D01*
X127571428Y-92561904D01*
X127523809Y-92609523D01*
X127476190Y-92704761D01*
X127428571Y-92895238D01*
X127380952Y-92990476D01*
X127333333Y-93038095D01*
X127238095Y-93085714D01*
X127142857Y-93085714D01*
X127047619Y-93038095D01*
X127000000Y-92990476D01*
X126952380Y-92895238D01*
X126952380Y-92657142D01*
X127000000Y-92514285D01*
X127952380Y-92085714D02*
X126952380Y-92085714D01*
X126952380Y-91847619D01*
X127000000Y-91704761D01*
X127095238Y-91609523D01*
X127190476Y-91561904D01*
X127380952Y-91514285D01*
X127523809Y-91514285D01*
X127714285Y-91561904D01*
X127809523Y-91609523D01*
X127904761Y-91704761D01*
X127952380Y-91847619D01*
X127952380Y-92085714D01*
X125114285Y-74047380D02*
X125114285Y-74761666D01*
X125066666Y-74904523D01*
X124971428Y-74999761D01*
X124828571Y-75047380D01*
X124733333Y-75047380D01*
X125780952Y-74047380D02*
X125971428Y-74047380D01*
X126066666Y-74095000D01*
X126161904Y-74190238D01*
X126209523Y-74380714D01*
X126209523Y-74714047D01*
X126161904Y-74904523D01*
X126066666Y-74999761D01*
X125971428Y-75047380D01*
X125780952Y-75047380D01*
X125685714Y-74999761D01*
X125590476Y-74904523D01*
X125542857Y-74714047D01*
X125542857Y-74380714D01*
X125590476Y-74190238D01*
X125685714Y-74095000D01*
X125780952Y-74047380D01*
X126828571Y-74571190D02*
X126828571Y-75047380D01*
X126495238Y-74047380D02*
X126828571Y-74571190D01*
X127161904Y-74047380D01*
X127447619Y-74142619D02*
X127495238Y-74095000D01*
X127590476Y-74047380D01*
X127828571Y-74047380D01*
X127923809Y-74095000D01*
X127971428Y-74142619D01*
X128019047Y-74237857D01*
X128019047Y-74333095D01*
X127971428Y-74475952D01*
X127400000Y-75047380D01*
X128019047Y-75047380D01*
X125566666Y-76133571D02*
X125233333Y-76133571D01*
X125233333Y-76657380D02*
X125233333Y-75657380D01*
X125709523Y-75657380D01*
X126090476Y-76657380D02*
X126090476Y-75990714D01*
X126090476Y-75657380D02*
X126042857Y-75705000D01*
X126090476Y-75752619D01*
X126138095Y-75705000D01*
X126090476Y-75657380D01*
X126090476Y-75752619D01*
X126566666Y-76657380D02*
X126566666Y-75990714D01*
X126566666Y-76181190D02*
X126614285Y-76085952D01*
X126661904Y-76038333D01*
X126757142Y-75990714D01*
X126852380Y-75990714D01*
X127566666Y-76609761D02*
X127471428Y-76657380D01*
X127280952Y-76657380D01*
X127185714Y-76609761D01*
X127138095Y-76514523D01*
X127138095Y-76133571D01*
X127185714Y-76038333D01*
X127280952Y-75990714D01*
X127471428Y-75990714D01*
X127566666Y-76038333D01*
X127614285Y-76133571D01*
X127614285Y-76228809D01*
X127138095Y-76324047D01*
X81547619Y-64342619D02*
X81595238Y-64295000D01*
X81690476Y-64247380D01*
X81928571Y-64247380D01*
X82023809Y-64295000D01*
X82071428Y-64342619D01*
X82119047Y-64437857D01*
X82119047Y-64533095D01*
X82071428Y-64675952D01*
X81500000Y-65247380D01*
X82119047Y-65247380D01*
X82547619Y-65152142D02*
X82595238Y-65199761D01*
X82547619Y-65247380D01*
X82500000Y-65199761D01*
X82547619Y-65152142D01*
X82547619Y-65247380D01*
X83452380Y-64580714D02*
X83452380Y-65247380D01*
X83214285Y-64199761D02*
X82976190Y-64914047D01*
X83595238Y-64914047D01*
X83928571Y-64247380D02*
X83928571Y-64437857D01*
X84309523Y-64247380D02*
X84309523Y-64437857D01*
X85357142Y-64247380D02*
X85928571Y-64247380D01*
X85642857Y-65247380D02*
X85642857Y-64247380D01*
X86595238Y-64723571D02*
X86261904Y-64723571D01*
X86261904Y-65247380D02*
X86261904Y-64247380D01*
X86738095Y-64247380D01*
X86976190Y-64247380D02*
X87547619Y-64247380D01*
X87261904Y-65247380D02*
X87261904Y-64247380D01*
X80904761Y-66857380D02*
X80428571Y-66857380D01*
X80428571Y-65857380D01*
X81809523Y-66762142D02*
X81761904Y-66809761D01*
X81619047Y-66857380D01*
X81523809Y-66857380D01*
X81380952Y-66809761D01*
X81285714Y-66714523D01*
X81238095Y-66619285D01*
X81190476Y-66428809D01*
X81190476Y-66285952D01*
X81238095Y-66095476D01*
X81285714Y-66000238D01*
X81380952Y-65905000D01*
X81523809Y-65857380D01*
X81619047Y-65857380D01*
X81761904Y-65905000D01*
X81809523Y-65952619D01*
X82238095Y-66857380D02*
X82238095Y-65857380D01*
X82476190Y-65857380D01*
X82619047Y-65905000D01*
X82714285Y-66000238D01*
X82761904Y-66095476D01*
X82809523Y-66285952D01*
X82809523Y-66428809D01*
X82761904Y-66619285D01*
X82714285Y-66714523D01*
X82619047Y-66809761D01*
X82476190Y-66857380D01*
X82238095Y-66857380D01*
X83952380Y-66809761D02*
X84095238Y-66857380D01*
X84333333Y-66857380D01*
X84428571Y-66809761D01*
X84476190Y-66762142D01*
X84523809Y-66666904D01*
X84523809Y-66571666D01*
X84476190Y-66476428D01*
X84428571Y-66428809D01*
X84333333Y-66381190D01*
X84142857Y-66333571D01*
X84047619Y-66285952D01*
X84000000Y-66238333D01*
X83952380Y-66143095D01*
X83952380Y-66047857D01*
X84000000Y-65952619D01*
X84047619Y-65905000D01*
X84142857Y-65857380D01*
X84380952Y-65857380D01*
X84523809Y-65905000D01*
X85380952Y-66809761D02*
X85285714Y-66857380D01*
X85095238Y-66857380D01*
X85000000Y-66809761D01*
X84952380Y-66762142D01*
X84904761Y-66666904D01*
X84904761Y-66381190D01*
X84952380Y-66285952D01*
X85000000Y-66238333D01*
X85095238Y-66190714D01*
X85285714Y-66190714D01*
X85380952Y-66238333D01*
X85809523Y-66857380D02*
X85809523Y-66190714D01*
X85809523Y-66381190D02*
X85857142Y-66285952D01*
X85904761Y-66238333D01*
X86000000Y-66190714D01*
X86095238Y-66190714D01*
X86809523Y-66809761D02*
X86714285Y-66857380D01*
X86523809Y-66857380D01*
X86428571Y-66809761D01*
X86380952Y-66714523D01*
X86380952Y-66333571D01*
X86428571Y-66238333D01*
X86523809Y-66190714D01*
X86714285Y-66190714D01*
X86809523Y-66238333D01*
X86857142Y-66333571D01*
X86857142Y-66428809D01*
X86380952Y-66524047D01*
X87666666Y-66809761D02*
X87571428Y-66857380D01*
X87380952Y-66857380D01*
X87285714Y-66809761D01*
X87238095Y-66714523D01*
X87238095Y-66333571D01*
X87285714Y-66238333D01*
X87380952Y-66190714D01*
X87571428Y-66190714D01*
X87666666Y-66238333D01*
X87714285Y-66333571D01*
X87714285Y-66428809D01*
X87238095Y-66524047D01*
X88142857Y-66190714D02*
X88142857Y-66857380D01*
X88142857Y-66285952D02*
X88190476Y-66238333D01*
X88285714Y-66190714D01*
X88428571Y-66190714D01*
X88523809Y-66238333D01*
X88571428Y-66333571D01*
X88571428Y-66857380D01*
X44114285Y-88747380D02*
X44114285Y-89461666D01*
X44066666Y-89604523D01*
X43971428Y-89699761D01*
X43828571Y-89747380D01*
X43733333Y-89747380D01*
X44780952Y-88747380D02*
X44971428Y-88747380D01*
X45066666Y-88795000D01*
X45161904Y-88890238D01*
X45209523Y-89080714D01*
X45209523Y-89414047D01*
X45161904Y-89604523D01*
X45066666Y-89699761D01*
X44971428Y-89747380D01*
X44780952Y-89747380D01*
X44685714Y-89699761D01*
X44590476Y-89604523D01*
X44542857Y-89414047D01*
X44542857Y-89080714D01*
X44590476Y-88890238D01*
X44685714Y-88795000D01*
X44780952Y-88747380D01*
X45828571Y-89271190D02*
X45828571Y-89747380D01*
X45495238Y-88747380D02*
X45828571Y-89271190D01*
X46161904Y-88747380D01*
X46447619Y-88842619D02*
X46495238Y-88795000D01*
X46590476Y-88747380D01*
X46828571Y-88747380D01*
X46923809Y-88795000D01*
X46971428Y-88842619D01*
X47019047Y-88937857D01*
X47019047Y-89033095D01*
X46971428Y-89175952D01*
X46400000Y-89747380D01*
X47019047Y-89747380D01*
X41185714Y-91357380D02*
X41185714Y-90357380D01*
X41423809Y-90357380D01*
X41566666Y-90405000D01*
X41661904Y-90500238D01*
X41709523Y-90595476D01*
X41757142Y-90785952D01*
X41757142Y-90928809D01*
X41709523Y-91119285D01*
X41661904Y-91214523D01*
X41566666Y-91309761D01*
X41423809Y-91357380D01*
X41185714Y-91357380D01*
X42185714Y-91357380D02*
X42185714Y-90690714D01*
X42185714Y-90357380D02*
X42138095Y-90405000D01*
X42185714Y-90452619D01*
X42233333Y-90405000D01*
X42185714Y-90357380D01*
X42185714Y-90452619D01*
X42661904Y-91357380D02*
X42661904Y-90690714D01*
X42661904Y-90881190D02*
X42709523Y-90785952D01*
X42757142Y-90738333D01*
X42852380Y-90690714D01*
X42947619Y-90690714D01*
X43661904Y-91309761D02*
X43566666Y-91357380D01*
X43376190Y-91357380D01*
X43280952Y-91309761D01*
X43233333Y-91214523D01*
X43233333Y-90833571D01*
X43280952Y-90738333D01*
X43376190Y-90690714D01*
X43566666Y-90690714D01*
X43661904Y-90738333D01*
X43709523Y-90833571D01*
X43709523Y-90928809D01*
X43233333Y-91024047D01*
X44566666Y-91309761D02*
X44471428Y-91357380D01*
X44280952Y-91357380D01*
X44185714Y-91309761D01*
X44138095Y-91262142D01*
X44090476Y-91166904D01*
X44090476Y-90881190D01*
X44138095Y-90785952D01*
X44185714Y-90738333D01*
X44280952Y-90690714D01*
X44471428Y-90690714D01*
X44566666Y-90738333D01*
X44852380Y-90690714D02*
X45233333Y-90690714D01*
X44995238Y-90357380D02*
X44995238Y-91214523D01*
X45042857Y-91309761D01*
X45138095Y-91357380D01*
X45233333Y-91357380D01*
X45566666Y-91357380D02*
X45566666Y-90690714D01*
X45566666Y-90357380D02*
X45519047Y-90405000D01*
X45566666Y-90452619D01*
X45614285Y-90405000D01*
X45566666Y-90357380D01*
X45566666Y-90452619D01*
X46185714Y-91357380D02*
X46090476Y-91309761D01*
X46042857Y-91262142D01*
X45995238Y-91166904D01*
X45995238Y-90881190D01*
X46042857Y-90785952D01*
X46090476Y-90738333D01*
X46185714Y-90690714D01*
X46328571Y-90690714D01*
X46423809Y-90738333D01*
X46471428Y-90785952D01*
X46519047Y-90881190D01*
X46519047Y-91166904D01*
X46471428Y-91262142D01*
X46423809Y-91309761D01*
X46328571Y-91357380D01*
X46185714Y-91357380D01*
X46947619Y-90690714D02*
X46947619Y-91357380D01*
X46947619Y-90785952D02*
X46995238Y-90738333D01*
X47090476Y-90690714D01*
X47233333Y-90690714D01*
X47328571Y-90738333D01*
X47376190Y-90833571D01*
X47376190Y-91357380D01*
X48280952Y-91357380D02*
X48280952Y-90833571D01*
X48233333Y-90738333D01*
X48138095Y-90690714D01*
X47947619Y-90690714D01*
X47852380Y-90738333D01*
X48280952Y-91309761D02*
X48185714Y-91357380D01*
X47947619Y-91357380D01*
X47852380Y-91309761D01*
X47804761Y-91214523D01*
X47804761Y-91119285D01*
X47852380Y-91024047D01*
X47947619Y-90976428D01*
X48185714Y-90976428D01*
X48280952Y-90928809D01*
X48900000Y-91357380D02*
X48804761Y-91309761D01*
X48757142Y-91214523D01*
X48757142Y-90357380D01*
X49233333Y-91309761D02*
X49328571Y-91357380D01*
X49519047Y-91357380D01*
X49614285Y-91309761D01*
X49661904Y-91214523D01*
X49661904Y-91166904D01*
X49614285Y-91071666D01*
X49519047Y-91024047D01*
X49376190Y-91024047D01*
X49280952Y-90976428D01*
X49233333Y-90881190D01*
X49233333Y-90833571D01*
X49280952Y-90738333D01*
X49376190Y-90690714D01*
X49519047Y-90690714D01*
X49614285Y-90738333D01*
X133885714Y-72357142D02*
X133838095Y-72404761D01*
X133695238Y-72452380D01*
X133600000Y-72452380D01*
X133457142Y-72404761D01*
X133361904Y-72309523D01*
X133314285Y-72214285D01*
X133266666Y-72023809D01*
X133266666Y-71880952D01*
X133314285Y-71690476D01*
X133361904Y-71595238D01*
X133457142Y-71500000D01*
X133600000Y-71452380D01*
X133695238Y-71452380D01*
X133838095Y-71500000D01*
X133885714Y-71547619D01*
X134314285Y-72452380D02*
X134314285Y-71452380D01*
X134314285Y-71928571D02*
X134885714Y-71928571D01*
X134885714Y-72452380D02*
X134885714Y-71452380D01*
X135885714Y-71500000D02*
X135790476Y-71452380D01*
X135647619Y-71452380D01*
X135504761Y-71500000D01*
X135409523Y-71595238D01*
X135361904Y-71690476D01*
X135314285Y-71880952D01*
X135314285Y-72023809D01*
X135361904Y-72214285D01*
X135409523Y-72309523D01*
X135504761Y-72404761D01*
X135647619Y-72452380D01*
X135742857Y-72452380D01*
X135885714Y-72404761D01*
X135933333Y-72357142D01*
X135933333Y-72023809D01*
X135742857Y-72023809D01*
X81147619Y-135947380D02*
X80957142Y-135947380D01*
X80861904Y-135995000D01*
X80814285Y-136042619D01*
X80719047Y-136185476D01*
X80671428Y-136375952D01*
X80671428Y-136756904D01*
X80719047Y-136852142D01*
X80766666Y-136899761D01*
X80861904Y-136947380D01*
X81052380Y-136947380D01*
X81147619Y-136899761D01*
X81195238Y-136852142D01*
X81242857Y-136756904D01*
X81242857Y-136518809D01*
X81195238Y-136423571D01*
X81147619Y-136375952D01*
X81052380Y-136328333D01*
X80861904Y-136328333D01*
X80766666Y-136375952D01*
X80719047Y-136423571D01*
X80671428Y-136518809D01*
X82100000Y-136280714D02*
X82100000Y-136947380D01*
X81861904Y-135899761D02*
X81623809Y-136614047D01*
X82242857Y-136614047D01*
X82623809Y-136566428D02*
X83385714Y-136566428D01*
X83861904Y-136947380D02*
X83861904Y-135947380D01*
X83957142Y-136566428D02*
X84242857Y-136947380D01*
X84242857Y-136280714D02*
X83861904Y-136661666D01*
X85052380Y-136899761D02*
X84957142Y-136947380D01*
X84766666Y-136947380D01*
X84671428Y-136899761D01*
X84623809Y-136804523D01*
X84623809Y-136423571D01*
X84671428Y-136328333D01*
X84766666Y-136280714D01*
X84957142Y-136280714D01*
X85052380Y-136328333D01*
X85100000Y-136423571D01*
X85100000Y-136518809D01*
X84623809Y-136614047D01*
X85433333Y-136280714D02*
X85671428Y-136947380D01*
X85909523Y-136280714D02*
X85671428Y-136947380D01*
X85576190Y-137185476D01*
X85528571Y-137233095D01*
X85433333Y-137280714D01*
X87623809Y-136852142D02*
X87576190Y-136899761D01*
X87433333Y-136947380D01*
X87338095Y-136947380D01*
X87195238Y-136899761D01*
X87100000Y-136804523D01*
X87052380Y-136709285D01*
X87004761Y-136518809D01*
X87004761Y-136375952D01*
X87052380Y-136185476D01*
X87100000Y-136090238D01*
X87195238Y-135995000D01*
X87338095Y-135947380D01*
X87433333Y-135947380D01*
X87576190Y-135995000D01*
X87623809Y-136042619D01*
X88480952Y-135947380D02*
X88290476Y-135947380D01*
X88195238Y-135995000D01*
X88147619Y-136042619D01*
X88052380Y-136185476D01*
X88004761Y-136375952D01*
X88004761Y-136756904D01*
X88052380Y-136852142D01*
X88100000Y-136899761D01*
X88195238Y-136947380D01*
X88385714Y-136947380D01*
X88480952Y-136899761D01*
X88528571Y-136852142D01*
X88576190Y-136756904D01*
X88576190Y-136518809D01*
X88528571Y-136423571D01*
X88480952Y-136375952D01*
X88385714Y-136328333D01*
X88195238Y-136328333D01*
X88100000Y-136375952D01*
X88052380Y-136423571D01*
X88004761Y-136518809D01*
X89433333Y-136280714D02*
X89433333Y-136947380D01*
X89195238Y-135899761D02*
X88957142Y-136614047D01*
X89576190Y-136614047D01*
X81909523Y-138557380D02*
X81909523Y-137557380D01*
X82480952Y-138557380D02*
X82052380Y-137985952D01*
X82480952Y-137557380D02*
X81909523Y-138128809D01*
X83290476Y-138509761D02*
X83195238Y-138557380D01*
X83004761Y-138557380D01*
X82909523Y-138509761D01*
X82861904Y-138414523D01*
X82861904Y-138033571D01*
X82909523Y-137938333D01*
X83004761Y-137890714D01*
X83195238Y-137890714D01*
X83290476Y-137938333D01*
X83338095Y-138033571D01*
X83338095Y-138128809D01*
X82861904Y-138224047D01*
X83671428Y-137890714D02*
X83909523Y-138557380D01*
X84147619Y-137890714D02*
X83909523Y-138557380D01*
X83814285Y-138795476D01*
X83766666Y-138843095D01*
X83671428Y-138890714D01*
X84528571Y-138557380D02*
X84528571Y-137557380D01*
X84528571Y-137938333D02*
X84623809Y-137890714D01*
X84814285Y-137890714D01*
X84909523Y-137938333D01*
X84957142Y-137985952D01*
X85004761Y-138081190D01*
X85004761Y-138366904D01*
X84957142Y-138462142D01*
X84909523Y-138509761D01*
X84814285Y-138557380D01*
X84623809Y-138557380D01*
X84528571Y-138509761D01*
X85576190Y-138557380D02*
X85480952Y-138509761D01*
X85433333Y-138462142D01*
X85385714Y-138366904D01*
X85385714Y-138081190D01*
X85433333Y-137985952D01*
X85480952Y-137938333D01*
X85576190Y-137890714D01*
X85719047Y-137890714D01*
X85814285Y-137938333D01*
X85861904Y-137985952D01*
X85909523Y-138081190D01*
X85909523Y-138366904D01*
X85861904Y-138462142D01*
X85814285Y-138509761D01*
X85719047Y-138557380D01*
X85576190Y-138557380D01*
X86766666Y-138557380D02*
X86766666Y-138033571D01*
X86719047Y-137938333D01*
X86623809Y-137890714D01*
X86433333Y-137890714D01*
X86338095Y-137938333D01*
X86766666Y-138509761D02*
X86671428Y-138557380D01*
X86433333Y-138557380D01*
X86338095Y-138509761D01*
X86290476Y-138414523D01*
X86290476Y-138319285D01*
X86338095Y-138224047D01*
X86433333Y-138176428D01*
X86671428Y-138176428D01*
X86766666Y-138128809D01*
X87242857Y-138557380D02*
X87242857Y-137890714D01*
X87242857Y-138081190D02*
X87290476Y-137985952D01*
X87338095Y-137938333D01*
X87433333Y-137890714D01*
X87528571Y-137890714D01*
X88290476Y-138557380D02*
X88290476Y-137557380D01*
X88290476Y-138509761D02*
X88195238Y-138557380D01*
X88004761Y-138557380D01*
X87909523Y-138509761D01*
X87861904Y-138462142D01*
X87814285Y-138366904D01*
X87814285Y-138081190D01*
X87861904Y-137985952D01*
X87909523Y-137938333D01*
X88004761Y-137890714D01*
X88195238Y-137890714D01*
X88290476Y-137938333D01*
X52387663Y-60754298D02*
X52320320Y-60754298D01*
X52185633Y-60686954D01*
X52118289Y-60619611D01*
X52050946Y-60484924D01*
X52050946Y-60350237D01*
X52084618Y-60249221D01*
X52185633Y-60080863D01*
X52286648Y-59979847D01*
X52455007Y-59878832D01*
X52556022Y-59845160D01*
X52690709Y-59845160D01*
X52825396Y-59912504D01*
X52892740Y-59979847D01*
X52960083Y-60114534D01*
X52960083Y-60181878D01*
X52623366Y-61124687D02*
X53094770Y-60653282D01*
X52960083Y-60787969D02*
X53061098Y-60754298D01*
X53128442Y-60754298D01*
X53229457Y-60787969D01*
X53296801Y-60855313D01*
X53364144Y-61865466D02*
X53734533Y-61495076D01*
X53768205Y-61394061D01*
X53734533Y-61293046D01*
X53599846Y-61158359D01*
X53498831Y-61124687D01*
X53397816Y-61831794D02*
X53296801Y-61798122D01*
X53128442Y-61629763D01*
X53094770Y-61528748D01*
X53128442Y-61427733D01*
X53195785Y-61360389D01*
X53296801Y-61326717D01*
X53397816Y-61360389D01*
X53566175Y-61528748D01*
X53667190Y-61562420D01*
X54172266Y-61730779D02*
X53465159Y-62437885D01*
X54138595Y-61764450D02*
X54239610Y-61798122D01*
X54374297Y-61932809D01*
X54407969Y-62033824D01*
X54407969Y-62101168D01*
X54374297Y-62202183D01*
X54172266Y-62404214D01*
X54071251Y-62437885D01*
X54003908Y-62437885D01*
X53902892Y-62404214D01*
X53768205Y-62269527D01*
X53734533Y-62168511D01*
X54812030Y-62370542D02*
X54104923Y-63077649D01*
X54778358Y-62404214D02*
X54879373Y-62437885D01*
X55014060Y-62572572D01*
X55047732Y-62673588D01*
X55047732Y-62740931D01*
X55014060Y-62841946D01*
X54812030Y-63043977D01*
X54711014Y-63077649D01*
X54643671Y-63077649D01*
X54542656Y-63043977D01*
X54407969Y-62909290D01*
X54374297Y-62808275D01*
X55384449Y-62942962D02*
X55081404Y-63582725D01*
X55721167Y-63279679D02*
X55081404Y-63582725D01*
X54845701Y-63683740D01*
X54778358Y-63683740D01*
X54677343Y-63650068D01*
X50491607Y-61202469D02*
X50558951Y-61337156D01*
X50727309Y-61505515D01*
X50828325Y-61539186D01*
X50895668Y-61539186D01*
X50996683Y-61505515D01*
X51064027Y-61438171D01*
X51097699Y-61337156D01*
X51097699Y-61269812D01*
X51064027Y-61168797D01*
X50963012Y-61000438D01*
X50929340Y-60899423D01*
X50929340Y-60832080D01*
X50963012Y-60731064D01*
X51030355Y-60663721D01*
X51131370Y-60630049D01*
X51198714Y-60630049D01*
X51299729Y-60663721D01*
X51468088Y-60832080D01*
X51535431Y-60966767D01*
X51636447Y-61471843D02*
X50929340Y-62178950D01*
X51602775Y-61505515D02*
X51703790Y-61539186D01*
X51838477Y-61673873D01*
X51872149Y-61774889D01*
X51872149Y-61842232D01*
X51838477Y-61943247D01*
X51636447Y-62145278D01*
X51535431Y-62178950D01*
X51468088Y-62178950D01*
X51367073Y-62145278D01*
X51232386Y-62010591D01*
X51198714Y-61909576D01*
X52107851Y-62818713D02*
X52006836Y-62785041D01*
X51872149Y-62650354D01*
X51838477Y-62549339D01*
X51872149Y-62448324D01*
X52141523Y-62178950D01*
X52242538Y-62145278D01*
X52343553Y-62178950D01*
X52478240Y-62313637D01*
X52511912Y-62414652D01*
X52478240Y-62515667D01*
X52410897Y-62583011D01*
X52006836Y-62313637D01*
X52713943Y-63492148D02*
X53084332Y-63121759D01*
X53118004Y-63020743D01*
X53084332Y-62919728D01*
X52949645Y-62785041D01*
X52848630Y-62751369D01*
X52747614Y-63458476D02*
X52646599Y-63424804D01*
X52478240Y-63256446D01*
X52444569Y-63155430D01*
X52478240Y-63054415D01*
X52545584Y-62987072D01*
X52646599Y-62953400D01*
X52747614Y-62987072D01*
X52915973Y-63155430D01*
X53016988Y-63189102D01*
X53050660Y-63828865D02*
X53757767Y-63121759D01*
X53387378Y-63626835D02*
X53320034Y-64098239D01*
X53791439Y-63626835D02*
X53252691Y-63626835D01*
X53926126Y-64636987D02*
X53825110Y-64603316D01*
X53690423Y-64468629D01*
X53656752Y-64367613D01*
X53690423Y-64266598D01*
X53959797Y-63997224D01*
X54060813Y-63963552D01*
X54161828Y-63997224D01*
X54296515Y-64131911D01*
X54330187Y-64232926D01*
X54296515Y-64333942D01*
X54229171Y-64401285D01*
X53825110Y-64131911D01*
X54229171Y-65007377D02*
X54700576Y-64535972D01*
X54565889Y-64670659D02*
X54666904Y-64636987D01*
X54734248Y-64636987D01*
X54835263Y-64670659D01*
X54902606Y-64738003D01*
X122666666Y-62152380D02*
X122666666Y-61152380D01*
X123047619Y-61152380D01*
X123142857Y-61200000D01*
X123190476Y-61247619D01*
X123238095Y-61342857D01*
X123238095Y-61485714D01*
X123190476Y-61580952D01*
X123142857Y-61628571D01*
X123047619Y-61676190D01*
X122666666Y-61676190D01*
X123571428Y-61152380D02*
X123809523Y-62152380D01*
X124000000Y-61438095D01*
X124190476Y-62152380D01*
X124428571Y-61152380D01*
X125380952Y-62152380D02*
X125047619Y-61676190D01*
X124809523Y-62152380D02*
X124809523Y-61152380D01*
X125190476Y-61152380D01*
X125285714Y-61200000D01*
X125333333Y-61247619D01*
X125380952Y-61342857D01*
X125380952Y-61485714D01*
X125333333Y-61580952D01*
X125285714Y-61628571D01*
X125190476Y-61676190D01*
X124809523Y-61676190D01*
%TO.C,J5*%
X76174569Y-82408342D02*
X76888855Y-82408342D01*
X77031712Y-82455961D01*
X77126950Y-82551199D01*
X77174569Y-82694056D01*
X77174569Y-82789294D01*
X76174569Y-81455961D02*
X76174569Y-81932151D01*
X76650760Y-81979770D01*
X76603141Y-81932151D01*
X76555522Y-81836913D01*
X76555522Y-81598818D01*
X76603141Y-81503580D01*
X76650760Y-81455961D01*
X76745998Y-81408342D01*
X76984093Y-81408342D01*
X77079331Y-81455961D01*
X77126950Y-81503580D01*
X77174569Y-81598818D01*
X77174569Y-81836913D01*
X77126950Y-81932151D01*
X77079331Y-81979770D01*
D11*
%TO.C,D2*%
X133070000Y-75880000D02*
X133070000Y-76036000D01*
X133070000Y-73564000D02*
X133070000Y-73720000D01*
X133589039Y-75880000D02*
G75*
G03*
X135671130Y-75879837I1040961J1080000D01*
G01*
X135671130Y-73720163D02*
G75*
G03*
X133589039Y-73720000I-1041130J-1079837D01*
G01*
X133070000Y-76035516D02*
G75*
G03*
X136302335Y-75878608I1560000J1235516D01*
G01*
X136302335Y-73721392D02*
G75*
G03*
X133070000Y-73564484I-1672335J-1078608D01*
G01*
D12*
%TO.C,SW61*%
X95300000Y-104650000D02*
X96860000Y-104650000D01*
X93580000Y-108680000D02*
X93580000Y-105620000D01*
X98580000Y-108680000D02*
X98580000Y-105620000D01*
X95300000Y-109650000D02*
X96860000Y-109650000D01*
%TO.C,SW15*%
X107940000Y-116430000D02*
X107940000Y-113370000D01*
X109660000Y-112400000D02*
X111220000Y-112400000D01*
X109660000Y-117400000D02*
X111220000Y-117400000D01*
X112940000Y-116430000D02*
X112940000Y-113370000D01*
%TO.C,SW62*%
X110150001Y-108680000D02*
X110150001Y-105620000D01*
X106870001Y-104650000D02*
X108430001Y-104650000D01*
X105150001Y-108680000D02*
X105150001Y-105620000D01*
X106870001Y-109650000D02*
X108430001Y-109650000D01*
%TO.C,SW67*%
X46793504Y-86536426D02*
X47896590Y-85433340D01*
X44891386Y-87066756D02*
X42727640Y-84903010D01*
X43257970Y-83000892D02*
X44361056Y-81897806D01*
X48426920Y-83531222D02*
X46263174Y-81367476D01*
%TO.C,SW10*%
X51560000Y-117400000D02*
X53120000Y-117400000D01*
X54840000Y-116430000D02*
X54840000Y-113370000D01*
X49840000Y-116430000D02*
X49840000Y-113370000D01*
X51560000Y-112400000D02*
X53120000Y-112400000D01*
%TO.C,SW2*%
X53100000Y-108680000D02*
X53100000Y-105620000D01*
X54820000Y-109650000D02*
X56380000Y-109650000D01*
X54820000Y-104650000D02*
X56380000Y-104650000D01*
X58100000Y-108680000D02*
X58100000Y-105620000D01*
%TO.C,SW37*%
X88280000Y-131930000D02*
X88280000Y-128870000D01*
X85000000Y-127900000D02*
X86560000Y-127900000D01*
X85000000Y-132900000D02*
X86560000Y-132900000D01*
X83280000Y-131930000D02*
X83280000Y-128870000D01*
%TO.C,SW23*%
X103270000Y-124180000D02*
X103270000Y-121120000D01*
X108270000Y-124180000D02*
X108270000Y-121120000D01*
X104990000Y-125150000D02*
X106550000Y-125150000D01*
X104990000Y-120150000D02*
X106550000Y-120150000D01*
%TO.C,SW54*%
X102160000Y-116430000D02*
X102160000Y-113370000D01*
X103880000Y-117400000D02*
X105440000Y-117400000D01*
X107160000Y-116430000D02*
X107160000Y-113370000D01*
X103880000Y-112400000D02*
X105440000Y-112400000D01*
D11*
%TO.C,LS1*%
X46544365Y-61200253D02*
X48100000Y-59644618D01*
X48100000Y-72655382D02*
X41594618Y-66150000D01*
X48100000Y-72655382D02*
X49655635Y-71099747D01*
X48100000Y-59644618D02*
X54605382Y-66150000D01*
X41594618Y-66150000D02*
X43150253Y-64594365D01*
X53049747Y-67705635D02*
X54605382Y-66150000D01*
X49655635Y-71099747D02*
X49938478Y-71382590D01*
D12*
%TO.C,SW26*%
X42250001Y-131930000D02*
X42250001Y-128870000D01*
X47250001Y-131930000D02*
X47250001Y-128870000D01*
X43970001Y-132900000D02*
X45530001Y-132900000D01*
X43970001Y-127900000D02*
X45530001Y-127900000D01*
%TO.C,SW48*%
X133470000Y-117399999D02*
X135030000Y-117399999D01*
X136750000Y-116429999D02*
X136750000Y-113369999D01*
X133470000Y-112399999D02*
X135030000Y-112399999D01*
X131750000Y-116429999D02*
X131750000Y-113369999D01*
%TO.C,SW27*%
X59469999Y-131930000D02*
X59469999Y-128870000D01*
X56189999Y-132900000D02*
X57749999Y-132900000D01*
X56189999Y-127900000D02*
X57749999Y-127900000D01*
X54469999Y-131930000D02*
X54469999Y-128870000D01*
%TO.C,SW65*%
X122770001Y-117400000D02*
X124330001Y-117400000D01*
X122770001Y-112400000D02*
X124330001Y-112400000D01*
X126050001Y-116430000D02*
X126050001Y-113370000D01*
X121050001Y-116430000D02*
X121050001Y-113370000D01*
%TO.C,SW44*%
X74680000Y-124180000D02*
X74680000Y-121120000D01*
X76400000Y-125150000D02*
X77960000Y-125150000D01*
X76400000Y-120150000D02*
X77960000Y-120150000D01*
X79680000Y-124180000D02*
X79680000Y-121120000D01*
%TO.C,SW63*%
X118430000Y-104650000D02*
X119990000Y-104650000D01*
X118430000Y-109650000D02*
X119990000Y-109650000D01*
X121710000Y-108680000D02*
X121710000Y-105620000D01*
X116710000Y-108680000D02*
X116710000Y-105620000D01*
%TO.C,SW69*%
X48267902Y-80466224D02*
X49370988Y-81569310D01*
X51273106Y-82099640D02*
X53436852Y-79935894D01*
X47737572Y-78564106D02*
X49901318Y-76400360D01*
X51803436Y-76930690D02*
X52906522Y-78033776D01*
D11*
%TO.C,J1*%
X37170000Y-71505000D02*
X37170000Y-68905000D01*
X39830000Y-72775000D02*
X39830000Y-74105000D01*
X39830000Y-68905000D02*
X37170000Y-68905000D01*
X39830000Y-74105000D02*
X38500000Y-74105000D01*
X39830000Y-71505000D02*
X37170000Y-71505000D01*
X39830000Y-71505000D02*
X39830000Y-68905000D01*
D12*
%TO.C,SW3*%
X66380000Y-104650000D02*
X67940000Y-104650000D01*
X64660000Y-108680000D02*
X64660000Y-105620000D01*
X69660000Y-108680000D02*
X69660000Y-105620000D01*
X66380000Y-109650000D02*
X67940000Y-109650000D01*
%TO.C,SW52*%
X83840000Y-116430000D02*
X83840000Y-113370000D01*
X80560000Y-117400000D02*
X82120000Y-117400000D01*
X78840000Y-116430000D02*
X78840000Y-113370000D01*
X80560000Y-112400000D02*
X82120000Y-112400000D01*
%TO.C,SW53*%
X92220000Y-112400000D02*
X93780000Y-112400000D01*
X92220000Y-117400000D02*
X93780000Y-117400000D01*
X95500000Y-116430000D02*
X95500000Y-113370000D01*
X90500000Y-116430000D02*
X90500000Y-113370000D01*
%TO.C,SW5*%
X89520000Y-104650000D02*
X91080000Y-104650000D01*
X92800000Y-108680000D02*
X92800000Y-105620000D01*
X87800000Y-108680000D02*
X87800000Y-105620000D01*
X89520000Y-109650000D02*
X91080000Y-109650000D01*
%TO.C,SW51*%
X67280000Y-116430000D02*
X67280000Y-113370000D01*
X69000000Y-112400000D02*
X70560000Y-112400000D01*
X72280000Y-116430000D02*
X72280000Y-113370000D01*
X69000000Y-117400000D02*
X70560000Y-117400000D01*
%TO.C,SW58*%
X60600000Y-104650000D02*
X62160000Y-104650000D01*
X58880000Y-108680000D02*
X58880000Y-105620000D01*
X63880000Y-108680000D02*
X63880000Y-105620000D01*
X60600000Y-109650000D02*
X62160000Y-109650000D01*
%TO.C,SW25*%
X35750000Y-124180000D02*
X35750000Y-121120000D01*
X40750000Y-124180000D02*
X40750000Y-121120000D01*
X37470000Y-125150000D02*
X39030000Y-125150000D01*
X37470000Y-120150000D02*
X39030000Y-120150000D01*
%TO.C,SW47*%
X109050000Y-124180000D02*
X109050000Y-121120000D01*
X114050000Y-124180000D02*
X114050000Y-121120000D01*
X110770000Y-120150000D02*
X112330000Y-120150000D01*
X110770000Y-125150000D02*
X112330000Y-125150000D01*
%TO.C,SW49*%
X43999999Y-116430000D02*
X43999999Y-113370000D01*
X45719999Y-112400000D02*
X47279999Y-112400000D01*
X45719999Y-117400000D02*
X47279999Y-117400000D01*
X48999999Y-116430000D02*
X48999999Y-113370000D01*
%TO.C,SW55*%
X118720000Y-116430000D02*
X118720000Y-113370000D01*
X113720000Y-116430000D02*
X113720000Y-113370000D01*
X115440000Y-112400000D02*
X117000000Y-112400000D01*
X115440000Y-117400000D02*
X117000000Y-117400000D01*
%TO.C,SW12*%
X78060000Y-116429999D02*
X78060000Y-113369999D01*
X74780000Y-112399999D02*
X76340000Y-112399999D01*
X73060000Y-116429999D02*
X73060000Y-113369999D01*
X74780000Y-117399999D02*
X76340000Y-117399999D01*
%TO.C,SW46*%
X99210000Y-120150000D02*
X100770000Y-120150000D01*
X97490000Y-124180000D02*
X97490000Y-121120000D01*
X102490000Y-124180000D02*
X102490000Y-121120000D01*
X99210000Y-125150000D02*
X100770000Y-125150000D01*
D11*
%TO.C,J5*%
X83391863Y-70475009D02*
X83391863Y-93775009D01*
X77591863Y-71965009D02*
X77591863Y-70475009D01*
X77591863Y-70475009D02*
X78931863Y-70475009D01*
X77591863Y-71965009D02*
X76391863Y-71965009D01*
X77591863Y-92285009D02*
X77591863Y-93775009D01*
X81651863Y-70475009D02*
X83391863Y-70475009D01*
X77591863Y-93775009D02*
X78931863Y-93775009D01*
X83391863Y-93775009D02*
X81651863Y-93775009D01*
X116351800Y-103500009D02*
X56101800Y-103500009D01*
X56101800Y-103500009D02*
X56101800Y-60750009D01*
X56101800Y-60750009D02*
X116351800Y-60750009D01*
X116351800Y-60750009D02*
X116351800Y-103500009D01*
D12*
%TO.C,SW39*%
X109220000Y-132900000D02*
X110780000Y-132900000D01*
X109220000Y-127900000D02*
X110780000Y-127900000D01*
X112500000Y-131930000D02*
X112500000Y-128870000D01*
X107500000Y-131930000D02*
X107500000Y-128870000D01*
%TO.C,SW70*%
X124820000Y-76800000D02*
X126380000Y-76800000D01*
X123100000Y-80830000D02*
X123100000Y-77770000D01*
X124820000Y-81800000D02*
X126380000Y-81800000D01*
X128100000Y-80830000D02*
X128100000Y-77770000D01*
%TO.C,SW13*%
X84645001Y-116430000D02*
X84645001Y-113370000D01*
X89645001Y-116430000D02*
X89645001Y-113370000D01*
X86365001Y-117400000D02*
X87925001Y-117400000D01*
X86365001Y-112400000D02*
X87925001Y-112400000D01*
D10*
%TO.C,J6*%
X121999998Y-86800000D02*
X129199998Y-86800000D01*
X121899998Y-92100000D02*
X121899998Y-91800000D01*
X129199998Y-101500000D02*
X121999998Y-101500000D01*
X120999998Y-91350000D02*
X120999998Y-88350000D01*
X134999998Y-86800000D02*
X131999998Y-86800000D01*
X121899998Y-91800000D02*
X121599998Y-91800000D01*
X134699998Y-90550000D02*
X134999998Y-89500000D01*
X120999998Y-91350000D02*
X119699998Y-91350000D01*
X134349998Y-92800000D02*
X134499998Y-91650000D01*
X134999998Y-89500000D02*
X134999998Y-86800000D01*
X121599998Y-92100000D02*
X121899998Y-92100000D01*
X134299998Y-94150000D02*
X134349998Y-92800000D01*
X121599998Y-91800000D02*
X121599998Y-92100000D01*
X134299998Y-101500000D02*
X134299998Y-94150000D01*
X131999998Y-101500000D02*
X134299998Y-101500000D01*
X134499998Y-91650000D02*
X134699998Y-90550000D01*
D12*
%TO.C,SW6*%
X104360000Y-108680000D02*
X104360000Y-105620000D01*
X101080000Y-104650000D02*
X102640000Y-104650000D01*
X99360000Y-108680000D02*
X99360000Y-105620000D01*
X101080000Y-109650000D02*
X102640000Y-109650000D01*
%TO.C,SW16*%
X118000000Y-124180000D02*
X118000000Y-121120000D01*
X119720000Y-120150000D02*
X121280000Y-120150000D01*
X119720000Y-125150000D02*
X121280000Y-125150000D01*
X123000000Y-124180000D02*
X123000000Y-121120000D01*
%TO.C,SW60*%
X87010000Y-108680000D02*
X87010000Y-105620000D01*
X83730000Y-104650000D02*
X85290000Y-104650000D01*
X82010000Y-108680000D02*
X82010000Y-105620000D01*
X83730000Y-109650000D02*
X85290000Y-109650000D01*
%TO.C,SW28*%
X66030000Y-131930000D02*
X66030000Y-128870000D01*
X71030000Y-131930000D02*
X71030000Y-128870000D01*
X67750000Y-127900000D02*
X69310000Y-127900000D01*
X67750000Y-132900000D02*
X69310000Y-132900000D01*
%TO.C,SW40*%
X133470000Y-109650000D02*
X135030000Y-109650000D01*
X131750000Y-108680000D02*
X131750000Y-105620000D01*
X133470000Y-104650000D02*
X135030000Y-104650000D01*
X136750000Y-108680000D02*
X136750000Y-105620000D01*
%TO.C,SW32*%
X116470000Y-127900000D02*
X118030000Y-127900000D01*
X119750000Y-131930000D02*
X119750000Y-128870000D01*
X114750000Y-131930000D02*
X114750000Y-128870000D01*
X116470000Y-132900000D02*
X118030000Y-132900000D01*
%TO.C,SW34*%
X53750000Y-131930000D02*
X53750000Y-128870000D01*
X48750000Y-131930000D02*
X48750000Y-128870000D01*
X50470000Y-127900000D02*
X52030000Y-127900000D01*
X50470000Y-132900000D02*
X52030000Y-132900000D01*
%TO.C,SW29*%
X79220001Y-127900000D02*
X80780001Y-127900000D01*
X79220001Y-132900000D02*
X80780001Y-132900000D01*
X77500001Y-131930000D02*
X77500001Y-128870000D01*
X82500001Y-131930000D02*
X82500001Y-128870000D01*
%TO.C,SW66*%
X46793504Y-76560375D02*
X47896590Y-75457289D01*
X43257970Y-73024841D02*
X44361056Y-71921755D01*
X48426920Y-73555171D02*
X46263174Y-71391425D01*
X44891386Y-77090705D02*
X42727640Y-74926959D01*
%TO.C,SW59*%
X75450000Y-108680000D02*
X75450000Y-105620000D01*
X70450000Y-108680000D02*
X70450000Y-105620000D01*
X72170000Y-104650000D02*
X73730000Y-104650000D01*
X72170000Y-109650000D02*
X73730000Y-109650000D01*
D11*
%TO.C,J2*%
X132917280Y-77840000D02*
X132917280Y-78260000D01*
X132237280Y-82910000D02*
X132237280Y-83360000D01*
X132687280Y-83360000D02*
X132237280Y-83360000D01*
X137267280Y-85360000D02*
X136867280Y-85360000D01*
X132917280Y-85360000D02*
X132917280Y-84940000D01*
X134897280Y-77840000D02*
X132917280Y-77840000D01*
X136867280Y-77840000D02*
X137267280Y-77840000D01*
X134897280Y-85360000D02*
X132917280Y-85360000D01*
D12*
%TO.C,SW11*%
X66399999Y-116430000D02*
X66399999Y-113370000D01*
X63119999Y-112400000D02*
X64679999Y-112400000D01*
X63119999Y-117400000D02*
X64679999Y-117400000D01*
X61399999Y-116430000D02*
X61399999Y-113370000D01*
%TO.C,SW7*%
X112650000Y-104650000D02*
X114210000Y-104650000D01*
X112650000Y-109650000D02*
X114210000Y-109650000D01*
X110930000Y-108680000D02*
X110930000Y-105620000D01*
X115930000Y-108680000D02*
X115930000Y-105620000D01*
%TO.C,SW50*%
X55620000Y-116430000D02*
X55620000Y-113370000D01*
X57340000Y-117400000D02*
X58900000Y-117400000D01*
X60620000Y-116430000D02*
X60620000Y-113370000D01*
X57340000Y-112400000D02*
X58900000Y-112400000D01*
%TO.C,SW9*%
X40750000Y-108680000D02*
X40750000Y-105620000D01*
X35750000Y-108680000D02*
X35750000Y-105620000D01*
X37470000Y-109650000D02*
X39030000Y-109650000D01*
X37470000Y-104650000D02*
X39030000Y-104650000D01*
%TO.C,SW31*%
X102250000Y-127900000D02*
X103810000Y-127900000D01*
X100530000Y-131930000D02*
X100530000Y-128870000D01*
X105530000Y-131930000D02*
X105530000Y-128870000D01*
X102250000Y-132900000D02*
X103810000Y-132900000D01*
%TO.C,SW30*%
X88969999Y-131930000D02*
X88969999Y-128870000D01*
X93969999Y-131930000D02*
X93969999Y-128870000D01*
X90689999Y-132900000D02*
X92249999Y-132900000D01*
X90689999Y-127900000D02*
X92249999Y-127900000D01*
%TO.C,SW1*%
X43250000Y-109650000D02*
X44810000Y-109650000D01*
X41530000Y-108680000D02*
X41530000Y-105620000D01*
X43250000Y-104650000D02*
X44810000Y-104650000D01*
X46530000Y-108680000D02*
X46530000Y-105620000D01*
D11*
%TO.C,SW72*%
X126000000Y-57900000D02*
X126000000Y-58400000D01*
X126000000Y-59200000D02*
X126000000Y-59200000D01*
X122000000Y-57900000D02*
X122000000Y-58400000D01*
X128600000Y-59800000D02*
X128600000Y-63600000D01*
X122200000Y-63600000D02*
X123300000Y-63600000D01*
X126900000Y-59800000D02*
X128600000Y-59800000D01*
X122000000Y-57900000D02*
X122500000Y-57900000D01*
X126100000Y-59800000D02*
X126100000Y-59500000D01*
X125500000Y-57900000D02*
X125500000Y-57900000D01*
X122000000Y-59200000D02*
X122000000Y-59200000D01*
X121100000Y-59800000D02*
X121100000Y-59500000D01*
X121100000Y-59500000D02*
X121900000Y-59500000D01*
X126000000Y-57900000D02*
X125500000Y-57900000D01*
X126000000Y-58700000D02*
X126000000Y-59200000D01*
X124700000Y-63600000D02*
X125800000Y-63600000D01*
X128600000Y-59800000D02*
X128600000Y-59800000D01*
X126000000Y-58400000D02*
X126000000Y-58400000D01*
X119400000Y-59800000D02*
X121100000Y-59800000D01*
X123600000Y-59500000D02*
X124400000Y-59500000D01*
X128600000Y-63600000D02*
X127200000Y-63600000D01*
X123600000Y-57900000D02*
X124400000Y-57900000D01*
X124700000Y-57900000D02*
X124700000Y-57900000D01*
X122000000Y-58700000D02*
X122000000Y-59200000D01*
X126900000Y-59500000D02*
X126900000Y-59800000D01*
X123300000Y-63600000D02*
X123300000Y-63600000D01*
X124400000Y-57900000D02*
X124400000Y-57900000D01*
X125800000Y-63600000D02*
X125800000Y-63600000D01*
X123600000Y-59800000D02*
X123600000Y-59500000D01*
X120800000Y-63600000D02*
X119400000Y-63600000D01*
X124400000Y-59500000D02*
X124400000Y-59800000D01*
X126100000Y-59500000D02*
X126900000Y-59500000D01*
X123300000Y-57900000D02*
X123300000Y-57900000D01*
X125200000Y-57900000D02*
X124700000Y-57900000D01*
X124400000Y-59800000D02*
X126100000Y-59800000D01*
X122500000Y-57900000D02*
X122500000Y-57900000D01*
X119400000Y-63600000D02*
X119400000Y-59800000D01*
X121900000Y-59800000D02*
X123600000Y-59800000D01*
X122000000Y-58400000D02*
X122000000Y-58400000D01*
X121900000Y-59500000D02*
X121900000Y-59800000D01*
X122800000Y-57900000D02*
X123300000Y-57900000D01*
D12*
%TO.C,SW38*%
X99750001Y-131930000D02*
X99750001Y-128870000D01*
X94750001Y-131930000D02*
X94750001Y-128870000D01*
X96470001Y-132900000D02*
X98030001Y-132900000D01*
X96470001Y-127900000D02*
X98030001Y-127900000D01*
%TO.C,SW8*%
X124220000Y-104650000D02*
X125780000Y-104650000D01*
X122500000Y-108680000D02*
X122500000Y-105620000D01*
X124220000Y-109650000D02*
X125780000Y-109650000D01*
X127500000Y-108680000D02*
X127500000Y-105620000D01*
%TO.C,SW56*%
X133470000Y-120150000D02*
X135030000Y-120150000D01*
X136750000Y-124180000D02*
X136750000Y-121120000D01*
X131750000Y-124180000D02*
X131750000Y-121120000D01*
X133470000Y-125150000D02*
X135030000Y-125150000D01*
%TO.C,SW35*%
X61970001Y-132900000D02*
X63530001Y-132900000D01*
X61970001Y-127900000D02*
X63530001Y-127900000D01*
X65250001Y-131930000D02*
X65250001Y-128870000D01*
X60250001Y-131930000D02*
X60250001Y-128870000D01*
%TO.C,SW45*%
X87809999Y-125150000D02*
X89369999Y-125150000D01*
X87809999Y-120150000D02*
X89369999Y-120150000D01*
X86089999Y-124180000D02*
X86089999Y-121120000D01*
X91089999Y-124180000D02*
X91089999Y-121120000D01*
%TO.C,SW22*%
X91870001Y-124180000D02*
X91870001Y-121120000D01*
X93590001Y-125150000D02*
X95150001Y-125150000D01*
X93590001Y-120150000D02*
X95150001Y-120150000D01*
X96870001Y-124180000D02*
X96870001Y-121120000D01*
%TO.C,SW18*%
X45940000Y-124180000D02*
X45940000Y-121120000D01*
X47660000Y-120150000D02*
X49220000Y-120150000D01*
X47660000Y-125150000D02*
X49220000Y-125150000D01*
X50940000Y-124180000D02*
X50940000Y-121120000D01*
%TO.C,SW68*%
X39373118Y-81569310D02*
X38270032Y-80466224D01*
X43438982Y-79935894D02*
X41275236Y-82099640D01*
X42908652Y-78033776D02*
X41805566Y-76930690D01*
X39903448Y-76400360D02*
X37739702Y-78564106D01*
%TO.C,SW20*%
X68900000Y-124180000D02*
X68900000Y-121120000D01*
X70620000Y-125150000D02*
X72180000Y-125150000D01*
X73900000Y-124180000D02*
X73900000Y-121120000D01*
X70620000Y-120150000D02*
X72180000Y-120150000D01*
%TO.C,SW64*%
X133470000Y-132900001D02*
X135030000Y-132900001D01*
X133470000Y-127900001D02*
X135030000Y-127900001D01*
X131750000Y-131930001D02*
X131750000Y-128870001D01*
X136750000Y-131930001D02*
X136750000Y-128870001D01*
%TO.C,SW14*%
X98000000Y-112400000D02*
X99560000Y-112400000D01*
X96280000Y-116430000D02*
X96280000Y-113370000D01*
X101280000Y-116430000D02*
X101280000Y-113370000D01*
X98000000Y-117400000D02*
X99560000Y-117400000D01*
%TO.C,SW36*%
X73439999Y-127900000D02*
X74999999Y-127900000D01*
X73439999Y-132900000D02*
X74999999Y-132900000D01*
X76719999Y-131930000D02*
X76719999Y-128870000D01*
X71719999Y-131930000D02*
X71719999Y-128870000D01*
%TO.C,SW33*%
X75860000Y-139900000D02*
X72800000Y-139900000D01*
X76830000Y-138180000D02*
X76830000Y-136620000D01*
X71830000Y-138180000D02*
X71830000Y-136620000D01*
X75860000Y-134900000D02*
X72800000Y-134900000D01*
%TO.C,SW41*%
X40750000Y-131930001D02*
X40750000Y-128870001D01*
X37470000Y-132900001D02*
X39030000Y-132900001D01*
X35750000Y-131930001D02*
X35750000Y-128870001D01*
X37470000Y-127900001D02*
X39030000Y-127900001D01*
%TO.C,SW4*%
X76230000Y-108679999D02*
X76230000Y-105619999D01*
X81230000Y-108679999D02*
X81230000Y-105619999D01*
X77950000Y-104649999D02*
X79510000Y-104649999D01*
X77950000Y-109649999D02*
X79510000Y-109649999D01*
%TO.C,SW42*%
X53440000Y-120150000D02*
X55000000Y-120150000D01*
X51720000Y-124180000D02*
X51720000Y-121120000D01*
X53440000Y-125150000D02*
X55000000Y-125150000D01*
X56720000Y-124180000D02*
X56720000Y-121120000D01*
%TO.C,SW19*%
X57499999Y-124180000D02*
X57499999Y-121120000D01*
X59219999Y-120150000D02*
X60779999Y-120150000D01*
X59219999Y-125150000D02*
X60779999Y-125150000D01*
X62499999Y-124180000D02*
X62499999Y-121120000D01*
%TO.C,SW17*%
X38970000Y-112400000D02*
X40530000Y-112400000D01*
X38970000Y-117400000D02*
X40530000Y-117400000D01*
X37250000Y-116430000D02*
X37250000Y-113370000D01*
X42250000Y-116430000D02*
X42250000Y-113370000D01*
%TO.C,SW43*%
X63120001Y-124180000D02*
X63120001Y-121120000D01*
X64840001Y-120150000D02*
X66400001Y-120150000D01*
X64840001Y-125150000D02*
X66400001Y-125150000D01*
X68120001Y-124180000D02*
X68120001Y-121120000D01*
%TO.C,SW21*%
X82030000Y-120150000D02*
X83590000Y-120150000D01*
X80310000Y-124180000D02*
X80310000Y-121120000D01*
X82030000Y-125150000D02*
X83590000Y-125150000D01*
X85310000Y-124180000D02*
X85310000Y-121120000D01*
%TO.C,SW57*%
X49040000Y-104649999D02*
X50600000Y-104649999D01*
X49040000Y-109649999D02*
X50600000Y-109649999D01*
X47320000Y-108679999D02*
X47320000Y-105619999D01*
X52320000Y-108679999D02*
X52320000Y-105619999D01*
%TO.C,SW24*%
X122470000Y-132900000D02*
X124030000Y-132900000D01*
X120750000Y-131930000D02*
X120750000Y-128870000D01*
X125750000Y-131930000D02*
X125750000Y-128870000D01*
X122470000Y-127900000D02*
X124030000Y-127900000D01*
%TD*%
M02*
