M48
; DRILL file {KiCad (6.0.0)} date Sun May  8 19:44:57 2022
; FORMAT={-:-/ absolute / inch / decimal}
; #@! TF.CreationDate,2022-05-08T19:44:57+10:00
; #@! TF.GenerationSoftware,Kicad,Pcbnew,(6.0.0)
; #@! TF.FileFunction,Plated,1,2,PTH
FMAT,2
INCH
; #@! TA.AperFunction,Plated,PTH,ViaDrill
T1C0.0157
; #@! TA.AperFunction,Plated,PTH,ComponentDrill
T2C0.0197
; #@! TA.AperFunction,Plated,PTH,ComponentDrill
T3C0.0217
; #@! TA.AperFunction,Plated,PTH,ComponentDrill
T4C0.0295
; #@! TA.AperFunction,Plated,PTH,ComponentDrill
T5C0.0354
; #@! TA.AperFunction,Plated,PTH,ComponentDrill
T6C0.0394
; #@! TA.AperFunction,Plated,PTH,ComponentDrill
T7C0.0866
%
G90
G05
T1
X1.4291Y-4.0433
X1.4429Y-4.1152
X1.4429Y-4.7254
X1.4429Y-5.0305
X1.471Y-3.9948
X1.4781Y-3.9561
X1.4865Y-3.7821
X1.4961Y-3.4094
X1.4961Y-4.9803
X1.5Y-3.8726
X1.502Y-4.4203
X1.517Y-3.8371
X1.5695Y-3.2377
X1.5709Y-3.4252
X1.5878Y-3.8252
X1.6078Y-3.5572
X1.6219Y-3.8447
X1.6352Y-3.6083
X1.6352Y-3.6949
X1.6378Y-5.1378
X1.6705Y-4.1152
X1.6768Y-3.2871
X1.6851Y-3.5572
X1.6988Y-5.0305
X1.7087Y-4.8189
X1.7218Y-3.6083
X1.7218Y-3.6949
X1.7244Y-3.9488
X1.7323Y-4.5118
X1.7638Y-3.1969
X1.7677Y-4.4203
X1.8085Y-3.7972
X1.8101Y-3.8811
X1.8229Y-3.0405
X1.8366Y-3.8248
X1.8441Y-4.7254
X1.8593Y-3.4734
X1.8636Y-3.7961
X1.8679Y-3.6289
X1.874Y-3.1486
X1.8746Y-3.7
X1.8793Y-3.7391
X1.8793Y-3.8346
X1.8898Y-3.5109
X1.8984Y-4.1152
X1.9068Y-3.4562
X1.9068Y-3.6349
X1.9547Y-5.0305
X1.9606Y-4.0786
X1.9976Y-4.4203
X2.0669Y-4.0394
X2.0717Y-4.7254
X2.0857Y-3.6398
X2.0866Y-3.3189
X2.126Y-4.1152
X2.1799Y-5.0305
X2.2252Y-4.4203
X2.2992Y-4.7254
X2.3535Y-4.1152
X2.4075Y-5.0305
X2.4528Y-4.4203
X2.5205Y-4.7254
X2.5669Y-2.874
X2.5811Y-4.1152
X2.635Y-5.0305
X2.6843Y-4.4203
X2.748Y-4.7254
X2.8091Y-4.1152
X2.823Y-5.4724
X2.8591Y-5.0305
X2.9055Y-2.9567
X2.9055Y-3.0669
X2.9055Y-3.4803
X2.9055Y-3.5197
X2.9118Y-4.4203
X2.9488Y-3.5591
X2.9756Y-4.7254
X3.0366Y-4.1152
X3.0866Y-5.0305
X3.1394Y-4.4203
X3.1972Y-4.7254
X3.2362Y-3.7344
X3.2362Y-3.9311
X3.2638Y-3.7047
X3.2642Y-4.1152
X3.2756Y-3.9311
X3.2836Y-3.6011
X3.2936Y-3.6791
X3.294Y-3.6391
X3.3142Y-5.0305
X3.3149Y-3.9311
X3.3543Y-3.9311
X3.3679Y-4.4203
X3.3936Y-3.9311
X3.4248Y-4.7254
X3.4921Y-4.1152
X3.5382Y-5.0305
X3.5984Y-4.4203
X3.6524Y-4.7254
X3.7197Y-4.1152
X3.7657Y-5.0305
X3.826Y-4.4203
X3.8736Y-4.7254
X3.874Y-3.374
X3.9472Y-4.1152
X3.9933Y-5.0305
X4.0575Y-4.4203
X4.1012Y-4.7254
X4.1752Y-4.1152
X4.2677Y-5.0305
X4.285Y-4.4203
X4.3287Y-4.7254
X4.3826Y-3.0794
X4.4028Y-4.1152
X4.4107Y-3.0512
X4.4724Y-5.1417
X4.5126Y-4.4203
X4.5531Y-5.0305
X4.5748Y-4.8307
X4.626Y-2.7559
X4.6303Y-4.1152
X4.6496Y-3.2913
X4.6496Y-3.6299
X4.6535Y-3.748
X4.6634Y-3.0787
X4.6732Y-3.52
X4.6732Y-3.5594
X4.6811Y-4.7254
X4.6924Y-3.0522
X4.7244Y-4.5276
X4.7657Y-2.7717
X4.7657Y-2.8268
X4.7828Y-3.0371
X4.7894Y-5.0305
X4.7948Y-2.7993
X4.8012Y-4.627
X4.8335Y-3.0655
X4.8504Y-3.7244
X4.8583Y-4.1152
X4.8614Y-3.0934
X4.8622Y-4.5236
X4.8661Y-3.5984
X4.8819Y-2.5374
X4.9173Y-3.6624
X4.9606Y-4.8583
X4.9843Y-4.1142
X5.002Y-4.622
X5.0039Y-5.1102
X5.0079Y-3.0157
X5.0177Y-4.6586
X5.0177Y-4.7423
X5.0334Y-4.7031
X5.0492Y-4.9921
X5.0492Y-5.0315
X5.0787Y-5.1477
X5.0885Y-4.2953
X5.1043Y-4.6468
X5.1043Y-4.9685
X5.12Y-4.6934
X5.12Y-4.3976
X5.1207Y-4.9327
X5.1357Y-4.0906
X5.1417Y-3.4016
X5.1457Y-5.0827
X5.1537Y-4.5962
X5.1614Y-2.8976
X5.1811Y-4.8425
X5.1853Y-3.2047
X5.1853Y-3.2461
X5.2205Y-4.1142
X5.2224Y-4.4203
X5.2224Y-4.7254
X5.2224Y-5.0305
X5.25Y-3.7972
X5.2594Y-3.7292
X5.2933Y-3.2638
X5.3504Y-3.1732
X5.3504Y-3.252
T4
X4.752Y-3.3524
X4.8307Y-3.3524
T5
X5.2504Y-2.9449
X5.3504Y-2.9449
T6
X1.5157Y-2.7652
X1.5157Y-2.8652
X4.4085Y-2.6219
X4.4085Y-2.7219
X4.4085Y-2.8219
X4.5085Y-2.6219
X4.5085Y-2.7219
X4.5085Y-2.8219
T7
X1.5492Y-2.498
X1.5492Y-5.3917
X5.25Y-2.498
X5.25Y-5.3917
T2
G00X5.3367Y-3.0748
M15
G01X5.3623Y-3.0748
M16
G05
G00X5.3367Y-3.3504
M15
G01X5.3623Y-3.3504
M16
G05
T3
G00X5.2432Y-3.1201
M15
G01X5.2432Y-3.1083
M16
G05
G00X5.2432Y-3.3169
M15
G01X5.2432Y-3.3051
M16
G05
T0
M30
