%TF.GenerationSoftware,KiCad,Pcbnew,(6.0.0)*%
%TF.CreationDate,2022-05-08T19:52:26+10:00*%
%TF.ProjectId,cover,636f7665-722e-46b6-9963-61645f706362,rev?*%
%TF.SameCoordinates,Original*%
%TF.FileFunction,Profile,NP*%
%FSLAX46Y46*%
G04 Gerber Fmt 4.6, Leading zero omitted, Abs format (unit mm)*
G04 Created by KiCad (PCBNEW (6.0.0)) date 2022-05-08 19:52:26*
%MOMM*%
%LPD*%
G01*
G04 APERTURE LIST*
%TA.AperFunction,Profile*%
%ADD10C,0.150000*%
%TD*%
%TA.AperFunction,Profile*%
%ADD11C,0.100000*%
%TD*%
G04 APERTURE END LIST*
D10*
X188762212Y-122704899D02*
G75*
G03*
X188762212Y-122704899I-1500000J0D01*
G01*
X204732212Y-114954899D02*
G75*
G03*
X204732212Y-114954899I-1500000J0D01*
G01*
X149982212Y-107204899D02*
G75*
G03*
X149982212Y-107204899I-1500000J0D01*
G01*
X211722212Y-122704899D02*
G75*
G03*
X211722212Y-122704899I-1500000J0D01*
G01*
D11*
X223268907Y-68425003D02*
X233293905Y-68424863D01*
X144268872Y-140950001D02*
X237268872Y-140950002D01*
D10*
X183132212Y-122704899D02*
G75*
G03*
X183132212Y-122704899I-1500000J0D01*
G01*
X222172212Y-114954899D02*
G75*
G03*
X222172212Y-114954899I-1500000J0D01*
G01*
D11*
X241768873Y-63931977D02*
G75*
G03*
X237268872Y-59431974I-4500001J2D01*
G01*
D10*
X177352211Y-122704899D02*
G75*
G03*
X177352211Y-122704899I-1499999J0D01*
G01*
X155772212Y-107204898D02*
G75*
G03*
X155772212Y-107204898I-1500000J0D01*
G01*
X207812212Y-107204899D02*
G75*
G03*
X207812212Y-107204899I-1500000J0D01*
G01*
X230952212Y-107204899D02*
G75*
G03*
X230952212Y-107204899I-1500000J0D01*
G01*
X160172212Y-122704899D02*
G75*
G03*
X160172212Y-122704899I-1500000J0D01*
G01*
D11*
X139768872Y-136450000D02*
G75*
G03*
X144268872Y-140950001I4500000J-1D01*
G01*
D10*
X173112212Y-107204899D02*
G75*
G03*
X173112212Y-107204899I-1500000J0D01*
G01*
X178902212Y-107204899D02*
G75*
G03*
X178902212Y-107204899I-1500000J0D01*
G01*
D11*
X144950000Y-63450000D02*
G75*
G03*
X144950000Y-63450000I-1150000J0D01*
G01*
X148268840Y-68424869D02*
X158293838Y-68424729D01*
D10*
X215952212Y-130454899D02*
G75*
G03*
X215952212Y-130454899I-1500000J0D01*
G01*
X240202212Y-114954898D02*
G75*
G03*
X240202212Y-114954898I-1500000J0D01*
G01*
X158292212Y-114954899D02*
G75*
G03*
X158292212Y-114954899I-1500000J0D01*
G01*
X229452215Y-114954899D02*
G75*
G03*
X229452215Y-114954899I-1500002J0D01*
G01*
X144202212Y-107204899D02*
G75*
G03*
X144202212Y-107204899I-1500000J0D01*
G01*
D11*
X156506084Y-79250002D02*
G75*
G03*
X156506084Y-79250002I-1500000J0D01*
G01*
D10*
X196252212Y-107204899D02*
G75*
G03*
X196252212Y-107204899I-1500000J0D01*
G01*
X223202212Y-130454899D02*
G75*
G03*
X223202212Y-130454899I-1500000J0D01*
G01*
X203202215Y-130454899D02*
G75*
G03*
X203202215Y-130454899I-1500002J0D01*
G01*
X240202212Y-107204899D02*
G75*
G03*
X240202212Y-107204899I-1500000J0D01*
G01*
X193172215Y-114954899D02*
G75*
G03*
X193172215Y-114954899I-1500002J0D01*
G01*
X231500000Y-79300000D02*
G75*
G03*
X231500000Y-79300000I-1500000J0D01*
G01*
X213602214Y-107204899D02*
G75*
G03*
X213602214Y-107204899I-1500001J0D01*
G01*
X240202212Y-122704899D02*
G75*
G03*
X240202212Y-122704899I-1500000J0D01*
G01*
X152452210Y-114954899D02*
G75*
G03*
X152452210Y-114954899I-1499999J0D01*
G01*
X157202212Y-130454899D02*
G75*
G03*
X157202212Y-130454899I-1500000J0D01*
G01*
X164072212Y-114954899D02*
G75*
G03*
X164072212Y-114954899I-1500000J0D01*
G01*
X168702214Y-130454899D02*
G75*
G03*
X168702214Y-130454899I-1500001J0D01*
G01*
X191732211Y-130454899D02*
G75*
G03*
X191732211Y-130454899I-1499999J0D01*
G01*
X216392212Y-114954899D02*
G75*
G03*
X216392212Y-114954899I-1500000J0D01*
G01*
X161552212Y-107204899D02*
G75*
G03*
X161552212Y-107204899I-1500000J0D01*
G01*
D11*
X158268840Y-63924868D02*
X148293295Y-63925002D01*
D10*
X181512212Y-114954898D02*
G75*
G03*
X181512212Y-114954898I-1500000J0D01*
G01*
X144202212Y-122704899D02*
G75*
G03*
X144202212Y-122704899I-1500000J0D01*
G01*
X154392212Y-122704899D02*
G75*
G03*
X154392212Y-122704899I-1500000J0D01*
G01*
D11*
X238900000Y-63450000D02*
G75*
G03*
X238900000Y-63450000I-1150000J0D01*
G01*
D10*
X205942213Y-122704899D02*
G75*
G03*
X205942213Y-122704899I-1500001J0D01*
G01*
D11*
X151496152Y-74241067D02*
G75*
G03*
X151496152Y-74241067I-1500000J0D01*
G01*
D10*
X165952210Y-122704899D02*
G75*
G03*
X165952210Y-122704899I-1499999J0D01*
G01*
X197422210Y-130454899D02*
G75*
G03*
X197422210Y-130454899I-1499999J0D01*
G01*
X171572215Y-122704899D02*
G75*
G03*
X171572215Y-122704899I-1500002J0D01*
G01*
X175732212Y-114954899D02*
G75*
G03*
X175732212Y-114954899I-1500000J0D01*
G01*
X145702212Y-114954899D02*
G75*
G03*
X145702212Y-114954899I-1500000J0D01*
G01*
X208982211Y-130454899D02*
G75*
G03*
X208982211Y-130454899I-1499999J0D01*
G01*
X225162212Y-107204899D02*
G75*
G03*
X225162212Y-107204899I-1500000J0D01*
G01*
D11*
X146508214Y-79250002D02*
G75*
G03*
X146508214Y-79250002I-1500000J0D01*
G01*
D10*
X169852210Y-114954899D02*
G75*
G03*
X169852210Y-114954899I-1499999J0D01*
G01*
X174482212Y-130454899D02*
G75*
G03*
X174482212Y-130454899I-1500000J0D01*
G01*
X217502212Y-122704899D02*
G75*
G03*
X217502212Y-122704899I-1500000J0D01*
G01*
X144202212Y-130454900D02*
G75*
G03*
X144202212Y-130454900I-1500000J0D01*
G01*
X162922210Y-130454899D02*
G75*
G03*
X162922210Y-130454899I-1499999J0D01*
G01*
D11*
X148293295Y-63925002D02*
G75*
G03*
X148268840Y-68424869I-24456J-2249867D01*
G01*
X139768872Y-63931978D02*
X139768872Y-136450000D01*
D10*
X194542210Y-122704899D02*
G75*
G03*
X194542210Y-122704899I-1499999J0D01*
G01*
X210612212Y-114954899D02*
G75*
G03*
X210612212Y-114954899I-1500000J0D01*
G01*
X184682212Y-107204898D02*
G75*
G03*
X184682212Y-107204898I-1500000J0D01*
G01*
X187292212Y-114954899D02*
G75*
G03*
X187292212Y-114954899I-1500000J0D01*
G01*
X198952211Y-114954899D02*
G75*
G03*
X198952211Y-114954899I-1499999J0D01*
G01*
D11*
X144900000Y-136950000D02*
G75*
G03*
X144900000Y-136950000I-1150000J0D01*
G01*
X237268872Y-140950002D02*
G75*
G03*
X241768872Y-136450002I-10J4500010D01*
G01*
D10*
X180172210Y-130454899D02*
G75*
G03*
X180172210Y-130454899I-1499999J0D01*
G01*
X229202212Y-130454899D02*
G75*
G03*
X229202212Y-130454899I-1500000J0D01*
G01*
X167332212Y-107204899D02*
G75*
G03*
X167332212Y-107204899I-1500000J0D01*
G01*
X200322215Y-122704899D02*
G75*
G03*
X200322215Y-122704899I-1500002J0D01*
G01*
D11*
X233268907Y-63925002D02*
X223293362Y-63925136D01*
X212918872Y-100950002D02*
X163018872Y-100950002D01*
X163018872Y-100950002D02*
X163018872Y-63250002D01*
X163018872Y-63250002D02*
X212918872Y-63250002D01*
X212918872Y-63250002D02*
X212918872Y-100950002D01*
X237268872Y-59431974D02*
X144268872Y-59431977D01*
D10*
X180282212Y-137454899D02*
G75*
G03*
X180282212Y-137454899I-1500000J0D01*
G01*
D11*
X158293838Y-68424729D02*
G75*
G03*
X158268840Y-63924868I-24998J2249861D01*
G01*
D10*
X240202212Y-130454900D02*
G75*
G03*
X240202212Y-130454900I-1500000J0D01*
G01*
X185952215Y-130454899D02*
G75*
G03*
X185952215Y-130454899I-1500002J0D01*
G01*
D11*
X144268872Y-59431977D02*
G75*
G03*
X139768872Y-63931978I0J-4500000D01*
G01*
X241768872Y-136450002D02*
X241768873Y-63931977D01*
D10*
X202032212Y-107204899D02*
G75*
G03*
X202032212Y-107204899I-1500000J0D01*
G01*
X150702215Y-130454899D02*
G75*
G03*
X150702215Y-130454899I-1500002J0D01*
G01*
D11*
X238900000Y-136950000D02*
G75*
G03*
X238900000Y-136950000I-1150000J0D01*
G01*
D10*
X219382211Y-107204899D02*
G75*
G03*
X219382211Y-107204899I-1499999J0D01*
G01*
D11*
X233293905Y-68424863D02*
G75*
G03*
X233268907Y-63925002I-24998J2249861D01*
G01*
X223293362Y-63925136D02*
G75*
G03*
X223268907Y-68425003I-24456J-2249867D01*
G01*
D10*
X226452211Y-122704899D02*
G75*
G03*
X226452211Y-122704899I-1499999J0D01*
G01*
D11*
X151496152Y-84217118D02*
G75*
G03*
X151496152Y-84217118I-1500000J0D01*
G01*
D10*
X190462212Y-107204899D02*
G75*
G03*
X190462212Y-107204899I-1500000J0D01*
G01*
M02*
