%TF.GenerationSoftware,KiCad,Pcbnew,(6.0.0)*%
%TF.CreationDate,2022-05-08T20:40:57+10:00*%
%TF.ProjectId,cover,636f7665-722e-46b6-9963-61645f706362,rev?*%
%TF.SameCoordinates,Original*%
%TF.FileFunction,Soldermask,Top*%
%TF.FilePolarity,Negative*%
%FSLAX46Y46*%
G04 Gerber Fmt 4.6, Leading zero omitted, Abs format (unit mm)*
G04 Created by KiCad (PCBNEW (6.0.0)) date 2022-05-08 20:40:57*
%MOMM*%
%LPD*%
G01*
G04 APERTURE LIST*
%ADD10C,0.200000*%
%ADD11C,1.000000*%
%ADD12C,0.026458*%
%ADD13C,1.450000*%
%ADD14C,0.150000*%
%ADD15C,2.600000*%
%ADD16C,2.800000*%
G04 APERTURE END LIST*
D10*
X161600000Y-62700000D02*
X162400000Y-62700000D01*
X162400000Y-62700000D02*
X162400000Y-61900000D01*
X162400000Y-61900000D02*
X161600000Y-61900000D01*
X161600000Y-61900000D02*
X161600000Y-62700000D01*
X213600000Y-62700000D02*
X214400000Y-62700000D01*
X214400000Y-62700000D02*
X214400000Y-61900000D01*
X214400000Y-61900000D02*
X213600000Y-61900000D01*
X213600000Y-61900000D02*
X213600000Y-62700000D01*
X213600000Y-91300000D02*
X214400000Y-91300000D01*
X214400000Y-91300000D02*
X214400000Y-90500000D01*
X214400000Y-90500000D02*
X213600000Y-90500000D01*
X213600000Y-90500000D02*
X213600000Y-91300000D01*
X162400000Y-91300000D02*
X162000000Y-91300000D01*
X162000000Y-91300000D02*
X162000000Y-90800000D01*
X162000000Y-90800000D02*
X162400000Y-90800000D01*
X162400000Y-90800000D02*
X162400000Y-91300000D01*
D11*
X162000000Y-62300000D02*
X162000000Y-90900000D01*
X214000000Y-90900000D02*
X214000000Y-62300000D01*
X214000000Y-62300000D02*
X162000000Y-62300000D01*
X214000000Y-90900000D02*
X241800000Y-90900000D01*
X139800000Y-92700000D02*
X241800000Y-92700000D01*
X139800000Y-99900000D02*
X241800000Y-99900000D01*
X139800000Y-90900000D02*
X162000000Y-90900000D01*
X139800000Y-94500000D02*
X241800000Y-94500000D01*
X139800000Y-96300000D02*
X241800000Y-96300000D01*
X139800000Y-98100000D02*
X241800000Y-98100000D01*
%TO.C,REF\u002A\u002A*%
G36*
X228297588Y-74611319D02*
G01*
X228565128Y-74620745D01*
X228721893Y-74642981D01*
X228797155Y-74683367D01*
X228820187Y-74747243D01*
X228821333Y-74779264D01*
X228806335Y-74866131D01*
X228737947Y-74917100D01*
X228581079Y-74941559D01*
X228300637Y-74948897D01*
X228186333Y-74949164D01*
X227551333Y-74949164D01*
X227551333Y-75246488D01*
X227561586Y-75436854D01*
X227624891Y-75521454D01*
X227790067Y-75543148D01*
X227890000Y-75543812D01*
X228111568Y-75558060D01*
X228209492Y-75615646D01*
X228228667Y-75713712D01*
X228200266Y-75824867D01*
X228085477Y-75873993D01*
X227890000Y-75883612D01*
X227673164Y-75892613D01*
X227576800Y-75948190D01*
X227552090Y-76093203D01*
X227551333Y-76180936D01*
X227551333Y-76478261D01*
X228186333Y-76478261D01*
X228511001Y-76482273D01*
X228701496Y-76500571D01*
X228792912Y-76542543D01*
X228820337Y-76617577D01*
X228821333Y-76648160D01*
X228810616Y-76722515D01*
X228758949Y-76771321D01*
X228637060Y-76799919D01*
X228415677Y-76813649D01*
X228065526Y-76817851D01*
X227890000Y-76818060D01*
X226958667Y-76818060D01*
X226958667Y-74609364D01*
X227890000Y-74609364D01*
X228297588Y-74611319D01*
G37*
G36*
X229329333Y-82000000D02*
G01*
X229691368Y-82002839D01*
X229916331Y-82016146D01*
X230036449Y-82047108D01*
X230083954Y-82102910D01*
X230091333Y-82169899D01*
X230151202Y-82311877D01*
X230260667Y-82339799D01*
X230377375Y-82373058D01*
X230424465Y-82502898D01*
X230430000Y-82637123D01*
X230411058Y-82842046D01*
X230337111Y-82924729D01*
X230260667Y-82934448D01*
X230119162Y-82994516D01*
X230091333Y-83104348D01*
X230071121Y-83202532D01*
X229983732Y-83253681D01*
X229789035Y-83272435D01*
X229625667Y-83274247D01*
X229160000Y-83274247D01*
X229160000Y-84208695D01*
X228567333Y-84208695D01*
X228567333Y-82637123D01*
X229160000Y-82637123D01*
X229170253Y-82827490D01*
X229233557Y-82912090D01*
X229398734Y-82933783D01*
X229498667Y-82934448D01*
X229715503Y-82925447D01*
X229811866Y-82869870D01*
X229836576Y-82724857D01*
X229837333Y-82637123D01*
X229827080Y-82446757D01*
X229763776Y-82362157D01*
X229598599Y-82340464D01*
X229498667Y-82339799D01*
X229281830Y-82348800D01*
X229185467Y-82404377D01*
X229160757Y-82549390D01*
X229160000Y-82637123D01*
X228567333Y-82637123D01*
X228567333Y-82000000D01*
X229329333Y-82000000D01*
G37*
G36*
X229668000Y-75246488D02*
G01*
X229671999Y-75572241D01*
X229690236Y-75763374D01*
X229732068Y-75855095D01*
X229806852Y-75882612D01*
X229837333Y-75883612D01*
X229978837Y-75823543D01*
X230006667Y-75713712D01*
X230066535Y-75571735D01*
X230176000Y-75543812D01*
X230317504Y-75603881D01*
X230345333Y-75713712D01*
X230398273Y-75852078D01*
X230472333Y-75883612D01*
X230539322Y-75850237D01*
X230578644Y-75729630D01*
X230596423Y-75491065D01*
X230599333Y-75246488D01*
X230599333Y-74609364D01*
X231276667Y-74609364D01*
X231276667Y-76818060D01*
X230938000Y-76818060D01*
X230716432Y-76803812D01*
X230618507Y-76746226D01*
X230599333Y-76648160D01*
X230546394Y-76509795D01*
X230472333Y-76478261D01*
X230360085Y-76410261D01*
X230345333Y-76350836D01*
X230274747Y-76247062D01*
X230176000Y-76223411D01*
X230038096Y-76276528D01*
X230006667Y-76350836D01*
X229936080Y-76454610D01*
X229837333Y-76478261D01*
X229695829Y-76538329D01*
X229668000Y-76648160D01*
X229634852Y-76765259D01*
X229505444Y-76812506D01*
X229371667Y-76818060D01*
X229075333Y-76818060D01*
X229075333Y-74609364D01*
X229668000Y-74609364D01*
X229668000Y-75246488D01*
G37*
G36*
X233478000Y-82637123D02*
G01*
X233481999Y-82962877D01*
X233500236Y-83154010D01*
X233542068Y-83245730D01*
X233616852Y-83273248D01*
X233647333Y-83274247D01*
X233788837Y-83214179D01*
X233816667Y-83104348D01*
X233876535Y-82962370D01*
X233986000Y-82934448D01*
X234127504Y-82994516D01*
X234155333Y-83104348D01*
X234208273Y-83242713D01*
X234282333Y-83274247D01*
X234349322Y-83240872D01*
X234388644Y-83120265D01*
X234406423Y-82881700D01*
X234409333Y-82637123D01*
X234409333Y-82000000D01*
X235086667Y-82000000D01*
X235086667Y-84208695D01*
X234748000Y-84208695D01*
X234526432Y-84194448D01*
X234428507Y-84136861D01*
X234409333Y-84038796D01*
X234356394Y-83900430D01*
X234282333Y-83868896D01*
X234170085Y-83800896D01*
X234155333Y-83741471D01*
X234084747Y-83637697D01*
X233986000Y-83614047D01*
X233848096Y-83667163D01*
X233816667Y-83741471D01*
X233746080Y-83845245D01*
X233647333Y-83868896D01*
X233505829Y-83928965D01*
X233478000Y-84038796D01*
X233444852Y-84155894D01*
X233315444Y-84203142D01*
X233181667Y-84208695D01*
X232885333Y-84208695D01*
X232885333Y-82000000D01*
X233478000Y-82000000D01*
X233478000Y-82637123D01*
G37*
G36*
X232107588Y-82001955D02*
G01*
X232375128Y-82011380D01*
X232531893Y-82033616D01*
X232607155Y-82074002D01*
X232630187Y-82137879D01*
X232631333Y-82169899D01*
X232616335Y-82256767D01*
X232547947Y-82307736D01*
X232391079Y-82332195D01*
X232110637Y-82339533D01*
X231996333Y-82339799D01*
X231361333Y-82339799D01*
X231361333Y-82637123D01*
X231371586Y-82827490D01*
X231434891Y-82912090D01*
X231600067Y-82933783D01*
X231700000Y-82934448D01*
X231921568Y-82948695D01*
X232019492Y-83006282D01*
X232038667Y-83104348D01*
X232010266Y-83215502D01*
X231895477Y-83264628D01*
X231700000Y-83274247D01*
X231483164Y-83283248D01*
X231386800Y-83338825D01*
X231362090Y-83483838D01*
X231361333Y-83571572D01*
X231361333Y-83868896D01*
X231996333Y-83868896D01*
X232321001Y-83872909D01*
X232511496Y-83891207D01*
X232602912Y-83933178D01*
X232630337Y-84008213D01*
X232631333Y-84038796D01*
X232620616Y-84113150D01*
X232568949Y-84161957D01*
X232447060Y-84190555D01*
X232225677Y-84204285D01*
X231875526Y-84208486D01*
X231700000Y-84208695D01*
X230768667Y-84208695D01*
X230768667Y-82000000D01*
X231700000Y-82000000D01*
X232107588Y-82001955D01*
G37*
G36*
X225519333Y-74609364D02*
G01*
X225881368Y-74612203D01*
X226106331Y-74625510D01*
X226226449Y-74656472D01*
X226273954Y-74712274D01*
X226281333Y-74779264D01*
X226341202Y-74921241D01*
X226450667Y-74949164D01*
X226567375Y-74982423D01*
X226614465Y-75112263D01*
X226620000Y-75246488D01*
X226601058Y-75451410D01*
X226527111Y-75534093D01*
X226450667Y-75543812D01*
X226309162Y-75603881D01*
X226281333Y-75713712D01*
X226261121Y-75811897D01*
X226173732Y-75863045D01*
X225979035Y-75881800D01*
X225815667Y-75883612D01*
X225350000Y-75883612D01*
X225350000Y-76818060D01*
X224757333Y-76818060D01*
X224757333Y-75246488D01*
X225350000Y-75246488D01*
X225360253Y-75436854D01*
X225423557Y-75521454D01*
X225588734Y-75543148D01*
X225688667Y-75543812D01*
X225905503Y-75534811D01*
X226001866Y-75479234D01*
X226026576Y-75334221D01*
X226027333Y-75246488D01*
X226017080Y-75056122D01*
X225953776Y-74971522D01*
X225788599Y-74949828D01*
X225688667Y-74949164D01*
X225471830Y-74958165D01*
X225375467Y-75013742D01*
X225350757Y-75158755D01*
X225350000Y-75246488D01*
X224757333Y-75246488D01*
X224757333Y-74609364D01*
X225519333Y-74609364D01*
G37*
D12*
X141073788Y-125692919D02*
X141143697Y-125585828D01*
X142086444Y-125760397D02*
X142053326Y-125777543D01*
X142442887Y-127367159D02*
X142479848Y-127367091D01*
X142406000Y-127365621D02*
X142442887Y-127367159D01*
X141692688Y-126161120D02*
X141677492Y-126195485D01*
X142045684Y-124960576D02*
X142105372Y-124945946D01*
X141843600Y-127101731D02*
X141870808Y-127129307D01*
X142479848Y-127367091D02*
X142516828Y-127365408D01*
X142120186Y-125744774D02*
X142086444Y-125760397D01*
X142105372Y-124945946D02*
X142165629Y-124933585D01*
X142590627Y-125684086D02*
X142553773Y-125679148D01*
X141641502Y-126301363D02*
X141632704Y-126337397D01*
X142535444Y-124908359D02*
X142597844Y-124912525D01*
X142020887Y-125796205D02*
X141989183Y-125816372D01*
X141989183Y-127224878D02*
X142020887Y-127245046D01*
X141615908Y-126594306D02*
X141619907Y-126631007D01*
X142627336Y-127350587D02*
X142663844Y-127342361D01*
X141143696Y-127455422D02*
X141073787Y-127348331D01*
X141899025Y-127155418D02*
X141928197Y-127180056D01*
X141870694Y-125017854D02*
X141928279Y-124996553D01*
X141817456Y-125968553D02*
X141817456Y-125968553D01*
X142535444Y-128132892D02*
X142411036Y-128133958D01*
X140919988Y-126035381D02*
X140961934Y-125918253D01*
X141544972Y-125190585D02*
X141596574Y-125156562D01*
X141692688Y-126880131D02*
X141709484Y-126913940D01*
X141792662Y-125998747D02*
X141769468Y-126029776D01*
X142700096Y-125708771D02*
X142663844Y-125698889D01*
X142260298Y-125697683D02*
X142189323Y-125718132D01*
X141013200Y-125803913D02*
X141073788Y-125692919D01*
X141792663Y-127042503D02*
X141817456Y-127072698D01*
X141596574Y-125156562D02*
X141649338Y-125124603D01*
X142875602Y-127257930D02*
X142909166Y-127237935D01*
X142909167Y-124970609D02*
X142909166Y-125803316D01*
X140887364Y-126886509D02*
X140864061Y-126765477D01*
X141615908Y-126446944D02*
X141613509Y-126483757D01*
X142553773Y-127362102D02*
X142590627Y-127357165D01*
X142086444Y-127280853D02*
X142120186Y-127296476D01*
X141817456Y-125968553D02*
X141792662Y-125998747D01*
X142045683Y-128080674D02*
X141928278Y-128044697D01*
X142909166Y-128070642D02*
X142909166Y-128070642D01*
X142847211Y-124953949D02*
X142909167Y-124970609D01*
X142597844Y-124912525D02*
X142660286Y-124919144D01*
X141263445Y-125436753D02*
X141306693Y-125390835D01*
X142771615Y-125733538D02*
X142736038Y-125720318D01*
X142189324Y-127323119D02*
X142224609Y-127334121D01*
X141143697Y-125585828D02*
X141143697Y-125585828D01*
X142909166Y-125803316D02*
X142875602Y-125783320D01*
X141613509Y-126483757D02*
X141612709Y-126520625D01*
X142627336Y-125690663D02*
X142590627Y-125684086D01*
X141703197Y-127946520D02*
X141596574Y-127884688D01*
X141625506Y-126373709D02*
X141619907Y-126410243D01*
X141221818Y-125484573D02*
X141263445Y-125436753D01*
X141727879Y-126947137D02*
X141747874Y-126979668D01*
X141651899Y-126265662D02*
X141641502Y-126301363D01*
X142785036Y-128101417D02*
X142660286Y-128122106D01*
X141596574Y-127884688D02*
X141494598Y-127814603D01*
X142332671Y-127357757D02*
X142369243Y-127362484D01*
X141619907Y-126410243D02*
X141615908Y-126446944D01*
X141445517Y-125264726D02*
X141494598Y-125226647D01*
X142590627Y-127357165D02*
X142627336Y-127350587D01*
X140961934Y-125918253D02*
X141013200Y-125803913D01*
X141709484Y-126913940D02*
X141727879Y-126947137D01*
X142332671Y-125683493D02*
X142260298Y-125697683D01*
X142053326Y-127263707D02*
X142086444Y-127280853D01*
X141397795Y-127736451D02*
X141306693Y-127650414D01*
X141769468Y-126029776D02*
X141747874Y-126061583D01*
X141870808Y-125911944D02*
X141843600Y-125939520D01*
X141709484Y-126127311D02*
X141692688Y-126161120D01*
X141813941Y-127999918D02*
X141703197Y-127946520D01*
X140850079Y-126643330D02*
X140845419Y-126520625D01*
X142909167Y-124970609D02*
X142909167Y-124970609D01*
X142165629Y-128107666D02*
X142045683Y-128080674D01*
X141989183Y-125816372D02*
X141958268Y-125838038D01*
X142806771Y-127292811D02*
X142841452Y-127276220D01*
X141625506Y-126667542D02*
X141632704Y-126703854D01*
X142841452Y-127276220D02*
X142875602Y-127257930D01*
X142165629Y-124933585D02*
X142226390Y-124923516D01*
X142406000Y-125675630D02*
X142332671Y-125683493D01*
X142806771Y-125748440D02*
X142771615Y-125733538D01*
X142663844Y-127342361D02*
X142700096Y-127332479D01*
X141727879Y-126094113D02*
X141709484Y-126127311D01*
X141306693Y-125390835D02*
X141351499Y-125346843D01*
X140887364Y-126154740D02*
X140919988Y-126035381D01*
X140919988Y-127005868D02*
X140887364Y-126886509D01*
X142700096Y-127332479D02*
X142736038Y-127320932D01*
X142154498Y-127310567D02*
X142189324Y-127323119D01*
X141928197Y-125861195D02*
X141899025Y-125885832D01*
X142189323Y-125718132D02*
X142120186Y-125744774D01*
X141397796Y-125304799D02*
X141445517Y-125264726D01*
X142909166Y-127237935D02*
X142909166Y-128070642D01*
X142120186Y-127296476D02*
X142154498Y-127310567D01*
X142287588Y-128125488D02*
X142165629Y-128107666D01*
X141143697Y-125585828D02*
X141181880Y-125534272D01*
X141494598Y-127814603D02*
X141397795Y-127736451D01*
X141928197Y-127180056D02*
X141958268Y-127203212D01*
X142411036Y-128133958D02*
X142287588Y-128125488D01*
X142224609Y-127334121D02*
X142260298Y-127343568D01*
X141619907Y-126631007D02*
X141625506Y-126667542D01*
X142771615Y-127307712D02*
X142806771Y-127292811D01*
X140961933Y-127122997D02*
X140919988Y-127005868D01*
X142553773Y-125679148D02*
X142479848Y-125674159D01*
X142296337Y-127351449D02*
X142332671Y-127357757D01*
X141143696Y-127455422D02*
X141143696Y-127455422D01*
X141073787Y-127348331D02*
X141013200Y-127237337D01*
X141013200Y-127237337D02*
X140961933Y-127122997D01*
X140864061Y-126765477D02*
X140850079Y-126643330D01*
X142479848Y-125674159D02*
X142406000Y-125675630D01*
X141747874Y-126061583D02*
X141727879Y-126094113D01*
X141632704Y-126703854D02*
X141641502Y-126739888D01*
X141649338Y-125124603D02*
X141703197Y-125094730D01*
X142020887Y-127245046D02*
X142053326Y-127263707D01*
X142660286Y-128122106D02*
X142535444Y-128132892D01*
X141870808Y-127129307D02*
X141899025Y-127155418D01*
X141641502Y-126739888D02*
X141651899Y-126775588D01*
X142473153Y-124906622D02*
X142535444Y-124908359D01*
X142736038Y-125720318D02*
X142700096Y-125708771D01*
X142722705Y-124928239D02*
X142785036Y-124939833D01*
X142287589Y-124915762D02*
X142349159Y-124910347D01*
X142260298Y-127343568D02*
X142296337Y-127351449D01*
X142053326Y-125777543D02*
X142020887Y-125796205D01*
X141221818Y-127556677D02*
X141143696Y-127455422D01*
X142369243Y-127362484D02*
X142406000Y-127365621D01*
X141663896Y-126230351D02*
X141651899Y-126265662D01*
X141958268Y-125838038D02*
X141928197Y-125861195D01*
X141928279Y-124996553D02*
X141986631Y-124977453D01*
X141758087Y-125066965D02*
X141813941Y-125041332D01*
X142841452Y-125765031D02*
X142806771Y-125748440D01*
X141663896Y-126810899D02*
X141677492Y-126845765D01*
X142411036Y-124907292D02*
X142473153Y-124906622D01*
X142226390Y-124923516D02*
X142287589Y-124915762D01*
X141677492Y-126195485D02*
X141663896Y-126230351D01*
X141613509Y-126557493D02*
X141615908Y-126594306D01*
X141899025Y-125885832D02*
X141870808Y-125911944D01*
X142516828Y-127365408D02*
X142553773Y-127362102D01*
X141181880Y-125534272D02*
X141221818Y-125484573D01*
X141351499Y-125346843D02*
X141397796Y-125304799D01*
X142736038Y-127320932D02*
X142771615Y-127307712D01*
X142909166Y-128070642D02*
X142785036Y-128101417D01*
X142875602Y-125783320D02*
X142841452Y-125765031D01*
X142660286Y-124919144D02*
X142722705Y-124928239D01*
X141958268Y-127203212D02*
X141989183Y-127224878D01*
X141306693Y-127650414D02*
X141221818Y-127556677D01*
X141817456Y-127072698D02*
X141817456Y-127072698D01*
X142663844Y-125698889D02*
X142627336Y-125690663D01*
X140864061Y-126275772D02*
X140887364Y-126154740D01*
X141817456Y-127072698D02*
X141843600Y-127101731D01*
X142785036Y-124939833D02*
X142847211Y-124953949D01*
X142909166Y-125803316D02*
X142909166Y-125803316D01*
X141747874Y-126979668D02*
X141769469Y-127011475D01*
X141843600Y-125939520D02*
X141817456Y-125968553D01*
X141703197Y-125094730D02*
X141758087Y-125066965D01*
X140850080Y-126397920D02*
X140864061Y-126275772D01*
X141986631Y-124977453D02*
X142045684Y-124960576D01*
X141928278Y-128044697D02*
X141813941Y-127999918D01*
X141632704Y-126337397D02*
X141625506Y-126373709D01*
X142349159Y-124910347D02*
X142411036Y-124907292D01*
X141612709Y-126520625D02*
X141613509Y-126557493D01*
X141769469Y-127011475D02*
X141792663Y-127042503D01*
X140845419Y-126520625D02*
X140850080Y-126397920D01*
X141651899Y-126775588D02*
X141663896Y-126810899D01*
X141677492Y-126845765D02*
X141692688Y-126880131D01*
X141813941Y-125041332D02*
X141870694Y-125017854D01*
X141494598Y-125226647D02*
X141544972Y-125190585D01*
G36*
X238543305Y-119015973D02*
G01*
X238701675Y-119050664D01*
X238755331Y-119118258D01*
X238756333Y-119133612D01*
X238700410Y-119222214D01*
X238515030Y-119258724D01*
X238417666Y-119261036D01*
X238196098Y-119275284D01*
X238098174Y-119332870D01*
X238079000Y-119430936D01*
X238138868Y-119572913D01*
X238248333Y-119600836D01*
X238385913Y-119636411D01*
X238417666Y-119685786D01*
X238346754Y-119754806D01*
X238248333Y-119770735D01*
X238124386Y-119810785D01*
X238080746Y-119959798D01*
X238079000Y-120025585D01*
X238052389Y-120212127D01*
X237953378Y-120277805D01*
X237909666Y-120280434D01*
X237823088Y-120265386D01*
X237772289Y-120196770D01*
X237747912Y-120039376D01*
X237740598Y-119757997D01*
X237740333Y-119643311D01*
X237740333Y-119006187D01*
X238248333Y-119006187D01*
X238543305Y-119015973D01*
G37*
G36*
X206752333Y-103460368D02*
G01*
X207091000Y-103460368D01*
X207312568Y-103474615D01*
X207410492Y-103532202D01*
X207429666Y-103630267D01*
X207401266Y-103741422D01*
X207286477Y-103790548D01*
X207091000Y-103800167D01*
X206752333Y-103800167D01*
X206752333Y-104564715D01*
X205990333Y-104564715D01*
X205990333Y-103800167D01*
X205651666Y-103800167D01*
X205430098Y-103785919D01*
X205332174Y-103728333D01*
X205313000Y-103630267D01*
X205341400Y-103519113D01*
X205456189Y-103469987D01*
X205651666Y-103460368D01*
X205990333Y-103460368D01*
X205990333Y-102780769D01*
X206752333Y-102780769D01*
X206752333Y-103460368D01*
G37*
G36*
X229189000Y-117986789D02*
G01*
X229551034Y-117989628D01*
X229775997Y-118002935D01*
X229896116Y-118033897D01*
X229943620Y-118089699D01*
X229951000Y-118156689D01*
X230010868Y-118298666D01*
X230120333Y-118326588D01*
X230237041Y-118359847D01*
X230284131Y-118489688D01*
X230289666Y-118623913D01*
X230270724Y-118828835D01*
X230196777Y-118911518D01*
X230120333Y-118921237D01*
X229978829Y-118981306D01*
X229951000Y-119091137D01*
X229898060Y-119229502D01*
X229824000Y-119261036D01*
X229720571Y-119331859D01*
X229697000Y-119430936D01*
X229749939Y-119569302D01*
X229824000Y-119600836D01*
X229936248Y-119668835D01*
X229951000Y-119728261D01*
X230021586Y-119832035D01*
X230120333Y-119855685D01*
X230261837Y-119915754D01*
X230289666Y-120025585D01*
X230256518Y-120142683D01*
X230127111Y-120189931D01*
X229993333Y-120195485D01*
X229789094Y-120176479D01*
X229706686Y-120102285D01*
X229697000Y-120025585D01*
X229637131Y-119883608D01*
X229527666Y-119855685D01*
X229389762Y-119802569D01*
X229358333Y-119728261D01*
X229287747Y-119624486D01*
X229189000Y-119600836D01*
X229072291Y-119634095D01*
X229025201Y-119763935D01*
X229019666Y-119898160D01*
X229006560Y-120097436D01*
X228932613Y-120179161D01*
X228745888Y-120195448D01*
X228723333Y-120195485D01*
X228427000Y-120195485D01*
X228427000Y-118623913D01*
X229019666Y-118623913D01*
X229029919Y-118814279D01*
X229093224Y-118898879D01*
X229258400Y-118920572D01*
X229358333Y-118921237D01*
X229575169Y-118912236D01*
X229671532Y-118856659D01*
X229696242Y-118711646D01*
X229697000Y-118623913D01*
X229686747Y-118433546D01*
X229623442Y-118348947D01*
X229458265Y-118327253D01*
X229358333Y-118326588D01*
X229141497Y-118335589D01*
X229045133Y-118391166D01*
X229020423Y-118536179D01*
X229019666Y-118623913D01*
X228427000Y-118623913D01*
X228427000Y-117986789D01*
X229189000Y-117986789D01*
G37*
G36*
X238543305Y-101771157D02*
G01*
X238701675Y-101805848D01*
X238755331Y-101873442D01*
X238756333Y-101888796D01*
X238700410Y-101977398D01*
X238515030Y-102013908D01*
X238417666Y-102016220D01*
X238196098Y-102030468D01*
X238098174Y-102088054D01*
X238079000Y-102186120D01*
X238138868Y-102328097D01*
X238248333Y-102356020D01*
X238385913Y-102391595D01*
X238417666Y-102440970D01*
X238346754Y-102509990D01*
X238248333Y-102525919D01*
X238124386Y-102565969D01*
X238080746Y-102714982D01*
X238079000Y-102780769D01*
X238052389Y-102967311D01*
X237953378Y-103032989D01*
X237909666Y-103035618D01*
X237823088Y-103020570D01*
X237772289Y-102951954D01*
X237747912Y-102794560D01*
X237740598Y-102513181D01*
X237740333Y-102398495D01*
X237740333Y-101761371D01*
X238248333Y-101761371D01*
X238543305Y-101771157D01*
G37*
G36*
X238458639Y-111285538D02*
G01*
X238617008Y-111320229D01*
X238670664Y-111387824D01*
X238671666Y-111403177D01*
X238615743Y-111491779D01*
X238430364Y-111528289D01*
X238333000Y-111530602D01*
X238111431Y-111544849D01*
X238013507Y-111602436D01*
X237994333Y-111700501D01*
X238054201Y-111842479D01*
X238163666Y-111870401D01*
X238301247Y-111905976D01*
X238333000Y-111955351D01*
X238262087Y-112024371D01*
X238163666Y-112040301D01*
X238039719Y-112080350D01*
X237996080Y-112229364D01*
X237994333Y-112295150D01*
X237967722Y-112481692D01*
X237868711Y-112547370D01*
X237825000Y-112550000D01*
X237738421Y-112534952D01*
X237687623Y-112466335D01*
X237663245Y-112308942D01*
X237655932Y-112027562D01*
X237655666Y-111912876D01*
X237655666Y-111275752D01*
X238163666Y-111275752D01*
X238458639Y-111285538D01*
G37*
G36*
X142446639Y-119015973D02*
G01*
X142605008Y-119050664D01*
X142658664Y-119118258D01*
X142659666Y-119133612D01*
X142589080Y-119237386D01*
X142490333Y-119261036D01*
X142395757Y-119279634D01*
X142344653Y-119361331D01*
X142324113Y-119544980D01*
X142321000Y-119770735D01*
X142314821Y-120055413D01*
X142287680Y-120209237D01*
X142226667Y-120271064D01*
X142151666Y-120280434D01*
X142057090Y-120261837D01*
X142005986Y-120180140D01*
X141985446Y-119996491D01*
X141982333Y-119770735D01*
X141976154Y-119486058D01*
X141949013Y-119332234D01*
X141888000Y-119270407D01*
X141813000Y-119261036D01*
X141675095Y-119207920D01*
X141643666Y-119133612D01*
X141682680Y-119059622D01*
X141820980Y-119019897D01*
X142090458Y-119006438D01*
X142151666Y-119006187D01*
X142446639Y-119015973D01*
G37*
G36*
X142079356Y-110604660D02*
G01*
X142250928Y-110635058D01*
X142316970Y-110694659D01*
X142321000Y-110723578D01*
X142388772Y-110836202D01*
X142448000Y-110851003D01*
X142560248Y-110919003D01*
X142575000Y-110978428D01*
X142499271Y-111079591D01*
X142321000Y-111105852D01*
X142119347Y-111067862D01*
X142067000Y-110978428D01*
X142002740Y-110884182D01*
X141797655Y-110851233D01*
X141770666Y-110851003D01*
X141474333Y-110851003D01*
X141474333Y-112210200D01*
X141770666Y-112210200D01*
X141989839Y-112182568D01*
X142066464Y-112094381D01*
X142067000Y-112082776D01*
X142142728Y-111981612D01*
X142321000Y-111955351D01*
X142522652Y-111993342D01*
X142575000Y-112082776D01*
X142507227Y-112195399D01*
X142448000Y-112210200D01*
X142335751Y-112278200D01*
X142321000Y-112337625D01*
X142284259Y-112409100D01*
X142152977Y-112448825D01*
X141895565Y-112464117D01*
X141770666Y-112465050D01*
X141461976Y-112456543D01*
X141290405Y-112426146D01*
X141224363Y-112366544D01*
X141220333Y-112337625D01*
X141152560Y-112225001D01*
X141093333Y-112210200D01*
X141028170Y-112178191D01*
X140989064Y-112062051D01*
X140970376Y-111831613D01*
X140966333Y-111530602D01*
X140972315Y-111181905D01*
X140994018Y-110972640D01*
X141037081Y-110872638D01*
X141093333Y-110851003D01*
X141205581Y-110783003D01*
X141220333Y-110723578D01*
X141257073Y-110652104D01*
X141388355Y-110612378D01*
X141645768Y-110597087D01*
X141770666Y-110596153D01*
X142079356Y-110604660D01*
G37*
G36*
X142516450Y-102554415D02*
G01*
X142565412Y-102669587D01*
X142575000Y-102865719D01*
X142575000Y-103205518D01*
X144014333Y-103205518D01*
X144014333Y-103970067D01*
X142575000Y-103970067D01*
X142575000Y-104309866D01*
X142560799Y-104532175D01*
X142503405Y-104630427D01*
X142405666Y-104649665D01*
X142264162Y-104589597D01*
X142236333Y-104479766D01*
X142176464Y-104337788D01*
X142067000Y-104309866D01*
X141925495Y-104249797D01*
X141897666Y-104139966D01*
X141837798Y-103997989D01*
X141728333Y-103970067D01*
X141622513Y-103945054D01*
X141572474Y-103841195D01*
X141559064Y-103615254D01*
X141559000Y-103587792D01*
X141570079Y-103348901D01*
X141616085Y-103235937D01*
X141716168Y-103205664D01*
X141728333Y-103205518D01*
X141869837Y-103145449D01*
X141897666Y-103035618D01*
X141957535Y-102893641D01*
X142067000Y-102865719D01*
X142208504Y-102805650D01*
X142236333Y-102695819D01*
X142296201Y-102553842D01*
X142405666Y-102525919D01*
X142516450Y-102554415D01*
G37*
G36*
X176571131Y-104330055D02*
G01*
X176542983Y-104204046D01*
X176529980Y-103975569D01*
X176526417Y-103614584D01*
X176526333Y-103502842D01*
X176528456Y-103104921D01*
X176538627Y-102846846D01*
X176562549Y-102698577D01*
X176605923Y-102630079D01*
X176674453Y-102611311D01*
X176695666Y-102610869D01*
X176837170Y-102550801D01*
X176865000Y-102440970D01*
X176878392Y-102358359D01*
X176940643Y-102307899D01*
X177084863Y-102281772D01*
X177344162Y-102272162D01*
X177584666Y-102271070D01*
X177934589Y-102274232D01*
X178148330Y-102288928D01*
X178258999Y-102322975D01*
X178299705Y-102384191D01*
X178304333Y-102440970D01*
X178364201Y-102582947D01*
X178473666Y-102610869D01*
X178615170Y-102670938D01*
X178643000Y-102780769D01*
X178614599Y-102891923D01*
X178499810Y-102941049D01*
X178304333Y-102950669D01*
X178082765Y-102936421D01*
X177984840Y-102878835D01*
X177965666Y-102780769D01*
X177940737Y-102674595D01*
X177837224Y-102624389D01*
X177612037Y-102610934D01*
X177584666Y-102610869D01*
X177203666Y-102610869D01*
X177203666Y-103290468D01*
X177754000Y-103290468D01*
X178051831Y-103295763D01*
X178217879Y-103319350D01*
X178289561Y-103372779D01*
X178304333Y-103460368D01*
X178364201Y-103602345D01*
X178473666Y-103630267D01*
X178579486Y-103655279D01*
X178629525Y-103759139D01*
X178642935Y-103985079D01*
X178643000Y-104012541D01*
X178631920Y-104251433D01*
X178585914Y-104364397D01*
X178485831Y-104394670D01*
X178473666Y-104394816D01*
X178332162Y-104454884D01*
X178304333Y-104564715D01*
X178290940Y-104647326D01*
X178228689Y-104697786D01*
X178084470Y-104723912D01*
X177825171Y-104733523D01*
X177584666Y-104734615D01*
X177234743Y-104731453D01*
X177021002Y-104716757D01*
X176910334Y-104682709D01*
X176869627Y-104621494D01*
X176865000Y-104564715D01*
X176805131Y-104422738D01*
X176695666Y-104394816D01*
X177203666Y-104394816D01*
X177965666Y-104394816D01*
X177965666Y-103630267D01*
X177203666Y-103630267D01*
X177203666Y-104394816D01*
X176695666Y-104394816D01*
X176620124Y-104383632D01*
X176571131Y-104330055D01*
G37*
G36*
X227423356Y-110604660D02*
G01*
X227594928Y-110635058D01*
X227660970Y-110694659D01*
X227665000Y-110723578D01*
X227732772Y-110836202D01*
X227792000Y-110851003D01*
X227904248Y-110919003D01*
X227919000Y-110978428D01*
X227843271Y-111079591D01*
X227665000Y-111105852D01*
X227463347Y-111067862D01*
X227411000Y-110978428D01*
X227346740Y-110884182D01*
X227141655Y-110851233D01*
X227114666Y-110851003D01*
X226916054Y-110864153D01*
X226834602Y-110938347D01*
X226818370Y-111125697D01*
X226818333Y-111148327D01*
X226818333Y-111445652D01*
X227241666Y-111445652D01*
X227507885Y-111459293D01*
X227637910Y-111506523D01*
X227665000Y-111573077D01*
X227732772Y-111685700D01*
X227792000Y-111700501D01*
X227892826Y-111776483D01*
X227919000Y-111955351D01*
X227881135Y-112157677D01*
X227792000Y-112210200D01*
X227679751Y-112278200D01*
X227665000Y-112337625D01*
X227628259Y-112409100D01*
X227496977Y-112448825D01*
X227239565Y-112464117D01*
X227114666Y-112465050D01*
X226805976Y-112456543D01*
X226634405Y-112426146D01*
X226568363Y-112366544D01*
X226564333Y-112337625D01*
X226496560Y-112225001D01*
X226437333Y-112210200D01*
X226325084Y-112142201D01*
X226310333Y-112082776D01*
X226386061Y-111981612D01*
X226564333Y-111955351D01*
X226765985Y-111993342D01*
X226818333Y-112082776D01*
X226882592Y-112177021D01*
X227087677Y-112209970D01*
X227114666Y-112210200D01*
X227313761Y-112195993D01*
X227395422Y-112123933D01*
X227411000Y-111955351D01*
X227401751Y-111804486D01*
X227344884Y-111729255D01*
X227196719Y-111703363D01*
X226987666Y-111700501D01*
X226721448Y-111686860D01*
X226591422Y-111639630D01*
X226564333Y-111573077D01*
X226496560Y-111460453D01*
X226437333Y-111445652D01*
X226343401Y-111381177D01*
X226310562Y-111175406D01*
X226310333Y-111148327D01*
X226337873Y-110928421D01*
X226425766Y-110851540D01*
X226437333Y-110851003D01*
X226549581Y-110783003D01*
X226564333Y-110723578D01*
X226601073Y-110652104D01*
X226732355Y-110612378D01*
X226989768Y-110597087D01*
X227114666Y-110596153D01*
X227423356Y-110604660D01*
G37*
G36*
X230101818Y-101782412D02*
G01*
X230198853Y-101852162D01*
X230205000Y-101888796D01*
X230250717Y-102001844D01*
X230289666Y-102016220D01*
X230371873Y-102080865D01*
X230374333Y-102101170D01*
X230303420Y-102170191D01*
X230205000Y-102186120D01*
X230067419Y-102150545D01*
X230035666Y-102101170D01*
X229964754Y-102032150D01*
X229866333Y-102016220D01*
X229724829Y-102076289D01*
X229697000Y-102186120D01*
X229745038Y-102317996D01*
X229913101Y-102356018D01*
X229914714Y-102356020D01*
X230143560Y-102411145D01*
X230316480Y-102546694D01*
X230374333Y-102695819D01*
X230300770Y-102860298D01*
X230117176Y-102976639D01*
X229879192Y-103031835D01*
X229642462Y-103012883D01*
X229464166Y-102908548D01*
X229368019Y-102767843D01*
X229414140Y-102705582D01*
X229527666Y-102695819D01*
X229665247Y-102731394D01*
X229697000Y-102780769D01*
X229767912Y-102849789D01*
X229866333Y-102865719D01*
X230007837Y-102805650D01*
X230035666Y-102695819D01*
X229987628Y-102563943D01*
X229819565Y-102525921D01*
X229817952Y-102525919D01*
X229603148Y-102480489D01*
X229479285Y-102404562D01*
X229384115Y-102252965D01*
X229362597Y-102102643D01*
X229420856Y-102019137D01*
X229443000Y-102016220D01*
X229518114Y-101947415D01*
X229527666Y-101888796D01*
X229583589Y-101800193D01*
X229768969Y-101763684D01*
X229866333Y-101761371D01*
X230101818Y-101782412D01*
G37*
G36*
X196507666Y-127331271D02*
G01*
X196496113Y-127550197D01*
X196441619Y-127647503D01*
X196314433Y-127670949D01*
X196296000Y-127671070D01*
X196130018Y-127710890D01*
X196084333Y-127840970D01*
X196055933Y-127952124D01*
X195941144Y-128001250D01*
X195745666Y-128010869D01*
X195524098Y-127996622D01*
X195426174Y-127939035D01*
X195407000Y-127840970D01*
X195466868Y-127698992D01*
X195576333Y-127671070D01*
X195687117Y-127642575D01*
X195736079Y-127527402D01*
X195745666Y-127331271D01*
X195745666Y-126991471D01*
X196507666Y-126991471D01*
X196507666Y-127331271D01*
G37*
G36*
X172266543Y-102272617D02*
G01*
X172563935Y-102280204D01*
X172747018Y-102298245D01*
X172843298Y-102331156D01*
X172880283Y-102383355D01*
X172885666Y-102440970D01*
X172872274Y-102523580D01*
X172810023Y-102574040D01*
X172665803Y-102600167D01*
X172406504Y-102609777D01*
X172166000Y-102610869D01*
X171816076Y-102614031D01*
X171602336Y-102628727D01*
X171491667Y-102662775D01*
X171450960Y-102723990D01*
X171446333Y-102780769D01*
X171463485Y-102872716D01*
X171539886Y-102923979D01*
X171712953Y-102946108D01*
X171996666Y-102950669D01*
X172294498Y-102955964D01*
X172460546Y-102979551D01*
X172532228Y-103032980D01*
X172547000Y-103120568D01*
X172606868Y-103262545D01*
X172716333Y-103290468D01*
X172807973Y-103307677D01*
X172859065Y-103384334D01*
X172881121Y-103557980D01*
X172885666Y-103842642D01*
X172880389Y-104141470D01*
X172856880Y-104308073D01*
X172803629Y-104379995D01*
X172716333Y-104394816D01*
X172574829Y-104454884D01*
X172547000Y-104564715D01*
X172533607Y-104647326D01*
X172471356Y-104697786D01*
X172327136Y-104723912D01*
X172067837Y-104733523D01*
X171827333Y-104734615D01*
X171477410Y-104731453D01*
X171263669Y-104716757D01*
X171153000Y-104682709D01*
X171112294Y-104621494D01*
X171107666Y-104564715D01*
X171047798Y-104422738D01*
X170938333Y-104394816D01*
X170796829Y-104334747D01*
X170769000Y-104224916D01*
X170797400Y-104113762D01*
X170912189Y-104064636D01*
X171107666Y-104055016D01*
X171329234Y-104069264D01*
X171427159Y-104126850D01*
X171446333Y-104224916D01*
X171471262Y-104331090D01*
X171574775Y-104381296D01*
X171799962Y-104394751D01*
X171827333Y-104394816D01*
X172208333Y-104394816D01*
X172208333Y-103290468D01*
X170769000Y-103290468D01*
X170769000Y-102271070D01*
X171827333Y-102271070D01*
X172266543Y-102272617D01*
G37*
G36*
X216462543Y-118498035D02*
G01*
X216759935Y-118505622D01*
X216943018Y-118523663D01*
X217039298Y-118556574D01*
X217076283Y-118608773D01*
X217081666Y-118666388D01*
X217072027Y-118736896D01*
X217024771Y-118784638D01*
X216912391Y-118814029D01*
X216707378Y-118829486D01*
X216382224Y-118835423D01*
X216023333Y-118836287D01*
X215584123Y-118834740D01*
X215286730Y-118827154D01*
X215103648Y-118809113D01*
X215007368Y-118776201D01*
X214970382Y-118724002D01*
X214965000Y-118666388D01*
X214974639Y-118595879D01*
X215021895Y-118548137D01*
X215134275Y-118518746D01*
X215339288Y-118503290D01*
X215664441Y-118497352D01*
X216023333Y-118496488D01*
X216462543Y-118498035D01*
G37*
G36*
X229737972Y-103470154D02*
G01*
X229896341Y-103504844D01*
X229949998Y-103572439D01*
X229951000Y-103587792D01*
X229895076Y-103676395D01*
X229709697Y-103712904D01*
X229612333Y-103715217D01*
X229390765Y-103729465D01*
X229292840Y-103787051D01*
X229273666Y-103885117D01*
X229333535Y-104027094D01*
X229443000Y-104055016D01*
X229580580Y-104090591D01*
X229612333Y-104139966D01*
X229541420Y-104208987D01*
X229443000Y-104224916D01*
X229301495Y-104284985D01*
X229273666Y-104394816D01*
X229302066Y-104505970D01*
X229416855Y-104555096D01*
X229612333Y-104564715D01*
X229824407Y-104583556D01*
X229942364Y-104630623D01*
X229951000Y-104649665D01*
X229873880Y-104694914D01*
X229672417Y-104725592D01*
X229443000Y-104734615D01*
X228935000Y-104734615D01*
X228935000Y-103460368D01*
X229443000Y-103460368D01*
X229737972Y-103470154D01*
G37*
G36*
X192782333Y-118156689D02*
G01*
X192793886Y-118375615D01*
X192848380Y-118472921D01*
X192975566Y-118496367D01*
X192994000Y-118496488D01*
X193159981Y-118456668D01*
X193205666Y-118326588D01*
X193265535Y-118184611D01*
X193375000Y-118156689D01*
X193516504Y-118096620D01*
X193544333Y-117986789D01*
X193572733Y-117875634D01*
X193687522Y-117826508D01*
X193883000Y-117816889D01*
X194104568Y-117831137D01*
X194202492Y-117888723D01*
X194221666Y-117986789D01*
X194161798Y-118128766D01*
X194052333Y-118156689D01*
X193910829Y-118216757D01*
X193883000Y-118326588D01*
X193823131Y-118468566D01*
X193713666Y-118496488D01*
X193572162Y-118556557D01*
X193544333Y-118666388D01*
X193484464Y-118808365D01*
X193375000Y-118836287D01*
X193233495Y-118896356D01*
X193205666Y-119006187D01*
X193265535Y-119148164D01*
X193375000Y-119176087D01*
X193507784Y-119225861D01*
X193544333Y-119388461D01*
X193584020Y-119554997D01*
X193713666Y-119600836D01*
X193855170Y-119660904D01*
X193883000Y-119770735D01*
X193942868Y-119912713D01*
X194052333Y-119940635D01*
X194193837Y-120000704D01*
X194221666Y-120110535D01*
X194193266Y-120221689D01*
X194078477Y-120270815D01*
X193883000Y-120280434D01*
X193661431Y-120266187D01*
X193563507Y-120208600D01*
X193544333Y-120110535D01*
X193484464Y-119968557D01*
X193375000Y-119940635D01*
X193233495Y-119880566D01*
X193205666Y-119770735D01*
X193156057Y-119637506D01*
X192994000Y-119600836D01*
X192857626Y-119619383D01*
X192797013Y-119706864D01*
X192782408Y-119911043D01*
X192782333Y-119940635D01*
X192782333Y-120280434D01*
X192105000Y-120280434D01*
X192105000Y-117816889D01*
X192782333Y-117816889D01*
X192782333Y-118156689D01*
G37*
G36*
X178685333Y-125632274D02*
G01*
X179081927Y-125634404D01*
X179339143Y-125644609D01*
X179486917Y-125668611D01*
X179555188Y-125712130D01*
X179573893Y-125780889D01*
X179574333Y-125802174D01*
X179634201Y-125944151D01*
X179743666Y-125972073D01*
X179854450Y-126000568D01*
X179903412Y-126115741D01*
X179913000Y-126311873D01*
X179898799Y-126534182D01*
X179841405Y-126632434D01*
X179743666Y-126651672D01*
X179602162Y-126711740D01*
X179574333Y-126821572D01*
X179634201Y-126963549D01*
X179743666Y-126991471D01*
X179849486Y-127016483D01*
X179899525Y-127120343D01*
X179912935Y-127346283D01*
X179913000Y-127373745D01*
X179901920Y-127612637D01*
X179855914Y-127725601D01*
X179755831Y-127755874D01*
X179743666Y-127756020D01*
X179602162Y-127816088D01*
X179574333Y-127925919D01*
X179563186Y-128001714D01*
X179509788Y-128050871D01*
X179384199Y-128079113D01*
X179156484Y-128092160D01*
X178796702Y-128095735D01*
X178685333Y-128095819D01*
X177796333Y-128095819D01*
X177796333Y-127756020D01*
X178473666Y-127756020D01*
X179235666Y-127756020D01*
X179235666Y-126991471D01*
X178473666Y-126991471D01*
X178473666Y-127756020D01*
X177796333Y-127756020D01*
X177796333Y-126651672D01*
X178473666Y-126651672D01*
X179235666Y-126651672D01*
X179235666Y-125972073D01*
X178473666Y-125972073D01*
X178473666Y-126651672D01*
X177796333Y-126651672D01*
X177796333Y-125632274D01*
X178685333Y-125632274D01*
G37*
G36*
X217676751Y-126231483D02*
G01*
X217919393Y-126248162D01*
X218049647Y-126281458D01*
X218095897Y-126335866D01*
X218097666Y-126354347D01*
X218021938Y-126455511D01*
X217843666Y-126481772D01*
X217589666Y-126481772D01*
X217589666Y-128095819D01*
X216997000Y-128095819D01*
X216997000Y-126481772D01*
X216743000Y-126481772D01*
X216541347Y-126443782D01*
X216489000Y-126354347D01*
X216517786Y-126293605D01*
X216623070Y-126255165D01*
X216833238Y-126234530D01*
X217176677Y-126227203D01*
X217293333Y-126226923D01*
X217676751Y-126231483D01*
G37*
G36*
X231044239Y-118005794D02*
G01*
X231126646Y-118079989D01*
X231136333Y-118156689D01*
X231196201Y-118298666D01*
X231305666Y-118326588D01*
X231447170Y-118386657D01*
X231475000Y-118496488D01*
X231534868Y-118638465D01*
X231644333Y-118666388D01*
X231755117Y-118637892D01*
X231804079Y-118522720D01*
X231813666Y-118326588D01*
X231822637Y-118109027D01*
X231878029Y-118012341D01*
X232022559Y-117987549D01*
X232110000Y-117986789D01*
X232406333Y-117986789D01*
X232406333Y-120195485D01*
X232110000Y-120195485D01*
X231911388Y-120182334D01*
X231829935Y-120108141D01*
X231813703Y-119920791D01*
X231813666Y-119898160D01*
X231794724Y-119693238D01*
X231720777Y-119610555D01*
X231644333Y-119600836D01*
X231502829Y-119540767D01*
X231475000Y-119430936D01*
X231415131Y-119288959D01*
X231305666Y-119261036D01*
X231207809Y-119281316D01*
X231156831Y-119368998D01*
X231138139Y-119564345D01*
X231136333Y-119728261D01*
X231136333Y-120195485D01*
X230543666Y-120195485D01*
X230543666Y-117986789D01*
X230840000Y-117986789D01*
X231044239Y-118005794D01*
G37*
G36*
X150705418Y-126231483D02*
G01*
X150948060Y-126248162D01*
X151078313Y-126281458D01*
X151124564Y-126335866D01*
X151126333Y-126354347D01*
X151089592Y-126425822D01*
X150958311Y-126465548D01*
X150700898Y-126480839D01*
X150576000Y-126481772D01*
X150025666Y-126481772D01*
X150025666Y-126779097D01*
X150038773Y-126978373D01*
X150112719Y-127060098D01*
X150299444Y-127076384D01*
X150322000Y-127076421D01*
X150541173Y-127104053D01*
X150617797Y-127192240D01*
X150618333Y-127203846D01*
X150554073Y-127298091D01*
X150348988Y-127331040D01*
X150322000Y-127331271D01*
X150139919Y-127339431D01*
X150053699Y-127394739D01*
X150027494Y-127543431D01*
X150025666Y-127713545D01*
X150018303Y-127948611D01*
X149975790Y-128059946D01*
X149867490Y-128093658D01*
X149771666Y-128095819D01*
X149517666Y-128095819D01*
X149517666Y-126226923D01*
X150322000Y-126226923D01*
X150705418Y-126231483D01*
G37*
G36*
X152568085Y-126231483D02*
G01*
X152810727Y-126248162D01*
X152940980Y-126281458D01*
X152987231Y-126335866D01*
X152989000Y-126354347D01*
X152913271Y-126455511D01*
X152735000Y-126481772D01*
X152481000Y-126481772D01*
X152481000Y-128095819D01*
X151888333Y-128095819D01*
X151888333Y-126481772D01*
X151634333Y-126481772D01*
X151432681Y-126443782D01*
X151380333Y-126354347D01*
X151409119Y-126293605D01*
X151514403Y-126255165D01*
X151724571Y-126234530D01*
X152068010Y-126227203D01*
X152184666Y-126226923D01*
X152568085Y-126231483D01*
G37*
G36*
X228003666Y-103460368D02*
G01*
X228246839Y-103485897D01*
X228341563Y-103559497D01*
X228342333Y-103569039D01*
X228404859Y-103698423D01*
X228511666Y-103800167D01*
X228653459Y-103985564D01*
X228663278Y-104206630D01*
X228562455Y-104426889D01*
X228372324Y-104609862D01*
X228114217Y-104719070D01*
X227965181Y-104734615D01*
X227665000Y-104734615D01*
X227665000Y-104139966D01*
X228003666Y-104139966D01*
X228011799Y-104414072D01*
X228045654Y-104538440D01*
X228119416Y-104532834D01*
X228221380Y-104443358D01*
X228322360Y-104259898D01*
X228342333Y-104139966D01*
X228294181Y-103958958D01*
X228182956Y-103793152D01*
X228058503Y-103715483D01*
X228052047Y-103715217D01*
X228024441Y-103791667D01*
X228006924Y-103987123D01*
X228003666Y-104139966D01*
X227665000Y-104139966D01*
X227665000Y-103460368D01*
X228003666Y-103460368D01*
G37*
G36*
X156375666Y-110766053D02*
G01*
X156377922Y-111103106D01*
X156391886Y-111304927D01*
X156428356Y-111406179D01*
X156498128Y-111441528D01*
X156587333Y-111445652D01*
X156753314Y-111405832D01*
X156799000Y-111275752D01*
X156858868Y-111133775D01*
X156968333Y-111105852D01*
X157109837Y-111165921D01*
X157137666Y-111275752D01*
X157197535Y-111417729D01*
X157307000Y-111445652D01*
X157391369Y-111431464D01*
X157441933Y-111366115D01*
X157467208Y-111215431D01*
X157475710Y-110945234D01*
X157476333Y-110766053D01*
X157476333Y-110086454D01*
X158153666Y-110086454D01*
X158153666Y-112550000D01*
X157815000Y-112550000D01*
X157593431Y-112535752D01*
X157495507Y-112478166D01*
X157476333Y-112380100D01*
X157416464Y-112238123D01*
X157307000Y-112210200D01*
X157165495Y-112150132D01*
X157137666Y-112040301D01*
X157077798Y-111898323D01*
X156968333Y-111870401D01*
X156826829Y-111930470D01*
X156799000Y-112040301D01*
X156749391Y-112173530D01*
X156587333Y-112210200D01*
X156421352Y-112250020D01*
X156375666Y-112380100D01*
X156347266Y-112491255D01*
X156232477Y-112540381D01*
X156037000Y-112550000D01*
X155698333Y-112550000D01*
X155698333Y-110086454D01*
X156375666Y-110086454D01*
X156375666Y-110766053D01*
G37*
G36*
X227815818Y-101782412D02*
G01*
X227912853Y-101852162D01*
X227919000Y-101888796D01*
X227873282Y-102001844D01*
X227834333Y-102016220D01*
X227786035Y-102092622D01*
X227755380Y-102287968D01*
X227749666Y-102440970D01*
X227764896Y-102683265D01*
X227803835Y-102837055D01*
X227834333Y-102865719D01*
X227916539Y-102930363D01*
X227919000Y-102950669D01*
X227843887Y-103003864D01*
X227656248Y-103033452D01*
X227580333Y-103035618D01*
X227368259Y-103016778D01*
X227250302Y-102969711D01*
X227241666Y-102950669D01*
X227306095Y-102868187D01*
X227326333Y-102865719D01*
X227374630Y-102789317D01*
X227405286Y-102593971D01*
X227411000Y-102440970D01*
X227395770Y-102198674D01*
X227356831Y-102044884D01*
X227326333Y-102016220D01*
X227251218Y-101947415D01*
X227241666Y-101888796D01*
X227297589Y-101800193D01*
X227482969Y-101763684D01*
X227580333Y-101761371D01*
X227815818Y-101782412D01*
G37*
G36*
X230628333Y-110596153D02*
G01*
X230975867Y-110602155D01*
X231184435Y-110623931D01*
X231284104Y-110667139D01*
X231305666Y-110723578D01*
X231373439Y-110836202D01*
X231432666Y-110851003D01*
X231526598Y-110915477D01*
X231559437Y-111121248D01*
X231559666Y-111148327D01*
X231532126Y-111368234D01*
X231444233Y-111445114D01*
X231432666Y-111445652D01*
X231320418Y-111513651D01*
X231305666Y-111573077D01*
X231237893Y-111685700D01*
X231178666Y-111700501D01*
X231066418Y-111768501D01*
X231051666Y-111827926D01*
X231119439Y-111940550D01*
X231178666Y-111955351D01*
X231290915Y-112023350D01*
X231305666Y-112082776D01*
X231373439Y-112195399D01*
X231432666Y-112210200D01*
X231544915Y-112278200D01*
X231559666Y-112337625D01*
X231483938Y-112438788D01*
X231305666Y-112465050D01*
X231104014Y-112427059D01*
X231051666Y-112337625D01*
X230981080Y-112233851D01*
X230882333Y-112210200D01*
X230744429Y-112157084D01*
X230713000Y-112082776D01*
X230645227Y-111970152D01*
X230586000Y-111955351D01*
X230485173Y-112031332D01*
X230459000Y-112210200D01*
X230438020Y-112390710D01*
X230339060Y-112457242D01*
X230205000Y-112465050D01*
X229951000Y-112465050D01*
X229951000Y-111148327D01*
X230459000Y-111148327D01*
X230472106Y-111347604D01*
X230546052Y-111429328D01*
X230732777Y-111445615D01*
X230755333Y-111445652D01*
X230953945Y-111432501D01*
X231035397Y-111358308D01*
X231051629Y-111170958D01*
X231051666Y-111148327D01*
X231038560Y-110949051D01*
X230964613Y-110867326D01*
X230777888Y-110851040D01*
X230755333Y-110851003D01*
X230556721Y-110864153D01*
X230475269Y-110938347D01*
X230459036Y-111125697D01*
X230459000Y-111148327D01*
X229951000Y-111148327D01*
X229951000Y-110596153D01*
X230628333Y-110596153D01*
G37*
G36*
X221367234Y-125731471D02*
G01*
X221465159Y-125789058D01*
X221484333Y-125887123D01*
X221537272Y-126025489D01*
X221611333Y-126057023D01*
X221723581Y-126125023D01*
X221738333Y-126184448D01*
X221808919Y-126288222D01*
X221907666Y-126311873D01*
X222049170Y-126371941D01*
X222077000Y-126481772D01*
X222043851Y-126598871D01*
X221914444Y-126646118D01*
X221780666Y-126651672D01*
X221484333Y-126651672D01*
X221484333Y-127925919D01*
X220807000Y-127925919D01*
X220807000Y-126651672D01*
X220510666Y-126651672D01*
X220306427Y-126632667D01*
X220224019Y-126558472D01*
X220214333Y-126481772D01*
X220274201Y-126339795D01*
X220383666Y-126311873D01*
X220521570Y-126258756D01*
X220553000Y-126184448D01*
X220620772Y-126071824D01*
X220680000Y-126057023D01*
X220783428Y-125986201D01*
X220807000Y-125887123D01*
X220835400Y-125775969D01*
X220950189Y-125726843D01*
X221145666Y-125717224D01*
X221367234Y-125731471D01*
G37*
G36*
X226012639Y-103470154D02*
G01*
X226171008Y-103504844D01*
X226224664Y-103572439D01*
X226225666Y-103587792D01*
X226169743Y-103676395D01*
X225984364Y-103712904D01*
X225887000Y-103715217D01*
X225665431Y-103729465D01*
X225567507Y-103787051D01*
X225548333Y-103885117D01*
X225608201Y-104027094D01*
X225717666Y-104055016D01*
X225855247Y-104090591D01*
X225887000Y-104139966D01*
X225816087Y-104208987D01*
X225717666Y-104224916D01*
X225576162Y-104284985D01*
X225548333Y-104394816D01*
X225576733Y-104505970D01*
X225691522Y-104555096D01*
X225887000Y-104564715D01*
X226099073Y-104583556D01*
X226217030Y-104630623D01*
X226225666Y-104649665D01*
X226148547Y-104694914D01*
X225947084Y-104725592D01*
X225717666Y-104734615D01*
X225209666Y-104734615D01*
X225209666Y-103460368D01*
X225717666Y-103460368D01*
X226012639Y-103470154D01*
G37*
G36*
X202095666Y-128095819D02*
G01*
X201418333Y-128095819D01*
X201418333Y-127416220D01*
X202095666Y-127416220D01*
X202095666Y-128095819D01*
G37*
G36*
X141201818Y-119027228D02*
G01*
X141298853Y-119096978D01*
X141305000Y-119133612D01*
X141350717Y-119246660D01*
X141389666Y-119261036D01*
X141471873Y-119325681D01*
X141474333Y-119345986D01*
X141403420Y-119415007D01*
X141305000Y-119430936D01*
X141167419Y-119395361D01*
X141135666Y-119345986D01*
X141064754Y-119276966D01*
X140966333Y-119261036D01*
X140824829Y-119321105D01*
X140797000Y-119430936D01*
X140845038Y-119562812D01*
X141013101Y-119600834D01*
X141014714Y-119600836D01*
X141243560Y-119655961D01*
X141416480Y-119791510D01*
X141474333Y-119940635D01*
X141400770Y-120105114D01*
X141217176Y-120221455D01*
X140979192Y-120276651D01*
X140742462Y-120257699D01*
X140564166Y-120153364D01*
X140468019Y-120012659D01*
X140514140Y-119950398D01*
X140627666Y-119940635D01*
X140765247Y-119976210D01*
X140797000Y-120025585D01*
X140867912Y-120094605D01*
X140966333Y-120110535D01*
X141107837Y-120050466D01*
X141135666Y-119940635D01*
X141087628Y-119808760D01*
X140919565Y-119770737D01*
X140917952Y-119770735D01*
X140703148Y-119725305D01*
X140579285Y-119649379D01*
X140484115Y-119497781D01*
X140462597Y-119347459D01*
X140520856Y-119263953D01*
X140543000Y-119261036D01*
X140618114Y-119192231D01*
X140627666Y-119133612D01*
X140683589Y-119045009D01*
X140868969Y-119008500D01*
X140966333Y-119006187D01*
X141201818Y-119027228D01*
G37*
G36*
X239669151Y-103481409D02*
G01*
X239766186Y-103551159D01*
X239772333Y-103587792D01*
X239818050Y-103700841D01*
X239857000Y-103715217D01*
X239932220Y-103777131D01*
X239926419Y-103919180D01*
X239845722Y-104075824D01*
X239820714Y-104103559D01*
X239643522Y-104216352D01*
X239503391Y-104175734D01*
X239476000Y-104139966D01*
X239482712Y-104061686D01*
X239513336Y-104055016D01*
X239586168Y-103983914D01*
X239603000Y-103885117D01*
X239543131Y-103743139D01*
X239433666Y-103715217D01*
X239296086Y-103750792D01*
X239264333Y-103800167D01*
X239193420Y-103869187D01*
X239095000Y-103885117D01*
X238957419Y-103849542D01*
X238925666Y-103800167D01*
X238990095Y-103717686D01*
X239010333Y-103715217D01*
X239085447Y-103646411D01*
X239095000Y-103587792D01*
X239150923Y-103499190D01*
X239336302Y-103462680D01*
X239433666Y-103460368D01*
X239669151Y-103481409D01*
G37*
G36*
X144016751Y-110600714D02*
G01*
X144259393Y-110617393D01*
X144389647Y-110650689D01*
X144435897Y-110705097D01*
X144437666Y-110723578D01*
X144361938Y-110824742D01*
X144183666Y-110851003D01*
X143929666Y-110851003D01*
X143929666Y-112465050D01*
X143337000Y-112465050D01*
X143337000Y-110851003D01*
X143083000Y-110851003D01*
X142881347Y-110813012D01*
X142829000Y-110723578D01*
X142857786Y-110662836D01*
X142963070Y-110624396D01*
X143173238Y-110603761D01*
X143516677Y-110596434D01*
X143633333Y-110596153D01*
X144016751Y-110600714D01*
G37*
G36*
X143261803Y-117325574D02*
G01*
X143312913Y-117406498D01*
X143333688Y-117588624D01*
X143337000Y-117822957D01*
X143313505Y-118192598D01*
X143245340Y-118421123D01*
X143216047Y-118460081D01*
X143030622Y-118550941D01*
X142778548Y-118573444D01*
X142541673Y-118528183D01*
X142426833Y-118454367D01*
X142367981Y-118304093D01*
X142329977Y-118042698D01*
X142321000Y-117820475D01*
X142327093Y-117534584D01*
X142353893Y-117379666D01*
X142414181Y-117316981D01*
X142490333Y-117307190D01*
X142581973Y-117324400D01*
X142633065Y-117401057D01*
X142655121Y-117574702D01*
X142659666Y-117859364D01*
X142664944Y-118158192D01*
X142688452Y-118324796D01*
X142741703Y-118396717D01*
X142829000Y-118411538D01*
X142920640Y-118394328D01*
X142971732Y-118317672D01*
X142993788Y-118144026D01*
X142998333Y-117859364D01*
X143003610Y-117560536D01*
X143027119Y-117393933D01*
X143080370Y-117322011D01*
X143167666Y-117307190D01*
X143261803Y-117325574D01*
G37*
G36*
X218827234Y-102285317D02*
G01*
X218925159Y-102342904D01*
X218944333Y-102440970D01*
X219004201Y-102582947D01*
X219113666Y-102610869D01*
X219255170Y-102670938D01*
X219283000Y-102780769D01*
X219223131Y-102922746D01*
X219113666Y-102950669D01*
X218972162Y-102890600D01*
X218944333Y-102780769D01*
X218915933Y-102669614D01*
X218801144Y-102620488D01*
X218605666Y-102610869D01*
X218267000Y-102610869D01*
X218267000Y-103290468D01*
X218605666Y-103290468D01*
X218827234Y-103304715D01*
X218925159Y-103362302D01*
X218944333Y-103460368D01*
X218915933Y-103571522D01*
X218801144Y-103620648D01*
X218605666Y-103630267D01*
X218387469Y-103641859D01*
X218290488Y-103696535D01*
X218267120Y-103824147D01*
X218267000Y-103842642D01*
X218227313Y-104009178D01*
X218097666Y-104055016D01*
X217956162Y-104115085D01*
X217928333Y-104224916D01*
X217946869Y-104319808D01*
X218028293Y-104371083D01*
X218211330Y-104391692D01*
X218436333Y-104394816D01*
X218720061Y-104388616D01*
X218873373Y-104361384D01*
X218934994Y-104300168D01*
X218944333Y-104224916D01*
X219004201Y-104082939D01*
X219113666Y-104055016D01*
X219255170Y-104115085D01*
X219283000Y-104224916D01*
X219223131Y-104366893D01*
X219113666Y-104394816D01*
X218972162Y-104454884D01*
X218944333Y-104564715D01*
X218934694Y-104635224D01*
X218887438Y-104682966D01*
X218775057Y-104712357D01*
X218570044Y-104727813D01*
X218244891Y-104733751D01*
X217886000Y-104734615D01*
X217446789Y-104733068D01*
X217149397Y-104725481D01*
X216966315Y-104707440D01*
X216870035Y-104674529D01*
X216833049Y-104622330D01*
X216827666Y-104564715D01*
X216887535Y-104422738D01*
X216997000Y-104394816D01*
X217138504Y-104334747D01*
X217166333Y-104224916D01*
X217226201Y-104082939D01*
X217335666Y-104055016D01*
X217468451Y-104005242D01*
X217505000Y-103842642D01*
X217465313Y-103676106D01*
X217335666Y-103630267D01*
X217194162Y-103570199D01*
X217166333Y-103460368D01*
X217226201Y-103318390D01*
X217335666Y-103290468D01*
X217477170Y-103230399D01*
X217505000Y-103120568D01*
X217554608Y-102987339D01*
X217716666Y-102950669D01*
X217882647Y-102910849D01*
X217928333Y-102780769D01*
X217988201Y-102638792D01*
X218097666Y-102610869D01*
X218239170Y-102550801D01*
X218267000Y-102440970D01*
X218295400Y-102329815D01*
X218410189Y-102280689D01*
X218605666Y-102271070D01*
X218827234Y-102285317D01*
G37*
G36*
X188054474Y-104265944D02*
G01*
X188041064Y-104040003D01*
X188041000Y-104012541D01*
X188052079Y-103773650D01*
X188098085Y-103660686D01*
X188198168Y-103630413D01*
X188210333Y-103630267D01*
X188351837Y-103570199D01*
X188379666Y-103460368D01*
X188319798Y-103318390D01*
X188210333Y-103290468D01*
X188718333Y-103290468D01*
X189480333Y-103290468D01*
X189480333Y-102610869D01*
X188718333Y-102610869D01*
X188718333Y-103290468D01*
X188210333Y-103290468D01*
X188099549Y-103261973D01*
X188050587Y-103146800D01*
X188041000Y-102950669D01*
X188055200Y-102728359D01*
X188112594Y-102630107D01*
X188210333Y-102610869D01*
X188351837Y-102550801D01*
X188379666Y-102440970D01*
X188393059Y-102358359D01*
X188455310Y-102307899D01*
X188599529Y-102281772D01*
X188858828Y-102272162D01*
X189099333Y-102271070D01*
X189449256Y-102274232D01*
X189662997Y-102288928D01*
X189773665Y-102322975D01*
X189814372Y-102384191D01*
X189819000Y-102440970D01*
X189878868Y-102582947D01*
X189988333Y-102610869D01*
X190099117Y-102639364D01*
X190148079Y-102754537D01*
X190157666Y-102950669D01*
X190143466Y-103172978D01*
X190086072Y-103271230D01*
X189988333Y-103290468D01*
X189846829Y-103350536D01*
X189819000Y-103460368D01*
X189878868Y-103602345D01*
X189988333Y-103630267D01*
X190094153Y-103655279D01*
X190144192Y-103759139D01*
X190157602Y-103985079D01*
X190157666Y-104012541D01*
X190146587Y-104251433D01*
X190100581Y-104364397D01*
X190000497Y-104394670D01*
X189988333Y-104394816D01*
X189846829Y-104454884D01*
X189819000Y-104564715D01*
X189805607Y-104647326D01*
X189743356Y-104697786D01*
X189599136Y-104723912D01*
X189339837Y-104733523D01*
X189099333Y-104734615D01*
X188749410Y-104731453D01*
X188535669Y-104716757D01*
X188425000Y-104682709D01*
X188384294Y-104621494D01*
X188379666Y-104564715D01*
X188319798Y-104422738D01*
X188210333Y-104394816D01*
X188718333Y-104394816D01*
X189480333Y-104394816D01*
X189480333Y-103630267D01*
X188718333Y-103630267D01*
X188718333Y-104394816D01*
X188210333Y-104394816D01*
X188104513Y-104369804D01*
X188054474Y-104265944D01*
G37*
G36*
X239430759Y-104287648D02*
G01*
X239433666Y-104309866D01*
X239369237Y-104392347D01*
X239349000Y-104394816D01*
X239266793Y-104459460D01*
X239264333Y-104479766D01*
X239339445Y-104532961D01*
X239527084Y-104562549D01*
X239603000Y-104564715D01*
X239815073Y-104583556D01*
X239933030Y-104630623D01*
X239941666Y-104649665D01*
X239864547Y-104694914D01*
X239663084Y-104725592D01*
X239433666Y-104734615D01*
X239141761Y-104725615D01*
X238984550Y-104692662D01*
X238928061Y-104626828D01*
X238925666Y-104601122D01*
X238981954Y-104431974D01*
X239046619Y-104346273D01*
X239197711Y-104250785D01*
X239347531Y-104229195D01*
X239430759Y-104287648D01*
G37*
G36*
X229021578Y-101776419D02*
G01*
X229072376Y-101845035D01*
X229096754Y-102002429D01*
X229104067Y-102283808D01*
X229104333Y-102398495D01*
X229100333Y-102724248D01*
X229082097Y-102915381D01*
X229040265Y-103007102D01*
X228965481Y-103034619D01*
X228935000Y-103035618D01*
X228794973Y-102979824D01*
X228765666Y-102902126D01*
X228714146Y-102750290D01*
X228599292Y-102599233D01*
X228480663Y-102526144D01*
X228475380Y-102525919D01*
X228441386Y-102599864D01*
X228427002Y-102777982D01*
X228427000Y-102780769D01*
X228400389Y-102967311D01*
X228301378Y-103032989D01*
X228257666Y-103035618D01*
X228171088Y-103020570D01*
X228120289Y-102951954D01*
X228095912Y-102794560D01*
X228088598Y-102513181D01*
X228088333Y-102398495D01*
X228092332Y-102072741D01*
X228110569Y-101881608D01*
X228152401Y-101789888D01*
X228227185Y-101762370D01*
X228257666Y-101761371D01*
X228395205Y-101799456D01*
X228427000Y-101852389D01*
X228481154Y-101977469D01*
X228598304Y-102114598D01*
X228710480Y-102185633D01*
X228717285Y-102186120D01*
X228753690Y-102113245D01*
X228765666Y-101973745D01*
X228805353Y-101807209D01*
X228935000Y-101761371D01*
X229021578Y-101776419D01*
G37*
G36*
X224871000Y-101761371D02*
G01*
X225137218Y-101775012D01*
X225267244Y-101822242D01*
X225294333Y-101888796D01*
X225340050Y-102001844D01*
X225379000Y-102016220D01*
X225458398Y-102074275D01*
X225445793Y-102212576D01*
X225353228Y-102377328D01*
X225281378Y-102452243D01*
X225099090Y-102610869D01*
X225281378Y-102769496D01*
X225433876Y-102926582D01*
X225439962Y-103011598D01*
X225313024Y-103035618D01*
X225149332Y-102971524D01*
X225040333Y-102865719D01*
X224922814Y-102735282D01*
X224852309Y-102695819D01*
X224798661Y-102767124D01*
X224786333Y-102865719D01*
X224726464Y-103007696D01*
X224617000Y-103035618D01*
X224530421Y-103020570D01*
X224479623Y-102951954D01*
X224455245Y-102794560D01*
X224447932Y-102513181D01*
X224447666Y-102398495D01*
X224447666Y-102186120D01*
X224786333Y-102186120D01*
X224846201Y-102328097D01*
X224955666Y-102356020D01*
X225097170Y-102295951D01*
X225125000Y-102186120D01*
X225065131Y-102044143D01*
X224955666Y-102016220D01*
X224814162Y-102076289D01*
X224786333Y-102186120D01*
X224447666Y-102186120D01*
X224447666Y-101761371D01*
X224871000Y-101761371D01*
G37*
G36*
X159138589Y-117735101D02*
G01*
X159352330Y-117749797D01*
X159462999Y-117783845D01*
X159503705Y-117845061D01*
X159508333Y-117901839D01*
X159568201Y-118043816D01*
X159677666Y-118071739D01*
X159819170Y-118131807D01*
X159847000Y-118241638D01*
X159818599Y-118352793D01*
X159703810Y-118401919D01*
X159508333Y-118411538D01*
X159286765Y-118397290D01*
X159188840Y-118339704D01*
X159169666Y-118241638D01*
X159144737Y-118135465D01*
X159041224Y-118085258D01*
X158816037Y-118071804D01*
X158788666Y-118071739D01*
X158407666Y-118071739D01*
X158407666Y-118751337D01*
X158958000Y-118751337D01*
X159255831Y-118756633D01*
X159421879Y-118780219D01*
X159493561Y-118833649D01*
X159508333Y-118921237D01*
X159568201Y-119063214D01*
X159677666Y-119091137D01*
X159783486Y-119116149D01*
X159833525Y-119220008D01*
X159846935Y-119445949D01*
X159847000Y-119473411D01*
X159835920Y-119712302D01*
X159789914Y-119825267D01*
X159689831Y-119855539D01*
X159677666Y-119855685D01*
X159536162Y-119915754D01*
X159508333Y-120025585D01*
X159494940Y-120108195D01*
X159432689Y-120158655D01*
X159288470Y-120184782D01*
X159029171Y-120194392D01*
X158788666Y-120195485D01*
X158438743Y-120192323D01*
X158225002Y-120177627D01*
X158114334Y-120143579D01*
X158073627Y-120082364D01*
X158069000Y-120025585D01*
X158009131Y-119883608D01*
X157899666Y-119855685D01*
X157758162Y-119795617D01*
X157730333Y-119685786D01*
X157758733Y-119574631D01*
X157873522Y-119525505D01*
X158069000Y-119515886D01*
X158290568Y-119530134D01*
X158388492Y-119587720D01*
X158407666Y-119685786D01*
X158432595Y-119791959D01*
X158536108Y-119842166D01*
X158761296Y-119855620D01*
X158788666Y-119855685D01*
X159169666Y-119855685D01*
X159169666Y-119091137D01*
X158619333Y-119091137D01*
X158321501Y-119085842D01*
X158155453Y-119062255D01*
X158083771Y-119008825D01*
X158069000Y-118921237D01*
X158009131Y-118779260D01*
X157899666Y-118751337D01*
X157788882Y-118722842D01*
X157739920Y-118607669D01*
X157730333Y-118411538D01*
X157744533Y-118189229D01*
X157801927Y-118090977D01*
X157899666Y-118071739D01*
X158041170Y-118011670D01*
X158069000Y-117901839D01*
X158082392Y-117819229D01*
X158144643Y-117768769D01*
X158288863Y-117742642D01*
X158548162Y-117733032D01*
X158788666Y-117731939D01*
X159138589Y-117735101D01*
G37*
G36*
X238928030Y-119559222D02*
G01*
X238948028Y-119362682D01*
X238997573Y-119263937D01*
X239010333Y-119261036D01*
X239085447Y-119192231D01*
X239095000Y-119133612D01*
X239150923Y-119045009D01*
X239336302Y-119008500D01*
X239433666Y-119006187D01*
X239669151Y-119027228D01*
X239766186Y-119096978D01*
X239772333Y-119133612D01*
X239818050Y-119246660D01*
X239857000Y-119261036D01*
X239939206Y-119325681D01*
X239941666Y-119345986D01*
X239870754Y-119415007D01*
X239772333Y-119430936D01*
X239634752Y-119395361D01*
X239603000Y-119345986D01*
X239532087Y-119276966D01*
X239433666Y-119261036D01*
X239292162Y-119321105D01*
X239264333Y-119430936D01*
X239312371Y-119562812D01*
X239480434Y-119600834D01*
X239482047Y-119600836D01*
X239710894Y-119655961D01*
X239883813Y-119791510D01*
X239941666Y-119940635D01*
X239868103Y-120105114D01*
X239684509Y-120221455D01*
X239446526Y-120276651D01*
X239209795Y-120257699D01*
X239031500Y-120153364D01*
X238971146Y-120012788D01*
X238959549Y-119940635D01*
X239264333Y-119940635D01*
X239324201Y-120082612D01*
X239433666Y-120110535D01*
X239575170Y-120050466D01*
X239603000Y-119940635D01*
X239543131Y-119798658D01*
X239433666Y-119770735D01*
X239292162Y-119830804D01*
X239264333Y-119940635D01*
X238959549Y-119940635D01*
X238936196Y-119795332D01*
X238928030Y-119559222D01*
G37*
G36*
X184113901Y-125646522D02*
G01*
X184211825Y-125704108D01*
X184231000Y-125802174D01*
X184280608Y-125935403D01*
X184442666Y-125972073D01*
X184608647Y-126011893D01*
X184654333Y-126141973D01*
X184714201Y-126283950D01*
X184823666Y-126311873D01*
X184934450Y-126283377D01*
X184983412Y-126168205D01*
X184993000Y-125972073D01*
X184993000Y-125632274D01*
X185670333Y-125632274D01*
X185670333Y-128095819D01*
X184993000Y-128095819D01*
X184993000Y-127756020D01*
X184978799Y-127533711D01*
X184921405Y-127435459D01*
X184823666Y-127416220D01*
X184690881Y-127366446D01*
X184654333Y-127203846D01*
X184619363Y-127042185D01*
X184481673Y-126992368D01*
X184442666Y-126991471D01*
X184328883Y-127001154D01*
X184265508Y-127055790D01*
X184237825Y-127193765D01*
X184231122Y-127453462D01*
X184231000Y-127543645D01*
X184231000Y-128095819D01*
X183553666Y-128095819D01*
X183553666Y-125632274D01*
X183892333Y-125632274D01*
X184113901Y-125646522D01*
G37*
G36*
X230381307Y-103477577D02*
G01*
X230432398Y-103554234D01*
X230454454Y-103727880D01*
X230459000Y-104012541D01*
X230459000Y-104564715D01*
X230797666Y-104564715D01*
X231009740Y-104583556D01*
X231127697Y-104630623D01*
X231136333Y-104649665D01*
X231059213Y-104694914D01*
X230857750Y-104725592D01*
X230628333Y-104734615D01*
X230120333Y-104734615D01*
X230120333Y-104097491D01*
X230124332Y-103771738D01*
X230142569Y-103580605D01*
X230184401Y-103488884D01*
X230259185Y-103461367D01*
X230289666Y-103460368D01*
X230381307Y-103477577D01*
G37*
G36*
X220553000Y-117986789D02*
G01*
X220915034Y-117989628D01*
X221139997Y-118002935D01*
X221260116Y-118033897D01*
X221307620Y-118089699D01*
X221315000Y-118156689D01*
X221374868Y-118298666D01*
X221484333Y-118326588D01*
X221601041Y-118359847D01*
X221648131Y-118489688D01*
X221653666Y-118623913D01*
X221634724Y-118828835D01*
X221560777Y-118911518D01*
X221484333Y-118921237D01*
X221342829Y-118981306D01*
X221315000Y-119091137D01*
X221262060Y-119229502D01*
X221188000Y-119261036D01*
X221084571Y-119331859D01*
X221061000Y-119430936D01*
X221113939Y-119569302D01*
X221188000Y-119600836D01*
X221300248Y-119668835D01*
X221315000Y-119728261D01*
X221385586Y-119832035D01*
X221484333Y-119855685D01*
X221625837Y-119915754D01*
X221653666Y-120025585D01*
X221620518Y-120142683D01*
X221491111Y-120189931D01*
X221357333Y-120195485D01*
X221153094Y-120176479D01*
X221070686Y-120102285D01*
X221061000Y-120025585D01*
X221001131Y-119883608D01*
X220891666Y-119855685D01*
X220753762Y-119802569D01*
X220722333Y-119728261D01*
X220651747Y-119624486D01*
X220553000Y-119600836D01*
X220436291Y-119634095D01*
X220389201Y-119763935D01*
X220383666Y-119898160D01*
X220370560Y-120097436D01*
X220296613Y-120179161D01*
X220109888Y-120195448D01*
X220087333Y-120195485D01*
X219791000Y-120195485D01*
X219791000Y-118623913D01*
X220383666Y-118623913D01*
X220393919Y-118814279D01*
X220457224Y-118898879D01*
X220622400Y-118920572D01*
X220722333Y-118921237D01*
X220939169Y-118912236D01*
X221035532Y-118856659D01*
X221060242Y-118711646D01*
X221061000Y-118623913D01*
X221050747Y-118433546D01*
X220987442Y-118348947D01*
X220822265Y-118327253D01*
X220722333Y-118326588D01*
X220505497Y-118335589D01*
X220409133Y-118391166D01*
X220384423Y-118536179D01*
X220383666Y-118623913D01*
X219791000Y-118623913D01*
X219791000Y-117986789D01*
X220553000Y-117986789D01*
G37*
G36*
X209599923Y-110089616D02*
G01*
X209813663Y-110104312D01*
X209924332Y-110138360D01*
X209965039Y-110199576D01*
X209969666Y-110256354D01*
X210029535Y-110398331D01*
X210139000Y-110426254D01*
X210233576Y-110444852D01*
X210284680Y-110526548D01*
X210305220Y-110710198D01*
X210308333Y-110935953D01*
X210308333Y-111445652D01*
X209292333Y-111445652D01*
X209292333Y-111105852D01*
X209306533Y-110883543D01*
X209363927Y-110785291D01*
X209461666Y-110766053D01*
X209603170Y-110705985D01*
X209631000Y-110596153D01*
X209606071Y-110489980D01*
X209502558Y-110439773D01*
X209277370Y-110426319D01*
X209250000Y-110426254D01*
X208869000Y-110426254D01*
X208869000Y-112210200D01*
X209419333Y-112210200D01*
X209717164Y-112204905D01*
X209883213Y-112181318D01*
X209954895Y-112127889D01*
X209969666Y-112040301D01*
X210029535Y-111898323D01*
X210139000Y-111870401D01*
X210280504Y-111930470D01*
X210308333Y-112040301D01*
X210248464Y-112182278D01*
X210139000Y-112210200D01*
X209997495Y-112270269D01*
X209969666Y-112380100D01*
X209956274Y-112462710D01*
X209894023Y-112513170D01*
X209749803Y-112539297D01*
X209490504Y-112548907D01*
X209250000Y-112550000D01*
X208900076Y-112546838D01*
X208686336Y-112532142D01*
X208575667Y-112498094D01*
X208534960Y-112436879D01*
X208530333Y-112380100D01*
X208470464Y-112238123D01*
X208361000Y-112210200D01*
X208285458Y-112199016D01*
X208236464Y-112145439D01*
X208208317Y-112019431D01*
X208195313Y-111790954D01*
X208191750Y-111429969D01*
X208191666Y-111318227D01*
X208193789Y-110920306D01*
X208203960Y-110662230D01*
X208227882Y-110513962D01*
X208271256Y-110445463D01*
X208339786Y-110426695D01*
X208361000Y-110426254D01*
X208502504Y-110366185D01*
X208530333Y-110256354D01*
X208543725Y-110173744D01*
X208605976Y-110123284D01*
X208750196Y-110097157D01*
X209009495Y-110087547D01*
X209250000Y-110086454D01*
X209599923Y-110089616D01*
G37*
G36*
X150062373Y-111794505D02*
G01*
X150036333Y-111649802D01*
X150026755Y-111389636D01*
X150025666Y-111148327D01*
X150028817Y-110797234D01*
X150043465Y-110582778D01*
X150077399Y-110471740D01*
X150138410Y-110430897D01*
X150195000Y-110426254D01*
X150336504Y-110366185D01*
X150364333Y-110256354D01*
X150377725Y-110173744D01*
X150439976Y-110123284D01*
X150584196Y-110097157D01*
X150843495Y-110087547D01*
X151084000Y-110086454D01*
X151433923Y-110089616D01*
X151647663Y-110104312D01*
X151758332Y-110138360D01*
X151799039Y-110199576D01*
X151803666Y-110256354D01*
X151863535Y-110398331D01*
X151973000Y-110426254D01*
X152055334Y-110439691D01*
X152105626Y-110502150D01*
X152131666Y-110646852D01*
X152141244Y-110907018D01*
X152142333Y-111148327D01*
X152139182Y-111499421D01*
X152124534Y-111713876D01*
X152090600Y-111824915D01*
X152029589Y-111865758D01*
X151973000Y-111870401D01*
X151831495Y-111930470D01*
X151803666Y-112040301D01*
X151863535Y-112182278D01*
X151973000Y-112210200D01*
X152114504Y-112270269D01*
X152142333Y-112380100D01*
X152123797Y-112474992D01*
X152042373Y-112526267D01*
X151859335Y-112546876D01*
X151634333Y-112550000D01*
X151350605Y-112543800D01*
X151197293Y-112516568D01*
X151135672Y-112455352D01*
X151126333Y-112380100D01*
X151101404Y-112273926D01*
X150997891Y-112223720D01*
X150772703Y-112210265D01*
X150745333Y-112210200D01*
X150507238Y-112199084D01*
X150394650Y-112152924D01*
X150364478Y-112052506D01*
X150364333Y-112040301D01*
X150304464Y-111898323D01*
X150195000Y-111870401D01*
X150703000Y-111870401D01*
X151465000Y-111870401D01*
X151465000Y-110426254D01*
X150703000Y-110426254D01*
X150703000Y-111870401D01*
X150195000Y-111870401D01*
X150112665Y-111856964D01*
X150062373Y-111794505D01*
G37*
G36*
X239793486Y-111300764D02*
G01*
X239843525Y-111404624D01*
X239856935Y-111630564D01*
X239857000Y-111658026D01*
X239873620Y-111909988D01*
X239930134Y-112024757D01*
X239984000Y-112040301D01*
X240096671Y-112086171D01*
X240111000Y-112125250D01*
X240042423Y-112200616D01*
X239984000Y-112210200D01*
X239880571Y-112281023D01*
X239857000Y-112380100D01*
X239797131Y-112522077D01*
X239687666Y-112550000D01*
X239546162Y-112489931D01*
X239518333Y-112380100D01*
X239489933Y-112268945D01*
X239375144Y-112219819D01*
X239179666Y-112210200D01*
X238958098Y-112195953D01*
X238860174Y-112138366D01*
X238841000Y-112040301D01*
X238900868Y-111898323D01*
X239010333Y-111870401D01*
X239147913Y-111905976D01*
X239179666Y-111955351D01*
X239250579Y-112024371D01*
X239349000Y-112040301D01*
X239486580Y-112004726D01*
X239518333Y-111955351D01*
X239447420Y-111886330D01*
X239349000Y-111870401D01*
X239211308Y-111842619D01*
X239179666Y-111804205D01*
X239240800Y-111709174D01*
X239349000Y-111615551D01*
X239480151Y-111480580D01*
X239518333Y-111384423D01*
X239588997Y-111296244D01*
X239687666Y-111275752D01*
X239793486Y-111300764D01*
G37*
G36*
X222248244Y-103475416D02*
G01*
X222299043Y-103544032D01*
X222323420Y-103701426D01*
X222330734Y-103982805D01*
X222331000Y-104097491D01*
X222327000Y-104423245D01*
X222308763Y-104614377D01*
X222266932Y-104706098D01*
X222192147Y-104733616D01*
X222161666Y-104734615D01*
X222037719Y-104694566D01*
X221994080Y-104545552D01*
X221992333Y-104479766D01*
X221965722Y-104293224D01*
X221866711Y-104227545D01*
X221823000Y-104224916D01*
X221699053Y-104264965D01*
X221655413Y-104413979D01*
X221653666Y-104479766D01*
X221627056Y-104666307D01*
X221528044Y-104731986D01*
X221484333Y-104734615D01*
X221397755Y-104719567D01*
X221346956Y-104650950D01*
X221322579Y-104493557D01*
X221315265Y-104212178D01*
X221315000Y-104097491D01*
X221318999Y-103771738D01*
X221337236Y-103580605D01*
X221379067Y-103488884D01*
X221453852Y-103461367D01*
X221484333Y-103460368D01*
X221601041Y-103493627D01*
X221648131Y-103623467D01*
X221653666Y-103757692D01*
X221672608Y-103962614D01*
X221746555Y-104045297D01*
X221823000Y-104055016D01*
X221939708Y-104021757D01*
X221986798Y-103891917D01*
X221992333Y-103757692D01*
X222011275Y-103552770D01*
X222085222Y-103470086D01*
X222161666Y-103460368D01*
X222248244Y-103475416D01*
G37*
G36*
X176410589Y-117735101D02*
G01*
X176624330Y-117749797D01*
X176734999Y-117783845D01*
X176775705Y-117845061D01*
X176780333Y-117901839D01*
X176840201Y-118043816D01*
X176949666Y-118071739D01*
X177091170Y-118131807D01*
X177119000Y-118241638D01*
X177090599Y-118352793D01*
X176975810Y-118401919D01*
X176780333Y-118411538D01*
X176558765Y-118397290D01*
X176460840Y-118339704D01*
X176441666Y-118241638D01*
X176416737Y-118135465D01*
X176313224Y-118085258D01*
X176088037Y-118071804D01*
X176060666Y-118071739D01*
X175679666Y-118071739D01*
X175679666Y-119855685D01*
X176441666Y-119855685D01*
X176441666Y-119473411D01*
X176430587Y-119234520D01*
X176384581Y-119121555D01*
X176284497Y-119091283D01*
X176272333Y-119091137D01*
X176130829Y-119031068D01*
X176103000Y-118921237D01*
X176121535Y-118826345D01*
X176202959Y-118775070D01*
X176385997Y-118754461D01*
X176611000Y-118751337D01*
X177119000Y-118751337D01*
X177119000Y-119303511D01*
X177113722Y-119602339D01*
X177090214Y-119768943D01*
X177036962Y-119840864D01*
X176949666Y-119855685D01*
X176808162Y-119915754D01*
X176780333Y-120025585D01*
X176766940Y-120108195D01*
X176704689Y-120158655D01*
X176560470Y-120184782D01*
X176301171Y-120194392D01*
X176060666Y-120195485D01*
X175710743Y-120192323D01*
X175497002Y-120177627D01*
X175386334Y-120143579D01*
X175345627Y-120082364D01*
X175341000Y-120025585D01*
X175281131Y-119883608D01*
X175171666Y-119855685D01*
X175096124Y-119844501D01*
X175047131Y-119790924D01*
X175018983Y-119664916D01*
X175005980Y-119436439D01*
X175002417Y-119075454D01*
X175002333Y-118963712D01*
X175004456Y-118565791D01*
X175014627Y-118307715D01*
X175038549Y-118159447D01*
X175081923Y-118090948D01*
X175150453Y-118072180D01*
X175171666Y-118071739D01*
X175313170Y-118011670D01*
X175341000Y-117901839D01*
X175354392Y-117819229D01*
X175416643Y-117768769D01*
X175560863Y-117742642D01*
X175820162Y-117733032D01*
X176060666Y-117731939D01*
X176410589Y-117735101D01*
G37*
G36*
X142936028Y-119362682D02*
G01*
X142985573Y-119263937D01*
X142998333Y-119261036D01*
X143073447Y-119192231D01*
X143083000Y-119133612D01*
X143138923Y-119045009D01*
X143324302Y-119008500D01*
X143421666Y-119006187D01*
X143657151Y-119027228D01*
X143754186Y-119096978D01*
X143760333Y-119133612D01*
X143806050Y-119246660D01*
X143845000Y-119261036D01*
X143903094Y-119334487D01*
X143928002Y-119516402D01*
X143922055Y-119749123D01*
X143887581Y-119974994D01*
X143826911Y-120136358D01*
X143808714Y-120159078D01*
X143623289Y-120249938D01*
X143371215Y-120272441D01*
X143134340Y-120227180D01*
X143019500Y-120153364D01*
X142959146Y-120012788D01*
X142924196Y-119795332D01*
X142920407Y-119685786D01*
X143252333Y-119685786D01*
X143261248Y-119940552D01*
X143299089Y-120067613D01*
X143382500Y-120108717D01*
X143421666Y-120110535D01*
X143523233Y-120088172D01*
X143573888Y-119993253D01*
X143590275Y-119784030D01*
X143591000Y-119685786D01*
X143582084Y-119431019D01*
X143544243Y-119303958D01*
X143460833Y-119262854D01*
X143421666Y-119261036D01*
X143320099Y-119283399D01*
X143269444Y-119378318D01*
X143253057Y-119587542D01*
X143252333Y-119685786D01*
X142920407Y-119685786D01*
X142916030Y-119559222D01*
X142936028Y-119362682D01*
G37*
G36*
X238543305Y-126831358D02*
G01*
X238701675Y-126866048D01*
X238755331Y-126933643D01*
X238756333Y-126948996D01*
X238700410Y-127037599D01*
X238515030Y-127074108D01*
X238417666Y-127076421D01*
X238196098Y-127090669D01*
X238098174Y-127148255D01*
X238079000Y-127246321D01*
X238138868Y-127388298D01*
X238248333Y-127416220D01*
X238385913Y-127451795D01*
X238417666Y-127501170D01*
X238346754Y-127570191D01*
X238248333Y-127586120D01*
X238124386Y-127626169D01*
X238080746Y-127775183D01*
X238079000Y-127840970D01*
X238052389Y-128027511D01*
X237953378Y-128093190D01*
X237909666Y-128095819D01*
X237823088Y-128080771D01*
X237772289Y-128012154D01*
X237747912Y-127854761D01*
X237740598Y-127573382D01*
X237740333Y-127458695D01*
X237740333Y-126821572D01*
X238248333Y-126821572D01*
X238543305Y-126831358D01*
G37*
G36*
X222607362Y-103816863D02*
G01*
X222656906Y-103718118D01*
X222669666Y-103715217D01*
X222744781Y-103646411D01*
X222754333Y-103587792D01*
X222810256Y-103499190D01*
X222995635Y-103462680D01*
X223093000Y-103460368D01*
X223328485Y-103481409D01*
X223425520Y-103551159D01*
X223431666Y-103587792D01*
X223477384Y-103700841D01*
X223516333Y-103715217D01*
X223574427Y-103788668D01*
X223599336Y-103970583D01*
X223593388Y-104203304D01*
X223558915Y-104429175D01*
X223498245Y-104590538D01*
X223480047Y-104613258D01*
X223294622Y-104704118D01*
X223042548Y-104726621D01*
X222805673Y-104681361D01*
X222690833Y-104607544D01*
X222630480Y-104466968D01*
X222595530Y-104249513D01*
X222591741Y-104139966D01*
X222923666Y-104139966D01*
X222932581Y-104394733D01*
X222970423Y-104521794D01*
X223053833Y-104562898D01*
X223093000Y-104564715D01*
X223194566Y-104542353D01*
X223245222Y-104447433D01*
X223261608Y-104238210D01*
X223262333Y-104139966D01*
X223253418Y-103885200D01*
X223215576Y-103758138D01*
X223132166Y-103717035D01*
X223093000Y-103715217D01*
X222991433Y-103737580D01*
X222940777Y-103832499D01*
X222924391Y-104041722D01*
X222923666Y-104139966D01*
X222591741Y-104139966D01*
X222587363Y-104013403D01*
X222607362Y-103816863D01*
G37*
G36*
X212652543Y-103546865D02*
G01*
X212949935Y-103554451D01*
X213133018Y-103572492D01*
X213229298Y-103605404D01*
X213266283Y-103657602D01*
X213271666Y-103715217D01*
X213262027Y-103785726D01*
X213214771Y-103833468D01*
X213102391Y-103862859D01*
X212897378Y-103878315D01*
X212572224Y-103884253D01*
X212213333Y-103885117D01*
X211774123Y-103883569D01*
X211476730Y-103875983D01*
X211293648Y-103857942D01*
X211197368Y-103825030D01*
X211160382Y-103772832D01*
X211155000Y-103715217D01*
X211164639Y-103644708D01*
X211211895Y-103596966D01*
X211324275Y-103567575D01*
X211529288Y-103552119D01*
X211854441Y-103546181D01*
X212213333Y-103545317D01*
X212652543Y-103546865D01*
G37*
G36*
X215863901Y-110780301D02*
G01*
X215961825Y-110837887D01*
X215981000Y-110935953D01*
X215921131Y-111077930D01*
X215811666Y-111105852D01*
X215670162Y-111165921D01*
X215642333Y-111275752D01*
X215670733Y-111386907D01*
X215785522Y-111436033D01*
X215981000Y-111445652D01*
X216202568Y-111459899D01*
X216300492Y-111517486D01*
X216319666Y-111615551D01*
X216291266Y-111726706D01*
X216176477Y-111775832D01*
X215981000Y-111785451D01*
X215762802Y-111797043D01*
X215665821Y-111851719D01*
X215642454Y-111979331D01*
X215642333Y-111997826D01*
X215682020Y-112164362D01*
X215811666Y-112210200D01*
X215953170Y-112270269D01*
X215981000Y-112380100D01*
X215952599Y-112491255D01*
X215837810Y-112540381D01*
X215642333Y-112550000D01*
X215420765Y-112535752D01*
X215322840Y-112478166D01*
X215303666Y-112380100D01*
X215275266Y-112268945D01*
X215160477Y-112219819D01*
X214965000Y-112210200D01*
X214743431Y-112224448D01*
X214645507Y-112282034D01*
X214626333Y-112380100D01*
X214601404Y-112486274D01*
X214497891Y-112536480D01*
X214272703Y-112549935D01*
X214245333Y-112550000D01*
X214007238Y-112538883D01*
X213894650Y-112492723D01*
X213864478Y-112392305D01*
X213864333Y-112380100D01*
X213924201Y-112238123D01*
X214033666Y-112210200D01*
X214166451Y-112160426D01*
X214203000Y-111997826D01*
X214184515Y-111860996D01*
X214097324Y-111800181D01*
X213893826Y-111785527D01*
X213864333Y-111785451D01*
X213642765Y-111771204D01*
X213544840Y-111713617D01*
X213525666Y-111615551D01*
X213554066Y-111504397D01*
X213668855Y-111455271D01*
X213864333Y-111445652D01*
X214085901Y-111431404D01*
X214183825Y-111373818D01*
X214203000Y-111275752D01*
X214143131Y-111133775D01*
X214033666Y-111105852D01*
X213892162Y-111045784D01*
X213864333Y-110935953D01*
X213889262Y-110829779D01*
X213992775Y-110779572D01*
X214217962Y-110766118D01*
X214245333Y-110766053D01*
X214483428Y-110777170D01*
X214596016Y-110823329D01*
X214626187Y-110923748D01*
X214626333Y-110935953D01*
X214654733Y-111047107D01*
X214769522Y-111096233D01*
X214965000Y-111105852D01*
X215186568Y-111091605D01*
X215284492Y-111034018D01*
X215303666Y-110935953D01*
X215332066Y-110824798D01*
X215446855Y-110775672D01*
X215642333Y-110766053D01*
X215863901Y-110780301D01*
G37*
G36*
X154735923Y-102274232D02*
G01*
X154949663Y-102288928D01*
X155060332Y-102322975D01*
X155101039Y-102384191D01*
X155105666Y-102440970D01*
X155165535Y-102582947D01*
X155275000Y-102610869D01*
X155385784Y-102639364D01*
X155434746Y-102754537D01*
X155444333Y-102950669D01*
X155430133Y-103172978D01*
X155372738Y-103271230D01*
X155275000Y-103290468D01*
X155133495Y-103350536D01*
X155105666Y-103460368D01*
X155077266Y-103571522D01*
X154962477Y-103620648D01*
X154767000Y-103630267D01*
X154548802Y-103641859D01*
X154451821Y-103696535D01*
X154428454Y-103824147D01*
X154428333Y-103842642D01*
X154393363Y-104004302D01*
X154255673Y-104054119D01*
X154216666Y-104055016D01*
X154050685Y-104094836D01*
X154005000Y-104224916D01*
X154018392Y-104307526D01*
X154080643Y-104357986D01*
X154224863Y-104384113D01*
X154484162Y-104393723D01*
X154724666Y-104394816D01*
X155074589Y-104397977D01*
X155288330Y-104412674D01*
X155398999Y-104446721D01*
X155439705Y-104507937D01*
X155444333Y-104564715D01*
X155434694Y-104635224D01*
X155387438Y-104682966D01*
X155275057Y-104712357D01*
X155070044Y-104727813D01*
X154744891Y-104733751D01*
X154386000Y-104734615D01*
X153327666Y-104734615D01*
X153327666Y-104394816D01*
X153341866Y-104172507D01*
X153399261Y-104074255D01*
X153497000Y-104055016D01*
X153629784Y-104005242D01*
X153666333Y-103842642D01*
X153682124Y-103711590D01*
X153759746Y-103649499D01*
X153944569Y-103631078D01*
X154047333Y-103630267D01*
X154285428Y-103619151D01*
X154398016Y-103572991D01*
X154428187Y-103472573D01*
X154428333Y-103460368D01*
X154488201Y-103318390D01*
X154597666Y-103290468D01*
X154708450Y-103261973D01*
X154757412Y-103146800D01*
X154767000Y-102950669D01*
X154767000Y-102610869D01*
X154386000Y-102610869D01*
X154147905Y-102621986D01*
X154035317Y-102668145D01*
X154005145Y-102768564D01*
X154005000Y-102780769D01*
X153976599Y-102891923D01*
X153861810Y-102941049D01*
X153666333Y-102950669D01*
X153444765Y-102936421D01*
X153346840Y-102878835D01*
X153327666Y-102780769D01*
X153387535Y-102638792D01*
X153497000Y-102610869D01*
X153638504Y-102550801D01*
X153666333Y-102440970D01*
X153679725Y-102358359D01*
X153741976Y-102307899D01*
X153886196Y-102281772D01*
X154145495Y-102272162D01*
X154386000Y-102271070D01*
X154735923Y-102274232D01*
G37*
G36*
X188179256Y-117735101D02*
G01*
X188392997Y-117749797D01*
X188503665Y-117783845D01*
X188544372Y-117845061D01*
X188549000Y-117901839D01*
X188489131Y-118043816D01*
X188379666Y-118071739D01*
X188304124Y-118082923D01*
X188255131Y-118136500D01*
X188226983Y-118262508D01*
X188213980Y-118490985D01*
X188210417Y-118851970D01*
X188210333Y-118963712D01*
X188208210Y-119361633D01*
X188198039Y-119619709D01*
X188174117Y-119767977D01*
X188130743Y-119836476D01*
X188062213Y-119855244D01*
X188041000Y-119855685D01*
X187899495Y-119915754D01*
X187871666Y-120025585D01*
X187854514Y-120117532D01*
X187778113Y-120168795D01*
X187605046Y-120190924D01*
X187321333Y-120195485D01*
X187023501Y-120190189D01*
X186857453Y-120166603D01*
X186785771Y-120113173D01*
X186771000Y-120025585D01*
X186711131Y-119883608D01*
X186601666Y-119855685D01*
X186460162Y-119795617D01*
X186432333Y-119685786D01*
X186460733Y-119574631D01*
X186575522Y-119525505D01*
X186771000Y-119515886D01*
X186992568Y-119530134D01*
X187090492Y-119587720D01*
X187109666Y-119685786D01*
X187159275Y-119819015D01*
X187321333Y-119855685D01*
X187533000Y-119855685D01*
X187533000Y-118071739D01*
X187321333Y-118071739D01*
X187155352Y-118031919D01*
X187109666Y-117901839D01*
X187123059Y-117819229D01*
X187185310Y-117768769D01*
X187329529Y-117742642D01*
X187588828Y-117733032D01*
X187829333Y-117731939D01*
X188179256Y-117735101D01*
G37*
G36*
X228399170Y-125097694D02*
G01*
X228427000Y-125207525D01*
X228479939Y-125345890D01*
X228554000Y-125377424D01*
X228666248Y-125445424D01*
X228681000Y-125504849D01*
X228751586Y-125608623D01*
X228850333Y-125632274D01*
X228961117Y-125660769D01*
X229010079Y-125775942D01*
X229019666Y-125972073D01*
X229005466Y-126194382D01*
X228948072Y-126292634D01*
X228850333Y-126311873D01*
X228712429Y-126364989D01*
X228681000Y-126439297D01*
X228613227Y-126551921D01*
X228554000Y-126566722D01*
X228450571Y-126637544D01*
X228427000Y-126736622D01*
X228367131Y-126878599D01*
X228257666Y-126906521D01*
X228140958Y-126873262D01*
X228093868Y-126743422D01*
X228088333Y-126609197D01*
X228088333Y-126311873D01*
X226818333Y-126311873D01*
X226818333Y-125632274D01*
X228088333Y-125632274D01*
X228088333Y-125334949D01*
X228107275Y-125130027D01*
X228181222Y-125047344D01*
X228257666Y-125037625D01*
X228399170Y-125097694D01*
G37*
G36*
X151883256Y-118515697D02*
G01*
X151951786Y-118496930D01*
X151973000Y-118496488D01*
X152114504Y-118436419D01*
X152142333Y-118326588D01*
X152202201Y-118184611D01*
X152311666Y-118156689D01*
X152453170Y-118096620D01*
X152481000Y-117986789D01*
X152505928Y-117880615D01*
X152609441Y-117830409D01*
X152834629Y-117816954D01*
X152862000Y-117816889D01*
X153100094Y-117828006D01*
X153212682Y-117874165D01*
X153242854Y-117974584D01*
X153243000Y-117986789D01*
X153302868Y-118128766D01*
X153412333Y-118156689D01*
X153553837Y-118216757D01*
X153581666Y-118326588D01*
X153641535Y-118468566D01*
X153751000Y-118496488D01*
X153826541Y-118507672D01*
X153875535Y-118561249D01*
X153903682Y-118687257D01*
X153916686Y-118915735D01*
X153920249Y-119276719D01*
X153920333Y-119388461D01*
X153920333Y-120280434D01*
X153243000Y-120280434D01*
X153243000Y-119176087D01*
X152481000Y-119176087D01*
X152481000Y-120280434D01*
X151803666Y-120280434D01*
X151803666Y-119388461D01*
X151805789Y-118990540D01*
X151815960Y-118732465D01*
X151826621Y-118666388D01*
X152481000Y-118666388D01*
X152505928Y-118772561D01*
X152609441Y-118822768D01*
X152834629Y-118836222D01*
X152862000Y-118836287D01*
X153100094Y-118825171D01*
X153212682Y-118779011D01*
X153242854Y-118678593D01*
X153243000Y-118666388D01*
X153218071Y-118560214D01*
X153114558Y-118510007D01*
X152889370Y-118496553D01*
X152862000Y-118496488D01*
X152623905Y-118507604D01*
X152511317Y-118553764D01*
X152481145Y-118654182D01*
X152481000Y-118666388D01*
X151826621Y-118666388D01*
X151839882Y-118584196D01*
X151883256Y-118515697D01*
G37*
G36*
X141474333Y-117307190D02*
G01*
X141740551Y-117320832D01*
X141870577Y-117368061D01*
X141897666Y-117434615D01*
X141943384Y-117547664D01*
X141982333Y-117562040D01*
X142061732Y-117620095D01*
X142049126Y-117758396D01*
X141956561Y-117923147D01*
X141884711Y-117998062D01*
X141702423Y-118156689D01*
X141884711Y-118315315D01*
X142037209Y-118472402D01*
X142043296Y-118557417D01*
X141916357Y-118581438D01*
X141752665Y-118517344D01*
X141643666Y-118411538D01*
X141526147Y-118281101D01*
X141455642Y-118241638D01*
X141401994Y-118312943D01*
X141389666Y-118411538D01*
X141329798Y-118553515D01*
X141220333Y-118581438D01*
X141133755Y-118566390D01*
X141082956Y-118497773D01*
X141058579Y-118340380D01*
X141051265Y-118059001D01*
X141051000Y-117944314D01*
X141051000Y-117731939D01*
X141389666Y-117731939D01*
X141449535Y-117873917D01*
X141559000Y-117901839D01*
X141700504Y-117841771D01*
X141728333Y-117731939D01*
X141668464Y-117589962D01*
X141559000Y-117562040D01*
X141417495Y-117622108D01*
X141389666Y-117731939D01*
X141051000Y-117731939D01*
X141051000Y-117307190D01*
X141474333Y-117307190D01*
G37*
G36*
X229276085Y-110600714D02*
G01*
X229518727Y-110617393D01*
X229648980Y-110650689D01*
X229695231Y-110705097D01*
X229697000Y-110723578D01*
X229621271Y-110824742D01*
X229443000Y-110851003D01*
X229189000Y-110851003D01*
X229189000Y-112465050D01*
X228596333Y-112465050D01*
X228596333Y-110851003D01*
X228342333Y-110851003D01*
X228140681Y-110813012D01*
X228088333Y-110723578D01*
X228117119Y-110662836D01*
X228222403Y-110624396D01*
X228432571Y-110603761D01*
X228776010Y-110596434D01*
X228892666Y-110596153D01*
X229276085Y-110600714D01*
G37*
G36*
X204687901Y-119360234D02*
G01*
X204785825Y-119417820D01*
X204805000Y-119515886D01*
X204776599Y-119627040D01*
X204661810Y-119676166D01*
X204466333Y-119685786D01*
X204244765Y-119671538D01*
X204146840Y-119613952D01*
X204127666Y-119515886D01*
X204156066Y-119404731D01*
X204270855Y-119355605D01*
X204466333Y-119345986D01*
X204687901Y-119360234D01*
G37*
G36*
X225125000Y-110596153D02*
G01*
X225472533Y-110602155D01*
X225681101Y-110623931D01*
X225780770Y-110667139D01*
X225802333Y-110723578D01*
X225870106Y-110836202D01*
X225929333Y-110851003D01*
X226023264Y-110915477D01*
X226056103Y-111121248D01*
X226056333Y-111148327D01*
X226028793Y-111368234D01*
X225940899Y-111445114D01*
X225929333Y-111445652D01*
X225817084Y-111513651D01*
X225802333Y-111573077D01*
X225734560Y-111685700D01*
X225675333Y-111700501D01*
X225563084Y-111768501D01*
X225548333Y-111827926D01*
X225616106Y-111940550D01*
X225675333Y-111955351D01*
X225787581Y-112023350D01*
X225802333Y-112082776D01*
X225870106Y-112195399D01*
X225929333Y-112210200D01*
X226041581Y-112278200D01*
X226056333Y-112337625D01*
X225980605Y-112438788D01*
X225802333Y-112465050D01*
X225600681Y-112427059D01*
X225548333Y-112337625D01*
X225477747Y-112233851D01*
X225379000Y-112210200D01*
X225241095Y-112157084D01*
X225209666Y-112082776D01*
X225141893Y-111970152D01*
X225082666Y-111955351D01*
X224981840Y-112031332D01*
X224955666Y-112210200D01*
X224934687Y-112390710D01*
X224835726Y-112457242D01*
X224701666Y-112465050D01*
X224447666Y-112465050D01*
X224447666Y-111148327D01*
X224955666Y-111148327D01*
X224968773Y-111347604D01*
X225042719Y-111429328D01*
X225229444Y-111445615D01*
X225252000Y-111445652D01*
X225450611Y-111432501D01*
X225532064Y-111358308D01*
X225548296Y-111170958D01*
X225548333Y-111148327D01*
X225535226Y-110949051D01*
X225461280Y-110867326D01*
X225274555Y-110851040D01*
X225252000Y-110851003D01*
X225053388Y-110864153D01*
X224971935Y-110938347D01*
X224955703Y-111125697D01*
X224955666Y-111148327D01*
X224447666Y-111148327D01*
X224447666Y-110596153D01*
X225125000Y-110596153D01*
G37*
G36*
X198539666Y-119855685D02*
G01*
X199259333Y-119855685D01*
X199609256Y-119858847D01*
X199822997Y-119873543D01*
X199933665Y-119907591D01*
X199974372Y-119968806D01*
X199979000Y-120025585D01*
X199969360Y-120096094D01*
X199922104Y-120143835D01*
X199809724Y-120173227D01*
X199604711Y-120188683D01*
X199279558Y-120194620D01*
X198920666Y-120195485D01*
X197862333Y-120195485D01*
X197862333Y-117731939D01*
X198539666Y-117731939D01*
X198539666Y-119855685D01*
G37*
G36*
X167689923Y-125635436D02*
G01*
X167903663Y-125650132D01*
X168014332Y-125684179D01*
X168055039Y-125745395D01*
X168059666Y-125802174D01*
X168119535Y-125944151D01*
X168229000Y-125972073D01*
X168370504Y-126032142D01*
X168398333Y-126141973D01*
X168369933Y-126253127D01*
X168255144Y-126302253D01*
X168059666Y-126311873D01*
X167838098Y-126297625D01*
X167740174Y-126240039D01*
X167721000Y-126141973D01*
X167696071Y-126035799D01*
X167592558Y-125985593D01*
X167367370Y-125972138D01*
X167340000Y-125972073D01*
X166959000Y-125972073D01*
X166959000Y-127756020D01*
X167340000Y-127756020D01*
X167578094Y-127744903D01*
X167690682Y-127698744D01*
X167720854Y-127598325D01*
X167721000Y-127586120D01*
X167749400Y-127474966D01*
X167864189Y-127425840D01*
X168059666Y-127416220D01*
X168281234Y-127430468D01*
X168379159Y-127488054D01*
X168398333Y-127586120D01*
X168338464Y-127728097D01*
X168229000Y-127756020D01*
X168087495Y-127816088D01*
X168059666Y-127925919D01*
X168046274Y-128008530D01*
X167984023Y-128058990D01*
X167839803Y-128085116D01*
X167580504Y-128094727D01*
X167340000Y-128095819D01*
X166990076Y-128092657D01*
X166776336Y-128077961D01*
X166665667Y-128043914D01*
X166624960Y-127982698D01*
X166620333Y-127925919D01*
X166560464Y-127783942D01*
X166451000Y-127756020D01*
X166375458Y-127744836D01*
X166326464Y-127691259D01*
X166298317Y-127565250D01*
X166285313Y-127336773D01*
X166281750Y-126975788D01*
X166281666Y-126864046D01*
X166283789Y-126466125D01*
X166293960Y-126208050D01*
X166317882Y-126059782D01*
X166361256Y-125991283D01*
X166429786Y-125972515D01*
X166451000Y-125972073D01*
X166592504Y-125912005D01*
X166620333Y-125802174D01*
X166633725Y-125719563D01*
X166695976Y-125669103D01*
X166840196Y-125642976D01*
X167099495Y-125633366D01*
X167340000Y-125632274D01*
X167689923Y-125635436D01*
G37*
G36*
X239715778Y-125127722D02*
G01*
X239868142Y-125153199D01*
X239930261Y-125214065D01*
X239941666Y-125316196D01*
X239876486Y-125515725D01*
X239772333Y-125632274D01*
X239639453Y-125813015D01*
X239603000Y-126075777D01*
X239586963Y-126290516D01*
X239523055Y-126382022D01*
X239433666Y-126396822D01*
X239320403Y-126366418D01*
X239272139Y-126245252D01*
X239264333Y-126075777D01*
X239308979Y-125791558D01*
X239433666Y-125632274D01*
X239563668Y-125514362D01*
X239603000Y-125443621D01*
X239531933Y-125389794D01*
X239433666Y-125377424D01*
X239296086Y-125412999D01*
X239264333Y-125462374D01*
X239193420Y-125531395D01*
X239095000Y-125547324D01*
X238962215Y-125497549D01*
X238925666Y-125334949D01*
X238936422Y-125217249D01*
X238995199Y-125153702D01*
X239141758Y-125127687D01*
X239415860Y-125122580D01*
X239433666Y-125122575D01*
X239715778Y-125127722D01*
G37*
G36*
X238988679Y-127581434D02*
G01*
X239031500Y-127550724D01*
X239093764Y-127494935D01*
X239031500Y-127451616D01*
X238950979Y-127351401D01*
X238934338Y-127246321D01*
X239264333Y-127246321D01*
X239324201Y-127388298D01*
X239433666Y-127416220D01*
X239575170Y-127356152D01*
X239603000Y-127246321D01*
X239543131Y-127104343D01*
X239433666Y-127076421D01*
X239292162Y-127136490D01*
X239264333Y-127246321D01*
X238934338Y-127246321D01*
X238927844Y-127205317D01*
X238966639Y-127093929D01*
X239010333Y-127076421D01*
X239085447Y-127007615D01*
X239095000Y-126948996D01*
X239150923Y-126860394D01*
X239336302Y-126823884D01*
X239433666Y-126821572D01*
X239669151Y-126842613D01*
X239766186Y-126912363D01*
X239772333Y-126948996D01*
X239818050Y-127062045D01*
X239857000Y-127076421D01*
X239928244Y-127140631D01*
X239935301Y-127279551D01*
X239882715Y-127412619D01*
X239835833Y-127451616D01*
X239773569Y-127507405D01*
X239835833Y-127550724D01*
X239932177Y-127672681D01*
X239907785Y-127850354D01*
X239820714Y-127974462D01*
X239635289Y-128065322D01*
X239383215Y-128087826D01*
X239146340Y-128042565D01*
X239031500Y-127968748D01*
X238940094Y-127802927D01*
X238931497Y-127756020D01*
X239264333Y-127756020D01*
X239324201Y-127897997D01*
X239433666Y-127925919D01*
X239575170Y-127865851D01*
X239603000Y-127756020D01*
X239543131Y-127614042D01*
X239433666Y-127586120D01*
X239292162Y-127646189D01*
X239264333Y-127756020D01*
X238931497Y-127756020D01*
X238925666Y-127724209D01*
X238988679Y-127581434D01*
G37*
G36*
X222839000Y-127161371D02*
G01*
X223135333Y-127161371D01*
X223339572Y-127180376D01*
X223421980Y-127254570D01*
X223431666Y-127331271D01*
X223371798Y-127473248D01*
X223262333Y-127501170D01*
X223124429Y-127554287D01*
X223093000Y-127628595D01*
X223025227Y-127741219D01*
X222966000Y-127756020D01*
X222862571Y-127826842D01*
X222839000Y-127925919D01*
X222810599Y-128037074D01*
X222695810Y-128086200D01*
X222500333Y-128095819D01*
X222278765Y-128081571D01*
X222180840Y-128023985D01*
X222161666Y-127925919D01*
X222108727Y-127787554D01*
X222034666Y-127756020D01*
X221922418Y-127688020D01*
X221907666Y-127628595D01*
X221837080Y-127524821D01*
X221738333Y-127501170D01*
X221596829Y-127441102D01*
X221569000Y-127331271D01*
X221602148Y-127214172D01*
X221731555Y-127166925D01*
X221865333Y-127161371D01*
X222161666Y-127161371D01*
X222161666Y-125887123D01*
X222839000Y-125887123D01*
X222839000Y-127161371D01*
G37*
G36*
X156883666Y-125972073D02*
G01*
X156869466Y-126194382D01*
X156812072Y-126292634D01*
X156714333Y-126311873D01*
X156572829Y-126371941D01*
X156545000Y-126481772D01*
X156485131Y-126623750D01*
X156375666Y-126651672D01*
X156234162Y-126711740D01*
X156206333Y-126821572D01*
X156146464Y-126963549D01*
X156037000Y-126991471D01*
X155904215Y-127041246D01*
X155867666Y-127203846D01*
X155832697Y-127365506D01*
X155695006Y-127415323D01*
X155656000Y-127416220D01*
X155490018Y-127456040D01*
X155444333Y-127586120D01*
X155457725Y-127668730D01*
X155519976Y-127719190D01*
X155664196Y-127745317D01*
X155923495Y-127754927D01*
X156164000Y-127756020D01*
X156513923Y-127759181D01*
X156727663Y-127773878D01*
X156838332Y-127807925D01*
X156879039Y-127869141D01*
X156883666Y-127925919D01*
X156874027Y-127996428D01*
X156826771Y-128044170D01*
X156714391Y-128073561D01*
X156509378Y-128089017D01*
X156184224Y-128094955D01*
X155825333Y-128095819D01*
X154767000Y-128095819D01*
X154767000Y-127756020D01*
X154781200Y-127533711D01*
X154838594Y-127435459D01*
X154936333Y-127416220D01*
X155069118Y-127366446D01*
X155105666Y-127203846D01*
X155145353Y-127037310D01*
X155275000Y-126991471D01*
X155416504Y-126931403D01*
X155444333Y-126821572D01*
X155493942Y-126688343D01*
X155656000Y-126651672D01*
X155821981Y-126611852D01*
X155867666Y-126481772D01*
X155927535Y-126339795D01*
X156037000Y-126311873D01*
X156178504Y-126251804D01*
X156206333Y-126141973D01*
X156192940Y-126059363D01*
X156130689Y-126008903D01*
X155986470Y-125982776D01*
X155727171Y-125973166D01*
X155486666Y-125972073D01*
X155136743Y-125968912D01*
X154923002Y-125954215D01*
X154812334Y-125920168D01*
X154771627Y-125858952D01*
X154767000Y-125802174D01*
X154776639Y-125731665D01*
X154823895Y-125683923D01*
X154936275Y-125654532D01*
X155141288Y-125639076D01*
X155466441Y-125633138D01*
X155825333Y-125632274D01*
X156883666Y-125632274D01*
X156883666Y-125972073D01*
G37*
G36*
X161201666Y-126311873D02*
G01*
X161963666Y-126311873D01*
X161963666Y-125632274D01*
X162641000Y-125632274D01*
X162641000Y-125972073D01*
X162626799Y-126194382D01*
X162569405Y-126292634D01*
X162471666Y-126311873D01*
X162330162Y-126371941D01*
X162302333Y-126481772D01*
X162242464Y-126623750D01*
X162133000Y-126651672D01*
X161991495Y-126711740D01*
X161963666Y-126821572D01*
X162023535Y-126963549D01*
X162133000Y-126991471D01*
X162265784Y-127041246D01*
X162302333Y-127203846D01*
X162342020Y-127370382D01*
X162471666Y-127416220D01*
X162582450Y-127444716D01*
X162631412Y-127559888D01*
X162641000Y-127756020D01*
X162641000Y-128095819D01*
X161963666Y-128095819D01*
X161963666Y-127416220D01*
X161201666Y-127416220D01*
X161201666Y-128095819D01*
X160524333Y-128095819D01*
X160524333Y-127756020D01*
X160538533Y-127533711D01*
X160595927Y-127435459D01*
X160693666Y-127416220D01*
X160826451Y-127366446D01*
X160863000Y-127203846D01*
X160902686Y-127037310D01*
X161032333Y-126991471D01*
X161173837Y-126931403D01*
X161201666Y-126821572D01*
X161141798Y-126679594D01*
X161032333Y-126651672D01*
X160890829Y-126591603D01*
X160863000Y-126481772D01*
X160803131Y-126339795D01*
X160693666Y-126311873D01*
X160582882Y-126283377D01*
X160533920Y-126168205D01*
X160524333Y-125972073D01*
X160524333Y-125632274D01*
X161201666Y-125632274D01*
X161201666Y-126311873D01*
G37*
G36*
X160493256Y-102274232D02*
G01*
X160706997Y-102288928D01*
X160817665Y-102322975D01*
X160858372Y-102384191D01*
X160863000Y-102440970D01*
X160922868Y-102582947D01*
X161032333Y-102610869D01*
X161143117Y-102639364D01*
X161192079Y-102754537D01*
X161201666Y-102950669D01*
X161187466Y-103172978D01*
X161130072Y-103271230D01*
X161032333Y-103290468D01*
X160890829Y-103350536D01*
X160863000Y-103460368D01*
X160922868Y-103602345D01*
X161032333Y-103630267D01*
X161138153Y-103655279D01*
X161188192Y-103759139D01*
X161201602Y-103985079D01*
X161201666Y-104012541D01*
X161190587Y-104251433D01*
X161144581Y-104364397D01*
X161044497Y-104394670D01*
X161032333Y-104394816D01*
X160890829Y-104454884D01*
X160863000Y-104564715D01*
X160849607Y-104647326D01*
X160787356Y-104697786D01*
X160643136Y-104723912D01*
X160383837Y-104733523D01*
X160143333Y-104734615D01*
X159793410Y-104731453D01*
X159579669Y-104716757D01*
X159469000Y-104682709D01*
X159428294Y-104621494D01*
X159423666Y-104564715D01*
X159363798Y-104422738D01*
X159254333Y-104394816D01*
X159112829Y-104334747D01*
X159085000Y-104224916D01*
X159113400Y-104113762D01*
X159228189Y-104064636D01*
X159423666Y-104055016D01*
X159645234Y-104069264D01*
X159743159Y-104126850D01*
X159762333Y-104224916D01*
X159787262Y-104331090D01*
X159890775Y-104381296D01*
X160115962Y-104394751D01*
X160143333Y-104394816D01*
X160524333Y-104394816D01*
X160524333Y-103630267D01*
X160143333Y-103630267D01*
X159905238Y-103619151D01*
X159792650Y-103572991D01*
X159762478Y-103472573D01*
X159762333Y-103460368D01*
X159787262Y-103354194D01*
X159890775Y-103303987D01*
X160115962Y-103290533D01*
X160143333Y-103290468D01*
X160524333Y-103290468D01*
X160524333Y-102610869D01*
X160143333Y-102610869D01*
X159905238Y-102621986D01*
X159792650Y-102668145D01*
X159762478Y-102768564D01*
X159762333Y-102780769D01*
X159733933Y-102891923D01*
X159619144Y-102941049D01*
X159423666Y-102950669D01*
X159202098Y-102936421D01*
X159104174Y-102878835D01*
X159085000Y-102780769D01*
X159144868Y-102638792D01*
X159254333Y-102610869D01*
X159395837Y-102550801D01*
X159423666Y-102440970D01*
X159437059Y-102358359D01*
X159499310Y-102307899D01*
X159643529Y-102281772D01*
X159902828Y-102272162D01*
X160143333Y-102271070D01*
X160493256Y-102274232D01*
G37*
G36*
X221002761Y-110012621D02*
G01*
X221115349Y-110058781D01*
X221145521Y-110159199D01*
X221145666Y-110171404D01*
X221205535Y-110313382D01*
X221315000Y-110341304D01*
X221456504Y-110401373D01*
X221484333Y-110511204D01*
X221544201Y-110653181D01*
X221653666Y-110681103D01*
X221795170Y-110741172D01*
X221823000Y-110851003D01*
X221794599Y-110962158D01*
X221679810Y-111011284D01*
X221484333Y-111020903D01*
X221145666Y-111020903D01*
X221145666Y-112465050D01*
X220383666Y-112465050D01*
X220383666Y-111020903D01*
X220045000Y-111020903D01*
X219823431Y-111006655D01*
X219725507Y-110949069D01*
X219706333Y-110851003D01*
X219766201Y-110709026D01*
X219875666Y-110681103D01*
X220017170Y-110621035D01*
X220045000Y-110511204D01*
X220104868Y-110369226D01*
X220214333Y-110341304D01*
X220355837Y-110281235D01*
X220383666Y-110171404D01*
X220408595Y-110065231D01*
X220512108Y-110015024D01*
X220737296Y-110001570D01*
X220764666Y-110001505D01*
X221002761Y-110012621D01*
G37*
G36*
X210758094Y-117912956D02*
G01*
X210870682Y-117959115D01*
X210900854Y-118059533D01*
X210901000Y-118071739D01*
X210876071Y-118177913D01*
X210772558Y-118228119D01*
X210547370Y-118241574D01*
X210520000Y-118241638D01*
X210281905Y-118230522D01*
X210169317Y-118184362D01*
X210139145Y-118083944D01*
X210139000Y-118071739D01*
X210163928Y-117965565D01*
X210267441Y-117915358D01*
X210492629Y-117901904D01*
X210520000Y-117901839D01*
X210758094Y-117912956D01*
G37*
G36*
X223246587Y-117988744D02*
G01*
X223514128Y-117998169D01*
X223670893Y-118020405D01*
X223746155Y-118060791D01*
X223769186Y-118124668D01*
X223770333Y-118156689D01*
X223755335Y-118243556D01*
X223686947Y-118294525D01*
X223530078Y-118318984D01*
X223249637Y-118326322D01*
X223135333Y-118326588D01*
X222500333Y-118326588D01*
X222500333Y-118623913D01*
X222510586Y-118814279D01*
X222573890Y-118898879D01*
X222739067Y-118920572D01*
X222839000Y-118921237D01*
X223060568Y-118935485D01*
X223158492Y-118993071D01*
X223177666Y-119091137D01*
X223149266Y-119202291D01*
X223034477Y-119251417D01*
X222839000Y-119261036D01*
X222622163Y-119270038D01*
X222525800Y-119325615D01*
X222501090Y-119470627D01*
X222500333Y-119558361D01*
X222500333Y-119855685D01*
X223135333Y-119855685D01*
X223460000Y-119859698D01*
X223650496Y-119877996D01*
X223741911Y-119919967D01*
X223769337Y-119995002D01*
X223770333Y-120025585D01*
X223759615Y-120099940D01*
X223707949Y-120148746D01*
X223586060Y-120177344D01*
X223364676Y-120191074D01*
X223014526Y-120195275D01*
X222839000Y-120195485D01*
X221907666Y-120195485D01*
X221907666Y-117986789D01*
X222839000Y-117986789D01*
X223246587Y-117988744D01*
G37*
G36*
X142691495Y-124923691D02*
G01*
X142909167Y-124970609D01*
X142909166Y-125803316D01*
X142841452Y-125765031D01*
X142753826Y-125726928D01*
X142681970Y-125703830D01*
X142608981Y-125687374D01*
X142516810Y-125676653D01*
X142442924Y-125674894D01*
X142369335Y-125679561D01*
X142332671Y-125683493D01*
X142260298Y-125697683D01*
X142189323Y-125718132D01*
X142103315Y-125752585D01*
X142020887Y-125796205D01*
X141943232Y-125849616D01*
X141884916Y-125898888D01*
X141830528Y-125954036D01*
X141792662Y-125998747D01*
X141758671Y-126045679D01*
X141709484Y-126127311D01*
X141646700Y-126283512D01*
X141622706Y-126391976D01*
X141612709Y-126520625D01*
X141622706Y-126649274D01*
X141629105Y-126685698D01*
X141685090Y-126862948D01*
X141718681Y-126930538D01*
X141769469Y-127011475D01*
X141817456Y-127072698D01*
X141884916Y-127142362D01*
X141958268Y-127203212D01*
X142053326Y-127263707D01*
X142189324Y-127323119D01*
X142278317Y-127347508D01*
X142350957Y-127360120D01*
X142479848Y-127367091D01*
X142608981Y-127353876D01*
X142771615Y-127307712D01*
X142909166Y-127237935D01*
X142909166Y-128070642D01*
X142847101Y-128086029D01*
X142535444Y-128132892D01*
X142226608Y-128116577D01*
X141871109Y-128022307D01*
X141545586Y-127849645D01*
X141306693Y-127650414D01*
X141108741Y-127401876D01*
X140940960Y-127064432D01*
X140857070Y-126704403D01*
X140857070Y-126336846D01*
X140961934Y-125918253D01*
X141181880Y-125534272D01*
X141494598Y-125226647D01*
X141899486Y-125007203D01*
X142318374Y-124913054D01*
X142691495Y-124923691D01*
G37*
G36*
X222735818Y-101782412D02*
G01*
X222832853Y-101852162D01*
X222839000Y-101888796D01*
X222884717Y-102001844D01*
X222923666Y-102016220D01*
X223005873Y-102080865D01*
X223008333Y-102101170D01*
X222937420Y-102170191D01*
X222839000Y-102186120D01*
X222701419Y-102150545D01*
X222669666Y-102101170D01*
X222598754Y-102032150D01*
X222500333Y-102016220D01*
X222398766Y-102038583D01*
X222348111Y-102133502D01*
X222331724Y-102342726D01*
X222331000Y-102440970D01*
X222339915Y-102695736D01*
X222377756Y-102822797D01*
X222461166Y-102863901D01*
X222500333Y-102865719D01*
X222637913Y-102830144D01*
X222669666Y-102780769D01*
X222740579Y-102711749D01*
X222839000Y-102695819D01*
X222984495Y-102720603D01*
X222980062Y-102806367D01*
X222887380Y-102914261D01*
X222701955Y-103005122D01*
X222449882Y-103027625D01*
X222213007Y-102982364D01*
X222098166Y-102908548D01*
X222037813Y-102767972D01*
X222002863Y-102550516D01*
X221994696Y-102314406D01*
X222014695Y-102117866D01*
X222064240Y-102019121D01*
X222077000Y-102016220D01*
X222152114Y-101947415D01*
X222161666Y-101888796D01*
X222217589Y-101800193D01*
X222402969Y-101763684D01*
X222500333Y-101761371D01*
X222735818Y-101782412D01*
G37*
G36*
X208582568Y-125986321D02*
G01*
X208680492Y-126043907D01*
X208699666Y-126141973D01*
X208639798Y-126283950D01*
X208530333Y-126311873D01*
X208388829Y-126371941D01*
X208361000Y-126481772D01*
X208301131Y-126623750D01*
X208191666Y-126651672D01*
X208050162Y-126711740D01*
X208022333Y-126821572D01*
X207962464Y-126963549D01*
X207853000Y-126991471D01*
X207720215Y-127041246D01*
X207683666Y-127203846D01*
X207643979Y-127370382D01*
X207514333Y-127416220D01*
X207372829Y-127476289D01*
X207345000Y-127586120D01*
X207295391Y-127719349D01*
X207133333Y-127756020D01*
X206967352Y-127795839D01*
X206921666Y-127925919D01*
X206893266Y-128037074D01*
X206778477Y-128086200D01*
X206583000Y-128095819D01*
X206361431Y-128081571D01*
X206263507Y-128023985D01*
X206244333Y-127925919D01*
X206304201Y-127783942D01*
X206413666Y-127756020D01*
X206555170Y-127695951D01*
X206583000Y-127586120D01*
X206642868Y-127444143D01*
X206752333Y-127416220D01*
X206885118Y-127366446D01*
X206921666Y-127203846D01*
X206956636Y-127042185D01*
X207094326Y-126992368D01*
X207133333Y-126991471D01*
X207299314Y-126951652D01*
X207345000Y-126821572D01*
X207404868Y-126679594D01*
X207514333Y-126651672D01*
X207655837Y-126591603D01*
X207683666Y-126481772D01*
X207743535Y-126339795D01*
X207853000Y-126311873D01*
X207994504Y-126251804D01*
X208022333Y-126141973D01*
X208050733Y-126030818D01*
X208165522Y-125981692D01*
X208361000Y-125972073D01*
X208582568Y-125986321D01*
G37*
G36*
X145284333Y-110596153D02*
G01*
X145631867Y-110602155D01*
X145840435Y-110623931D01*
X145940104Y-110667139D01*
X145961666Y-110723578D01*
X146029439Y-110836202D01*
X146088666Y-110851003D01*
X146182598Y-110915477D01*
X146215437Y-111121248D01*
X146215666Y-111148327D01*
X146188126Y-111368234D01*
X146100233Y-111445114D01*
X146088666Y-111445652D01*
X145976418Y-111513651D01*
X145961666Y-111573077D01*
X145893893Y-111685700D01*
X145834666Y-111700501D01*
X145722418Y-111768501D01*
X145707666Y-111827926D01*
X145775439Y-111940550D01*
X145834666Y-111955351D01*
X145946915Y-112023350D01*
X145961666Y-112082776D01*
X146029439Y-112195399D01*
X146088666Y-112210200D01*
X146200915Y-112278200D01*
X146215666Y-112337625D01*
X146139938Y-112438788D01*
X145961666Y-112465050D01*
X145760014Y-112427059D01*
X145707666Y-112337625D01*
X145637080Y-112233851D01*
X145538333Y-112210200D01*
X145400429Y-112157084D01*
X145369000Y-112082776D01*
X145301227Y-111970152D01*
X145242000Y-111955351D01*
X145141173Y-112031332D01*
X145115000Y-112210200D01*
X145094020Y-112390710D01*
X144995060Y-112457242D01*
X144861000Y-112465050D01*
X144607000Y-112465050D01*
X144607000Y-111148327D01*
X145115000Y-111148327D01*
X145128106Y-111347604D01*
X145202052Y-111429328D01*
X145388777Y-111445615D01*
X145411333Y-111445652D01*
X145609945Y-111432501D01*
X145691397Y-111358308D01*
X145707629Y-111170958D01*
X145707666Y-111148327D01*
X145694560Y-110949051D01*
X145620613Y-110867326D01*
X145433888Y-110851040D01*
X145411333Y-110851003D01*
X145212721Y-110864153D01*
X145131269Y-110938347D01*
X145115036Y-111125697D01*
X145115000Y-111148327D01*
X144607000Y-111148327D01*
X144607000Y-110596153D01*
X145284333Y-110596153D01*
G37*
G36*
X196552464Y-112145439D02*
G01*
X196524317Y-112019431D01*
X196511313Y-111790954D01*
X196507750Y-111429969D01*
X196507666Y-111318227D01*
X196509789Y-110920306D01*
X196519960Y-110662230D01*
X196543882Y-110513962D01*
X196587256Y-110445463D01*
X196655786Y-110426695D01*
X196677000Y-110426254D01*
X196818504Y-110366185D01*
X196846333Y-110256354D01*
X196859725Y-110173744D01*
X196921976Y-110123284D01*
X197066196Y-110097157D01*
X197325495Y-110087547D01*
X197566000Y-110086454D01*
X197915923Y-110089616D01*
X198129663Y-110104312D01*
X198240332Y-110138360D01*
X198281039Y-110199576D01*
X198285666Y-110256354D01*
X198345535Y-110398331D01*
X198455000Y-110426254D01*
X198530541Y-110437438D01*
X198579535Y-110491015D01*
X198607682Y-110617023D01*
X198620686Y-110845501D01*
X198624249Y-111206485D01*
X198624333Y-111318227D01*
X198622210Y-111716148D01*
X198612039Y-111974224D01*
X198588117Y-112122492D01*
X198544743Y-112190991D01*
X198476213Y-112209759D01*
X198455000Y-112210200D01*
X198313495Y-112270269D01*
X198285666Y-112380100D01*
X198272274Y-112462710D01*
X198210023Y-112513170D01*
X198065803Y-112539297D01*
X197806504Y-112548907D01*
X197566000Y-112550000D01*
X197216076Y-112546838D01*
X197002336Y-112532142D01*
X196891667Y-112498094D01*
X196850960Y-112436879D01*
X196846333Y-112380100D01*
X196786464Y-112238123D01*
X196677000Y-112210200D01*
X197185000Y-112210200D01*
X197947000Y-112210200D01*
X197947000Y-110426254D01*
X197185000Y-110426254D01*
X197185000Y-112210200D01*
X196677000Y-112210200D01*
X196601458Y-112199016D01*
X196552464Y-112145439D01*
G37*
G36*
X224936329Y-103468308D02*
G01*
X224999438Y-103515987D01*
X225029883Y-103639192D01*
X225039555Y-103873712D01*
X225040333Y-104097491D01*
X225037695Y-104421559D01*
X225021855Y-104611520D01*
X224980923Y-104703162D01*
X224903011Y-104732273D01*
X224828666Y-104734615D01*
X224692293Y-104716068D01*
X224631680Y-104628586D01*
X224617075Y-104424408D01*
X224617000Y-104394816D01*
X224593182Y-104163430D01*
X224532405Y-104057349D01*
X224450686Y-104094858D01*
X224412388Y-104161204D01*
X224356785Y-104223676D01*
X224313611Y-104161204D01*
X224227762Y-104055029D01*
X224155839Y-104100455D01*
X224113859Y-104279196D01*
X224109000Y-104394816D01*
X224094799Y-104617125D01*
X224037405Y-104715377D01*
X223939666Y-104734615D01*
X223853088Y-104719567D01*
X223802289Y-104650950D01*
X223777912Y-104493557D01*
X223770598Y-104212178D01*
X223770333Y-104097491D01*
X223774332Y-103771738D01*
X223792569Y-103580605D01*
X223834401Y-103488884D01*
X223909185Y-103461367D01*
X223939666Y-103460368D01*
X224077205Y-103498452D01*
X224109000Y-103551385D01*
X224163463Y-103680631D01*
X224236000Y-103769828D01*
X224351801Y-103853831D01*
X224456877Y-103801914D01*
X224490000Y-103769828D01*
X224594092Y-103626354D01*
X224617000Y-103551385D01*
X224689417Y-103482980D01*
X224828666Y-103460368D01*
X224936329Y-103468308D01*
G37*
G36*
X144522333Y-119006187D02*
G01*
X144788551Y-119019828D01*
X144918577Y-119067058D01*
X144945666Y-119133612D01*
X144991384Y-119246660D01*
X145030333Y-119261036D01*
X145105553Y-119322950D01*
X145099752Y-119464999D01*
X145019055Y-119621644D01*
X144994047Y-119649379D01*
X144818365Y-119743874D01*
X144655380Y-119770735D01*
X144500071Y-119797007D01*
X144443146Y-119910512D01*
X144437666Y-120025585D01*
X144411056Y-120212127D01*
X144312044Y-120277805D01*
X144268333Y-120280434D01*
X144181755Y-120265386D01*
X144130956Y-120196770D01*
X144106579Y-120039376D01*
X144099265Y-119757997D01*
X144099000Y-119643311D01*
X144099000Y-119430936D01*
X144437666Y-119430936D01*
X144497535Y-119572913D01*
X144607000Y-119600836D01*
X144748504Y-119540767D01*
X144776333Y-119430936D01*
X144716464Y-119288959D01*
X144607000Y-119261036D01*
X144465495Y-119321105D01*
X144437666Y-119430936D01*
X144099000Y-119430936D01*
X144099000Y-119006187D01*
X144522333Y-119006187D01*
G37*
G36*
X238543305Y-125132361D02*
G01*
X238701675Y-125167052D01*
X238755331Y-125234646D01*
X238756333Y-125250000D01*
X238700410Y-125338602D01*
X238515030Y-125375112D01*
X238417666Y-125377424D01*
X238196098Y-125391672D01*
X238098174Y-125449258D01*
X238079000Y-125547324D01*
X238138868Y-125689301D01*
X238248333Y-125717224D01*
X238385913Y-125752799D01*
X238417666Y-125802174D01*
X238346754Y-125871194D01*
X238248333Y-125887123D01*
X238124386Y-125927173D01*
X238080746Y-126076186D01*
X238079000Y-126141973D01*
X238052389Y-126328515D01*
X237953378Y-126394193D01*
X237909666Y-126396822D01*
X237823088Y-126381774D01*
X237772289Y-126313158D01*
X237747912Y-126155764D01*
X237740598Y-125874385D01*
X237740333Y-125759699D01*
X237740333Y-125122575D01*
X238248333Y-125122575D01*
X238543305Y-125132361D01*
G37*
G36*
X172631666Y-127416220D02*
G01*
X173393666Y-127416220D01*
X173393666Y-125632274D01*
X174071000Y-125632274D01*
X174071000Y-126524247D01*
X174068876Y-126922168D01*
X174058705Y-127180244D01*
X174034784Y-127328512D01*
X173991409Y-127397011D01*
X173922879Y-127415779D01*
X173901666Y-127416220D01*
X173760162Y-127476289D01*
X173732333Y-127586120D01*
X173672464Y-127728097D01*
X173563000Y-127756020D01*
X173421495Y-127816088D01*
X173393666Y-127925919D01*
X173368737Y-128032093D01*
X173265224Y-128082300D01*
X173040037Y-128095754D01*
X173012666Y-128095819D01*
X172774571Y-128084703D01*
X172661983Y-128038543D01*
X172631812Y-127938125D01*
X172631666Y-127925919D01*
X172571798Y-127783942D01*
X172462333Y-127756020D01*
X172320829Y-127695951D01*
X172293000Y-127586120D01*
X172233131Y-127444143D01*
X172123666Y-127416220D01*
X172048124Y-127405036D01*
X171999131Y-127351459D01*
X171970983Y-127225451D01*
X171957980Y-126996974D01*
X171954417Y-126635989D01*
X171954333Y-126524247D01*
X171954333Y-125632274D01*
X172631666Y-125632274D01*
X172631666Y-127416220D01*
G37*
G36*
X164927000Y-103290468D02*
G01*
X165148568Y-103276220D01*
X165246492Y-103218634D01*
X165265666Y-103120568D01*
X165315275Y-102987339D01*
X165477333Y-102950669D01*
X165643314Y-102910849D01*
X165689000Y-102780769D01*
X165748868Y-102638792D01*
X165858333Y-102610869D01*
X165999837Y-102550801D01*
X166027666Y-102440970D01*
X166056066Y-102329815D01*
X166170855Y-102280689D01*
X166366333Y-102271070D01*
X166705000Y-102271070D01*
X166705000Y-102950669D01*
X166708535Y-103289274D01*
X166724817Y-103492208D01*
X166762363Y-103593647D01*
X166829687Y-103627766D01*
X166874333Y-103630267D01*
X167007118Y-103680042D01*
X167043666Y-103842642D01*
X167003979Y-104009178D01*
X166874333Y-104055016D01*
X166763549Y-104083512D01*
X166714587Y-104198684D01*
X166705000Y-104394816D01*
X166705000Y-104734615D01*
X166027666Y-104734615D01*
X166027666Y-104055016D01*
X164588333Y-104055016D01*
X164588333Y-103460368D01*
X165265666Y-103460368D01*
X165290595Y-103566541D01*
X165394108Y-103616748D01*
X165619296Y-103630202D01*
X165646666Y-103630267D01*
X165884761Y-103619151D01*
X165997349Y-103572991D01*
X166027521Y-103472573D01*
X166027666Y-103460368D01*
X166002737Y-103354194D01*
X165899224Y-103303987D01*
X165674037Y-103290533D01*
X165646666Y-103290468D01*
X165408571Y-103301584D01*
X165295983Y-103347744D01*
X165265812Y-103448162D01*
X165265666Y-103460368D01*
X164588333Y-103460368D01*
X164588333Y-103290468D01*
X164927000Y-103290468D01*
G37*
G36*
X148144028Y-126236203D02*
G01*
X148219008Y-126293260D01*
X148244814Y-126441920D01*
X148247666Y-126651672D01*
X148247666Y-127076421D01*
X148840333Y-127076421D01*
X148840333Y-126651672D01*
X148845882Y-126400231D01*
X148880002Y-126274846D01*
X148968901Y-126231692D01*
X149094333Y-126226923D01*
X149348333Y-126226923D01*
X149348333Y-128095819D01*
X149094333Y-128095819D01*
X148938144Y-128084738D01*
X148864168Y-128020754D01*
X148841769Y-127857762D01*
X148840333Y-127713545D01*
X148834007Y-127478659D01*
X148791133Y-127367433D01*
X148675869Y-127333628D01*
X148544000Y-127331271D01*
X148361919Y-127339431D01*
X148275699Y-127394739D01*
X148249494Y-127543431D01*
X148247666Y-127713545D01*
X148240303Y-127948611D01*
X148197790Y-128059946D01*
X148089490Y-128093658D01*
X147993666Y-128095819D01*
X147739666Y-128095819D01*
X147739666Y-126226923D01*
X147993666Y-126226923D01*
X148144028Y-126236203D01*
G37*
G36*
X192158589Y-110089616D02*
G01*
X192372330Y-110104312D01*
X192482999Y-110138360D01*
X192523705Y-110199576D01*
X192528333Y-110256354D01*
X192468464Y-110398331D01*
X192359000Y-110426254D01*
X192283458Y-110437438D01*
X192234464Y-110491015D01*
X192206317Y-110617023D01*
X192193313Y-110845501D01*
X192189750Y-111206485D01*
X192189666Y-111318227D01*
X192191789Y-111716148D01*
X192201960Y-111974224D01*
X192225882Y-112122492D01*
X192269256Y-112190991D01*
X192337786Y-112209759D01*
X192359000Y-112210200D01*
X192500504Y-112270269D01*
X192528333Y-112380100D01*
X192514940Y-112462710D01*
X192452689Y-112513170D01*
X192308470Y-112539297D01*
X192049171Y-112548907D01*
X191808666Y-112550000D01*
X191458743Y-112546838D01*
X191245002Y-112532142D01*
X191134334Y-112498094D01*
X191093627Y-112436879D01*
X191089000Y-112380100D01*
X191148868Y-112238123D01*
X191258333Y-112210200D01*
X191333875Y-112199016D01*
X191382868Y-112145439D01*
X191411016Y-112019431D01*
X191424019Y-111790954D01*
X191427582Y-111429969D01*
X191427666Y-111318227D01*
X191425543Y-110920306D01*
X191415372Y-110662230D01*
X191391450Y-110513962D01*
X191348076Y-110445463D01*
X191279546Y-110426695D01*
X191258333Y-110426254D01*
X191116829Y-110366185D01*
X191089000Y-110256354D01*
X191102392Y-110173744D01*
X191164643Y-110123284D01*
X191308863Y-110097157D01*
X191568162Y-110087547D01*
X191808666Y-110086454D01*
X192158589Y-110089616D01*
G37*
G36*
X203408000Y-110086454D02*
G01*
X203804594Y-110088585D01*
X204061809Y-110098790D01*
X204209584Y-110122791D01*
X204277854Y-110166311D01*
X204296559Y-110235070D01*
X204297000Y-110256354D01*
X204356868Y-110398331D01*
X204466333Y-110426254D01*
X204577117Y-110454749D01*
X204626079Y-110569922D01*
X204635666Y-110766053D01*
X204621466Y-110988362D01*
X204564072Y-111086614D01*
X204466333Y-111105852D01*
X204324829Y-111165921D01*
X204297000Y-111275752D01*
X204279847Y-111367699D01*
X204203446Y-111418962D01*
X204030379Y-111441092D01*
X203746666Y-111445652D01*
X203196333Y-111445652D01*
X203196333Y-112550000D01*
X202519000Y-112550000D01*
X202519000Y-111105852D01*
X203196333Y-111105852D01*
X203958333Y-111105852D01*
X203958333Y-110426254D01*
X203196333Y-110426254D01*
X203196333Y-111105852D01*
X202519000Y-111105852D01*
X202519000Y-110086454D01*
X203408000Y-110086454D01*
G37*
G36*
X144439578Y-117322238D02*
G01*
X144490376Y-117390855D01*
X144514754Y-117548248D01*
X144522067Y-117829627D01*
X144522333Y-117944314D01*
X144518333Y-118270067D01*
X144500097Y-118461200D01*
X144458265Y-118552921D01*
X144383481Y-118580438D01*
X144353000Y-118581438D01*
X144212973Y-118525643D01*
X144183666Y-118447945D01*
X144132146Y-118296110D01*
X144017292Y-118145053D01*
X143898663Y-118071963D01*
X143893380Y-118071739D01*
X143859386Y-118145683D01*
X143845002Y-118323801D01*
X143845000Y-118326588D01*
X143818389Y-118513130D01*
X143719378Y-118578809D01*
X143675666Y-118581438D01*
X143589088Y-118566390D01*
X143538289Y-118497773D01*
X143513912Y-118340380D01*
X143506598Y-118059001D01*
X143506333Y-117944314D01*
X143510332Y-117618561D01*
X143528569Y-117427428D01*
X143570401Y-117335707D01*
X143645185Y-117308190D01*
X143675666Y-117307190D01*
X143813205Y-117345275D01*
X143845000Y-117398208D01*
X143899154Y-117523288D01*
X144016304Y-117660417D01*
X144128480Y-117731452D01*
X144135285Y-117731939D01*
X144171690Y-117659064D01*
X144183666Y-117519565D01*
X144223353Y-117353029D01*
X144353000Y-117307190D01*
X144439578Y-117322238D01*
G37*
G36*
X168271333Y-110086454D02*
G01*
X168667927Y-110088585D01*
X168925143Y-110098790D01*
X169072917Y-110122791D01*
X169141188Y-110166311D01*
X169159893Y-110235070D01*
X169160333Y-110256354D01*
X169220201Y-110398331D01*
X169329666Y-110426254D01*
X169440450Y-110454749D01*
X169489412Y-110569922D01*
X169499000Y-110766053D01*
X169484799Y-110988362D01*
X169427405Y-111086614D01*
X169329666Y-111105852D01*
X169188162Y-111165921D01*
X169160333Y-111275752D01*
X169100464Y-111417729D01*
X168991000Y-111445652D01*
X168858215Y-111495426D01*
X168821666Y-111658026D01*
X168861353Y-111824563D01*
X168991000Y-111870401D01*
X169132504Y-111930470D01*
X169160333Y-112040301D01*
X169220201Y-112182278D01*
X169329666Y-112210200D01*
X169471170Y-112270269D01*
X169499000Y-112380100D01*
X169470599Y-112491255D01*
X169355810Y-112540381D01*
X169160333Y-112550000D01*
X168938765Y-112535752D01*
X168840840Y-112478166D01*
X168821666Y-112380100D01*
X168761798Y-112238123D01*
X168652333Y-112210200D01*
X168510829Y-112150132D01*
X168483000Y-112040301D01*
X168433391Y-111907072D01*
X168271333Y-111870401D01*
X168134960Y-111888948D01*
X168074347Y-111976430D01*
X168059742Y-112180608D01*
X168059666Y-112210200D01*
X168059666Y-112550000D01*
X167382333Y-112550000D01*
X167382333Y-111105852D01*
X168059666Y-111105852D01*
X168821666Y-111105852D01*
X168821666Y-110426254D01*
X168059666Y-110426254D01*
X168059666Y-111105852D01*
X167382333Y-111105852D01*
X167382333Y-110086454D01*
X168271333Y-110086454D01*
G37*
G36*
X184400333Y-102610869D02*
G01*
X184386133Y-102833178D01*
X184328738Y-102931430D01*
X184231000Y-102950669D01*
X184089495Y-103010737D01*
X184061666Y-103120568D01*
X184001798Y-103262545D01*
X183892333Y-103290468D01*
X183809998Y-103303905D01*
X183759706Y-103366364D01*
X183733666Y-103511066D01*
X183724088Y-103771232D01*
X183723000Y-104012541D01*
X183723000Y-104734615D01*
X182961000Y-104734615D01*
X182961000Y-104012541D01*
X182962943Y-103662880D01*
X182975347Y-103449479D01*
X183008072Y-103338702D01*
X183070978Y-103296911D01*
X183172666Y-103290468D01*
X183338647Y-103250648D01*
X183384333Y-103120568D01*
X183444201Y-102978591D01*
X183553666Y-102950669D01*
X183695170Y-102890600D01*
X183723000Y-102780769D01*
X183698071Y-102674595D01*
X183594558Y-102624389D01*
X183369370Y-102610934D01*
X183342000Y-102610869D01*
X183103905Y-102621986D01*
X182991317Y-102668145D01*
X182961145Y-102768564D01*
X182961000Y-102780769D01*
X182932599Y-102891923D01*
X182817810Y-102941049D01*
X182622333Y-102950669D01*
X182283666Y-102950669D01*
X182283666Y-102271070D01*
X184400333Y-102271070D01*
X184400333Y-102610869D01*
G37*
G36*
X239525307Y-101778581D02*
G01*
X239576398Y-101855237D01*
X239598454Y-102028883D01*
X239603000Y-102313545D01*
X239608277Y-102612373D01*
X239631785Y-102778976D01*
X239685037Y-102850898D01*
X239772333Y-102865719D01*
X239909913Y-102901294D01*
X239941666Y-102950669D01*
X239864547Y-102995918D01*
X239663084Y-103026595D01*
X239433666Y-103035618D01*
X239163076Y-103022722D01*
X238979626Y-102989033D01*
X238925666Y-102950669D01*
X238996579Y-102881648D01*
X239095000Y-102865719D01*
X239220308Y-102824270D01*
X239263105Y-102671591D01*
X239264333Y-102617948D01*
X239231585Y-102423825D01*
X239158500Y-102320624D01*
X239096235Y-102264835D01*
X239158500Y-102221516D01*
X239240556Y-102107085D01*
X239264333Y-101966666D01*
X239306948Y-101803753D01*
X239433666Y-101761371D01*
X239525307Y-101778581D01*
G37*
G36*
X231431305Y-101771157D02*
G01*
X231589675Y-101805848D01*
X231643331Y-101873442D01*
X231644333Y-101888796D01*
X231573747Y-101992570D01*
X231475000Y-102016220D01*
X231380423Y-102034818D01*
X231329319Y-102116515D01*
X231308779Y-102300164D01*
X231305666Y-102525919D01*
X231299488Y-102810597D01*
X231272346Y-102964421D01*
X231211334Y-103026248D01*
X231136333Y-103035618D01*
X231041757Y-103017021D01*
X230990653Y-102935324D01*
X230970113Y-102751674D01*
X230967000Y-102525919D01*
X230960821Y-102241242D01*
X230933680Y-102087418D01*
X230872667Y-102025591D01*
X230797666Y-102016220D01*
X230659762Y-101963104D01*
X230628333Y-101888796D01*
X230667346Y-101814806D01*
X230805647Y-101775081D01*
X231075125Y-101761622D01*
X231136333Y-101761371D01*
X231431305Y-101771157D01*
G37*
G36*
X179743666Y-111105852D02*
G01*
X180505666Y-111105852D01*
X180505666Y-110086454D01*
X181183000Y-110086454D01*
X181183000Y-110596153D01*
X181176821Y-110880831D01*
X181149680Y-111034655D01*
X181088667Y-111096482D01*
X181013666Y-111105852D01*
X180872162Y-111165921D01*
X180844333Y-111275752D01*
X180784464Y-111417729D01*
X180675000Y-111445652D01*
X180583359Y-111462861D01*
X180532267Y-111539518D01*
X180510211Y-111713164D01*
X180505666Y-111997826D01*
X180505666Y-112550000D01*
X179743666Y-112550000D01*
X179743666Y-111997826D01*
X179738389Y-111698998D01*
X179714880Y-111532394D01*
X179661629Y-111460473D01*
X179574333Y-111445652D01*
X179432829Y-111385583D01*
X179405000Y-111275752D01*
X179345131Y-111133775D01*
X179235666Y-111105852D01*
X179141090Y-111087255D01*
X179089986Y-111005558D01*
X179069446Y-110821909D01*
X179066333Y-110596153D01*
X179066333Y-110086454D01*
X179743666Y-110086454D01*
X179743666Y-111105852D01*
G37*
G36*
X217081666Y-119600836D02*
G01*
X214965000Y-119600836D01*
X214965000Y-119176087D01*
X217081666Y-119176087D01*
X217081666Y-119600836D01*
G37*
G36*
X174806543Y-110088002D02*
G01*
X175103935Y-110095588D01*
X175287018Y-110113629D01*
X175383298Y-110146541D01*
X175420283Y-110198739D01*
X175425666Y-110256354D01*
X175397266Y-110367509D01*
X175282477Y-110416635D01*
X175087000Y-110426254D01*
X174748333Y-110426254D01*
X174748333Y-112550000D01*
X173986333Y-112550000D01*
X173986333Y-110426254D01*
X173647666Y-110426254D01*
X173426098Y-110412006D01*
X173328174Y-110354420D01*
X173309000Y-110256354D01*
X173318639Y-110185846D01*
X173365895Y-110138104D01*
X173478275Y-110108712D01*
X173683288Y-110093256D01*
X174008441Y-110087319D01*
X174367333Y-110086454D01*
X174806543Y-110088002D01*
G37*
G36*
X212098690Y-126235430D02*
G01*
X212270261Y-126265827D01*
X212336303Y-126325428D01*
X212340333Y-126354347D01*
X212408106Y-126466971D01*
X212467333Y-126481772D01*
X212579581Y-126549772D01*
X212594333Y-126609197D01*
X212518605Y-126710360D01*
X212340333Y-126736622D01*
X212138681Y-126698631D01*
X212086333Y-126609197D01*
X212022073Y-126514951D01*
X211816988Y-126482003D01*
X211790000Y-126481772D01*
X211591388Y-126494923D01*
X211509935Y-126569116D01*
X211493703Y-126756466D01*
X211493666Y-126779097D01*
X211493666Y-127076421D01*
X211917000Y-127076421D01*
X212183218Y-127090062D01*
X212313244Y-127137292D01*
X212340333Y-127203846D01*
X212408106Y-127316470D01*
X212467333Y-127331271D01*
X212568159Y-127407252D01*
X212594333Y-127586120D01*
X212556469Y-127788447D01*
X212467333Y-127840970D01*
X212355084Y-127908969D01*
X212340333Y-127968394D01*
X212303592Y-128039869D01*
X212172311Y-128079595D01*
X211914898Y-128094886D01*
X211790000Y-128095819D01*
X211481309Y-128087312D01*
X211309738Y-128056915D01*
X211243696Y-127997313D01*
X211239666Y-127968394D01*
X211171893Y-127855770D01*
X211112666Y-127840970D01*
X211000418Y-127772970D01*
X210985666Y-127713545D01*
X211061394Y-127612382D01*
X211239666Y-127586120D01*
X211441318Y-127624111D01*
X211493666Y-127713545D01*
X211557926Y-127807790D01*
X211763011Y-127840739D01*
X211790000Y-127840970D01*
X211989094Y-127826763D01*
X212070755Y-127754702D01*
X212086333Y-127586120D01*
X212077084Y-127435255D01*
X212020217Y-127360025D01*
X211872052Y-127334132D01*
X211663000Y-127331271D01*
X211396781Y-127317629D01*
X211266755Y-127270399D01*
X211239666Y-127203846D01*
X211171893Y-127091222D01*
X211112666Y-127076421D01*
X211018735Y-127011947D01*
X210985896Y-126806176D01*
X210985666Y-126779097D01*
X211013206Y-126559190D01*
X211101100Y-126482310D01*
X211112666Y-126481772D01*
X211224915Y-126413773D01*
X211239666Y-126354347D01*
X211276407Y-126282873D01*
X211407688Y-126243147D01*
X211665101Y-126227856D01*
X211790000Y-126226923D01*
X212098690Y-126235430D01*
G37*
G36*
X215814085Y-126231483D02*
G01*
X216056727Y-126248162D01*
X216186980Y-126281458D01*
X216233231Y-126335866D01*
X216235000Y-126354347D01*
X216198259Y-126425822D01*
X216066977Y-126465548D01*
X215809565Y-126480839D01*
X215684666Y-126481772D01*
X215134333Y-126481772D01*
X215134333Y-126779097D01*
X215147439Y-126978373D01*
X215221386Y-127060098D01*
X215408111Y-127076384D01*
X215430666Y-127076421D01*
X215649839Y-127104053D01*
X215726464Y-127192240D01*
X215727000Y-127203846D01*
X215662740Y-127298091D01*
X215457655Y-127331040D01*
X215430666Y-127331271D01*
X215248586Y-127339431D01*
X215162365Y-127394739D01*
X215136161Y-127543431D01*
X215134333Y-127713545D01*
X215126970Y-127948611D01*
X215084457Y-128059946D01*
X214976157Y-128093658D01*
X214880333Y-128095819D01*
X214626333Y-128095819D01*
X214626333Y-126226923D01*
X215430666Y-126226923D01*
X215814085Y-126231483D01*
G37*
G36*
X185585666Y-112210200D02*
G01*
X186347666Y-112210200D01*
X186347666Y-110086454D01*
X187025000Y-110086454D01*
X187025000Y-111148327D01*
X187023457Y-111589006D01*
X187015896Y-111887393D01*
X186997915Y-112071088D01*
X186965113Y-112167690D01*
X186913089Y-112204800D01*
X186855666Y-112210200D01*
X186714162Y-112270269D01*
X186686333Y-112380100D01*
X186672940Y-112462710D01*
X186610689Y-112513170D01*
X186466470Y-112539297D01*
X186207171Y-112548907D01*
X185966666Y-112550000D01*
X185616743Y-112546838D01*
X185403002Y-112532142D01*
X185292334Y-112498094D01*
X185251627Y-112436879D01*
X185247000Y-112380100D01*
X185187131Y-112238123D01*
X185077666Y-112210200D01*
X185007393Y-112200529D01*
X184959810Y-112153115D01*
X184930517Y-112040359D01*
X184915112Y-111834660D01*
X184909194Y-111508419D01*
X184908333Y-111148327D01*
X184908333Y-110086454D01*
X185585666Y-110086454D01*
X185585666Y-112210200D01*
G37*
G36*
X204687901Y-118255886D02*
G01*
X204785825Y-118313472D01*
X204805000Y-118411538D01*
X204776599Y-118522693D01*
X204661810Y-118571819D01*
X204466333Y-118581438D01*
X204244765Y-118567190D01*
X204146840Y-118509604D01*
X204127666Y-118411538D01*
X204156066Y-118300384D01*
X204270855Y-118251258D01*
X204466333Y-118241638D01*
X204687901Y-118255886D01*
G37*
G36*
X226818333Y-119855685D02*
G01*
X227495666Y-119855685D01*
X227495666Y-117986789D01*
X228088333Y-117986789D01*
X228088333Y-118921237D01*
X228086384Y-119330188D01*
X228076990Y-119598623D01*
X228054829Y-119755913D01*
X228014577Y-119831426D01*
X227950913Y-119854535D01*
X227919000Y-119855685D01*
X227777495Y-119915754D01*
X227749666Y-120025585D01*
X227733677Y-120114872D01*
X227661570Y-120166024D01*
X227497138Y-120189419D01*
X227204176Y-120195437D01*
X227157000Y-120195485D01*
X226845535Y-120190901D01*
X226667101Y-120170230D01*
X226585491Y-120123092D01*
X226564498Y-120039109D01*
X226564333Y-120025585D01*
X226504464Y-119883608D01*
X226395000Y-119855685D01*
X226320893Y-119844932D01*
X226272249Y-119793092D01*
X226243746Y-119670796D01*
X226230062Y-119448672D01*
X226225875Y-119097351D01*
X226225666Y-118921237D01*
X226225666Y-117986789D01*
X226818333Y-117986789D01*
X226818333Y-119855685D01*
G37*
G36*
X199600464Y-104330055D02*
G01*
X199572317Y-104204046D01*
X199559313Y-103975569D01*
X199555750Y-103614584D01*
X199555666Y-103502842D01*
X199557789Y-103104921D01*
X199567960Y-102846846D01*
X199591882Y-102698577D01*
X199635256Y-102630079D01*
X199703786Y-102611311D01*
X199725000Y-102610869D01*
X199866504Y-102550801D01*
X199894333Y-102440970D01*
X199907725Y-102358359D01*
X199969976Y-102307899D01*
X200114196Y-102281772D01*
X200373495Y-102272162D01*
X200614000Y-102271070D01*
X200963923Y-102274232D01*
X201177663Y-102288928D01*
X201288332Y-102322975D01*
X201329039Y-102384191D01*
X201333666Y-102440970D01*
X201393535Y-102582947D01*
X201503000Y-102610869D01*
X201578541Y-102622053D01*
X201627535Y-102675630D01*
X201655682Y-102801638D01*
X201668686Y-103030116D01*
X201672249Y-103391101D01*
X201672333Y-103502842D01*
X201670210Y-103900763D01*
X201660039Y-104158839D01*
X201636117Y-104307107D01*
X201592743Y-104375606D01*
X201524213Y-104394374D01*
X201503000Y-104394816D01*
X201361495Y-104454884D01*
X201333666Y-104564715D01*
X201320274Y-104647326D01*
X201258023Y-104697786D01*
X201113803Y-104723912D01*
X200854504Y-104733523D01*
X200614000Y-104734615D01*
X200264076Y-104731453D01*
X200050336Y-104716757D01*
X199939667Y-104682709D01*
X199898960Y-104621494D01*
X199894333Y-104564715D01*
X199834464Y-104422738D01*
X199725000Y-104394816D01*
X200233000Y-104394816D01*
X200995000Y-104394816D01*
X200995000Y-103842642D01*
X200989722Y-103543814D01*
X200966214Y-103377210D01*
X200912962Y-103305289D01*
X200825666Y-103290468D01*
X200684162Y-103230399D01*
X200656333Y-103120568D01*
X200716201Y-102978591D01*
X200825666Y-102950669D01*
X200967170Y-102890600D01*
X200995000Y-102780769D01*
X200970071Y-102674595D01*
X200866558Y-102624389D01*
X200641370Y-102610934D01*
X200614000Y-102610869D01*
X200233000Y-102610869D01*
X200233000Y-102950669D01*
X200244553Y-103169595D01*
X200299046Y-103266901D01*
X200426233Y-103290347D01*
X200444666Y-103290468D01*
X200610647Y-103330288D01*
X200656333Y-103460368D01*
X200606724Y-103593596D01*
X200444666Y-103630267D01*
X200314051Y-103646112D01*
X200252167Y-103723993D01*
X200233808Y-103909434D01*
X200233000Y-104012541D01*
X200233000Y-104394816D01*
X199725000Y-104394816D01*
X199649458Y-104383632D01*
X199600464Y-104330055D01*
G37*
G36*
X148925000Y-104394816D02*
G01*
X149263666Y-104394816D01*
X149485234Y-104409063D01*
X149583159Y-104466650D01*
X149602333Y-104564715D01*
X149592694Y-104635224D01*
X149545438Y-104682966D01*
X149433057Y-104712357D01*
X149228044Y-104727813D01*
X148902891Y-104733751D01*
X148544000Y-104734615D01*
X148104789Y-104733068D01*
X147807397Y-104725481D01*
X147624315Y-104707440D01*
X147528035Y-104674529D01*
X147491049Y-104622330D01*
X147485666Y-104564715D01*
X147514066Y-104453561D01*
X147628855Y-104404435D01*
X147824333Y-104394816D01*
X148163000Y-104394816D01*
X148163000Y-103842642D01*
X148157722Y-103543814D01*
X148134214Y-103377210D01*
X148080962Y-103305289D01*
X147993666Y-103290468D01*
X147852162Y-103230399D01*
X147824333Y-103120568D01*
X147884201Y-102978591D01*
X147993666Y-102950669D01*
X148104450Y-102922173D01*
X148153412Y-102807001D01*
X148163000Y-102610869D01*
X148163000Y-102271070D01*
X148925000Y-102271070D01*
X148925000Y-104394816D01*
G37*
G36*
X210901000Y-119345986D02*
G01*
X210889446Y-119564913D01*
X210834953Y-119662218D01*
X210707766Y-119685664D01*
X210689333Y-119685786D01*
X210523352Y-119725605D01*
X210477666Y-119855685D01*
X210449266Y-119966840D01*
X210334477Y-120015966D01*
X210139000Y-120025585D01*
X209917431Y-120011337D01*
X209819507Y-119953751D01*
X209800333Y-119855685D01*
X209860201Y-119713708D01*
X209969666Y-119685786D01*
X210080450Y-119657290D01*
X210129412Y-119542118D01*
X210139000Y-119345986D01*
X210139000Y-119006187D01*
X210901000Y-119006187D01*
X210901000Y-119345986D01*
G37*
G36*
X193807920Y-103146800D02*
G01*
X193798333Y-102950669D01*
X193812533Y-102728359D01*
X193869927Y-102630107D01*
X193967666Y-102610869D01*
X194109170Y-102550801D01*
X194137000Y-102440970D01*
X194150392Y-102358359D01*
X194212643Y-102307899D01*
X194356863Y-102281772D01*
X194616162Y-102272162D01*
X194856666Y-102271070D01*
X195206589Y-102274232D01*
X195420330Y-102288928D01*
X195530999Y-102322975D01*
X195571705Y-102384191D01*
X195576333Y-102440970D01*
X195636201Y-102582947D01*
X195745666Y-102610869D01*
X195821208Y-102622053D01*
X195870201Y-102675630D01*
X195898349Y-102801638D01*
X195911353Y-103030116D01*
X195914916Y-103391101D01*
X195915000Y-103502842D01*
X195912876Y-103900763D01*
X195902705Y-104158839D01*
X195878784Y-104307107D01*
X195835409Y-104375606D01*
X195766879Y-104394374D01*
X195745666Y-104394816D01*
X195604162Y-104454884D01*
X195576333Y-104564715D01*
X195562940Y-104647326D01*
X195500689Y-104697786D01*
X195356470Y-104723912D01*
X195097171Y-104733523D01*
X194856666Y-104734615D01*
X194506743Y-104731453D01*
X194293002Y-104716757D01*
X194182334Y-104682709D01*
X194141627Y-104621494D01*
X194137000Y-104564715D01*
X194077131Y-104422738D01*
X193967666Y-104394816D01*
X193826162Y-104334747D01*
X193798333Y-104224916D01*
X193826733Y-104113762D01*
X193941522Y-104064636D01*
X194137000Y-104055016D01*
X194358568Y-104069264D01*
X194456492Y-104126850D01*
X194475666Y-104224916D01*
X194500595Y-104331090D01*
X194604108Y-104381296D01*
X194829296Y-104394751D01*
X194856666Y-104394816D01*
X195237666Y-104394816D01*
X195237666Y-103630267D01*
X194687333Y-103630267D01*
X194389501Y-103624972D01*
X194223453Y-103601385D01*
X194151771Y-103547956D01*
X194137000Y-103460368D01*
X194077131Y-103318390D01*
X193967666Y-103290468D01*
X194475666Y-103290468D01*
X195237666Y-103290468D01*
X195237666Y-102610869D01*
X194475666Y-102610869D01*
X194475666Y-103290468D01*
X193967666Y-103290468D01*
X193856882Y-103261973D01*
X193807920Y-103146800D01*
G37*
G36*
X239728639Y-117316976D02*
G01*
X239887008Y-117351667D01*
X239940664Y-117419262D01*
X239941666Y-117434615D01*
X239885743Y-117523217D01*
X239700364Y-117559727D01*
X239603000Y-117562040D01*
X239390926Y-117580881D01*
X239272969Y-117627947D01*
X239264333Y-117646990D01*
X239336969Y-117710195D01*
X239482047Y-117731939D01*
X239741614Y-117800299D01*
X239904931Y-117982003D01*
X239941666Y-118156689D01*
X239887087Y-118363427D01*
X239820714Y-118460081D01*
X239635289Y-118550941D01*
X239383215Y-118573444D01*
X239146340Y-118528183D01*
X239031500Y-118454367D01*
X238935353Y-118313662D01*
X238981473Y-118251402D01*
X239095000Y-118241638D01*
X239232580Y-118277213D01*
X239264333Y-118326588D01*
X239335245Y-118395609D01*
X239433666Y-118411538D01*
X239557613Y-118371489D01*
X239601253Y-118222475D01*
X239603000Y-118156689D01*
X239589626Y-117993277D01*
X239517153Y-117920634D01*
X239337055Y-117902241D01*
X239264333Y-117901839D01*
X239047497Y-117892838D01*
X238951133Y-117837261D01*
X238926423Y-117692248D01*
X238925666Y-117604515D01*
X238925666Y-117307190D01*
X239433666Y-117307190D01*
X239728639Y-117316976D01*
G37*
G36*
X189786568Y-125646522D02*
G01*
X189884492Y-125704108D01*
X189903666Y-125802174D01*
X189953275Y-125935403D01*
X190115333Y-125972073D01*
X190281314Y-126011893D01*
X190327000Y-126141973D01*
X190386868Y-126283950D01*
X190496333Y-126311873D01*
X190637837Y-126251804D01*
X190665666Y-126141973D01*
X190725535Y-125999996D01*
X190835000Y-125972073D01*
X190976504Y-125912005D01*
X191004333Y-125802174D01*
X191032733Y-125691019D01*
X191147522Y-125641893D01*
X191343000Y-125632274D01*
X191681666Y-125632274D01*
X191681666Y-128095819D01*
X191004333Y-128095819D01*
X191004333Y-127373745D01*
X191001182Y-127022652D01*
X190986534Y-126808196D01*
X190952600Y-126697158D01*
X190891589Y-126656315D01*
X190835000Y-126651672D01*
X190693495Y-126711740D01*
X190665666Y-126821572D01*
X190605798Y-126963549D01*
X190496333Y-126991471D01*
X190354829Y-126931403D01*
X190327000Y-126821572D01*
X190277391Y-126688343D01*
X190115333Y-126651672D01*
X190012834Y-126658302D01*
X189950278Y-126700616D01*
X189917805Y-126812252D01*
X189905555Y-127026848D01*
X189903666Y-127373745D01*
X189903666Y-128095819D01*
X189226333Y-128095819D01*
X189226333Y-125632274D01*
X189565000Y-125632274D01*
X189786568Y-125646522D01*
G37*
G36*
X223523307Y-101778581D02*
G01*
X223574398Y-101855237D01*
X223596454Y-102028883D01*
X223601000Y-102313545D01*
X223601000Y-102865719D01*
X223939666Y-102865719D01*
X224151740Y-102884560D01*
X224269697Y-102931626D01*
X224278333Y-102950669D01*
X224201213Y-102995918D01*
X223999750Y-103026595D01*
X223770333Y-103035618D01*
X223262333Y-103035618D01*
X223262333Y-102398495D01*
X223266332Y-102072741D01*
X223284569Y-101881608D01*
X223326401Y-101789888D01*
X223401185Y-101762370D01*
X223431666Y-101761371D01*
X223523307Y-101778581D01*
G37*
X143650000Y-126600000D02*
X144285000Y-127235000D01*
X144285000Y-127235000D02*
X142909166Y-127235000D01*
X142909166Y-127235000D02*
X142909166Y-126600000D01*
X142909166Y-126600000D02*
X143650000Y-126600000D01*
X143650000Y-126600000D02*
X143650000Y-126600000D01*
G36*
X144285000Y-127235000D02*
G01*
X142909166Y-127235000D01*
X142909166Y-126600000D01*
X143650000Y-126600000D01*
X144285000Y-127235000D01*
G37*
X144285000Y-127235000D02*
X142909166Y-127235000D01*
X142909166Y-126600000D01*
X143650000Y-126600000D01*
X144285000Y-127235000D01*
G36*
X225447921Y-117988744D02*
G01*
X225715461Y-117998169D01*
X225872226Y-118020405D01*
X225947488Y-118060791D01*
X225970520Y-118124668D01*
X225971666Y-118156689D01*
X225938518Y-118273787D01*
X225809111Y-118321035D01*
X225675333Y-118326588D01*
X225379000Y-118326588D01*
X225379000Y-120195485D01*
X224701666Y-120195485D01*
X224701666Y-118326588D01*
X224405333Y-118326588D01*
X224201094Y-118307583D01*
X224118686Y-118233389D01*
X224109000Y-118156689D01*
X224119717Y-118082334D01*
X224171384Y-118033527D01*
X224293273Y-118004929D01*
X224514656Y-117991200D01*
X224864806Y-117986998D01*
X225040333Y-117986789D01*
X225447921Y-117988744D01*
G37*
G36*
X146990023Y-126235430D02*
G01*
X147161594Y-126265827D01*
X147227636Y-126325428D01*
X147231666Y-126354347D01*
X147299439Y-126466971D01*
X147358666Y-126481772D01*
X147470915Y-126549772D01*
X147485666Y-126609197D01*
X147409938Y-126710360D01*
X147231666Y-126736622D01*
X147030014Y-126698631D01*
X146977666Y-126609197D01*
X146913407Y-126514951D01*
X146708322Y-126482003D01*
X146681333Y-126481772D01*
X146482721Y-126494923D01*
X146401269Y-126569116D01*
X146385036Y-126756466D01*
X146385000Y-126779097D01*
X146385000Y-127076421D01*
X146808333Y-127076421D01*
X147074551Y-127090062D01*
X147204577Y-127137292D01*
X147231666Y-127203846D01*
X147299439Y-127316470D01*
X147358666Y-127331271D01*
X147459492Y-127407252D01*
X147485666Y-127586120D01*
X147447802Y-127788447D01*
X147358666Y-127840970D01*
X147246418Y-127908969D01*
X147231666Y-127968394D01*
X147194926Y-128039869D01*
X147063644Y-128079595D01*
X146806231Y-128094886D01*
X146681333Y-128095819D01*
X146372643Y-128087312D01*
X146201071Y-128056915D01*
X146135029Y-127997313D01*
X146131000Y-127968394D01*
X146063227Y-127855770D01*
X146004000Y-127840970D01*
X145891751Y-127772970D01*
X145877000Y-127713545D01*
X145952728Y-127612382D01*
X146131000Y-127586120D01*
X146332652Y-127624111D01*
X146385000Y-127713545D01*
X146449259Y-127807790D01*
X146654344Y-127840739D01*
X146681333Y-127840970D01*
X146880428Y-127826763D01*
X146962088Y-127754702D01*
X146977666Y-127586120D01*
X146968417Y-127435255D01*
X146911550Y-127360025D01*
X146763385Y-127334132D01*
X146554333Y-127331271D01*
X146288114Y-127317629D01*
X146158089Y-127270399D01*
X146131000Y-127203846D01*
X146063227Y-127091222D01*
X146004000Y-127076421D01*
X145910068Y-127011947D01*
X145877229Y-126806176D01*
X145877000Y-126779097D01*
X145904539Y-126559190D01*
X145992433Y-126482310D01*
X146004000Y-126481772D01*
X146116248Y-126413773D01*
X146131000Y-126354347D01*
X146167740Y-126282873D01*
X146299022Y-126243147D01*
X146556434Y-126227856D01*
X146681333Y-126226923D01*
X146990023Y-126235430D01*
G37*
X143650000Y-126441250D02*
X144285000Y-125806250D01*
X144285000Y-125806250D02*
X142909166Y-125806250D01*
X142909166Y-125806250D02*
X142909166Y-126441250D01*
X142909166Y-126441250D02*
X143650000Y-126441250D01*
X143650000Y-126441250D02*
X143650000Y-126441250D01*
G36*
X143650000Y-126441250D02*
G01*
X142909166Y-126441250D01*
X142909166Y-125806250D01*
X144285000Y-125806250D01*
X143650000Y-126441250D01*
G37*
X143650000Y-126441250D02*
X142909166Y-126441250D01*
X142909166Y-125806250D01*
X144285000Y-125806250D01*
X143650000Y-126441250D01*
G36*
X238543305Y-103470154D02*
G01*
X238701675Y-103504844D01*
X238755331Y-103572439D01*
X238756333Y-103587792D01*
X238700410Y-103676395D01*
X238515030Y-103712904D01*
X238417666Y-103715217D01*
X238196098Y-103729465D01*
X238098174Y-103787051D01*
X238079000Y-103885117D01*
X238138868Y-104027094D01*
X238248333Y-104055016D01*
X238385913Y-104090591D01*
X238417666Y-104139966D01*
X238346754Y-104208987D01*
X238248333Y-104224916D01*
X238124386Y-104264965D01*
X238080746Y-104413979D01*
X238079000Y-104479766D01*
X238052389Y-104666307D01*
X237953378Y-104731986D01*
X237909666Y-104734615D01*
X237823088Y-104719567D01*
X237772289Y-104650950D01*
X237747912Y-104493557D01*
X237740598Y-104212178D01*
X237740333Y-104097491D01*
X237740333Y-103460368D01*
X238248333Y-103460368D01*
X238543305Y-103470154D01*
G37*
G36*
X163122543Y-110088002D02*
G01*
X163419935Y-110095588D01*
X163603018Y-110113629D01*
X163699298Y-110146541D01*
X163736283Y-110198739D01*
X163741666Y-110256354D01*
X163728274Y-110338964D01*
X163666023Y-110389425D01*
X163521803Y-110415551D01*
X163262504Y-110425161D01*
X163022000Y-110426254D01*
X162302333Y-110426254D01*
X162302333Y-111105852D01*
X162683333Y-111105852D01*
X162921428Y-111116969D01*
X163034016Y-111163129D01*
X163064187Y-111263547D01*
X163064333Y-111275752D01*
X163039404Y-111381926D01*
X162935891Y-111432132D01*
X162710703Y-111445587D01*
X162683333Y-111445652D01*
X162302333Y-111445652D01*
X162302333Y-112210200D01*
X163022000Y-112210200D01*
X163371923Y-112213362D01*
X163585663Y-112228058D01*
X163696332Y-112262106D01*
X163737039Y-112323321D01*
X163741666Y-112380100D01*
X163732027Y-112450609D01*
X163684771Y-112498351D01*
X163572391Y-112527742D01*
X163367378Y-112543198D01*
X163042224Y-112549136D01*
X162683333Y-112550000D01*
X161625000Y-112550000D01*
X161625000Y-110086454D01*
X162683333Y-110086454D01*
X163122543Y-110088002D01*
G37*
G36*
X213252695Y-126236203D02*
G01*
X213327675Y-126293260D01*
X213353481Y-126441920D01*
X213356333Y-126651672D01*
X213356333Y-127076421D01*
X213949000Y-127076421D01*
X213949000Y-126651672D01*
X213954549Y-126400231D01*
X213988669Y-126274846D01*
X214077568Y-126231692D01*
X214203000Y-126226923D01*
X214457000Y-126226923D01*
X214457000Y-128095819D01*
X214203000Y-128095819D01*
X214046811Y-128084738D01*
X213972835Y-128020754D01*
X213950435Y-127857762D01*
X213949000Y-127713545D01*
X213942673Y-127478659D01*
X213899800Y-127367433D01*
X213784536Y-127333628D01*
X213652666Y-127331271D01*
X213470586Y-127339431D01*
X213384365Y-127394739D01*
X213358161Y-127543431D01*
X213356333Y-127713545D01*
X213348970Y-127948611D01*
X213306457Y-128059946D01*
X213198157Y-128093658D01*
X213102333Y-128095819D01*
X212848333Y-128095819D01*
X212848333Y-126226923D01*
X213102333Y-126226923D01*
X213252695Y-126236203D01*
G37*
G36*
X164461333Y-117731939D02*
G01*
X164811256Y-117735101D01*
X165024997Y-117749797D01*
X165135665Y-117783845D01*
X165176372Y-117845061D01*
X165181000Y-117901839D01*
X165240868Y-118043816D01*
X165350333Y-118071739D01*
X165491837Y-118131807D01*
X165519666Y-118241638D01*
X165579535Y-118383616D01*
X165689000Y-118411538D01*
X165780640Y-118428748D01*
X165831732Y-118505404D01*
X165853788Y-118679050D01*
X165858333Y-118963712D01*
X165853055Y-119262540D01*
X165829547Y-119429143D01*
X165776296Y-119501065D01*
X165689000Y-119515886D01*
X165547495Y-119575955D01*
X165519666Y-119685786D01*
X165459798Y-119827763D01*
X165350333Y-119855685D01*
X165208829Y-119915754D01*
X165181000Y-120025585D01*
X165167607Y-120108195D01*
X165105356Y-120158655D01*
X164961136Y-120184782D01*
X164701837Y-120194392D01*
X164461333Y-120195485D01*
X163741666Y-120195485D01*
X163741666Y-119855685D01*
X164419000Y-119855685D01*
X164630666Y-119855685D01*
X164796647Y-119815866D01*
X164842333Y-119685786D01*
X164902201Y-119543808D01*
X165011666Y-119515886D01*
X165103307Y-119498676D01*
X165154398Y-119422020D01*
X165176454Y-119248374D01*
X165181000Y-118963712D01*
X165175722Y-118664884D01*
X165152214Y-118498281D01*
X165098962Y-118426359D01*
X165011666Y-118411538D01*
X164870162Y-118351470D01*
X164842333Y-118241638D01*
X164792724Y-118108410D01*
X164630666Y-118071739D01*
X164419000Y-118071739D01*
X164419000Y-119855685D01*
X163741666Y-119855685D01*
X163741666Y-117731939D01*
X164461333Y-117731939D01*
G37*
G36*
X227527708Y-126430082D02*
G01*
X227574798Y-126559922D01*
X227580333Y-126694147D01*
X227580333Y-126991471D01*
X228850333Y-126991471D01*
X228850333Y-127671070D01*
X227580333Y-127671070D01*
X227580333Y-127968394D01*
X227561391Y-128173317D01*
X227487444Y-128256000D01*
X227411000Y-128265719D01*
X227269495Y-128205650D01*
X227241666Y-128095819D01*
X227188727Y-127957454D01*
X227114666Y-127925919D01*
X227002418Y-127857920D01*
X226987666Y-127798495D01*
X226917080Y-127694721D01*
X226818333Y-127671070D01*
X226707549Y-127642575D01*
X226658587Y-127527402D01*
X226649000Y-127331271D01*
X226663200Y-127108961D01*
X226720594Y-127010709D01*
X226818333Y-126991471D01*
X226956237Y-126938355D01*
X226987666Y-126864046D01*
X227055439Y-126751423D01*
X227114666Y-126736622D01*
X227218094Y-126665799D01*
X227241666Y-126566722D01*
X227301535Y-126424745D01*
X227411000Y-126396822D01*
X227527708Y-126430082D01*
G37*
G36*
X170911876Y-117733487D02*
G01*
X171209269Y-117741073D01*
X171392351Y-117759114D01*
X171488631Y-117792026D01*
X171525617Y-117844224D01*
X171531000Y-117901839D01*
X171517607Y-117984449D01*
X171455356Y-118034909D01*
X171311136Y-118061036D01*
X171051837Y-118070646D01*
X170811333Y-118071739D01*
X170091666Y-118071739D01*
X170091666Y-118751337D01*
X170472666Y-118751337D01*
X170710761Y-118762454D01*
X170823349Y-118808614D01*
X170853521Y-118909032D01*
X170853666Y-118921237D01*
X170828737Y-119027411D01*
X170725224Y-119077617D01*
X170500037Y-119091072D01*
X170472666Y-119091137D01*
X170091666Y-119091137D01*
X170091666Y-120195485D01*
X169414333Y-120195485D01*
X169414333Y-117731939D01*
X170472666Y-117731939D01*
X170911876Y-117733487D01*
G37*
G36*
X239669151Y-109597797D02*
G01*
X239766186Y-109667547D01*
X239772333Y-109704180D01*
X239818050Y-109817229D01*
X239857000Y-109831605D01*
X239928244Y-109895815D01*
X239935301Y-110034735D01*
X239882715Y-110167803D01*
X239835833Y-110206800D01*
X239773569Y-110262589D01*
X239835833Y-110305908D01*
X239932177Y-110427865D01*
X239907785Y-110605538D01*
X239820714Y-110729646D01*
X239635289Y-110820506D01*
X239383215Y-110843009D01*
X239146340Y-110797748D01*
X239031500Y-110723932D01*
X238935353Y-110583228D01*
X238981473Y-110520967D01*
X239095000Y-110511204D01*
X239232580Y-110546778D01*
X239264333Y-110596153D01*
X239335245Y-110665174D01*
X239433666Y-110681103D01*
X239575170Y-110621035D01*
X239603000Y-110511204D01*
X239543131Y-110369226D01*
X239433666Y-110341304D01*
X239296086Y-110305729D01*
X239264333Y-110256354D01*
X239335245Y-110187334D01*
X239433666Y-110171404D01*
X239575170Y-110111336D01*
X239603000Y-110001505D01*
X239543131Y-109859527D01*
X239433666Y-109831605D01*
X239296086Y-109867180D01*
X239264333Y-109916555D01*
X239193420Y-109985575D01*
X239095000Y-110001505D01*
X238957419Y-109965930D01*
X238925666Y-109916555D01*
X238990095Y-109834074D01*
X239010333Y-109831605D01*
X239085447Y-109762799D01*
X239095000Y-109704180D01*
X239150923Y-109615578D01*
X239336302Y-109579068D01*
X239433666Y-109576756D01*
X239669151Y-109597797D01*
G37*
G36*
X146977666Y-112210200D02*
G01*
X147528000Y-112210200D01*
X147836690Y-112218707D01*
X148008261Y-112249104D01*
X148074303Y-112308706D01*
X148078333Y-112337625D01*
X148049546Y-112398367D01*
X147944263Y-112436807D01*
X147734095Y-112457442D01*
X147390656Y-112464770D01*
X147274000Y-112465050D01*
X146469666Y-112465050D01*
X146469666Y-110596153D01*
X146977666Y-110596153D01*
X146977666Y-112210200D01*
G37*
G36*
X238543305Y-117316976D02*
G01*
X238701675Y-117351667D01*
X238755331Y-117419262D01*
X238756333Y-117434615D01*
X238700410Y-117523217D01*
X238515030Y-117559727D01*
X238417666Y-117562040D01*
X238196098Y-117576287D01*
X238098174Y-117633874D01*
X238079000Y-117731939D01*
X238138868Y-117873917D01*
X238248333Y-117901839D01*
X238385913Y-117937414D01*
X238417666Y-117986789D01*
X238346754Y-118055809D01*
X238248333Y-118071739D01*
X238124386Y-118111788D01*
X238080746Y-118260802D01*
X238079000Y-118326588D01*
X238052389Y-118513130D01*
X237953378Y-118578809D01*
X237909666Y-118581438D01*
X237823088Y-118566390D01*
X237772289Y-118497773D01*
X237747912Y-118340380D01*
X237740598Y-118059001D01*
X237740333Y-117944314D01*
X237740333Y-117307190D01*
X238248333Y-117307190D01*
X238543305Y-117316976D01*
G37*
G36*
X181437000Y-118751337D02*
G01*
X182199000Y-118751337D01*
X182199000Y-117731939D01*
X182876333Y-117731939D01*
X182876333Y-120195485D01*
X182199000Y-120195485D01*
X182199000Y-119091137D01*
X181437000Y-119091137D01*
X181437000Y-120195485D01*
X180759666Y-120195485D01*
X180759666Y-117731939D01*
X181437000Y-117731939D01*
X181437000Y-118751337D01*
G37*
G36*
X238543305Y-109586542D02*
G01*
X238701675Y-109621232D01*
X238755331Y-109688827D01*
X238756333Y-109704180D01*
X238700410Y-109792783D01*
X238515030Y-109829292D01*
X238417666Y-109831605D01*
X238196098Y-109845853D01*
X238098174Y-109903439D01*
X238079000Y-110001505D01*
X238138868Y-110143482D01*
X238248333Y-110171404D01*
X238385913Y-110206979D01*
X238417666Y-110256354D01*
X238346754Y-110325375D01*
X238248333Y-110341304D01*
X238124386Y-110381353D01*
X238080746Y-110530367D01*
X238079000Y-110596153D01*
X238052389Y-110782695D01*
X237953378Y-110848374D01*
X237909666Y-110851003D01*
X237823088Y-110835955D01*
X237772289Y-110767338D01*
X237747912Y-110609945D01*
X237740598Y-110328566D01*
X237740333Y-110213879D01*
X237740333Y-109576756D01*
X238248333Y-109576756D01*
X238543305Y-109586542D01*
G37*
D13*
X150725000Y-79300000D02*
G75*
G03*
X150725000Y-79300000I-725000J0D01*
G01*
D14*
X158000005Y-79300000D02*
G75*
G03*
X158000005Y-79300000I-8000005J0D01*
G01*
D10*
X147592851Y-81699998D02*
X147592851Y-86849998D01*
X147592851Y-86849998D02*
X146392849Y-86349998D01*
X146392849Y-86349998D02*
X145142850Y-85549999D01*
X145142850Y-85549999D02*
X144042851Y-84549998D01*
X144042851Y-84549998D02*
X143192850Y-83399998D01*
X143192850Y-83399998D02*
X142692851Y-82449999D01*
X142692851Y-82449999D02*
X142442851Y-81699998D01*
X142442851Y-81699998D02*
X147592851Y-81699998D01*
G36*
X147592851Y-86849998D02*
G01*
X146392849Y-86349998D01*
X145142850Y-85549999D01*
X144042851Y-84549998D01*
X143192850Y-83399998D01*
X142692851Y-82449999D01*
X142442851Y-81699998D01*
X147592851Y-81699998D01*
X147592851Y-86849998D01*
G37*
X147592851Y-86849998D02*
X146392849Y-86349998D01*
X145142850Y-85549999D01*
X144042851Y-84549998D01*
X143192850Y-83399998D01*
X142692851Y-82449999D01*
X142442851Y-81699998D01*
X147592851Y-81699998D01*
X147592851Y-86849998D01*
X152442851Y-81636423D02*
X157592851Y-81636423D01*
X157592851Y-81636423D02*
X157092851Y-82836425D01*
X157092851Y-82836425D02*
X156292852Y-84086424D01*
X156292852Y-84086424D02*
X155292851Y-85186423D01*
X155292851Y-85186423D02*
X154142851Y-86036424D01*
X154142851Y-86036424D02*
X153192852Y-86536423D01*
X153192852Y-86536423D02*
X152442851Y-86786423D01*
X152442851Y-86786423D02*
X152442851Y-81636423D01*
G36*
X157092851Y-82836425D02*
G01*
X156292852Y-84086424D01*
X155292851Y-85186423D01*
X154142851Y-86036424D01*
X153192852Y-86536423D01*
X152442851Y-86786423D01*
X152442851Y-81636423D01*
X157592851Y-81636423D01*
X157092851Y-82836425D01*
G37*
X157092851Y-82836425D02*
X156292852Y-84086424D01*
X155292851Y-85186423D01*
X154142851Y-86036424D01*
X153192852Y-86536423D01*
X152442851Y-86786423D01*
X152442851Y-81636423D01*
X157592851Y-81636423D01*
X157092851Y-82836425D01*
X152382276Y-76862162D02*
X152382276Y-71712162D01*
X152382276Y-71712162D02*
X153582277Y-72212162D01*
X153582277Y-72212162D02*
X154832277Y-73012162D01*
X154832277Y-73012162D02*
X155932276Y-74012162D01*
X155932276Y-74012162D02*
X156782276Y-75162162D01*
X156782276Y-75162162D02*
X157282276Y-76112162D01*
X157282276Y-76112162D02*
X157532276Y-76862162D01*
X157532276Y-76862162D02*
X152382276Y-76862162D01*
G36*
X153582277Y-72212162D02*
G01*
X154832277Y-73012162D01*
X155932276Y-74012162D01*
X156782276Y-75162162D01*
X157282276Y-76112162D01*
X157532276Y-76862162D01*
X152382276Y-76862162D01*
X152382276Y-71712162D01*
X153582277Y-72212162D01*
G37*
X153582277Y-72212162D02*
X154832277Y-73012162D01*
X155932276Y-74012162D01*
X156782276Y-75162162D01*
X157282276Y-76112162D01*
X157532276Y-76862162D01*
X152382276Y-76862162D01*
X152382276Y-71712162D01*
X153582277Y-72212162D01*
X147592851Y-76899998D02*
X142442851Y-76899998D01*
X142442851Y-76899998D02*
X142942851Y-75699998D01*
X142942851Y-75699998D02*
X143742851Y-74449998D01*
X143742851Y-74449998D02*
X144742851Y-73349998D01*
X144742851Y-73349998D02*
X145892851Y-72499998D01*
X145892851Y-72499998D02*
X146842851Y-71999998D01*
X146842851Y-71999998D02*
X147592851Y-71749998D01*
X147592851Y-71749998D02*
X147592851Y-76899998D01*
G36*
X147592851Y-76899998D02*
G01*
X142442851Y-76899998D01*
X142942851Y-75699998D01*
X143742851Y-74449998D01*
X144742851Y-73349998D01*
X145892851Y-72499998D01*
X146842851Y-71999998D01*
X147592851Y-71749998D01*
X147592851Y-76899998D01*
G37*
X147592851Y-76899998D02*
X142442851Y-76899998D01*
X142942851Y-75699998D01*
X143742851Y-74449998D01*
X144742851Y-73349998D01*
X145892851Y-72499998D01*
X146842851Y-71999998D01*
X147592851Y-71749998D01*
X147592851Y-76899998D01*
%TD*%
D15*
%TO.C,REF\u002A\u002A*%
X237750000Y-136950000D03*
%TD*%
%TO.C,REF\u002A\u002A*%
X143750000Y-136950000D03*
%TD*%
%TO.C,REF\u002A\u002A*%
X143800000Y-63450000D03*
%TD*%
%TO.C,REF\u002A\u002A*%
X237700000Y-63400000D03*
%TD*%
D16*
%TO.C,REF\u002A\u002A*%
X230000000Y-79300000D03*
%TD*%
%TO.C,REF\u002A\u002A*%
X180010000Y-114950000D03*
X216000000Y-122700000D03*
X212100001Y-107200000D03*
X171610000Y-107200000D03*
X224950000Y-122700000D03*
X220670000Y-114950000D03*
X187260000Y-122700000D03*
X152890000Y-122700000D03*
X188960000Y-107200000D03*
X183180000Y-107200000D03*
X160050000Y-107200000D03*
X209110000Y-114950000D03*
X195919999Y-130450000D03*
X223660000Y-107200000D03*
X167200001Y-130450000D03*
X201700001Y-130450000D03*
X193039999Y-122700000D03*
X184450001Y-130450000D03*
X194750000Y-107200000D03*
X164450000Y-122700000D03*
X191670001Y-114950000D03*
X200530000Y-107200000D03*
X210220000Y-122700000D03*
X148480000Y-107200000D03*
X170070001Y-122700000D03*
X197450000Y-114950000D03*
X177400000Y-107200000D03*
X206310000Y-107200000D03*
X227950001Y-114950000D03*
X217880000Y-107200000D03*
X142700000Y-107200000D03*
X229450000Y-107200000D03*
X142700000Y-122700000D03*
X238700000Y-114950000D03*
X227700000Y-130450000D03*
X174230000Y-114950000D03*
X238700000Y-130450000D03*
X178669999Y-130450000D03*
X238700000Y-107200000D03*
X214890000Y-114950000D03*
X221700000Y-130450000D03*
X154270000Y-107200000D03*
X181630000Y-122700000D03*
X214450000Y-130450000D03*
X238700000Y-122700000D03*
X198820001Y-122700000D03*
X178780000Y-137450000D03*
X203230000Y-114950000D03*
X207480000Y-130450000D03*
X204440000Y-122700000D03*
X161419999Y-130450000D03*
X150949999Y-114950000D03*
X175850000Y-122700000D03*
X144200000Y-114950000D03*
X165830000Y-107200000D03*
X142700000Y-130450000D03*
X149200001Y-130450000D03*
X158670000Y-122700000D03*
X168349999Y-114950000D03*
X190230000Y-130450000D03*
X156790000Y-114950000D03*
X155700000Y-130450000D03*
X185790000Y-114950000D03*
X172980000Y-130450000D03*
X162570000Y-114950000D03*
%TD*%
%TO.C,REF\u002A\u002A*%
X155000000Y-79300000D03*
X149989003Y-74291065D03*
X145000000Y-79300000D03*
X149989003Y-84267116D03*
%TD*%
M02*
