M48
; DRILL file {KiCad (6.0.0)} date Sun May  8 20:37:38 2022
; FORMAT={-:-/ absolute / inch / decimal}
; #@! TF.CreationDate,2022-05-08T20:37:38+10:00
; #@! TF.GenerationSoftware,Kicad,Pcbnew,(6.0.0)
; #@! TF.FileFunction,NonPlated,1,2,NPTH
FMAT,2
INCH
; #@! TA.AperFunction,NonPlated,NPTH,ComponentDrill
T1C0.0866
; #@! TA.AperFunction,NonPlated,NPTH,ComponentDrill
T2C0.1102
%
G90
G05
T1
X5.6594Y-5.3917
X5.6614Y-2.498
X9.3583Y-2.4961
X9.3602Y-5.3917
T2
X5.6181Y-4.2205
X5.6181Y-4.8307
X5.6181Y-5.1358
X5.6772Y-4.5256
X5.7087Y-3.122
X5.8457Y-4.2205
X5.874Y-5.1358
X5.9051Y-2.9248
X5.9051Y-3.3176
X5.9429Y-4.5256
X6.0193Y-4.8307
X6.0736Y-4.2205
X6.1024Y-3.122
X6.1299Y-5.1358
X6.1728Y-4.5256
X6.2469Y-4.8307
X6.3012Y-4.2205
X6.3551Y-5.1358
X6.4004Y-4.5256
X6.4744Y-4.8307
X6.5287Y-4.2205
X6.5827Y-5.1358
X6.628Y-4.5256
X6.6957Y-4.8307
X6.7563Y-4.2205
X6.8102Y-5.1358
X6.8594Y-4.5256
X6.9232Y-4.8307
X6.9843Y-4.2205
X7.0343Y-5.1358
X7.0386Y-5.4114
X7.087Y-4.5256
X7.1508Y-4.8307
X7.2118Y-4.2205
X7.2618Y-5.1358
X7.3146Y-4.5256
X7.3724Y-4.8307
X7.4394Y-4.2205
X7.4894Y-5.1358
X7.5461Y-4.5256
X7.6Y-4.8307
X7.6673Y-4.2205
X7.7134Y-5.1358
X7.7736Y-4.5256
X7.8276Y-4.8307
X7.8949Y-4.2205
X7.9409Y-5.1358
X8.0012Y-4.5256
X8.0488Y-4.8307
X8.1224Y-4.2205
X8.1685Y-5.1358
X8.2327Y-4.5256
X8.2764Y-4.8307
X8.3504Y-4.2205
X8.4429Y-5.1358
X8.4602Y-4.5256
X8.5039Y-4.8307
X8.578Y-4.2205
X8.6878Y-4.5256
X8.7283Y-5.1358
X8.8055Y-4.2205
X8.8563Y-4.8307
X8.9646Y-5.1358
X8.9744Y-4.5256
X9.0335Y-4.2205
X9.0551Y-3.122
X9.3976Y-4.2205
X9.3976Y-4.5256
X9.3976Y-4.8307
X9.3976Y-5.1358
T0
M30
