%TF.GenerationSoftware,KiCad,Pcbnew,(6.0.0)*%
%TF.CreationDate,2022-05-08T20:40:57+10:00*%
%TF.ProjectId,cover,636f7665-722e-46b6-9963-61645f706362,rev?*%
%TF.SameCoordinates,Original*%
%TF.FileFunction,Legend,Bot*%
%TF.FilePolarity,Positive*%
%FSLAX46Y46*%
G04 Gerber Fmt 4.6, Leading zero omitted, Abs format (unit mm)*
G04 Created by KiCad (PCBNEW (6.0.0)) date 2022-05-08 20:40:57*
%MOMM*%
%LPD*%
G01*
G04 APERTURE LIST*
%ADD10C,0.150000*%
G04 APERTURE END LIST*
D10*
X192419047Y-102752380D02*
X192419047Y-103466666D01*
X192466666Y-103609523D01*
X192561904Y-103704761D01*
X192704761Y-103752380D01*
X192800000Y-103752380D01*
X191466666Y-103752380D02*
X191942857Y-103752380D01*
X191942857Y-102752380D01*
X190561904Y-103657142D02*
X190609523Y-103704761D01*
X190752380Y-103752380D01*
X190847619Y-103752380D01*
X190990476Y-103704761D01*
X191085714Y-103609523D01*
X191133333Y-103514285D01*
X191180952Y-103323809D01*
X191180952Y-103180952D01*
X191133333Y-102990476D01*
X191085714Y-102895238D01*
X190990476Y-102800000D01*
X190847619Y-102752380D01*
X190752380Y-102752380D01*
X190609523Y-102800000D01*
X190561904Y-102847619D01*
X189847619Y-102752380D02*
X189847619Y-103466666D01*
X189895238Y-103609523D01*
X189990476Y-103704761D01*
X190133333Y-103752380D01*
X190228571Y-103752380D01*
X188895238Y-103752380D02*
X189371428Y-103752380D01*
X189371428Y-102752380D01*
X187990476Y-103657142D02*
X188038095Y-103704761D01*
X188180952Y-103752380D01*
X188276190Y-103752380D01*
X188419047Y-103704761D01*
X188514285Y-103609523D01*
X188561904Y-103514285D01*
X188609523Y-103323809D01*
X188609523Y-103180952D01*
X188561904Y-102990476D01*
X188514285Y-102895238D01*
X188419047Y-102800000D01*
X188276190Y-102752380D01*
X188180952Y-102752380D01*
X188038095Y-102800000D01*
X187990476Y-102847619D01*
X187276190Y-102752380D02*
X187276190Y-103466666D01*
X187323809Y-103609523D01*
X187419047Y-103704761D01*
X187561904Y-103752380D01*
X187657142Y-103752380D01*
X186323809Y-103752380D02*
X186800000Y-103752380D01*
X186800000Y-102752380D01*
X185419047Y-103657142D02*
X185466666Y-103704761D01*
X185609523Y-103752380D01*
X185704761Y-103752380D01*
X185847619Y-103704761D01*
X185942857Y-103609523D01*
X185990476Y-103514285D01*
X186038095Y-103323809D01*
X186038095Y-103180952D01*
X185990476Y-102990476D01*
X185942857Y-102895238D01*
X185847619Y-102800000D01*
X185704761Y-102752380D01*
X185609523Y-102752380D01*
X185466666Y-102800000D01*
X185419047Y-102847619D01*
X184704761Y-102752380D02*
X184704761Y-103466666D01*
X184752380Y-103609523D01*
X184847619Y-103704761D01*
X184990476Y-103752380D01*
X185085714Y-103752380D01*
X183752380Y-103752380D02*
X184228571Y-103752380D01*
X184228571Y-102752380D01*
X182847619Y-103657142D02*
X182895238Y-103704761D01*
X183038095Y-103752380D01*
X183133333Y-103752380D01*
X183276190Y-103704761D01*
X183371428Y-103609523D01*
X183419047Y-103514285D01*
X183466666Y-103323809D01*
X183466666Y-103180952D01*
X183419047Y-102990476D01*
X183371428Y-102895238D01*
X183276190Y-102800000D01*
X183133333Y-102752380D01*
X183038095Y-102752380D01*
X182895238Y-102800000D01*
X182847619Y-102847619D01*
M02*
